<?xml version="1.0" encoding="UTF-8" standalone="no"?>
<svg
   version="1.1"
   width="24"
   height="24"
   viewBox="0 0 24 24"
   id="svg4"
   sodipodi:docname="camera.svg"
   inkscape:version="1.1 (c4e8f9ed74, 2021-05-24)"
   xmlns:inkscape="http://www.inkscape.org/namespaces/inkscape"
   xmlns:sodipodi="http://sodipodi.sourceforge.net/DTD/sodipodi-0.dtd"
   xmlns="http://www.w3.org/2000/svg"
   xmlns:svg="http://www.w3.org/2000/svg">
  <defs
     id="defs8" />
  <sodipodi:namedview
     id="namedview6"
     pagecolor="#505050"
     bordercolor="#ffffff"
     borderopacity="1"
     inkscape:pageshadow="0"
     inkscape:pageopacity="0"
     inkscape:pagecheckerboard="1"
     showgrid="false"
     inkscape:zoom="26"
     inkscape:cx="12"
     inkscape:cy="12.019231"
     inkscape:window-width="1600"
     inkscape:window-height="826"
     inkscape:window-x="0"
     inkscape:window-y="0"
     inkscape:window-maximized="1"
     inkscape:current-layer="svg4" />
  <path
     d="M18.15,4.94C17.77,4.91 17.37,5 17,5.2L8.35,10.2C7.39,10.76 7.07,12 7.62,12.94L9.12,15.53C9.67,16.5 10.89,16.82 11.85,16.27L13.65,15.23C13.92,15.69 14.32,16.06 14.81,16.27V18.04C14.81,19.13 15.7,20 16.81,20H22V18.04H16.81V16.27C17.72,15.87 18.31,14.97 18.31,14C18.31,13.54 18.19,13.11 17.97,12.73L20.5,11.27C21.47,10.71 21.8,9.5 21.24,8.53L19.74,5.94C19.4,5.34 18.79,5 18.15,4.94M6.22,13.17L2,13.87L2.75,15.17L4.75,18.63L5.5,19.93L8.22,16.63L6.22,13.17Z"
     id="path2"
     style="fill:#e2e2e2" />
</svg>
