<?xml version="1.0" encoding="UTF-8" standalone="no"?>
<svg
   xmlns:dc="http://purl.org/dc/elements/1.1/"
   xmlns:cc="http://creativecommons.org/ns#"
   xmlns:rdf="http://www.w3.org/1999/02/22-rdf-syntax-ns#"
   xmlns:svg="http://www.w3.org/2000/svg"
   xmlns="http://www.w3.org/2000/svg"
   xmlns:sodipodi="http://sodipodi.sourceforge.net/DTD/sodipodi-0.dtd"
   xmlns:inkscape="http://www.inkscape.org/namespaces/inkscape"
   version="1.1"
   width="24"
   height="24"
   viewBox="0 0 24 24"
   id="svg4"
   sodipodi:docname="cool-down.svg"
   inkscape:version="1.0.2-2 (e86c870879, 2021-01-15)">
  <metadata
     id="metadata6">
    <rdf:RDF>
      <cc:Work
         rdf:about="">
        <dc:format>image/svg+xml</dc:format>
        <dc:type
           rdf:resource="http://purl.org/dc/dcmitype/StillImage" />
      </cc:Work>
    </rdf:RDF>
  </metadata>
  <defs
     id="defs8" />
  <sodipodi:namedview
     id="namedview6"
     pagecolor="#505050"
     bordercolor="#ffffff"
     borderopacity="1"
     inkscape:pageshadow="0"
     inkscape:pageopacity="0"
     inkscape:pagecheckerboard="1"
     showgrid="false"
     inkscape:zoom="26"
     inkscape:cx="-0.38461538"
     inkscape:cy="12.019231"
     inkscape:window-width="1920"
     inkscape:window-height="1018"
     inkscape:window-x="-6"
     inkscape:window-y="-6"
     inkscape:window-maximized="1"
     inkscape:current-layer="svg4"
     inkscape:document-rotation="0" />
  <path
     d="m 20.785,13.95 -2.33,0.62 -2,-1.13 v -2.88 l 2,-1.13 2.33,0.62 0.52,-1.93 -1.77,-0.47 0.46,-1.77 -1.93,-0.5199999 -0.62,2.3299999 -2,1.13 -2.45,-1.44 V 5.1200001 l 1.71,-1.71 -1.42,-1.41 -1.29,1.29 -1.29,-1.29 -1.4200001,1.41 1.7100001,1.71 V 7.38 l -2.5000001,1.44 -2,-1.13 -0.58,-2.33 -1.92,0.5199999 0.47,1.77 -1.77,0.4700001 0.52,1.93 2.33,-0.62 2,1.13 v 2.89 l -2,1.13 -2.33,-0.62 -0.52,1.93 1.77,0.47 -0.47,1.76 1.93,0.52 0.62,-2.33 2,-1.13 2.4500001,1.44 v 2.26 L 9.2849999,20.59 10.705,22 l 1.29,-1.29 1.29,1.29 1.41,-1.41 -1.7,-1.71 v -2.26 l 2.5,-1.45 2,1.13 0.62,2.33 1.88,-0.51 -0.47,-1.77 1.77,-0.47 -0.51,-1.93 M 9.4949999,10.56 11.995,9.1099999 14.495,10.56 v 2.88 l -2.5,1.45 -2.5000001,-1.45 z"
     id="path2"
     style="font-variation-settings:normal;opacity:1;vector-effect:none;fill:#2196f3;fill-opacity:1;stroke-width:1;stroke-linecap:butt;stroke-linejoin:miter;stroke-miterlimit:4;stroke-dasharray:none;stroke-dashoffset:0;stroke-opacity:1;stop-color:#000000;stop-opacity:1" />
</svg>
