<?xml version="1.0" encoding="UTF-8" standalone="no"?>
<svg
   version="1.1"
   width="24"
   height="24"
   viewBox="0 0 24 24"
   id="svg4"
   sodipodi:docname="delete.svg"
   inkscape:version="1.1 (c4e8f9ed74, 2021-05-24)"
   xmlns:inkscape="http://www.inkscape.org/namespaces/inkscape"
   xmlns:sodipodi="http://sodipodi.sourceforge.net/DTD/sodipodi-0.dtd"
   xmlns="http://www.w3.org/2000/svg"
   xmlns:svg="http://www.w3.org/2000/svg">
  <sodipodi:namedview
     id="namedview5"
     pagecolor="#505050"
     bordercolor="#ffffff"
     borderopacity="1"
     inkscape:pageshadow="0"
     inkscape:pageopacity="0"
     inkscape:pagecheckerboard="1"
     showgrid="false"
     inkscape:zoom="26"
     inkscape:cx="12"
     inkscape:cy="12.019231"
     inkscape:window-width="1600"
     inkscape:window-height="826"
     inkscape:window-x="0"
     inkscape:window-y="0"
     inkscape:window-maximized="1"
     inkscape:current-layer="svg4" />
  <defs
     id="defs8" />
  <path
     d="M6,19A2,2 0 0,0 8,21H16A2,2 0 0,0 18,19V7H6V19M8.46,11.88L9.87,10.47L12,12.59L14.12,10.47L15.53,11.88L13.41,14L15.53,16.12L14.12,17.53L12,15.41L9.88,17.53L8.47,16.12L10.59,14L8.46,11.88M15.5,4L14.5,3H9.5L8.5,4H5V6H19V4H15.5Z"
     id="path2"
     style="fill:#e2e2e2;fill-opacity:1" />
</svg>
