<?xml version="1.0" encoding="UTF-8" standalone="no"?>
<svg
   xmlns:dc="http://purl.org/dc/elements/1.1/"
   xmlns:cc="http://creativecommons.org/ns#"
   xmlns:rdf="http://www.w3.org/1999/02/22-rdf-syntax-ns#"
   xmlns:svg="http://www.w3.org/2000/svg"
   xmlns="http://www.w3.org/2000/svg"
   xmlns:sodipodi="http://sodipodi.sourceforge.net/DTD/sodipodi-0.dtd"
   xmlns:inkscape="http://www.inkscape.org/namespaces/inkscape"
   version="1.1"
   width="24"
   height="24"
   viewBox="0 0 24 24"
   id="svg1217"
   sodipodi:docname="files.svg"
   inkscape:version="1.0.2-2 (e86c870879, 2021-01-15)">
  <metadata
     id="metadata6">
    <rdf:RDF>
      <cc:Work
         rdf:about="">
        <dc:format>image/svg+xml</dc:format>
        <dc:type
           rdf:resource="http://purl.org/dc/dcmitype/StillImage" />
      </cc:Work>
    </rdf:RDF>
  </metadata>
  <defs
     id="defs1221" />
  <sodipodi:namedview
     id="namedview1219"
     pagecolor="#505050"
     bordercolor="#ffffff"
     borderopacity="1"
     inkscape:pageshadow="0"
     inkscape:pageopacity="0"
     inkscape:pagecheckerboard="1"
     showgrid="false"
     inkscape:zoom="13"
     inkscape:cx="12.058988"
     inkscape:cy="7.7802257"
     inkscape:window-width="1920"
     inkscape:window-height="1018"
     inkscape:window-x="-6"
     inkscape:window-y="-6"
     inkscape:window-maximized="1"
     inkscape:current-layer="svg1217"
     inkscape:document-rotation="0" />
  <path
     d="M 16,1e-7 H 8 c -1.1,0 -2,0.89999998 -2,2 V 18 c 0,1.1 0.9,2 2,2 h 12 c 1.1,0 2,-0.9 2,-2 V 6 L 16,1e-7 M 20,18 H 8 V 2.0000001 h 7 V 7 h 5 V 18 M 4,4.0000001 V 22 h 16 v 2 H 4 C 2.9,24 2,23.1 2,22 V 4.0000001 H 4 M 10,10 v 2 h 8 v -2 h -8 m 0,4 v 2 h 5 v -2 z"
     id="path2"
     style="font-variation-settings:normal;opacity:1;vector-effect:none;fill:#e2e2e2;fill-opacity:1;stroke-width:1;stroke-linecap:butt;stroke-linejoin:miter;stroke-miterlimit:4;stroke-dasharray:none;stroke-dashoffset:0;stroke-opacity:1;stop-color:#000000;stop-opacity:1" />
</svg>
