<?xml version="1.0" encoding="UTF-8" standalone="no"?>
<svg
   xmlns:dc="http://purl.org/dc/elements/1.1/"
   xmlns:cc="http://creativecommons.org/ns#"
   xmlns:rdf="http://www.w3.org/1999/02/22-rdf-syntax-ns#"
   xmlns:svg="http://www.w3.org/2000/svg"
   xmlns="http://www.w3.org/2000/svg"
   xmlns:sodipodi="http://sodipodi.sourceforge.net/DTD/sodipodi-0.dtd"
   xmlns:inkscape="http://www.inkscape.org/namespaces/inkscape"
   version="1.1"
   width="24"
   height="24"
   viewBox="0 0 24 24"
   id="svg1022"
   sodipodi:docname="hashtag.svg"
   inkscape:version="1.0.2-2 (e86c870879, 2021-01-15)">
  <metadata
     id="metadata6">
    <rdf:RDF>
      <cc:Work
         rdf:about="">
        <dc:format>image/svg+xml</dc:format>
        <dc:type
           rdf:resource="http://purl.org/dc/dcmitype/StillImage" />
      </cc:Work>
    </rdf:RDF>
  </metadata>
  <defs
     id="defs1026" />
  <sodipodi:namedview
     id="namedview1024"
     pagecolor="#505050"
     bordercolor="#ffffff"
     borderopacity="1"
     inkscape:pageshadow="0"
     inkscape:pageopacity="0"
     inkscape:pagecheckerboard="1"
     showgrid="false"
     inkscape:zoom="26"
     inkscape:cx="-0.38461538"
     inkscape:cy="12.019231"
     inkscape:window-width="1920"
     inkscape:window-height="1018"
     inkscape:window-x="-6"
     inkscape:window-y="-6"
     inkscape:window-maximized="1"
     inkscape:current-layer="svg1022"
     inkscape:document-rotation="0" />
  <path
     d="m 12,19 a 2,2 0 0 0 -2,2 2,2 0 0 0 2,2 2,2 0 0 0 2,-2 2,2 0 0 0 -2,-2 M 6.0000002,1.0000004 a 2,2 0 0 0 -2,2 2,2 0 0 0 2,1.9999997 2,2 0 0 0 2,-1.9999997 2,2 0 0 0 -2,-2 m 0,5.9999992 a 2,2 0 0 0 -2,2 2,2 0 0 0 2,2.0000004 2,2 0 0 0 2,-2.0000004 2,2 0 0 0 -2,-2 m 0,6.0000004 a 2,2 0 0 0 -2,2 2,2 0 0 0 2,2 2,2 0 0 0 2,-2 2,2 0 0 0 -2,-2 M 18,5.0000001 a 2,2 0 0 0 2,-1.9999997 2,2 0 0 0 -2,-2 2,2 0 0 0 -2,2 2,2 0 0 0 2,1.9999997 M 12,13 a 2,2 0 0 0 -2,2 2,2 0 0 0 2,2 2,2 0 0 0 2,-2 2,2 0 0 0 -2,-2 m 6,0 a 2,2 0 0 0 -2,2 2,2 0 0 0 2,2 2,2 0 0 0 2,-2 2,2 0 0 0 -2,-2 m 0,-6.0000004 a 2,2 0 0 0 -2,2 A 2,2 0 0 0 18,11 a 2,2 0 0 0 2,-2.0000004 2,2 0 0 0 -2,-2 m -6,0 a 2,2 0 0 0 -2,2 A 2,2 0 0 0 12,11 a 2,2 0 0 0 2,-2.0000004 2,2 0 0 0 -2,-2 m 0,-5.9999992 a 2,2 0 0 0 -2,2 2,2 0 0 0 2,1.9999997 2,2 0 0 0 2,-1.9999997 2,2 0 0 0 -2,-2 z"
     id="path2"
     style="font-variation-settings:normal;opacity:1;vector-effect:none;fill:#e2e2e2;fill-opacity:1;stroke-width:1;stroke-linecap:butt;stroke-linejoin:miter;stroke-miterlimit:4;stroke-dasharray:none;stroke-dashoffset:0;stroke-opacity:1;stop-color:#000000;stop-opacity:1" />
</svg>
