<?xml version="1.0" encoding="UTF-8" standalone="no"?>
<svg
   version="1.1"
   width="24"
   height="24"
   viewBox="0 0 24 24"
   id="svg957"
   sodipodi:docname="lock.svg"
   inkscape:version="1.2.2 (b0a8486541, 2022-12-01)"
   xmlns:inkscape="http://www.inkscape.org/namespaces/inkscape"
   xmlns:sodipodi="http://sodipodi.sourceforge.net/DTD/sodipodi-0.dtd"
   xmlns="http://www.w3.org/2000/svg"
   xmlns:svg="http://www.w3.org/2000/svg">
  <defs
     id="defs961" />
  <sodipodi:namedview
     id="namedview959"
     pagecolor="#505050"
     bordercolor="#ffffff"
     borderopacity="1"
     inkscape:pageshadow="0"
     inkscape:pageopacity="0"
     inkscape:pagecheckerboard="1"
     showgrid="false"
     inkscape:zoom="13"
     inkscape:cx="-1.6923077"
     inkscape:cy="13.615385"
     inkscape:window-width="1600"
     inkscape:window-height="828"
     inkscape:window-x="0"
     inkscape:window-y="0"
     inkscape:window-maximized="1"
     inkscape:current-layer="svg957"
     inkscape:showpageshadow="2"
     inkscape:deskcolor="#505050" />
  <path
     d="m 6.75,21.1875 c -0.4812507,0 -0.89323,-0.171354 -1.235938,-0.514062 C 5.171354,20.330729 5,19.91875 5,19.4375 v -8.75 C 5,10.20625 5.171354,9.794271 5.514062,9.4515625 5.85677,9.1088542 6.2687493,8.9375001 6.75,8.9375001 H 7.625 V 7.1875002 C 7.625,5.9770835 8.0515627,4.9453127 8.904688,4.0921878 9.757812,3.2390626 10.789582,2.8125 11.999998,2.8125 c 1.210418,0 2.24219,0.4265626 3.095315,1.2796878 C 15.948438,4.9453127 16.375,5.9770835 16.375,7.1875002 v 1.7499999 h 0.875 c 0.48125,0 0.893229,0.1713541 1.235938,0.5140624 C 18.828646,9.794271 19,10.20625 19,10.6875 v 8.75 c 0,0.48125 -0.171354,0.893229 -0.514062,1.235938 C 18.143229,21.016146 17.73125,21.1875 17.25,21.1875 Z m 5.249998,-4.375 c 0.48125,0 0.89323,-0.171354 1.23594,-0.514062 C 13.578646,15.955729 13.75,15.54375 13.75,15.062501 c 0,-0.48125 -0.171354,-0.89323 -0.514062,-1.235939 -0.34271,-0.342707 -0.75469,-0.514061 -1.23594,-0.514061 -0.48125,0 -0.893228,0.171354 -1.235935,0.514061 C 10.421354,14.169271 10.25,14.581251 10.25,15.062501 c 0,0.481249 0.171354,0.893228 0.514063,1.235937 0.342707,0.342708 0.754685,0.514062 1.235935,0.514062 z M 9.375,8.9375001 h 5.25 V 7.1875002 C 14.625,6.4583336 14.369792,5.8385419 13.859375,5.3281251 13.348958,4.8177084 12.729166,4.5625 11.999998,4.5625 c -0.729165,0 -1.348957,0.2552084 -1.859374,0.7656251 C 9.630208,5.8385419 9.375,6.4583336 9.375,7.1875002 Z"
     id="path233"
     style="font-variation-settings:normal;opacity:1;vector-effect:none;fill:#e2e2e2;fill-opacity:1;stroke-width:0.999994;stroke-linecap:butt;stroke-linejoin:miter;stroke-miterlimit:4;stroke-dasharray:none;stroke-dashoffset:0;stroke-opacity:1;-inkscape-stroke:none;stop-color:#000000;stop-opacity:1"
     sodipodi:nodetypes="sssssscssssscssssssssssssssssccsssssc" />
</svg>
