<?xml version="1.0" encoding="UTF-8" standalone="no"?>
<svg
   version="1.1"
   width="24"
   height="24"
   viewBox="0 0 24 24"
   id="svg1022"
   sodipodi:docname="print.svg"
   inkscape:version="1.1 (c4e8f9ed74, 2021-05-24)"
   xmlns:inkscape="http://www.inkscape.org/namespaces/inkscape"
   xmlns:sodipodi="http://sodipodi.sourceforge.net/DTD/sodipodi-0.dtd"
   xmlns="http://www.w3.org/2000/svg"
   xmlns:svg="http://www.w3.org/2000/svg">
  <defs
     id="defs1026" />
  <sodipodi:namedview
     id="namedview1024"
     pagecolor="#505050"
     bordercolor="#ffffff"
     borderopacity="1"
     inkscape:pageshadow="0"
     inkscape:pageopacity="0"
     inkscape:pagecheckerboard="1"
     showgrid="false"
     inkscape:zoom="26"
     inkscape:cx="-0.38461538"
     inkscape:cy="12.019231"
     inkscape:window-width="1600"
     inkscape:window-height="826"
     inkscape:window-x="0"
     inkscape:window-y="0"
     inkscape:window-maximized="1"
     inkscape:current-layer="svg1022" />
  <path
     d="M19,6A1,1 0 0,0 20,5A1,1 0 0,0 19,4A1,1 0 0,0 18,5A1,1 0 0,0 19,6M19,2A3,3 0 0,1 22,5V11H18V7H6V11H2V5A3,3 0 0,1 5,2H19M18,18.25C18,18.63 17.79,18.96 17.47,19.13L12.57,21.82C12.4,21.94 12.21,22 12,22C11.79,22 11.59,21.94 11.43,21.82L6.53,19.13C6.21,18.96 6,18.63 6,18.25V13C6,12.62 6.21,12.29 6.53,12.12L11.43,9.68C11.59,9.56 11.79,9.5 12,9.5C12.21,9.5 12.4,9.56 12.57,9.68L17.47,12.12C17.79,12.29 18,12.62 18,13V18.25M12,11.65L9.04,13L12,14.6L14.96,13L12,11.65M8,17.66L11,19.29V16.33L8,14.71V17.66M16,17.66V14.71L13,16.33V19.29L16,17.66Z"
     id="path1020"
     style="fill:#e2e2e2" />
</svg>
