<?xml version="1.0" encoding="UTF-8" standalone="no"?>
<svg
   xmlns:dc="http://purl.org/dc/elements/1.1/"
   xmlns:cc="http://creativecommons.org/ns#"
   xmlns:rdf="http://www.w3.org/1999/02/22-rdf-syntax-ns#"
   xmlns:svg="http://www.w3.org/2000/svg"
   xmlns="http://www.w3.org/2000/svg"
   xmlns:sodipodi="http://sodipodi.sourceforge.net/DTD/sodipodi-0.dtd"
   xmlns:inkscape="http://www.inkscape.org/namespaces/inkscape"
   version="1.1"
   width="24"
   height="24"
   viewBox="0 0 24 24"
   id="svg827"
   sodipodi:docname="settings.svg"
   inkscape:version="1.0.2-2 (e86c870879, 2021-01-15)">
  <metadata
     id="metadata6">
    <rdf:RDF>
      <cc:Work
         rdf:about="">
        <dc:format>image/svg+xml</dc:format>
        <dc:type
           rdf:resource="http://purl.org/dc/dcmitype/StillImage" />
      </cc:Work>
    </rdf:RDF>
  </metadata>
  <defs
     id="defs831" />
  <sodipodi:namedview
     id="namedview829"
     pagecolor="#505050"
     bordercolor="#ffffff"
     borderopacity="1"
     inkscape:pageshadow="0"
     inkscape:pageopacity="0"
     inkscape:pagecheckerboard="1"
     showgrid="false"
     inkscape:zoom="26"
     inkscape:cx="-0.38461538"
     inkscape:cy="12.019231"
     inkscape:window-width="1920"
     inkscape:window-height="1018"
     inkscape:window-x="-6"
     inkscape:window-y="-6"
     inkscape:window-maximized="1"
     inkscape:current-layer="svg827"
     inkscape:document-rotation="0" />
  <path
     d="m 15.391569,17.95 c 1.349999,0 2.449999,-1.1 2.449999,-2.45 0,-1.35 -1.1,-2.45 -2.449999,-2.45 -1.36,0 -2.45,1.1 -2.45,2.45 0,1.35 1.09,2.45 2.45,2.45 m 5.199999,-1.77 1.48,1.16 c 0.13,0.11 0.17,0.29 0.08,0.45 l -1.4,2.42 c -0.09,0.15 -0.26,0.21 -0.43,0.15 l -1.74,-0.7 c -0.36,0.28 -0.76,0.51 -1.18,0.69 l -0.27,1.85 c -0.02,0.17 -0.17,0.3 -0.34,0.3 h -2.799999 c -0.18,0 -0.32,-0.13 -0.35,-0.3 l -0.26,-1.85 c -0.43,-0.18 -0.82,-0.41 -1.18,-0.69 l -1.75,0.7 c -0.15,0.06 -0.34,0 -0.42,-0.15 L 8.6315687,17.79 c -0.09,-0.16 -0.05,-0.34 0.08,-0.45 l 1.4800003,-1.16 -0.05,-0.68 0.05,-0.69 -1.4800003,-1.15 c -0.13,-0.11 -0.17,-0.3 -0.08,-0.45 l 1.4000003,-2.42 c 0.08,-0.16 0.27,-0.22 0.42,-0.16 l 1.75,0.71 c 0.36,-0.28 0.75,-0.52 1.18,-0.69 l 0.26,-1.8600001 c 0.03,-0.16 0.17,-0.29 0.35,-0.29 h 2.799999 c 0.17,0 0.32,0.13 0.34,0.29 l 0.27,1.8600001 c 0.42,0.17 0.82,0.41 1.18,0.69 l 1.74,-0.71 c 0.17,-0.06 0.34,0 0.43,0.16 l 1.4,2.42 c 0.09,0.15 0.05,0.34 -0.08,0.45 l -1.48,1.15 0.05,0.69 -0.05,0.68 M 6.1815687,7.5699999 c 0.87,0 1.57,-0.7 1.57,-1.57 0,-0.87 -0.7,-1.58 -1.57,-1.58 a 1.58,1.58 0 0 0 -1.58,1.58 c 0,0.87 0.71,1.57 1.58,1.57 m 3.34,-1.13 0.9700003,0.74 c 0.07,0.07 0.09,0.19 0.03,0.29 l -0.9000003,1.56 c -0.05,0.1 -0.17,0.14 -0.27,0.1 l -1.12,-0.45 -0.74,0.44 -0.19,1.1900001 c -0.02,0.11 -0.11,0.19 -0.22,0.19 h -1.8 c -0.12,0 -0.21,-0.08 -0.23,-0.19 l -0.16,-1.1900001 -0.76,-0.44 -1.14,0.45 c -0.09,0.04 -0.2,0 -0.26,-0.1 l -0.9,-1.56 c -0.06,-0.1 -0.03,-0.22 0.05,-0.29 l 0.95,-0.74 -0.03,-0.44 0.03,-0.44 -0.95,-0.74 c -0.08,-0.07 -0.11,-0.19 -0.05,-0.29 l 0.9,-1.56 c 0.06,-0.1 0.17,-0.14 0.26,-0.1 l 1.13,0.45 0.77,-0.44 0.16,-1.1900001 c 0.02,-0.11 0.11,-0.19 0.23,-0.19 h 1.8 c 0.11,0 0.2,0.08 0.22,0.19 l 0.19,1.1900001 0.74,0.44 1.12,-0.45 c 0.1,-0.04 0.22,0 0.27,0.1 l 0.9000003,1.56 c 0.06,0.1 0.04,0.22 -0.03,0.29 l -0.9700003,0.74 0.03,0.44 z"
     id="path2"
     style="font-variation-settings:normal;opacity:1;vector-effect:none;fill:#e2e2e2;fill-opacity:1;stroke-width:1;stroke-linecap:butt;stroke-linejoin:miter;stroke-miterlimit:4;stroke-dasharray:none;stroke-dashoffset:0;stroke-opacity:1;stop-color:#000000;stop-opacity:1" />
</svg>
