<?xml version="1.0" encoding="UTF-8" standalone="no"?>
<svg
   xmlns:dc="http://purl.org/dc/elements/1.1/"
   xmlns:cc="http://creativecommons.org/ns#"
   xmlns:rdf="http://www.w3.org/1999/02/22-rdf-syntax-ns#"
   xmlns:svg="http://www.w3.org/2000/svg"
   xmlns="http://www.w3.org/2000/svg"
   xmlns:sodipodi="http://sodipodi.sourceforge.net/DTD/sodipodi-0.dtd"
   xmlns:inkscape="http://www.inkscape.org/namespaces/inkscape"
   version="1.1"
   width="64"
   height="64"
   viewBox="0 0 64 64"
   id="svg4"
   sodipodi:docname="camera.svg"
   inkscape:version="1.0.2 (e86c870879, 2021-01-15)">
  <metadata
     id="metadata6">
    <rdf:RDF>
      <cc:Work
         rdf:about="">
        <dc:format>image/svg+xml</dc:format>
        <dc:type
           rdf:resource="http://purl.org/dc/dcmitype/StillImage" />
        <dc:title></dc:title>
      </cc:Work>
    </rdf:RDF>
  </metadata>
  <defs
     id="defs8" />
  <sodipodi:namedview
     id="namedview6"
     pagecolor="#505050"
     bordercolor="#ffffff"
     borderopacity="1"
     inkscape:pageshadow="0"
     inkscape:pageopacity="0"
     inkscape:pagecheckerboard="1"
     showgrid="false"
     inkscape:zoom="9.1923882"
     inkscape:cx="10.488123"
     inkscape:cy="23.486516"
     inkscape:window-width="1920"
     inkscape:window-height="829"
     inkscape:window-x="0"
     inkscape:window-y="0"
     inkscape:window-maximized="1"
     inkscape:current-layer="g883"
     inkscape:document-rotation="0"
     showguides="true"
     inkscape:guide-bbox="true"
     inkscape:snap-bbox="true"
     inkscape:object-paths="true"
     inkscape:snap-bbox-midpoints="true"
     inkscape:snap-smooth-nodes="true"
     inkscape:snap-object-midpoints="true" />
  <path
     style="fill:none;stroke:#ffffff;stroke-width:0;stroke-linecap:butt;stroke-linejoin:miter;stroke-opacity:1;stroke-miterlimit:4;stroke-dasharray:none"
     d="m 42.53012,42.48497 4.658945,-8.059973 9.830371,1.630631 c 0,0 -8.153152,14.116599 -8.153152,14.116599 L 42.53012,42.48497"
     id="path866" />
  <g
     id="g879"
     transform="rotate(15,21.656456,289.45141)">
    <g
       id="g883"
       transform="rotate(-15,-36.021052,34.231635)">
      <path
         id="rect864"
         style="fill:none;stroke:#ffffff;stroke-width:3;stroke-linecap:round;stroke-miterlimit:4;stroke-dasharray:none"
         d="M 12.242188 13.496094 C 10.522566 13.412096 8.899548 14.607682 8.4082031 16.441406 L 6.0214844 25.349609 C 5.4599474 27.445294 6.5955314 29.55732 8.5683594 30.085938 L 15.179688 31.857422 A 6 6 0 0 0 18.611328 38.923828 L 18.611328 46.113281 L 8.3027344 46.113281 L 8.3027344 50.267578 L 18.611328 50.267578 L 22.763672 50.267578 L 22.763672 46.113281 L 22.763672 39.136719 A 6 6 0 0 0 26.769531 34.962891 L 33.380859 36.734375 C 35.353687 37.262993 37.393541 36.001935 37.955078 33.90625 L 40.34375 24.998047 C 40.905287 22.902361 39.76775 20.790337 37.794922 20.261719 L 12.982422 13.613281 C 12.735818 13.547204 12.487848 13.508093 12.242188 13.496094 z "
         transform="translate(-68.021052,6.2316346)" />
      <path
         id="rect870"
         style="fill:none;stroke:#ffffff;stroke-width:3;stroke-linecap:round;stroke-miterlimit:4;stroke-dasharray:none"
         d="m -23.178102,31.846396 11.461671,-1.069959 -4.752012,17.73475 -9.391119,-6.657448 z"
         sodipodi:nodetypes="ccccc" />
    </g>
  </g>
</svg>
