<?xml version="1.0" encoding="UTF-8" standalone="no"?>
<svg
   xmlns:dc="http://purl.org/dc/elements/1.1/"
   xmlns:cc="http://creativecommons.org/ns#"
   xmlns:rdf="http://www.w3.org/1999/02/22-rdf-syntax-ns#"
   xmlns:svg="http://www.w3.org/2000/svg"
   xmlns="http://www.w3.org/2000/svg"
   xmlns:sodipodi="http://sodipodi.sourceforge.net/DTD/sodipodi-0.dtd"
   xmlns:inkscape="http://www.inkscape.org/namespaces/inkscape"
   width="60.13768"
   height="60.776516"
   viewBox="0 0 60.137677 60.776516"
   id="svg4160"
   version="1.1"
   inkscape:version="1.0.2 (e86c870879, 2021-01-15, custom)"
   sodipodi:docname="fan.svg">
  <defs
     id="defs4162" />
  <sodipodi:namedview
     id="base"
     pagecolor="#bfbfbf"
     bordercolor="#666666"
     borderopacity="1.0"
     inkscape:pageopacity="0"
     inkscape:pageshadow="2"
     inkscape:zoom="5.6"
     inkscape:cx="27.748668"
     inkscape:cy="43.699542"
     inkscape:document-units="px"
     inkscape:current-layer="layer2"
     showgrid="true"
     units="in"
     showguides="false"
     inkscape:window-width="1584"
     inkscape:window-height="861"
     inkscape:window-x="0"
     inkscape:window-y="0"
     inkscape:window-maximized="0"
     inkscape:snap-bbox="true"
     inkscape:snap-global="false"
     inkscape:document-rotation="0">
    <inkscape:grid
       type="xygrid"
       id="grid4712"
       originx="-9.9771178"
       originy="-29.820954" />
  </sodipodi:namedview>
  <metadata
     id="metadata4165">
    <rdf:RDF>
      <cc:Work
         rdf:about="">
        <dc:format>image/svg+xml</dc:format>
        <dc:type
           rdf:resource="http://purl.org/dc/dcmitype/StillImage" />
        <dc:title></dc:title>
      </cc:Work>
    </rdf:RDF>
  </metadata>
  <g
     inkscape:groupmode="layer"
     id="layer2"
     inkscape:label="Move"
     style="display:inline"
     transform="translate(-3.5328446,2.2636422)">
    <path
       sodipodi:nodetypes="aaaacaaaaaca"
       inkscape:connector-curvature="0"
       id="path4929-5"
       d="m 33.631765,15.224765 c -0.40303,-0.501423 -0.13223,-1.281246 -0.25003,-1.913686 -0.19386,-1.040809 -0.39438,-2.089108 -0.74997,-3.086314 -0.28152,-0.789498 -0.64273,-1.556609 -1.08624,-2.267854 -0.45782,-0.734215 -1.60876,-2.037144 -1.60876,-2.037144 0,0 2.01493,-0.227589 3.02675,-0.229753 1.64161,-0.0035 3.31156,-0.01247 4.91225,0.351752 1.52531,0.347071 3.05017,0.875796 4.36509,1.723154 0.63741,0.410759 1.36669,0.872566 1.63491,1.581844 0.54807,1.44931 -0.0326,3.120824 -0.366,4.634003 -0.32465,1.473366 -1.573,4.243998 -1.573,4.243998 0,0 -6.46099,-0.705808 -8.305,-3 z"
       style="display:inline;fill:#ffffff;fill-opacity:1;fill-rule:evenodd;stroke:#ffffff;stroke-width:1px;stroke-linecap:butt;stroke-linejoin:miter;stroke-opacity:1" />
    <path
       sodipodi:nodetypes="aaaacaaaaaca"
       inkscape:connector-curvature="0"
       id="path4929-7-5-8"
       d="m 44.616875,21.521571 c 0.2368,-0.598151 1.04859,-0.748031 1.54023,-1.162938 0.80909,-0.682811 1.62141,-1.375113 2.31268,-2.176988 0.54729,-0.634847 1.03575,-1.327918 1.43496,-2.064936 0.41212,-0.760808 0.97621,-2.405222 0.97621,-2.405222 0,0 1.19345,1.639332 1.69527,2.517942 0.81417,1.425491 1.6471,2.872918 2.12135,4.444525 0.45192,1.497598 0.74569,3.08456 0.6587,4.646439 -0.0422,0.757122 -0.0833,1.619342 -0.56744,2.202991 -0.98923,1.192603 -2.72936,1.51367 -4.20966,1.97148 -1.44136,0.445745 -4.46697,0.72941 -4.46697,0.72941 0,0 -2.57877,-5.965946 -1.49533,-8.702703 z"
       style="display:inline;fill:#ffffff;fill-opacity:1;fill-rule:evenodd;stroke:#ffffff;stroke-width:1px;stroke-linecap:butt;stroke-linejoin:miter;stroke-opacity:1" />
    <path
       sodipodi:nodetypes="aaaacaaaaaca"
       inkscape:connector-curvature="0"
       id="path4929-4-7"
       d="m 44.479135,33.943814 c 0.63443,-0.106583 1.18246,0.510767 1.7918,0.717057 1.0028,0.339497 2.01539,0.676842 3.05919,0.85393 0.82638,0.140203 1.67217,0.199933 2.50944,0.160571 0.8643,-0.04063 2.5635,-0.408046 2.5635,-0.408046 0,0 -0.78611,1.869162 -1.27869,2.752991 -0.79918,1.433946 -1.60744,2.895291 -2.70745,4.113834 -1.0482,1.16116 -2.25468,2.233154 -3.63655,2.966273 -0.66986,0.35538 -1.42916,0.765966 -2.17905,0.653361 -1.5323,-0.230093 -2.70686,-1.553554 -3.86412,-2.583906 -1.12679,-1.00326 -2.934,-3.44637 -2.934,-3.44637 0,0 3.77321,-5.292032 6.67593,-5.779699 z"
       style="display:inline;fill:#ffffff;fill-opacity:1;fill-rule:evenodd;stroke:#ffffff;stroke-width:1px;stroke-linecap:butt;stroke-linejoin:miter;stroke-opacity:1" />
    <path
       sodipodi:nodetypes="aaaacaaaaaca"
       inkscape:connector-curvature="0"
       id="path4929-2-8"
       d="m 33.765625,40.493353 c 0.40714,0.49809 0.14276,1.280114 0.26576,1.911565 0.20241,1.039179 0.41154,2.085793 0.77532,3.080042 0.288,0.787156 0.65551,1.551271 1.10485,2.258845 0.46384,0.730425 1.62546,2.023847 1.62546,2.023847 0,0 -2.01299,0.244149 -3.02476,0.254633 -1.64152,0.017 -3.31134,0.0397 -4.91498,-0.311347 -1.52811,-0.334517 -3.05726,-0.850686 -4.37911,-1.687202 -0.64077,-0.405504 -1.37382,-0.861299 -1.64786,-1.568347 -0.55997,-1.444754 0.007,-3.120987 0.32788,-4.636857 0.31252,-1.475985 1.53805,-4.256788 1.53805,-4.256788 0,0 6.46658,0.652656 8.32939,2.931607 z"
       style="display:inline;fill:#ffffff;fill-opacity:1;fill-rule:evenodd;stroke:#ffffff;stroke-width:1px;stroke-linecap:butt;stroke-linejoin:miter;stroke-opacity:1" />
    <path
       sodipodi:nodetypes="aaaacaaaaaca"
       inkscape:connector-curvature="0"
       id="path4929-33-8"
       d="m 22.619995,34.172736 c -0.24443,0.595075 -1.05806,0.734567 -1.55496,1.143156 -0.81776,0.672414 -1.63886,1.354276 -2.34033,2.14725 -0.55536,0.627801 -1.05263,1.31457 -1.46123,2.046425 -0.42181,0.755479 -1.00687,2.392548 -1.00687,2.392548 0,0 -1.1724,-1.654453 -1.66296,-2.539403 -0.79588,-1.435781 -1.61024,-2.893735 -2.06437,-4.471276 -0.43274,-1.503252 -0.7062,-3.09384 -0.59925,-4.654479 0.0518,-0.756526 0.10401,-1.618144 0.59555,-2.195558 1.00439,-1.179864 2.74848,-1.478688 4.23452,-1.917516 1.44694,-0.427285 4.47592,-0.672251 4.47592,-0.672251 0,0 2.50231,5.998418 1.38398,8.721104 z"
       style="display:inline;fill:#ffffff;fill-opacity:1;fill-rule:evenodd;stroke:#ffffff;stroke-width:1px;stroke-linecap:butt;stroke-linejoin:miter;stroke-opacity:1" />
    <path
       sodipodi:nodetypes="aaaacaaaaaca"
       inkscape:connector-curvature="0"
       id="path4929-8-3"
       d="m 22.864015,21.538935 c -0.634,0.109078 -1.18445,-0.506118 -1.7946,-0.710015 -1.00412,-0.335556 -2.01803,-0.668924 -3.06251,-0.84191 -0.82692,-0.136956 -1.67294,-0.193375 -2.51005,-0.15072 -0.86414,0.04402 -2.56189,0.41811 -2.56189,0.41811 0,0 0.77877,-1.872235 1.26787,-2.75799 0.79355,-1.437075 1.59606,-2.901582 2.69128,-4.124436 1.04364,-1.165266 2.24589,-2.24199 3.62487,-2.98053 0.66847,-0.358008 1.42615,-0.771572 2.17648,-0.661913 1.53319,0.224069 2.71295,1.542886 3.87423,2.568708 1.13072,0.99883 2.94751,3.434827 2.94751,3.434827 0,0 -3.75239,5.306799 -6.65319,5.805869 z"
       style="display:inline;fill:#ffffff;fill-opacity:1;fill-rule:evenodd;stroke:#ffffff;stroke-width:1px;stroke-linecap:butt;stroke-linejoin:miter;stroke-opacity:1" />
    <ellipse
       ry="11.146996"
       rx="11.207997"
       cy="27.732832"
       cx="33.590839"
       id="path5019-5"
       style="display:inline;fill:none;fill-opacity:1;stroke:#ffffff;stroke-width:3;stroke-linecap:round;stroke-linejoin:round;stroke-miterlimit:4;stroke-dasharray:none;stroke-opacity:1" />
    <ellipse
       ry="6.413281"
       rx="6.585814"
       cy="27.77437"
       cx="33.596497"
       id="path5114"
       style="fill:none;fill-opacity:1;stroke:#ffffff;stroke-width:2.81567;stroke-linecap:round;stroke-linejoin:round;stroke-miterlimit:4;stroke-dasharray:none;stroke-opacity:1" />
  </g>
</svg>
