<?xml version="1.0" encoding="UTF-8" standalone="no"?>
<svg
   xmlns:dc="http://purl.org/dc/elements/1.1/"
   xmlns:cc="http://creativecommons.org/ns#"
   xmlns:rdf="http://www.w3.org/1999/02/22-rdf-syntax-ns#"
   xmlns:svg="http://www.w3.org/2000/svg"
   xmlns="http://www.w3.org/2000/svg"
   xmlns:sodipodi="http://sodipodi.sourceforge.net/DTD/sodipodi-0.dtd"
   xmlns:inkscape="http://www.inkscape.org/namespaces/inkscape"
   version="1.1"
   x="0px"
   y="0px"
   viewBox="0 0 220 220"
   style="enable-background:new 0 0 220 220;"
   xml:space="preserve"
   id="svg50"
   sodipodi:docname="Meteor-01-wht.svg"
   inkscape:version="1.0.2-2 (e86c870879, 2021-01-15)"><metadata
   id="metadata56"><rdf:RDF><cc:Work
       rdf:about=""><dc:format>image/svg+xml</dc:format><dc:type
         rdf:resource="http://purl.org/dc/dcmitype/StillImage" /><dc:title></dc:title></cc:Work></rdf:RDF></metadata><defs
   id="defs54" /><sodipodi:namedview
   pagecolor="#bfbfbf"
   bordercolor="#666666"
   borderopacity="1"
   objecttolerance="10"
   gridtolerance="10"
   guidetolerance="10"
   inkscape:pageopacity="0"
   inkscape:pageshadow="2"
   inkscape:window-width="1920"
   inkscape:window-height="1017"
   id="namedview52"
   showgrid="false"
   inkscape:pagecheckerboard="false"
   inkscape:zoom="3.8636364"
   inkscape:cx="110"
   inkscape:cy="110"
   inkscape:window-x="1912"
   inkscape:window-y="-8"
   inkscape:window-maximized="1"
   inkscape:current-layer="Layer_2" />
<style
   type="text/css"
   id="style2">
	.st0{fill:#FFAB1F;}
	.st1{fill:none;stroke:#000000;stroke-width:6.9078;stroke-linecap:round;stroke-linejoin:round;}
	.st2{fill:#282828;}
	.st3{fill:#C7C7C7;}
	.st4{fill:#C0D72F;}
	.st5{fill:none;stroke:#000000;stroke-width:9.792;stroke-linecap:round;}
	.st6{fill:none;stroke:#000000;stroke-width:4;stroke-linecap:round;stroke-linejoin:round;}
	.st7{fill:#1E1E1E;}
	.st8{fill:#C0D72F;stroke:#000000;stroke-width:4;stroke-miterlimit:10;}
	.st9{fill:#D6D6D6;}
	.st10{fill:none;stroke:#000000;stroke-width:2;stroke-linecap:round;stroke-linejoin:round;}
	.st11{fill:#1E1E1E;stroke:#000000;stroke-width:6.9078;stroke-linecap:round;stroke-linejoin:round;}
	.st12{fill:#1E1E1E;stroke:#000000;stroke-width:4;stroke-miterlimit:10;}
</style>
<g
   id="Layer_1">
</g>
<g
   id="Layer_2">
	<path
   class="st11"
   d="M132.6,22.4c-0.4,18-0.9,36-1.3,54c-4.3,2.3-8.5,4.5-12.7,6.8c-14.2,6.5-28.4,12.9-42.6,19.4   c-0.3,0.1-0.6,0.2-0.8,0.4c0,0-0.1,0-0.1,0c-0.1,0.1-0.3,0.1-0.4,0.2c-0.2-0.1-0.3-0.1-0.5-0.2c-19.5-8.9-39-17.7-58.5-26.6   c-0.2-9-0.4-18-0.7-27c0-0.3-0.2-8.1-0.2-8.2c0-1.5-0.4-17.3-0.5-18.8c7.8,0,15.5,0,23.3,0l16,20.8c5.9,0.8,36.3,0.9,42.1,0   l15-20.8H132.6z"
   id="path5"
   style="stroke:#ffffff;stroke-opacity:1" />
	<polygon
   class="st4"
   points="106.6,31.5 91.6,31.5 91.6,67.2 108.6,67.2 108.6,31.5  "
   id="polygon7" />
	<polygon
   class="st1"
   points="106.6,31.5 91.6,31.5 91.6,67.2 108.6,67.2 108.6,31.5  "
   id="polygon9"
   style="stroke:#fffffe;stroke-opacity:1" />
	<path
   class="st12"
   d="M133.8,138.2c0.1,14.4,0.3,28.7,0.4,43.1H42l-0.2-15.7h53.7c5.9-9.1,11.8-18.3,17.7-27.4   C120,138.2,126.9,138.2,133.8,138.2z"
   id="path11"
   style="stroke:#ffffff;stroke-opacity:1" />
	<path
   class="st3"
   d="M63.2,169.4c-0.1,8-0.3,16-0.4,24.1l7.8,0.2v7.5L82,211.4h2.9l10.7-10.7v-7.6l8.6-0.2c0.1-8,0.1-16,0.2-24   C90.6,169.1,76.9,169.3,63.2,169.4z"
   id="path13" />
	<path
   class="st1"
   d="M62.8,167.6c0,8.6,0,17.3,0,25.9l7.8,0.2v7.5L82,211.4h2.9l10.7-10.7v-7.6l8.6-0.2c0.1-8.6,0.1-17.2,0.2-25.8   C90.5,167.3,76.7,167.4,62.8,167.6z"
   id="path15"
   style="stroke:#fdfffc;stroke-opacity:1" />
	<polygon
   class="st7"
   points="45.7,166.3 15.7,166.3 15.7,205.5 49.7,205.5 49.7,166.3  "
   id="polygon17" />
	<polygon
   class="st1"
   points="45.7,167.8 15.7,167.8 15.7,206.9 49.7,206.9 49.7,167.8  "
   id="polygon19"
   style="stroke:#ffffff;stroke-opacity:1" />
	<polygon
   class="st7"
   points="147.7,165.6 104.3,165.6 104.3,204.7 153.6,204.7 153.6,165.6  "
   id="polygon21" />
	<polygon
   class="st1"
   points="147.7,167.1 104.3,167.1 104.3,206.2 153.6,206.2 153.6,167.1  "
   id="polygon23"
   style="stroke:#ffffff;stroke-opacity:1" />
	<polygon
   class="st9"
   points="67.1,165 73.4,165 73.4,149.3 67.1,149.3  "
   id="polygon25" />
	<polygon
   class="st10"
   points="67.1,165 73.4,165 73.4,149.3 67.1,149.3  "
   id="polygon27"
   style="stroke:#feffff;stroke-opacity:1" />
	<polygon
   class="st9"
   points="93.8,165 100.1,165 100.1,149.3 93.7,149.3  "
   id="polygon29" />
	<polygon
   class="st10"
   points="93.8,165 100.1,165 100.1,149.3 93.7,149.3  "
   id="polygon31"
   style="stroke:#ffffff;stroke-opacity:1" />
	<polygon
   class="st7"
   points="151.1,80.7 18.3,80.7 18.3,155.5 169.2,155.5 169.2,80.7  "
   id="polygon33" />
	<polygon
   class="st1"
   points="151.1,80.7 18.3,80.7 18.3,155.5 169.2,155.5 169.2,80.7  "
   id="polygon35"
   style="stroke:#ffffff;stroke-opacity:1" />
	<path
   class="st2"
   d="M120.7,161.4v-36.5c0,0,1.9-21,13.4-32.4c18.1-18.1,43.8-17.4,58.7-2.5c14.2,14.2,16.5,38.2-2.4,57.2   c-12.7,12.7-34.6,6.1-34.6,6.1s-3.6-2.1-3.6,8.6C150.5,161.8,120.7,161.4,120.7,161.4z"
   id="path37" />
	<path
   class="st1"
   d="M120.7,161.4v-36.5c0,0,1.9-21,13.4-32.4c18.1-18.1,43.8-17.4,58.7-2.5c14.2,14.2,16.5,38.2-2.4,57.2   c-12.7,12.7-34.6,6.1-34.6,6.1s-3.6-2.1-3.6,8.6C150.5,161.8,120.7,161.4,120.7,161.4z"
   id="path39"
   style="stroke:#ffffff;stroke-opacity:1" />
	<path
   class="st2"
   d="M183.3,118.1c0,9.3-7.5,16.8-16.8,16.8c-9.3,0-16.8-7.5-16.8-16.8c0-9.3,7.5-16.8,16.8-16.8   C175.8,101.3,183.3,108.8,183.3,118.1z"
   id="path41" />
	<path
   class="st5"
   d="M183.3,118.1c0,9.3-7.5,16.8-16.8,16.8c-9.3,0-16.8-7.5-16.8-16.8c0-9.3,7.5-16.8,16.8-16.8   C175.8,101.3,183.3,108.8,183.3,118.1z"
   id="path43"
   style="stroke:#ffffff;stroke-opacity:1" />
	<polygon
   class="st3"
   points="106.6,62.8 91.6,62.8 91.6,76.5 108.6,76.5 108.6,62.8  "
   id="polygon45" />
	<polygon
   class="st1"
   points="106.6,62.8 91.6,62.8 91.6,76.5 108.6,76.5 108.6,62.8  "
   id="polygon47"
   style="stroke:#ffffff;stroke-opacity:1" />
</g>
</svg>
