<?xml version="1.0" encoding="UTF-8" standalone="no"?>
<svg
   xmlns:dc="http://purl.org/dc/elements/1.1/"
   xmlns:cc="http://creativecommons.org/ns#"
   xmlns:rdf="http://www.w3.org/1999/02/22-rdf-syntax-ns#"
   xmlns:svg="http://www.w3.org/2000/svg"
   xmlns="http://www.w3.org/2000/svg"
   xmlns:sodipodi="http://sodipodi.sourceforge.net/DTD/sodipodi-0.dtd"
   xmlns:inkscape="http://www.inkscape.org/namespaces/inkscape"
   version="1.1"
   viewBox="0 0 24 24"
   id="svg4"
   sodipodi:docname="SpeedOMeter.svg"
   inkscape:version="1.0.2-2 (e86c870879, 2021-01-15)">
  <metadata
     id="metadata10">
    <rdf:RDF>
      <cc:Work
         rdf:about="">
        <dc:format>image/svg+xml</dc:format>
        <dc:type
           rdf:resource="http://purl.org/dc/dcmitype/StillImage" />
        <dc:title></dc:title>
      </cc:Work>
    </rdf:RDF>
  </metadata>
  <defs
     id="defs8" />
  <sodipodi:namedview
     pagecolor="#000000"
     bordercolor="#666666"
     borderopacity="1"
     objecttolerance="10"
     gridtolerance="10"
     guidetolerance="10"
     inkscape:pageopacity="0"
     inkscape:pageshadow="2"
     inkscape:window-width="1920"
     inkscape:window-height="1017"
     id="namedview6"
     showgrid="false"
     inkscape:zoom="35.416667"
     inkscape:cx="12"
     inkscape:cy="12"
     inkscape:window-x="1912"
     inkscape:window-y="-8"
     inkscape:window-maximized="1"
     inkscape:current-layer="svg4" />
  <path
     d="M4,14c0,2,0.7,3.9,2,5.3l-1.5,1.3C2.9,18.8,2,16.5,2,14C2,8.5,6.5,4,12,4c1.9,0,3.6,0.5,5.1,1.4  l-1.5,1.5C14.5,6.3,13.3,6,12,6C7.6,6,4,9.6,4,14z M20.6,8.9l-1.5,1.5c0.5,1.1,0.9,2.3,0.9,3.6c0,2-0.7,3.9-2,5.3l1.5,1.3  c1.6-1.8,2.5-4.2,2.5-6.7C22,12.1,21.5,10.4,20.6,8.9z M19.7,7.7l-1.4-1.4l-5.8,5.8C12.3,12,12.2,12,12,12c-1.1,0-2,0.9-2,2  c0,1.1,0.9,2,2,2s2-0.9,2-2c0-0.2,0-0.3-0.1-0.5L19.7,7.7z"
     id="path2"
     style="opacity:1;fill:#ffffff;fill-opacity:1" />
</svg>
