<svg id="Layer_1" enable-background="new 0 0 510.045 510.045" height="512" viewBox="0 0 510.045 510.045" width="512" xmlns="http://www.w3.org/2000/svg" style="path: #ffffff; fill: #ffffff;">
<g>
    <path d="m501.499 374.087c-191.626-320.923-182.524-305.679-182.87-306.258-12.801-23.802-36.55-37.999-63.608-37.999s-50.808 14.197-63.608 37.999c-.339.568 9.121-15.275-182.87 306.257-25.553 48.1 9.289 106.127 63.794 106.127h365.369c54.465.001 89.365-57.992 63.793-106.126zm-63.793 76.127h-365.37c-31.721 0-52.104-33.646-37.463-61.744.335-.56-9.067 15.185 182.848-306.219 15.906-29.943 58.7-29.929 74.6 0 191.627 320.922 182.501 305.639 182.847 306.219 14.653 28.119-5.766 61.744-37.462 61.744z"/>
    <path d="m240.021 150.214h30v195h-30z"/>
    <path d="m240.021 375.214h30v30h-30z"/>
</g>
</svg>
