<?xml version="1.0" encoding="UTF-8" standalone="no"?>
<!-- Generator: Adobe Illustrator 25.0.1, SVG Export Plug-In . SVG Version: 6.00 Build 0)  -->

<svg
   version="1.1"
   id="Ebene_1"
   x="0px"
   y="0px"
   viewBox="0 0 480 269.99999"
   xml:space="preserve"
   sodipodi:docname="background.svg"
   width="480"
   height="270"
   inkscape:version="1.1.1 (3bf5ae0d25, 2021-09-20)"
   xmlns:inkscape="http://www.inkscape.org/namespaces/inkscape"
   xmlns:sodipodi="http://sodipodi.sourceforge.net/DTD/sodipodi-0.dtd"
   xmlns="http://www.w3.org/2000/svg"
   xmlns:svg="http://www.w3.org/2000/svg"
   xmlns:serif="http://www.serif.com/"><defs
   id="defs78" /><sodipodi:namedview
   id="namedview76"
   pagecolor="#505050"
   bordercolor="#ffffff"
   borderopacity="1"
   inkscape:pageshadow="0"
   inkscape:pageopacity="0"
   inkscape:pagecheckerboard="1"
   showgrid="false"
   fit-margin-top="0"
   fit-margin-left="0"
   fit-margin-right="0"
   fit-margin-bottom="0"
   inkscape:zoom="0.52390718"
   inkscape:cx="320.66749"
   inkscape:cy="276.76658"
   inkscape:window-width="1600"
   inkscape:window-height="831"
   inkscape:window-x="0"
   inkscape:window-y="0"
   inkscape:window-maximized="1"
   inkscape:current-layer="Ebene_1" />
<style
   type="text/css"
   id="style2">
	
		.st0{fill-rule:evenodd;clip-rule:evenodd;fill:url(#SVGID_1_);stroke:#000000;stroke-width:0.2736;stroke-linecap:round;stroke-linejoin:round;stroke-miterlimit:3.1571;}
	.st1{fill-rule:evenodd;clip-rule:evenodd;fill:#242424;}
	.st2{fill-rule:evenodd;clip-rule:evenodd;fill:#252525;}
	.st3{fill-rule:evenodd;clip-rule:evenodd;fill:#222222;}
	.st4{fill-rule:evenodd;clip-rule:evenodd;fill:#1F1F1F;}
	.st5{fill-rule:evenodd;clip-rule:evenodd;fill:#1A1A1A;}
	.st6{fill-rule:evenodd;clip-rule:evenodd;fill:#181818;}
	.st7{fill-rule:evenodd;clip-rule:evenodd;fill:#161616;}
	.st8{fill-rule:evenodd;clip-rule:evenodd;fill:#191919;}
	.st9{fill-rule:evenodd;clip-rule:evenodd;fill:#111111;}
	.st10{fill-rule:evenodd;clip-rule:evenodd;fill:#0E0E0E;}
	.st11{fill-rule:evenodd;clip-rule:evenodd;fill:#080808;}
	.st12{fill-rule:evenodd;clip-rule:evenodd;fill:#070707;}
	.st13{fill-rule:evenodd;clip-rule:evenodd;fill:#121212;}
	.st14{fill-rule:evenodd;clip-rule:evenodd;fill:#151515;}
	.st15{fill-rule:evenodd;clip-rule:evenodd;fill:#0D0D0D;}
	.st16{fill-rule:evenodd;clip-rule:evenodd;fill:#1D1D1D;}
	.st17{fill-rule:evenodd;clip-rule:evenodd;fill:#1E1E1E;}
	.st18{fill-rule:evenodd;clip-rule:evenodd;fill:#1B1B1B;}
	.st19{fill-rule:evenodd;clip-rule:evenodd;fill:#101010;}
	.st20{fill-rule:evenodd;clip-rule:evenodd;fill:#0C0C0C;fill-opacity:0.95;}
	.st21{fill-rule:evenodd;clip-rule:evenodd;fill:#1C1C1C;}
	.st22{fill-rule:evenodd;clip-rule:evenodd;fill:#131313;}
</style>
<linearGradient
   id="SVGID_1_"
   gradientUnits="userSpaceOnUse"
   x1="-87.028503"
   y1="841.96777"
   x2="-86.028503"
   y2="841.96777"
   gradientTransform="matrix(-220.4116,-339.84724,-382.20402,195.98505,302618.17,-194146.34)">
	<stop
   offset="0"
   style="stop-color:#080808"
   id="stop4" />
	<stop
   offset="1"
   style="stop-color:#242424"
   id="stop6" />
</linearGradient>
<rect
   x="-269.86322"
   y="0.13680001"
   class="st0"
   width="269.72641"
   height="479.72641"
   id="rect9"
   style="fill:url(#SVGID_1_)"
   transform="rotate(-90)" />
<g
   id="Dreiecke"
   transform="matrix(0,-0.64083254,0.56981395,0,0.13680916,269.99134)"
   style="stroke-width:1.65486">
	<path
   class="st1"
   d="M 147,152.1 0.1,0.1 h 130 z"
   id="path11"
   style="stroke-width:1.65486" />
	<path
   class="st2"
   d="M 147,152.1 0.1,0.1 v 106.7 z"
   id="path13"
   style="stroke-width:1.65486" />
	<path
   class="st3"
   d="m 147,152.1 v 62.7 L 0.1,134.3 v -27.5 z"
   id="path15"
   style="stroke-width:1.65486" />
	<path
   class="st1"
   d="M 0.1,268.5 147,214.8 0.1,134.3 Z"
   id="path17"
   style="stroke-width:1.65486" />
	<path
   class="st4"
   d="M 0.1,268.5 147,214.8 99.1,421.1 Z"
   id="path19"
   style="stroke-width:1.65486" />
	<path
   class="st4"
   d="m 0.1,268.5 v 201 l 8.4,2.1 90.5,-50.5 z"
   id="path21"
   style="stroke-width:1.65486" />
	<path
   class="st5"
   d="M 33.8,528.4 8.6,471.6 99.1,421.1 Z"
   id="path23"
   style="stroke-width:1.65486" />
	<path
   class="st6"
   d="M 33.8,528.4 238,547.4 99.1,421.1 Z"
   id="path25"
   style="stroke-width:1.65486" />
	<path
   class="st7"
   d="m 33.8,528.4 204.2,19 -124.2,84.2 z"
   id="path27"
   style="stroke-width:1.65486" />
	<path
   class="st8"
   d="M 33.8,528.4 H 0.1 v 189.4 l 113.7,-86.3 z"
   id="path29"
   style="stroke-width:1.65486" />
	<path
   class="st7"
   d="M 135.9,732.6 33.8,842 H 0.1 V 717.8 l 113.7,-86.3 z"
   id="path31"
   style="stroke-width:1.65486" />
	<path
   class="st9"
   d="M 135.9,732.6 273.8,717.9 238,547.4 113.8,631.6 Z"
   id="path33"
   style="stroke-width:1.65486" />
	<path
   class="st10"
   d="M 135.9,732.6 273.8,717.9 256.9,842 h -121 V 732.6 Z"
   id="path35"
   style="stroke-width:1.65486" />
	<path
   class="st11"
   d="M 421.1,799.9 273.8,717.8 256.9,842 h 164.2 z"
   id="path37"
   style="stroke-width:1.65486" />
	<path
   class="st12"
   d="M 421.1,799.9 273.8,717.8 421.1,589.4 Z"
   id="path39"
   style="stroke-width:1.65486" />
	<path
   class="st13"
   d="M 135.9,732.6 33.8,842 h 102.1 z"
   id="path41"
   style="stroke-width:1.65486" />
	<path
   class="st14"
   d="M 286.4,395.8 238,547.4 99.1,421.1 Z"
   id="path43"
   style="stroke-width:1.65486" />
	<path
   class="st9"
   d="M 286.4,395.8 238,547.4 398,421.1 Z"
   id="path45"
   style="stroke-width:1.65486" />
	<path
   class="st15"
   d="M 273.8,717.8 238,547.4 398,421.1 421.2,459 v 130.5 z"
   id="path47"
   style="stroke-width:1.65486" />
	<path
   id="_1"
   serif:id="1"
   class="st16"
   d="M 33.8,528.4 8.6,471.6 0.2,469.5 v 58.9 z"
   style="stroke-width:1.65486" />
	<path
   class="st17"
   d="M 147,152.1 280.5,134.3 181.2,0.1 h -51 z"
   id="path50"
   style="stroke-width:1.65486" />
	<path
   class="st18"
   d="M 147,152.1 280.5,134.3 147,214.8 Z"
   id="path52"
   style="stroke-width:1.65486" />
	<path
   class="st6"
   d="M 290.6,303.2 280.5,134.3 147,214.8 Z"
   id="path54"
   style="stroke-width:1.65486" />
	<path
   class="st8"
   d="M 290.6,303.2 99.1,421.1 147,214.8 Z"
   id="path56"
   style="stroke-width:1.65486" />
	<path
   class="st7"
   d="M 290.6,303.2 99.1,421.1 286.4,395.8 Z"
   id="path58"
   style="stroke-width:1.65486" />
	<path
   class="st9"
   d="M 290.6,303.2 397.9,421.1 286.3,395.8 Z"
   id="path60"
   style="stroke-width:1.65486" />
	<path
   class="st19"
   d="m 290.6,303.2 107.3,117.9 23.2,-40.5 v -65.8 z"
   id="path62"
   style="stroke-width:1.65486" />
	<path
   class="st20"
   d="m 421.1,459 -23.2,-37.9 23.2,-40.5 z"
   id="path64"
   style="stroke-width:1.65486" />
	<path
   class="st21"
   d="M 325.9,0.1 280.5,134.3 181.2,0.1 Z"
   id="path66"
   style="stroke-width:1.65486" />
	<path
   class="st14"
   d="m 325.9,0.1 -45.4,134.2 140.6,-24 V 0.1 Z"
   id="path68"
   style="stroke-width:1.65486" />
	<path
   class="st9"
   d="M 421.1,284.8 280.5,134.3 421.1,110.3 Z"
   id="path70"
   style="stroke-width:1.65486" />
	<path
   class="st22"
   d="M 421.1,284.8 280.5,134.3 290.6,303.2 421.1,314.8 Z"
   id="path72"
   style="stroke-width:1.65486" />
</g>
</svg>
