<?xml version="1.0" encoding="UTF-8" standalone="no"?>
<svg
   version="1.1"
   width="24"
   height="24"
   viewBox="0 0 24 24"
   id="svg4"
   sodipodi:docname="archived.svg"
   inkscape:version="1.4.4 (dcaf3e7d9e, 2026-05-05)"
   xmlns:inkscape="http://www.inkscape.org/namespaces/inkscape"
   xmlns:sodipodi="http://sodipodi.sourceforge.net/DTD/sodipodi-0.dtd"
   xmlns="http://www.w3.org/2000/svg"
   xmlns:svg="http://www.w3.org/2000/svg">
  <defs
     id="defs8" />
  <sodipodi:namedview
     id="namedview6"
     pagecolor="#505050"
     bordercolor="#ffffff"
     borderopacity="1"
     inkscape:pageshadow="0"
     inkscape:pageopacity="0"
     inkscape:pagecheckerboard="1"
     showgrid="false"
     inkscape:zoom="18.384776"
     inkscape:cx="3.209177"
     inkscape:cy="15.529153"
     inkscape:window-width="1536"
     inkscape:window-height="792"
     inkscape:window-x="0"
     inkscape:window-y="0"
     inkscape:window-maximized="1"
     inkscape:current-layer="svg4"
     inkscape:showpageshadow="2"
     inkscape:deskcolor="#d1d1d1" />
  <path
     d="M 12,18 16,14 14.6,12.6 13,14.2 V 10 h -2 v 4.2 l -1.6000002,-1.6 -1.4,1.4 z m -7.0000002,3 q -0.825,0 -1.4125,-0.5875 Q 2.9999998,19.825 2.9999998,19 V 6.5249998 q 0,-0.35 0.1125,-0.675 0.1125,-0.325 0.3375,-0.6 l 1.25,-1.525 q 0.275,-0.35 0.6875,-0.5375 0.4125,-0.1875 0.8625,-0.1875 H 17.75 q 0.45,0 0.8625,0.1875 0.4125,0.1875 0.6875,0.5375 l 1.25,1.525 q 0.225,0.275 0.3375,0.6 0.1125,0.325 0.1125,0.675 V 19 q 0,0.825 -0.5875,1.4125 Q 19.825,21 19,21 Z m 0.4,-15.0000002 H 18.6 l -0.85,-1 H 6.2499998 Z"
     id="path1-3"
     style="fill:#000000;stroke-width:1;font-variation-settings:normal;opacity:1;vector-effect:none;fill-opacity:1;stroke-linecap:butt;stroke-linejoin:miter;stroke-miterlimit:4;stroke-dasharray:none;stroke-dashoffset:0;stroke-opacity:1;-inkscape-stroke:none;stop-color:#000000;stop-opacity:1" />
</svg>
