<?xml version="1.0" encoding="UTF-8" standalone="no"?>
<svg
   height="48px"
   viewBox="0 -960 960 960"
   width="48px"
   fill="#e8eaed"
   version="1.1"
   id="svg2096"
   sodipodi:docname="battery-unknown.svg"
   inkscape:version="1.2.2 (b0a8486541, 2022-12-01)"
   xmlns:inkscape="http://www.inkscape.org/namespaces/inkscape"
   xmlns:sodipodi="http://sodipodi.sourceforge.net/DTD/sodipodi-0.dtd"
   xmlns="http://www.w3.org/2000/svg"
   xmlns:svg="http://www.w3.org/2000/svg">
  <defs
     id="defs2100" />
  <sodipodi:namedview
     id="namedview2098"
     pagecolor="#ffffff"
     bordercolor="#000000"
     borderopacity="0.25"
     inkscape:showpageshadow="2"
     inkscape:pageopacity="0.0"
     inkscape:pagecheckerboard="0"
     inkscape:deskcolor="#d1d1d1"
     showgrid="false"
     inkscape:zoom="14.25"
     inkscape:cx="18.596491"
     inkscape:cy="24"
     inkscape:window-width="1600"
     inkscape:window-height="828"
     inkscape:window-x="0"
     inkscape:window-y="0"
     inkscape:window-maximized="1"
     inkscape:current-layer="svg2096" />
  <path
     d="M656-182q0-14 .5-27.5T664-235q10-17 25.5-29t26.5-28q3-4 7-23 0-17-13-28t-30-11q-17 0-30 11t-18 28l-44-19q10-30 35-48t57-18q37 0 64.5 24t27.5 60q0 11-3 20.5t-9 17.5q-11 16-26 28.5T710-220q-6 11-6 38h-48Zm24 102q-14 0-24-9.5T646-113q0-14 10-24t24-10q14 0 23.5 10t9.5 24q0 14-9.5 23.5T680-80Zm-340-60Zm-30 60q-12.75 0-21.37-8.63Q280-97.25 280-110v-676q0-12.75 8.63-21.38Q297.25-816 310-816h90v-64h160v64h90q12.75 0 21.38 8.62Q680-798.75 680-786v333q-16 0-31 2t-29 7v-312H340v616h152q9 17 21 32t26 28H310Z"
     id="path2094"
     style="font-variation-settings:normal;opacity:1;vector-effect:none;fill:#000000;fill-opacity:1;stroke-width:20;stroke-linecap:butt;stroke-linejoin:miter;stroke-miterlimit:4;stroke-dasharray:none;stroke-dashoffset:0;stroke-opacity:1;-inkscape-stroke:none;stop-color:#000000;stop-opacity:1" />
</svg>
