<?xml version="1.0" encoding="UTF-8" standalone="no"?>
<svg
   version="1.1"
   width="24"
   height="24"
   viewBox="0 0 24 24"
   id="svg1152"
   sodipodi:docname="spoolman.svg"
   inkscape:version="1.2.2 (b0a8486541, 2022-12-01)"
   xmlns:inkscape="http://www.inkscape.org/namespaces/inkscape"
   xmlns:sodipodi="http://sodipodi.sourceforge.net/DTD/sodipodi-0.dtd"
   xmlns="http://www.w3.org/2000/svg"
   xmlns:svg="http://www.w3.org/2000/svg">
  <path
     id="path2-9"
     style="opacity:1;fill:#000000;fill-opacity:1;fill-rule:nonzero;stroke:none;stroke-width:0;stroke-linecap:butt;stroke-linejoin:miter;stroke-miterlimit:4;stroke-dasharray:none;stroke-dashoffset:0"
     d="M 12,2 C 6.480016,2 2,6.480016 2,12 2,17.519984 6.480016,22 12,22 17.519984,22 22,17.519984 22,12 22,6.480016 17.519984,2 12,2 Z m 0.172164,2.920284 0.03545,3.584346 c 0.0077,0.779735 -0.405463,1.502942 -1.081453,1.891637 -0.675989,0.388696 -1.509524,0.382264 -2.179542,-0.01664 L 5.875148,8.550923 6.028505,8.302804 C 7.309093,6.225785 9.564436,4.949446 12.004344,4.921727 Z m 5.958478,3.458478 0.138166,0.256799 c 1.158459,2.147536 1.13591,4.73871 -0.06004,6.865597 l -0.08247,0.146846 -3.121383,-1.76143 c -0.679122,-0.383199 -1.098741,-1.103183 -1.097367,-1.882957 0.0014,-0.779774 0.423408,-1.498537 1.103877,-1.87934 z m -8.056279,5.066551 c 0.376542,-0.0015 0.753548,0.09526 1.090857,0.290798 0.674617,0.391078 1.086115,1.115548 1.075665,1.895255 l -0.04774,3.574219 -0.291522,-0.008 C 9.46257,19.127075 7.229788,17.811511 5.985825,15.712341 l -0.08608,-0.144676 3.08666,-1.822916 C 9.322117,13.54648 9.697827,13.446797 10.074368,13.44527 Z" />
  <defs
     id="defs1156">
    <clipPath
       clipPathUnits="userSpaceOnUse"
       id="clipPath13">
      <path
         id="path13"
         style="display:block;opacity:1;fill:#bebebe;fill-rule:nonzero;stroke:#ffffff;stroke-width:0;stroke-linecap:butt;stroke-linejoin:miter;stroke-miterlimit:4;stroke-dasharray:none;stroke-dashoffset:0"
         inkscape:label="bean1_fg"
         d="m -13.757715,-7.7471481 0.343537,-0.55719 v 0 c 2.876446,-4.6653799 7.9428216,-7.5315019 13.42331996,-7.5937639 l 0.37756065,-0.0043 0.0795148,8.0507248 v 0 c 0.0172956,1.7514341 -0.91182739,3.3759065 -2.43022861,4.2489907 -1.5184012,0.8730843 -3.3897584,0.8588954 -4.8947484,-0.037114 z M 0.4322926,16.185974 -0.22201757,16.167056 v 0 C -5.7005765,16.00867 -10.715899,13.054123 -13.510068,8.3390037 l -0.192495,-0.3248328 6.9323756,-4.0942248 v 0 c 1.5081376,-0.8906958 3.3795333,-0.8982879 4.894848,-0.019866 1.51531394,0.8784316 2.43870418,2.5061695 2.41523158,4.2575347 z m 13.3375784,-24.319362 0.310774,0.5761074 v 0 c 2.602114,4.8237643 2.551061,10.6444349 -0.135267,15.4218159 L 13.76031,8.1936583 6.7484202,4.2371568 v 0 C 5.2229859,3.3764201 4.2807128,1.7595388 4.2838,0.00802386 4.2868948,-1.7434936 5.2348557,-3.3570423 6.7633174,-4.2123972 Z" />
    </clipPath>
    <inkscape:path-effect
       effect="powerclip"
       id="path-effect13"
       is_visible="true"
       lpeversion="1"
       inverse="true"
       flatten="false"
       hide_clip="false"
       message="Use fill-rule evenodd on &lt;b&gt;fill and stroke&lt;/b&gt; dialog if no flatten result after convert clip to paths." />
    <clipPath
       clipPathUnits="userSpaceOnUse"
       id="clipPath13-5">
      <path
         id="path13-3"
         style="display:block;opacity:1;fill:#bebebe;fill-rule:nonzero;stroke:#ffffff;stroke-width:0;stroke-linecap:butt;stroke-linejoin:miter;stroke-miterlimit:4;stroke-dasharray:none;stroke-dashoffset:0"
         inkscape:label="bean1_fg"
         d="m -13.757715,-7.7471481 0.343537,-0.55719 v 0 c 2.876446,-4.6653799 7.9428216,-7.5315019 13.42331996,-7.5937639 l 0.37756065,-0.0043 0.0795148,8.0507248 v 0 c 0.0172956,1.7514341 -0.91182739,3.3759065 -2.43022861,4.2489907 -1.5184012,0.8730843 -3.3897584,0.8588954 -4.8947484,-0.037114 z M 0.4322926,16.185974 -0.22201757,16.167056 v 0 C -5.7005765,16.00867 -10.715899,13.054123 -13.510068,8.3390037 l -0.192495,-0.3248328 6.9323756,-4.0942248 v 0 c 1.5081376,-0.8906958 3.3795333,-0.8982879 4.894848,-0.019866 1.51531394,0.8784316 2.43870418,2.5061695 2.41523158,4.2575347 z m 13.3375784,-24.319362 0.310774,0.5761074 v 0 c 2.602114,4.8237643 2.551061,10.6444349 -0.135267,15.4218159 L 13.76031,8.1936583 6.7484202,4.2371568 v 0 C 5.2229859,3.3764201 4.2807128,1.7595388 4.2838,0.00802386 4.2868948,-1.7434936 5.2348557,-3.3570423 6.7633174,-4.2123972 Z" />
    </clipPath>
  </defs>
  <sodipodi:namedview
     id="namedview1154"
     pagecolor="#505050"
     bordercolor="#ffffff"
     borderopacity="1"
     inkscape:pageshadow="0"
     inkscape:pageopacity="0"
     inkscape:pagecheckerboard="1"
     showgrid="false"
     inkscape:zoom="4.5961941"
     inkscape:cx="-30.895127"
     inkscape:cy="-9.4643523"
     inkscape:window-width="1600"
     inkscape:window-height="826"
     inkscape:window-x="0"
     inkscape:window-y="0"
     inkscape:window-maximized="1"
     inkscape:current-layer="svg1152"
     inkscape:showpageshadow="0"
     inkscape:deskcolor="#505050" />
</svg>
