<?xml version="1.0" encoding="utf-8"?><svg version="1.1" id="Layer_1" xmlns="http://www.w3.org/2000/svg" xmlns:xlink="http://www.w3.org/1999/xlink" x="0px" y="0px" viewBox="0 0 122.83 122.88" style="enable-background:new 0 0 122.83 122.88" xml:space="preserve"><g><path d="M60.18,24.74l0.86,0.86L84.54,2.11C85.94,0.71,87.8,0,89.66,0h0.01h0.01h0.01c1.86,0.01,3.71,0.71,5.11,2.11l25.91,25.91 c1.41,1.41,2.12,3.27,2.12,5.13c0,0.1-0.01,0.2-0.01,0.3c-0.07,1.76-0.77,3.5-2.11,4.84L97.22,61.77l0.92,0.92 c0.99,0.99,1.49,2.29,1.49,3.6c0,0.11-0.01,0.22-0.02,0.33c-0.07,1.19-0.56,2.36-1.47,3.26l-48.38,48.38 c-3.08,3.08-7.13,4.61-11.18,4.61c-4.05,0-8.1-1.54-11.18-4.61l-2.18-2.18L7.24,98.1l-2.63-2.63C1.54,92.4,0,88.35,0,84.3 c0-4.05,1.54-8.1,4.61-11.18l48.38-48.38c0.99-0.99,2.29-1.48,3.59-1.48l0.01,0v-0.01C57.89,23.25,59.19,23.75,60.18,24.74 L60.18,24.74z M37.63,79.35c1.47-1.47,3.39-1.55,4.95-0.64l1.31-1.31c0.03-1.46-0.54-2.89-1.07-4.23c-1.15-2.88-2.15-5.38,1.3-7.7 c-0.68-1.17-0.51-2.7,0.49-3.7c1.2-1.2,3.14-1.2,4.34,0c1.2,1.2,1.2,3.14,0,4.34c-0.86,0.86-2.12,1.11-3.2,0.72l0.02,0.03 c-0.4,0.23-0.72,0.47-0.98,0.71c-1.45,1.39-0.81,3-0.07,4.83c0.04,0.11,0.09,0.22,0.13,0.33c0.35,0.88,0.7,1.81,0.91,2.79 L57.8,63.5l-1.62-1.62l-0.37-0.37l0.63-0.16l6.95-1.78l-1.94,7.59l-2.2-2.2l-9.18,9.18c0.99,0.2,1.92,0.54,2.82,0.9 c0.14,0.05,0.27,0.11,0.41,0.16c1.85,0.74,3.48,1.39,4.88-0.13c0.19-0.2,0.37-0.45,0.55-0.74l-1.03-1.03 c-0.17-0.17-0.17-0.46,0-0.63l3.81-3.81c0.17-0.17,0.45-0.17,0.63,0L66,72.74c0.17,0.17,0.17,0.45,0,0.63l-3.81,3.81 c-0.17,0.17-0.45,0.17-0.63,0l-1.35-1.35c-2.31,3.43-4.81,2.43-7.68,1.28c-1.37-0.55-2.85-1.14-4.35-1.07l-4.14,4.14 c0.92,1.56,0.83,3.48-0.64,4.95c-1.47,1.47-4.18,1.6-5.77,0C36.04,83.53,36.16,80.82,37.63,79.35L37.63,79.35z M13.15,95.57 c0.16,0.11,0.31,0.23,0.45,0.37l13.79,13.79c0.14,0.14,0.26,0.29,0.37,0.45l3.87,3.87c1.91,1.91,4.43,2.87,6.96,2.87 c2.52,0,5.05-0.96,6.96-2.87L93.3,66.29L56.59,29.58L8.83,77.34c-1.91,1.91-2.87,4.43-2.87,6.96c0,2.52,0.96,5.05,2.87,6.96 L13.15,95.57L13.15,95.57z M100.67,36.81L100.67,36.81c1.26,1.26,1.26,3.32,0,4.57l-4.23,4.23c-1.26,1.26-3.32,1.26-4.57,0l0,0 c-1.26-1.26-1.26-3.31,0-4.57l4.23-4.23C97.36,35.55,99.42,35.55,100.67,36.81L100.67,36.81z M87,23.13L87,23.13 c1.26,1.26,1.26,3.32,0,4.57l-4.23,4.23c-1.26,1.26-3.32,1.26-4.57,0l0,0c-1.26-1.26-1.26-3.31,0-4.57l4.23-4.23 C83.68,21.88,85.74,21.88,87,23.13L87,23.13z M116.49,32.24L90.58,6.33C90.33,6.07,90,5.95,89.68,5.95v0l-0.02,0 c-0.32,0-0.65,0.13-0.91,0.38L65.32,29.76l27.74,27.74l23.43-23.43c0.22-0.22,0.35-0.51,0.38-0.79c0-0.04,0-0.08,0-0.12 C116.86,32.82,116.74,32.48,116.49,32.24L116.49,32.24z"/></g></svg>