<?xml version="1.0" encoding="UTF-8" standalone="no"?>
<svg
   width="64"
   height="64"
   viewBox="0 0 63.999997 64"
   id="svg4160"
   version="1.1"
   sodipodi:docname="arrow-right.svg"
   inkscape:version="1.1 (c4e8f9ed74, 2021-05-24)"
   xmlns:inkscape="http://www.inkscape.org/namespaces/inkscape"
   xmlns:sodipodi="http://sodipodi.sourceforge.net/DTD/sodipodi-0.dtd"
   xmlns="http://www.w3.org/2000/svg"
   xmlns:svg="http://www.w3.org/2000/svg"
   xmlns:rdf="http://www.w3.org/1999/02/22-rdf-syntax-ns#"
   xmlns:cc="http://creativecommons.org/ns#"
   xmlns:dc="http://purl.org/dc/elements/1.1/">
  <sodipodi:namedview
     pagecolor="#002b36"
     bordercolor="#666666"
     borderopacity="1"
     objecttolerance="10"
     gridtolerance="10"
     guidetolerance="10"
     inkscape:pageopacity="1"
     inkscape:pageshadow="2"
     inkscape:window-width="1600"
     inkscape:window-height="826"
     id="namedview8"
     showgrid="false"
     inkscape:zoom="7.4010512"
     inkscape:cx="19.591811"
     inkscape:cy="33.30608"
     inkscape:window-x="0"
     inkscape:window-y="0"
     inkscape:window-maximized="1"
     inkscape:current-layer="layer2"
     inkscape:document-rotation="0"
     inkscape:pagecheckerboard="false">
    <inkscape:grid
       type="xygrid"
       id="grid832" />
  </sodipodi:namedview>
  <defs
     id="defs4162" />
  <metadata
     id="metadata4165">
    <rdf:RDF>
      <cc:Work
         rdf:about="">
        <dc:format>image/svg+xml</dc:format>
        <dc:type
           rdf:resource="http://purl.org/dc/dcmitype/StillImage" />
      </cc:Work>
    </rdf:RDF>
  </metadata>
  <g
     id="layer2"
     style="display:inline;stroke:none"
     transform="translate(-3.5328446,2.2636422)">
    <path
       style="color:#000000;opacity:0.998;fill:#eee8d5;stroke-linecap:round;stroke-linejoin:round;-inkscape-stroke:none"
       d="m 12.50217,33.410916 v -9.240234 c 0,-0.685048 0.434367,-1.076172 0.923828,-1.076172 h 24.408203 c 1.759835,-3.58e-4 2.663704,-2.107358 1.451171,-3.382813 l -3.027343,-3.1875 c -0.405829,-0.427185 -0.405829,-1.172425 0,-1.599609 l 4.136718,-4.353516 c 0.203908,-0.214637 0.406574,-0.283203 0.615235,-0.283203 0.208665,0 0.41328,0.06857 0.617187,0.283203 l 12.41211,13.066406 4.140625,4.355469 c 0.406973,0.428389 0.406974,1.167313 0,1.595703 l -4.140625,4.355469 -12.41211,13.066406 c -0.406971,0.428387 -0.82545,0.428387 -1.232422,0 L 36.258029,42.65701 c -0.40583,-0.427186 -0.405832,-1.172421 0,-1.59961 l 3.027343,-3.1875 c 1.212531,-1.275455 0.308663,-3.382454 -1.451171,-3.382812 H 13.425998 c -0.489462,0 -0.923828,-0.391128 -0.923828,-1.076172 z"
       id="rect852-3"
       sodipodi:nodetypes="ssscccccscccccccccccss" />
  </g>
</svg>
