<?xml version="1.0" encoding="UTF-8" standalone="no"?>
<svg
   xmlns:dc="http://purl.org/dc/elements/1.1/"
   xmlns:cc="http://creativecommons.org/ns#"
   xmlns:rdf="http://www.w3.org/1999/02/22-rdf-syntax-ns#"
   xmlns:svg="http://www.w3.org/2000/svg"
   xmlns="http://www.w3.org/2000/svg"
   xmlns:sodipodi="http://sodipodi.sourceforge.net/DTD/sodipodi-0.dtd"
   xmlns:inkscape="http://www.inkscape.org/namespaces/inkscape"
   width="64"
   height="64"
   viewBox="0 0 63.999997 64"
   id="svg4160"
   version="1.1"
   sodipodi:docname="arrow-left.svg"
   inkscape:version="1.0.2 (e86c870879, 2021-01-15, custom)">
  <sodipodi:namedview
     pagecolor="#ffffff"
     bordercolor="#666666"
     borderopacity="1"
     objecttolerance="10"
     gridtolerance="10"
     guidetolerance="10"
     inkscape:pageopacity="0"
     inkscape:pageshadow="2"
     inkscape:window-width="1600"
     inkscape:window-height="837"
     id="namedview8"
     showgrid="false"
     inkscape:zoom="7.4010512"
     inkscape:cx="31.760514"
     inkscape:cy="33.021137"
     inkscape:window-x="-8"
     inkscape:window-y="-8"
     inkscape:window-maximized="1"
     inkscape:current-layer="layer2"
     inkscape:document-rotation="0">
    <inkscape:grid
       type="xygrid"
       id="grid832" />
  </sodipodi:namedview>
  <defs
     id="defs4162" />
  <metadata
     id="metadata4165">
    <rdf:RDF>
      <cc:Work
         rdf:about="">
        <dc:format>image/svg+xml</dc:format>
        <dc:type
           rdf:resource="http://purl.org/dc/dcmitype/StillImage" />
        <dc:title />
      </cc:Work>
    </rdf:RDF>
  </metadata>
  <g
     id="layer2"
     style="display:inline;stroke:none"
     transform="translate(-3.5328446,2.2636422)">
    <path
       id="rect852"
       style="opacity:0.998;fill:#fdf6e3;stroke:none;stroke-width:1.99999;stroke-linecap:round;stroke-linejoin:round;stroke-opacity:1;font-variation-settings:normal;vector-effect:none;fill-opacity:1;stroke-miterlimit:4;stroke-dasharray:none;stroke-dashoffset:0;stop-color:#000000;stop-opacity:1"
       d="m 31.758028,16.42426 c -0.511239,0 -1.022326,0.196153 -1.414063,0.58789 l -8.484375,8.486328 -2.830078,2.828126 c -0.783474,0.783474 -0.783474,2.04465 0,2.828124 l 2.830078,2.828126 8.484375,8.486328 c 0.783474,0.783474 2.044651,0.783474 2.828125,0 l 2.828125,-2.828125 c 0.783474,-0.783475 0.783474,-2.046604 0,-2.830079 L 33.929903,34.740666 H 50.61545 c 1.108,0 2,-0.892 2,-2 v -6 c -1e-6,-1.108 -0.892001,-2 -2,-2 H 33.929903 l 2.070312,-2.070312 c 0.783474,-0.783475 0.783474,-2.046604 0,-2.830079 L 33.17209,17.01215 c -0.391737,-0.391737 -0.902824,-0.58789 -1.414062,-0.58789 z" />
  </g>
</svg>
