<?xml version="1.0" encoding="UTF-8" standalone="no"?>
<svg
   width="64"
   height="64"
   viewBox="0 0 64 64"
   version="1.1"
   id="svg10"
   sodipodi:docname="battery-unknown.svg"
   inkscape:version="1.2.2 (b0a8486541, 2022-12-01)"
   xmlns:inkscape="http://www.inkscape.org/namespaces/inkscape"
   xmlns:sodipodi="http://sodipodi.sourceforge.net/DTD/sodipodi-0.dtd"
   xmlns="http://www.w3.org/2000/svg"
   xmlns:svg="http://www.w3.org/2000/svg"
   xmlns:rdf="http://www.w3.org/1999/02/22-rdf-syntax-ns#"
   xmlns:cc="http://creativecommons.org/ns#"
   xmlns:dc="http://purl.org/dc/elements/1.1/">
  <metadata
     id="metadata16">
    <rdf:RDF>
      <cc:Work
         rdf:about="">
        <dc:format>image/svg+xml</dc:format>
        <dc:type
           rdf:resource="http://purl.org/dc/dcmitype/StillImage" />
        <dc:title>folder</dc:title>
      </cc:Work>
    </rdf:RDF>
  </metadata>
  <defs
     id="defs14" />
  <sodipodi:namedview
     pagecolor="#bfbfbf"
     bordercolor="#666666"
     borderopacity="1"
     objecttolerance="10"
     gridtolerance="10"
     guidetolerance="10"
     inkscape:pageopacity="0"
     inkscape:pageshadow="2"
     inkscape:window-width="1600"
     inkscape:window-height="828"
     id="namedview12"
     showgrid="false"
     inkscape:pagecheckerboard="false"
     inkscape:zoom="15.312519"
     inkscape:cx="25.991804"
     inkscape:cy="30.367309"
     inkscape:window-x="0"
     inkscape:window-y="0"
     inkscape:window-maximized="1"
     inkscape:current-layer="svg10"
     inkscape:snap-bbox="true"
     inkscape:snap-bbox-edge-midpoints="true"
     inkscape:document-rotation="0"
     inkscape:showpageshadow="2"
     inkscape:deskcolor="#bfbfbf"
     showguides="true">
    <sodipodi:guide
       position="30.4,39"
       orientation="1,0"
       id="guide959"
       inkscape:locked="false" />
    <sodipodi:guide
       position="15,32"
       orientation="1,0"
       id="guide1021"
       inkscape:locked="false" />
    <sodipodi:guide
       position="45.8,32"
       orientation="1,0"
       id="guide1023"
       inkscape:locked="false" />
    <sodipodi:guide
       position="20.318471,25"
       orientation="0,1"
       id="guide1025"
       inkscape:locked="false" />
    <sodipodi:guide
       position="22.7,39"
       orientation="1,0"
       id="guide1083"
       inkscape:locked="false" />
    <sodipodi:guide
       position="38.099999,39"
       orientation="1,0"
       id="guide1085"
       inkscape:locked="false" />
  </sodipodi:namedview>
  <!-- Generator: Sketch 52.5 (67469) - http://www.bohemiancoding.com/sketch -->
  <title
     id="title2">folder</title>
  <rect
     style="fill:#eee8d5;stroke-width:1;stroke-linecap:round;stroke-linejoin:round;-inkscape-stroke:none;stop-color:#000000;font-variation-settings:normal;opacity:0.998;vector-effect:none;fill-opacity:1;stroke:none;stroke-miterlimit:4;stroke-dasharray:none;stroke-dashoffset:0;stroke-opacity:1;stop-opacity:1"
     id="rect295"
     width="30.800781"
     height="14"
     x="15"
     y="25" />
  <desc
     id="desc4">Created with Sketch.</desc>
  <path
     id="path182"
     style="fill:#eee8d5;fill-opacity:1;stroke-width:1;font-variation-settings:normal;opacity:0.998;vector-effect:none;stroke:none;stroke-linecap:round;stroke-linejoin:round;stroke-miterlimit:4;stroke-dasharray:none;stroke-dashoffset:0;stroke-opacity:1;-inkscape-stroke:none;stop-color:#000000;stop-opacity:1"
     d="m 13.5,22 c -0.425,0 -0.780693,0.144308 -1.068359,0.431641 C 12.144308,22.719307 12,23.075 12,23.5 v 17 c 0,0.425 0.144308,0.781027 0.431641,1.068359 C 12.719307,41.856026 13.075,42 13.5,42 h 33.800781 c 0.425,0 0.781027,-0.143974 1.06836,-0.431641 C 48.656807,41.281027 48.800781,40.925 48.800781,40.5 V 36 H 52 v -8 h -3.199219 v -4.5 c 0,-0.425 -0.143974,-0.780693 -0.43164,-1.068359 C 48.081808,22.144308 47.725781,22 47.300781,22 Z m 32.300781,3 V 39 H 15 V 25 Z"
     sodipodi:nodetypes="scssssscsccccssssccccc" />
  <path
     d="m 33.239844,31.75 -0.9,0.92 c -0.54,0.54 -0.92,1.01 -1.08,1.83 h -2.04 c 0.11,-0.9 0.51,-1.72 1.12,-2.33 l 1.24,-1.26 c 0.37,-0.36 0.59,-0.86 0.59,-1.41 0,-1.11 -0.9,-2 -2,-2 -1.104569,0 -2,0.895431 -2,2 h -2 c 0,-2.209139 1.790861,-4 4,-4 2.209139,0 4,1.790861 4,4 0,0.88 -0.36,1.68 -0.93,2.25 m -2.07,6.75 h -2 v -2 h 2"
     style="fill:#dc322f;font-variation-settings:normal;opacity:1;vector-effect:none;fill-opacity:1;stroke-width:5.99999;stroke-linecap:round;stroke-linejoin:miter;stroke-miterlimit:4;stroke-dasharray:none;stroke-dashoffset:0;stroke-opacity:1;-inkscape-stroke:none;stop-color:#000000;stop-opacity:1;stroke:none"
     id="path1360"
     sodipodi:nodetypes="ccccccssccssccccc" />
</svg>
