<?xml version="1.0" encoding="UTF-8" standalone="no"?>
<svg
   width="64"
   height="64"
   viewBox="0 0 64 64"
   version="1.1"
   id="svg10"
   sodipodi:docname="battery-unknown.svg"
   inkscape:version="1.2.2 (b0a8486541, 2022-12-01)"
   xmlns:inkscape="http://www.inkscape.org/namespaces/inkscape"
   xmlns:sodipodi="http://sodipodi.sourceforge.net/DTD/sodipodi-0.dtd"
   xmlns="http://www.w3.org/2000/svg"
   xmlns:svg="http://www.w3.org/2000/svg"
   xmlns:rdf="http://www.w3.org/1999/02/22-rdf-syntax-ns#"
   xmlns:cc="http://creativecommons.org/ns#"
   xmlns:dc="http://purl.org/dc/elements/1.1/">
  <metadata
     id="metadata16">
    <rdf:RDF>
      <cc:Work
         rdf:about="">
        <dc:format>image/svg+xml</dc:format>
        <dc:type
           rdf:resource="http://purl.org/dc/dcmitype/StillImage" />
        <dc:title>folder</dc:title>
      </cc:Work>
    </rdf:RDF>
  </metadata>
  <defs
     id="defs14" />
  <sodipodi:namedview
     pagecolor="#bfbfbf"
     bordercolor="#666666"
     borderopacity="1"
     objecttolerance="10"
     gridtolerance="10"
     guidetolerance="10"
     inkscape:pageopacity="0"
     inkscape:pageshadow="2"
     inkscape:window-width="1600"
     inkscape:window-height="828"
     id="namedview12"
     showgrid="false"
     inkscape:pagecheckerboard="false"
     inkscape:zoom="9.5625"
     inkscape:cx="32"
     inkscape:cy="32"
     inkscape:window-x="0"
     inkscape:window-y="0"
     inkscape:window-maximized="1"
     inkscape:current-layer="svg10"
     inkscape:snap-bbox="true"
     inkscape:snap-bbox-edge-midpoints="true"
     inkscape:document-rotation="0"
     inkscape:showpageshadow="2"
     inkscape:deskcolor="#bfbfbf"
     showguides="true">
    <sodipodi:guide
       position="22.900002,29.919999"
       orientation="0,-1"
       id="guide796"
       inkscape:locked="false" />
    <sodipodi:guide
       position="22.900002,19.909998"
       orientation="0,-1"
       id="guide851"
       inkscape:locked="false" />
  </sodipodi:namedview>
  <!-- Generator: Sketch 52.5 (67469) - http://www.bohemiancoding.com/sketch -->
  <title
     id="title2">folder</title>
  <desc
     id="desc4">Created with Sketch.</desc>
  <path
     d="M 45,12.109999 C 45,11.5575 44.813016,11.094483 44.43905,10.720949 44.065517,10.346983 43.6025,10.16 43.05,10.16 H 37.199999 V 5.9999999 H 26.8 V 10.16 h -5.85 c -0.5525,0 -1.015733,0.186983 -1.3897,0.560949 C 19.186766,11.094483 19,11.5575 19,12.109999 V 56.05 c 0,0.5525 0.186766,1.015733 0.5603,1.389699 C 19.934267,57.813233 20.3975,58 20.95,58 h 22.1 c 0.5525,0 1.015517,-0.186767 1.38905,-0.560301 C 44.813016,57.065733 45,56.6025 45,56.05 Z"
     id="path182"
     style="font-variation-settings:normal;opacity:0.998;vector-effect:none;fill:#eee8d5;fill-opacity:1;stroke:none;stroke-width:0.999997;stroke-linecap:round;stroke-linejoin:round;stroke-miterlimit:4;stroke-dasharray:none;stroke-dashoffset:0;stroke-opacity:1;-inkscape-stroke:none;stop-color:#000000;stop-opacity:1"
     sodipodi:nodetypes="scsccccsssscsssss" />
  <path
     d="m 39.480907,33.470803 -2.193099,2.241835 c -1.31586,1.31586 -2.241836,2.461145 -2.63172,4.459302 h -4.971026 c 0.268046,-2.193099 1.242757,-4.191257 2.729191,-5.677691 l 3.021604,-3.070339 c 0.901607,-0.87724 1.437698,-2.095629 1.437698,-3.435857 0,-2.704822 -2.193099,-4.873554 -4.873554,-4.873554 -2.691589,0 -4.873555,2.181966 -4.873555,4.873554 h -4.873555 c 0,-5.38318 4.36393,-9.747109 9.74711,-9.747109 5.38318,0 9.747109,4.363929 9.747109,9.747109 0,2.144365 -0.87724,4.093786 -2.266203,5.48275 M 34.436778,49.91905 h -4.873555 v -4.873555 h 4.873555"
     style="font-variation-settings:normal;vector-effect:none;fill:#dc322f;fill-opacity:1;stroke:none;stroke-width:5.99998;stroke-linecap:round;stroke-linejoin:miter;stroke-miterlimit:4;stroke-dasharray:none;stroke-dashoffset:0;stroke-opacity:1;-inkscape-stroke:none;stop-color:#000000"
     id="path1360"
     sodipodi:nodetypes="ccccccssccssccccc" />
</svg>
