<?xml version="1.0" encoding="UTF-8" standalone="no"?>
<svg
   xmlns:dc="http://purl.org/dc/elements/1.1/"
   xmlns:cc="http://creativecommons.org/ns#"
   xmlns:rdf="http://www.w3.org/1999/02/22-rdf-syntax-ns#"
   xmlns:svg="http://www.w3.org/2000/svg"
   xmlns="http://www.w3.org/2000/svg"
   xmlns:sodipodi="http://sodipodi.sourceforge.net/DTD/sodipodi-0.dtd"
   xmlns:inkscape="http://www.inkscape.org/namespaces/inkscape"
   width="64"
   height="64"
   viewBox="0 0 63.999997 64"
   id="svg4160"
   version="1.1"
   sodipodi:docname="bed-mesh.svg"
   inkscape:version="1.0.2-2 (e86c870879, 2021-01-15)">
  <sodipodi:namedview
     pagecolor="#002b36"
     bordercolor="#666666"
     borderopacity="1"
     objecttolerance="10"
     gridtolerance="10"
     guidetolerance="10"
     inkscape:pageopacity="1"
     inkscape:pageshadow="2"
     inkscape:window-width="1920"
     inkscape:window-height="1018"
     id="namedview8"
     showgrid="false"
     inkscape:zoom="7.4010512"
     inkscape:cx="19.591811"
     inkscape:cy="33.30608"
     inkscape:window-x="-6"
     inkscape:window-y="-6"
     inkscape:window-maximized="1"
     inkscape:current-layer="layer2"
     inkscape:document-rotation="0"
     inkscape:pagecheckerboard="false">
    <inkscape:grid
       type="xygrid"
       id="grid832" />
  </sodipodi:namedview>
  <defs
     id="defs4162" />
  <metadata
     id="metadata4165">
    <rdf:RDF>
      <cc:Work
         rdf:about="">
        <dc:format>image/svg+xml</dc:format>
        <dc:type
           rdf:resource="http://purl.org/dc/dcmitype/StillImage" />
      </cc:Work>
    </rdf:RDF>
  </metadata>
  <g
     id="layer2"
     style="display:inline;stroke:none"
     transform="translate(-3.5328446,2.2636422)">
    <path
       d="m 31.532845,13.736358 v 8 h 7.999999 v -8 h -7.999999 m 11.999998,0 v 8 h 8.000001 v -8 h -8.000001 m 0,12 v 8 h 8.000001 v -8 h -8.000001 m 0,11.999999 v 8.000001 h 8.000001 v -8.000001 h -8.000001 m -3.999999,8.000001 v -8.000001 h -7.999999 v 8.000001 h 7.999999 m -11.999998,0 v -8.000001 h -8.000001 v 8.000001 h 8.000001 m 0,-12 v -8 h -8.000001 v 8 h 8.000001 m 0,-12 v -8 h -8.000001 v 8 h 8.000001 m 3.999999,12 h 7.999999 v -8 h -7.999999 v 8 m -12,-24.0000003 h 31.999999 a 4,4 0 0 1 4.000001,4.0000003 v 32 a 4,4 0 0 1 -4.000001,4 H 19.532845 c -2.16,0 -4,-1.8 -4,-4 v -32 a 4,4 0 0 1 4,-4.0000003 z"
       id="path2-8"
       style="font-variation-settings:normal;opacity:0.998;vector-effect:none;fill:#eee8d5;fill-opacity:1;stroke:none;stroke-width:1;stroke-linecap:round;stroke-linejoin:round;stroke-miterlimit:4;stroke-dasharray:none;stroke-dashoffset:0;stroke-opacity:1;stop-color:#000000;stop-opacity:1" />
  </g>
</svg>
