<?xml version="1.0" encoding="UTF-8" standalone="no" ?>
<!DOCTYPE svg PUBLIC "-//W3C//DTD SVG 1.1//EN" "http://www.w3.org/Graphics/SVG/1.1/DTD/svg11.dtd">
<svg xmlns="http://www.w3.org/2000/svg" xmlns:xlink="http://www.w3.org/1999/xlink" version="1.1" width="1080" height="1080" viewBox="0 0 1080 1080" xml:space="preserve">
<desc>Created with Fabric.js 5.2.4</desc>
<defs>
</defs>
<g transform="matrix(1 0 0 1 540 540)" id="d56b65e2-0d0b-4830-8731-f0e8b81b0b22"  >
<rect style="stroke: none; stroke-width: 1; stroke-dasharray: none; stroke-linecap: butt; stroke-dashoffset: 0; stroke-linejoin: miter; stroke-miterlimit: 4; fill: rgb(255,255,255); fill-rule: nonzero; opacity: 1; visibility: hidden;" vector-effect="non-scaling-stroke"  x="-540" y="-540" rx="0" ry="0" width="1080" height="1080" />
</g>
<g transform="matrix(1 0 0 1 540 540)" id="f67db020-14b7-464d-8ce5-2ea865c1ff2e"  >
</g>
<g transform="matrix(3.7 0 0 3.7 540 540)"  >
<g style="" vector-effect="non-scaling-stroke"   >
		<g transform="matrix(1 0 0 1 -0.05 -0.51)" id="path4206"  >
<circle style="stroke: rgb(255,218,9); stroke-width: 20; stroke-dasharray: none; stroke-linecap: round; stroke-dashoffset: 0; stroke-linejoin: bevel; stroke-miterlimit: 4; fill: rgb(249,255,11); fill-rule: nonzero; opacity: 1;" vector-effect="non-scaling-stroke"  cx="0" cy="0" r="58.334457" />
</g>
		<g transform="matrix(1 0 0 1 -0.05 -95.03)" id="path4148-0"  >
<path style="stroke: rgb(255,218,9); stroke-width: 20; stroke-dasharray: none; stroke-linecap: butt; stroke-dashoffset: 0; stroke-linejoin: round; stroke-miterlimit: 4; fill: rgb(255,218,9); fill-rule: evenodd; opacity: 1;" vector-effect="non-scaling-stroke"  transform=" translate(-126.97, -32.23)" d="M 148.88164 44.440866 L 105.05615 44.440866 L 127.59497 20.023808 z" stroke-linecap="round" />
</g>
		<g transform="matrix(1 0 0 1 60.14 -61.48)" id="path4148-0-7"  >
<path style="stroke: rgb(255,218,9); stroke-width: 20; stroke-dasharray: none; stroke-linecap: butt; stroke-dashoffset: 0; stroke-linejoin: round; stroke-miterlimit: 4; fill: rgb(255,218,9); fill-rule: evenodd; opacity: 1;" vector-effect="non-scaling-stroke"  transform=" translate(-187.16, -65.78)" d="M 201.54956 81.943491 L 170.56027 50.954199 L 203.76308 49.626081 Z" stroke-linecap="round" />
</g>
		<g transform="matrix(1 0 0 1 95.55 -0.51)" id="path4148-0-77"  >
<path style="stroke: rgb(255,218,9); stroke-width: 20; stroke-dasharray: none; stroke-linecap: butt; stroke-dashoffset: 0; stroke-linejoin: round; stroke-miterlimit: 4; fill: rgb(255,218,9); fill-rule: evenodd; opacity: 1;" vector-effect="non-scaling-stroke"  transform=" translate(-222.57, -126.75)" d="M 210.35863 148.66504 L 210.35863 104.83955 L 234.77569 127.37837 z" stroke-linecap="round" />
</g>
		<g transform="matrix(1 0 0 1 59.99 60.76)" id="path4148-0-9"  >
<path style="stroke: rgb(255,218,9); stroke-width: 20; stroke-dasharray: none; stroke-linecap: butt; stroke-dashoffset: 0; stroke-linejoin: round; stroke-miterlimit: 4; fill: rgb(255,218,9); fill-rule: evenodd; opacity: 1;" vector-effect="non-scaling-stroke"  transform=" translate(-187.01, -188.03)" d="M 170.85404 202.41352 L 201.84335 171.42421000000002 L 203.17145 204.62704000000002 z" stroke-linecap="round" />
</g>
		<g transform="matrix(1 0 0 1 -0.05 95.03)" id="path4148-0-9-4"  >
<path style="stroke: rgb(255,218,9); stroke-width: 20; stroke-dasharray: none; stroke-linecap: butt; stroke-dashoffset: 0; stroke-linejoin: round; stroke-miterlimit: 4; fill: rgb(255,218,9); fill-rule: evenodd; opacity: 1;" vector-effect="non-scaling-stroke"  transform=" translate(-126.97, -222.3)" d="M 105.05623 210.08898 L 148.88173 210.08897 L 126.34289000000001 234.50603999999998 z" stroke-linecap="round" />
</g>
		<g transform="matrix(1 0 0 1 -60.67 60.15)" id="path4148-0-9-1"  >
<path style="stroke: rgb(255,218,9); stroke-width: 20; stroke-dasharray: none; stroke-linecap: butt; stroke-dashoffset: 0; stroke-linejoin: round; stroke-miterlimit: 4; fill: rgb(255,218,9); fill-rule: evenodd; opacity: 1;" vector-effect="non-scaling-stroke"  transform=" translate(-66.35, -187.42)" d="M 51.963528 171.26003 L 82.952832 202.24933 L 49.750005 203.57744 z" stroke-linecap="round" />
</g>
		<g transform="matrix(1 0 0 1 -95.55 -0.51)" id="path4148-0-9-10"  >
<path style="stroke: rgb(255,218,9); stroke-width: 20; stroke-dasharray: none; stroke-linecap: butt; stroke-dashoffset: 0; stroke-linejoin: round; stroke-miterlimit: 4; fill: rgb(255,218,9); fill-rule: evenodd; opacity: 1;" vector-effect="non-scaling-stroke"  transform=" translate(-31.47, -126.75)" d="M 43.681165 104.83964 L 43.681165 148.66513 L 19.264108 126.12631 z" stroke-linecap="round" />
</g>
		<g transform="matrix(1 0 0 1 -60.18 -60.35)" id="path4148-0-7-1"  >
<path style="stroke: rgb(255,218,9); stroke-width: 20; stroke-dasharray: none; stroke-linecap: butt; stroke-dashoffset: 0; stroke-linejoin: round; stroke-miterlimit: 4; fill: rgb(255,218,9); fill-rule: evenodd; opacity: 1;" vector-effect="non-scaling-stroke"  transform=" translate(-66.84, -66.92)" d="M 52.453579 83.077273 L 83.442872 52.087982 L 50.240056 50.759863 Z" stroke-linecap="round" />
</g>
</g>
</g>
</svg>