<?xml version="1.0" encoding="UTF-8" standalone="no"?>
<svg
   xmlns:dc="http://purl.org/dc/elements/1.1/"
   xmlns:cc="http://creativecommons.org/ns#"
   xmlns:rdf="http://www.w3.org/1999/02/22-rdf-syntax-ns#"
   xmlns:svg="http://www.w3.org/2000/svg"
   xmlns="http://www.w3.org/2000/svg"
   xmlns:sodipodi="http://sodipodi.sourceforge.net/DTD/sodipodi-0.dtd"
   xmlns:inkscape="http://www.inkscape.org/namespaces/inkscape"
   width="64"
   height="64"
   viewBox="0 0 63.999997 64"
   id="svg4160"
   version="1.1"
   sodipodi:docname="cool-down.svg"
   inkscape:version="1.0.2 (e86c870879, 2021-01-15, custom)">
  <sodipodi:namedview
     pagecolor="#ffffff"
     bordercolor="#666666"
     borderopacity="1"
     objecttolerance="10"
     gridtolerance="10"
     guidetolerance="10"
     inkscape:pageopacity="0"
     inkscape:pageshadow="2"
     inkscape:window-width="1600"
     inkscape:window-height="837"
     id="namedview13"
     showgrid="true"
     inkscape:zoom="7.401051"
     inkscape:cx="24.150582"
     inkscape:cy="35.647313"
     inkscape:window-x="-8"
     inkscape:window-y="-8"
     inkscape:window-maximized="1"
     inkscape:current-layer="svg4160"
     inkscape:document-rotation="0">
    <inkscape:grid
       type="xygrid"
       id="grid847" />
  </sodipodi:namedview>
  <defs
     id="defs4162" />
  <metadata
     id="metadata4165">
    <rdf:RDF>
      <cc:Work
         rdf:about="">
        <dc:format>image/svg+xml</dc:format>
        <dc:type
           rdf:resource="http://purl.org/dc/dcmitype/StillImage" />
        <dc:title></dc:title>
      </cc:Work>
    </rdf:RDF>
  </metadata>
  <path
     id="rect835"
     style="opacity:0.998;fill:#268bd2;fill-opacity:1;stroke:none;stroke-width:1;stroke-linecap:round;stroke-linejoin:round;stroke-miterlimit:4;stroke-dasharray:none;stroke-opacity:1"
     d="m 26.924258,2.0003903 c -0.492427,-0.00859 -0.993617,0.1252956 -1.439501,0.4148565 L 23.338,3.8097642 c -1.189025,0.7721631 -1.524402,2.3522511 -0.752241,3.5412761 l 4.181054,6.4377727 c 0.03404,0.05241 0.07789,0.09339 0.11495,0.142451 v 8.64201 l -7.247487,-4.705872 c -0.02101,-0.05796 -0.032,-0.117687 -0.05748,-0.17494 L 16.452875,10.679889 C 15.876225,9.3847103 14.369224,8.8061873 13.074044,9.3828373 l -2.336692,1.0396407 c -1.295179,0.57665 -1.873702,2.083651 -1.29705,3.378831 l 2.221731,4.990773 h -5.46311 c -1.41775,0 -2.559115,1.141365 -2.559115,2.559115 v 2.559115 c 0,1.417749 1.141365,2.559115 2.559115,2.559115 h 7.677345 c 0.06245,0 0.121125,-0.01314 0.182436,-0.01749 l 8.542046,5.54808 -8.542046,5.548081 c -0.06131,-0.0044 -0.119975,-0.01749 -0.182436,-0.01749 h -7.67734 c -1.41775,0 -2.559115,1.141366 -2.559115,2.559114 v 2.559116 c 0,1.41775 1.141365,2.559115 2.559115,2.559115 h 5.46311 l -2.221731,4.990773 c -0.576652,1.295179 0.0019,2.80218 1.29705,3.37883 l 2.336692,1.039641 c 1.29518,0.57665 2.802181,-0.0019 3.378831,-1.297052 l 3.123921,-7.012572 c 0.02549,-0.05725 0.03646,-0.116963 0.05748,-0.17494 l 7.247495,-4.705875 v 8.64201 c -0.03706,0.04908 -0.08091,0.09004 -0.11495,0.142451 l -4.181055,6.437773 c -0.772161,1.189025 -0.436783,2.769113 0.752241,3.541276 l 2.146758,1.394517 c 1.189024,0.772162 2.769113,0.436785 3.541274,-0.75224 l 2.973967,-4.580915 2.973971,4.580915 c 0.772162,1.189025 2.352251,1.524402 3.541276,0.75224 l 2.146757,-1.394517 c 1.189024,-0.772163 1.524402,-2.352251 0.75224,-3.541276 l -4.181054,-6.437773 c -0.03404,-0.05241 -0.07789,-0.09338 -0.114962,-0.142451 v -8.64201 l 7.247493,4.705872 c 0.02101,0.05796 0.032,0.1177 0.05747,0.17494 l 3.12392,7.012573 c 0.57665,1.295179 2.083652,1.873702 3.378832,1.297052 l 2.336691,-1.039641 c 1.295179,-0.57665 1.873702,-2.083651 1.297051,-3.378831 L 52.337964,45.20795 h 5.46311 c 1.41775,0 2.559115,-1.141366 2.559115,-2.559114 V 40.08972 c 0,-1.417749 -1.141365,-2.559115 -2.559115,-2.559115 h -7.677343 c -0.06247,0 -0.121125,0.01314 -0.182438,0.01749 l -8.542042,-5.548079 8.542045,-5.548082 c 0.06131,0.0044 0.119975,0.01749 0.182437,0.01749 h 7.677344 c 1.41775,0 2.559115,-1.141366 2.559115,-2.559115 v -2.559115 c 0,-1.41775 -1.141365,-2.559115 -2.559115,-2.559115 h -5.46311 l 2.221732,-4.990773 c 0.576651,-1.295179 -0.0019,-2.80218 -1.297051,-3.37883 l -2.33669,-1.0396407 c -1.29518,-0.57665 -2.802181,0.0019 -3.378832,1.2970517 l -3.123921,7.012573 c -0.02549,0.05725 -0.03646,0.116962 -0.05747,0.17494 l -7.247495,4.705874 v -8.64201 c 0.03706,-0.04907 0.08093,-0.09004 0.11495,-0.142451 l 4.181055,-6.4377727 c 0.772169,-1.189025 0.436792,-2.769113 -0.752233,-3.5412761 L 38.51525,2.4152468 C 37.326225,1.6430851 35.746137,1.9784618 34.973974,3.1674867 L 32.000004,7.7484023 29.026032,3.1674867 C 28.543432,2.4243461 27.74497,2.014698 26.924258,2.0003903 Z" />
</svg>
