<?xml version="1.0" encoding="UTF-8" standalone="no"?>
<svg
   viewBox="0 0 64 64"
   height="64"
   width="64"
   xml:space="preserve"
   id="svg2"
   version="1.1"
   sodipodi:docname="custom-script.svg"
   inkscape:version="1.1 (c4e8f9ed74, 2021-05-24)"
   xmlns:inkscape="http://www.inkscape.org/namespaces/inkscape"
   xmlns:sodipodi="http://sodipodi.sourceforge.net/DTD/sodipodi-0.dtd"
   xmlns="http://www.w3.org/2000/svg"
   xmlns:svg="http://www.w3.org/2000/svg"
   xmlns:rdf="http://www.w3.org/1999/02/22-rdf-syntax-ns#"
   xmlns:cc="http://creativecommons.org/ns#"
   xmlns:dc="http://purl.org/dc/elements/1.1/"><sodipodi:namedview
     pagecolor="#002b36"
     bordercolor="#666666"
     borderopacity="1"
     objecttolerance="10"
     gridtolerance="10"
     guidetolerance="10"
     inkscape:pageopacity="1"
     inkscape:pageshadow="2"
     inkscape:window-width="1600"
     inkscape:window-height="826"
     id="namedview24"
     showgrid="false"
     inkscape:pagecheckerboard="false"
     inkscape:zoom="7.8223688"
     inkscape:cx="33.238014"
     inkscape:cy="30.745163"
     inkscape:window-x="0"
     inkscape:window-y="0"
     inkscape:window-maximized="1"
     inkscape:current-layer="svg2"
     inkscape:document-rotation="0" /><metadata
     id="metadata8"><rdf:RDF><cc:Work
         rdf:about=""><dc:format>image/svg+xml</dc:format><dc:type
           rdf:resource="http://purl.org/dc/dcmitype/StillImage" /></cc:Work></rdf:RDF></metadata><defs
     id="defs6"><clipPath
       id="clipPath18"
       clipPathUnits="userSpaceOnUse"><path
         id="path16"
         d="M 0,256 H 256 V 0 H 0 Z" /></clipPath><clipPath
       id="clipPath26"
       clipPathUnits="userSpaceOnUse"><path
         id="path24"
         d="M 76,192 H 180 V 64 H 76 Z" /></clipPath></defs><g
     id="g36"
     transform="matrix(0.53571428,0,0,-0.53571428,38.734464,2.0000003)"
     style="fill:#eee8d5;fill-opacity:1;stroke:none;stroke-width:4.97840005;stroke-miterlimit:4;stroke-dasharray:none;stroke-opacity:1"><path
       inkscape:connector-curvature="0"
       d="m 0,0 h -50.286 c -3.473,0 -6.285,-2.784 -6.285,-6.222 v -99.556 c 0,-3.438 2.812,-6.222 6.285,-6.222 h 75.429 c 3.473,0 6.286,2.784 6.286,6.222 v 74.667 z"
       style="fill:#eee8d5;fill-opacity:1;fill-rule:nonzero;stroke:none;stroke-width:4.97840005;stroke-miterlimit:4;stroke-dasharray:none;stroke-opacity:1"
       id="path38" /></g><circle
     r="14.497056"
     cy="46"
     cx="40"
     id="path815"
     style="opacity:0.99;vector-effect:none;fill:#6c71c4;fill-opacity:1;stroke:none;stroke-width:1;stroke-linecap:butt;stroke-linejoin:miter;stroke-miterlimit:4;stroke-dasharray:none;stroke-dashoffset:0;stroke-opacity:1;paint-order:markers stroke fill" /><path
     style="fill:#fdf6e3;fill-opacity:1;stroke-width:1"
     inkscape:connector-curvature="0"
     d="m 45.907497,45.106007 c -0.600014,-0.40028 -9.25874,-5.371153 -9.406932,-5.447664 -0.125639,-0.06442 -0.268194,-0.101479 -0.418802,-0.101479 -0.500145,0 -0.903643,0.401887 -0.910893,0.900427 -8.28e-4,0.004 -0.0032,0.0072 -0.0032,0.01128 0,0.806194 0,10.254233 0,11.060428 6.4e-5,0.505001 0.409202,0.914142 0.91418,0.914142 0.151413,0 0.293161,-0.03703 0.419607,-0.101479 0.148998,-0.07653 8.808526,-5.049816 9.408544,-5.449291 0.333429,-0.222288 0.533167,-0.557331 0.533167,-0.892372 -2.8e-5,-0.335037 -0.20057,-0.670884 -0.53561,-0.893978 z"
     id="Run" /><g
     id="g841"
     transform="matrix(0.53571428,0,0,-0.53571428,38.734464,2.0000003)"
     style="fill:none;fill-opacity:1;stroke:#073642;stroke-width:3.73333;stroke-miterlimit:4;stroke-dasharray:none;stroke-opacity:1"><path
       inkscape:connector-curvature="0"
       d="m 0,0 h -50.286 c -3.473,0 -6.285,-2.784 -6.285,-6.222 v -99.556 c 0,-3.438 2.812,-6.222 6.285,-6.222 h 75.429 c 3.473,0 6.286,2.784 6.286,6.222 v 74.667 z"
       style="fill:none;fill-opacity:1;fill-rule:nonzero;stroke:#073642;stroke-width:3.73333;stroke-miterlimit:4;stroke-dasharray:none;stroke-opacity:1"
       id="path839" /></g><path
     inkscape:connector-curvature="0"
     d="m 42.131097,18.599046 c -1.876627,0 -3.39661,-1.053748 -3.39661,-2.940357 V 1.9999767 L 55.414488,18.599046 Z"
     style="fill:#fdf6e3;fill-opacity:1;fill-rule:nonzero;stroke:#073642;stroke-width:2;stroke-linejoin:round;stroke-miterlimit:4;stroke-dasharray:none;stroke-opacity:1"
     id="path838"
     sodipodi:nodetypes="ccccc" /></svg>
