<?xml version="1.0" encoding="UTF-8" standalone="no"?>
<svg
   viewBox="0 0 64 64"
   height="64"
   width="64"
   xml:space="preserve"
   id="svg2"
   version="1.1"
   sodipodi:docname="edit.svg"
   inkscape:version="1.4.4 (dcaf3e7d9e, 2026-05-05)"
   xmlns:inkscape="http://www.inkscape.org/namespaces/inkscape"
   xmlns:sodipodi="http://sodipodi.sourceforge.net/DTD/sodipodi-0.dtd"
   xmlns="http://www.w3.org/2000/svg"
   xmlns:svg="http://www.w3.org/2000/svg"
   xmlns:rdf="http://www.w3.org/1999/02/22-rdf-syntax-ns#"
   xmlns:cc="http://creativecommons.org/ns#"
   xmlns:dc="http://purl.org/dc/elements/1.1/"><sodipodi:namedview
     pagecolor="#002b36"
     bordercolor="#666666"
     borderopacity="1"
     objecttolerance="10"
     gridtolerance="10"
     guidetolerance="10"
     inkscape:pageopacity="1"
     inkscape:pageshadow="2"
     inkscape:window-width="1536"
     inkscape:window-height="792"
     id="namedview24"
     showgrid="false"
     inkscape:pagecheckerboard="false"
     inkscape:zoom="7.8223688"
     inkscape:cx="26.079057"
     inkscape:cy="37.00925"
     inkscape:window-x="0"
     inkscape:window-y="0"
     inkscape:window-maximized="1"
     inkscape:current-layer="svg2"
     inkscape:document-rotation="0"
     inkscape:showpageshadow="2"
     inkscape:deskcolor="#d1d1d1" /><metadata
     id="metadata8"><rdf:RDF><cc:Work
         rdf:about=""><dc:format>image/svg+xml</dc:format><dc:type
           rdf:resource="http://purl.org/dc/dcmitype/StillImage" /></cc:Work></rdf:RDF></metadata><defs
     id="defs6"><clipPath
       id="clipPath18"
       clipPathUnits="userSpaceOnUse"><path
         id="path16"
         d="M 0,256 H 256 V 0 H 0 Z" /></clipPath><clipPath
       id="clipPath26"
       clipPathUnits="userSpaceOnUse"><path
         id="path24"
         d="M 76,192 H 180 V 64 H 76 Z" /></clipPath></defs><g
     id="g36"
     transform="matrix(0.53571428,0,0,-0.53571428,38.734464,2.0000003)"
     style="fill:#eee8d5;fill-opacity:1;stroke:none;stroke-width:4.97840005;stroke-miterlimit:4;stroke-dasharray:none;stroke-opacity:1"><path
       inkscape:connector-curvature="0"
       d="m 0,0 h -50.286 c -3.473,0 -6.285,-2.784 -6.285,-6.222 v -99.556 c 0,-3.438 2.812,-6.222 6.285,-6.222 h 75.429 c 3.473,0 6.286,2.784 6.286,6.222 v 74.667 z"
       style="fill:#eee8d5;fill-opacity:1;fill-rule:nonzero;stroke:none;stroke-width:4.97840005;stroke-miterlimit:4;stroke-dasharray:none;stroke-opacity:1"
       id="path38" /></g><g
     id="g841"
     transform="matrix(0.53571428,0,0,-0.53571428,38.734464,2.0000003)"
     style="fill:none;fill-opacity:1;stroke:#073642;stroke-width:3.73333;stroke-miterlimit:4;stroke-dasharray:none;stroke-opacity:1"><path
       inkscape:connector-curvature="0"
       d="m 0,0 h -50.286 c -3.473,0 -6.285,-2.784 -6.285,-6.222 v -99.556 c 0,-3.438 2.812,-6.222 6.285,-6.222 h 75.429 c 3.473,0 6.286,2.784 6.286,6.222 v 74.667 z"
       style="fill:none;fill-opacity:1;fill-rule:nonzero;stroke:#073642;stroke-width:3.73333;stroke-miterlimit:4;stroke-dasharray:none;stroke-opacity:1"
       id="path839" /></g><path
     inkscape:connector-curvature="0"
     d="m 42.131097,18.599046 c -1.876627,0 -3.39661,-1.053748 -3.39661,-2.940357 V 1.9999767 L 55.414488,18.599046 Z"
     style="fill:#fdf6e3;fill-opacity:1;fill-rule:nonzero;stroke:#073642;stroke-width:2;stroke-linejoin:round;stroke-miterlimit:4;stroke-dasharray:none;stroke-opacity:1"
     id="path838"
     sodipodi:nodetypes="ccccc" /><g
     id="g1"
     transform="matrix(0.46644166,-0.70831408,0.46803853,0.70589742,4.034721,44.33058)"
     style="stroke-width:1.23019"><g
       id="path12"
       style="opacity:1;fill:#cb4b16" /><path
       id="rect11"
       style="fill:#073642;stroke:#073642;stroke-width:0.391525;stroke-linecap:round;stroke-linejoin:bevel;paint-order:markers stroke fill"
       d="m 29.856851,32.316401 c -0.411929,-0.08487 -2.607454,-0.359766 -2.792425,-0.118041 l -7.596498,2.183783 9.180722,5.640492 c 0.303218,0.342303 2.573735,0.987571 2.985663,1.072443 l 19.149309,3.94544 -1.870189,-8.782056 -0.0036,-0.01641 z m 21.15282,4.358232 1.870242,8.782321 c 0.0012,0.0054 0.0023,0.01087 0.0035,0.01631 l 3.340398,0.688244 c 0.738329,0.15212 1.21229,-0.320222 1.062694,-1.059069 l -1.2374,-6.111368 c -0.1496,-0.73884 -0.864429,-1.456116 -1.602754,-1.608244 z"
       sodipodi:nodetypes="scccscccscccssssc" /><rect
       style="fill:#6c71c4;fill-opacity:1;stroke:none;stroke-width:6.98797;stroke-linecap:round;stroke-linejoin:round;stroke-miterlimit:4;stroke-dasharray:none;stroke-opacity:1;paint-order:normal"
       id="rect20"
       width="19.23945"
       height="7.6957803"
       x="24.324377"
       y="28.349697"
       transform="matrix(0.97942741,0.20179678,0.19844823,0.98011137,0,0)" /><g
       id="path14"
       transform="matrix(0.04303704,-0.08165666,0.08143808,0.1069941,-20.946208,-38.424796)"><path
         style="baseline-shift:baseline;display:inline;overflow:visible;vector-effect:none;fill:#eee8d5;stroke-linecap:round;stroke-linejoin:round;enable-background:accumulate;stop-color:#000000;stop-opacity:1"
         d="m -124.91992,589.39258 68.761717,36.5332 -32.464844,32.35156 z"
         id="path18"
         sodipodi:nodetypes="cccc" /></g><path
       style="fill:#073642;fill-opacity:1;stroke:#073642;stroke-width:0.783051;stroke-linecap:butt;stroke-linejoin:round;stroke-miterlimit:4;stroke-dasharray:none;stroke-opacity:1;paint-order:markers stroke fill"
       d="m 19.467958,34.382144 5.096253,2.897518 -0.78072,-3.855876 z"
       id="path15"
       sodipodi:nodetypes="cccc" /><path
       style="fill:#eee8d5;fill-opacity:1;stroke:#eee8d5;stroke-width:0.783051;stroke-linecap:round;stroke-linejoin:round;stroke-miterlimit:4;stroke-dasharray:none;stroke-opacity:1;paint-order:normal"
       d="m 31.863572,34.527094 14.424906,2.97204"
       id="path19" /><rect
       style="fill:#586e75;fill-opacity:1;stroke:none;stroke-width:0.833759;stroke-linecap:round;stroke-linejoin:round;stroke-miterlimit:4;stroke-dasharray:none;stroke-opacity:1;paint-order:normal"
       id="rect19"
       width="2.1438456"
       height="9.8652973"
       x="44.341919"
       y="27.403435"
       transform="matrix(0.97942741,0.2017968,0.19844822,0.98011137,0,0)" /></g><path
     style="fill:none;fill-opacity:1;stroke:#073642;stroke-width:1.99999819;stroke-linecap:round;stroke-linejoin:miter;stroke-miterlimit:4;stroke-dasharray:none;stroke-opacity:1"
     d="M 16.717955,26.947626 H 34.305643"
     id="path837" /><path
     style="fill:none;fill-opacity:1;stroke:#073642;stroke-width:1.99999819;stroke-linecap:round;stroke-linejoin:miter;stroke-miterlimit:4;stroke-dasharray:none;stroke-opacity:1"
     d="M 16.717955,32.774906 H 34.305643"
     id="path837-0" /><path
     style="fill:none;fill-opacity:1;stroke:#073642;stroke-width:1.99999819;stroke-linecap:round;stroke-linejoin:miter;stroke-miterlimit:4;stroke-dasharray:none;stroke-opacity:1"
     d="M 16.717955,38.602186 H 30.384662"
     id="path837-0-2" /></svg>
