<?xml version="1.0" encoding="UTF-8" standalone="no"?>
<svg
   xmlns:dc="http://purl.org/dc/elements/1.1/"
   xmlns:cc="http://creativecommons.org/ns#"
   xmlns:rdf="http://www.w3.org/1999/02/22-rdf-syntax-ns#"
   xmlns:svg="http://www.w3.org/2000/svg"
   xmlns="http://www.w3.org/2000/svg"
   xmlns:sodipodi="http://sodipodi.sourceforge.net/DTD/sodipodi-0.dtd"
   xmlns:inkscape="http://www.inkscape.org/namespaces/inkscape"
   viewBox="0 0 64 64"
   role="img"
   aria-hidden="true"
   class="v-icon__svg"
   style="color:#ff0000"
   version="1.1"
   id="svg4"
   width="64"
   height="64"
   sodipodi:docname="emergency.svg"
   inkscape:version="1.0.2 (e86c870879, 2021-01-15, custom)">
  <sodipodi:namedview
     pagecolor="#ffffff"
     bordercolor="#666666"
     borderopacity="1"
     objecttolerance="10"
     gridtolerance="10"
     guidetolerance="10"
     inkscape:pageopacity="0"
     inkscape:pageshadow="2"
     inkscape:window-width="1600"
     inkscape:window-height="837"
     id="namedview6"
     showgrid="false"
     inkscape:zoom="5.4305801"
     inkscape:cx="32.60233"
     inkscape:cy="41.792032"
     inkscape:window-x="-8"
     inkscape:window-y="-8"
     inkscape:window-maximized="1"
     inkscape:current-layer="svg4"
     inkscape:document-rotation="0" />
  <metadata
     id="metadata10">
    <rdf:RDF>
      <cc:Work
         rdf:about="">
        <dc:format>image/svg+xml</dc:format>
        <dc:type
           rdf:resource="http://purl.org/dc/dcmitype/StillImage" />
        <dc:title></dc:title>
      </cc:Work>
    </rdf:RDF>
  </metadata>
  <defs
     id="defs8" />
  <g
     id="g838"
     transform="translate(2,2)">
    <path
       style="fill:#dc322f;fill-opacity:1;stroke-width:1"
       d="M 30,7.5 C 17.573593,7.5 7.5,17.573593 7.5,30 7.5,42.426407 17.573593,52.5 30,52.5 42.426407,52.5 52.5,42.426407 52.5,30 52.5,17.573593 42.426407,7.5 30,7.5 M 51.25,51.25 C 56.65,45.775 60,38.275 60,30 60,21.725 56.65,14.225 51.25,8.75 l -2.7,2.7 c 4.75,4.8 7.7,11.325 7.7,18.55 0,7.25 -2.95,13.75 -7.7,18.55 l 2.7,2.7 m -39.8,-2.7 C 6.7,43.75 3.75,37.25 3.75,30 3.75,22.775 6.7,16.25 11.45,11.45 L 8.75,8.75 C 3.35,14.225 0,21.725 0,30 0,38.275 3.35,45.775 8.75,51.25 Z"
       id="path2"
       sodipodi:nodetypes="csssccsccscccsccscc" />
    <g
       id="g837"
       transform="translate(0,2)">
      <path
         style="fill:#fdf6e3;fill-opacity:1;stroke:#fdf6e3;stroke-width:2;stroke-linecap:round;stroke-linejoin:round;stroke-miterlimit:4;stroke-dasharray:none;stroke-opacity:1"
         d="m 27,13 h 6 V 31 H 27 V 13"
         id="path833"
         sodipodi:nodetypes="ccccc" />
      <path
         style="fill:#fdf6e3;fill-opacity:1;stroke:#fdf6e3;stroke-width:2;stroke-linecap:round;stroke-linejoin:round;stroke-miterlimit:4;stroke-dasharray:none;stroke-opacity:1"
         d="m 27,37 h 6 v 6 h -6 v -6"
         id="path831"
         sodipodi:nodetypes="ccccc" />
    </g>
  </g>
</svg>
