<?xml version="1.0" encoding="UTF-8" standalone="no"?>
<svg
   width="64"
   height="64"
   viewBox="0 0 64 64"
   version="1.1"
   id="svg57"
   sodipodi:docname="extruder-8.svg"
   inkscape:version="1.3 (0e150ed6c4, 2023-07-21)"
   xmlns:inkscape="http://www.inkscape.org/namespaces/inkscape"
   xmlns:sodipodi="http://sodipodi.sourceforge.net/DTD/sodipodi-0.dtd"
   xmlns="http://www.w3.org/2000/svg"
   xmlns:svg="http://www.w3.org/2000/svg"
   xmlns:rdf="http://www.w3.org/1999/02/22-rdf-syntax-ns#"
   xmlns:cc="http://creativecommons.org/ns#"
   xmlns:dc="http://purl.org/dc/elements/1.1/">
  <metadata
     id="metadata63">
    <rdf:RDF>
      <cc:Work
         rdf:about="">
        <dc:format>image/svg+xml</dc:format>
        <dc:type
           rdf:resource="http://purl.org/dc/dcmitype/StillImage" />
        <dc:title>extruder1</dc:title>
      </cc:Work>
    </rdf:RDF>
  </metadata>
  <defs
     id="defs61" />
  <sodipodi:namedview
     pagecolor="#073642"
     bordercolor="#666666"
     borderopacity="1"
     objecttolerance="10"
     gridtolerance="10"
     guidetolerance="10"
     inkscape:pageopacity="1"
     inkscape:pageshadow="2"
     inkscape:window-width="1600"
     inkscape:window-height="827"
     id="namedview59"
     showgrid="false"
     inkscape:pagecheckerboard="false"
     inkscape:snap-bbox="true"
     inkscape:snap-bbox-edge-midpoints="true"
     inkscape:zoom="10.86116"
     inkscape:cx="26.700647"
     inkscape:cy="12.567718"
     inkscape:window-x="0"
     inkscape:window-y="0"
     inkscape:window-maximized="1"
     inkscape:current-layer="svg57"
     inkscape:document-rotation="0"
     inkscape:showpageshadow="0"
     inkscape:deskcolor="#d1d1d1" />
  <!-- Generator: Sketch 52.5 (67469) - http://www.bohemiancoding.com/sketch -->
  <title
     id="title2">extruder1</title>
  <rect
     style="opacity:0.998;fill:#839496;fill-opacity:1;stroke:none;stroke-width:2;stroke-linecap:round;stroke-linejoin:round;stroke-miterlimit:4;stroke-dasharray:none;stop-color:#000000"
     id="rect1033"
     width="50"
     height="18"
     x="6.9999995"
     y="32.41787" />
  <rect
     style="opacity:0.998;fill:#93a1a1;fill-opacity:1;stroke:none;stroke-width:2;stroke-linecap:round;stroke-linejoin:round;stroke-miterlimit:4;stroke-dasharray:none;stop-color:#000000"
     id="rect1035"
     width="25"
     height="18"
     x="19.575544"
     y="32.41787" />
  <path
     style="fill:#586e75;fill-opacity:1;stroke:none;stroke-width:0.999995px;stroke-linecap:butt;stroke-linejoin:miter;stroke-opacity:1"
     d="m 19.5,50.41787 h 25 l -8.336909,10 h -8.326182 z"
     id="path1037"
     sodipodi:nodetypes="ccccc" />
  <rect
     style="opacity:0.998;fill:#657b83;fill-opacity:1;stroke:none;stroke-width:2;stroke-linecap:round;stroke-linejoin:round;stroke-miterlimit:4;stroke-dasharray:none;stop-color:#000000"
     id="rect1039"
     width="32"
     height="10"
     x="16.075544"
     y="22.417871" />
  <desc
     id="desc4">Created with Sketch.</desc>
  <rect
     style="opacity:0.998;fill:#586e75;fill-opacity:1;stroke:none;stroke-width:2;stroke-linecap:round;stroke-linejoin:round;stroke-miterlimit:4;stroke-dasharray:none;stop-color:#000000"
     id="rect1055"
     width="45"
     height="10"
     x="9.5755444"
     y="12.417871"
     ry="2"
     rx="2" />
  <rect
     style="opacity:0.998;fill:#586e75;fill-opacity:1;stroke:none;stroke-width:2;stroke-linecap:round;stroke-linejoin:round;stroke-miterlimit:4;stroke-dasharray:none;stop-color:#000000"
     id="rect1065"
     width="45"
     height="10"
     x="9.5755444"
     y="4.4178715" />
  <circle
     id="circle46"
     stroke="#000000"
     stroke-width="0.5"
     fill="#ffffff"
     cx="32"
     cy="15.75"
     style="fill-rule:evenodd;stroke:none;stroke-width:2;stroke-miterlimit:4;stroke-dasharray:none;fill:#eee8d5"
     r="15.75" />
  <g
     aria-label="3"
     id="1"
     style="font-weight:500;font-size:21.3333px;font-family:OpenSans-SemiBold, 'Open Sans';fill:#073642;fill-opacity:1;fill-rule:evenodd;stroke:#073642;stroke-width:2;stroke-miterlimit:4;stroke-dasharray:none;stroke-opacity:1"
     transform="translate(0,-16.25)" />
  <path
     d="m 39.268872,20.154291 q 0,2.835935 -1.8763,4.411454 -1.8763,1.561196 -5.356765,1.561196 -3.451819,0 -5.356764,-1.561196 -1.890623,-1.561197 -1.890623,-4.382808 0,-1.933591 1.117186,-3.251298 1.117186,-1.33203 2.993486,-1.647134 v -0.05729 q -1.63281,-0.358073 -2.635413,-1.618488 -1.002603,-1.260415 -1.002603,-2.907549 0,-2.4778616 1.747393,-3.9101516 1.761717,-1.43229 4.970047,-1.43229 3.279944,0 5.027338,1.4036442 1.761717,1.3893213 1.761717,3.9674434 0,1.647134 -1.002603,2.893226 -0.988281,1.246092 -2.66406,1.575519 v 0.05729 q 1.947915,0.315104 3.050778,1.604165 1.117186,1.274738 1.117186,3.294267 z m -4.64062,-9.209625 q 0,-1.4322895 -0.658853,-2.0911429 -0.658853,-0.6731764 -1.990883,-0.6731764 -2.606768,0 -2.606768,2.7643193 0,2.893226 2.635414,2.893226 1.317706,0 1.962237,-0.673176 0.658853,-0.673176 0.658853,-2.22005 z m 0.472656,8.880199 q 0,-3.165361 -3.151038,-3.165361 -1.460936,0 -2.248695,0.830728 -0.773437,0.830728 -0.773437,2.391924 0,1.77604 0.773437,2.592445 0.773436,0.816405 2.363278,0.816405 1.561196,0 2.291664,-0.816405 0.744791,-0.816405 0.744791,-2.649736 z"
     id="text1"
     style="font-weight:bold;font-size:29.3333px;line-height:1.25;font-family:'Liberation Sans';-inkscape-font-specification:'Liberation Sans Bold';fill:#073642;stroke-width:2"
     aria-label="8" />
</svg>
