<?xml version="1.0" encoding="UTF-8" standalone="no"?>
<svg
   width="64"
   height="64"
   viewBox="0 0 64 64"
   version="1.1"
   id="svg57"
   sodipodi:docname="extruder-3.svg"
   inkscape:version="1.3 (0e150ed6c4, 2023-07-21)"
   xmlns:inkscape="http://www.inkscape.org/namespaces/inkscape"
   xmlns:sodipodi="http://sodipodi.sourceforge.net/DTD/sodipodi-0.dtd"
   xmlns="http://www.w3.org/2000/svg"
   xmlns:svg="http://www.w3.org/2000/svg"
   xmlns:rdf="http://www.w3.org/1999/02/22-rdf-syntax-ns#"
   xmlns:cc="http://creativecommons.org/ns#"
   xmlns:dc="http://purl.org/dc/elements/1.1/">
  <metadata
     id="metadata63">
    <rdf:RDF>
      <cc:Work
         rdf:about="">
        <dc:format>image/svg+xml</dc:format>
        <dc:type
           rdf:resource="http://purl.org/dc/dcmitype/StillImage" />
        <dc:title>extruder1</dc:title>
      </cc:Work>
    </rdf:RDF>
  </metadata>
  <defs
     id="defs61" />
  <sodipodi:namedview
     pagecolor="#073642"
     bordercolor="#666666"
     borderopacity="1"
     objecttolerance="10"
     gridtolerance="10"
     guidetolerance="10"
     inkscape:pageopacity="1"
     inkscape:pageshadow="2"
     inkscape:window-width="1600"
     inkscape:window-height="827"
     id="namedview59"
     showgrid="false"
     inkscape:pagecheckerboard="false"
     inkscape:snap-bbox="true"
     inkscape:snap-bbox-edge-midpoints="true"
     inkscape:zoom="10.86116"
     inkscape:cx="30.107281"
     inkscape:cy="10.081796"
     inkscape:window-x="0"
     inkscape:window-y="0"
     inkscape:window-maximized="1"
     inkscape:current-layer="svg57"
     inkscape:document-rotation="0"
     inkscape:showpageshadow="0"
     inkscape:deskcolor="#d1d1d1" />
  <!-- Generator: Sketch 52.5 (67469) - http://www.bohemiancoding.com/sketch -->
  <title
     id="title2">extruder1</title>
  <rect
     style="opacity:0.998;fill:#839496;fill-opacity:1;stroke:none;stroke-width:2;stroke-linecap:round;stroke-linejoin:round;stroke-miterlimit:4;stroke-dasharray:none;stop-color:#000000"
     id="rect1033"
     width="50"
     height="18"
     x="6.9999995"
     y="32.41787" />
  <rect
     style="opacity:0.998;fill:#93a1a1;fill-opacity:1;stroke:none;stroke-width:2;stroke-linecap:round;stroke-linejoin:round;stroke-miterlimit:4;stroke-dasharray:none;stop-color:#000000"
     id="rect1035"
     width="25"
     height="18"
     x="19.575544"
     y="32.41787" />
  <path
     style="fill:#586e75;fill-opacity:1;stroke:none;stroke-width:0.999995px;stroke-linecap:butt;stroke-linejoin:miter;stroke-opacity:1"
     d="m 19.5,50.41787 h 25 l -8.336909,10 h -8.326182 z"
     id="path1037"
     sodipodi:nodetypes="ccccc" />
  <rect
     style="opacity:0.998;fill:#657b83;fill-opacity:1;stroke:none;stroke-width:2;stroke-linecap:round;stroke-linejoin:round;stroke-miterlimit:4;stroke-dasharray:none;stop-color:#000000"
     id="rect1039"
     width="32"
     height="10"
     x="16.075544"
     y="22.417871" />
  <desc
     id="desc4">Created with Sketch.</desc>
  <rect
     style="opacity:0.998;fill:#586e75;fill-opacity:1;stroke:none;stroke-width:2;stroke-linecap:round;stroke-linejoin:round;stroke-miterlimit:4;stroke-dasharray:none;stop-color:#000000"
     id="rect1055"
     width="45"
     height="10"
     x="9.5755444"
     y="12.417871"
     ry="2"
     rx="2" />
  <rect
     style="opacity:0.998;fill:#586e75;fill-opacity:1;stroke:none;stroke-width:2;stroke-linecap:round;stroke-linejoin:round;stroke-miterlimit:4;stroke-dasharray:none;stop-color:#000000"
     id="rect1065"
     width="45"
     height="10"
     x="9.5755444"
     y="4.4178715" />
  <circle
     id="circle46"
     stroke="#000000"
     stroke-width="0.5"
     fill="#ffffff"
     cx="32"
     cy="15.75"
     style="fill-rule:evenodd;stroke:none;stroke-width:2;stroke-miterlimit:4;stroke-dasharray:none;fill:#eee8d5"
     r="15.75" />
  <g
     aria-label="3"
     id="1"
     style="font-weight:500;font-size:21.3333px;font-family:OpenSans-SemiBold, 'Open Sans';fill:#073642;fill-opacity:1;fill-rule:evenodd;stroke:#073642;stroke-width:2;stroke-miterlimit:4;stroke-dasharray:none;stroke-opacity:1"
     transform="translate(0,-16.25)" />
  <path
     d="m 39.290355,20.225906 q 0,2.835935 -1.861977,4.382808 -1.861977,1.546873 -5.299473,1.546873 -3.251298,0 -5.170567,-1.489581 -1.919268,-1.503905 -2.248695,-4.325516 l 4.096349,-0.358073 q 0.386719,2.907549 3.30859,2.907549 1.446613,0 2.248696,-0.716145 0.802082,-0.716145 0.802082,-2.191404 0,-1.346352 -0.973957,-2.062497 -0.973957,-0.716145 -2.893226,-0.716145 h -1.403644 v -3.251299 h 1.317707 q 1.733071,0 2.606767,-0.701822 0.873697,-0.716145 0.873697,-2.033852 0,-1.2460921 -0.701822,-1.9479142 -0.687499,-0.716145 -2.019529,-0.716145 -1.246092,0 -2.019529,0.6874992 -0.759113,0.6874992 -0.873697,1.947914 l -4.024734,-0.286458 q 0.315103,-2.6067674 2.162757,-4.0820262 1.847655,-1.4752587 4.826818,-1.4752587 3.165361,0 4.9414,1.43229 1.790363,1.4179672 1.790363,3.9387979 0,1.890623 -1.117186,3.108069 -1.102864,1.217447 -3.194007,1.618488 v 0.05729 q 2.32031,0.272135 3.566402,1.532551 1.260415,1.246092 1.260415,3.194006 z"
     id="text1"
     style="font-weight:bold;font-size:29.3333px;line-height:1.25;font-family:'Liberation Sans';-inkscape-font-specification:'Liberation Sans Bold';fill:#073642;stroke-width:2"
     aria-label="3" />
</svg>
