<?xml version="1.0" encoding="UTF-8" standalone="no"?>
<svg
   width="64"
   height="64"
   viewBox="0 0 64 64"
   version="1.1"
   id="svg57"
   sodipodi:docname="extruder-10.svg"
   inkscape:version="1.3 (0e150ed6c4, 2023-07-21)"
   xmlns:inkscape="http://www.inkscape.org/namespaces/inkscape"
   xmlns:sodipodi="http://sodipodi.sourceforge.net/DTD/sodipodi-0.dtd"
   xmlns="http://www.w3.org/2000/svg"
   xmlns:svg="http://www.w3.org/2000/svg"
   xmlns:rdf="http://www.w3.org/1999/02/22-rdf-syntax-ns#"
   xmlns:cc="http://creativecommons.org/ns#"
   xmlns:dc="http://purl.org/dc/elements/1.1/">
  <metadata
     id="metadata63">
    <rdf:RDF>
      <cc:Work
         rdf:about="">
        <dc:format>image/svg+xml</dc:format>
        <dc:type
           rdf:resource="http://purl.org/dc/dcmitype/StillImage" />
        <dc:title>extruder1</dc:title>
      </cc:Work>
    </rdf:RDF>
  </metadata>
  <defs
     id="defs61" />
  <sodipodi:namedview
     pagecolor="#073642"
     bordercolor="#666666"
     borderopacity="1"
     objecttolerance="10"
     gridtolerance="10"
     guidetolerance="10"
     inkscape:pageopacity="1"
     inkscape:pageshadow="2"
     inkscape:window-width="1600"
     inkscape:window-height="827"
     id="namedview59"
     showgrid="false"
     inkscape:pagecheckerboard="false"
     inkscape:snap-bbox="true"
     inkscape:snap-bbox-edge-midpoints="true"
     inkscape:zoom="10.86116"
     inkscape:cx="26.700647"
     inkscape:cy="12.567718"
     inkscape:window-x="0"
     inkscape:window-y="0"
     inkscape:window-maximized="1"
     inkscape:current-layer="svg57"
     inkscape:document-rotation="0"
     inkscape:showpageshadow="0"
     inkscape:deskcolor="#d1d1d1" />
  <!-- Generator: Sketch 52.5 (67469) - http://www.bohemiancoding.com/sketch -->
  <title
     id="title2">extruder1</title>
  <rect
     style="opacity:0.998;fill:#839496;fill-opacity:1;stroke:none;stroke-width:2;stroke-linecap:round;stroke-linejoin:round;stroke-miterlimit:4;stroke-dasharray:none;stop-color:#000000"
     id="rect1033"
     width="50"
     height="18"
     x="6.9999995"
     y="32.41787" />
  <rect
     style="opacity:0.998;fill:#93a1a1;fill-opacity:1;stroke:none;stroke-width:2;stroke-linecap:round;stroke-linejoin:round;stroke-miterlimit:4;stroke-dasharray:none;stop-color:#000000"
     id="rect1035"
     width="25"
     height="18"
     x="19.575544"
     y="32.41787" />
  <path
     style="fill:#586e75;fill-opacity:1;stroke:none;stroke-width:0.999995px;stroke-linecap:butt;stroke-linejoin:miter;stroke-opacity:1"
     d="m 19.5,50.41787 h 25 l -8.336909,10 h -8.326182 z"
     id="path1037"
     sodipodi:nodetypes="ccccc" />
  <rect
     style="opacity:0.998;fill:#657b83;fill-opacity:1;stroke:none;stroke-width:2;stroke-linecap:round;stroke-linejoin:round;stroke-miterlimit:4;stroke-dasharray:none;stop-color:#000000"
     id="rect1039"
     width="32"
     height="10"
     x="16.075544"
     y="22.417871" />
  <desc
     id="desc4">Created with Sketch.</desc>
  <rect
     style="opacity:0.998;fill:#586e75;fill-opacity:1;stroke:none;stroke-width:2;stroke-linecap:round;stroke-linejoin:round;stroke-miterlimit:4;stroke-dasharray:none;stop-color:#000000"
     id="rect1055"
     width="45"
     height="10"
     x="9.5755444"
     y="12.417871"
     ry="2"
     rx="2" />
  <rect
     style="opacity:0.998;fill:#586e75;fill-opacity:1;stroke:none;stroke-width:2;stroke-linecap:round;stroke-linejoin:round;stroke-miterlimit:4;stroke-dasharray:none;stop-color:#000000"
     id="rect1065"
     width="45"
     height="10"
     x="9.5755444"
     y="4.4178715" />
  <circle
     id="circle46"
     stroke="#000000"
     stroke-width="0.5"
     fill="#ffffff"
     cx="32"
     cy="15.75"
     style="fill-rule:evenodd;stroke:none;stroke-width:2;stroke-miterlimit:4;stroke-dasharray:none;fill:#eee8d5"
     r="15.75" />
  <g
     aria-label="3"
     id="1"
     style="font-weight:500;font-size:21.3333px;font-family:OpenSans-SemiBold, 'Open Sans';fill:#073642;fill-opacity:1;fill-rule:evenodd;stroke:#073642;stroke-width:2;stroke-miterlimit:4;stroke-dasharray:none;stroke-opacity:1"
     transform="translate(0,-16.25)" />
  <path
     d="M 19.900391,24.011719 V 21.5625 h 4.089843 V 10.300781 l -3.960937,2.472657 V 10.183594 L 24.166016,7.5 h 3.117187 v 14.0625 h 3.785156 v 2.449219 z M 44.099609,15.75 q 0,4.183594 -1.441406,6.339844 -1.429687,2.15625 -4.300781,2.15625 -5.671875,0 -5.671875,-8.496094 0,-2.964844 0.621094,-4.839844 0.621093,-1.8749997 1.863281,-2.7656247 1.242187,-0.8906251 3.28125,-0.8906251 2.929687,0 4.289062,2.1210938 1.359375,2.121094 1.359375,6.375 z m -3.304687,0 q 0,-2.285156 -0.222656,-3.550781 -0.222657,-1.265625 -0.714844,-1.816406 -0.492188,-0.5507817 -1.429688,-0.5507817 -0.996093,0 -1.511718,0.5624997 -0.503907,0.550782 -0.726563,1.816407 -0.210937,1.253906 -0.210937,3.539062 0,2.261719 0.222656,3.539062 0.234375,1.265625 0.726562,1.816407 0.503907,0.550781 1.453125,0.550781 0.9375,0 1.441407,-0.574219 0.515625,-0.585937 0.738281,-1.863281 0.234375,-1.277344 0.234375,-3.46875 z"
     id="text1"
     style="font-weight:bold;font-size:24px;line-height:1.25;font-family:'Liberation Sans';-inkscape-font-specification:'Liberation Sans Bold';fill:#073642;stroke-width:2"
     aria-label="10" />
</svg>
