<?xml version="1.0" encoding="UTF-8" standalone="no"?>
<svg
   width="64"
   height="64"
   viewBox="0 0 63.999997 64"
   id="svg4160"
   version="1.1"
   sodipodi:docname="fan.svg"
   inkscape:version="1.1 (c4e8f9ed74, 2021-05-24)"
   xmlns:inkscape="http://www.inkscape.org/namespaces/inkscape"
   xmlns:sodipodi="http://sodipodi.sourceforge.net/DTD/sodipodi-0.dtd"
   xmlns="http://www.w3.org/2000/svg"
   xmlns:svg="http://www.w3.org/2000/svg"
   xmlns:rdf="http://www.w3.org/1999/02/22-rdf-syntax-ns#"
   xmlns:cc="http://creativecommons.org/ns#"
   xmlns:dc="http://purl.org/dc/elements/1.1/">
  <sodipodi:namedview
     pagecolor="#002b36"
     bordercolor="#666666"
     borderopacity="1"
     objecttolerance="10"
     gridtolerance="10"
     guidetolerance="10"
     inkscape:pageopacity="1"
     inkscape:pageshadow="2"
     inkscape:window-width="1600"
     inkscape:window-height="826"
     id="namedview8"
     showgrid="false"
     inkscape:zoom="9.296875"
     inkscape:cx="31.946218"
     inkscape:cy="32"
     inkscape:window-x="0"
     inkscape:window-y="0"
     inkscape:window-maximized="1"
     inkscape:current-layer="path4929-5"
     inkscape:pagecheckerboard="false"
     inkscape:document-rotation="0" />
  <defs
     id="defs4162">
    <filter
       inkscape:collect="always"
       style="color-interpolation-filters:sRGB"
       id="filter886"
       x="-0.044613594"
       width="1.0892272"
       y="-0.044703876"
       height="1.0894078">
      <feGaussianBlur
         inkscape:collect="always"
         stdDeviation="0.84158155"
         id="feGaussianBlur888" />
    </filter>
  </defs>
  <metadata
     id="metadata4165">
    <rdf:RDF>
      <cc:Work
         rdf:about="">
        <dc:format>image/svg+xml</dc:format>
        <dc:type
           rdf:resource="http://purl.org/dc/dcmitype/StillImage" />
      </cc:Work>
    </rdf:RDF>
  </metadata>
  <g
     id="g838"
     style="display:inline;fill:#eee8d5;fill-opacity:1;stroke-width:0.819924;filter:url(#filter886)"
     transform="matrix(0.79634971,0.92373952,-0.92381057,0.79628846,31.174178,-24.50183)">
    <g
       id="g836"
       transform="translate(3.5328446,-2.2636422)"
       style="opacity:1;fill:#eee8d5;fill-opacity:1;stroke-width:0.819924" />
  </g>
  <g
     id="layer10"
     style="display:inline;stroke-width:0.819924;opacity:0.999;"
     transform="matrix(1.2196716,0,0,1.2195778,-11.338425,-4.2658026)">
    <g
       id="path4929-5"
       transform="translate(3.5328446,-2.2636422)"
       style="opacity:1;stroke-width:0.819924">
      <path
         id="path855"
         style="color:#000000;font-style:normal;font-variant:normal;font-weight:normal;font-stretch:normal;font-size:medium;line-height:normal;font-family:sans-serif;font-variant-ligatures:normal;font-variant-position:normal;font-variant-caps:normal;font-variant-numeric:normal;font-variant-alternates:normal;font-variant-east-asian:normal;font-feature-settings:normal;font-variation-settings:normal;text-indent:0;text-align:start;text-decoration:none;text-decoration-line:none;text-decoration-style:solid;text-decoration-color:#000000;letter-spacing:normal;word-spacing:normal;text-transform:none;writing-mode:lr-tb;direction:ltr;text-orientation:mixed;dominant-baseline:auto;baseline-shift:baseline;text-anchor:start;white-space:normal;shape-padding:0;shape-margin:0;inline-size:0;clip-rule:nonzero;display:inline;overflow:visible;visibility:visible;isolation:auto;mix-blend-mode:normal;color-interpolation:sRGB;color-interpolation-filters:linearRGB;solid-color:#000000;solid-opacity:1;vector-effect:none;fill:#eee8d5;fill-opacity:1;fill-rule:evenodd;stroke:none;stroke-width:0.819924px;stroke-linecap:butt;stroke-linejoin:miter;stroke-miterlimit:4;stroke-dasharray:none;stroke-dashoffset:0;stroke-opacity:1;color-rendering:auto;image-rendering:auto;shape-rendering:auto;text-rendering:auto;enable-background:accumulate;stop-color:#000000;stop-opacity:1"
         d="m 31.321533,9.3302194 c -1.084974,0.00232 -3.080078,0.2324219 -3.080078,0.2324219 l -0.953126,0.1074219 0.634766,0.7187498 c 0,0 1.159095,1.330019 1.558594,1.970703 0.422354,0.677318 0.768458,1.414945 1.039062,2.173828 0.338345,0.948847 0.534959,1.970589 0.728516,3.009766 0.03949,0.21202 0.01264,0.538213 0.0098,0.910156 -0.0029,0.371943 0.02669,0.832571 0.341796,1.224609 0.190595,0.237125 0.483073,0.401966 0.732422,0.597657 -0.128464,-0.0043 -0.252197,-0.05065 -0.380859,-0.05078 -1.61878,4.29e-4 -3.161263,0.447122 -4.628906,1.083985 0.27206,-0.352112 0.960937,-1.144532 0.960937,-1.144532 l 0.212891,-0.296874 -0.21875,-0.292969 c 0,0 -1.783599,-2.421674 -3.017578,-3.511719 -1.127973,-0.9964 -2.358257,-2.428155 -4.132813,-2.6875 -0.97602,-0.142642 -1.818756,0.358363 -2.484375,0.714844 -1.450632,0.776914 -2.692864,1.894472 -3.761719,3.08789 -1.146637,1.280263 -1.962857,2.780714 -2.755859,4.216797 -0.524682,0.950194 -1.291015,2.808594 -1.291015,2.808594 l -0.369141,0.886719 0.9375,-0.207032 c 0,0 1.724859,-0.367858 2.478515,-0.40625 0.797732,-0.04064 1.610008,0.01299 2.404297,0.144532 0.993815,0.164595 1.983786,0.487236 2.986329,0.822265 0.204686,0.0684 0.475438,0.24892 0.798828,0.431641 0.323389,0.182721 0.741028,0.380137 1.236328,0.294922 0.315639,-0.0543 0.607622,-0.316654 0.916015,-0.449219 -0.966732,1.516294 -1.577583,3.181758 -1.765625,4.972656 -0.11697,-0.311424 -0.398437,-1.291015 -0.398437,-1.291015 l -0.138672,-0.337891 -0.365234,0.0293 c 0,0 -2.999081,0.223157 -4.578125,0.689453 -1.443358,0.426224 -3.31014,0.708604 -4.472657,2.074219 -0.6392756,0.750961 -0.6612889,1.732697 -0.7128906,2.486328 -0.1121512,1.641179 0.1742004,3.287323 0.6171876,4.826172 0.475447,1.651591 1.312108,3.139461 2.107422,4.574219 0.526128,0.949113 1.691406,2.585937 1.691406,2.585937 l 0.554688,0.783203 0.324219,-0.904297 c 0,0 0.606591,-1.65727 0.974609,-2.316406 0.389238,-0.697176 0.864632,-1.353598 1.398438,-1.957031 0.66766,-0.754755 1.467,-1.422616 2.283203,-2.09375 0.166546,-0.136947 0.46407,-0.272289 0.791015,-0.449219 0.326946,-0.17693 0.717125,-0.425437 0.908203,-0.890625 0.165879,-0.403849 0.18401,-0.881832 0.226563,-1.347656 0.936138,1.799715 2.271117,3.271194 3.943359,4.359375 -0.646858,-0.0984 -1.765625,-0.310547 -1.765625,-0.310547 l -0.361362,-0.03516 -0.146484,0.332031 c 0,0 -1.227383,2.745086 -1.56836,4.355469 -0.311621,1.472132 -0.95482,3.249534 -0.30664,4.921875 0.356539,0.919903 1.209541,1.404771 1.847656,1.808594 1.390486,0.879953 2.973992,1.411299 4.539062,1.753906 1.678984,0.367541 3.387087,0.339252 5.027344,0.322265 1.085085,-0.01124 3.080078,-0.257812 3.080078,-0.257812 l 0.953125,-0.115235 -0.640625,-0.714843 c 0,0 -1.171402,-1.321578 -1.576172,-1.958985 -0.42838,-0.674569 -0.782006,-1.406146 -1.058593,-2.162109 -0.346128,-0.946002 -0.551812,-1.966346 -0.753907,-3.003906 -0.04123,-0.211654 -0.01547,-0.538167 -0.01562,-0.910157 -1.55e-4,-0.371988 -0.03516,-0.833184 -0.353516,-1.222656 -0.323119,-0.395302 -0.865364,-0.636585 -1.337891,-0.929687 0.266955,0.01821 0.506541,0.132842 0.777344,0.132812 1.732566,-1.91e-4 3.370331,-0.502518 4.916016,-1.224609 -0.303781,0.388207 -1.111329,1.275391 -1.111329,1.27539 l -0.21289,0.296876 0.216797,0.292968 c 0,0 1.774176,2.428523 3.003906,3.523438 1.124279,1.000988 2.34985,2.436858 4.123047,2.703125 0.975015,0.14641 1.820617,-0.350863 2.488281,-0.705078 1.453936,-0.771353 2.698216,-1.883336 3.771485,-3.072266 1.151406,-1.275479 1.976586,-2.771806 2.77539,-4.205078 0.528649,-0.948548 1.300781,-2.804688 1.300781,-2.804688 l 0.371094,-0.884765 -0.9375,0.203125 c 0,0 -1.726775,0.361054 -2.480469,0.396484 -0.797952,0.03751 -1.608529,-0.01766 -2.402343,-0.152344 -0.993231,-0.168508 -1.981226,-0.49503 -2.982422,-0.833984 -0.204453,-0.06922 -0.475507,-0.253365 -0.798828,-0.4375 -0.323322,-0.184135 -0.740384,-0.382146 -1.236329,-0.298828 -0.393878,0.06617 -0.772636,0.276842 -1.154296,0.460937 1.009256,-1.56138 1.665949,-3.26572 1.841796,-5.128906 0.217172,0.577656 0.56836,1.638672 0.56836,1.638672 l 0.144531,0.332031 0.361328,-0.0332 c 0,0 2.997181,-0.261552 4.570313,-0.748047 1.437561,-0.444593 3.300288,-0.750432 4.445312,-2.130859 0.629998,-0.759486 0.639636,-1.740525 0.681641,-2.494141 0.0915,-1.642956 -0.216828,-3.284507 -0.679688,-4.818359 -0.49647,-1.645242 -1.352329,-3.124182 -2.166015,-4.548828 -0.538338,-0.942548 -1.72461,-2.564453 -1.72461,-2.564453 l -0.564453,-0.775391 -0.3125,0.908203 c 0,0 -0.583806,1.66436 -0.943359,2.328125 -0.380742,0.702922 -0.847717,1.369141 -1.373047,1.978516 -0.657276,0.762441 -1.44947,1.436959 -2.257813,2.11914 -0.165157,0.139381 -0.46268,0.277409 -0.787109,0.458985 -0.324429,0.181576 -0.709556,0.437055 -0.894531,0.904297 -0.159817,0.403695 -0.09681,0.914234 -0.136719,1.378906 -0.810048,-1.663259 -1.93128,-3.139637 -3.431641,-4.259766 0.327164,0.04801 1.294922,0.263672 1.294922,0.263672 l 0.365235,0.04297 0.148437,-0.333985 c 0,0 1.25124,-2.73419 1.605469,-4.341796 0.323841,-1.469797 0.978103,-3.242445 0.34375,-4.919922 C 42.353539,12.386234 41.507278,11.8937 40.872314,11.484517 39.488961,10.59306 37.908948,10.048927 36.346923,9.6935017 34.671112,9.3121863 32.962006,9.3267228 31.321533,9.3302194 Z m 0.677734,16.7558596 c 3.374441,-6.2e-5 6.086346,2.649268 6.085938,5.914062 4.08e-4,3.264794 -2.711497,5.914124 -6.085938,5.914062 -3.374441,6.2e-5 -6.086345,-2.649268 -6.085938,-5.914062 -4.08e-4,-3.264794 2.711497,-5.914124 6.085938,-5.914062 z" />
    </g>
  </g>
</svg>
