<?xml version="1.0" encoding="UTF-8" standalone="no"?>
<svg
   viewBox="0 0 64 64"
   height="64"
   width="64"
   xml:space="preserve"
   id="svg2"
   version="1.1"
   sodipodi:docname="file.svg"
   inkscape:version="1.1 (c4e8f9ed74, 2021-05-24)"
   xmlns:inkscape="http://www.inkscape.org/namespaces/inkscape"
   xmlns:sodipodi="http://sodipodi.sourceforge.net/DTD/sodipodi-0.dtd"
   xmlns="http://www.w3.org/2000/svg"
   xmlns:svg="http://www.w3.org/2000/svg"
   xmlns:rdf="http://www.w3.org/1999/02/22-rdf-syntax-ns#"
   xmlns:cc="http://creativecommons.org/ns#"
   xmlns:dc="http://purl.org/dc/elements/1.1/"><sodipodi:namedview
     pagecolor="#002b36"
     bordercolor="#666666"
     borderopacity="1"
     objecttolerance="10"
     gridtolerance="10"
     guidetolerance="10"
     inkscape:pageopacity="1"
     inkscape:pageshadow="2"
     inkscape:window-width="1600"
     inkscape:window-height="826"
     id="namedview24"
     showgrid="false"
     inkscape:pagecheckerboard="false"
     inkscape:zoom="5.53125"
     inkscape:cx="14.644068"
     inkscape:cy="29.920904"
     inkscape:window-x="0"
     inkscape:window-y="0"
     inkscape:window-maximized="1"
     inkscape:current-layer="svg2"
     inkscape:document-rotation="0" /><metadata
     id="metadata8"><rdf:RDF><cc:Work
         rdf:about=""><dc:format>image/svg+xml</dc:format><dc:type
           rdf:resource="http://purl.org/dc/dcmitype/StillImage" /></cc:Work></rdf:RDF></metadata><defs
     id="defs6"><clipPath
       id="clipPath18"
       clipPathUnits="userSpaceOnUse"><path
         id="path16"
         d="M 0,256 H 256 V 0 H 0 Z" /></clipPath><clipPath
       id="clipPath26"
       clipPathUnits="userSpaceOnUse"><path
         id="path24"
         d="M 76,192 H 180 V 64 H 76 Z" /></clipPath></defs><g
     id="g36"
     transform="matrix(0.53571428,0,0,-0.53571428,38.734464,2.0000003)"
     style="fill:#eee8d5;fill-opacity:1;stroke:none;stroke-width:4.97840005;stroke-miterlimit:4;stroke-dasharray:none;stroke-opacity:1"><path
       inkscape:connector-curvature="0"
       d="m 0,0 h -50.286 c -3.473,0 -6.285,-2.784 -6.285,-6.222 v -99.556 c 0,-3.438 2.812,-6.222 6.285,-6.222 h 75.429 c 3.473,0 6.286,2.784 6.286,6.222 v 74.667 z"
       style="fill:#eee8d5;fill-opacity:1;fill-rule:nonzero;stroke:none;stroke-width:4.97840005;stroke-miterlimit:4;stroke-dasharray:none;stroke-opacity:1"
       id="path38" /></g><g
     id="g841"
     transform="matrix(0.53571428,0,0,-0.53571428,38.734464,2.0000003)"
     style="fill:none;fill-opacity:1;stroke:#073642;stroke-width:3.73333337;stroke-miterlimit:4;stroke-dasharray:none;stroke-opacity:1"><path
       inkscape:connector-curvature="0"
       d="m 0,0 h -50.286 c -3.473,0 -6.285,-2.784 -6.285,-6.222 v -99.556 c 0,-3.438 2.812,-6.222 6.285,-6.222 h 75.429 c 3.473,0 6.286,2.784 6.286,6.222 v 74.667 z"
       style="fill:none;fill-opacity:1;fill-rule:nonzero;stroke:#073642;stroke-width:3.73333337;stroke-miterlimit:4;stroke-dasharray:none;stroke-opacity:1"
       id="path839" /></g><g
     id="g876"
     transform="matrix(0.8,0,0,0.8,68.975066,26.727166)"
     style="stroke-width:1.25"><path
       style="fill:#586e75;stroke:none;stroke-width:1.25px;stroke-linecap:butt;stroke-linejoin:miter;stroke-opacity:1"
       d="m -46.218833,39.091043 v -25 L -24.568197,1.5910429 V 26.591043 Z"
       id="path859" /><path
       style="fill:#839496;stroke:none;stroke-width:1.25px;stroke-linecap:butt;stroke-linejoin:miter;stroke-opacity:1"
       d="m -46.218833,39.091043 v -25 L -67.869469,1.5910429 V 26.591043 Z"
       id="path861" /><path
       style="fill:#93a1a1;stroke:none;stroke-width:1.25px;stroke-linecap:butt;stroke-linejoin:miter;stroke-opacity:1"
       d="m -67.869463,1.5910428 21.65063,12.5000002 21.65063,-12.499999 -21.65063,-12.500001 z"
       id="path871" /></g><path
     inkscape:connector-curvature="0"
     d="m 42.118758,18.538853 c -1.869822,0 -3.384294,-1.049925 -3.384294,-2.929691 V 2.0000003 L 55.353987,18.538853 Z"
     style="fill:#fdf6e3;fill-opacity:1;fill-rule:nonzero;stroke:#073642;stroke-width:2;stroke-linejoin:round;stroke-miterlimit:4;stroke-dasharray:none;stroke-opacity:1"
     id="path838"
     sodipodi:nodetypes="ccccc" /></svg>
