<?xml version="1.0" encoding="UTF-8" standalone="no"?>
<svg
   xmlns:dc="http://purl.org/dc/elements/1.1/"
   xmlns:cc="http://creativecommons.org/ns#"
   xmlns:rdf="http://www.w3.org/1999/02/22-rdf-syntax-ns#"
   xmlns:svg="http://www.w3.org/2000/svg"
   xmlns="http://www.w3.org/2000/svg"
   xmlns:sodipodi="http://sodipodi.sourceforge.net/DTD/sodipodi-0.dtd"
   xmlns:inkscape="http://www.inkscape.org/namespaces/inkscape"
   viewBox="0 0 64 64"
   height="64"
   width="64"
   xml:space="preserve"
   id="svg2"
   version="1.1"
   sodipodi:docname="files.svg"
   inkscape:version="1.0.2 (e86c870879, 2021-01-15, custom)"><sodipodi:namedview
     pagecolor="#ffffff"
     bordercolor="#666666"
     borderopacity="1"
     objecttolerance="10"
     gridtolerance="10"
     guidetolerance="10"
     inkscape:pageopacity="0"
     inkscape:pageshadow="2"
     inkscape:window-width="1600"
     inkscape:window-height="837"
     id="namedview24"
     showgrid="false"
     inkscape:pagecheckerboard="true"
     inkscape:zoom="11.0625"
     inkscape:cx="33.287255"
     inkscape:cy="17.454669"
     inkscape:window-x="-8"
     inkscape:window-y="-8"
     inkscape:window-maximized="1"
     inkscape:current-layer="svg2"
     inkscape:document-rotation="0" /><metadata
     id="metadata8"><rdf:RDF><cc:Work
         rdf:about=""><dc:format>image/svg+xml</dc:format><dc:type
           rdf:resource="http://purl.org/dc/dcmitype/StillImage" /><dc:title></dc:title></cc:Work></rdf:RDF></metadata><defs
     id="defs6"><clipPath
       id="clipPath18"
       clipPathUnits="userSpaceOnUse"><path
         id="path16"
         d="M 0,256 H 256 V 0 H 0 Z" /></clipPath><clipPath
       id="clipPath26"
       clipPathUnits="userSpaceOnUse"><path
         id="path24"
         d="M 76,192 H 180 V 64 H 76 Z" /></clipPath></defs><path
     inkscape:connector-curvature="0"
     d="m 31.427357,14.712169 h -19.93797 c -1.377015,0 -2.4919489,1.109508 -2.4919489,2.479655 v 39.676081 c 0,1.370147 1.1149339,2.479655 2.4919489,2.479655 h 29.906955 c 1.377015,0 2.492345,-1.109508 2.492345,-2.479655 v -29.75706 z"
     style="fill:#eee8d5;fill-opacity:1;fill-rule:nonzero;stroke:none;stroke-width:2.667;stroke-miterlimit:4;stroke-dasharray:none;stroke-opacity:1"
     id="path38" /><path
     inkscape:connector-curvature="0"
     d="m 31.427357,14.712169 h -19.93797 c -1.377015,0 -2.4919489,1.109508 -2.4919489,2.479655 v 39.676081 c 0,1.370147 1.1149339,2.479655 2.4919489,2.479655 h 29.906955 c 1.377015,0 2.492345,-1.109508 2.492345,-2.479655 v -29.75706 z"
     style="fill:#fdf6e3;fill-opacity:1;fill-rule:nonzero;stroke:#002b36;stroke-width:2;stroke-miterlimit:4;stroke-dasharray:none;stroke-opacity:1"
     id="path839" /><path
     inkscape:connector-curvature="0"
     d="m 39.427357,4.7121683 h -19.93797 c -1.377015,0 -2.491949,1.1095083 -2.491949,2.4796554 V 46.867905 c 0,1.370147 1.114934,2.479655 2.491949,2.479655 h 29.906955 c 1.377015,0 2.492345,-1.109508 2.492345,-2.479655 V 17.110844 Z"
     style="fill:#eee8d5;fill-opacity:1;fill-rule:nonzero;stroke:none;stroke-width:2.667;stroke-miterlimit:4;stroke-dasharray:none;stroke-opacity:1"
     id="path851" /><path
     inkscape:connector-curvature="0"
     d="m 39.427357,4.7121683 h -19.93797 c -1.377015,0 -2.491949,1.1095083 -2.491949,2.4796554 V 46.867905 c 0,1.370147 1.114934,2.479655 2.491949,2.479655 h 29.906955 c 1.377015,0 2.492345,-1.109508 2.492345,-2.479655 V 17.110844 Z"
     style="fill:none;fill-opacity:1;fill-rule:nonzero;stroke:#002b36;stroke-width:2;stroke-miterlimit:4;stroke-dasharray:none;stroke-opacity:1"
     id="path855" /><path
     inkscape:connector-curvature="0"
     d="m 41.964903,17.110844 c -1.401994,0 -2.537546,-0.787097 -2.537546,-2.1963 V 4.7121683 l 12.46133,12.3986757 z"
     style="fill:#fdf6e3;fill-opacity:1;fill-rule:nonzero;stroke:#002b36;stroke-width:2;stroke-linejoin:round;stroke-miterlimit:4;stroke-dasharray:none;stroke-opacity:1"
     id="path859"
     sodipodi:nodetypes="ccccc" /><path
     inkscape:connector-curvature="0"
     d="m 41.964903,17.110844 c -1.401994,0 -2.537546,-0.787097 -2.537546,-2.1963 V 4.7121683 l 12.46133,12.3986757 z"
     style="fill:#fdf6e3;fill-opacity:1;fill-rule:nonzero;stroke:#002b36;stroke-width:2;stroke-linejoin:round;stroke-miterlimit:4;stroke-dasharray:none;stroke-opacity:1"
     id="path838"
     sodipodi:nodetypes="ccccc" /></svg>
