<?xml version="1.0" encoding="UTF-8" standalone="no"?>
<svg
   width="64"
   height="64"
   viewBox="0 0 63.999997 64"
   id="svg4160"
   version="1.1"
   sodipodi:docname="hashtag.svg"
   inkscape:version="1.1 (c4e8f9ed74, 2021-05-24)"
   xmlns:inkscape="http://www.inkscape.org/namespaces/inkscape"
   xmlns:sodipodi="http://sodipodi.sourceforge.net/DTD/sodipodi-0.dtd"
   xmlns="http://www.w3.org/2000/svg"
   xmlns:svg="http://www.w3.org/2000/svg"
   xmlns:rdf="http://www.w3.org/1999/02/22-rdf-syntax-ns#"
   xmlns:cc="http://creativecommons.org/ns#"
   xmlns:dc="http://purl.org/dc/elements/1.1/">
  <sodipodi:namedview
     pagecolor="#002b36"
     bordercolor="#666666"
     borderopacity="1"
     objecttolerance="10"
     gridtolerance="10"
     guidetolerance="10"
     inkscape:pageopacity="1"
     inkscape:pageshadow="2"
     inkscape:window-width="1600"
     inkscape:window-height="826"
     id="namedview13"
     showgrid="true"
     inkscape:zoom="7.4010511"
     inkscape:cx="25.266681"
     inkscape:cy="35.197703"
     inkscape:window-x="0"
     inkscape:window-y="0"
     inkscape:window-maximized="1"
     inkscape:current-layer="svg4160"
     inkscape:document-rotation="0"
     inkscape:pagecheckerboard="false" />
  <defs
     id="defs4162" />
  <metadata
     id="metadata4165">
    <rdf:RDF>
      <cc:Work
         rdf:about="">
        <dc:format>image/svg+xml</dc:format>
        <dc:type
           rdf:resource="http://purl.org/dc/dcmitype/StillImage" />
      </cc:Work>
    </rdf:RDF>
  </metadata>
  <path
     id="path861"
     style="opacity:0.998;fill:#eee8d5;fill-opacity:1;stroke:none;stroke-width:2.00002;stroke-linecap:round;stroke-linejoin:round;stroke-opacity:1"
     d="m 27.935547,3.890625 c -0.809269,0.087887 -1.855022,1.3617186 -2.496094,3.1230469 L 21.441406,18 h -8.907804 c -1.957465,0 -3.5332035,0.713211 -3.5332035,1.599609 v 4.800782 C 9.0003985,25.286788 10.57614,26 12.533602,26 h 5.995695 L 14.162109,38 H 6.5332031 C 4.5757386,38 3,38.713211 3,39.599609 v 4.800782 C 3,45.286788 4.5757413,46 6.5332031,46 H 11.25 l -3.0019531,8.25 c -0.7326523,2.012945 -0.6513007,3.876521 0.1816406,4.179688 l 4.5097655,1.642578 c 0.83294,0.303165 2.093521,-1.072996 2.826172,-3.085938 L 19.763672,46 h 14.28125 l -3.001953,8.25 c -0.732652,2.012945 -0.653255,3.876521 0.179687,4.179688 l 4.511719,1.642578 c 0.832941,0.303165 2.093521,-1.072997 2.826172,-3.085938 L 42.558594,46 h 8.907804 c 1.957466,0 3.533203,-0.713212 3.533203,-1.599609 V 39.599609 C 54.999601,38.713211 53.423864,38 51.466398,38 h -5.995695 l 4.367188,-12 h 7.628906 C 59.424263,26 61,25.286788 61,24.400391 V 19.599609 C 61,18.713211 59.424263,18 57.466797,18 H 52.75 l 3.001953,-8.25 c 0.732652,-2.012947 0.6513,-3.8765219 -0.181641,-4.1796875 L 51.060547,3.9277344 C 50.227606,3.6245685 48.967027,5.0007256 48.234375,7.0136719 L 44.236328,18 H 29.955078 L 32.957031,9.75 C 33.689684,7.7370534 33.610285,5.8734781 32.777344,5.5703125 L 28.265625,3.9277344 C 28.161507,3.8898386 28.051157,3.8780697 27.935547,3.890625 Z M 27.042969,26 h 14.28125 l -4.367188,12 h -14.28125 z"
     sodipodi:nodetypes="sccssssccssssccccccccccccssssccssssccccccccccsccccc" />
</svg>
