<?xml version="1.0" encoding="UTF-8" standalone="no"?>
<svg
   width="64"
   height="64"
   viewBox="0 0 63.999997 64"
   id="svg4160"
   version="1.1"
   sodipodi:docname="home-x.svg"
   inkscape:version="1.1 (c4e8f9ed74, 2021-05-24)"
   xmlns:inkscape="http://www.inkscape.org/namespaces/inkscape"
   xmlns:sodipodi="http://sodipodi.sourceforge.net/DTD/sodipodi-0.dtd"
   xmlns="http://www.w3.org/2000/svg"
   xmlns:svg="http://www.w3.org/2000/svg"
   xmlns:rdf="http://www.w3.org/1999/02/22-rdf-syntax-ns#"
   xmlns:cc="http://creativecommons.org/ns#"
   xmlns:dc="http://purl.org/dc/elements/1.1/">
  <sodipodi:namedview
     pagecolor="#002b36"
     bordercolor="#666666"
     borderopacity="1"
     objecttolerance="10"
     gridtolerance="10"
     guidetolerance="10"
     inkscape:pageopacity="1"
     inkscape:pageshadow="2"
     inkscape:window-width="1600"
     inkscape:window-height="826"
     id="namedview8"
     showgrid="false"
     inkscape:zoom="7.4010512"
     inkscape:cx="29.725507"
     inkscape:cy="33.576311"
     inkscape:window-x="0"
     inkscape:window-y="0"
     inkscape:window-maximized="1"
     inkscape:current-layer="layer2"
     inkscape:document-rotation="0"
     inkscape:pagecheckerboard="false">
    <inkscape:grid
       type="xygrid"
       id="grid832" />
  </sodipodi:namedview>
  <defs
     id="defs4162" />
  <metadata
     id="metadata4165">
    <rdf:RDF>
      <cc:Work
         rdf:about="">
        <dc:format>image/svg+xml</dc:format>
        <dc:type
           rdf:resource="http://purl.org/dc/dcmitype/StillImage" />
      </cc:Work>
    </rdf:RDF>
  </metadata>
  <g
     id="layer2"
     style="display:inline;stroke:none"
     transform="translate(-3.5328446,2.2636422)">
    <rect
       style="opacity:0.998;fill:#586e75;stroke:none;stroke-width:6;stroke-linecap:round;stroke-linejoin:round;stop-color:#000000"
       id="rect836"
       width="50"
       height="50"
       x="12.532845"
       y="4.7363577"
       rx="2"
       ry="2" />
    <circle
       style="opacity:0.998;fill:none;fill-opacity:1;stroke:#073642;stroke-width:4;stroke-linecap:round;stroke-linejoin:round;stroke-miterlimit:4;stroke-dasharray:none;stroke-opacity:1;stop-color:#000000"
       id="path838"
       cx="14.532845"
       cy="29.736359"
       r="7" />
    <path
       style="color:#000000;display:inline;opacity:0.998;fill:#eee8d5;stroke:none;stroke-width:0.739404;stroke-linecap:round;stroke-linejoin:round;-inkscape-stroke:none"
       d="m 48.528678,26.334305 v 6.832268 c 0,0.506526 -0.321175,0.795725 -0.683085,0.795725 H 29.798065 c -1.30123,2.65e-4 -1.969554,1.55819 -1.073002,2.501266 l 2.23843,2.356852 c 0.300072,0.315862 0.300072,0.866896 0,1.182758 l -3.058706,3.219007 c -0.150771,0.158704 -0.300623,0.209402 -0.454908,0.209402 -0.154288,0 -0.305581,-0.0507 -0.456351,-0.209402 l -9.177566,-9.661355 -3.061595,-3.220452 c -0.300918,-0.316753 -0.300919,-0.863117 0,-1.17987 l 3.061595,-3.220452 9.177566,-9.661356 c 0.300916,-0.316751 0.610342,-0.316751 0.911259,0 l 3.058706,3.219008 c 0.300072,0.315863 0.300074,0.866892 0,1.182758 l -2.23843,2.356851 c -0.896551,0.943077 -0.228227,2.501001 1.073002,2.501265 h 18.047528 c 0.36191,0 0.683085,0.289202 0.683085,0.795727 z"
       id="rect852-3"
       sodipodi:nodetypes="ssscccccscccccccccccss" />
  </g>
</svg>
