<?xml version="1.0" encoding="UTF-8" standalone="no"?>
<svg
   width="64"
   height="64"
   viewBox="0 0 63.999997 64"
   id="svg4160"
   version="1.1"
   sodipodi:docname="home-z.svg"
   inkscape:version="1.1 (c4e8f9ed74, 2021-05-24)"
   xmlns:inkscape="http://www.inkscape.org/namespaces/inkscape"
   xmlns:sodipodi="http://sodipodi.sourceforge.net/DTD/sodipodi-0.dtd"
   xmlns="http://www.w3.org/2000/svg"
   xmlns:svg="http://www.w3.org/2000/svg"
   xmlns:rdf="http://www.w3.org/1999/02/22-rdf-syntax-ns#"
   xmlns:cc="http://creativecommons.org/ns#"
   xmlns:dc="http://purl.org/dc/elements/1.1/">
  <sodipodi:namedview
     pagecolor="#002b36"
     bordercolor="#666666"
     borderopacity="1"
     objecttolerance="10"
     gridtolerance="10"
     guidetolerance="10"
     inkscape:pageopacity="1"
     inkscape:pageshadow="2"
     inkscape:window-width="1600"
     inkscape:window-height="826"
     id="namedview8"
     showgrid="false"
     inkscape:zoom="7.4010512"
     inkscape:cx="31.887362"
     inkscape:cy="33.035848"
     inkscape:window-x="0"
     inkscape:window-y="0"
     inkscape:window-maximized="1"
     inkscape:current-layer="layer2"
     inkscape:document-rotation="0"
     inkscape:pagecheckerboard="false">
    <inkscape:grid
       type="xygrid"
       id="grid832" />
  </sodipodi:namedview>
  <defs
     id="defs4162" />
  <metadata
     id="metadata4165">
    <rdf:RDF>
      <cc:Work
         rdf:about="">
        <dc:format>image/svg+xml</dc:format>
        <dc:type
           rdf:resource="http://purl.org/dc/dcmitype/StillImage" />
      </cc:Work>
    </rdf:RDF>
  </metadata>
  <g
     id="layer2"
     style="display:inline;stroke:none"
     transform="translate(-3.5328446,2.2636422)">
    <rect
       style="font-variation-settings:normal;opacity:0.998;vector-effect:none;fill:#586e75;fill-opacity:1;stroke:none;stroke-width:6;stroke-linecap:round;stroke-linejoin:round;stroke-miterlimit:4;stroke-dasharray:none;stroke-dashoffset:0;stroke-opacity:1;stop-color:#000000"
       id="rect867"
       width="38"
       height="8"
       x="16.532845"
       y="42.55154"
       rx="2"
       ry="2" />
    <circle
       style="display:inline;opacity:0.998;fill:none;fill-opacity:1;stroke:#073642;stroke-width:4;stroke-linecap:round;stroke-linejoin:round;stroke-miterlimit:4;stroke-dasharray:none;stroke-opacity:1;stop-color:#000000"
       id="path838"
       cx="-43.008087"
       cy="35.532845"
       r="7"
       transform="rotate(-90)" />
    <path
       style="color:#000000;display:inline;opacity:0.998;fill:#eee8d5;stroke:none;stroke-width:0.69591;stroke-linecap:round;stroke-linejoin:round;-inkscape-stroke:none"
       d="m 38.742277,8.5513965 h -6.430371 c -0.47673,0 -0.748917,0.30228 -0.748917,0.6429 V 26.180208 c -2.5e-4,1.224685 -1.466532,1.853698 -2.354134,1.009883 l -2.218213,-2.106757 c -0.297281,-0.28242 -0.815902,-0.28242 -1.113183,0 l -3.029655,2.878782 c -0.149368,0.141903 -0.197084,0.282939 -0.197084,0.428148 0,0.145212 0.04772,0.287606 0.197084,0.429507 l 9.093041,8.63771 3.031014,2.881503 c 0.29812,0.283217 0.812344,0.283217 1.110465,0 l 3.031015,-2.881503 9.09304,-8.63771 c 0.29812,-0.283216 0.29812,-0.574439 0,-0.857655 l -3.029653,-2.878783 c -0.297283,-0.28242 -0.815899,-0.282422 -1.113184,0 l -2.218214,2.106758 c -0.887601,0.843812 -2.353882,0.214802 -2.354132,-1.009884 V 9.1942965 c 0,-0.34062 -0.272189,-0.6429 -0.748919,-0.6429 z"
       id="rect852-3"
       sodipodi:nodetypes="ssscccccscccccccccccss" />
  </g>
</svg>
