<?xml version="1.0" encoding="UTF-8" standalone="no"?>
<svg
   width="64"
   height="64"
   viewBox="0 0 63.999997 64"
   id="svg4160"
   version="1.1"
   sodipodi:docname="home-y.svg"
   inkscape:version="1.1 (c4e8f9ed74, 2021-05-24)"
   xmlns:inkscape="http://www.inkscape.org/namespaces/inkscape"
   xmlns:sodipodi="http://sodipodi.sourceforge.net/DTD/sodipodi-0.dtd"
   xmlns="http://www.w3.org/2000/svg"
   xmlns:svg="http://www.w3.org/2000/svg"
   xmlns:rdf="http://www.w3.org/1999/02/22-rdf-syntax-ns#"
   xmlns:cc="http://creativecommons.org/ns#"
   xmlns:dc="http://purl.org/dc/elements/1.1/">
  <sodipodi:namedview
     pagecolor="#002b36"
     bordercolor="#666666"
     borderopacity="1"
     objecttolerance="10"
     gridtolerance="10"
     guidetolerance="10"
     inkscape:pageopacity="1"
     inkscape:pageshadow="2"
     inkscape:window-width="1600"
     inkscape:window-height="826"
     id="namedview8"
     showgrid="false"
     inkscape:zoom="7.4010512"
     inkscape:cx="47.155464"
     inkscape:cy="31.414456"
     inkscape:window-x="0"
     inkscape:window-y="0"
     inkscape:window-maximized="1"
     inkscape:current-layer="svg4160"
     inkscape:document-rotation="0"
     inkscape:pagecheckerboard="false">
    <inkscape:grid
       type="xygrid"
       id="grid832" />
  </sodipodi:namedview>
  <defs
     id="defs4162" />
  <metadata
     id="metadata4165">
    <rdf:RDF>
      <cc:Work
         rdf:about="">
        <dc:format>image/svg+xml</dc:format>
        <dc:type
           rdf:resource="http://purl.org/dc/dcmitype/StillImage" />
      </cc:Work>
    </rdf:RDF>
  </metadata>
  <rect
     style="opacity:0.998;fill:#586e75;stroke:none;stroke-width:6;stroke-linecap:round;stroke-linejoin:round;stop-color:#000000"
     id="rect836"
     width="50"
     height="50"
     x="-54.5"
     y="7"
     rx="2"
     ry="2"
     transform="rotate(-90)" />
  <circle
     style="opacity:0.998;fill:none;fill-opacity:1;stroke:#073642;stroke-width:4;stroke-linecap:round;stroke-linejoin:round;stroke-miterlimit:4;stroke-dasharray:none;stroke-opacity:1;stop-color:#000000"
     id="path838"
     cx="-52.5"
     cy="32"
     r="7"
     transform="rotate(-90)" />
  <path
     style="color:#000000;display:inline;opacity:0.998;fill:#eee8d5;stroke:none;stroke-width:0.739404;stroke-linecap:round;stroke-linejoin:round;-inkscape-stroke:none"
     d="m 35.402054,18.504167 h -6.832269 c -0.506527,0 -0.795726,0.321173 -0.795726,0.683083 v 18.047529 c -2.65e-4,1.30123 -1.558189,1.969554 -2.501266,1.073002 l -2.356851,-2.23843 c -0.315863,-0.300072 -0.866897,-0.300072 -1.182758,0 l -3.219008,3.058707 c -0.158704,0.15077 -0.209402,0.300622 -0.209402,0.454907 0,0.154288 0.0507,0.305581 0.209402,0.456351 l 9.661356,9.177567 3.220452,3.061596 c 0.316753,0.300917 0.863116,0.300918 1.17987,0 l 3.220452,-3.061596 9.661357,-9.177567 c 0.316751,-0.300916 0.316751,-0.610341 0,-0.911258 l -3.219008,-3.058707 c -0.315863,-0.300073 -0.866893,-0.300074 -1.182758,0 l -2.356852,2.23843 c -0.943076,0.896551 -2.501,0.228227 -2.501265,-1.073002 V 19.18725 c 0,-0.361911 -0.289202,-0.683083 -0.795726,-0.683083 z"
     id="rect852-3"
     sodipodi:nodetypes="ssscccccscccccccccccss" />
</svg>
