<?xml version="1.0" encoding="UTF-8" standalone="no"?>
<svg
   xmlns:dc="http://purl.org/dc/elements/1.1/"
   xmlns:cc="http://creativecommons.org/ns#"
   xmlns:rdf="http://www.w3.org/1999/02/22-rdf-syntax-ns#"
   xmlns:svg="http://www.w3.org/2000/svg"
   xmlns="http://www.w3.org/2000/svg"
   xmlns:sodipodi="http://sodipodi.sourceforge.net/DTD/sodipodi-0.dtd"
   xmlns:inkscape="http://www.inkscape.org/namespaces/inkscape"
   data-name="Layer 1"
   id="Layer_1"
   viewBox="0 0 64 64"
   version="1.1"
   width="64"
   height="64"
   sodipodi:docname="hourglass.svg"
   inkscape:version="1.0.2 (e86c870879, 2021-01-15, custom)">
  <sodipodi:namedview
     pagecolor="#ffffff"
     bordercolor="#666666"
     borderopacity="1"
     objecttolerance="10"
     gridtolerance="10"
     guidetolerance="10"
     inkscape:pageopacity="0"
     inkscape:pageshadow="2"
     inkscape:window-width="1600"
     inkscape:window-height="837"
     id="namedview7"
     showgrid="false"
     inkscape:zoom="6.9384853"
     inkscape:cx="17.292459"
     inkscape:cy="34.251053"
     inkscape:window-x="-8"
     inkscape:window-y="-8"
     inkscape:window-maximized="1"
     inkscape:current-layer="Layer_1"
     inkscape:snap-bbox="true"
     inkscape:bbox-nodes="true"
     inkscape:bbox-paths="true"
     inkscape:snap-bbox-edge-midpoints="true"
     inkscape:snap-bbox-midpoints="true"
     inkscape:snap-intersection-paths="true"
     inkscape:snap-midpoints="true" />
  <metadata
     id="metadata11">
    <rdf:RDF>
      <cc:Work
         rdf:about="">
        <dc:format>image/svg+xml</dc:format>
        <dc:type
           rdf:resource="http://purl.org/dc/dcmitype/StillImage" />
        <dc:title />
      </cc:Work>
    </rdf:RDF>
  </metadata>
  <defs
     id="defs9" />
  <path
     id="path836"
     style="fill:#268bd2;fill-opacity:1;stroke:#586e75;stroke-width:4;stroke-miterlimit:4;stroke-dasharray:none;stroke-opacity:1"
     d="m 14.25,5.5 v 12.613379 c -0.0023,2.812141 1.146835,5.510118 3.194787,7.499707 L 24.053035,32 17.444787,38.386913 C 15.396835,40.376502 14.247721,43.07448 14.25,45.88662 V 58.5 h 35.5 V 45.88662 c 0.0023,-2.81214 -1.146836,-5.510118 -3.194787,-7.499707 L 39.946964,32 46.555213,25.613086 C 48.603164,23.623497 49.752277,20.92552 49.75,18.113379 V 5.5 Z" />
  <path
     id="path846"
     style="fill:#eee8d5;fill-opacity:1;stroke:none;stroke-width:2;stroke-miterlimit:4;stroke-dasharray:none;stroke-opacity:1"
     d="m 17.711539,18.113379 c -0.0023,2.812141 1.146834,5.510118 3.194786,7.499707 L 29.514574,32 32.232009,38.386913 C 30.56243,48.682839 26.331748,51.598414 19.711539,56.5 H 44.288461 C 36.711451,53.193298 34.354464,45.784404 31.767991,38.386913 L 34.485426,32 43.093674,25.613086 c 2.047952,-1.989589 3.197065,-4.687566 3.194787,-7.499707 -9.730367,3.828469 -28.188862,-4.320956 -28.576922,0 z" />
  <path
     style="fill:none;stroke:#073642;stroke-width:6;stroke-linecap:round;stroke-linejoin:miter;stroke-miterlimit:4;stroke-dasharray:none;stroke-opacity:1"
     d="M 11.00832,3.4999999 H 52.99168"
     id="path832" />
  <path
     style="fill:none;stroke:#073642;stroke-width:6;stroke-linecap:round;stroke-linejoin:miter;stroke-miterlimit:4;stroke-dasharray:none;stroke-opacity:1"
     d="M 11.00832,60.499997 H 52.99168"
     id="path834" />
</svg>
