<?xml version="1.0" encoding="UTF-8" standalone="no"?>
<svg
   width="64"
   height="64"
   viewBox="0 0 63.999997 64"
   id="svg4160"
   version="1.1"
   sodipodi:docname="increase.svg"
   inkscape:version="1.1 (c4e8f9ed74, 2021-05-24)"
   xmlns:inkscape="http://www.inkscape.org/namespaces/inkscape"
   xmlns:sodipodi="http://sodipodi.sourceforge.net/DTD/sodipodi-0.dtd"
   xmlns="http://www.w3.org/2000/svg"
   xmlns:svg="http://www.w3.org/2000/svg"
   xmlns:rdf="http://www.w3.org/1999/02/22-rdf-syntax-ns#"
   xmlns:cc="http://creativecommons.org/ns#"
   xmlns:dc="http://purl.org/dc/elements/1.1/">
  <path
     id="rect831"
     style="opacity:0.998;fill:#eee8d5;fill-opacity:1;stroke:none;stroke-width:2.00002;stroke-linecap:round;stroke-linejoin:round;stroke-opacity:1"
     d="m 26.5,4.5 c -2.031333,0 -3.666667,1.6353346 -3.666667,3.6666672 V 22.833334 H 8.1666664 c -2.0313328,0 -3.6666654,1.635333 -3.6666654,3.666666 v 11.000001 c 0,2.031333 1.6353346,3.666665 3.6666654,3.666665 H 22.833333 V 55.833334 C 22.833333,57.864667 24.468667,59.5 26.5,59.5 h 11 c 2.031333,0 3.666666,-1.635333 3.666666,-3.666666 V 41.166666 h 14.666668 c 2.031333,0 3.666665,-1.635332 3.666665,-3.666665 V 26.5 c 0,-2.031333 -1.635332,-3.666666 -3.666665,-3.666666 H 41.166666 V 8.1666672 C 41.166666,6.1353346 39.531333,4.500001 37.5,4.500001 Z" />
  <sodipodi:namedview
     pagecolor="#002b36"
     bordercolor="#666666"
     borderopacity="1"
     objecttolerance="10"
     gridtolerance="10"
     guidetolerance="10"
     inkscape:pageopacity="1"
     inkscape:pageshadow="2"
     inkscape:window-width="1600"
     inkscape:window-height="826"
     id="namedview13"
     showgrid="true"
     inkscape:zoom="5.2333334"
     inkscape:cx="20.063694"
     inkscape:cy="29.140127"
     inkscape:window-x="0"
     inkscape:window-y="0"
     inkscape:window-maximized="1"
     inkscape:current-layer="svg4160"
     inkscape:document-rotation="0"
     inkscape:pagecheckerboard="false" />
  <defs
     id="defs4162" />
  <metadata
     id="metadata4165">
    <rdf:RDF>
      <cc:Work
         rdf:about="">
        <dc:format>image/svg+xml</dc:format>
        <dc:type
           rdf:resource="http://purl.org/dc/dcmitype/StillImage" />
      </cc:Work>
    </rdf:RDF>
  </metadata>
</svg>
