<?xml version="1.0" encoding="UTF-8" standalone="no"?>
<svg
   xmlns:dc="http://purl.org/dc/elements/1.1/"
   xmlns:cc="http://creativecommons.org/ns#"
   xmlns:rdf="http://www.w3.org/1999/02/22-rdf-syntax-ns#"
   xmlns:svg="http://www.w3.org/2000/svg"
   xmlns="http://www.w3.org/2000/svg"
   xmlns:sodipodi="http://sodipodi.sourceforge.net/DTD/sodipodi-0.dtd"
   xmlns:inkscape="http://www.inkscape.org/namespaces/inkscape"
   width="64"
   height="64"
   viewBox="0 0 63.999997 64"
   id="svg4160"
   version="1.1"
   sodipodi:docname="increase.svg"
   inkscape:version="1.0.2 (e86c870879, 2021-01-15, custom)">
  <path
     id="rect831"
     style="opacity:0.998;fill:#fdf6e3;fill-opacity:1;stroke:none;stroke-width:2.00002;stroke-linecap:round;stroke-linejoin:round;stroke-opacity:1"
     d="m 26.200002,3.00001 c -2.142132,0 -3.866666,1.724534 -3.866666,3.866666 V 22.333337 H 6.866675 c -2.142132,0 -3.866664,1.724533 -3.866664,3.866665 v 11.599997 c 0,2.142132 1.724534,3.866664 3.866664,3.866664 h 15.466661 v 15.466662 c 0,2.142133 1.724534,3.866665 3.866666,3.866665 h 11.599996 c 2.142132,0 3.866665,-1.724532 3.866665,-3.866665 V 41.666663 h 15.466662 c 2.142132,0 3.866664,-1.724532 3.866664,-3.866664 V 26.200002 c 0,-2.142132 -1.724532,-3.866665 -3.866664,-3.866665 H 41.666663 V 6.866676 c 0,-2.142132 -1.724533,-3.866665 -3.866665,-3.866665 z" />
  <sodipodi:namedview
     pagecolor="#ffffff"
     bordercolor="#666666"
     borderopacity="1"
     objecttolerance="10"
     gridtolerance="10"
     guidetolerance="10"
     inkscape:pageopacity="0"
     inkscape:pageshadow="2"
     inkscape:window-width="1600"
     inkscape:window-height="837"
     id="namedview13"
     showgrid="true"
     inkscape:zoom="5.2333334"
     inkscape:cx="19.952975"
     inkscape:cy="29.124909"
     inkscape:window-x="-8"
     inkscape:window-y="-8"
     inkscape:window-maximized="1"
     inkscape:current-layer="svg4160"
     inkscape:document-rotation="0" />
  <defs
     id="defs4162" />
  <metadata
     id="metadata4165">
    <rdf:RDF>
      <cc:Work
         rdf:about="">
        <dc:format>image/svg+xml</dc:format>
        <dc:type
           rdf:resource="http://purl.org/dc/dcmitype/StillImage" />
        <dc:title />
      </cc:Work>
    </rdf:RDF>
  </metadata>
</svg>
