<?xml version="1.0" encoding="UTF-8" standalone="no"?>
<svg
   xmlns:dc="http://purl.org/dc/elements/1.1/"
   xmlns:cc="http://creativecommons.org/ns#"
   xmlns:rdf="http://www.w3.org/1999/02/22-rdf-syntax-ns#"
   xmlns:svg="http://www.w3.org/2000/svg"
   xmlns="http://www.w3.org/2000/svg"
   xmlns:sodipodi="http://sodipodi.sourceforge.net/DTD/sodipodi-0.dtd"
   xmlns:inkscape="http://www.inkscape.org/namespaces/inkscape"
   width="64"
   height="64"
   viewBox="0 0 64 64"
   version="1.1"
   id="svg12"
   sodipodi:docname="info.svg"
   inkscape:version="1.0.2 (e86c870879, 2021-01-15, custom)">
  <sodipodi:namedview
     pagecolor="#ffffff"
     bordercolor="#666666"
     borderopacity="1"
     objecttolerance="10"
     gridtolerance="10"
     guidetolerance="10"
     inkscape:pageopacity="0"
     inkscape:pageshadow="2"
     inkscape:window-width="1600"
     inkscape:window-height="837"
     id="namedview9"
     showgrid="false"
     inkscape:zoom="7.401051"
     inkscape:cx="19.55232"
     inkscape:cy="33.245113"
     inkscape:window-x="-8"
     inkscape:window-y="-8"
     inkscape:window-maximized="1"
     inkscape:current-layer="svg12" />
  <metadata
     id="metadata18">
    <rdf:RDF>
      <cc:Work
         rdf:about="">
        <dc:format>image/svg+xml</dc:format>
        <dc:type
           rdf:resource="http://purl.org/dc/dcmitype/StillImage" />
        <dc:title>info</dc:title>
      </cc:Work>
    </rdf:RDF>
  </metadata>
  <defs
     id="defs16" />
  <!-- Generator: Sketch 52.5 (67469) - http://www.bohemiancoding.com/sketch -->
  <title
     id="title2">info</title>
  <desc
     id="desc4">Created with Sketch.</desc>
  <g
     id="g836"
     transform="translate(2,2.0000229)">
    <ellipse
       id="Oval"
       stroke="#ffffff"
       stroke-width="2.99999"
       stroke-linecap="round"
       stroke-linejoin="round"
       cx="30"
       cy="29.999977"
       style="fill:#268bd2;fill-opacity:1;fill-rule:evenodd;stroke:#fdf6e3;stroke-opacity:1"
       rx="28.5"
       ry="28.499977" />
    <path
       d="m 28.612095,44.72252 c -3.57016,1.254566 -6.51336,-0.184141 -5.922973,-3.612842 0.590639,-3.42946 3.978432,-10.771199 4.461751,-12.159536 0.48294,-1.388338 -0.443201,-1.768897 -1.43591,-1.203944 -0.572542,0.330316 -1.423509,0.992339 -2.153993,1.635758 -0.202617,-0.407895 -0.487496,-0.874006 -0.701377,-1.320376 1.192037,-1.194577 3.18467,-2.796166 5.543557,-3.376686 2.818415,-0.695687 7.529103,0.416375 5.504452,5.803683 -1.445782,3.83976 -2.468233,6.489372 -3.112532,8.46266 -0.64392,1.974046 0.120861,2.38789 1.248227,1.618799 0.880707,-0.601276 1.818871,-1.419218 2.506579,-2.053525 0.31829,0.517115 0.420042,0.682019 0.734788,1.276208 -1.193808,1.223686 -4.316592,4.087307 -6.672569,4.929801 z m 7.397232,-23.752473 c -1.619291,1.378339 -4.019437,1.348472 -5.362202,-0.06733 -1.342386,-1.415042 -1.11838,-3.679791 0.500531,-5.058384 1.619165,-1.378214 4.019816,-1.348346 5.362202,0.06644 1.342259,1.415674 1.118506,3.680297 -0.500531,5.05927 z"
       id="info-6-icon"
       style="fill:#fdf6e3;fill-opacity:1;fill-rule:nonzero;stroke:none;stroke-width:0.999998" />
  </g>
</svg>
