<?xml version="1.0" encoding="UTF-8" standalone="no"?>
<svg
   xmlns:dc="http://purl.org/dc/elements/1.1/"
   xmlns:cc="http://creativecommons.org/ns#"
   xmlns:rdf="http://www.w3.org/1999/02/22-rdf-syntax-ns#"
   xmlns:svg="http://www.w3.org/2000/svg"
   xmlns="http://www.w3.org/2000/svg"
   xmlns:sodipodi="http://sodipodi.sourceforge.net/DTD/sodipodi-0.dtd"
   xmlns:inkscape="http://www.inkscape.org/namespaces/inkscape"
   width="64"
   height="64"
   viewBox="0 0 63.999997 64"
   id="svg4160"
   version="1.1"
   sodipodi:docname="move.svg"
   inkscape:version="1.0.2 (e86c870879, 2021-01-15, custom)">
  <sodipodi:namedview
     pagecolor="#ffffff"
     bordercolor="#666666"
     borderopacity="1"
     objecttolerance="10"
     gridtolerance="10"
     guidetolerance="10"
     inkscape:pageopacity="0"
     inkscape:pageshadow="2"
     inkscape:window-width="1600"
     inkscape:window-height="837"
     id="namedview8"
     showgrid="false"
     inkscape:zoom="7.4010512"
     inkscape:cx="31.760514"
     inkscape:cy="33.021137"
     inkscape:window-x="-8"
     inkscape:window-y="-8"
     inkscape:window-maximized="1"
     inkscape:current-layer="layer2"
     inkscape:document-rotation="0"
     inkscape:pagecheckerboard="true">
    <inkscape:grid
       type="xygrid"
       id="grid832" />
  </sodipodi:namedview>
  <defs
     id="defs4162" />
  <metadata
     id="metadata4165">
    <rdf:RDF>
      <cc:Work
         rdf:about="">
        <dc:format>image/svg+xml</dc:format>
        <dc:type
           rdf:resource="http://purl.org/dc/dcmitype/StillImage" />
        <dc:title />
      </cc:Work>
    </rdf:RDF>
  </metadata>
  <g
     id="layer2"
     style="display:inline;stroke:none"
     transform="translate(-3.5328446,2.2636422)">
    <path
       id="rect852"
       style="font-variation-settings:normal;opacity:0.996004;vector-effect:none;fill:#fdf6e3;fill-opacity:1;stroke:none;stroke-width:1.99999;stroke-linecap:round;stroke-linejoin:round;stroke-miterlimit:4;stroke-dasharray:none;stroke-dashoffset:0;stroke-opacity:1;stop-color:#000000"
       d="m 54.310658,20.001693 c 0.375981,0 0.751849,0.143447 1.039944,0.429926 l 6.239663,6.206088 2.081324,2.068221 c 0.57619,0.572958 0.57619,1.495261 0,2.068219 l -2.081324,2.068221 -6.239663,6.206088 c -0.57619,0.572958 -1.503697,0.572958 -2.079887,0 l -2.079888,-2.06822 c -0.57619,-0.572959 -0.57619,-1.49669 0,-2.069649 l 1.52257,-1.514028 H 40.442348 c -0.814857,0 -1.47086,-0.652324 -1.47086,-1.462609 v -4.387825 c 10e-7,-0.810285 0.656004,-1.462609 1.47086,-1.462609 h 12.271049 l -1.52257,-1.514028 c -0.57619,-0.572958 -0.57619,-1.49669 0,-2.069649 l 2.079888,-2.06822 c 0.288095,-0.286479 0.663964,-0.429926 1.039943,-0.429926 z" />
    <path
       id="path832"
       style="font-variation-settings:normal;opacity:0.996004;vector-effect:none;fill:#fdf6e3;fill-opacity:1;stroke:none;stroke-width:1.99999;stroke-linecap:round;stroke-linejoin:round;stroke-miterlimit:4;stroke-dasharray:none;stroke-dashoffset:0;stroke-opacity:1;stop-color:#000000"
       d="m 45.267509,48.514171 c 0,0.375981 -0.143447,0.751849 -0.429926,1.039944 l -6.206088,6.239663 -2.068221,2.081324 c -0.572957,0.57619 -1.495261,0.57619 -2.068219,0 l -2.06822,-2.081324 -6.206088,-6.239663 c -0.572958,-0.57619 -0.572958,-1.503697 0,-2.079887 l 2.06822,-2.079888 c 0.572958,-0.57619 1.49669,-0.57619 2.069649,0 l 1.514028,1.52257 V 34.645861 c 0,-0.814857 0.652323,-1.47086 1.462608,-1.47086 h 4.387826 c 0.810285,10e-7 1.462608,0.656004 1.462608,1.47086 V 46.91691 l 1.514028,-1.52257 c 0.572959,-0.57619 1.496691,-0.57619 2.069649,0 l 2.06822,2.079888 c 0.286479,0.288095 0.429926,0.663964 0.429926,1.039943 z" />
    <path
       id="path834"
       style="font-variation-settings:normal;opacity:0.996004;vector-effect:none;fill:#fdf6e3;fill-opacity:1;stroke:none;stroke-width:1.99999;stroke-linecap:round;stroke-linejoin:round;stroke-miterlimit:4;stroke-dasharray:none;stroke-dashoffset:0;stroke-opacity:1;stop-color:#000000"
       d="m 16.75503,39.471023 c -0.37598,0 -0.751849,-0.143448 -1.039944,-0.429927 L 9.475425,32.835008 7.3941008,30.766788 c -0.57619,-0.572958 -0.57619,-1.495262 0,-2.06822 L 9.475425,26.630347 15.715086,20.42426 c 0.576191,-0.572959 1.503698,-0.572959 2.079888,0 l 2.079887,2.068219 c 0.57619,0.572959 0.57619,1.49669 0,2.06965 l -1.522569,1.514028 h 12.27105 c 0.814856,0 1.47086,0.652323 1.47086,1.462608 v 4.387826 c -1e-6,0.810284 -0.656004,1.462608 -1.47086,1.462608 h -12.27105 l 1.522569,1.514028 c 0.57619,0.572959 0.57619,1.496691 0,2.069649 l -2.079887,2.06822 c -0.288095,0.286479 -0.663964,0.429927 -1.039944,0.429927 z" />
    <path
       id="path836"
       style="font-variation-settings:normal;opacity:0.996004;vector-effect:none;fill:#fdf6e3;fill-opacity:1;stroke:none;stroke-width:1.99999;stroke-linecap:round;stroke-linejoin:round;stroke-miterlimit:4;stroke-dasharray:none;stroke-dashoffset:0;stroke-opacity:1;stop-color:#000000"
       d="m 25.79818,10.958544 c 0,-0.37598 0.143448,-0.751849 0.429927,-1.039944 l 6.206087,-6.2396624 2.068221,-2.081324 c 0.572958,-0.57619 1.495261,-0.57619 2.068219,0 l 2.068222,2.081324 6.206087,6.2396624 c 0.572959,0.57619 0.572959,1.503698 0,2.079888 l -2.068219,2.079887 c -0.572959,0.57619 -1.49669,0.57619 -2.06965,0 l -1.514028,-1.522569 v 12.271049 c 0,0.814856 -0.652323,1.47086 -1.462608,1.47086 h -4.387826 c -0.810285,-1e-6 -1.462609,-0.656004 -1.462609,-1.47086 V 12.555806 l -1.514028,1.522569 c -0.572958,0.57619 -1.49669,0.57619 -2.069649,0 L 26.228107,11.998488 C 25.941628,11.710393 25.79818,11.334524 25.79818,10.958544 Z" />
  </g>
</svg>
