<?xml version="1.0" encoding="UTF-8" standalone="no"?>
<svg
   width="64"
   height="64"
   viewBox="0 0 63.999997 64"
   id="svg4160"
   version="1.1"
   sodipodi:docname="move.svg"
   inkscape:version="1.1 (c4e8f9ed74, 2021-05-24)"
   xmlns:inkscape="http://www.inkscape.org/namespaces/inkscape"
   xmlns:sodipodi="http://sodipodi.sourceforge.net/DTD/sodipodi-0.dtd"
   xmlns="http://www.w3.org/2000/svg"
   xmlns:svg="http://www.w3.org/2000/svg"
   xmlns:rdf="http://www.w3.org/1999/02/22-rdf-syntax-ns#"
   xmlns:cc="http://creativecommons.org/ns#"
   xmlns:dc="http://purl.org/dc/elements/1.1/">
  <sodipodi:namedview
     pagecolor="#cccccc"
     bordercolor="#666666"
     borderopacity="1"
     objecttolerance="10"
     gridtolerance="10"
     guidetolerance="10"
     inkscape:pageopacity="0"
     inkscape:pageshadow="2"
     inkscape:window-width="1600"
     inkscape:window-height="826"
     id="namedview8"
     showgrid="false"
     inkscape:zoom="7.4010512"
     inkscape:cx="28.239232"
     inkscape:cy="32.495384"
     inkscape:window-x="0"
     inkscape:window-y="0"
     inkscape:window-maximized="1"
     inkscape:current-layer="layer2"
     inkscape:document-rotation="0"
     inkscape:pagecheckerboard="false">
    <inkscape:grid
       type="xygrid"
       id="grid832" />
  </sodipodi:namedview>
  <defs
     id="defs4162" />
  <metadata
     id="metadata4165">
    <rdf:RDF>
      <cc:Work
         rdf:about="">
        <dc:format>image/svg+xml</dc:format>
        <dc:type
           rdf:resource="http://purl.org/dc/dcmitype/StillImage" />
      </cc:Work>
    </rdf:RDF>
  </metadata>
  <g
     id="layer2"
     style="display:inline;stroke:none"
     transform="translate(-3.5328446,2.2636422)">
    <path
       style="color:#000000;display:inline;opacity:0.998;fill:#eee8d5;stroke:none;stroke-width:0.54368;stroke-linecap:round;stroke-linejoin:round;-inkscape-stroke:none"
       d="m 38.037931,26.231593 h -5.023727 c -0.372446,0 -0.585092,-0.236157 -0.585092,-0.502267 V 12.459084 c -1.95e-4,-0.956786 -1.145728,-1.448201 -1.839167,-0.788972 l -1.732979,1.645905 c -0.232251,0.220641 -0.637423,0.220641 -0.869674,0 l -2.366918,-2.24905 c -0.116694,-0.11086 -0.153972,-0.221046 -0.153972,-0.33449 0,-0.113447 0.03728,-0.224692 0.153972,-0.335552 l 7.103938,-6.7482108 2.36798,-2.251174 c 0.232906,-0.221263 0.634644,-0.221263 0.867551,0 l 2.36798,2.251174 7.103938,6.7482108 c 0.232906,0.221262 0.232906,0.44878 0,0.670042 l -2.366917,2.24905 c -0.232252,0.220641 -0.637421,0.220642 -0.869675,0 L 40.46219,11.670112 c -0.693439,-0.659228 -1.838971,-0.167814 -1.839166,0.788972 v 13.270242 c 0,0.266111 -0.212648,0.502267 -0.585093,0.502267 z"
       id="rect852-3"
       sodipodi:nodetypes="ssscccccscccccccccccss" />
    <path
       style="color:#000000;display:inline;opacity:0.998;fill:#eee8d5;stroke:none;stroke-width:0.54368;stroke-linecap:round;stroke-linejoin:round;-inkscape-stroke:none"
       d="m 39.03761,32.241444 v -5.023727 c 0,-0.372446 0.236157,-0.585092 0.502267,-0.585092 h 13.270242 c 0.956786,-1.95e-4 1.448201,-1.145729 0.788972,-1.839168 l -1.645905,-1.732979 c -0.220641,-0.232251 -0.220641,-0.637423 0,-0.869674 l 2.24905,-2.366918 c 0.11086,-0.116694 0.221046,-0.153972 0.33449,-0.153972 0.113447,0 0.224692,0.03728 0.335552,0.153972 l 6.748211,7.103939 2.251174,2.36798 c 0.221263,0.232906 0.221263,0.634644 0,0.867551 l -2.251174,2.36798 -6.748211,7.103938 c -0.221262,0.232906 -0.44878,0.232906 -0.670042,0 l -2.24905,-2.366917 c -0.220641,-0.232252 -0.220642,-0.637421 0,-0.869675 l 1.645905,-1.732979 c 0.659228,-0.693439 0.167814,-1.838971 -0.788972,-1.839166 H 39.539877 c -0.266111,0 -0.502267,-0.212648 -0.502267,-0.585093 z"
       id="path915"
       sodipodi:nodetypes="ssscccccscccccccccccss" />
    <path
       style="color:#000000;display:inline;opacity:0.998;fill:#eee8d5;stroke:none;stroke-width:0.54368;stroke-linecap:round;stroke-linejoin:round;-inkscape-stroke:none"
       d="m 33.027758,33.241123 h 5.023727 c 0.372446,0 0.585092,0.236157 0.585092,0.502267 v 13.270242 c 1.95e-4,0.956786 1.145729,1.448201 1.839168,0.788972 l 1.732979,-1.645905 c 0.232251,-0.220641 0.637423,-0.220641 0.869674,0 l 2.366918,2.24905 c 0.116694,0.11086 0.153972,0.221046 0.153972,0.33449 0,0.113447 -0.03728,0.224692 -0.153972,0.335552 l -7.103939,6.748211 -2.36798,2.251174 c -0.232906,0.221263 -0.634644,0.221263 -0.867551,0 l -2.36798,-2.251174 -7.103938,-6.748211 c -0.232906,-0.221262 -0.232906,-0.44878 0,-0.670042 l 2.366917,-2.24905 c 0.232252,-0.220641 0.637421,-0.220642 0.869675,0 l 1.732979,1.645905 c 0.693439,0.659228 1.838971,0.167814 1.839166,-0.788972 V 33.74339 c 0,-0.266111 0.212648,-0.502267 0.585093,-0.502267 z"
       id="path1007"
       sodipodi:nodetypes="ssscccccscccccccccccss" />
    <path
       style="color:#000000;display:inline;opacity:0.998;fill:#eee8d5;stroke:none;stroke-width:0.54368;stroke-linecap:round;stroke-linejoin:round;-inkscape-stroke:none"
       d="m 32.02808,27.231272 v 5.023727 c 0,0.372446 -0.236157,0.585092 -0.502267,0.585092 H 18.255571 c -0.956786,1.95e-4 -1.448201,1.145729 -0.788972,1.839168 l 1.645905,1.732979 c 0.220641,0.232251 0.220641,0.637423 0,0.869674 l -2.24905,2.366918 c -0.11086,0.116694 -0.221046,0.153972 -0.33449,0.153972 -0.113447,0 -0.224692,-0.03728 -0.335552,-0.153972 l -6.7482107,-7.103939 -2.251174,-2.36798 c -0.221263,-0.232906 -0.221263,-0.634644 0,-0.867551 l 2.251174,-2.36798 6.7482107,-7.103938 c 0.221262,-0.232906 0.44878,-0.232906 0.670042,0 l 2.24905,2.366917 c 0.220641,0.232252 0.220642,0.637421 0,0.869675 l -1.645905,1.732979 c -0.659228,0.693439 -0.167814,1.838971 0.788972,1.839166 h 13.270242 c 0.266111,0 0.502267,0.212648 0.502267,0.585093 z"
       id="path1169"
       sodipodi:nodetypes="ssscccccscccccccccccss" />
  </g>
</svg>
