<?xml version="1.0" encoding="UTF-8" standalone="no"?>
<svg
   width="64"
   height="64"
   viewBox="0 0 64 64"
   version="1.1"
   id="svg15"
   sodipodi:docname="network.svg"
   inkscape:version="1.1 (c4e8f9ed74, 2021-05-24)"
   xmlns:inkscape="http://www.inkscape.org/namespaces/inkscape"
   xmlns:sodipodi="http://sodipodi.sourceforge.net/DTD/sodipodi-0.dtd"
   xmlns="http://www.w3.org/2000/svg"
   xmlns:svg="http://www.w3.org/2000/svg"
   xmlns:rdf="http://www.w3.org/1999/02/22-rdf-syntax-ns#"
   xmlns:cc="http://creativecommons.org/ns#"
   xmlns:dc="http://purl.org/dc/elements/1.1/">
  <sodipodi:namedview
     pagecolor="#002b36"
     bordercolor="#666666"
     borderopacity="1"
     objecttolerance="10"
     gridtolerance="10"
     guidetolerance="10"
     inkscape:pageopacity="1"
     inkscape:pageshadow="2"
     inkscape:window-width="1600"
     inkscape:window-height="826"
     id="namedview15"
     showgrid="false"
     inkscape:zoom="6.9384853"
     inkscape:cx="29.977724"
     inkscape:cy="32.644012"
     inkscape:window-x="0"
     inkscape:window-y="0"
     inkscape:window-maximized="1"
     inkscape:current-layer="svg15"
     inkscape:pagecheckerboard="false" />
  <metadata
     id="metadata21">
    <rdf:RDF>
      <cc:Work
         rdf:about="">
        <dc:format>image/svg+xml</dc:format>
        <dc:type
           rdf:resource="http://purl.org/dc/dcmitype/StillImage" />
        <dc:title>network</dc:title>
      </cc:Work>
    </rdf:RDF>
  </metadata>
  <defs
     id="defs19" />
  <!-- Generator: Sketch 52.5 (67469) - http://www.bohemiancoding.com/sketch -->
  <title
     id="title2">network</title>
  <desc
     id="desc4">Created with Sketch.</desc>
  <path
     d="m 32.000004,52.347593 c -2.447897,0 -4.440191,-1.991948 -4.440191,-4.440963 0,-2.447472 1.992294,-4.43942 4.440191,-4.43942 2.447897,0 4.440191,1.991948 4.440191,4.43942 0,2.449015 -1.992294,4.440963 -4.440191,4.440963 z"
     id="Shape"
     fill="#ffffff"
     fill-rule="nonzero"
     style="fill:#eee8d5;fill-opacity:1;stroke:#eee8d5;stroke-width:4;stroke-miterlimit:4;stroke-dasharray:none;stroke-opacity:1" />
  <path
     d="m 42.320453,38.286591 c -0.199987,0 -0.399975,-0.07764 -0.55309,-0.231344 -2.609212,-2.646189 -6.077746,-4.103971 -9.76814,-4.103971 -3.688832,0 -7.158928,1.457782 -9.766578,4.103971 -0.304668,0.308986 -0.79995,0.308986 -1.104618,0 -0.304668,-0.308986 -0.304668,-0.811287 0,-1.120273 2.904506,-2.945669 6.765202,-4.568242 10.871196,-4.568242 4.107556,0 7.968252,1.620989 10.872758,4.568242 0.304669,0.308986 0.304669,0.811287 0,1.120273 -0.151553,0.153701 -0.35154,0.231344 -0.551528,0.231344 z"
     id="Path"
     stroke="#ffffff"
     fill="#ffffff"
     style="fill:#eee8d5;fill-opacity:1;fill-rule:evenodd;stroke:#eee8d5;stroke-width:4;stroke-miterlimit:4;stroke-dasharray:none;stroke-opacity:1" />
  <path
     d="m 49.71666,30.886277 c -0.20064,0 -0.401279,-0.07669 -0.554894,-0.22851 -9.462991,-9.450288 -24.8621,-9.448723 -34.325091,0 -0.305662,0.305201 -0.802559,0.305201 -1.108222,0 -0.305662,-0.305202 -0.305662,-0.80135 0,-1.106551 10.074316,-10.06069 26.467219,-10.059125 36.543102,0 0.305662,0.305201 0.305662,0.801349 0,1.106551 -0.153615,0.151818 -0.354255,0.22851 -0.554895,0.22851 z"
     id="path8"
     stroke="#ffffff"
     fill="#ffffff"
     style="fill:#eee8d5;fill-opacity:1;fill-rule:evenodd;stroke:#eee8d5;stroke-width:4;stroke-miterlimit:4;stroke-dasharray:none;stroke-opacity:1" />
  <path
     d="m 57.117404,23.48596 c -0.200933,0 -0.401866,-0.07618 -0.555705,-0.226984 -13.540995,-13.4091917 -35.579255,-13.4123011 -49.1233893,0 -0.3061088,0.303164 -0.8037317,0.303164 -1.1098404,0 -0.3061088,-0.303165 -0.3061088,-0.796001 0,-1.099165 14.1563517,-14.0201844 37.1882877,-14.017075 51.3430697,0 0.306109,0.303164 0.306109,0.796 0,1.099165 -0.15227,0.150804 -0.353202,0.226984 -0.554135,0.226984 z"
     id="path10"
     stroke="#ffffff"
     fill="#ffffff"
     style="fill:#eee8d5;fill-opacity:1;fill-rule:evenodd;stroke:#eee8d5;stroke-width:4;stroke-miterlimit:4;stroke-dasharray:none;stroke-opacity:1" />
</svg>
