<?xml version="1.0" encoding="utf-8"?>
<svg xmlns="http://www.w3.org/2000/svg" xmlns:xlink="http://www.w3.org/1999/xlink" xml:space="preserve" width="200" height="200" viewBox="0 0 200 200"><g fill="#ffffff">
<g transform="translate(104,16) scale(1.3733333333333)"><rect width="6" height="6"/></g>
<g transform="translate(80,24) scale(1.3733333333333)"><rect width="6" height="6"/></g>
<g transform="translate(88,24) scale(1.3733333333333)"><rect width="6" height="6"/></g>
<g transform="translate(104,24) scale(1.3733333333333)"><rect width="6" height="6"/></g>
<g transform="translate(112,24) scale(1.3733333333333)"><rect width="6" height="6"/></g>
<g transform="translate(88,32) scale(1.3733333333333)"><rect width="6" height="6"/></g>
<g transform="translate(104,32) scale(1.3733333333333)"><rect width="6" height="6"/></g>
<g transform="translate(80,40) scale(1.3733333333333)"><rect width="6" height="6"/></g>
<g transform="translate(88,40) scale(1.3733333333333)"><rect width="6" height="6"/></g>
<g transform="translate(112,40) scale(1.3733333333333)"><rect width="6" height="6"/></g>
<g transform="translate(96,48) scale(1.3733333333333)"><rect width="6" height="6"/></g>
<g transform="translate(104,48) scale(1.3733333333333)"><rect width="6" height="6"/></g>
<g transform="translate(80,56) scale(1.3733333333333)"><rect width="6" height="6"/></g>
<g transform="translate(88,56) scale(1.3733333333333)"><rect width="6" height="6"/></g>
<g transform="translate(96,56) scale(1.3733333333333)"><rect width="6" height="6"/></g>
<g transform="translate(104,56) scale(1.3733333333333)"><rect width="6" height="6"/></g>
<g transform="translate(112,56) scale(1.3733333333333)"><rect width="6" height="6"/></g>
<g transform="translate(80,64) scale(1.3733333333333)"><rect width="6" height="6"/></g>
<g transform="translate(96,64) scale(1.3733333333333)"><rect width="6" height="6"/></g>
<g transform="translate(112,64) scale(1.3733333333333)"><rect width="6" height="6"/></g>
<g transform="translate(96,72) scale(1.3733333333333)"><rect width="6" height="6"/></g>
<g transform="translate(104,72) scale(1.3733333333333)"><rect width="6" height="6"/></g>
<g transform="translate(16,80) scale(1.3733333333333)"><rect width="6" height="6"/></g>
<g transform="translate(24,80) scale(1.3733333333333)"><rect width="6" height="6"/></g>
<g transform="translate(32,80) scale(1.3733333333333)"><rect width="6" height="6"/></g>
<g transform="translate(40,80) scale(1.3733333333333)"><rect width="6" height="6"/></g>
<g transform="translate(48,80) scale(1.3733333333333)"><rect width="6" height="6"/></g>
<g transform="translate(64,80) scale(1.3733333333333)"><rect width="6" height="6"/></g>
<g transform="translate(72,80) scale(1.3733333333333)"><rect width="6" height="6"/></g>
<g transform="translate(80,80) scale(1.3733333333333)"><rect width="6" height="6"/></g>
<g transform="translate(88,80) scale(1.3733333333333)"><rect width="6" height="6"/></g>
<g transform="translate(104,80) scale(1.3733333333333)"><rect width="6" height="6"/></g>
<g transform="translate(120,80) scale(1.3733333333333)"><rect width="6" height="6"/></g>
<g transform="translate(136,80) scale(1.3733333333333)"><rect width="6" height="6"/></g>
<g transform="translate(152,80) scale(1.3733333333333)"><rect width="6" height="6"/></g>
<g transform="translate(168,80) scale(1.3733333333333)"><rect width="6" height="6"/></g>
<g transform="translate(24,88) scale(1.3733333333333)"><rect width="6" height="6"/></g>
<g transform="translate(72,88) scale(1.3733333333333)"><rect width="6" height="6"/></g>
<g transform="translate(96,88) scale(1.3733333333333)"><rect width="6" height="6"/></g>
<g transform="translate(120,88) scale(1.3733333333333)"><rect width="6" height="6"/></g>
<g transform="translate(128,88) scale(1.3733333333333)"><rect width="6" height="6"/></g>
<g transform="translate(136,88) scale(1.3733333333333)"><rect width="6" height="6"/></g>
<g transform="translate(144,88) scale(1.3733333333333)"><rect width="6" height="6"/></g>
<g transform="translate(152,88) scale(1.3733333333333)"><rect width="6" height="6"/></g>
<g transform="translate(160,88) scale(1.3733333333333)"><rect width="6" height="6"/></g>
<g transform="translate(168,88) scale(1.3733333333333)"><rect width="6" height="6"/></g>
<g transform="translate(176,88) scale(1.3733333333333)"><rect width="6" height="6"/></g>
<g transform="translate(16,96) scale(1.3733333333333)"><rect width="6" height="6"/></g>
<g transform="translate(40,96) scale(1.3733333333333)"><rect width="6" height="6"/></g>
<g transform="translate(48,96) scale(1.3733333333333)"><rect width="6" height="6"/></g>
<g transform="translate(64,96) scale(1.3733333333333)"><rect width="6" height="6"/></g>
<g transform="translate(80,96) scale(1.3733333333333)"><rect width="6" height="6"/></g>
<g transform="translate(104,96) scale(1.3733333333333)"><rect width="6" height="6"/></g>
<g transform="translate(112,96) scale(1.3733333333333)"><rect width="6" height="6"/></g>
<g transform="translate(160,96) scale(1.3733333333333)"><rect width="6" height="6"/></g>
<g transform="translate(168,96) scale(1.3733333333333)"><rect width="6" height="6"/></g>
<g transform="translate(16,104) scale(1.3733333333333)"><rect width="6" height="6"/></g>
<g transform="translate(24,104) scale(1.3733333333333)"><rect width="6" height="6"/></g>
<g transform="translate(32,104) scale(1.3733333333333)"><rect width="6" height="6"/></g>
<g transform="translate(40,104) scale(1.3733333333333)"><rect width="6" height="6"/></g>
<g transform="translate(48,104) scale(1.3733333333333)"><rect width="6" height="6"/></g>
<g transform="translate(56,104) scale(1.3733333333333)"><rect width="6" height="6"/></g>
<g transform="translate(72,104) scale(1.3733333333333)"><rect width="6" height="6"/></g>
<g transform="translate(80,104) scale(1.3733333333333)"><rect width="6" height="6"/></g>
<g transform="translate(88,104) scale(1.3733333333333)"><rect width="6" height="6"/></g>
<g transform="translate(96,104) scale(1.3733333333333)"><rect width="6" height="6"/></g>
<g transform="translate(112,104) scale(1.3733333333333)"><rect width="6" height="6"/></g>
<g transform="translate(120,104) scale(1.3733333333333)"><rect width="6" height="6"/></g>
<g transform="translate(144,104) scale(1.3733333333333)"><rect width="6" height="6"/></g>
<g transform="translate(152,104) scale(1.3733333333333)"><rect width="6" height="6"/></g>
<g transform="translate(160,104) scale(1.3733333333333)"><rect width="6" height="6"/></g>
<g transform="translate(24,112) scale(1.3733333333333)"><rect width="6" height="6"/></g>
<g transform="translate(48,112) scale(1.3733333333333)"><rect width="6" height="6"/></g>
<g transform="translate(64,112) scale(1.3733333333333)"><rect width="6" height="6"/></g>
<g transform="translate(88,112) scale(1.3733333333333)"><rect width="6" height="6"/></g>
<g transform="translate(128,112) scale(1.3733333333333)"><rect width="6" height="6"/></g>
<g transform="translate(144,112) scale(1.3733333333333)"><rect width="6" height="6"/></g>
<g transform="translate(152,112) scale(1.3733333333333)"><rect width="6" height="6"/></g>
<g transform="translate(176,112) scale(1.3733333333333)"><rect width="6" height="6"/></g>
<g transform="translate(80,120) scale(1.3733333333333)"><rect width="6" height="6"/></g>
<g transform="translate(96,120) scale(1.3733333333333)"><rect width="6" height="6"/></g>
<g transform="translate(120,120) scale(1.3733333333333)"><rect width="6" height="6"/></g>
<g transform="translate(128,120) scale(1.3733333333333)"><rect width="6" height="6"/></g>
<g transform="translate(136,120) scale(1.3733333333333)"><rect width="6" height="6"/></g>
<g transform="translate(144,120) scale(1.3733333333333)"><rect width="6" height="6"/></g>
<g transform="translate(152,120) scale(1.3733333333333)"><rect width="6" height="6"/></g>
<g transform="translate(160,120) scale(1.3733333333333)"><rect width="6" height="6"/></g>
<g transform="translate(176,120) scale(1.3733333333333)"><rect width="6" height="6"/></g>
<g transform="translate(80,128) scale(1.3733333333333)"><rect width="6" height="6"/></g>
<g transform="translate(88,128) scale(1.3733333333333)"><rect width="6" height="6"/></g>
<g transform="translate(96,128) scale(1.3733333333333)"><rect width="6" height="6"/></g>
<g transform="translate(104,128) scale(1.3733333333333)"><rect width="6" height="6"/></g>
<g transform="translate(112,128) scale(1.3733333333333)"><rect width="6" height="6"/></g>
<g transform="translate(120,128) scale(1.3733333333333)"><rect width="6" height="6"/></g>
<g transform="translate(128,128) scale(1.3733333333333)"><rect width="6" height="6"/></g>
<g transform="translate(136,128) scale(1.3733333333333)"><rect width="6" height="6"/></g>
<g transform="translate(160,128) scale(1.3733333333333)"><rect width="6" height="6"/></g>
<g transform="translate(168,128) scale(1.3733333333333)"><rect width="6" height="6"/></g>
<g transform="translate(112,136) scale(1.3733333333333)"><rect width="6" height="6"/></g>
<g transform="translate(120,136) scale(1.3733333333333)"><rect width="6" height="6"/></g>
<g transform="translate(144,136) scale(1.3733333333333)"><rect width="6" height="6"/></g>
<g transform="translate(152,136) scale(1.3733333333333)"><rect width="6" height="6"/></g>
<g transform="translate(160,136) scale(1.3733333333333)"><rect width="6" height="6"/></g>
<g transform="translate(80,144) scale(1.3733333333333)"><rect width="6" height="6"/></g>
<g transform="translate(104,144) scale(1.3733333333333)"><rect width="6" height="6"/></g>
<g transform="translate(128,144) scale(1.3733333333333)"><rect width="6" height="6"/></g>
<g transform="translate(144,144) scale(1.3733333333333)"><rect width="6" height="6"/></g>
<g transform="translate(152,144) scale(1.3733333333333)"><rect width="6" height="6"/></g>
<g transform="translate(80,152) scale(1.3733333333333)"><rect width="6" height="6"/></g>
<g transform="translate(88,152) scale(1.3733333333333)"><rect width="6" height="6"/></g>
<g transform="translate(136,152) scale(1.3733333333333)"><rect width="6" height="6"/></g>
<g transform="translate(144,152) scale(1.3733333333333)"><rect width="6" height="6"/></g>
<g transform="translate(160,152) scale(1.3733333333333)"><rect width="6" height="6"/></g>
<g transform="translate(168,152) scale(1.3733333333333)"><rect width="6" height="6"/></g>
<g transform="translate(80,160) scale(1.3733333333333)"><rect width="6" height="6"/></g>
<g transform="translate(104,160) scale(1.3733333333333)"><rect width="6" height="6"/></g>
<g transform="translate(112,160) scale(1.3733333333333)"><rect width="6" height="6"/></g>
<g transform="translate(120,160) scale(1.3733333333333)"><rect width="6" height="6"/></g>
<g transform="translate(128,160) scale(1.3733333333333)"><rect width="6" height="6"/></g>
<g transform="translate(136,160) scale(1.3733333333333)"><rect width="6" height="6"/></g>
<g transform="translate(160,160) scale(1.3733333333333)"><rect width="6" height="6"/></g>
<g transform="translate(80,168) scale(1.3733333333333)"><rect width="6" height="6"/></g>
<g transform="translate(88,168) scale(1.3733333333333)"><rect width="6" height="6"/></g>
<g transform="translate(96,168) scale(1.3733333333333)"><rect width="6" height="6"/></g>
<g transform="translate(104,168) scale(1.3733333333333)"><rect width="6" height="6"/></g>
<g transform="translate(112,168) scale(1.3733333333333)"><rect width="6" height="6"/></g>
<g transform="translate(120,168) scale(1.3733333333333)"><rect width="6" height="6"/></g>
<g transform="translate(136,168) scale(1.3733333333333)"><rect width="6" height="6"/></g>
<g transform="translate(144,168) scale(1.3733333333333)"><rect width="6" height="6"/></g>
<g transform="translate(160,168) scale(1.3733333333333)"><rect width="6" height="6"/></g>
<g transform="translate(80,176) scale(1.3733333333333)"><rect width="6" height="6"/></g>
<g transform="translate(112,176) scale(1.3733333333333)"><rect width="6" height="6"/></g>
<g transform="translate(128,176) scale(1.3733333333333)"><rect width="6" height="6"/></g>
<g transform="translate(136,176) scale(1.3733333333333)"><rect width="6" height="6"/></g>
<g transform="translate(144,176) scale(1.3733333333333)"><rect width="6" height="6"/></g>
<g transform="translate(152,176) scale(1.3733333333333)"><rect width="6" height="6"/></g>
<g transform="translate(168,176) scale(1.3733333333333)"><rect width="6" height="6"/></g>
<g transform="translate(16,16)"><g transform="scale(4)"><path d="M0,0v14h14V0H0z M12,12H2V2h10V12z"/></g></g>
<g transform="translate(128,16)"><g transform="scale(4)"><path d="M0,0v14h14V0H0z M12,12H2V2h10V12z"/></g></g>
<g transform="translate(16,128)"><g transform="scale(4)"><path d="M0,0v14h14V0H0z M12,12H2V2h10V12z"/></g></g>
<g transform="translate(32,32)"><g transform="scale(4)"><rect width="6" height="6"/></g></g>
<g transform="translate(144,32)"><g transform="scale(4)"><rect width="6" height="6"/></g></g>
<g transform="translate(32,144)"><g transform="scale(4)"><rect width="6" height="6"/></g></g>
</g></svg>
