<?xml version="1.0" encoding="UTF-8" standalone="no"?>
<svg
   xmlns:dc="http://purl.org/dc/elements/1.1/"
   xmlns:cc="http://creativecommons.org/ns#"
   xmlns:rdf="http://www.w3.org/1999/02/22-rdf-syntax-ns#"
   xmlns:svg="http://www.w3.org/2000/svg"
   xmlns="http://www.w3.org/2000/svg"
   xmlns:sodipodi="http://sodipodi.sourceforge.net/DTD/sodipodi-0.dtd"
   xmlns:inkscape="http://www.inkscape.org/namespaces/inkscape"
   width="64"
   height="64"
   viewBox="0 0 64 64"
   version="1.1"
   id="svg10"
   sodipodi:docname="reboot - copia.svg"
   inkscape:version="1.0.2 (e86c870879, 2021-01-15, custom)">
  <sodipodi:namedview
     pagecolor="#bfbfbf"
     bordercolor="#666666"
     borderopacity="1"
     objecttolerance="10"
     gridtolerance="10"
     guidetolerance="10"
     inkscape:pageopacity="0"
     inkscape:pageshadow="2"
     inkscape:window-width="1600"
     inkscape:window-height="837"
     id="namedview11"
     showgrid="false"
     inkscape:pagecheckerboard="false"
     inkscape:zoom="4.90625"
     inkscape:cx="14.19969"
     inkscape:cy="39.124932"
     inkscape:window-x="-8"
     inkscape:window-y="-8"
     inkscape:window-maximized="1"
     inkscape:current-layer="svg10"
     inkscape:document-rotation="0" />
  <metadata
     id="metadata16">
    <rdf:RDF>
      <cc:Work
         rdf:about="">
        <dc:format>image/svg+xml</dc:format>
        <dc:type
           rdf:resource="http://purl.org/dc/dcmitype/StillImage" />
        <dc:title>reboot</dc:title>
      </cc:Work>
    </rdf:RDF>
  </metadata>
  <defs
     id="defs14" />
  <!-- Generator: Sketch 52.5 (67469) - http://www.bohemiancoding.com/sketch -->
  <title
     id="title2">reboot</title>
  <desc
     id="desc4">Created with Sketch.</desc>
  <path
     id="path832"
     style="display:inline;opacity:0.998;fill:#fdf6e3;fill-opacity:1;stroke:#073642;stroke-width:1.99999;stroke-linecap:round;stroke-linejoin:round;stroke-opacity:1"
     d="m 53.7686,8.9073421 c 0.26586,0.2658595 0.430206,0.6330699 0.431348,1.0393551 l 0.02374,8.8004748 0.0093,2.934172 c 0.0023,0.812569 -0.649882,1.464737 -1.462452,1.462451 l -2.934171,-0.0093 -8.800475,-0.02374 c -0.812569,-0.0023 -1.468416,-0.658132 -1.470702,-1.470702 l -0.0082,-2.933155 c -0.0023,-0.81257 0.650892,-1.465747 1.463463,-1.463462 l 2.147199,0.006 c 6.32726,0.875599 6.387077,0.873017 5.171102,-5.171102 l -0.006,-2.147199 c -0.0023,-0.812571 0.650892,-1.4657482 1.463463,-1.4634628 l 2.933154,0.00825 c 0.406285,0.00114 0.773497,0.1654898 1.039354,0.4313471 z"
     sodipodi:nodetypes="sccccccsssccssss" />
  <path
     style="font-variation-settings:normal;opacity:0.998;vector-effect:none;fill:none;fill-opacity:1;stroke:#073642;stroke-width:6;stroke-linecap:round;stroke-linejoin:round;stroke-miterlimit:4;stroke-dasharray:none;stroke-dashoffset:0;stroke-opacity:1;stop-color:#000000"
     id="path845"
     sodipodi:type="arc"
     sodipodi:cx="0.13714087"
     sodipodi:cy="45.385406"
     sodipodi:rx="21.978861"
     sodipodi:ry="22.195045"
     sodipodi:start="0.976517"
     sodipodi:end="0"
     sodipodi:arc-type="arc"
     sodipodi:open="true"
     d="M 12.443364,63.775161 A 21.978861,22.195045 0 0 1 -14.558959,61.889198 21.978861,22.195045 0 0 1 -19.273515,34.973964 21.978861,22.195045 0 0 1 5.449684,23.848485 21.978861,22.195045 0 0 1 22.116002,45.385406"
     transform="rotate(-45)" />
  <path
     id="path866"
     style="color:#000000;font-style:normal;font-variant:normal;font-weight:normal;font-stretch:normal;font-size:medium;line-height:normal;font-family:sans-serif;font-variant-ligatures:normal;font-variant-position:normal;font-variant-caps:normal;font-variant-numeric:normal;font-variant-alternates:normal;font-variant-east-asian:normal;font-feature-settings:normal;font-variation-settings:normal;text-indent:0;text-align:start;text-decoration:none;text-decoration-line:none;text-decoration-style:solid;text-decoration-color:#000000;letter-spacing:normal;word-spacing:normal;text-transform:none;writing-mode:lr-tb;direction:ltr;text-orientation:mixed;dominant-baseline:auto;baseline-shift:baseline;text-anchor:start;white-space:normal;shape-padding:0;shape-margin:0;inline-size:0;clip-rule:nonzero;display:inline;overflow:visible;visibility:visible;opacity:0.998;isolation:auto;mix-blend-mode:normal;color-interpolation:sRGB;color-interpolation-filters:linearRGB;solid-color:#000000;solid-opacity:1;vector-effect:none;fill:#fdf6e3;fill-opacity:1;fill-rule:nonzero;stroke:#fdf6e3;stroke-width:1.99999;stroke-linecap:round;stroke-linejoin:round;stroke-miterlimit:4;stroke-dasharray:none;stroke-dashoffset:0;stroke-opacity:1;color-rendering:auto;image-rendering:auto;shape-rendering:auto;text-rendering:auto;enable-background:accumulate;stop-color:#000000"
     d="M 14.401372,14.153839 C 7.9657667,20.578116 5.4332379,30.221132 8.2376661,39.249224 11.656397,50.254899 22.125087,57.605997 33.612027,57.052571 45.098967,56.499145 54.711593,48.145615 56.842971,36.854452 a 3,3 0 0 0 -2.39201,-3.50515 3,3 0 0 0 -3.50377,2.390629 c -1.624252,8.604623 -8.860535,14.897984 -17.623807,15.320187 -8.763273,0.422203 -16.74061,-5.172621 -19.355667,-13.59109 -2.615058,-8.418469 0.801617,-17.406687 8.289169,-21.884403 6.991766,-4.181223 15.834955,-3.395629 22.066703,1.817486 -0.379235,-0.05044 -0.718432,-0.09275 -1.155953,-0.153299 l -2.14618,-0.0055 c -0.812571,-0.0023 -1.466217,0.651362 -1.463931,1.463932 l 0.0083,2.933389 c 0.0023,0.81257 0.656886,1.467171 1.469456,1.469456 l 8.800164,0.02486 2.934771,0.0097 c 0.812569,0.0023 1.464836,-0.649981 1.46255,-1.46255 l -0.0097,-2.93477 -0.02348,-8.8015461 C 54.198464,9.5394397 54.034572,9.1730212 53.768713,8.9071618 53.502856,8.6413045 53.136436,8.4774113 52.730151,8.4762686 l -2.933389,-0.00829 c -0.81257,-0.00229 -1.466216,0.6513607 -1.463932,1.4639317 l 0.0055,2.1461796 c 0.07989,0.397099 0.135557,0.701824 0.203018,1.04823 -8.16183,-7.0928434 -20.028571,-8.2732647 -29.364267,-2.69032 -1.230724,0.735999 -2.378475,1.565327 -3.437478,2.476255 -0.463314,0.398531 -0.909215,0.813295 -1.338255,1.24158 z" />
</svg>
