<?xml version="1.0" encoding="UTF-8" standalone="no"?>
<svg
   width="64"
   height="64"
   viewBox="0 0 64 64"
   version="1.1"
   id="svg10"
   sodipodi:docname="refresh.svg"
   inkscape:version="1.1 (c4e8f9ed74, 2021-05-24)"
   xmlns:inkscape="http://www.inkscape.org/namespaces/inkscape"
   xmlns:sodipodi="http://sodipodi.sourceforge.net/DTD/sodipodi-0.dtd"
   xmlns="http://www.w3.org/2000/svg"
   xmlns:svg="http://www.w3.org/2000/svg"
   xmlns:rdf="http://www.w3.org/1999/02/22-rdf-syntax-ns#"
   xmlns:cc="http://creativecommons.org/ns#"
   xmlns:dc="http://purl.org/dc/elements/1.1/">
  <sodipodi:namedview
     pagecolor="#002b36"
     bordercolor="#666666"
     borderopacity="1"
     objecttolerance="10"
     gridtolerance="10"
     guidetolerance="10"
     inkscape:pageopacity="1"
     inkscape:pageshadow="2"
     inkscape:window-width="1600"
     inkscape:window-height="826"
     id="namedview11"
     showgrid="false"
     inkscape:pagecheckerboard="false"
     inkscape:zoom="9.8125"
     inkscape:cx="24.66242"
     inkscape:cy="26.853503"
     inkscape:window-x="0"
     inkscape:window-y="0"
     inkscape:window-maximized="1"
     inkscape:current-layer="svg10"
     inkscape:document-rotation="0" />
  <metadata
     id="metadata16">
    <rdf:RDF>
      <cc:Work
         rdf:about="">
        <dc:format>image/svg+xml</dc:format>
        <dc:type
           rdf:resource="http://purl.org/dc/dcmitype/StillImage" />
        <dc:title>reboot</dc:title>
      </cc:Work>
    </rdf:RDF>
  </metadata>
  <defs
     id="defs14" />
  <!-- Generator: Sketch 52.5 (67469) - http://www.bohemiancoding.com/sketch -->
  <title
     id="title2">reboot</title>
  <desc
     id="desc4">Created with Sketch.</desc>
  <path
     style="fill:none;stroke:#eee8d5;stroke-width:8;stroke-linecap:round;stroke-linejoin:round;stroke-miterlimit:4;stroke-dasharray:none;stroke-opacity:0.978816"
     id="path1602"
     sodipodi:type="arc"
     sodipodi:cx="31.999998"
     sodipodi:cy="30.999998"
     sodipodi:rx="23"
     sodipodi:ry="23"
     sodipodi:start="0.34906585"
     sodipodi:end="5.5850536"
     sodipodi:open="true"
     sodipodi:arc-type="arc"
     d="M 53.612928,38.866461 A 23,23 0 0 1 29.995416,53.912476 23,23 0 0 1 9.3494198,34.993906 23,23 0 0 1 22.279778,10.154919 23,23 0 0 1 49.61902,16.215883" />
  <path
     style="color:#000000;display:inline;opacity:0.998;fill:#eee8d5;stroke:none;stroke-width:0.999996;stroke-linecap:round;stroke-linejoin:round;-inkscape-stroke:none"
     d="m 44.419427,15.545528 4.601827,-4.601827 c 0.341169,-0.341169 0.752279,-0.319634 0.996042,-0.07587 l 2.195376,2.195375 c 0.876612,0.876258 2.376088,0.277073 2.407424,-0.961996 l 0.07976,-3.0951208 c 0.01064,-0.414859 0.381781,-0.786003 0.796637,-0.796638 l 4.228314,-0.107971 c 0.208443,-0.0053 0.343523,0.06144 0.447441,0.165359 0.103919,0.103919 0.171668,0.239975 0.16633,0.448412 l -0.325853,12.6888308 -0.106997,4.231229 c -0.01067,0.416029 -0.378664,0.784028 -0.794694,0.794694 l -4.23123,0.106997 -12.68883,0.325853 c -0.416025,0.01066 -0.624436,-0.197746 -0.613771,-0.61377 l 0.107969,-4.228313 c 0.01064,-0.414859 0.381778,-0.786002 0.796639,-0.796639 l 3.095122,-0.07976 c 1.239068,-0.03134 1.838252,-1.530811 0.961995,-2.407422 l -2.195376,-2.195376 c -0.243763,-0.243763 -0.265294,-0.654877 0.07587,-0.996043 z"
     id="rect852-3"
     sodipodi:nodetypes="ssscccccscccccccccccss" />
</svg>
