<?xml version="1.0" encoding="UTF-8" standalone="no"?>
<svg
   xmlns:dc="http://purl.org/dc/elements/1.1/"
   xmlns:cc="http://creativecommons.org/ns#"
   xmlns:rdf="http://www.w3.org/1999/02/22-rdf-syntax-ns#"
   xmlns:svg="http://www.w3.org/2000/svg"
   xmlns="http://www.w3.org/2000/svg"
   xmlns:sodipodi="http://sodipodi.sourceforge.net/DTD/sodipodi-0.dtd"
   xmlns:inkscape="http://www.inkscape.org/namespaces/inkscape"
   width="64"
   height="60"
   viewBox="0 0 63.999997 60"
   id="svg4160"
   version="1.1"
   sodipodi:docname="retract.svg"
   inkscape:version="1.0.2 (e86c870879, 2021-01-15, custom)">
  <sodipodi:namedview
     pagecolor="#bfbfbf"
     bordercolor="#666666"
     borderopacity="1"
     objecttolerance="10"
     gridtolerance="10"
     guidetolerance="10"
     inkscape:pageopacity="0"
     inkscape:pageshadow="2"
     inkscape:window-width="1600"
     inkscape:window-height="837"
     id="namedview12"
     showgrid="false"
     inkscape:zoom="5.2333335"
     inkscape:cx="2.694017"
     inkscape:cy="48.205863"
     inkscape:window-x="-8"
     inkscape:window-y="-8"
     inkscape:window-maximized="1"
     inkscape:current-layer="svg4160"
     inkscape:document-rotation="0"
     inkscape:pagecheckerboard="false"
     inkscape:snap-bbox="true"
     inkscape:snap-bbox-edge-midpoints="true"
     inkscape:snap-bbox-midpoints="true"
     inkscape:bbox-nodes="true"
     inkscape:bbox-paths="true"
     inkscape:object-paths="true"
     inkscape:snap-intersection-paths="true" />
  <defs
     id="defs4162" />
  <metadata
     id="metadata4165">
    <rdf:RDF>
      <cc:Work
         rdf:about="">
        <dc:format>image/svg+xml</dc:format>
        <dc:type
           rdf:resource="http://purl.org/dc/dcmitype/StillImage" />
        <dc:title />
      </cc:Work>
    </rdf:RDF>
  </metadata>
  <g
     id="g963"
     transform="matrix(2.4,0,0,2.4,-44.8,-62.097418)"
     style="stroke-width:0.416667">
    <rect
       style="opacity:0.998;fill:#839496;fill-opacity:1;stroke:none;stroke-width:0.833333;stroke-linecap:round;stroke-linejoin:round;stroke-miterlimit:4;stroke-dasharray:none;stop-color:#000000"
       id="rect1033"
       width="12.5"
       height="4.5"
       x="25.75"
       y="43.336697" />
    <rect
       style="opacity:0.998;fill:#93a1a1;fill-opacity:1;stroke:none;stroke-width:0.833333;stroke-linecap:round;stroke-linejoin:round;stroke-miterlimit:4;stroke-dasharray:none;stop-color:#000000"
       id="rect1035"
       width="6.25"
       height="4.5"
       x="28.893887"
       y="43.336697" />
    <path
       style="fill:#586e75;fill-opacity:1;stroke:none;stroke-width:0.416664px;stroke-linecap:butt;stroke-linejoin:miter;stroke-opacity:1"
       d="m 28.875,47.836698 h 6.25 l -2.084227,2.5 h -2.081546 z"
       id="path1037" />
    <rect
       style="opacity:0.998;fill:#657b83;fill-opacity:1;stroke:none;stroke-width:0.833333;stroke-linecap:round;stroke-linejoin:round;stroke-miterlimit:4;stroke-dasharray:none;stop-color:#000000"
       id="rect1039"
       width="8"
       height="2.5"
       x="28.018887"
       y="40.836697" />
    <rect
       style="opacity:0.998;fill:#586e75;fill-opacity:1;stroke:none;stroke-width:0.833333;stroke-linecap:round;stroke-linejoin:round;stroke-miterlimit:4;stroke-dasharray:none;stop-color:#000000"
       id="rect1055"
       width="11.25"
       height="2.5"
       x="26.393887"
       y="38.336697"
       ry="0.83333331"
       rx="0.83333331" />
    <rect
       style="opacity:0.998;fill:#586e75;fill-opacity:1;stroke:none;stroke-width:0.833333;stroke-linecap:round;stroke-linejoin:round;stroke-miterlimit:4;stroke-dasharray:none;stop-color:#000000"
       id="rect1065"
       width="11.25"
       height="2.5"
       x="26.393887"
       y="37.123924" />
  </g>
  <g
     id="g973"
     transform="translate(1.9701818e-4,-8.163302)"
     style="stroke:none">
    <path
       id="path832"
       style="font-variation-settings:normal;display:inline;opacity:0.998;vector-effect:none;fill:#fdf6e3;fill-opacity:1;stroke:none;stroke-width:1.99999;stroke-linecap:round;stroke-linejoin:round;stroke-miterlimit:4;stroke-dasharray:none;stroke-dashoffset:0;stroke-opacity:1;stop-color:#000000"
       d="m 41.734551,20.457058 c 0,-0.375983 -0.143446,-0.751849 -0.429926,-1.039944 L 35.098536,13.177453 33.03034,11.096104 c -0.572947,-0.576199 -1.495262,-0.57619 -2.068219,10e-7 l -2.068197,2.081348 -6.206088,6.239662 c -0.572947,0.5762 -0.572957,1.503697 0,2.079887 l 2.068255,2.079852 c 0.572948,0.5762 1.49669,0.576189 2.069649,-1e-6 l 1.514056,-1.522541 c 3.854907,-5.093191 3.899029,-5.133662 7.313043,0 l 1.514056,1.522541 c 0.572948,0.576201 1.496691,0.57619 2.069649,0 l 2.068255,-2.079851 c 0.286509,-0.288065 0.429926,-0.663964 0.429926,-1.039943 z"
       sodipodi:nodetypes="sccccccsssccssss" />
    <path
       id="rect934"
       style="font-variation-settings:normal;opacity:0.998;vector-effect:none;fill:#fdf6e3;fill-opacity:1;stroke:none;stroke-width:1.99999;stroke-linecap:round;stroke-linejoin:round;stroke-miterlimit:4;stroke-dasharray:none;stroke-dashoffset:0;stroke-opacity:1;stop-color:#000000"
       d="m 31.996094,10.663297 c -0.373817,10e-7 -0.746725,0.145498 -1.033203,0.433594 l -2.06836,2.080078 -6.207031,6.240234 c -0.572947,0.5762 -0.572957,1.503889 0,2.080079 l 2.068359,2.080078 c 0.572948,0.5762 1.497354,0.57619 2.070313,0 l 1.513672,-1.523438 c 0.255588,-0.337689 0.45551,-0.593488 0.679687,-0.886719 v 12.957032 h 6 v -13.00586 c 0.207274,0.307052 0.395348,0.578471 0.632813,0.935547 l 1.513672,1.523438 c 0.572948,0.576201 1.497354,0.57619 2.070312,0 l 2.06836,-2.080078 c 0.286509,-0.288065 0.429687,-0.665037 0.429687,-1.041016 0,-0.375983 -0.143208,-0.750968 -0.429687,-1.039063 L 35.097656,13.176969 33.03125,11.096891 c -0.286473,-0.2881 -0.661339,-0.433595 -1.035156,-0.433594 z"
       sodipodi:nodetypes="scccccccccccccccscccs" />
  </g>
</svg>
