<?xml version="1.0" encoding="UTF-8" standalone="no"?>
<svg
   xmlns:dc="http://purl.org/dc/elements/1.1/"
   xmlns:cc="http://creativecommons.org/ns#"
   xmlns:rdf="http://www.w3.org/1999/02/22-rdf-syntax-ns#"
   xmlns:svg="http://www.w3.org/2000/svg"
   xmlns="http://www.w3.org/2000/svg"
   xmlns:sodipodi="http://sodipodi.sourceforge.net/DTD/sodipodi-0.dtd"
   xmlns:inkscape="http://www.inkscape.org/namespaces/inkscape"
   version="1.1"
   id="svg2"
   inkscape:export-filename="G:\Github\retroarch-assets\xmb\retrosystem\png\subsetting.png"
   inkscape:export-xdpi="384"
   inkscape:version="1.0.2 (e86c870879, 2021-01-15, custom)"
   inkscape:export-ydpi="384"
   sodipodi:docname="settings.svg"
   x="0px"
   y="0px"
   width="64px"
   height="64px"
   viewBox="0 128 64 64"
   enable-background="new 0 128 64 64"
   xml:space="preserve"><metadata
   id="metadata8"><rdf:RDF><cc:Work
       rdf:about=""><dc:format>image/svg+xml</dc:format><dc:type
         rdf:resource="http://purl.org/dc/dcmitype/StillImage" /><dc:title></dc:title></cc:Work></rdf:RDF></metadata><defs
   id="defs6" /><sodipodi:namedview
   pagecolor="#ffffff"
   bordercolor="#666666"
   borderopacity="1"
   objecttolerance="10"
   gridtolerance="10"
   guidetolerance="10"
   inkscape:pageopacity="0"
   inkscape:pageshadow="2"
   inkscape:window-width="1600"
   inkscape:window-height="837"
   id="namedview4"
   showgrid="false"
   inkscape:zoom="5.2149125"
   inkscape:cx="21.71134"
   inkscape:cy="38.080205"
   inkscape:window-x="-8"
   inkscape:window-y="-8"
   inkscape:window-maximized="1"
   inkscape:current-layer="svg2"
   inkscape:document-rotation="0"
   inkscape:pagecheckerboard="true"><inkscape:grid
     type="xygrid"
     id="grid812" /></sodipodi:namedview>

<g
   id="g873"
   transform="translate(1.3843492,0.42532293)"><path
     id="path831"
     style="opacity:0.998;fill:#839496;fill-opacity:1;stroke-width:2;stroke-linejoin:round;stroke-opacity:0.996078;stop-color:#000000"
     d="m 17.767537,132.54836 c -0.374028,0 -0.494829,0.34745 -0.675141,0.67514 l -0.675141,2.45266 c -0.07096,0.0183 -0.139123,0.0438 -0.209664,0.0633 -0.06846,0.0189 -0.137452,0.0341 -0.205706,0.0541 -0.103507,0.0302 -0.204401,0.0688 -0.307242,0.10154 -0.118246,0.0377 -0.239123,0.0686 -0.356032,0.10944 -0.06631,0.0231 -0.129369,0.0524 -0.195158,0.0765 -0.06179,0.0227 -0.124371,0.041 -0.185927,0.0646 -0.114338,0.0438 -0.225617,0.0967 -0.33889,0.14373 -0.101082,0.042 -0.20471,0.0782 -0.304604,0.12263 -0.07343,0.0326 -0.143578,0.0704 -0.216257,0.10417 -0.0013,5.8e-4 -0.0027,7.4e-4 -0.004,0.001 -0.05051,0.0236 -0.102654,0.0417 -0.152962,0.0659 -0.118357,0.0569 -0.232535,0.12282 -0.349438,0.18329 -0.08497,0.044 -0.173186,0.0821 -0.257134,0.1279 -0.08418,0.0459 -0.16489,0.0962 -0.247904,0.14374 -0.05001,0.0286 -0.101943,0.0524 -0.151643,0.0817 l -2.21267,-1.25798 c -0.359193,-0.10429 -0.690216,-0.26448 -0.9546907,0 l -2.864076,2.86408 c -0.264479,0.26447 -0.104298,0.5955 0,0.95469 l 1.257977,2.21267 c -0.03262,0.0553 -0.0592,0.11309 -0.09098,0.16879 -0.04164,0.073 -0.08625,0.14368 -0.126589,0.21757 -0.05149,0.0942 -0.09578,0.192 -0.14505,0.28746 -0.05776,0.11209 -0.120909,0.22152 -0.175379,0.33494 -0.0069,0.0143 -0.01165,0.0292 -0.01846,0.0435 -0.01779,0.0374 -0.03268,0.0759 -0.05011,0.1134 -0.03211,0.0691 -0.0679,0.13594 -0.0989,0.20571 -0.04713,0.10589 -0.0861,0.21584 -0.130545,0.32306 -0.04553,0.11007 -0.09592,0.21859 -0.138456,0.32966 -0.02412,0.0628 -0.04279,0.12683 -0.06593,0.18989 -0.01776,0.0484 -0.03949,0.0951 -0.05671,0.14373 -0.0035,0.01 -0.0084,0.0204 -0.01187,0.0303 -0.04172,0.11884 -0.07495,0.24107 -0.113402,0.3613 -0.03418,0.10709 -0.0727,0.21262 -0.104172,0.32043 -0.02052,0.0701 -0.03736,0.14062 -0.0567,0.21098 -0.01877,0.0683 -0.04295,0.1344 -0.06066,0.20307 l -2.4526267,0.67379 c -0.3277231,0.18068 -0.6751266,0.30156 -0.6751233,0.67559 v 4.05084 c -1.4e-6,0.37403 0.3473992,0.4949 0.6751413,0.67514 l 2.4526607,0.67515 c 0.01811,0.0701 0.04409,0.13729 0.06329,0.20702 0.01876,0.0681 0.0342,0.13647 0.05407,0.20439 0.03196,0.10954 0.07073,0.21691 0.105491,0.3257 0.03777,0.11796 0.06984,0.23809 0.110765,0.35472 4.56e-4,0.001 8.78e-4,0.003 0.0014,0.004 0.01967,0.056 0.04554,0.10914 0.06593,0.16483 6.19e-4,0.002 6.75e-4,0.004 0.0014,0.005 0.0236,0.0643 0.04262,0.12973 0.06725,0.19383 0.04434,0.11574 0.09746,0.22821 0.14505,0.34285 0.04167,0.10015 0.0773,0.20298 0.121314,0.30197 0.03258,0.0735 0.07036,0.14356 0.104172,0.21625 0.02478,0.0532 0.04436,0.10793 0.06989,0.16088 0.05068,0.10532 0.109994,0.20702 0.163511,0.3112 0.05281,0.10262 0.101552,0.20741 0.156917,0.30856 0.03667,0.0671 0.07698,0.13146 0.114722,0.19779 0.0346,0.0608 0.0633,0.12426 0.0989,0.18461 l -1.257978,2.21135 c -0.1043,0.3592 -0.264478,0.69022 0,0.95469 l 2.864076,2.86408 c 0.2644777,0.26448 0.5954967,0.1043 0.9546917,0 l 2.211351,-1.25798 c 0.06008,0.0354 0.122759,0.0644 0.18329,0.0989 0.06666,0.0379 0.131697,0.0779 0.199114,0.11472 0.09287,0.0508 0.18939,0.095 0.283507,0.14373 0.11469,0.0592 0.226759,0.12356 0.342845,0.17934 0.05603,0.027 0.113825,0.0477 0.170104,0.0738 0.0036,0.002 0.007,0.004 0.01055,0.005 0.05907,0.0273 0.115807,0.0579 0.175379,0.0844 0.100948,0.045 0.205078,0.0827 0.307242,0.12527 0.119502,0.0497 0.236662,0.10548 0.35735,0.15164 0.0662,0.0254 0.133963,0.0443 0.200433,0.0686 0.05914,0.0216 0.115815,0.0478 0.175378,0.0686 0.103169,0.0361 0.209622,0.064 0.313836,0.0976 0.117895,0.0379 0.234619,0.0801 0.353394,0.11472 0.08283,0.0242 0.166096,0.0433 0.249222,0.0659 0.05475,0.0149 0.107193,0.0359 0.162192,0.0501 l 0.675077,2.45397 c 0.180238,0.32774 0.301113,0.67514 0.675141,0.67514 h 4.050847 c 0.374029,0 0.494904,-0.3474 0.675142,-0.67514 l 0.675141,-2.4553 c 0.06109,-0.0158 0.119869,-0.0375 0.180653,-0.0541 0.07671,-0.021 0.154308,-0.037 0.230761,-0.0593 0.121261,-0.0354 0.239644,-0.0799 0.359988,-0.11868 0.100209,-0.0324 0.202724,-0.059 0.301967,-0.0936 0.06298,-0.022 0.123419,-0.0484 0.185927,-0.0712 0.06659,-0.0244 0.134108,-0.0444 0.200433,-0.0699 0.120025,-0.046 0.237182,-0.10085 0.356032,-0.15032 0.100228,-0.0418 0.202911,-0.0785 0.301967,-0.12264 0.06226,-0.0277 0.121568,-0.0598 0.18329,-0.0883 0.05755,-0.0267 0.116834,-0.049 0.174061,-0.0765 0.117301,-0.0564 0.230925,-0.12079 0.346801,-0.18066 0.09269,-0.048 0.18807,-0.091 0.27955,-0.14109 0.06812,-0.0372 0.133076,-0.079 0.200433,-0.11736 0.06001,-0.0342 0.122409,-0.0624 0.181971,-0.0976 l 2.210033,1.25798 c 0.359189,0.10429 0.691539,0.26447 0.95601,0 l 2.864076,-2.86408 c 0.264479,-0.26448 0.104216,-0.59548 0,-0.95469 l -1.257978,-2.21267 c 0.03674,-0.0623 0.06718,-0.1271 0.102853,-0.18988 0.03422,-0.0602 0.07084,-0.11851 0.104173,-0.17934 0.0099,-0.018 0.02185,-0.0347 0.03164,-0.0527 0.04382,-0.0807 0.07912,-0.16623 0.121314,-0.2479 0.05852,-0.11347 0.122865,-0.22406 0.178016,-0.33889 4.26e-4,-8.8e-4 8.78e-4,-0.002 0.0014,-0.003 0.02784,-0.0579 0.04952,-0.11723 0.07648,-0.17538 0.02748,-0.0594 0.05773,-0.11679 0.08439,-0.1767 0.04701,-0.10537 0.08751,-0.21373 0.131864,-0.32043 0.04584,-0.11053 0.09696,-0.21943 0.139775,-0.33097 0.02851,-0.0741 0.05066,-0.14972 0.0778,-0.22417 0.06147,-0.16858 0.117905,-0.33889 0.172741,-0.51031 0.0321,-0.10058 0.06919,-0.19944 0.0989,-0.30065 0.02487,-0.0845 0.04541,-0.16965 0.06857,-0.2545 0.01648,-0.0604 0.03841,-0.11864 0.05407,-0.17933 l 2.452632,-0.67383 c 0.327733,-0.18023 0.675144,-0.30112 0.675142,-0.67514 v -4.05084 c 10e-7,-0.37403 -0.347448,-0.49484 -0.675142,-0.67515 l -2.452661,-0.67514 c -0.01811,-0.0701 -0.04409,-0.13729 -0.06329,-0.20702 -0.01872,-0.068 -0.03292,-0.13661 -0.05275,-0.20439 -0.032,-0.10964 -0.07201,-0.21681 -0.10681,-0.3257 -0.0382,-0.11929 -0.07066,-0.24075 -0.112083,-0.35867 -0.01969,-0.0562 -0.04554,-0.10902 -0.06593,-0.16483 -0.0242,-0.0661 -0.04329,-0.13331 -0.06857,-0.19912 -0.0448,-0.11691 -0.09825,-0.231 -0.146368,-0.3468 -0.04117,-0.0988 -0.07654,-0.20029 -0.119996,-0.29801 -0.03272,-0.0737 -0.07021,-0.14458 -0.104172,-0.21757 -0.02363,-0.0507 -0.04295,-0.10248 -0.06725,-0.15297 -0.05357,-0.11147 -0.114683,-0.21947 -0.171423,-0.32965 -0.04975,-0.0965 -0.09568,-0.19497 -0.147687,-0.2901 -0.04072,-0.0746 -0.08453,-0.14652 -0.126589,-0.22022 -0.03179,-0.0557 -0.05835,-0.11347 -0.09099,-0.16878 l 1.257978,-2.21135 c 0.104296,-0.35919 0.264478,-0.69022 0,-0.95469 l -2.864076,-2.86408 c -0.264478,-0.26448 -0.595478,-0.10421 -0.954691,0 l -2.212671,1.25798 c -0.05866,-0.0346 -0.120248,-0.0626 -0.179334,-0.0963 -0.06737,-0.0384 -0.132299,-0.0801 -0.200432,-0.11736 -0.101429,-0.0555 -0.206962,-0.10397 -0.30988,-0.15692 -0.104173,-0.0535 -0.205876,-0.11283 -0.311198,-0.16351 -0.05957,-0.0287 -0.120795,-0.0513 -0.180653,-0.0791 -0.05694,-0.0264 -0.111379,-0.0561 -0.168785,-0.0817 -0.120114,-0.0537 -0.243426,-0.10005 -0.365262,-0.15033 -0.09631,-0.0396 -0.190387,-0.0853 -0.287463,-0.12263 -0.08335,-0.0322 -0.168089,-0.0579 -0.251859,-0.0883 -0.03391,-0.0123 -0.06618,-0.0275 -0.100216,-0.0396 -0.01081,-0.004 -0.02083,-0.009 -0.03164,-0.0132 -8.77e-4,-3.2e-4 -0.0018,-0.001 -0.0026,-0.001 -0.116631,-0.0409 -0.236748,-0.073 -0.354713,-0.11077 -0.102372,-0.0327 -0.20289,-0.0713 -0.305923,-0.10153 -0.08575,-0.0252 -0.172384,-0.0451 -0.258453,-0.0686 -0.05906,-0.0161 -0.116034,-0.0374 -0.175378,-0.0528 l -0.673824,-2.45263 c -0.180433,-0.32721 -0.301308,-0.67462 -0.675337,-0.67462 z m 2.012238,9.45198 a 6.7514124,6.7514124 0 0 1 0.01319,0 c 0.03476,0 0.06942,0.005 0.104172,0.005 0.186028,0.003 0.37042,0.0101 0.552508,0.0277 0.0013,1.2e-4 0.0026,-1.3e-4 0.004,0 0.124031,0.0121 0.2472,0.0351 0.370537,0.0541 0.01884,0.003 0.03792,0.005 0.0567,0.008 0.07774,0.0126 0.156576,0.0217 0.233398,0.0369 0.124163,0.0247 0.246332,0.058 0.369218,0.0897 0.01014,0.003 0.02019,0.005 0.03033,0.008 0.07405,0.0195 0.149818,0.0348 0.222849,0.0567 0.0018,5.2e-4 0.0036,8.1e-4 0.0053,0.001 0.0014,4e-4 0.0026,9.4e-4 0.004,0.001 0.124455,0.0375 0.246669,0.0844 0.369218,0.12922 0.0097,0.004 0.01935,0.007 0.02901,0.0106 0.07146,0.0266 0.144648,0.0489 0.214937,0.0778 8.78e-4,3.7e-4 0.0018,9.4e-4 0.0026,0.001 0.0049,0.002 0.0096,0.005 0.0145,0.007 0.108317,0.0448 0.214094,0.0983 0.320429,0.14901 0.01633,0.008 0.03253,0.0158 0.04879,0.0237 0.0746,0.0364 0.151136,0.0691 0.224168,0.10812 0.0012,6.6e-4 0.0028,6.7e-4 0.004,0.001 0.05384,0.0288 0.105033,0.0633 0.158236,0.0936 0.03504,0.02 0.06942,0.0413 0.104172,0.062 0.0091,0.005 0.01859,0.0103 0.02769,0.0158 0.09211,0.0554 0.186414,0.10785 0.275595,0.16747 0.122185,0.0817 0.239539,0.17189 0.35735,0.26241 0.01098,0.008 0.02202,0.0165 0.03297,0.0251 0.04289,0.0333 0.0885,0.0632 0.130545,0.0976 9.45e-4,8.1e-4 0.0017,0.002 0.0026,0.003 0.143272,0.1173 0.281227,0.24495 0.416688,0.37581 0.02524,0.0244 0.05285,0.045 0.0778,0.0699 0.0031,0.003 0.0061,0.006 0.0092,0.009 0.159885,0.15988 0.309159,0.32592 0.449655,0.49713 0.038,0.0463 0.07136,0.0964 0.108128,0.14373 0.02275,0.0293 0.04366,0.06 0.06593,0.0897 0.07353,0.098 0.150069,0.19446 0.217574,0.29538 0.0014,0.002 0.0026,0.004 0.004,0.007 0.04111,0.0616 0.07692,0.12685 0.11604,0.18989 0.01061,0.0171 0.02118,0.0342 0.03164,0.0514 0.06196,0.10196 0.125898,0.20284 0.181972,0.30725 0.0014,0.003 0.0026,0.005 0.004,0.008 0.04933,0.092 0.09201,0.1877 0.137138,0.28219 0.001,0.002 0.0016,0.004 0.0026,0.007 0.04709,0.0991 0.09647,0.19718 0.138457,0.29801 1.52e-4,3.7e-4 -1.53e-4,9.5e-4 0,0.001 a 6.7514124,6.7514124 0 0 1 0.01319,0.0303 c 0.02483,0.0603 0.04413,0.1234 0.06725,0.18461 0.01223,0.0324 0.02385,0.065 0.0356,0.0976 0.03731,0.10396 0.07739,0.20719 0.109447,0.31252 0.02624,0.086 0.04571,0.17497 0.06857,0.2624 0.003,0.0113 0.005,0.0229 0.0079,0.0343 0.02532,0.0992 0.05309,0.19795 0.07384,0.29801 0.0034,0.0164 0.0086,0.0324 0.01187,0.0488 8.4e-5,4.2e-4 -8.3e-5,8.8e-4 0,0.001 0.02197,0.11017 0.03489,0.2229 0.05143,0.33494 0.01474,0.0997 0.03456,0.19915 0.04484,0.29933 1.78e-4,0.002 -1.75e-4,0.004 0,0.005 0.0156,0.15439 0.02135,0.31215 0.02637,0.46944 0.0022,0.0685 0.01042,0.13534 0.01055,0.20439 4.8e-5,0.0251 -0.0024,0.0501 -0.0026,0.0752 -0.0019,0.20542 -0.01182,0.40856 -0.03164,0.60921 -0.01057,0.10635 -0.03055,0.21194 -0.04615,0.31779 -6.52e-4,0.004 -0.002,0.009 -0.0026,0.0132 -0.01529,0.10241 -0.02632,0.2064 -0.04615,0.30725 -0.01413,0.0718 -0.03495,0.14219 -0.05143,0.21361 -0.01312,0.0569 -0.02758,0.1135 -0.0422,0.17011 -0.0225,0.087 -0.04141,0.17552 -0.06725,0.26109 -0.0328,0.10884 -0.07366,0.21567 -0.112084,0.32306 -0.03731,0.10398 -0.07252,0.20966 -0.114721,0.3112 -5.31e-4,0.001 -8.1e-4,0.003 -0.0014,0.004 -0.01684,0.0406 -0.03771,0.0797 -0.05538,0.12 -0.02414,0.055 -0.0508,0.109 -0.07648,0.16351 -0.04735,0.10023 -0.09167,0.20188 -0.143731,0.29933 -0.0018,0.003 -0.0034,0.007 -0.0053,0.0105 -0.03223,0.0602 -0.07131,0.11732 -0.10549,0.1767 -0.02877,0.05 -0.05818,0.0996 -0.08835,0.14901 -0.04775,0.0781 -0.09293,0.15871 -0.143731,0.23471 -5.42e-4,8.1e-4 -7.43e-4,0.002 -0.0014,0.003 -0.08215,0.12274 -0.172659,0.24167 -0.263727,0.35998 -0.03619,0.047 -0.06789,0.0961 -0.10549,0.14242 -0.002,0.002 -0.0047,0.004 -0.0066,0.007 -0.113568,0.13938 -0.237577,0.27279 -0.363943,0.40482 -0.03165,0.0331 -0.05854,0.069 -0.09099,0.10154 -0.0031,0.003 -0.0061,0.006 -0.0092,0.009 -0.158553,0.15855 -0.32348,0.30753 -0.493169,0.44702 0,0 -0.0014,0.001 -0.0014,0.001 a 6.7514124,6.7514124 0 0 1 -0.0014,0.001 c -0.0022,0.002 -0.0045,0.004 -0.0066,0.005 -0.04882,0.0399 -0.101696,0.0748 -0.151644,0.11341 -0.0077,0.006 -0.01599,0.0112 -0.02374,0.0171 -0.02644,0.0202 -0.05369,0.0395 -0.08044,0.0593 -0.08667,0.0644 -0.172125,0.13153 -0.26109,0.1912 -0.09779,0.0656 -0.200647,0.12409 -0.301968,0.18461 -0.08656,0.0516 -0.171467,0.10685 -0.25977,0.15428 -0.0031,0.002 -0.0061,0.004 -0.0092,0.005 -0.0889,0.0476 -0.181735,0.0882 -0.272958,0.13187 -0.0048,0.002 -0.0097,0.004 -0.0145,0.007 -0.0012,6e-4 -0.0027,7.5e-4 -0.004,0.001 -8.78e-4,4.2e-4 -0.0018,8.8e-4 -0.0026,0.001 -0.09701,0.046 -0.192763,0.0947 -0.291419,0.13582 -0.0031,0.001 -0.0061,0.003 -0.0092,0.004 a 6.7514124,6.7514124 0 0 1 -0.02632,0.0101 c -0.08635,0.0355 -0.175622,0.0643 -0.263727,0.0963 -0.0049,0.002 -0.0097,0.004 -0.0145,0.005 -0.0474,0.017 -0.09472,0.0342 -0.142412,0.0501 -0.06126,0.0205 -0.12158,0.0447 -0.18329,0.0633 -0.07056,0.0214 -0.143426,0.0363 -0.214938,0.0554 -0.01142,0.003 -0.02285,0.006 -0.03428,0.009 -0.09333,0.0243 -0.186768,0.0483 -0.280869,0.0686 -0.03723,0.008 -0.07343,0.0203 -0.110765,0.0277 -0.0018,3.5e-4 -0.0035,9.5e-4 -0.0053,0.001 -8.1e-4,1.7e-4 -0.0018,-1.6e-4 -0.0026,0 -0.12034,0.0237 -0.244038,0.0382 -0.36658,0.0554 -0.09153,0.0128 -0.182388,0.0305 -0.274277,0.0396 -0.168527,0.0166 -0.339694,0.0224 -0.51163,0.0264 -0.01331,3.1e-4 -0.02624,0.002 -0.03956,0.003 -0.03916,6.6e-4 -0.07824,0.005 -0.117378,0.005 -0.222353,0 -0.442478,-0.012 -0.659317,-0.033 -0.110452,-0.0108 -0.219746,-0.0313 -0.32966,-0.0475 -0.01008,-0.001 -0.02026,-0.002 -0.03033,-0.004 -0.09843,-0.0149 -0.198389,-0.027 -0.295374,-0.0462 -8.11e-4,-1.7e-4 -0.0018,1.7e-4 -0.0026,0 -0.0284,-0.006 -0.05606,-0.0151 -0.08439,-0.0211 -0.09771,-0.0207 -0.194527,-0.0462 -0.291418,-0.0712 -0.08697,-0.0225 -0.175521,-0.0414 -0.26109,-0.0673 -0.130213,-0.0393 -0.258246,-0.0872 -0.38636,-0.1345 -0.07596,-0.0281 -0.153486,-0.0523 -0.228125,-0.0831 a 6.7514124,6.7514124 0 0 1 -0.0066,-0.003 c -8.78e-4,-3.8e-4 -0.0018,-9.5e-4 -0.0026,-10e-4 -8.78e-4,-3.8e-4 -0.0018,-9.5e-4 -0.0026,-0.001 -0.10002,-0.0413 -0.197033,-0.0908 -0.295374,-0.13714 -0.0012,-5.9e-4 -0.0027,-7.4e-4 -0.004,-10e-4 -0.09931,-0.047 -0.200114,-0.0908 -0.296693,-0.14241 -5.14e-4,-2.8e-4 -8.1e-4,-0.001 -0.0013,-0.001 -0.0026,-0.001 -0.0053,-0.003 -0.0079,-0.004 -0.10944,-0.0586 -0.215,-0.12612 -0.321747,-0.1912 -0.0014,-8.1e-4 -0.0026,-0.002 -0.004,-0.003 -0.07911,-0.0483 -0.160434,-0.0936 -0.237354,-0.14505 -0.122743,-0.0822 -0.241671,-0.17266 -0.359988,-0.26373 -7.43e-4,-5.9e-4 -0.0019,-7.4e-4 -0.0026,-0.001 -0.05446,-0.0419 -0.111698,-0.0804 -0.164829,-0.12395 -0.0017,-10e-4 -0.0036,-0.003 -0.0053,-0.004 -0.04194,-0.0345 -0.08002,-0.0751 -0.121314,-0.11076 -0.125594,-0.10839 -0.251334,-0.21708 -0.370536,-0.33625 -0.05656,-0.0566 -0.105423,-0.11735 -0.159556,-0.17538 -0.09826,-0.10532 -0.19851,-0.20923 -0.28878,-0.31911 0,0 -0.0014,-0.001 -0.0014,-0.001 -0.0016,-0.002 -0.0024,-0.005 -0.004,-0.007 -0.03755,-0.0459 -0.07046,-0.0955 -0.106809,-0.14241 -0.0085,-0.0109 -0.01666,-0.022 -0.02506,-0.033 -0.09015,-0.11771 -0.182371,-0.2366 -0.263727,-0.35867 -0.05114,-0.0768 -0.0957,-0.15839 -0.143731,-0.23735 -0.06194,-0.10192 -0.125917,-0.20288 -0.181972,-0.30724 -0.0014,-0.003 -0.0026,-0.005 -0.004,-0.008 -0.05017,-0.0935 -0.09264,-0.19133 -0.138457,-0.28746 -2.53e-4,-5.3e-4 -0.0011,-8.1e-4 -0.0013,-0.001 -10e-4,-0.002 -0.0016,-0.004 -0.0026,-0.007 -0.04596,-0.097 -0.09474,-0.19277 -0.13582,-0.29142 a 6.7514124,6.7514124 0 0 1 -0.01431,-0.0353 c -0.03742,-0.0911 -0.06804,-0.18519 -0.101535,-0.27823 -0.03887,-0.10829 -0.08024,-0.21595 -0.113402,-0.32571 -0.02478,-0.0818 -0.04289,-0.1661 -0.06461,-0.24922 -0.03441,-0.13194 -0.07128,-0.26348 -0.09758,-0.39691 -0.02643,-0.13415 -0.04362,-0.2719 -0.06198,-0.40877 -0.01011,-0.0753 -0.02539,-0.14996 -0.03297,-0.22549 a 6.7514124,6.7514124 0 0 1 0,-0.005 6.7514124,6.7514124 0 0 1 -0.0014,-0.0145 c -0.01596,-0.16514 -0.02114,-0.3327 -0.02502,-0.50109 -0.0011,-0.0483 -0.0078,-0.0952 -0.0079,-0.14373 a 6.7514124,6.7514124 0 0 1 0,-0.0132 c 0,-0.22282 0.01188,-0.44336 0.03297,-0.66064 a 6.7514124,6.7514124 0 0 1 0.0013,-0.0171 c 0.003,-0.0296 0.0098,-0.0588 0.01319,-0.0883 0.0098,-0.0865 0.02508,-0.17231 0.03824,-0.25845 0.01455,-0.0953 0.02503,-0.19217 0.04351,-0.28614 1.65e-4,-8.1e-4 -1.65e-4,-0.002 0,-0.003 0.02212,-0.11212 0.0539,-0.22251 0.08176,-0.33361 0.02643,-0.10527 0.04912,-0.21191 0.08044,-0.31516 2.77e-4,-9.4e-4 10e-4,-0.002 0.0014,-0.003 0.03154,-0.10403 0.07146,-0.20585 0.108128,-0.30856 1.39e-4,-3.9e-4 -1.4e-4,-9.4e-4 0,-0.001 0.03447,-0.0962 0.06683,-0.19333 0.105491,-0.28746 a 6.7514124,6.7514124 0 0 1 0.0092,-0.0251 6.7514124,6.7514124 0 0 1 0.0013,-0.003 c 0.04463,-0.10758 0.09726,-0.21217 0.147687,-0.31779 0.0026,-0.005 0.0053,-0.0105 0.0079,-0.0158 0.03877,-0.0805 0.07422,-0.16266 0.11604,-0.24131 a 6.7514124,6.7514124 0 0 1 0.0026,-0.005 c 0.0021,-0.004 0.0045,-0.008 0.0066,-0.0119 0.06538,-0.12224 0.138861,-0.24112 0.212301,-0.35999 0.02068,-0.0334 0.04073,-0.0672 0.06198,-0.10021 0.02005,-0.0312 0.03748,-0.0641 0.05802,-0.0949 0.07408,-0.11118 0.157297,-0.21811 0.238673,-0.3257 0.05345,-0.0707 0.102106,-0.14514 0.158237,-0.21362 0.0014,-0.002 0.0026,-0.004 0.004,-0.005 0.0033,-0.004 0.0072,-0.008 0.01055,-0.0119 0.08443,-0.10223 0.177633,-0.19844 0.269002,-0.2967 0.05656,-0.0608 0.108242,-0.12406 0.167467,-0.18329 0.0031,-0.003 0.0061,-0.006 0.0092,-0.009 0.156115,-0.15551 0.318389,-0.30069 0.485258,-0.43778 0.07351,-0.0603 0.152073,-0.1142 0.228124,-0.17143 0.09828,-0.074 0.195423,-0.15097 0.296693,-0.21889 0.0013,-8.8e-4 0.0026,-0.002 0.004,-0.003 0.09037,-0.0605 0.186167,-0.11394 0.279551,-0.17011 0.0918,-0.0552 0.181821,-0.11309 0.275595,-0.16351 0.0034,-0.002 0.0071,-0.003 0.01055,-0.005 0.08808,-0.0472 0.179955,-0.0872 0.270321,-0.13055 0.11289,-0.0541 0.225079,-0.11081 0.340208,-0.15823 0.08656,-0.0357 0.176717,-0.0641 0.265045,-0.0963 0.111372,-0.0405 0.221984,-0.0829 0.334934,-0.11736 0.105466,-0.0322 0.214155,-0.0573 0.321746,-0.0844 0.01014,-0.003 0.02017,-0.005 0.03033,-0.008 0.09835,-0.0243 0.196226,-0.0514 0.295374,-0.0712 0.104141,-0.0208 0.210662,-0.0342 0.316473,-0.0501 0.01675,-0.002 0.03332,-0.006 0.05011,-0.008 0.0642,-0.009 0.128126,-0.0204 0.19252,-0.0277 0.03216,-0.004 0.06406,-0.01 0.09626,-0.0132 0.122368,-0.0121 0.247654,-0.0143 0.371856,-0.0198 0.06121,-0.003 0.121665,-0.008 0.18329,-0.009 0.03434,-5.8e-4 0.06851,-0.005 0.102854,-0.005 z" /><path
     id="path869"
     style="opacity:0.998;fill:#839496;fill-opacity:1;stroke-width:2;stroke-linejoin:round;stroke-opacity:0.996078;stop-color:#000000"
     d="m 25.901058,166.79764 c -0.134032,0.34918 0.147046,0.58647 0.388362,0.87223 l 2.047798,1.50926 c -0.0084,0.0728 -0.009,0.14558 -0.01604,0.21843 -0.0069,0.0706 -0.01744,0.14055 -0.0232,0.21143 -0.0089,0.10738 -0.009,0.21549 -0.01531,0.32323 -0.0072,0.12394 -0.02165,0.24782 -0.02543,0.3716 -0.0022,0.0702 0.0026,0.13953 0.0015,0.2096 -8.65e-4,0.0659 -0.0063,0.13085 -0.0063,0.19675 -1.03e-4,0.12246 0.0094,0.24532 0.01273,0.36788 0.0029,0.10947 -3.87e-4,0.21918 0.0053,0.32831 0.0041,0.0803 0.0143,0.15924 0.01971,0.23924 1.3e-4,0.001 10e-7,0.002 -5.01e-4,0.004 0.0039,0.0556 0.0022,0.11074 0.0067,0.16645 0.01068,0.13092 0.03131,0.26111 0.04589,0.3919 0.01061,0.0951 0.01458,0.1911 0.02724,0.2859 0.01269,0.095 0.0307,0.18844 0.0454,0.28293 0.0088,0.0569 0.0124,0.11394 0.0219,0.17089 l -1.967379,1.61488 c -0.226079,0.29796 -0.494265,0.54958 -0.342132,0.89128 l 1.647464,3.70024 c 0.152119,0.34168 0.518573,0.31077 0.89127,0.34213 l 2.516525,-0.38147 c 0.04,0.0502 0.08435,0.0958 0.124971,0.14542 0.05336,0.0651 0.103233,0.13203 0.157734,0.19616 0.06949,0.0819 0.144888,0.15824 0.216395,0.23842 0.08394,0.0941 0.163457,0.19224 0.249849,0.28376 0.0106,0.0117 0.02328,0.0211 0.03401,0.0328 0.02843,0.0304 0.05916,0.0577 0.08788,0.0875 0.05305,0.0547 0.102536,0.11214 0.156565,0.16606 0.08203,0.0819 0.170584,0.15776 0.254824,0.23763 0.08637,0.082 0.16969,0.1679 0.258143,0.24741 0.05008,0.045 0.103047,0.0854 0.153681,0.12961 0.03909,0.0337 0.07462,0.071 0.113819,0.10444 0.0083,0.006 0.0159,0.0151 0.0242,0.0217 0.09596,0.0815 0.198203,0.15638 0.296659,0.23534 0.08779,0.0703 0.172419,0.14405 0.261801,0.21211 0.05837,0.0439 0.118067,0.085 0.176645,0.12854 0.05713,0.0419 0.110124,0.0882 0.167857,0.1294 l -0.249903,2.5312 c 0.05124,0.3707 0.03958,0.73835 0.38878,0.87239 l 3.781781,1.45169 c 0.349206,0.13402 0.58653,-0.14697 0.872247,-0.38835 l 1.509265,-2.04781 c 0.07196,0.008 0.143989,0.008 0.215958,0.0151 0.07031,0.007 0.139635,0.017 0.210195,0.0228 0.113723,0.009 0.227828,0.0117 0.341876,0.0182 0.123681,0.007 0.247286,0.0202 0.370835,0.0237 0.0011,-6e-5 0.0036,0.001 0.0043,-7.8e-4 0.05933,0.002 0.118203,-0.003 0.177515,-0.002 0.0021,1.4e-4 0.0036,0.001 0.0052,-1.8e-4 0.06853,9.9e-4 0.136406,0.007 0.205026,0.007 0.123917,1e-4 0.247982,-0.009 0.372065,-0.0126 0.10841,-0.003 0.217216,6e-4 0.325389,-0.005 0.0803,-0.004 0.159225,-0.0143 0.239238,-0.0197 0.05853,-0.004 0.116672,-0.003 0.175233,-0.008 0.116485,-0.01 0.232676,-0.0285 0.349126,-0.0411 0.114703,-0.0126 0.230009,-0.0205 0.344296,-0.0359 0.07577,-0.0102 0.150325,-0.0248 0.225751,-0.0363 0.06917,-0.0105 0.138658,-0.0145 0.207785,-0.0262 l 1.613652,1.96689 c 0.297992,0.22607 0.549596,0.49426 0.891285,0.34214 l 3.700234,-1.64745 c 0.341694,-0.15214 0.31078,-0.51857 0.342125,-0.89128 l -0.38162,-2.51538 c 0.05454,-0.0434 0.104129,-0.0915 0.158034,-0.1357 0.05924,-0.0486 0.119908,-0.095 0.178433,-0.14478 0.08074,-0.0686 0.15658,-0.14281 0.235796,-0.21315 0.09636,-0.0858 0.196614,-0.16744 0.290291,-0.25579 0.04529,-0.0426 0.08533,-0.0892 0.129862,-0.13237 0.0032,-0.003 0.0065,-0.005 0.0084,-0.008 0.04668,-0.0454 0.09558,-0.0874 0.141643,-0.13347 0.07819,-0.0781 0.150694,-0.1618 0.227065,-0.24195 0.08923,-0.0938 0.183271,-0.18317 0.269632,-0.27927 0.04749,-0.0526 0.08936,-0.10918 0.13586,-0.16251 0.0414,-0.0474 0.08613,-0.091 0.126896,-0.13915 0.0707,-0.0834 0.134873,-0.17276 0.203589,-0.25801 0.07764,-0.0965 0.158857,-0.19033 0.23375,-0.28882 0.05226,-0.0687 0.09991,-0.13953 0.150829,-0.20904 0.03357,-0.0458 0.07192,-0.0872 0.104905,-0.13351 l 2.5329,0.24919 c 0.370554,-0.0508 0.738197,-0.0392 0.872243,-0.38834 l 1.451686,-3.7818 c 0.134047,-0.34919 -0.146965,-0.58652 -0.388346,-0.87225 l -2.050272,-1.5102 c 0.0071,-0.0627 0.0079,-0.12531 0.01425,-0.18805 0.0079,-0.0792 0.0208,-0.15737 0.02734,-0.23668 0.0104,-0.12589 0.01128,-0.25236 0.01821,-0.37861 0.0056,-0.10523 0.01757,-0.21041 0.02083,-0.31546 0.0021,-0.0667 -9.89e-4,-0.13253 1.39e-4,-0.19907 10e-4,-0.071 0.0066,-0.1411 0.0066,-0.21217 3.3e-5,-0.1285 -0.0092,-0.25757 -0.01274,-0.38626 -0.0031,-0.10851 -5.48e-4,-0.2176 -0.0063,-0.32585 -0.0036,-0.068 -0.01225,-0.13496 -0.01673,-0.2028 -0.0043,-0.0632 -0.0038,-0.12666 -0.009,-0.18992 -0.01059,-0.12975 -0.02999,-0.25889 -0.04438,-0.38851 -0.0116,-0.10376 -0.01759,-0.20816 -0.03155,-0.31154 -0.01022,-0.0769 -0.02609,-0.15252 -0.03777,-0.22916 -0.01039,-0.0684 -0.01441,-0.13661 -0.02588,-0.20489 l 1.966439,-1.61243 c 0.226087,-0.29796 0.494725,-0.55084 0.342603,-0.89251 l -1.647454,-3.70025 c -0.152135,-0.3417 -0.518597,-0.31066 -0.891275,-0.34213 l -2.516526,0.38148 c -0.04503,-0.0566 -0.09461,-0.1083 -0.140357,-0.16412 -0.04399,-0.0535 -0.08525,-0.10855 -0.130021,-0.16158 -0.0135,-0.0159 -0.02449,-0.0328 -0.03783,-0.0484 -0.0597,-0.0699 -0.126843,-0.13341 -0.187964,-0.20207 -0.08501,-0.0953 -0.165172,-0.19503 -0.252585,-0.28765 -6.65e-4,-7.2e-4 -0.0015,-0.001 -0.0022,-0.002 -0.04413,-0.0467 -0.09174,-0.0882 -0.136279,-0.13428 -0.04556,-0.047 -0.08835,-0.0958 -0.134742,-0.14212 -0.08159,-0.0816 -0.168244,-0.15826 -0.25188,-0.23797 -0.08673,-0.0824 -0.170133,-0.16915 -0.258892,-0.24909 -0.05902,-0.0531 -0.121653,-0.10094 -0.181405,-0.15298 -0.135324,-0.11781 -0.274102,-0.23154 -0.414489,-0.34417 -0.08236,-0.066 -0.161404,-0.13606 -0.245245,-0.20005 -0.06982,-0.0537 -0.142145,-0.10304 -0.213015,-0.15526 -0.05023,-0.0374 -0.09696,-0.0784 -0.148077,-0.11476 l 0.249872,-2.53121 c -0.05083,-0.37056 -0.03917,-0.73822 -0.388355,-0.87226 l -3.781779,-1.45169 c -0.349206,-0.13401 -0.586487,0.14704 -0.872251,0.38835 l -1.509255,2.04781 c -0.07196,-0.008 -0.143993,-0.008 -0.215957,-0.0151 -0.07015,-0.007 -0.139316,-0.0182 -0.209714,-0.024 -0.113826,-0.009 -0.228216,-0.0105 -0.342359,-0.017 -0.125046,-0.007 -0.250087,-0.0203 -0.374999,-0.0239 -0.05956,-0.002 -0.118085,0.003 -0.177499,0.003 -0.07046,-0.001 -0.139975,-0.007 -0.210487,-0.007 -0.125189,-9e-5 -0.250841,0.009 -0.376205,0.0124 -0.107021,0.003 -0.214399,-3.2e-4 -0.321236,0.005 -0.08066,0.004 -0.160116,0.0137 -0.240453,0.0193 -0.0558,0.004 -0.111063,0.003 -0.166923,0.008 -0.123256,0.0101 -0.245996,0.0284 -0.369192,0.0419 -0.107916,0.0118 -0.21632,0.0195 -0.323762,0.0339 -0.08419,0.0114 -0.167038,0.0264 -0.250959,0.0393 -0.06341,0.01 -0.126809,0.0137 -0.19018,0.0245 l -1.613653,-1.96689 c -0.297978,-0.22606 -0.5496,-0.49427 -0.891275,-0.34214 l -3.700253,1.64746 c -0.341695,0.15213 -0.310682,0.51858 -0.342122,0.89127 l 0.381467,2.51654 c -0.05329,0.0423 -0.101533,0.0898 -0.15417,0.13289 -0.05999,0.0492 -0.122191,0.0948 -0.181418,0.14503 -0.08816,0.0748 -0.171242,0.15593 -0.257538,0.23305 -0.08727,0.0781 -0.179109,0.15178 -0.264181,0.23194 -0.0481,0.0454 -0.09117,0.0944 -0.138584,0.14031 -0.045,0.0436 -0.09229,0.0839 -0.136763,0.1283 -0.09317,0.0929 -0.180639,0.1914 -0.271243,0.28713 -0.07148,0.0757 -0.147855,0.14717 -0.21751,0.22442 -0.05985,0.0662 -0.114286,0.13616 -0.172691,0.2035 -0.02364,0.0272 -0.04939,0.0519 -0.07291,0.0794 -0.0077,0.009 -0.01576,0.016 -0.02372,0.0248 -6.14e-4,7.1e-4 -0.0015,10e-4 -0.0021,0.002 -0.07998,0.0943 -0.152991,0.19486 -0.23052,0.29146 -0.0672,0.0839 -0.139288,0.1639 -0.204424,0.24922 -0.05429,0.0711 -0.103902,0.14475 -0.156665,0.21669 -0.03627,0.0494 -0.0765,0.0949 -0.112154,0.14484 l -2.531201,-0.2499 c -0.37014,0.0512 -0.737794,0.0395 -0.871836,0.38874 z m 9.545309,1.50869 a 6.7514124,6.7514124 0 0 1 0.0046,-0.0119 c 0.01248,-0.0324 0.02956,-0.063 0.04201,-0.0954 0.06947,-0.1726 0.142183,-0.3422 0.223858,-0.50588 4.63e-4,-9e-4 0.0011,-0.003 0.0014,-0.004 0.05581,-0.11141 0.121362,-0.2182 0.183297,-0.32654 0.0095,-0.0165 0.01829,-0.0337 0.02774,-0.0501 0.03954,-0.068 0.07639,-0.13843 0.118099,-0.20468 0.0675,-0.10707 0.142406,-0.20919 0.216062,-0.31255 0.0062,-0.008 0.01188,-0.0171 0.01831,-0.0254 0.04482,-0.0622 0.08617,-0.12738 0.132773,-0.18775 0.0014,-0.001 0.0021,-0.003 0.0024,-0.004 5.4e-4,-8.4e-4 0.0013,-0.002 0.0025,-0.003 0.07962,-0.10277 0.167194,-0.20005 0.252968,-0.2984 0.0074,-0.008 0.01343,-0.0157 0.02027,-0.0233 0.05043,-0.0572 0.09748,-0.1175 0.149662,-0.17281 6.43e-4,-6.8e-4 0.0015,-0.001 0.0021,-0.002 0.0035,-0.004 0.0084,-0.008 0.01166,-0.0108 0.08064,-0.085 0.168505,-0.16466 0.253957,-0.24575 0.01328,-0.0124 0.02641,-0.0247 0.03966,-0.037 0.0607,-0.0566 0.118666,-0.11634 0.181251,-0.17057 7.35e-4,-7.2e-4 0.0013,-0.002 0.0025,-0.003 0.04616,-0.0399 0.09672,-0.0754 0.14408,-0.11418 0.03123,-0.0255 0.06345,-0.05 0.09521,-0.075 0.008,-0.007 0.01623,-0.0138 0.02488,-0.0199 0.08472,-0.0661 0.167468,-0.13543 0.255089,-0.19731 0.120048,-0.0848 0.246327,-0.16199 0.373053,-0.23954 0.01137,-0.007 0.02323,-0.0147 0.03508,-0.0222 0.04639,-0.0283 0.09071,-0.06 0.137907,-0.0869 8.78e-4,-4.8e-4 0.003,-0.002 0.0035,-0.001 0.160843,-0.0917 0.329484,-0.17471 0.500187,-0.25432 0.03186,-0.0148 0.06078,-0.0336 0.09299,-0.048 0.0035,-10e-4 0.0075,-0.003 0.01156,-0.005 0.206559,-0.092 0.415086,-0.17178 0.62526,-0.2416 0.05688,-0.0188 0.115604,-0.0321 0.172951,-0.0494 0.03563,-0.0104 0.07165,-0.0193 0.107355,-0.0294 0.117842,-0.0335 0.235326,-0.0704 0.353727,-0.0973 0.002,9e-5 0.0049,-0.002 0.0084,-0.002 0.07223,-0.0163 0.14598,-0.0264 0.218857,-0.0403 0.01993,-0.003 0.03949,-0.008 0.05932,-0.0111 0.117415,-0.0213 0.234476,-0.0448 0.352051,-0.0598 0.0033,-2.6e-4 0.0055,-1e-5 0.0085,-4.4e-4 0.103538,-0.013 0.208233,-0.0186 0.312607,-0.0269 0.002,9e-5 0.0043,-7.7e-4 0.0074,2e-5 0.109409,-0.008 0.218666,-0.0194 0.327832,-0.0225 4.06e-4,-1e-5 8.41e-4,4.7e-4 9.38e-4,3.6e-4 a 6.7514124,6.7514124 0 0 1 0.03308,-0.002 c 0.0652,-0.002 0.13103,0.003 0.196485,0.003 0.03466,10e-5 0.06921,10e-4 0.103863,0.002 0.110403,0.002 0.221182,0.002 0.33098,0.01 0.08969,0.006 0.179726,0.02 0.269556,0.03 0.01155,0.002 0.02335,0.003 0.03485,0.005 0.101616,0.0119 0.20384,0.0214 0.304666,0.0379 0.01647,0.002 0.03352,0.003 0.04982,0.006 4.23e-4,8e-5 7.88e-4,3.9e-4 9.27e-4,3.6e-4 0.110765,0.0189 0.220622,0.0473 0.33112,0.072 0.09835,0.022 0.19826,0.0392 0.295497,0.0654 0.0021,1.9e-4 0.0039,0.001 0.0053,0.002 0.149721,0.0407 0.299066,0.0919 0.447708,0.14358 0.06464,0.0227 0.130038,0.0388 0.194596,0.0634 0.0233,0.009 0.0458,0.0202 0.06915,0.0298 0.191085,0.0754 0.377198,0.15743 0.557443,0.24778 0.09546,0.048 0.18688,0.10454 0.280143,0.157 0.0032,0.002 0.0077,0.005 0.0118,0.007 0.08993,0.0512 0.183273,0.0985 0.270282,0.15323 0.06188,0.039 0.120022,0.0839 0.180938,0.12465 0.04845,0.0326 0.09626,0.0661 0.143688,0.10047 0.07311,0.0522 0.148996,0.10153 0.219646,0.15635 0.09013,0.0693 0.174907,0.14614 0.26142,0.22044 0.08377,0.072 0.169782,0.14281 0.249428,0.21862 6.87e-4,7.8e-4 0.0032,0.002 0.0033,0.003 0.03187,0.0302 0.06089,0.0637 0.09221,0.0947 0.04271,0.0423 0.08347,0.0865 0.125176,0.13005 0.07662,0.08 0.155602,0.15793 0.227905,0.24149 0.0018,0.004 0.0057,0.005 0.008,0.009 0.04473,0.0517 0.08392,0.10863 0.127111,0.16184 0.03634,0.0448 0.07214,0.09 0.107451,0.13583 0.05585,0.0725 0.11484,0.14362 0.16759,0.2183 5.59e-4,7.9e-4 0.0016,0.002 0.0022,0.002 0.08513,0.12074 0.163743,0.24778 0.241593,0.37519 0.03122,0.0504 0.06533,0.0979 0.09514,0.14954 9.23e-4,0.003 0.0019,0.006 0.0037,0.01 0.08935,0.15603 0.169529,0.31956 0.247504,0.48485 0.01955,0.0414 0.0431,0.0795 0.06174,0.12153 0.0018,0.004 0.0038,0.007 0.0051,0.0117 0.09122,0.20484 0.171164,0.4122 0.240623,0.62059 0,0 4.1e-4,9.1e-4 4.1e-4,9.1e-4 a 6.7514124,6.7514124 0 0 1 4e-4,9.2e-4 c 9.23e-4,0.003 0.0024,0.005 0.0019,0.008 0.02002,0.0597 0.0334,0.12173 0.05156,0.18219 0.0033,0.009 0.0051,0.0187 0.0072,0.0284 0.0098,0.0318 0.01765,0.0643 0.02656,0.0963 0.0291,0.10392 0.06111,0.20783 0.08495,0.31226 0.02614,0.11486 0.04397,0.23178 0.06412,0.34807 0.01717,0.0993 0.0383,0.19837 0.05093,0.29781 5.47e-4,0.004 0.0016,0.007 0.0013,0.0104 0.01255,0.10009 0.01724,0.20123 0.02526,0.3021 3.37e-4,0.005 2.14e-4,0.0109 0.0015,0.0158 1.61e-4,0.001 1e-6,0.002 -5.01e-4,0.004 7e-5,9.8e-4 -8.3e-5,0.002 1e-6,0.002 0.0081,0.1071 0.01936,0.21386 0.02238,0.32073 4.2e-4,0.003 7.15e-4,0.006 2.56e-4,0.01 a 6.7514124,6.7514124 0 0 1 3.6e-5,0.0282 c 0.0022,0.0934 -0.0029,0.18698 -0.0046,0.28073 3.37e-4,0.005 2.14e-4,0.0109 -7.27e-4,0.0156 -0.0011,0.0503 -0.002,0.10063 -0.0043,0.15093 -0.0028,0.0645 -0.0019,0.12955 -0.0066,0.19376 -0.0054,0.0735 -0.01748,0.14687 -0.02531,0.22051 -0.0012,0.0118 -0.0026,0.0235 -0.0039,0.0353 -0.01074,0.0958 -0.02183,0.19166 -0.03661,0.2868 -0.0059,0.0377 -0.0073,0.0757 -0.01381,0.11331 -1.67e-4,0.002 -4.6e-4,0.003 -0.0013,0.005 -1.36e-4,8.3e-4 -1.67e-4,0.002 -0.0011,0.003 -0.02098,0.12081 -0.05179,0.24152 -0.07965,0.36208 -0.02091,0.0899 -0.03688,0.18121 -0.06132,0.27026 -0.0449,0.16327 -0.100827,0.32515 -0.158705,0.4871 -0.0041,0.0128 -0.0075,0.0252 -0.01137,0.0379 -0.01337,0.0367 -0.02331,0.0748 -0.03741,0.11143 -0.07967,0.20758 -0.16977,0.40878 -0.267088,0.6037 -0.04962,0.0992 -0.107977,0.19394 -0.162487,0.29075 -0.0047,0.009 -0.0091,0.0182 -0.01455,0.0268 -0.04913,0.0865 -0.0963,0.17554 -0.148977,0.25918 -4.58e-4,7e-4 -1.66e-4,0.002 -0.0011,0.003 -0.01577,0.0243 -0.03414,0.0469 -0.04998,0.0713 -0.05433,0.0838 -0.112804,0.16507 -0.170942,0.24652 -0.05212,0.0731 -0.101531,0.149 -0.156396,0.21962 -0.08335,0.10749 -0.173957,0.20985 -0.264037,0.3125 -0.05346,0.0609 -0.103845,0.12458 -0.159334,0.18318 a 6.7514124,6.7514124 0 0 1 -0.0054,0.006 c -6.58e-4,7e-4 -0.0015,0.001 -0.0021,0.002 -6.86e-4,6.9e-4 -0.0015,0.001 -0.0021,0.002 -0.07438,0.0785 -0.15537,0.1514 -0.233886,0.22662 -7.04e-4,7.3e-4 -0.0013,0.002 -0.0031,0.004 -0.07947,0.0759 -0.156484,0.15429 -0.239298,0.22596 -4.44e-4,3.8e-4 -9.63e-4,2.8e-4 -0.0015,0.001 -0.0021,0.002 -0.0041,0.003 -0.006,0.006 -0.09394,0.0812 -0.194779,0.15557 -0.293813,0.23186 -0.0015,0.001 -0.003,0.002 -0.0045,0.003 -0.07343,0.0565 -0.144896,0.11626 -0.220471,0.16964 -0.120729,0.0851 -0.247787,0.16374 -0.375203,0.24159 -8.08e-4,4.9e-4 -0.0014,0.001 -0.0021,0.002 -0.05854,0.0359 -0.115084,0.0754 -0.174781,0.10946 -0.0015,0.001 -0.0045,0.003 -0.0061,0.004 -0.04729,0.0265 -0.09895,0.0473 -0.147071,0.0731 -0.146189,0.0784 -0.292744,0.15683 -0.446723,0.22539 -0.07307,0.0324 -0.147163,0.0567 -0.22092,0.0861 -0.133574,0.054 -0.266642,0.10996 -0.401427,0.15519 0,0 -0.0015,0.001 -0.0015,0.001 -0.003,0.002 -0.0054,7e-5 -0.0084,0.002 -0.05634,0.0185 -0.114418,0.0316 -0.171247,0.0487 -0.01313,0.004 -0.02655,0.007 -0.03999,0.0112 -0.142177,0.042 -0.286255,0.0854 -0.429341,0.1177 -0.09002,0.0202 -0.182158,0.0326 -0.273094,0.0491 -0.117319,0.0212 -0.234525,0.0449 -0.352056,0.0598 -0.0033,2.6e-4 -0.0055,1e-5 -0.0085,4.3e-4 -0.105257,0.0133 -0.211801,0.0179 -0.317987,0.0263 -5.9e-4,5e-5 -8.31e-4,5.8e-4 -0.0015,0.001 -0.002,-9e-5 -0.0043,7.7e-4 -0.0074,-3e-5 -0.107012,0.008 -0.213882,0.0194 -0.32073,0.0224 a 6.7514124,6.7514124 0 0 1 -0.03811,7.6e-4 c -0.09852,0.002 -0.197275,-0.003 -0.29614,-0.005 -0.115077,-0.002 -0.230352,-0.003 -0.344719,-0.0109 -0.08528,-0.006 -0.17043,-0.0195 -0.255828,-0.029 -0.135524,-0.0152 -0.271528,-0.0279 -0.405509,-0.0511 -0.134708,-0.0235 -0.269477,-0.0567 -0.403845,-0.0886 -0.07396,-0.0175 -0.149102,-0.0301 -0.22236,-0.05 a 6.7514124,6.7514124 0 0 1 -0.0053,-0.002 6.7514124,6.7514124 0 0 1 -0.01419,-0.004 c -0.159916,-0.0442 -0.318151,-0.0995 -0.476779,-0.15622 -0.04536,-0.0163 -0.09165,-0.0266 -0.137061,-0.0441 a 6.7514124,6.7514124 0 0 1 -0.01207,-0.004 c -0.208008,-0.0799 -0.409626,-0.17003 -0.604936,-0.26756 a 6.7514124,6.7514124 0 0 1 -0.01584,-0.007 c -0.02643,-0.0136 -0.05107,-0.0308 -0.07747,-0.0444 -0.07707,-0.0405 -0.151883,-0.0852 -0.22761,-0.12825 -0.084,-0.0474 -0.170449,-0.0922 -0.251522,-0.14319 -6.99e-4,-4.4e-4 -0.0021,-2e-4 -0.0027,-10e-4 -0.09688,-0.0605 -0.188669,-0.12968 -0.282122,-0.19597 -0.08882,-0.0625 -0.180216,-0.1218 -0.265415,-0.18798 -7.86e-4,-5.8e-4 -0.0016,-0.002 -0.0022,-0.002 -0.08599,-0.0666 -0.166571,-0.14049 -0.249332,-0.21152 -3.03e-4,-2.7e-4 -9.18e-4,-2e-4 -9.19e-4,-3.6e-4 -0.07761,-0.0666 -0.156523,-0.13169 -0.230574,-0.20148 a 6.7514124,6.7514124 0 0 1 -0.01999,-0.0178 6.7514124,6.7514124 0 0 1 -0.0022,-0.002 c -0.08441,-0.0802 -0.163247,-0.16683 -0.243749,-0.25178 -0.0038,-0.004 -0.0081,-0.009 -0.0125,-0.0129 -0.06128,-0.0651 -0.125211,-0.12758 -0.18373,-0.19479 a 6.7514124,6.7514124 0 0 1 -0.0038,-0.004 c -0.0029,-0.003 -0.0058,-0.007 -0.0086,-0.0104 -0.09072,-0.10482 -0.175339,-0.21606 -0.259996,-0.32722 -0.02379,-0.0313 -0.04811,-0.0621 -0.07133,-0.0938 -0.02209,-0.0298 -0.04636,-0.058 -0.06782,-0.0882 -0.0772,-0.10904 -0.147253,-0.22501 -0.218498,-0.33955 -0.0469,-0.0752 -0.09889,-0.14733 -0.142763,-0.22427 -0.0016,-0.002 -0.0027,-0.004 -0.0031,-0.006 -0.0028,-0.004 -0.0051,-0.009 -0.0072,-0.0142 -0.0652,-0.11543 -0.121585,-0.23696 -0.180601,-0.35746 -0.03648,-0.0746 -0.07703,-0.14553 -0.111112,-0.22203 -0.0018,-0.004 -0.0038,-0.007 -0.0051,-0.0117 -0.08922,-0.20148 -0.166631,-0.40499 -0.234773,-0.60992 -0.03023,-0.0901 -0.0521,-0.18291 -0.07828,-0.27441 -0.03383,-0.11832 -0.07094,-0.23654 -0.09804,-0.35544 -3.04e-4,-9.6e-4 -5.47e-4,-0.004 -0.0016,-0.005 -0.02413,-0.10605 -0.03963,-0.21465 -0.05862,-0.32196 -0.01864,-0.10546 -0.04042,-0.21026 -0.05385,-0.3159 -5.47e-4,-0.004 -3.39e-4,-0.007 -0.0011,-0.0114 -0.01254,-0.0991 -0.01691,-0.19927 -0.02504,-0.29914 -0.01004,-0.1248 -0.02279,-0.24983 -0.02581,-0.37431 -0.0023,-0.0937 0.0035,-0.18793 0.0051,-0.28195 0.0021,-0.11848 0.0021,-0.23691 0.01047,-0.35475 0.0077,-0.10994 0.02325,-0.22047 0.0365,-0.33062 7.93e-4,-0.0102 0.0026,-0.0207 0.0034,-0.0312 0.01259,-0.10045 0.02233,-0.20161 0.03937,-0.30126 0.01786,-0.10477 0.04357,-0.20892 0.06664,-0.3134 0.0041,-0.0163 0.0063,-0.0332 0.01053,-0.0497 0.01456,-0.0632 0.02689,-0.12696 0.04314,-0.18966 0.0078,-0.0314 0.0136,-0.0633 0.02217,-0.0946 0.03258,-0.11862 0.0754,-0.23634 0.11478,-0.35426 0.01908,-0.0582 0.03615,-0.11648 0.05729,-0.17435 0.01179,-0.0323 0.01989,-0.0658 0.03221,-0.0978 z" /></g></svg>
