<?xml version="1.0" encoding="UTF-8" standalone="no"?>
<svg
   width="64"
   height="64"
   viewBox="0 0 63.999997 64"
   id="svg4160"
   version="1.1"
   sodipodi:docname="shuffle.svg"
   inkscape:version="1.1 (c4e8f9ed74, 2021-05-24)"
   xmlns:inkscape="http://www.inkscape.org/namespaces/inkscape"
   xmlns:sodipodi="http://sodipodi.sourceforge.net/DTD/sodipodi-0.dtd"
   xmlns="http://www.w3.org/2000/svg"
   xmlns:svg="http://www.w3.org/2000/svg"
   xmlns:rdf="http://www.w3.org/1999/02/22-rdf-syntax-ns#"
   xmlns:cc="http://creativecommons.org/ns#"
   xmlns:dc="http://purl.org/dc/elements/1.1/">
  <sodipodi:namedview
     pagecolor="#002b36"
     bordercolor="#666666"
     borderopacity="1"
     objecttolerance="10"
     gridtolerance="10"
     guidetolerance="10"
     inkscape:pageopacity="0"
     inkscape:pageshadow="2"
     inkscape:window-width="1600"
     inkscape:window-height="826"
     id="namedview8"
     showgrid="false"
     inkscape:zoom="7.4010512"
     inkscape:cx="33.103406"
     inkscape:cy="39.251181"
     inkscape:window-x="0"
     inkscape:window-y="0"
     inkscape:window-maximized="1"
     inkscape:current-layer="g846"
     inkscape:document-rotation="0"
     inkscape:pagecheckerboard="false"
     showguides="false">
    <inkscape:grid
       type="xygrid"
       id="grid832" />
  </sodipodi:namedview>
  <defs
     id="defs4162" />
  <metadata
     id="metadata4165">
    <rdf:RDF>
      <cc:Work
         rdf:about="">
        <dc:format>image/svg+xml</dc:format>
        <dc:type
           rdf:resource="http://purl.org/dc/dcmitype/StillImage" />
      </cc:Work>
    </rdf:RDF>
  </metadata>
  <g
     id="layer2"
     style="display:inline;stroke:none"
     transform="translate(-3.5328446,2.2636422)">
    <g
       id="g868"
       transform="translate(0,3.9999998)"
       style="font-variation-settings:normal;opacity:0.998;vector-effect:none;fill:#fdf6e3;fill-opacity:1;stroke:none;stroke-width:0;stroke-linecap:round;stroke-linejoin:round;stroke-miterlimit:4;stroke-dasharray:none;stroke-dashoffset:0;stroke-opacity:1;stop-color:#000000;stop-opacity:1">
      <g
         id="rect852"
         style="opacity:0.998">
        <g
           id="g846"
           transform="translate(0,0.99999985)">
          <g
             id="g2599"
             transform="translate(0,-5.0267663)">
            <g
               id="g2505"
               transform="translate(0,4)">
              <path
                 style="color:#000000;display:inline;opacity:0.998;fill:#eee8d5;stroke:none;stroke-width:0;stroke-linecap:round;stroke-linejoin:round;-inkscape-stroke:none"
                 d="M 45.532845,12.827916 V 6.3975451 c 0,-0.4767317 0.30228,-0.7489187 0.642901,-0.7489187 h 0.98591 c 1.224686,-2.492e-4 1.853698,-1.4665313 1.009884,-2.354133 L 46.064782,1.0762806 c -0.28242,-0.29728241 -0.28242,-0.81590225 0,-1.11318385 L 48.943565,-3.066558 c 0.141902,-0.149368 0.282939,-0.1970838 0.428148,-0.1970838 0.145212,0 0.287606,0.047719 0.429507,0.1970838 l 8.63771,9.0930412 2.881502,3.0310139 c 0.283217,0.2981202 0.283218,0.8123445 0,1.1104659 l -2.881502,3.031013 -8.63771,9.093042 c -0.283215,0.298118 -0.574439,0.298118 -0.857655,0 l -2.878783,-3.029655 c -0.282421,-0.297283 -0.282422,-0.815899 0,-1.113183 l 2.106758,-2.218213 c 0.843812,-0.887603 0.214802,-2.353884 -1.009884,-2.354133 h -0.98591 c -0.340622,0 -0.642901,-0.27219 -0.642901,-0.748918 z"
                 id="rect852-3"
                 sodipodi:nodetypes="ssscccccscccccccccccss" />
              <path
                 style="fill:none;stroke:#eee8d5;stroke-width:8;stroke-linecap:round;stroke-linejoin:round;stroke-miterlimit:4;stroke-dasharray:none;stroke-opacity:1"
                 d="M 51.661851,9.6259823 H 36.551922 L 20.735735,41.789891 h -7.366652"
                 id="path1007"
                 sodipodi:nodetypes="cccc" />
            </g>
            <g
               id="g2511"
               transform="matrix(1,0,0,-1,0,55.526249)">
              <path
                 style="color:#000000;display:inline;opacity:0.998;fill:#eee8d5;stroke:none;stroke-width:0;stroke-linecap:round;stroke-linejoin:round;-inkscape-stroke:none"
                 d="M 45.532845,12.827916 V 6.3975451 c 0,-0.4767317 0.30228,-0.7489187 0.642901,-0.7489187 h 0.98591 c 1.224686,-2.492e-4 1.853698,-1.4665313 1.009884,-2.354133 L 46.064782,1.0762806 c -0.28242,-0.29728241 -0.28242,-0.81590225 0,-1.11318385 L 48.943565,-3.066558 c 0.141902,-0.149368 0.282939,-0.1970838 0.428148,-0.1970838 0.145212,0 0.287606,0.047719 0.429507,0.1970838 l 8.63771,9.0930412 2.881502,3.0310139 c 0.283217,0.2981202 0.283218,0.8123445 0,1.1104659 l -2.881502,3.031013 -8.63771,9.093042 c -0.283215,0.298118 -0.574439,0.298118 -0.857655,0 l -2.878783,-3.029655 c -0.282421,-0.297283 -0.282422,-0.815899 0,-1.113183 l 2.106758,-2.218213 c 0.843812,-0.887603 0.214802,-2.353884 -1.009884,-2.354133 h -0.98591 c -0.340622,0 -0.642901,-0.27219 -0.642901,-0.748918 z"
                 id="path2507"
                 sodipodi:nodetypes="ssscccccscccccccccccss" />
              <path
                 style="fill:none;stroke:#eee8d5;stroke-width:8;stroke-linecap:round;stroke-linejoin:round;stroke-miterlimit:4;stroke-dasharray:none;stroke-opacity:1"
                 d="M 51.661851,9.6259823 H 36.551922 L 20.735735,41.789891 h -7.366652"
                 id="path2509"
                 sodipodi:nodetypes="cccc" />
            </g>
          </g>
        </g>
      </g>
    </g>
  </g>
</svg>
