<?xml version="1.0" encoding="UTF-8" standalone="no"?>
<svg
   xmlns:dc="http://purl.org/dc/elements/1.1/"
   xmlns:cc="http://creativecommons.org/ns#"
   xmlns:rdf="http://www.w3.org/1999/02/22-rdf-syntax-ns#"
   xmlns:svg="http://www.w3.org/2000/svg"
   xmlns="http://www.w3.org/2000/svg"
   xmlns:sodipodi="http://sodipodi.sourceforge.net/DTD/sodipodi-0.dtd"
   xmlns:inkscape="http://www.inkscape.org/namespaces/inkscape"
   width="64"
   height="64"
   viewBox="0 0 63.999997 64"
   id="svg4160"
   version="1.1"
   sodipodi:docname="shuffle.svg"
   inkscape:version="1.0.2 (e86c870879, 2021-01-15, custom)">
  <sodipodi:namedview
     pagecolor="#ffffff"
     bordercolor="#666666"
     borderopacity="1"
     objecttolerance="10"
     gridtolerance="10"
     guidetolerance="10"
     inkscape:pageopacity="0"
     inkscape:pageshadow="2"
     inkscape:window-width="1600"
     inkscape:window-height="837"
     id="namedview8"
     showgrid="false"
     inkscape:zoom="5.2333335"
     inkscape:cx="31.986284"
     inkscape:cy="19.581417"
     inkscape:window-x="-8"
     inkscape:window-y="-8"
     inkscape:window-maximized="1"
     inkscape:current-layer="layer2"
     inkscape:document-rotation="0"
     inkscape:pagecheckerboard="true">
    <inkscape:grid
       type="xygrid"
       id="grid832" />
  </sodipodi:namedview>
  <defs
     id="defs4162" />
  <metadata
     id="metadata4165">
    <rdf:RDF>
      <cc:Work
         rdf:about="">
        <dc:format>image/svg+xml</dc:format>
        <dc:type
           rdf:resource="http://purl.org/dc/dcmitype/StillImage" />
        <dc:title />
      </cc:Work>
    </rdf:RDF>
  </metadata>
  <g
     id="layer2"
     style="display:inline;stroke:none"
     transform="translate(-3.5328446,2.2636422)">
    <g
       id="g868"
       transform="translate(0,3.9999998)"
       style="font-variation-settings:normal;opacity:0.998;vector-effect:none;fill:#fdf6e3;fill-opacity:1;stroke:none;stroke-width:1.99999;stroke-linecap:round;stroke-linejoin:round;stroke-miterlimit:4;stroke-dasharray:none;stroke-dashoffset:0;stroke-opacity:1;stop-color:#000000;stop-opacity:1">
      <path
         id="rect852"
         style="opacity:0.998;fill:#fdf6e3;stroke:none;stroke-width:1.99999;stroke-linecap:round;stroke-linejoin:round;stroke-opacity:1;font-variation-settings:normal;vector-effect:none;fill-opacity:1;stroke-miterlimit:4;stroke-dasharray:none;stroke-dashoffset:0;stop-color:#000000;stop-opacity:1"
         d="m 11.891645,7.2182057 c -2.2159997,0 -3.9999997,1.784 -3.9999997,4.0000003 0,2.216 1.784,4 3.9999997,4 h 5.201173 l 14.835937,25.693359 c 0.861074,1.32595 1.7,2.995729 3.080078,3.035156 H 47.69438 l -2.070312,2.070313 c -0.783474,0.783475 -0.783474,2.046603 0,2.830078 l 2.828125,2.828125 c 0.783474,0.783474 2.044651,0.783474 2.828125,0 l 8.484375,-8.486328 2.830078,-2.828125 c 0.783474,-0.783474 0.783474,-2.044651 0,-2.828125 l -2.830078,-2.828125 -8.484375,-8.486328 c -0.391737,-0.391737 -0.902824,-0.587891 -1.414063,-0.587891 -0.511238,0 -1.022325,0.196154 -1.414062,0.587891 l -2.828125,2.828125 c -0.783474,0.783475 -0.783474,2.046603 0,2.830078 l 2.070312,2.070312 H 37.145552 L 22.889693,9.2572677 c -0.742991,-1.286898 -2.085497,-1.987306 -3.466797,-1.986328 -0.17603,-0.02348 -0.350546,-0.05273 -0.533203,-0.05273 z"
         sodipodi:nodetypes="sssccccsssccccccssssccccss" />
      <path
         id="path864"
         style="opacity:0.998;fill:#fdf6e3;stroke:none;stroke-width:1.99999;stroke-linecap:round;stroke-linejoin:round;stroke-opacity:1;font-variation-settings:normal;vector-effect:none;fill-opacity:1;stroke-miterlimit:4;stroke-dasharray:none;stroke-dashoffset:0;stop-color:#000000;stop-opacity:1"
         d="m 11.891645,44.25451 c -2.2159997,0 -3.9999997,-1.784 -3.9999997,-4 0,-2.216 1.784,-4 3.9999997,-4 h 5.201173 L 31.928755,10.561151 c 0.861074,-1.32595 1.7,-2.995729 3.080078,-3.035156 H 47.69438 L 45.624068,5.455682 c -0.783474,-0.783475 -0.783474,-2.046603 0,-2.830078 l 2.828125,-2.8281251 c 0.783474,-0.783474 2.044651,-0.783474 2.828125,0 l 8.484375,8.4863281 2.830078,2.828125 c 0.783474,0.783474 0.783474,2.044651 0,2.828125 l -2.830078,2.828125 -8.484375,8.486328 c -0.391737,0.391737 -0.902824,0.587891 -1.414063,0.587891 -0.511238,0 -1.022325,-0.196154 -1.414062,-0.587891 l -2.828125,-2.828125 c -0.783474,-0.783475 -0.783474,-2.046603 0,-2.830078 L 47.69438,17.525995 H 37.145552 L 22.889693,42.215448 c -0.742991,1.286898 -2.085497,1.987306 -3.466797,1.986328 -0.17603,0.02348 -0.350546,0.05273 -0.533203,0.05273 z"
         sodipodi:nodetypes="sssccccsssccccccssssccccss" />
    </g>
  </g>
</svg>
