<?xml version="1.0" encoding="UTF-8" standalone="no"?>
<svg
   xmlns:dc="http://purl.org/dc/elements/1.1/"
   xmlns:cc="http://creativecommons.org/ns#"
   xmlns:rdf="http://www.w3.org/1999/02/22-rdf-syntax-ns#"
   xmlns:svg="http://www.w3.org/2000/svg"
   xmlns="http://www.w3.org/2000/svg"
   xmlns:sodipodi="http://sodipodi.sourceforge.net/DTD/sodipodi-0.dtd"
   xmlns:inkscape="http://www.inkscape.org/namespaces/inkscape"
   width="64"
   height="64"
   viewBox="0 0 64 64"
   version="1.1"
   id="svg57"
   sodipodi:docname="toolchanger.svg"
   inkscape:version="1.0.2 (e86c870879, 2021-01-15, custom)">
  <sodipodi:namedview
     pagecolor="#ffffff"
     bordercolor="#666666"
     borderopacity="1"
     objecttolerance="10"
     gridtolerance="10"
     guidetolerance="10"
     inkscape:pageopacity="0"
     inkscape:pageshadow="2"
     inkscape:window-width="1600"
     inkscape:window-height="837"
     id="namedview17"
     showgrid="false"
     inkscape:zoom="6.9384853"
     inkscape:cx="24.536172"
     inkscape:cy="36.709288"
     inkscape:window-x="-8"
     inkscape:window-y="-8"
     inkscape:window-maximized="1"
     inkscape:current-layer="svg57"
     inkscape:document-rotation="0" />
  <metadata
     id="metadata63">
    <rdf:RDF>
      <cc:Work
         rdf:about="">
        <dc:format>image/svg+xml</dc:format>
        <dc:type
           rdf:resource="http://purl.org/dc/dcmitype/StillImage" />
        <dc:title>extruder1</dc:title>
      </cc:Work>
    </rdf:RDF>
  </metadata>
  <defs
     id="defs61" />
  <!-- Generator: Sketch 52.5 (67469) - http://www.bohemiancoding.com/sketch -->
  <title
     id="title2">extruder1</title>
  <desc
     id="desc4">Created with Sketch.</desc>
  <g
     id="g851"
     transform="matrix(0.33,0,0,0.33,7.6900002,8.5420703)"
     style="stroke-width:3.0303">
    <rect
       style="opacity:0.998;fill:#839496;fill-opacity:1;stroke:none;stroke-width:6.06061;stroke-linecap:round;stroke-linejoin:round;stroke-miterlimit:4;stroke-dasharray:none;stop-color:#000000"
       id="rect1033"
       width="50"
       height="18"
       x="6.9999995"
       y="32.41787" />
    <rect
       style="opacity:0.998;fill:#93a1a1;fill-opacity:1;stroke:none;stroke-width:6.06061;stroke-linecap:round;stroke-linejoin:round;stroke-miterlimit:4;stroke-dasharray:none;stop-color:#000000"
       id="rect1035"
       width="25"
       height="18"
       x="19.575544"
       y="32.41787" />
    <path
       style="fill:#586e75;fill-opacity:1;stroke:none;stroke-width:3.03029px;stroke-linecap:butt;stroke-linejoin:miter;stroke-opacity:1"
       d="m 19.5,50.41787 h 25 l -8.336909,10 h -8.326182 z"
       id="path1037" />
    <rect
       style="opacity:0.998;fill:#657b83;fill-opacity:1;stroke:none;stroke-width:6.06061;stroke-linecap:round;stroke-linejoin:round;stroke-miterlimit:4;stroke-dasharray:none;stop-color:#000000"
       id="rect1039"
       width="32"
       height="10"
       x="16.075544"
       y="22.417871" />
    <path
       id="rect1055"
       style="opacity:0.998;fill:#586e75;fill-opacity:1;stroke:none;stroke-width:6.06061;stroke-linecap:round;stroke-linejoin:round;stroke-miterlimit:4;stroke-dasharray:none;stop-color:#000000"
       d="m 9.5761719,4.4179688 v 10.0000002 6 c 0,1.108 0.8920001,2 2.0000001,2 h 41 c 1.108,0 2,-0.892 2,-2 v -6 -10.0000002 z" />
  </g>
  <g
     id="g863"
     transform="matrix(0.33,0,0,0.33,35.19,34.062103)"
     style="stroke-width:3.0303">
    <rect
       style="opacity:0.998;fill:#839496;fill-opacity:1;stroke:none;stroke-width:6.06061;stroke-linecap:round;stroke-linejoin:round;stroke-miterlimit:4;stroke-dasharray:none;stop-color:#000000"
       id="rect853"
       width="50"
       height="18"
       x="6.9999995"
       y="32.41787" />
    <rect
       style="opacity:0.998;fill:#93a1a1;fill-opacity:1;stroke:none;stroke-width:6.06061;stroke-linecap:round;stroke-linejoin:round;stroke-miterlimit:4;stroke-dasharray:none;stop-color:#000000"
       id="rect855"
       width="25"
       height="18"
       x="19.575544"
       y="32.41787" />
    <path
       style="fill:#586e75;fill-opacity:1;stroke:none;stroke-width:3.03029px;stroke-linecap:butt;stroke-linejoin:miter;stroke-opacity:1"
       d="m 19.5,50.41787 h 25 l -8.336909,10 h -8.326182 z"
       id="path857" />
    <rect
       style="opacity:0.998;fill:#657b83;fill-opacity:1;stroke:none;stroke-width:6.06061;stroke-linecap:round;stroke-linejoin:round;stroke-miterlimit:4;stroke-dasharray:none;stop-color:#000000"
       id="rect859"
       width="32"
       height="10"
       x="16.075544"
       y="22.417871" />
    <path
       id="path861"
       style="opacity:0.998;fill:#586e75;fill-opacity:1;stroke:none;stroke-width:6.06061;stroke-linecap:round;stroke-linejoin:round;stroke-miterlimit:4;stroke-dasharray:none;stop-color:#000000"
       d="m 9.5761719,4.4179688 v 10.0000002 6 c 0,1.108 0.8920001,2 2.0000001,2 h 41 c 1.108,0 2,-0.892 2,-2 v -6 -10.0000002 z" />
  </g>
  <path
     id="path932"
     style="color:#000000;font-style:normal;font-variant:normal;font-weight:normal;font-stretch:normal;font-size:medium;line-height:normal;font-family:sans-serif;font-variant-ligatures:normal;font-variant-position:normal;font-variant-caps:normal;font-variant-numeric:normal;font-variant-alternates:normal;font-variant-east-asian:normal;font-feature-settings:normal;font-variation-settings:normal;text-indent:0;text-align:start;text-decoration:none;text-decoration-line:none;text-decoration-style:solid;text-decoration-color:#000000;letter-spacing:normal;word-spacing:normal;text-transform:none;writing-mode:lr-tb;direction:ltr;text-orientation:mixed;dominant-baseline:auto;baseline-shift:baseline;text-anchor:start;white-space:normal;shape-padding:0;shape-margin:0;inline-size:0;clip-rule:nonzero;display:inline;overflow:visible;visibility:visible;opacity:0.998;isolation:auto;mix-blend-mode:normal;color-interpolation:sRGB;color-interpolation-filters:linearRGB;solid-color:#000000;solid-opacity:1;vector-effect:none;fill:#fdf6e3;fill-opacity:1;fill-rule:nonzero;stroke:none;stroke-width:1.99999;stroke-linecap:round;stroke-linejoin:round;stroke-miterlimit:4;stroke-dasharray:none;stroke-dashoffset:0;stroke-opacity:1;color-rendering:auto;image-rendering:auto;shape-rendering:auto;text-rendering:auto;enable-background:accumulate;stop-color:#000000;stop-opacity:1"
     d="m 4.999995,31.735589 c 0,10.92576 8.838223,19.846537 19.730469,19.992187 -0.457318,0.358144 -0.968657,0.748276 -1.564453,1.199219 l -1.523438,1.513672 c -0.57619,0.572959 -0.5762,1.495411 0,2.06836 l 2.080078,2.068359 c 0.576191,0.572957 1.503879,0.572947 2.080079,0 l 6.238281,-6.205079 2.082031,-2.068359 c 0.576191,-0.572957 0.576199,-1.495412 0,-2.068359 l -2.082031,-2.06836 -6.238281,-6.205078 c -0.288095,-0.28648 -0.665033,-0.431641 -1.041016,-0.431641 -0.375979,10e-7 -0.750998,0.145132 -1.039063,0.431641 l -2.080078,2.066406 c -0.57619,0.572958 -0.576201,1.497365 0,2.070313 l 1.523438,1.513672 c 0.62835,0.417868 1.172942,0.783216 1.646484,1.113281 -8.225682,-0.100759 -14.8125,-6.73966 -14.8125,-14.990234 a 2.5,2.5 0 0 0 -2.5,-2.5 2.5,2.5 0 0 0 -2.5,2.5 z" />
  <path
     id="path932-8"
     style="color:#000000;font-style:normal;font-variant:normal;font-weight:normal;font-stretch:normal;font-size:medium;line-height:normal;font-family:sans-serif;font-variant-ligatures:normal;font-variant-position:normal;font-variant-caps:normal;font-variant-numeric:normal;font-variant-alternates:normal;font-variant-east-asian:normal;font-feature-settings:normal;font-variation-settings:normal;text-indent:0;text-align:start;text-decoration:none;text-decoration-line:none;text-decoration-style:solid;text-decoration-color:#000000;letter-spacing:normal;word-spacing:normal;text-transform:none;writing-mode:lr-tb;direction:ltr;text-orientation:mixed;dominant-baseline:auto;baseline-shift:baseline;text-anchor:start;white-space:normal;shape-padding:0;shape-margin:0;inline-size:0;clip-rule:nonzero;display:inline;overflow:visible;visibility:visible;opacity:0.998;isolation:auto;mix-blend-mode:normal;color-interpolation:sRGB;color-interpolation-filters:linearRGB;solid-color:#000000;solid-opacity:1;vector-effect:none;fill:#fdf6e3;fill-opacity:1;fill-rule:nonzero;stroke:none;stroke-width:1.99999;stroke-linecap:round;stroke-linejoin:round;stroke-miterlimit:4;stroke-dasharray:none;stroke-dashoffset:0;stroke-opacity:1;color-rendering:auto;image-rendering:auto;shape-rendering:auto;text-rendering:auto;enable-background:accumulate;stop-color:#000000;stop-opacity:1"
     d="m 59.000005,32.264411 c 0,-10.92576 -8.838223,-19.846537 -19.730469,-19.992187 0.457318,-0.358144 0.968657,-0.748276 1.564453,-1.199219 l 1.523438,-1.5136723 c 0.57619,-0.572959 0.5762,-1.495411 0,-2.068359 l -2.080078,-2.06836 c -0.576191,-0.572957 -1.503879,-0.572947 -2.080079,0 l -6.238281,6.2050793 -2.082031,2.068359 c -0.576191,0.572957 -0.576199,1.495412 0,2.068359 l 2.082031,2.06836 6.238281,6.205078 c 0.288095,0.28648 0.665033,0.431641 1.041016,0.431641 0.375979,-1e-6 0.750998,-0.145132 1.039063,-0.431641 l 2.080078,-2.066406 c 0.57619,-0.572958 0.576201,-1.497365 0,-2.070313 l -1.523438,-1.513672 c -0.62835,-0.417868 -1.172942,-0.783216 -1.646484,-1.113281 8.225682,0.100759 14.8125,6.73966 14.8125,14.990234 a 2.5,2.5 0 0 0 2.5,2.5 2.5,2.5 0 0 0 2.5,-2.5 z" />
</svg>
