<?xml version="1.0" encoding="UTF-8" standalone="no"?>
<svg
   width="64"
   height="64"
   viewBox="0 0 64 64"
   version="1.1"
   id="svg57"
   sodipodi:docname="toolchanger.svg"
   inkscape:version="1.1 (c4e8f9ed74, 2021-05-24)"
   xmlns:inkscape="http://www.inkscape.org/namespaces/inkscape"
   xmlns:sodipodi="http://sodipodi.sourceforge.net/DTD/sodipodi-0.dtd"
   xmlns="http://www.w3.org/2000/svg"
   xmlns:svg="http://www.w3.org/2000/svg"
   xmlns:rdf="http://www.w3.org/1999/02/22-rdf-syntax-ns#"
   xmlns:cc="http://creativecommons.org/ns#"
   xmlns:dc="http://purl.org/dc/elements/1.1/">
  <sodipodi:namedview
     pagecolor="#002b36"
     bordercolor="#666666"
     borderopacity="1"
     objecttolerance="10"
     gridtolerance="10"
     guidetolerance="10"
     inkscape:pageopacity="1"
     inkscape:pageshadow="2"
     inkscape:window-width="1600"
     inkscape:window-height="826"
     id="namedview17"
     showgrid="false"
     inkscape:zoom="4.90625"
     inkscape:cx="4.0764331"
     inkscape:cy="42.700637"
     inkscape:window-x="0"
     inkscape:window-y="0"
     inkscape:window-maximized="1"
     inkscape:current-layer="svg57"
     inkscape:document-rotation="0"
     inkscape:pagecheckerboard="false" />
  <metadata
     id="metadata63">
    <rdf:RDF>
      <cc:Work
         rdf:about="">
        <dc:format>image/svg+xml</dc:format>
        <dc:type
           rdf:resource="http://purl.org/dc/dcmitype/StillImage" />
        <dc:title>extruder1</dc:title>
      </cc:Work>
    </rdf:RDF>
  </metadata>
  <defs
     id="defs61" />
  <!-- Generator: Sketch 52.5 (67469) - http://www.bohemiancoding.com/sketch -->
  <title
     id="title2">extruder1</title>
  <path
     id="path3691"
     style="color:#000000;display:inline;opacity:0.998;fill:#eee8d5;stroke:none;stroke-width:0.538946;stroke-linecap:round;stroke-linejoin:round;-inkscape-stroke:none"
     d="M 39.418409,5 C 39.30719,5 39.196045,5.0583894 39.086378,5.1738281 L 32.396924,12.214844 30.164502,14.5625 c -0.219336,0.230879 -0.219335,0.628496 0,0.859375 l 2.232422,2.347656 6.689454,7.042969 c 0.109895,0.115681 0.219572,0.152344 0.332031,0.152344 0.112457,0 0.222135,-0.03667 0.332031,-0.152344 l 2.228516,-2.347656 c 0.21872,-0.230229 0.21872,-0.631098 0,-0.861328 l -1.63086,-1.716797 c -0.65349,-0.687401 -0.167206,-1.824026 0.78125,-1.824219 l 1.326172,-0.0332 c 5.945676,0.39044 10.591797,5.279527 10.591797,11.330078 0,1.656854 1.343146,3 3,3 1.656854,0 3,-1.343146 3,-3 0,-9.252935 -7.315191,-17.335937 -16.46875,-17.335937 h -0.002 l -1.447266,-0.101563 c -0.948456,-1.93e-4 -1.434739,-1.134865 -0.78125,-1.822266 l 1.63086,-1.7187496 c 0.218721,-0.2302318 0.21872,-0.6310979 0,-0.8613282 L 39.75044,5.1738281 C 39.640772,5.0583894 39.529627,5 39.418409,5 Z"
     sodipodi:nodetypes="sccccccsccccccssssccccccs" />
  <desc
     id="desc4">Created with Sketch.</desc>
  <g
     id="g851"
     transform="matrix(0.33,0,0,0.33,7.6900002,8.5420703)"
     style="stroke-width:3.0303">
    <rect
       style="opacity:0.998;fill:#839496;fill-opacity:1;stroke:none;stroke-width:6.06061;stroke-linecap:round;stroke-linejoin:round;stroke-miterlimit:4;stroke-dasharray:none;stop-color:#000000"
       id="rect1033"
       width="50"
       height="18"
       x="6.9999995"
       y="32.41787" />
    <rect
       style="opacity:0.998;fill:#93a1a1;fill-opacity:1;stroke:none;stroke-width:6.06061;stroke-linecap:round;stroke-linejoin:round;stroke-miterlimit:4;stroke-dasharray:none;stop-color:#000000"
       id="rect1035"
       width="25"
       height="18"
       x="19.575544"
       y="32.41787" />
    <path
       style="fill:#586e75;fill-opacity:1;stroke:none;stroke-width:3.03029px;stroke-linecap:butt;stroke-linejoin:miter;stroke-opacity:1"
       d="m 19.5,50.41787 h 25 l -8.336909,10 h -8.326182 z"
       id="path1037" />
    <rect
       style="opacity:0.998;fill:#657b83;fill-opacity:1;stroke:none;stroke-width:6.06061;stroke-linecap:round;stroke-linejoin:round;stroke-miterlimit:4;stroke-dasharray:none;stop-color:#000000"
       id="rect1039"
       width="32"
       height="10"
       x="16.075544"
       y="22.417871" />
    <path
       id="rect1055"
       style="opacity:0.998;fill:#586e75;fill-opacity:1;stroke:none;stroke-width:6.06061;stroke-linecap:round;stroke-linejoin:round;stroke-miterlimit:4;stroke-dasharray:none;stop-color:#000000"
       d="m 9.5761719,4.4179688 v 10.0000002 6 c 0,1.108 0.8920001,2 2.0000001,2 h 41 c 1.108,0 2,-0.892 2,-2 v -6 -10.0000002 z" />
  </g>
  <g
     id="g863"
     transform="matrix(0.33,0,0,0.33,35.19,34.062103)"
     style="stroke-width:3.0303">
    <rect
       style="opacity:0.998;fill:#839496;fill-opacity:1;stroke:none;stroke-width:6.06061;stroke-linecap:round;stroke-linejoin:round;stroke-miterlimit:4;stroke-dasharray:none;stop-color:#000000"
       id="rect853"
       width="50"
       height="18"
       x="6.9999995"
       y="32.41787" />
    <rect
       style="opacity:0.998;fill:#93a1a1;fill-opacity:1;stroke:none;stroke-width:6.06061;stroke-linecap:round;stroke-linejoin:round;stroke-miterlimit:4;stroke-dasharray:none;stop-color:#000000"
       id="rect855"
       width="25"
       height="18"
       x="19.575544"
       y="32.41787" />
    <path
       style="fill:#586e75;fill-opacity:1;stroke:none;stroke-width:3.03029px;stroke-linecap:butt;stroke-linejoin:miter;stroke-opacity:1"
       d="m 19.5,50.41787 h 25 l -8.336909,10 h -8.326182 z"
       id="path857" />
    <rect
       style="opacity:0.998;fill:#657b83;fill-opacity:1;stroke:none;stroke-width:6.06061;stroke-linecap:round;stroke-linejoin:round;stroke-miterlimit:4;stroke-dasharray:none;stop-color:#000000"
       id="rect859"
       width="32"
       height="10"
       x="16.075544"
       y="22.417871" />
    <path
       id="path861"
       style="opacity:0.998;fill:#586e75;fill-opacity:1;stroke:none;stroke-width:6.06061;stroke-linecap:round;stroke-linejoin:round;stroke-miterlimit:4;stroke-dasharray:none;stop-color:#000000"
       d="m 9.5761719,4.4179688 v 10.0000002 6 c 0,1.108 0.8920001,2 2.0000001,2 h 41 c 1.108,0 2,-0.892 2,-2 v -6 -10.0000002 z" />
  </g>
  <path
     id="path4175"
     style="color:#000000;display:inline;opacity:0.998;fill:#eee8d5;stroke:none;stroke-width:0.538946;stroke-linecap:round;stroke-linejoin:round;-inkscape-stroke:none"
     d="m 24.628906,59.359378 c 0.111219,0 0.222364,-0.05839 0.332031,-0.173828 l 6.689454,-7.041016 2.232422,-2.347656 c 0.219336,-0.230879 0.219335,-0.628496 0,-0.859375 l -2.232422,-2.347656 -6.689454,-7.042969 c -0.109895,-0.115681 -0.219572,-0.152344 -0.332031,-0.152344 -0.112457,0 -0.222135,0.03667 -0.332031,0.152344 l -2.228516,2.347656 c -0.21872,0.230229 -0.21872,0.631098 0,0.861328 l 1.63086,1.716797 c 0.65349,0.687401 0.167206,1.824026 -0.78125,1.824219 l -1.326172,0.0332 C 15.646121,45.939638 11,41.050551 11,35 11,33.343146 9.656854,32 8,32 c -1.656854,0 -3,1.343146 -3,3 0,9.252935 7.315191,17.335937 16.46875,17.335937 h 0.002 l 1.447266,0.101563 c 0.948456,1.93e-4 1.434739,1.134865 0.78125,1.822266 l -1.63086,1.71875 c -0.218721,0.230232 -0.21872,0.631098 0,0.861328 l 2.228469,2.345706 c 0.109668,0.115439 0.220813,0.173828 0.332031,0.173828 z"
     sodipodi:nodetypes="sccccccsccccccssssccccccs" />
</svg>
