<?xml version="1.0" encoding="UTF-8" standalone="no"?>
<svg
   width="64"
   height="64"
   viewBox="0 0 63.999997 64"
   id="svg4160"
   version="1.1"
   sodipodi:docname="z-closer.svg"
   inkscape:version="1.3.2 (091e20ef0f, 2023-11-25, custom)"
   xmlns:inkscape="http://www.inkscape.org/namespaces/inkscape"
   xmlns:sodipodi="http://sodipodi.sourceforge.net/DTD/sodipodi-0.dtd"
   xmlns="http://www.w3.org/2000/svg"
   xmlns:svg="http://www.w3.org/2000/svg"
   xmlns:rdf="http://www.w3.org/1999/02/22-rdf-syntax-ns#"
   xmlns:cc="http://creativecommons.org/ns#"
   xmlns:dc="http://purl.org/dc/elements/1.1/">
  <sodipodi:namedview
     pagecolor="#002b36"
     bordercolor="#666666"
     borderopacity="1"
     objecttolerance="10"
     gridtolerance="10"
     guidetolerance="10"
     inkscape:pageopacity="1"
     inkscape:pageshadow="2"
     inkscape:window-width="1600"
     inkscape:window-height="855"
     id="namedview8"
     showgrid="false"
     inkscape:zoom="5.2333335"
     inkscape:cx="19.394904"
     inkscape:cy="34.299362"
     inkscape:window-x="0"
     inkscape:window-y="0"
     inkscape:window-maximized="1"
     inkscape:current-layer="layer2"
     inkscape:document-rotation="0"
     inkscape:pagecheckerboard="false"
     inkscape:showpageshadow="0"
     inkscape:deskcolor="#d1d1d1"
     showguides="true">
    <inkscape:grid
       type="xygrid"
       id="grid832"
       originx="0"
       originy="0"
       spacingy="1"
       spacingx="1"
       units="px"
       visible="false" />
    <sodipodi:guide
       position="61.018472,58.66603"
       orientation="1,0"
       id="guide1"
       inkscape:locked="false" />
    <sodipodi:guide
       position="35.866463,60.408938"
       orientation="0,-1"
       id="guide2"
       inkscape:locked="false" />
  </sodipodi:namedview>
  <defs
     id="defs4162" />
  <metadata
     id="metadata4165">
    <rdf:RDF>
      <cc:Work
         rdf:about="">
        <dc:format>image/svg+xml</dc:format>
        <dc:type
           rdf:resource="http://purl.org/dc/dcmitype/StillImage" />
      </cc:Work>
    </rdf:RDF>
  </metadata>
  <g
     id="layer2"
     style="display:inline;stroke:none"
     transform="translate(-3.5328446,2.2636422)">
    <g
       id="g4"
       transform="rotate(-45,50.27088,15.616722)">
      <path
         style="color:#000000;display:inline;opacity:0.998;fill:#eee8d5;stroke:none;stroke-linecap:round;stroke-linejoin:round;-inkscape-stroke:none"
         d="m 66.198004,10.559329 10e-7,9.240235 c -10e-7,0.685049 -0.434368,1.076173 -0.923829,1.076173 H 52.865973 c -1.759836,3.57e-4 -2.663704,2.107358 -1.451172,3.382813 l 3.027345,3.187501 c 0.405829,0.427183 0.405829,1.172426 -1e-6,1.599608 l -4.136718,4.353516 c -0.203897,0.214646 -0.406576,0.2832 -0.615234,0.283202 -0.208663,10e-7 -0.413279,-0.06857 -0.617187,-0.283201 L 36.333747,20.659917 32.0857,16.411871 c -0.797851,-0.797852 -0.797852,-0.797851 0.43457,-2.030274 l 4.248049,-4.248045 12.739257,-12.7392611 c 0.406973,-0.4283844 0.82545,-0.4283858 1.232422,0 l 3.702148,3.9189456 c 0.40583,0.4271844 0.405832,1.1724205 0,1.5996099 l -3.027345,3.1875002 c -1.212533,1.2754516 -0.308661,3.3824545 1.451172,3.3828123 l 12.408205,-8e-7 c 0.489461,-7e-7 0.923826,0.391127 0.923826,1.0761709 z"
         id="rect852-3-6-7"
         sodipodi:nodetypes="ssscccccscccccccccccss" />
      <path
         style="color:#000000;display:inline;opacity:0.998;fill:#eee8d5;stroke:none;stroke-linecap:round;stroke-linejoin:round;-inkscape-stroke:none"
         d="m -6.4671544,10.559329 -1e-6,9.240235 c 1e-6,0.685049 0.434368,1.076173 0.923829,1.076173 H 6.8648771 c 1.759836,3.57e-4 2.6637033,2.107358 1.451172,3.382813 l -3.027345,3.187501 c -0.405829,0.427183 -0.405829,1.172426 10e-7,1.599608 l 4.1367173,4.353516 c 0.203897,0.214646 0.406576,0.2832 0.6152336,0.283202 0.208664,10e-7 0.41328,-0.06857 0.617188,-0.283201 L 23.397103,20.659917 27.64515,16.411871 c 0.797851,-0.797852 0.797852,-0.797851 -0.43457,-2.030274 L 22.962531,10.133552 10.223273,-2.6057091 c -0.4069726,-0.428384 -0.8254496,-0.428386 -1.2324214,0 l -3.7021475,3.918946 c -0.40583,0.427184 -0.405832,1.17242 0,1.599609 l 3.027345,3.187501 c 1.2125323,1.275451 0.308661,3.382454 -1.451172,3.382812 l -12.4082055,-10e-7 c -0.489461,-1e-6 -0.923826,0.391127 -0.923826,1.0761711 z"
         id="rect852-3-6-7-5"
         sodipodi:nodetypes="ssscccccscccccccccccss" />
    </g>
  </g>
</svg>
