<?xml version="1.0" encoding="UTF-8" standalone="no"?>
<svg
   width="64"
   height="64"
   viewBox="0 0 63.999997 64"
   id="svg4160"
   version="1.1"
   sodipodi:docname="z-farther.svg"
   inkscape:version="1.3.2 (091e20ef0f, 2023-11-25, custom)"
   xmlns:inkscape="http://www.inkscape.org/namespaces/inkscape"
   xmlns:sodipodi="http://sodipodi.sourceforge.net/DTD/sodipodi-0.dtd"
   xmlns="http://www.w3.org/2000/svg"
   xmlns:svg="http://www.w3.org/2000/svg"
   xmlns:rdf="http://www.w3.org/1999/02/22-rdf-syntax-ns#"
   xmlns:cc="http://creativecommons.org/ns#"
   xmlns:dc="http://purl.org/dc/elements/1.1/">
  <sodipodi:namedview
     pagecolor="#002b36"
     bordercolor="#666666"
     borderopacity="1"
     objecttolerance="10"
     gridtolerance="10"
     guidetolerance="10"
     inkscape:pageopacity="1"
     inkscape:pageshadow="2"
     inkscape:window-width="1600"
     inkscape:window-height="855"
     id="namedview8"
     showgrid="false"
     inkscape:zoom="5.2333335"
     inkscape:cx="27.32484"
     inkscape:cy="23.407643"
     inkscape:window-x="0"
     inkscape:window-y="0"
     inkscape:window-maximized="1"
     inkscape:current-layer="layer2"
     inkscape:document-rotation="0"
     inkscape:pagecheckerboard="false"
     inkscape:showpageshadow="0"
     inkscape:deskcolor="#d1d1d1"
     showguides="true">
    <inkscape:grid
       type="xygrid"
       id="grid832"
       originx="0"
       originy="0"
       spacingy="1"
       spacingx="1"
       units="px"
       visible="false" />
    <sodipodi:guide
       position="61.018472,58.66603"
       orientation="1,0"
       id="guide1"
       inkscape:locked="false" />
  </sodipodi:namedview>
  <defs
     id="defs4162" />
  <metadata
     id="metadata4165">
    <rdf:RDF>
      <cc:Work
         rdf:about="">
        <dc:format>image/svg+xml</dc:format>
        <dc:type
           rdf:resource="http://purl.org/dc/dcmitype/StillImage" />
      </cc:Work>
    </rdf:RDF>
  </metadata>
  <g
     id="layer2"
     style="display:inline;stroke:none"
     transform="translate(-3.5328446,2.2636422)">
    <path
       style="color:#000000;display:inline;opacity:0.998;fill:#eee8d5;stroke:none;stroke-linecap:round;stroke-linejoin:round;-inkscape-stroke:none"
       d="M 45.432654,26.99619 38.89882,20.462357 c -0.484402,-0.484403 -0.453825,-1.068114 -0.107724,-1.414215 l 8.773925,-8.773924 c 1.24414,-1.244646 0.393395,-3.3736505 -1.365876,-3.4181445 l -4.39456,-0.113247 c -0.589029,-0.0151 -1.115995,-0.542066 -1.131093,-1.1310956 l -0.1533,-6.00350116 c -0.0076,-0.2959539 0.08724,-0.4877457 0.234783,-0.63529064 0.147546,-0.1475482 0.340718,-0.2437453 0.63667,-0.2361633 l 18.016033,-7e-7 6.007645,7e-7 c 1.128332,0 1.128332,-1.4e-6 1.128333,1.74290724 l -2e-6,6.00764446 10e-7,18.0160335 c 0.01514,0.590688 -0.280766,0.886597 -0.871454,0.871454 l -5.388926,-0.153298 c -0.589031,-0.0151 -1.115992,-0.542061 -1.131095,-1.131095 l -0.113247,-4.394559 c -0.04449,-1.759272 -2.173499,-2.610014 -3.418143,-1.365876 l -8.773925,8.773925 c -0.346101,0.346103 -0.929812,0.376675 -1.414211,-0.107722 z"
       id="rect852-3-6-7"
       sodipodi:nodetypes="ssscccccscccccccccccss" />
    <path
       style="color:#000000;display:inline;opacity:0.998;fill:#eee8d5;stroke:none;stroke-linecap:round;stroke-linejoin:round;-inkscape-stroke:none"
       d="M 32.792675,39.636165 26.258843,33.102332 C 25.774441,32.61793 25.190729,32.648508 24.844628,32.994608 l -8.773924,8.773925 c -1.244645,1.244139 -3.373649,0.393396 -3.418144,-1.365877 l -0.113248,-4.394559 c -0.0151,-0.589028 -0.542066,-1.115994 -1.131095,-1.131092 L 5.4047167,34.723704 c -0.2959553,-0.0076 -0.4877453,0.08724 -0.6352902,0.234782 -0.1475478,0.147547 -0.2437468,0.34072 -0.2361638,0.636671 l -2e-7,18.016033 -9e-7,6.007645 c 8e-7,1.128332 -9e-7,1.128333 1.7429079,1.128333 l 6.0076455,-3e-6 18.016033,3e-6 c 0.590687,0.01514 0.886596,-0.280767 0.871455,-0.871453 l -0.153301,-5.388928 c -0.0151,-0.589029 -0.542059,-1.115993 -1.131094,-1.131094 l -4.394559,-0.113248 c -1.759271,-0.04449 -2.610013,-2.173499 -1.365877,-3.418142 L 32.9004,41.050377 c 0.346101,-0.3461 0.376675,-0.929813 -0.107725,-1.414212 z"
       id="rect852-3-6-7-5"
       sodipodi:nodetypes="ssscccccscccccccccccss" />
  </g>
</svg>
