<svg xmlns="http://www.w3.org/2000/svg" width="24" height="24" viewBox="0 0 24 24"><path fill="#ffffff" d="M3.12 17.6A3.12 3.12 0 0 1 0 14.48V8.72A3.12 3.12 0 0 1 3.12 5.6h16.016a3.12 3.12 0 0 1 3.12 3.12v5.76a3.12 3.12 0 0 1-3.12 3.12zM1.108 8.72v5.761c0 1.111.9 2.011 2.011 2.011h16.017a2.012 2.012 0 0 0 2.01-2.011V8.719c0-1.11-.9-2.01-2.01-2.011H3.119a2.01 2.01 0 0 0-2.011 2.011zm2.678 6.407a1.311 1.311 0 0 1-1.311-1.311v-4.43c0-.724.587-1.311 1.311-1.311h2.708c.724 0 1.31.587 1.31 1.311v4.429a1.316 1.316 0 0 1-1.311 1.311zm18.87-5.416c.789.28 1.344 1.02 1.344 1.889s-.555 1.609-1.33 1.885l-.014.004z"/></svg>