<svg xmlns="http://www.w3.org/2000/svg" width="24" height="24" viewBox="0 0 24 24"><path fill="#ffffff" d="M3.12 17.6A3.12 3.12 0 0 1 0 14.48V8.72A3.12 3.12 0 0 1 3.12 5.6h16.016a3.12 3.12 0 0 1 3.12 3.12v5.76a3.12 3.12 0 0 1-3.12 3.12zM1.108 8.72v5.76c0 1.11.9 2.01 2.01 2.01h16.018a2.01 2.01 0 0 0 2.006-2.01V8.72a2.012 2.012 0 0 0-2.009-2.01H3.118c-1.11 0-2.01.9-2.011 2.01zm2.678 6.4a1.31 1.31 0 0 1-1.31-1.311V9.386a1.31 1.31 0 0 1 1.31-1.311h6.03c.724 0 1.31.587 1.31 1.31v4.428a1.312 1.312 0 0 1-1.31 1.311zm18.871-5.41c.789.28 1.344 1.02 1.344 1.889s-.555 1.609-1.33 1.885l-.014.004z"/></svg>