<svg xmlns="http://www.w3.org/2000/svg" width="24" height="24" viewBox="0 0 24 24"><path fill="#ffffff" d="M8.47 8.47a.75.75 0 0 1 1.06 0L12 10.94l2.47-2.47a.75.75 0 1 1 1.06 1.06L13.06 12l2.47 2.47a.75.75 0 0 1-1.06 1.06L12 13.06l-2.47 2.47a.75.75 0 1 1-1.06-1.06L10.94 12L8.47 9.53a.75.75 0 0 1 0-1.06"/><path fill="#ffffff" fill-rule="evenodd" d="M7.317 3.769a42.502 42.502 0 0 1 9.366 0c1.827.204 3.302 1.643 3.516 3.48c.37 3.157.37 6.346 0 9.503c-.215 1.837-1.69 3.275-3.516 3.48a42.5 42.5 0 0 1-9.366 0c-1.827-.205-3.302-1.643-3.516-3.48a40.903 40.903 0 0 1 0-9.503c.214-1.837 1.69-3.276 3.516-3.48m9.2 1.49a41.001 41.001 0 0 0-9.034 0A2.486 2.486 0 0 0 5.29 7.424a39.402 39.402 0 0 0 0 9.154a2.486 2.486 0 0 0 2.193 2.164c2.977.332 6.057.332 9.034 0a2.486 2.486 0 0 0 2.192-2.164a39.401 39.401 0 0 0 0-9.154a2.486 2.486 0 0 0-2.192-2.163" clip-rule="evenodd"/></svg>