<svg xmlns="http://www.w3.org/2000/svg" width="24" height="24" viewBox="0 0 24 24"><g fill="none" stroke="#ffffff" stroke-linecap="round" stroke-linejoin="round" stroke-width="2"><path d="M4.266 16.06a8.923 8.923 0 0 0 3.915 3.978a8.706 8.706 0 0 0 5.471.832a8.796 8.796 0 0 0 4.887-2.64a9.067 9.067 0 0 0 2.388-5.079a9.137 9.137 0 0 0-1.044-5.53a8.904 8.904 0 0 0-4.068-3.815a8.7 8.7 0 0 0-5.5-.608c-1.85.401-3.367 1.313-4.62 2.755a7.62 7.62 0 0 0-1.22 1.781"/><path d="m8.931 7.813l-5.04.907L3 3.59"/></g></svg>