<?xml version="1.0" encoding="UTF-8" standalone="no"?>
<svg
   viewBox="0 0 24 24"
   version="1.1"
   id="svg1"
   sodipodi:docname="extruder-11.svg"
   inkscape:version="1.3 (0e150ed6c4, 2023-07-21)"
   xmlns:inkscape="http://www.inkscape.org/namespaces/inkscape"
   xmlns:sodipodi="http://sodipodi.sourceforge.net/DTD/sodipodi-0.dtd"
   xmlns="http://www.w3.org/2000/svg"
   xmlns:svg="http://www.w3.org/2000/svg">
  <defs
     id="defs1" />
  <sodipodi:namedview
     id="namedview1"
     pagecolor="#505050"
     bordercolor="#eeeeee"
     borderopacity="1"
     inkscape:showpageshadow="0"
     inkscape:pageopacity="0"
     inkscape:pagecheckerboard="0"
     inkscape:deskcolor="#d1d1d1"
     inkscape:zoom="15.291667"
     inkscape:cx="9.6784741"
     inkscape:cy="9.5803815"
     inkscape:window-width="1600"
     inkscape:window-height="827"
     inkscape:window-x="0"
     inkscape:window-y="0"
     inkscape:window-maximized="1"
     inkscape:current-layer="svg1" />
  <path
     d="m 5,3 c -0.069036,0 -0.137844,0.00294 -0.2050781,0.00977 -0.067234,0.00683 -0.1321681,0.017929 -0.1972657,0.03125 -0.065098,0.013321 -0.1307335,0.029349 -0.1933593,0.048828 -0.062626,0.019479 -0.1237747,0.041105 -0.1835938,0.066406 -0.059819,0.025301 -0.1171508,0.055149 -0.1738281,0.085937 -0.056677,0.030789 -0.1128153,0.063668 -0.1660156,0.099609 -0.0532,0.035941 -0.1029555,0.074476 -0.1523438,0.1152344 -0.049388,0.040759 -0.097337,0.083665 -0.1425781,0.1289062 -0.045241,0.045241 -0.088147,0.09319 -0.1289062,0.1425781 -0.040759,0.049388 -0.079293,0.099143 -0.1152344,0.1523438 -0.035941,0.0532 -0.06882,0.1093383 -0.099609,0.1660156 -0.030789,0.056677 -0.060636,0.114009 -0.085937,0.1738281 -0.025301,0.059819 -0.046928,0.1209679 -0.066406,0.1835938 -0.019479,0.062626 -0.035507,0.1282618 -0.048828,0.1933593 -0.013321,0.065098 -0.024422,0.1300316 -0.03125,0.1972657 C 3.0029376,4.862156 3,4.9309645 3,5 v 14 c 0,0.06903 0.00294,0.137844 0.00977,0.205078 0.00683,0.06723 0.017929,0.132168 0.03125,0.197266 0.013321,0.0651 0.029349,0.130733 0.048828,0.193359 0.019479,0.06263 0.041105,0.123775 0.066406,0.183594 0.025301,0.05982 0.055149,0.117151 0.085937,0.173828 0.030789,0.05668 0.063668,0.112815 0.099609,0.166016 0.035941,0.0532 0.074476,0.102955 0.1152344,0.152343 0.040759,0.04939 0.083665,0.09734 0.1289062,0.142578 0.045241,0.04524 0.09319,0.08815 0.1425781,0.128907 0.049388,0.04076 0.099143,0.07929 0.1523438,0.115234 0.0532,0.03594 0.1093383,0.06882 0.1660156,0.09961 0.056677,0.03079 0.114009,0.06064 0.1738281,0.08594 0.059819,0.0253 0.1209679,0.04693 0.1835938,0.06641 0.062626,0.01948 0.1282618,0.03551 0.1933593,0.04883 0.065098,0.01332 0.1300316,0.02442 0.1972657,0.03125 C 4.862156,20.997062 4.9309645,21 5,21 h 14 c 0.06938,0 0.137586,-0.003 0.205078,-0.0098 0.06749,-0.0068 0.133936,-0.018 0.199219,-0.03125 0.06528,-0.01325 0.130613,-0.02944 0.193359,-0.04883 0.06275,-0.01939 0.123711,-0.04121 0.183594,-0.06641 0.05988,-0.0252 0.117136,-0.05331 0.173828,-0.08398 0.05669,-0.03068 0.112842,-0.06378 0.166016,-0.09961 0.05317,-0.03583 0.104968,-0.07458 0.154297,-0.115234 0.04933,-0.04066 0.09547,-0.08375 0.140625,-0.128906 0.04516,-0.04516 0.08825,-0.0913 0.128906,-0.140625 0.04066,-0.04933 0.0794,-0.101123 0.115234,-0.154297 0.03583,-0.05317 0.06893,-0.109324 0.09961,-0.166016 0.03068,-0.05669 0.05879,-0.113945 0.08398,-0.173828 0.0252,-0.05988 0.04702,-0.120847 0.06641,-0.183594 0.01939,-0.06275 0.03558,-0.128076 0.04883,-0.193359 0.01325,-0.06528 0.02446,-0.131726 0.03125,-0.199219 C 20.997024,19.137586 21,19.069375 21,19 V 5 c 0,-0.06875 -0.003,-0.1361085 -0.0098,-0.203125 -0.0068,-0.067017 -0.018,-0.1342774 -0.03125,-0.1992188 -0.01325,-0.064941 -0.02944,-0.1288818 -0.04883,-0.1914062 -0.01939,-0.062524 -0.04121,-0.1238282 -0.06641,-0.1835938 -0.0252,-0.059766 -0.05331,-0.1171631 -0.08398,-0.1738281 -0.03068,-0.056665 -0.06378,-0.112793 -0.09961,-0.1660156 -0.03583,-0.053223 -0.07458,-0.1029053 -0.115234,-0.1523437 -0.04066,-0.049438 -0.08375,-0.097266 -0.128906,-0.1425782 -0.04516,-0.045312 -0.0913,-0.088062 -0.140625,-0.1289062 C 20.226062,3.4181397 20.174268,3.3797851 20.121094,3.34375 20.06792,3.3077149 20.01177,3.2730713 19.955078,3.2421875 19.898386,3.2113037 19.841133,3.1835937 19.78125,3.1582031 19.721367,3.1328125 19.660403,3.1093994 19.597656,3.0898438 19.53491,3.0702881 19.46958,3.0543945 19.404297,3.0410156 19.339014,3.0276367 19.272571,3.016626 19.205078,3.0097656 19.137586,3.0029053 19.069375,3 19,3 Z m 1,4 h 4 V 17 H 8 V 9 H 6 Z m 7,0 h 4 V 17 H 15 V 9 h -2 z"
     style="font-variation-settings:normal;opacity:1;vector-effect:none;fill:#e2e2e2;fill-opacity:1;stroke-width:1;stroke-linecap:butt;stroke-linejoin:miter;stroke-miterlimit:4;stroke-dasharray:none;stroke-dashoffset:0;stroke-opacity:1;-inkscape-stroke:none;stop-color:#000000;stop-opacity:1"
     id="path3" />
</svg>
