<svg xmlns="http://www.w3.org/2000/svg" width="16" height="16" viewBox="0 0 16 16"><g fill="#ffffff"><path d="M5 12.5a1.5 1.5 0 1 1-2-1.415V2.5a.5.5 0 0 1 1 0v8.585A1.5 1.5 0 0 1 5 12.5"/><path d="M1 2.5a2.5 2.5 0 0 1 5 0v7.55a3.5 3.5 0 1 1-5 0zM3.5 1A1.5 1.5 0 0 0 2 2.5v7.987l-.167.15a2.5 2.5 0 1 0 3.333 0L5 10.486V2.5A1.5 1.5 0 0 0 3.5 1m5 1a.5.5 0 0 1 .5.5v1a.5.5 0 0 1-1 0v-1a.5.5 0 0 1 .5-.5m4.243 1.757a.5.5 0 0 1 0 .707l-.707.708a.5.5 0 1 1-.708-.708l.708-.707a.5.5 0 0 1 .707 0M8 5.5a.5.5 0 0 1 .5-.5a3 3 0 1 1 0 6a.5.5 0 0 1 0-1a2 2 0 0 0 0-4a.5.5 0 0 1-.5-.5M12.5 8a.5.5 0 0 1 .5-.5h1a.5.5 0 1 1 0 1h-1a.5.5 0 0 1-.5-.5m-1.172 2.828a.5.5 0 0 1 .708 0l.707.708a.5.5 0 0 1-.707.707l-.708-.707a.5.5 0 0 1 0-.708M8.5 12a.5.5 0 0 1 .5.5v1a.5.5 0 0 1-1 0v-1a.5.5 0 0 1 .5-.5"/></g></svg>