<svg xmlns="http://www.w3.org/2000/svg" width="36" height="36" viewBox="0 0 36 36"><path fill="#ffffff" d="M26.58 32h-18a1 1 0 1 0 0 2h18a1 1 0 0 0 0-2" class="clr-i-outline--badged clr-i-outline-path-1--badged"/><path fill="#ffffff" d="M31.5 13.35a7.54 7.54 0 0 1-1.5.15h-.51a11.91 11.91 0 0 1-.25 6a16 16 0 0 1-5-.41a2.33 2.33 0 0 0-.33-1.19a18.59 18.59 0 0 0 2.78-5.18a7.49 7.49 0 0 1-1.31-.82a17 17 0 0 1-2.61 5a2.28 2.28 0 0 0-2.58.57c-.35-.2-.7-.4-1-.63a16 16 0 0 1-4.93-5.23a2.25 2.25 0 0 0 .47-1.77a17 17 0 0 1 8.53-.62a7.43 7.43 0 0 1-.56-1.59a18.56 18.56 0 0 0-8.7.9a2.33 2.33 0 0 0-1.14-.61h-.25c-.12-.42-.23-.84-.32-1.27s-.14-.81-.19-1.22A11.92 11.92 0 0 1 22.57 5a7.45 7.45 0 0 1 .53-2A14 14 0 0 0 3.75 16c0 .45 0 .89.07 1.33a14 14 0 1 0 27.68-4ZM10.76 6.27c0 .21.06.43.1.64c.09.44.21.87.33 1.3a2.28 2.28 0 0 0-1.1 2.25a18.32 18.32 0 0 0-4.19 3.76a12 12 0 0 1 4.86-7.95m0 15.71a2.34 2.34 0 0 0-1.56 1.76h-.64a11.94 11.94 0 0 1-2.76-6.82l.11-.19a16.9 16.9 0 0 1 4.81-4.89a2.31 2.31 0 0 0 2.28.63a17.53 17.53 0 0 0 5.35 5.65c.41.27.83.52 1.25.76a2.32 2.32 0 0 0 .18 1.12a16.94 16.94 0 0 1-6.2 3.11A2.34 2.34 0 0 0 10.76 22Zm7 6a11.92 11.92 0 0 1-5.81-1.51l.28-.06a2.34 2.34 0 0 0 1.57-1.79a18.43 18.43 0 0 0 7-3.5a2.29 2.29 0 0 0 3-.62a17.41 17.41 0 0 0 4.32.56h.53A12 12 0 0 1 17.75 28Z" class="clr-i-outline--badged clr-i-outline-path-2--badged"/><circle cx="30" cy="6" r="5" fill="#ffffff" class="clr-i-outline--badged clr-i-outline-path-3--badged clr-i-badge"/><path fill="none" d="M0 0h36v36H0z"/></svg>