<?xml version="1.0" encoding="UTF-8" standalone="no"?>
<svg
   version="1.1"
   width="24"
   height="24"
   viewBox="0 0 24 24"
   id="svg1087"
   sodipodi:docname="filament.svg"
   inkscape:version="1.1 (c4e8f9ed74, 2021-05-24)"
   xmlns:inkscape="http://www.inkscape.org/namespaces/inkscape"
   xmlns:sodipodi="http://sodipodi.sourceforge.net/DTD/sodipodi-0.dtd"
   xmlns="http://www.w3.org/2000/svg"
   xmlns:svg="http://www.w3.org/2000/svg">
  <defs
     id="defs1091" />
  <sodipodi:namedview
     id="namedview1089"
     pagecolor="#505050"
     bordercolor="#ffffff"
     borderopacity="1"
     inkscape:pageshadow="0"
     inkscape:pageopacity="0"
     inkscape:pagecheckerboard="1"
     showgrid="false"
     inkscape:zoom="18.384776"
     inkscape:cx="7.1798536"
     inkscape:cy="12.537547"
     inkscape:window-width="1600"
     inkscape:window-height="826"
     inkscape:window-x="0"
     inkscape:window-y="0"
     inkscape:window-maximized="1"
     inkscape:current-layer="svg1087" />
  <path
     id="path843"
     style="color:#000000;fill:#e2e2e2;fill-rule:evenodd;stroke-linecap:round;stroke-linejoin:round;stroke-miterlimit:10;-inkscape-stroke:none"
     d="m 19.071068,4.9289322 c -3.871738,-3.8717375 -10.2703983,-3.8717375 -14.1421358,0 -3.8717377,3.8717377 -3.8717375,10.2703978 0,14.1421358 3.8717377,3.871738 10.2703978,3.871738 14.1421358,0 3.871737,-3.871738 3.871738,-10.2703981 0,-14.1421358 z m -1.132476,0.988845 0.143631,0.1436303 c 0.351925,0.351925 0.351923,0.9186604 0,1.2705829 l -2.264951,2.2649514 c -0.351923,0.3519225 -0.918659,0.3519239 -1.270583,-4e-7 l -0.14363,-0.1436303 c -0.351925,-0.3519249 -0.351923,-0.9186603 -1e-6,-1.2705829 L 16.66801,5.9177768 c 0.351922,-0.3519225 0.918658,-0.3519238 1.270582,4e-7 z m -4.524378,4.6680088 c 0.814553,0.814554 0.814553,2.013874 0,2.828428 -0.814554,0.814553 -2.013874,0.814553 -2.828428,0 -0.8145526,-0.814554 -0.8145526,-2.013874 0,-2.828428 0.814554,-0.8145526 2.013874,-0.8145526 2.828428,0 z M 7.3319904,5.9177768 9.5969418,8.1827282 c 0.3519225,0.3519226 0.3519224,0.9186601 -4e-7,1.2705829 L 9.4533111,9.5969414 c -0.3519228,0.3519228 -0.9186603,0.3519229 -1.2705829,4e-7 L 5.9177768,7.3319904 C 5.5658543,6.9800679 5.5658544,6.4133303 5.9177772,6.0614075 L 6.0614075,5.9177772 c 0.3519228,-0.3519228 0.9186604,-0.3519229 1.2705829,-4e-7 z m 8.4852816,8.4852822 2.264951,2.26495 c 0.351923,0.351923 0.351923,0.91866 0,1.270583 l -0.143631,0.143631 c -0.351923,0.351923 -0.91866,0.351923 -1.270583,0 l -2.26495,-2.264951 c -0.351923,-0.351923 -0.351924,-0.91866 0,-1.270583 l 0.14363,-0.14363 c 0.351923,-0.351924 0.91866,-0.351923 1.270583,0 z m -6.3639609,0 0.1436303,0.14363 c 0.3519243,0.351924 0.3519228,0.91866 0,1.270583 l -2.2649507,2.264951 c -0.3519228,0.351923 -0.9186589,0.351924 -1.2705832,0 L 5.9177772,17.938592 c -0.3519242,-0.351924 -0.3519228,-0.91866 0,-1.270583 l 2.2649507,-2.26495 c 0.3519228,-0.351923 0.918659,-0.351925 1.2705832,0 z" />
  <path
     style="fill:none;fill-opacity:1;stroke:#e2e2e2;stroke-width:1px;stroke-linecap:butt;stroke-linejoin:miter;stroke-opacity:1"
     d="m 19.633451,14.039556 c 2.307077,3.939931 0.686859,5.761747 2.875487,7.303325"
     id="path8134"
     sodipodi:nodetypes="cc" />
</svg>
