<svg xmlns="http://www.w3.org/2000/svg" width="24" height="24" viewBox="0 0 24 24"><path fill="none" stroke="#ffffff" stroke-linecap="round" stroke-linejoin="round" stroke-width="2" d="M5 8.2v7.6c0 1.12 0 1.68.218 2.107c.192.377.497.683.874.875c.427.218.987.218 2.105.218h7.607c1.118 0 1.676 0 2.104-.218c.376-.192.682-.498.874-.875c.218-.427.218-.986.218-2.104V8.197c0-1.118 0-1.678-.218-2.105a2 2 0 0 0-.874-.874C17.48 5 16.92 5 15.8 5H8.2c-1.12 0-1.68 0-2.108.218a1.999 1.999 0 0 0-.874.874C5 6.52 5 7.08 5 8.2"/></svg>