<?xml version="1.0" encoding="UTF-8" standalone="no"?>
<svg
   version="1.1"
   width="24"
   height="24"
   viewBox="0 0 24 24"
   id="svg4"
   sodipodi:docname="archived.svg"
   inkscape:version="1.4.4 (dcaf3e7d9e, 2026-05-05)"
   xmlns:inkscape="http://www.inkscape.org/namespaces/inkscape"
   xmlns:sodipodi="http://sodipodi.sourceforge.net/DTD/sodipodi-0.dtd"
   xmlns="http://www.w3.org/2000/svg"
   xmlns:svg="http://www.w3.org/2000/svg">
  <defs
     id="defs8" />
  <sodipodi:namedview
     id="namedview6"
     pagecolor="#505050"
     bordercolor="#ffffff"
     borderopacity="1"
     inkscape:pageshadow="0"
     inkscape:pageopacity="0"
     inkscape:pagecheckerboard="1"
     showgrid="false"
     inkscape:zoom="18.384776"
     inkscape:cx="3.2635698"
     inkscape:cy="15.529153"
     inkscape:window-width="1536"
     inkscape:window-height="792"
     inkscape:window-x="0"
     inkscape:window-y="0"
     inkscape:window-maximized="1"
     inkscape:current-layer="svg4"
     inkscape:showpageshadow="2"
     inkscape:deskcolor="#d1d1d1" />
  <path
     d="M 12,18 16,14 14.6,12.6 13,14.2 V 10 h -2 v 4.2 L 9.4,12.6 8,14 Z M 5,8 V 19 H 19 V 8 Z M 5,21 Q 4.175,21 3.5875,20.4125 3,19.825 3,19 V 6.525 Q 3,6.175 3.1125,5.85 3.225,5.525 3.45,5.25 L 4.7,3.725 Q 4.975,3.375 5.3875,3.1875 5.8,3 6.25,3 h 11.5 Q 18.2,3 18.6125,3.1875 19.025,3.375 19.3,3.725 l 1.25,1.525 q 0.225,0.275 0.3375,0.6 Q 21,6.175 21,6.525 V 19 q 0,0.825 -0.5875,1.4125 Q 19.825,21 19,21 Z M 5.4,6 H 18.6 L 17.75,5 H 6.25 Z m 6.6,7.5 z"
     id="path1"
     style="stroke-width:0.025;fill:#e2e2e2" />
</svg>
