<?xml version="1.0" encoding="UTF-8" standalone="no"?>
<svg
   version="1.1"
   width="24"
   height="24"
   viewBox="0 0 24 24"
   id="svg827"
   sodipodi:docname="custom-script.svg"
   inkscape:version="1.1 (c4e8f9ed74, 2021-05-24)"
   xmlns:inkscape="http://www.inkscape.org/namespaces/inkscape"
   xmlns:sodipodi="http://sodipodi.sourceforge.net/DTD/sodipodi-0.dtd"
   xmlns="http://www.w3.org/2000/svg"
   xmlns:svg="http://www.w3.org/2000/svg">
  <defs
     id="defs831" />
  <sodipodi:namedview
     id="namedview829"
     pagecolor="#505050"
     bordercolor="#ffffff"
     borderopacity="1"
     inkscape:pageshadow="0"
     inkscape:pageopacity="0"
     inkscape:pagecheckerboard="1"
     showgrid="false"
     inkscape:zoom="26"
     inkscape:cx="-0.38461538"
     inkscape:cy="12.019231"
     inkscape:window-width="1600"
     inkscape:window-height="826"
     inkscape:window-x="0"
     inkscape:window-y="0"
     inkscape:window-maximized="1"
     inkscape:current-layer="svg827" />
  <path
     d="M13.8 22H5C3.3 22 2 20.7 2 19V18H13.1C13 18.3 13 18.7 13 19C13 20.1 13.3 21.1 13.8 22M13.8 16H5V5C5 3.3 6.3 2 8 2H19C20.7 2 22 3.3 22 5V6H20V5C20 4.4 19.6 4 19 4S18 4.4 18 5V13.1C16.2 13.4 14.7 14.5 13.8 16M8 8H15V6H8V8M8 12H14V10H8V12M17 16V22L22 19L17 16Z"
     id="path825"
     style="fill:#e2e2e2" />
</svg>
