<?xml version="1.0" encoding="UTF-8" standalone="no"?>
<svg
   version="1.1"
   width="24"
   height="24"
   viewBox="0 0 24 24"
   id="svg4"
   sodipodi:docname="edit.svg"
   inkscape:version="1.4.4 (dcaf3e7d9e, 2026-05-05)"
   xmlns:inkscape="http://www.inkscape.org/namespaces/inkscape"
   xmlns:sodipodi="http://sodipodi.sourceforge.net/DTD/sodipodi-0.dtd"
   xmlns="http://www.w3.org/2000/svg"
   xmlns:svg="http://www.w3.org/2000/svg">
  <defs
     id="defs8" />
  <sodipodi:namedview
     id="namedview6"
     pagecolor="#505050"
     bordercolor="#ffffff"
     borderopacity="1"
     inkscape:pageshadow="0"
     inkscape:pageopacity="0"
     inkscape:pagecheckerboard="1"
     showgrid="false"
     inkscape:zoom="18.384776"
     inkscape:cx="3.209177"
     inkscape:cy="15.529153"
     inkscape:window-width="1536"
     inkscape:window-height="792"
     inkscape:window-x="0"
     inkscape:window-y="0"
     inkscape:window-maximized="1"
     inkscape:current-layer="svg4"
     inkscape:showpageshadow="2"
     inkscape:deskcolor="#d1d1d1" />
  <path
     d="m 3,14 v -2 h 7 v 2 z M 3,10 V 8 h 11 v 2 z M 3,6 V 4 h 11 v 2 z m 9,14 v -3.075 l 5.525,-5.5 Q 17.75,11.2 18.025,11.1 18.3,11 18.575,11 q 0.3,0 0.575,0.1125 0.275,0.1125 0.5,0.3375 l 0.925,0.925 q 0.2,0.225 0.3125,0.5 Q 21,13.15 21,13.425 21,13.7 20.9,13.9875 20.8,14.275 20.575,14.5 l -5.5,5.5 z M 19.5,13.425 18.575,12.5 Z m -6,5.075 h 0.95 l 3.025,-3.05 -0.45,-0.475 -0.475,-0.45 -3.05,3.025 z m 3.525,-3.525 -0.475,-0.45 0.925,0.925 z"
     id="path1"
     style="fill:#e2e2e2;stroke-width:0.025" />
</svg>
