<?xml version="1.0" encoding="UTF-8" standalone="no"?>
<svg
   version="1.1"
   width="24"
   height="24"
   viewBox="0 0 24 24"
   id="svg1217"
   sodipodi:docname="extruder-2.svg"
   inkscape:version="1.1 (c4e8f9ed74, 2021-05-24)"
   xmlns:inkscape="http://www.inkscape.org/namespaces/inkscape"
   xmlns:sodipodi="http://sodipodi.sourceforge.net/DTD/sodipodi-0.dtd"
   xmlns="http://www.w3.org/2000/svg"
   xmlns:svg="http://www.w3.org/2000/svg">
  <defs
     id="defs1221" />
  <sodipodi:namedview
     id="namedview1219"
     pagecolor="#505050"
     bordercolor="#ffffff"
     borderopacity="1"
     inkscape:pageshadow="0"
     inkscape:pageopacity="0"
     inkscape:pagecheckerboard="1"
     showgrid="false"
     inkscape:zoom="26"
     inkscape:cx="12"
     inkscape:cy="12.019231"
     inkscape:window-width="1600"
     inkscape:window-height="826"
     inkscape:window-x="0"
     inkscape:window-y="0"
     inkscape:window-maximized="1"
     inkscape:current-layer="svg1217" />
  <path
     d="M15,11C15,12.11 14.1,13 13,13H11V15H15V17H9V13C9,11.89 9.9,11 11,11H13V9H9V7H13A2,2 0 0,1 15,9M19,3H5A2,2 0 0,0 3,5V19A2,2 0 0,0 5,21H19A2,2 0 0,0 21,19V5A2,2 0 0,0 19,3Z"
     id="path1215"
     style="fill:#e2e2e2" />
</svg>
