<?xml version="1.0" encoding="UTF-8" standalone="no"?>
<svg
   version="1.1"
   width="24"
   height="24"
   viewBox="0 0 24 24"
   id="svg4"
   sodipodi:docname="fine-tune.svg"
   inkscape:version="1.1 (c4e8f9ed74, 2021-05-24)"
   xmlns:inkscape="http://www.inkscape.org/namespaces/inkscape"
   xmlns:sodipodi="http://sodipodi.sourceforge.net/DTD/sodipodi-0.dtd"
   xmlns="http://www.w3.org/2000/svg"
   xmlns:svg="http://www.w3.org/2000/svg">
  <defs
     id="defs8" />
  <sodipodi:namedview
     id="namedview6"
     pagecolor="#505050"
     bordercolor="#ffffff"
     borderopacity="1"
     inkscape:pageshadow="0"
     inkscape:pageopacity="0"
     inkscape:pagecheckerboard="1"
     showgrid="false"
     inkscape:zoom="26"
     inkscape:cx="-0.38461538"
     inkscape:cy="12.019231"
     inkscape:window-width="1600"
     inkscape:window-height="826"
     inkscape:window-x="0"
     inkscape:window-y="0"
     inkscape:window-maximized="1"
     inkscape:current-layer="svg4" />
  <path
     d="M8 13C6.14 13 4.59 14.28 4.14 16H2V18H4.14C4.59 19.72 6.14 21 8 21S11.41 19.72 11.86 18H22V16H11.86C11.41 14.28 9.86 13 8 13M8 19C6.9 19 6 18.1 6 17C6 15.9 6.9 15 8 15S10 15.9 10 17C10 18.1 9.1 19 8 19M19.86 6C19.41 4.28 17.86 3 16 3S12.59 4.28 12.14 6H2V8H12.14C12.59 9.72 14.14 11 16 11S19.41 9.72 19.86 8H22V6H19.86M16 9C14.9 9 14 8.1 14 7C14 5.9 14.9 5 16 5S18 5.9 18 7C18 8.1 17.1 9 16 9Z"
     id="path2"
     style="fill:#e2e2e2" />
</svg>
