<?xml version="1.0" encoding="UTF-8" standalone="no"?>
<svg
   version="1.1"
   width="24"
   height="24"
   viewBox="0 0 24 24"
   id="svg1022"
   sodipodi:docname="info.svg"
   inkscape:version="1.1 (c4e8f9ed74, 2021-05-24)"
   xmlns:inkscape="http://www.inkscape.org/namespaces/inkscape"
   xmlns:sodipodi="http://sodipodi.sourceforge.net/DTD/sodipodi-0.dtd"
   xmlns="http://www.w3.org/2000/svg"
   xmlns:svg="http://www.w3.org/2000/svg">
  <defs
     id="defs1026" />
  <sodipodi:namedview
     id="namedview1024"
     pagecolor="#505050"
     bordercolor="#ffffff"
     borderopacity="1"
     inkscape:pageshadow="0"
     inkscape:pageopacity="0"
     inkscape:pagecheckerboard="1"
     showgrid="false"
     inkscape:zoom="26"
     inkscape:cx="-0.38461538"
     inkscape:cy="12.019231"
     inkscape:window-width="1600"
     inkscape:window-height="826"
     inkscape:window-x="0"
     inkscape:window-y="0"
     inkscape:window-maximized="1"
     inkscape:current-layer="svg1022" />
  <path
     d="M13.5,4A1.5,1.5 0 0,0 12,5.5A1.5,1.5 0 0,0 13.5,7A1.5,1.5 0 0,0 15,5.5A1.5,1.5 0 0,0 13.5,4M13.14,8.77C11.95,8.87 8.7,11.46 8.7,11.46C8.5,11.61 8.56,11.6 8.72,11.88C8.88,12.15 8.86,12.17 9.05,12.04C9.25,11.91 9.58,11.7 10.13,11.36C12.25,10 10.47,13.14 9.56,18.43C9.2,21.05 11.56,19.7 12.17,19.3C12.77,18.91 14.38,17.8 14.54,17.69C14.76,17.54 14.6,17.42 14.43,17.17C14.31,17 14.19,17.12 14.19,17.12C13.54,17.55 12.35,18.45 12.19,17.88C12,17.31 13.22,13.4 13.89,10.71C14,10.07 14.3,8.67 13.14,8.77Z"
     id="path1020"
     style="fill:#e2e2e2" />
</svg>
