<?xml version="1.0" encoding="UTF-8" standalone="no"?>
<svg
   version="1.1"
   width="24"
   height="24"
   viewBox="0 0 24 24"
   id="svg957"
   sodipodi:docname="lock.svg"
   inkscape:version="1.2.2 (b0a8486541, 2022-12-01)"
   xmlns:inkscape="http://www.inkscape.org/namespaces/inkscape"
   xmlns:sodipodi="http://sodipodi.sourceforge.net/DTD/sodipodi-0.dtd"
   xmlns="http://www.w3.org/2000/svg"
   xmlns:svg="http://www.w3.org/2000/svg">
  <defs
     id="defs961" />
  <sodipodi:namedview
     id="namedview959"
     pagecolor="#505050"
     bordercolor="#ffffff"
     borderopacity="1"
     inkscape:pageshadow="0"
     inkscape:pageopacity="0"
     inkscape:pagecheckerboard="1"
     showgrid="false"
     inkscape:zoom="13"
     inkscape:cx="8.4230769"
     inkscape:cy="13.615385"
     inkscape:window-width="1600"
     inkscape:window-height="828"
     inkscape:window-x="0"
     inkscape:window-y="0"
     inkscape:window-maximized="1"
     inkscape:current-layer="svg957"
     inkscape:showpageshadow="2"
     inkscape:deskcolor="#505050" />
  <path
     d="m 6.75,21.1875 q -0.721876,0 -1.235938,-0.514062 Q 5,20.159375 5,19.4375 v -8.75 Q 5,9.9656252 5.514062,9.4515625 6.028124,8.9375001 6.75,8.9375001 H 7.625 V 7.1875002 Q 7.625,5.3718751 8.904688,4.0921878 10.184374,2.8125 11.999998,2.8125 q 1.815627,0 3.095315,1.2796878 Q 16.375,5.3718751 16.375,7.1875002 v 1.7499999 h 0.875 q 0.721875,0 1.235938,0.5140624 Q 19,9.9656252 19,10.6875 v 8.75 q 0,0.721875 -0.514062,1.235938 Q 17.971875,21.1875 17.25,21.1875 Z m 0,-1.75 h 10.5 v -8.75 H 6.75 Z m 5.249998,-2.625 q 0.721875,0 1.23594,-0.514062 Q 13.75,15.784375 13.75,15.062501 q 0,-0.721875 -0.514062,-1.235939 -0.514065,-0.514061 -1.23594,-0.514061 -0.721875,0 -1.235935,0.514061 Q 10.25,14.340626 10.25,15.062501 q 0,0.721874 0.514063,1.235937 0.51406,0.514062 1.235935,0.514062 z M 9.375,8.9375001 h 5.25 V 7.1875002 q 0,-1.0937499 -0.765625,-1.8593751 Q 13.09375,4.5625 11.999998,4.5625 10.90625,4.5625 10.140624,5.3281251 9.375,6.0937503 9.375,7.1875002 Z M 6.75,19.4375 v -8.75 z"
     id="path233"
     style="font-variation-settings:normal;opacity:1;vector-effect:none;fill:#e2e2e2;fill-opacity:1;stroke-width:0.999994;stroke-linecap:butt;stroke-linejoin:miter;stroke-miterlimit:4;stroke-dasharray:none;stroke-dashoffset:0;stroke-opacity:1;-inkscape-stroke:none;stop-color:#000000;stop-opacity:1" />
</svg>
