<?xml version="1.0" encoding="UTF-8"?>
<svg version="1.1" xmlns="http://www.w3.org/2000/svg" width="649" height="649">
<path d="M0 0 C13.51405938 0.55499217 26.23753775 14.67979095 35.54614258 23.38793945 C41.04758136 28.49144414 46.97946936 32.9769324 53 37.4375 C53.70543945 37.96214844 54.41087891 38.48679688 55.13769531 39.02734375 C64.53950022 46.01315504 74.00627241 52.90754463 83.51049805 59.75317383 C88.80381061 63.56698548 94.07070038 67.41503923 99.32617188 71.28076172 C104.11422724 74.79833572 108.9291208 78.277593 113.75 81.75 C128.33953117 92.2706191 142.79426682 102.95411068 157.04394531 113.93115234 C158.95195492 115.40050073 160.86229788 116.86675718 162.7734375 118.33203125 C165.85318972 120.69511157 168.93274973 123.05819015 172 125.4375 C172.80405273 126.03183838 173.60810547 126.62617676 174.43652344 127.23852539 C177.13714342 129.55514293 178.81526343 131.76515294 180.75 134.7421875 C181.43400879 135.78866455 182.11801758 136.8351416 182.82275391 137.91333008 C183.54924841 139.04590867 184.27497817 140.17897811 185 141.3125 C185.76084094 142.4918219 186.52174676 143.67110194 187.28271484 144.8503418 C197.14797636 160.1962606 206.26244823 175.8152715 214.5625 192.0625 C226.26968253 218.5928171 226.26968253 218.5928171 246 238.4375 C246.4140625 240.50390625 246.4140625 240.50390625 246.625 243 C246.73714844 244.23943359 246.73714844 244.23943359 246.8515625 245.50390625 C246.90054688 246.14199219 246.94953125 246.78007812 247 247.4375 C245.35 247.7675 243.7 248.0975 242 248.4375 C242.99 251.0775 243.98 253.7175 245 256.4375 C245 254.7875 245 253.1375 245 251.4375 C246.32 251.1075 247.64 250.7775 249 250.4375 C249.20589721 242.87342467 249.20589721 242.87342467 248 235.4375 C249.03090293 234.46759724 250.07540012 233.51213799 251.125 232.5625 C251.70507812 232.02882813 252.28515625 231.49515625 252.8828125 230.9453125 C260.45663764 225.55140751 271.42264189 226.51689993 280.2421875 227.97265625 C286.77006635 229.62722942 292.6608082 231.68550964 297.125 236.9375 C298.81426627 240.09079705 300.12171643 243.17998884 301.4375 246.5 C303.34963179 251.2107974 305.04942723 254.13004372 309 257.4375 C310.41044473 258.75536727 311.80520482 260.09013646 313.1875 261.4375 C313.86167969 262.076875 314.53585937 262.71625 315.23046875 263.375 C317.96703384 266.56463878 319.02488866 269.24284417 318.9375 273.4375 C317.75808385 277.21163169 315.87255462 278.77012785 313 281.4375 C310.48664775 285.17799812 308.8868023 289.03767764 307.3125 293.25 C306.87550781 294.41144531 306.43851562 295.57289063 305.98828125 296.76953125 C305.66214844 297.64996094 305.33601563 298.53039062 305 299.4375 C300.00815264 299.73113808 297.02555256 299.51586372 293 296.4375 C292.67 295.7775 292.34 295.1175 292 294.4375 C286.19481029 294.86751405 281.69597175 296.19102494 276.39453125 298.59765625 C273.7492203 299.52545699 271.78369577 299.67690722 269 299.4375 C267.125 298.1875 267.125 298.1875 266 296.4375 C266.28516028 293.3957904 267.26030535 292.04704198 269 289.4375 C266.73695452 287.17445452 261.85040407 287.46991726 258.78515625 287.03515625 C256 286.4375 256 286.4375 254 284.4375 C253.875 281.3125 253.875 281.3125 254 278.4375 C254.66 278.1075 255.32 277.7775 256 277.4375 C254.33248852 273.49610922 251.77289351 270.6482188 249 267.4375 C249.23396484 268.50291016 249.23396484 268.50291016 249.47265625 269.58984375 C249.66730469 270.50894531 249.86195313 271.42804688 250.0625 272.375 C250.25972656 273.29152344 250.45695312 274.20804687 250.66015625 275.15234375 C250.77230469 275.90644531 250.88445312 276.66054688 251 277.4375 C250.67 277.7675 250.34 278.0975 250 278.4375 C249.61685003 282.42225967 249.60045633 284.74598212 251.625 288.25 C254.31296266 290.72575508 256.48281029 291.55820257 260 292.4375 C260.0928125 294.0153125 260.0928125 294.0153125 260.1875 295.625 C261.14137448 300.10087256 262.53046987 301.56032867 266 304.4375 C269.23805193 306.05652597 272.48950745 305.89084175 276 305.4375 C278.64743245 304.49425311 281.16299239 303.4161485 283.703125 302.21484375 C286.32871351 301.32625172 287.44885133 301.44206246 290 302.4375 C290.680625 302.9325 291.36125 303.4275 292.0625 303.9375 C296.52312517 306.21526604 301.06051058 306.1201585 306 306.4375 C313.5 307.1875 313.5 307.1875 316 308.4375 C315.56961027 321.58590639 313.01630375 333.72394581 305 344.4375 C304.13890625 345.16324219 303.2778125 345.88898438 302.390625 346.63671875 C299.08427257 350.51033753 299.01206337 353.7955206 298.6875 358.75 C298.61466797 359.58595703 298.54183594 360.42191406 298.46679688 361.28320312 C298.29109899 363.33301183 298.14279165 365.38513648 298 367.4375 C296.68 367.4375 295.36 367.4375 294 367.4375 C292.078125 365.46875 292.078125 365.46875 290.25 362.9375 C289.63640625 362.1021875 289.0228125 361.266875 288.390625 360.40625 C287.93171875 359.7565625 287.4728125 359.106875 287 358.4375 C288.98 355.7975 290.96 353.1575 293 350.4375 C291.68 351.4275 290.36 352.4175 289 353.4375 C281.89801688 357.60605531 273.52026108 357.46269134 265.5390625 355.98046875 C263.625 355.4375 263.625 355.4375 261 354.4375 C263.31 355.7575 265.62 357.0775 268 358.4375 C266.59671627 362.9024937 264.77187256 365.62865873 261 368.4375 C257.95207459 368.8466175 255.05454186 368.73696489 252 368.4375 C248.57226345 354.99278576 246.34313352 341.94876933 245.5625 328.0625 C245.0633599 320.75841646 244.56417191 313.51042059 239 308.25 C238.48179687 307.80011719 237.96359375 307.35023438 237.4296875 306.88671875 C235.02110082 304.44522789 234.14990095 301.63166931 233 298.4375 C232.29875 298.581875 231.5975 298.72625 230.875 298.875 C229.92625 299.060625 228.9775 299.24625 228 299.4375 C226.948125 299.664375 225.89625 299.89125 224.8125 300.125 C223.884375 300.228125 222.95625 300.33125 222 300.4375 C220 298.4375 220 298.4375 219.8125 296.5 C219.08914845 293.98491335 219.08914845 293.98491335 215.4375 292.6875 C214.303125 292.275 213.16875 291.8625 212 291.4375 C212 290.7775 212 290.1175 212 289.4375 C214.31 288.4475 216.62 287.4575 219 286.4375 C220.32 287.7575 221.64 289.0775 223 290.4375 C227.19162145 289.48485876 228.7207791 288.80489592 231.375 285.3125 C231.91125 284.36375 232.4475 283.415 233 282.4375 C232.67 282.1075 232.34 281.7775 232 281.4375 C231.2575 282.283125 230.515 283.12875 229.75 284 C228.38875 285.2065625 228.38875 285.2065625 227 286.4375 C225.68 286.1075 224.36 285.7775 223 285.4375 C222.67 282.4675 222.34 279.4975 222 276.4375 C221.43152344 277.0871875 220.86304688 277.736875 220.27734375 278.40625 C213.9767121 285.22229225 213.9767121 285.22229225 209.3125 286.25 C205.52037398 285.31985588 203.06423755 283.82910004 200 281.4375 C201.80412643 284.70210973 202.83394693 286.32679795 206 288.4375 C206 289.0975 206 289.7575 206 290.4375 C201.31791326 291.91325977 197.97633545 292.67371019 193.125 291.5 C189.08764434 288.83534527 188.45205734 286.96450229 187 282.4375 C186.25234375 282.55609375 185.5046875 282.6746875 184.734375 282.796875 C176.78226265 283.8377274 176.78226265 283.8377274 173.3125 282.0625 C171.38739295 278.2122859 171.67503219 274.66208154 172 270.4375 C174.64 270.1075 177.28 269.7775 180 269.4375 C180.45375 270.241875 180.9075 271.04625 181.375 271.875 C182.74725665 274.52606572 182.74725665 274.52606572 185 275.4375 C189.65275976 275.7427622 189.65275976 275.7427622 194 274.4375 C193.43410156 274.31632812 192.86820313 274.19515625 192.28515625 274.0703125 C191.55167969 273.90273438 190.81820312 273.73515625 190.0625 273.5625 C188.96615234 273.31886719 188.96615234 273.31886719 187.84765625 273.0703125 C186 272.4375 186 272.4375 185 270.4375 C184.95977609 268.1045134 184.95679753 265.77043334 185 263.4375 C183.948125 263.7675 182.89625 264.0975 181.8125 264.4375 C178.61126643 265.27716782 176.2588992 265.63500904 173 265.4375 C173 263.4575 173 261.4775 173 259.4375 C170.49701566 262.37578597 169.53069061 264.61652761 169 268.4375 C166.4375 266.3125 166.4375 266.3125 164 263.4375 C164.1875 260.125 164.1875 260.125 165 257.4375 C165.66 257.4375 166.32 257.4375 167 257.4375 C167 256.7775 167 256.1175 167 255.4375 C168.65 255.1075 170.3 254.7775 172 254.4375 C169.03 253.4475 169.03 253.4475 166 252.4375 C166.75 247.6875 166.75 247.6875 169 245.4375 C166.69 244.4475 164.38 243.4575 162 242.4375 C162.125 240.6875 162.125 240.6875 163 238.4375 C166.45987796 235.76395794 169.88302072 233.89055151 174 232.4375 C172.88625 231.98375 171.7725 231.53 170.625 231.0625 C167 229.4375 167 229.4375 165 227.4375 C164.875 224.3125 164.875 224.3125 165 221.4375 C167.475 220.4475 167.475 220.4475 170 219.4375 C168.7934375 218.32375 168.7934375 218.32375 167.5625 217.1875 C164.08888889 213.45972222 164.08888889 213.45972222 164 210.4375 C164.588562 208.083252 165.24592899 205.74407014 166 203.4375 C162.44610943 207.9909223 161.66246125 210.69934124 162 216.4375 C161 217.4375 161 217.4375 158.4375 217.5 C157.633125 217.479375 156.82875 217.45875 156 217.4375 C155.65432961 205.74231844 155.65432961 205.74231844 157.125 201.5 C158.18245315 197.79891399 157.50533744 196.86632417 156 193.4375 C155.81848315 190.74500003 155.90837073 188.14056351 156 185.4375 C159.57996647 185.4375 160.23393817 186.36295363 163 188.4375 C163.99 188.4375 164.98 188.4375 166 188.4375 C165.175 187.674375 164.35 186.91125 163.5 186.125 C161 183.4375 161 183.4375 161 180.4375 C163.31 180.1075 165.62 179.7775 168 179.4375 C167.67 178.57125 167.34 177.705 167 176.8125 C165.99607891 173.42426631 165.60173454 170.94223606 166 167.4375 C166.99 166.7775 167.98 166.1175 169 165.4375 C166.58380177 165.18719023 166.58380177 165.18719023 164 165.4375 C161.5705484 169.0816774 161.83820425 171.14991272 162 175.4375 C160.02 176.4275 158.04 177.4175 156 178.4375 C153.65831236 174.92496854 153.50376323 173.57280644 154 169.4375 C155.9375 166.75 155.9375 166.75 158 164.4375 C158.33 163.4475 158.66 162.4575 159 161.4375 C158.34 161.7675 157.68 162.0975 157 162.4375 C149.43226972 162.95239304 142.34512669 162.25753139 135 160.4375 C135.96301999 157.47965289 136.94685947 154.56739908 138.125 151.6875 C139.12081542 149.52919027 139.12081542 149.52919027 139 147.4375 C138.3709375 147.19386719 137.741875 146.95023438 137.09375 146.69921875 C135 145.4375 135 145.4375 134.03125 143.51953125 C133.00463957 139.13379112 132.56656443 136.38611144 134.875 132.375 C135.57625 131.405625 136.2775 130.43625 137 129.4375 C140.74633486 130.68627829 142.41041797 132.49797445 145 135.4375 C145 136.4275 145 137.4175 145 138.4375 C144.67 138.7675 144.34 139.0975 144 139.4375 C143.41389629 141.76578629 143.41389629 141.76578629 144 144.4375 C145.83438313 146.52023038 147.69057477 147.82090234 150 149.4375 C150.66 149.4375 151.32 149.4375 152 149.4375 C150.02 147.1275 148.04 144.8175 146 142.4375 C146.33 141.7775 146.66 141.1175 147 140.4375 C151.62 140.4375 156.24 140.4375 161 140.4375 C159.02 139.468125 157.04 138.49875 155 137.5 C148.85027889 134.30914333 143.68450627 130.45960843 140 124.4375 C140 123.1175 140 121.7975 140 120.4375 C143.59499467 118.64000267 147.26465741 119.43077291 151 120.4375 C154.87146268 122.49437565 158.42839541 124.90224625 162 127.4375 C162.99 128.0975 163.98 128.7575 165 129.4375 C160.02061628 123.05367472 154.20141276 116.76715891 145.8125 115.5 C142.10820386 115.27274505 142.10820386 115.27274505 139.046875 116.1875 C136 116.4375 136 116.4375 133.74609375 114.83984375 C132.60333984 113.61974609 132.60333984 113.61974609 131.4375 112.375 C123.36606509 104.33406169 113.53542412 98.57179972 104 92.4375 C102.90510254 91.73222168 102.90510254 91.73222168 101.78808594 91.01269531 C100.43736265 90.14294557 99.08661445 89.2732345 97.73583984 88.40356445 C97.0805127 87.98163818 96.42518555 87.55971191 95.75 87.125 C95.08822754 86.69985107 94.42645508 86.27470215 93.74462891 85.83666992 C79.69773265 76.76711088 65.94642607 67.21734829 52.22265625 57.66796875 C48.84365247 55.32928856 45.44989565 53.01319765 42.05395508 50.69921875 C38.02961445 47.95454351 34.01301187 45.19870718 30 42.4375 C29.32163086 41.97134277 28.64326172 41.50518555 27.94433594 41.02490234 C20.1523053 35.64733163 12.8585968 29.99389809 6 23.4375 C5.113125 22.6125 4.22625 21.7875 3.3125 20.9375 C-5.976866 10.89494216 -5.976866 10.89494216 -6.0625 5.5 C-4.70765282 1.59485225 -4.13882679 0.60357891 0 0 Z M186 196.4375 C187.19899698 199.5206351 188.47700477 202.50029492 190 205.4375 C189.21625 205.23125 188.4325 205.025 187.625 204.8125 C186.75875 204.68875 185.8925 204.565 185 204.4375 C182.34500624 207.09249376 182.67102447 208.48713297 182.625 212.1875 C182.69032446 217.62249497 183.41069815 220.39953542 187 224.4375 C186.505 224.994375 186.01 225.55125 185.5 226.125 C183.70731402 228.88872422 183.41993788 230.20572531 184 233.4375 C186.37869491 236.09065971 187.67124653 236.41853345 191.25 236.625 C192.1575 236.563125 193.065 236.50125 194 236.4375 C191.66785852 235.23121992 189.50357861 234.2720262 187 233.4375 C187.75 228.6875 187.75 228.6875 190 226.4375 C191.31747324 225.74001417 192.64914193 225.06790043 194 224.4375 C193.50628906 223.94121094 193.01257813 223.44492187 192.50390625 222.93359375 C188.27201535 218.44625672 186.12980837 215.6683016 186 209.4375 C188.97 209.4375 191.94 209.4375 195 209.4375 C193.65890704 203.93901887 190.96523729 200.344935 187 196.4375 C186.67 196.4375 186.34 196.4375 186 196.4375 Z M193.5 245.875 C190.39580464 249.68510568 189.55582043 253.57003224 190 258.4375 C191.26938424 261.12370182 191.26938424 261.12370182 194 262.4375 C196.70533688 263.03525063 199.21757608 263.25200507 202 263.4375 C201.896875 264.51 201.79375 265.5825 201.6875 266.6875 C201.62591811 270.49942285 201.62591811 270.49942285 204.125 272.8125 C207.89309737 274.94229417 210.70267549 276.01960737 215.01953125 274.92578125 C218.78435097 273.60564966 221.9679553 272.09053911 225 269.4375 C224.505 268.4475 224.505 268.4475 224 267.4375 C223.46890625 267.76492188 222.9378125 268.09234375 222.390625 268.4296875 C217.85507171 270.34173448 212.84342149 269.54279177 208 269.4375 C208.33 264.4875 208.66 259.5375 209 254.4375 C207.35 255.4275 205.7 256.4175 204 257.4375 C200.21747959 258.36383153 197.70682928 258.48976121 194 257.4375 C194.31127516 255.85392541 194.62407289 254.27065007 194.9375 252.6875 C195.11152344 251.80578125 195.28554687 250.9240625 195.46484375 250.015625 C195.92368488 247.80514947 196.43336074 245.62237932 197 243.4375 C195.53739678 243.32114998 195.53739678 243.32114998 193.5 245.875 Z M299 275.4375 C297.70366379 276.50395115 297.70366379 276.50395115 297.9375 279 C297.958125 279.804375 297.97875 280.60875 298 281.4375 C299.98 282.4275 299.98 282.4275 302 283.4375 C302.99 282.7775 303.98 282.1175 305 281.4375 C304.67 279.7875 304.34 278.1375 304 276.4375 C302.34385343 276.05531233 300.67542976 275.72354898 299 275.4375 Z M310 317.4375 C309.35309078 319.0412331 308.70751236 320.64550306 308.0625 322.25 C307.70285156 323.14332031 307.34320313 324.03664063 306.97265625 324.95703125 C306.26386514 326.7645909 305.6139753 328.59557409 305 330.4375 C302.45370289 331.81387682 300.77611322 332.52880744 297.875 332.1875 C296 331.4375 296 331.4375 293 329.4375 C292.72285156 329.99179687 292.44570313 330.54609375 292.16015625 331.1171875 C290.7734375 333.890625 289.38671875 336.6640625 288 339.4375 C288.86625 338.9734375 288.86625 338.9734375 289.75 338.5 C293.01125353 336.95996361 295.24657293 336.3719846 298.875 336.6875 C303.06958376 336.3519333 305.29013037 334.46711826 308 331.4375 C311.20887163 326.62419255 311.28944223 323.03338314 311 317.4375 C310.67 317.4375 310.34 317.4375 310 317.4375 Z " fill="#EEEEEE" transform="translate(50,109.5625)"/>
<path d="M0 0 C2 2 2 2 2 4.5 C-2.33264652 19.66426282 -15.55272537 27.83224394 -28 36 C-30.00114265 37.33161777 -32.00116119 38.66492653 -34 40 C-46 48 -46 48 -48.99633789 49.99707031 C-51.00914541 51.3392692 -53.02134668 52.68237764 -55.03295898 54.02636719 C-61.68661446 58.46965394 -68.36124823 62.87882992 -75.0625 67.25 C-76.55221313 68.22259766 -76.55221313 68.22259766 -78.07202148 69.21484375 C-84.19834932 73.20467293 -90.3624596 77.12604828 -96.5625 81 C-120.12536922 94.4496143 -120.12536922 94.4496143 -140.515625 111.76953125 C-141.00546875 112.17558594 -141.4953125 112.58164063 -142 113 C-143.91015625 112.71484375 -143.91015625 112.71484375 -146.0625 111.9375 C-150.91233988 110.6975733 -153.91091444 111.39306008 -158.42578125 113.44140625 C-163.17161133 116.31482992 -167.0837865 120.10045123 -171 124 C-167.76715423 122.92238474 -165.66674939 121.44070328 -162.875 119.5 C-157.68937844 116.13933158 -154.15517123 115 -148 115 C-147.34 115.33 -146.68 115.66 -146 116 C-146.09944188 120.07711701 -147.049404 122.49018289 -149.75 125.4375 C-154.73401655 130.11850506 -160.92330135 132.9936333 -167 136 C-165.86111328 135.98259766 -165.86111328 135.98259766 -164.69921875 135.96484375 C-163.70535156 135.95582031 -162.71148437 135.94679687 -161.6875 135.9375 C-160.70136719 135.92589844 -159.71523438 135.91429687 -158.69921875 135.90234375 C-156 136 -156 136 -153 137 C-153.57352893 140.87132028 -155.48704352 143.08172796 -158 146 C-152.78124454 142.97990421 -152.78124454 142.97990421 -149.9375 137.875 C-149.74720386 134.7980017 -149.74720386 134.7980017 -152 132 C-149.36 129.69 -146.72 127.38 -144 125 C-141.44106653 127.14620227 -140.12833985 128.61498044 -139.0625 131.8125 C-138.97899956 136.07102223 -139.9506565 138.2672672 -142 142 C-142.99 142.33 -143.98 142.66 -145 143 C-145.37148484 147.33398977 -144.28537994 149.38148176 -142 153 C-142 153.99 -142 154.98 -142 156 C-149.9925652 158.2173731 -156.78079326 159.53994167 -165 158 C-165.33 158.66 -165.66 159.32 -166 160 C-165.360625 160.28875 -164.72125 160.5775 -164.0625 160.875 C-162 162 -162 162 -161 164 C-160.53462604 170.39889197 -160.53462604 170.39889197 -162.5 172.9375 C-162.995 173.288125 -163.49 173.63875 -164 174 C-166.5 173 -166.5 173 -169 171 C-169.4269571 168.25286814 -169.17789156 165.80179212 -169 163 C-169.33 162.34 -169.66 161.68 -170 161 C-172.52733235 160.34444881 -172.52733235 160.34444881 -175 160 C-174.48824219 160.37769531 -173.97648437 160.75539063 -173.44921875 161.14453125 C-172 163 -172 163 -172.14453125 165.69921875 C-172.36496094 166.68535156 -172.58539063 167.67148437 -172.8125 168.6875 C-173.13154297 170.17830078 -173.13154297 170.17830078 -173.45703125 171.69921875 C-173.63621094 172.45847656 -173.81539063 173.21773437 -174 174 C-172.02 174.66 -170.04 175.32 -168 176 C-168.54226981 179.79588866 -170.20127563 181.47211993 -173 184 C-170.23723823 183.47731534 -167.6739124 182.89130413 -165 182 C-164.67 181.34 -164.34 180.68 -164 180 C-162.42972683 181.57027317 -162.83025614 183.14269947 -162.8125 185.3125 C-162.79832031 186.09238281 -162.78414063 186.87226563 -162.76953125 187.67578125 C-163.02091355 190.21090786 -163.82072917 191.76984669 -165 194 C-164.74276031 196.02919843 -164.74276031 196.02919843 -164 198 C-163.10027083 201.07907317 -162.8074237 203.91884367 -162.75 207.125 C-162.72421875 207.99382812 -162.6984375 208.86265625 -162.671875 209.7578125 C-162.78015625 210.49773437 -162.8884375 211.23765625 -163 212 C-163.99 212.66 -164.98 213.32 -166 214 C-167.485 213.01 -167.485 213.01 -169 212 C-169.40625 209.94140625 -169.40625 209.94140625 -169.5 207.5625 C-169.61927681 204.05603802 -169.61927681 204.05603802 -171.53125 201.21484375 C-172.0159375 200.81394531 -172.500625 200.41304687 -173 200 C-172.67 200.99 -172.34 201.98 -172 203 C-171.625 206.4375 -171.625 206.4375 -172 210 C-174.5 212.4375 -174.5 212.4375 -177 214 C-176.01 214.556875 -176.01 214.556875 -175 215.125 C-173 217 -173 217 -172.5625 220 C-173 223 -173 223 -174.1875 224.75 C-176.34315122 226.23665602 -178.56379165 227.05900954 -181 228 C-180.28972656 228.30292969 -179.57945312 228.60585938 -178.84765625 228.91796875 C-177.92855469 229.33691406 -177.00945312 229.75585938 -176.0625 230.1875 C-175.14597656 230.59355469 -174.22945313 230.99960937 -173.28515625 231.41796875 C-171 233 -171 233 -170.18359375 235.67578125 C-170.12300781 236.44277344 -170.06242187 237.20976562 -170 238 C-173.465 238.99 -173.465 238.99 -177 240 C-176.46375 240.7425 -175.9275 241.485 -175.375 242.25 C-174 245 -174 245 -174.625 247.25 C-176 249 -176 249 -179 250 C-177.02 250.99 -175.04 251.98 -173 253 C-172.75 259.625 -172.75 259.625 -175 263 C-175.99 262.67 -176.98 262.34 -178 262 C-178.12375 261.21625 -178.2475 260.4325 -178.375 259.625 C-178.79117993 256.85942178 -178.79117993 256.85942178 -181 255 C-181 256.98 -181 258.96 -181 261 C-189.57142857 260 -189.57142857 260 -193 259 C-192.938125 259.928125 -192.87625 260.85625 -192.8125 261.8125 C-193 265 -193 265 -194.0625 266.8125 C-196.90927247 268.55729603 -199.71846765 268.69042148 -203 269 C-200.39385869 270.70401547 -199.10024068 271.00613718 -195.9375 270.8125 C-192.94109475 269.98370706 -191.84591317 269.42883312 -190 267 C-189.67 266.34 -189.34 265.68 -189 265 C-186.36 265 -183.72 265 -181 265 C-179.69214437 272.014862 -179.69214437 272.014862 -180.9375 276 C-183 278 -183 278 -186.875 278.4375 C-190.23031416 278.23320965 -192.97016593 277.51491704 -196 276 C-196.0825 276.9075 -196.165 277.815 -196.25 278.75 C-197.1380859 282.59837224 -197.73213959 283.79419422 -201 286 C-205.17915977 287.14048098 -208.52181411 287.71830596 -212.5 285.78515625 C-215.15463428 283.88958146 -217.30675945 281.85381623 -219.5625 279.5 C-221.73205874 277.24395971 -223.69228752 275.21059567 -226.27734375 273.44140625 C-226.84582031 272.96574219 -227.41429687 272.49007813 -228 272 C-228 270.09485585 -227.99052592 268.18891824 -227.91796875 266.28515625 C-228.27482012 256.34429669 -235.81402724 248.86349252 -241.74365234 241.56982422 C-248.05745761 233.68063498 -248.05745761 233.68063498 -247.921875 229.71484375 C-246.65401732 225.98111033 -244.39804127 223.19346573 -242 220.125 C-233.79929171 209.24913756 -227.35444835 197.78626137 -221.125 185.6875 C-212.9353983 169.78912304 -203.47818299 154.83623986 -193.39501953 140.078125 C-192.10610637 138.15806396 -190.87296167 136.21389922 -189.65234375 134.25 C-182.98426465 123.81775219 -173.98086538 117.13966199 -164 110 C-162.7741865 109.10753 -161.5488818 108.21436052 -160.32421875 107.3203125 C-157.50620422 105.27706099 -154.66586577 103.26779469 -151.81445312 101.27148438 C-149.85694917 99.89975663 -147.90463233 98.52086956 -145.953125 97.140625 C-143.09024811 95.1160582 -140.22565451 93.09396544 -137.359375 91.07421875 C-134.47137344 89.03878524 -131.58604893 86.99964987 -128.703125 84.95703125 C-121.17882929 79.62886301 -113.62412969 74.35144168 -106.01708984 69.14208984 C-99.00619082 64.33338732 -92.0686975 59.42262812 -85.13232422 54.50732422 C-83.03069917 53.02170102 -80.92441707 51.54295115 -78.81640625 50.06640625 C-58.18781297 35.65505645 -58.18781297 35.65505645 -38.57592773 19.9152832 C-14.64588213 -0.69742296 -14.64588213 -0.69742296 0 0 Z M-201 167 C-201.24234375 167.70125 -201.4846875 168.4025 -201.734375 169.125 C-203.36179342 173.731846 -205.00830062 178.21520443 -207.25 182.5625 C-209.15122768 185.65416795 -209.15122768 185.65416795 -209 188 C-205.45481116 186.60240095 -205.45481116 186.60240095 -202 185 C-200.00039988 184.960008 -197.99952758 184.95653201 -196 185 C-196.51035831 189.3890815 -197.52214277 192.33708062 -200 196 C-195.78291756 194.49389913 -194.05532548 191.88228147 -192 188 C-192.06814432 185.06979415 -192.59545696 183.61746043 -194.1875 181.1875 C-196.79361661 179.48004429 -198.9599355 179.79732903 -202 180 C-201.67 179.34 -201.34 178.68 -201 178 C-199.71312989 174.13938967 -199.86242382 171.05849717 -200 167 C-200.33 167 -200.66 167 -201 167 Z M-201 209 C-200.67 209.66 -200.34 210.32 -200 211 C-199.8125 214 -199.8125 214 -200 217 C-202.22189824 219.22189824 -204.08482708 219.92598892 -207 221 C-203.46942819 223.86483058 -203.46942819 223.86483058 -199.6875 226.375 C-199.130625 226.91125 -198.57375 227.4475 -198 228 C-198 229.98 -198 231.96 -198 234 C-202.29 234 -206.58 234 -211 234 C-211.33 237.63 -211.66 241.26 -212 245 C-213.485 245.495 -213.485 245.495 -215 246 C-212.525 245.505 -212.525 245.505 -210 245 C-209.34 243.02 -208.68 241.04 -208 239 C-207.40832031 238.97421875 -206.81664062 238.9484375 -206.20703125 238.921875 C-201.02065625 238.54960665 -197.62348308 238.07641847 -194 234 C-192.83789781 231.60648505 -192.83789781 231.60648505 -193 229 C-194.75113525 225.28738773 -194.75113525 225.28738773 -198 223 C-197.90460938 222.24074219 -197.80921875 221.48148438 -197.7109375 220.69921875 C-197.60007812 219.70535156 -197.48921875 218.71148437 -197.375 217.6875 C-197.25898438 216.70136719 -197.14296875 215.71523438 -197.0234375 214.69921875 C-196.74523005 211.77342584 -196.74523005 211.77342584 -199 209 C-199.66 209 -200.32 209 -201 209 Z M-198 241 C-198.13277344 241.69867188 -198.26554687 242.39734375 -198.40234375 243.1171875 C-198.57894531 244.02726563 -198.75554687 244.93734375 -198.9375 245.875 C-199.19853516 247.23238281 -199.19853516 247.23238281 -199.46484375 248.6171875 C-200 251 -200 251 -201 253 C-204.64653273 254.11421833 -207.33291043 253.94296589 -211 253 C-212.61737483 257.62107093 -213.85248597 262.2460133 -215 267 C-216.65 266.01 -218.3 265.02 -220 264 C-219.28436734 266.0162233 -219.28436734 266.0162233 -218 268 C-215.94999129 268.80528889 -215.94999129 268.80528889 -214 269 C-211.36620292 265.34666857 -209.53115106 262.51478398 -209 258 C-207.948125 258.103125 -206.89625 258.20625 -205.8125 258.3125 C-201.87208419 258.35526845 -201.87208419 258.35526845 -199.125 255.625 C-195.82593916 251.54968955 -195.72414214 249.2412994 -196 244 C-196.66 243.01 -197.32 242.02 -198 241 Z " fill="#EBEBEB" transform="translate(603,116)"/>
<path d="M0 0 C-3.10451882 12.5067758 -11.17550448 20.3969995 -22 27 C-36.63162667 35.36753374 -52.99063817 40.7401284 -68.72622681 46.63417053 C-73.0683589 48.2632869 -77.3940363 49.92756811 -81.70703125 51.6328125 C-94.51455447 56.68865121 -107.44024808 61.27062216 -120.5 65.625 C-121.71426666 66.03070724 -121.71426666 66.03070724 -122.95306396 66.4446106 C-125.2485608 67.20957138 -127.54568876 67.96934441 -129.84375 68.7265625 C-130.53828278 68.95726944 -131.23281555 69.18797638 -131.94839478 69.42567444 C-136.76636435 71 -136.76636435 71 -139 71 C-138.731875 70.505 -138.46375 70.01 -138.1875 69.5 C-136.83507317 66.86424865 -136.83507317 66.86424865 -136.05859375 63.2421875 C-133.87361731 57.44103884 -129.12782302 55.39354979 -123.875 52.625 C-122.85672119 52.07046143 -121.83844238 51.51592285 -120.78930664 50.94458008 C-107.99542727 44.15274347 -94.53404089 38.94893051 -80.8671875 34.203125 C-64.47104861 28.49257541 -48.77248952 21.35855124 -32.98503113 14.16542053 C-28.9994392 12.35104169 -25.00666479 10.555966 -20.99804688 8.79296875 C-19.77640839 8.25500671 -19.77640839 8.25500671 -18.53009033 7.70617676 C-16.98313859 7.02644895 -15.43499256 6.34943004 -13.88543701 5.67565918 C-10.84684437 4.33978129 -8.01552569 3.00951211 -5.17871094 1.27148438 C-3 0 -3 0 0 0 Z " fill="#E8E8E8" transform="translate(607,190)"/>
<path d="M0 0 C5.37644174 1.60306749 10.04880039 4.08213772 14.90625 6.81445312 C19.67608159 9.43584791 24.57646337 11.51562338 29.61230469 13.57348633 C33.31556689 15.13288104 36.9572812 16.79644937 40.59765625 18.49609375 C41.97232227 19.1364114 43.34699696 19.77671042 44.72167969 20.41699219 C45.42820679 20.74614624 46.13473389 21.07530029 46.8626709 21.41442871 C59.84268086 27.45102288 72.90998326 33.05877436 86.25 38.25 C100.01505132 43.61575378 113.17903167 49.59964116 126 57 C126.7640918 57.43022461 127.52818359 57.86044922 128.31542969 58.30371094 C129.03504883 58.72555664 129.75466797 59.14740234 130.49609375 59.58203125 C131.12829834 59.94917236 131.76050293 60.31631348 132.41186523 60.69458008 C134.86983828 62.71499236 135.60105354 65.13339097 136.4296875 68.1328125 C136.99504616 70.30397309 136.99504616 70.30397309 139 73 C132.088145 72.45000679 126.12234303 70.55282707 119.625 68.1875 C118.45815674 67.76662109 117.29131348 67.34574219 116.08911133 66.91210938 C103.18729908 62.20695773 90.44025635 57.09174207 77.6875 52 C76.63870667 51.58197113 75.58991333 51.16394226 74.50933838 50.73324585 C63.10685597 46.18055701 51.75270648 41.52729045 40.48046875 36.66015625 C39.54893478 36.26010376 38.61740082 35.86005127 37.65763855 35.44787598 C23.82554579 29.41989943 9.3746325 21.8643091 2 8 C1.16165455 5.33958583 0.56664231 2.73877116 0 0 Z " fill="#E8E8E8" transform="translate(41,185)"/>
<path d="M0 0 C2.75078866 2.0816779 2.74535292 3.39071771 3.234375 6.875 C3.0977152 11.61538674 1.33303151 14.40573407 -1.7109375 17.95703125 C-16.21899631 31.33372767 -36.85908247 38.33983289 -54.890625 45.5625 C-56.4996747 46.21138623 -58.10864129 46.86047858 -59.7175293 47.50976562 C-70.13546036 51.70408601 -80.59513204 55.78406339 -91.078125 59.8125 C-117.05881245 69.73399194 -117.05881245 69.73399194 -141.265625 83.3125 C-142.255625 83.3125 -143.245625 83.3125 -144.265625 83.3125 C-142.89533282 80.06065789 -141.56081156 78.51477806 -138.609375 76.60546875 C-137.84866699 76.10958252 -137.08795898 75.61369629 -136.30419922 75.1027832 C-135.46646973 74.57386475 -134.62874023 74.04494629 -133.765625 73.5 C-132.87762207 72.9330542 -131.98961914 72.3661084 -131.07470703 71.78198242 C-106.79955345 56.44314852 -81.34965159 43.12257541 -55.83203125 29.99609375 C-40.56795602 22.13674064 -25.41454798 13.94005413 -11.0078125 4.578125 C-10.40275879 4.18786133 -9.79770508 3.79759766 -9.17431641 3.39550781 C-7.65744232 2.40509665 -6.15596799 1.39120235 -4.65625 0.375 C-2.265625 -0.6875 -2.265625 -0.6875 0 0 Z " fill="#E5E5E5" transform="translate(614.265625,158.6875)"/>
<path d="M0 0 C0.64324219 0.4125 1.28648438 0.825 1.94921875 1.25 C3.88926231 2.48985665 5.83227528 3.72507258 7.77734375 4.95703125 C9.79623236 6.23688427 11.81010876 7.52471677 13.81640625 8.82421875 C21.57513505 13.75219963 29.60872267 17.95420131 37.78076172 22.1484375 C46.1726688 26.48987242 54.31396904 31.19498837 62.4453125 36.00292969 C67.99947659 39.2778589 73.5785832 42.42722705 79.3125 45.375 C126.42780676 69.71449222 126.42780676 69.71449222 142 84 C142 84.99 142 85.98 142 87 C137.91117827 85.50000395 134.31282379 83.51933793 130.5625 81.3125 C118.46008568 74.3417235 106.24594304 68.85091617 93.22509766 63.82763672 C81.79791122 59.39555388 70.51893598 54.63081571 59.25 49.8125 C58.36211792 49.43499603 57.47423584 49.05749207 56.55944824 48.66854858 C45.16653045 43.82003586 34.00176374 38.68151975 23 33 C21.92741943 32.44940918 20.85483887 31.89881836 19.74975586 31.33154297 C11.23141649 26.91256252 2.20051275 21.32822327 -3 13 C-4.2103969 8.87041058 -4.4871193 7.01852218 -2.625 3.125 C-1 1 -1 1 0 0 Z " fill="#E4E4E4" transform="translate(35,153)"/>
<path d="M0 0 C0.74975098 0.08652832 1.49950195 0.17305664 2.27197266 0.26220703 C10.50622741 1.31905696 19.24823409 2.59320699 24.8125 9.25 C25.51418294 13.28467693 24.99652591 14.93102176 22.9375 18.5 C20.8125 21.25 20.8125 21.25 18.8125 23.25 C12.82784905 23.68788923 7.02227389 22.6808809 1.11328125 21.7890625 C0.08301315 21.63843353 -0.94725494 21.48780457 -2.00874329 21.33261108 C-5.29821126 20.85146618 -8.5866886 20.36398261 -11.875 19.875 C-26.95666755 17.63397173 -41.99770958 15.60138591 -57.1875 14.25 C-56.8575 9.63 -56.5275 5.01 -56.1875 0.25 C-51.90492322 0.10526596 -47.62234628 -0.03785414 -43.33959961 -0.17724609 C-41.89002612 -0.2248674 -40.44048018 -0.27333679 -38.9909668 -0.32275391 C-10.93006203 -1.27727271 -10.93006203 -1.27727271 0 0 Z " fill="#EBEBEB" transform="translate(499.1875,294.75)"/>
<path d="M0 0 C0.75560715 -0.00131927 1.51121429 -0.00263855 2.28971863 -0.0039978 C4.7218346 -0.005899 7.15383344 0.00038541 9.5859375 0.0078125 C10.41064545 0.00869873 11.23535339 0.00958496 12.08505249 0.01049805 C24.73295065 0.02650707 37.33752557 0.29424658 49.9609375 1.1328125 C50.4559375 8.0628125 50.4559375 8.0628125 50.9609375 15.1328125 C49.14078125 15.30296875 47.320625 15.473125 45.4453125 15.6484375 C30.45749117 17.06581486 15.48527472 18.58699826 0.5234375 20.2578125 C-0.24850952 20.34389771 -1.02045654 20.42998291 -1.8157959 20.51867676 C-10.02117748 21.36007894 -10.02117748 21.36007894 -18.18655396 22.48822021 C-20.12508403 22.79486258 -22.08304727 22.97177588 -24.0390625 23.1328125 C-27.79368064 20.1944157 -30.74299561 17.07839494 -31.4765625 12.2578125 C-31.0390625 9.1328125 -31.0390625 9.1328125 -29.2265625 6.4453125 C-21.06455841 0.52385855 -9.79317915 -0.02749423 0 0 Z " fill="#F0F0F0" transform="translate(153.0390625,291.8671875)"/>
<path d="M0 0 C2.2734375 1.828125 2.2734375 1.828125 4.375 4.25 C14.97674194 15.52844887 28.37086864 24.13642115 41 33 C42.63151651 34.14973094 44.2630265 35.29947113 45.89453125 36.44921875 C59.91122018 46.31042435 74.08181739 55.71976913 88.70898438 64.65478516 C120.192691 83.93419128 120.192691 83.93419128 127 93 C122.90499555 92.03013053 119.92774225 90.36451945 116.5625 87.9375 C110.70153545 83.71275746 104.57398112 80.03555999 98.35107422 76.38085938 C96.67684147 75.39753015 95.0041529 74.41156976 93.33251953 73.42382812 C81.69015915 66.54614895 69.98193226 59.8317162 58.08642578 53.40136719 C48.2947685 48.10085903 38.64359441 42.56411117 29 37 C27.32945063 36.03902157 25.658878 35.07808357 23.98828125 34.1171875 C20.05070316 31.84956265 16.12177988 29.56749319 12.19726562 27.27734375 C10.06903596 26.0401329 7.93349107 24.81640282 5.796875 23.59375 C-4.90391672 17.41266921 -13.69165357 11.52364653 -19 0 C-12.79140759 -1.73455132 -6.25669687 -1.35016595 0 0 Z " fill="#DBDBDB" transform="translate(48,133)"/>
<path d="M0 0 C2.59009554 -0.24950462 4.9187129 -0.32719737 7.5 -0.25 C8.18964844 -0.24484375 8.87929688 -0.2396875 9.58984375 -0.234375 C14.69032948 -0.15483526 14.69032948 -0.15483526 17 1 C14.26282438 11.45103418 5.74957809 16.67602793 -3 22 C-6.30041963 23.87341837 -9.6612993 25.6245565 -13.03442383 27.36279297 C-18.92759158 30.40206899 -24.68570901 33.63954303 -30.4375 36.9375 C-40.14329819 42.48023953 -49.9843873 47.73547757 -59.875 52.9375 C-79.47152882 63.25614346 -98.8461848 73.85001862 -117.65698242 85.55957031 C-118.99466675 86.38859863 -118.99466675 86.38859863 -120.359375 87.234375 C-121.13764648 87.72131836 -121.91591797 88.20826172 -122.71777344 88.70996094 C-125.08268688 90.04673914 -127.45830203 91.04868839 -130 92 C-125.96129463 86.80467008 -121.76927342 83.0538491 -116.25 79.5 C-115.10337891 78.74686523 -115.10337891 78.74686523 -113.93359375 77.97851562 C-106.008846 72.8555094 -97.79782605 68.23265536 -89.60083008 63.56396484 C-80.95515888 58.61583324 -72.64621415 53.33655679 -64.44824219 47.68408203 C-61.64324566 45.75459798 -58.82623787 43.84340698 -56.0078125 41.93359375 C-51.71809603 39.02616658 -47.43303657 36.11210266 -43.15234375 33.19140625 C-39.298288 30.5622504 -35.43733843 27.94408154 -31.56640625 25.33984375 C-23.02240861 19.57555723 -14.84247439 13.70050004 -7 7 C-6.12085938 6.32066406 -5.24171875 5.64132813 -4.3359375 4.94140625 C-1.81865575 3.03711399 -1.81865575 3.03711399 0 0 Z " fill="#DDDDDD" transform="translate(602,137)"/>
<path d="M0 0 C0.99 0.33 1.98 0.66 3 1 C2.77103949 5.69369046 1.36715216 8.6356966 -1.828125 12.08203125 C-16.32851153 24.88722871 -34.40554475 31.12081192 -53 35 C-54.134375 35.2475 -55.26875 35.495 -56.4375 35.75 C-68.76503445 37.9689562 -81.52890683 37.17542113 -94 37 C-94 36.34 -94 35.68 -94 35 C-93.03102783 34.69408936 -92.06205566 34.38817871 -91.0637207 34.07299805 C-44.61901179 19.40030093 -44.61901179 19.40030093 0 0 Z " fill="#E3E3E3" transform="translate(563,233)"/>
<path d="M0 0 C2.3125 2.0625 2.3125 2.0625 4 5 C4.85335938 5.94875 5.70671875 6.8975 6.5859375 7.875 C10.31284396 13.04887908 9.53851315 18.82123658 9.3125 24.9375 C9.28994141 26.09830078 9.26738281 27.25910156 9.24414062 28.45507812 C9.18550578 31.30473166 9.10348837 34.1516815 9 37 C4.68132844 38.8288252 1.73924699 39.55291215 -3 39 C-5.40449102 37.83233685 -7.63520497 36.53343909 -9.88671875 35.09375 C-12.19547681 33.6935692 -12.19547681 33.6935692 -16 34 C-16.2475 34.639375 -16.495 35.27875 -16.75 35.9375 C-18 38 -18 38 -20 38.8125 C-22 39 -22 39 -24 38 C-24.05319748 33.67327138 -24.06630665 29.34960414 -24.02099609 25.02294922 C-24.00179472 23.17291907 -23.99442783 21.32277583 -23.98828125 19.47265625 C-23.88267149 16.52650802 -23.72064286 13.85917393 -23 11 C-20.25 8.625 -20.25 8.625 -17 7 C-15.53498528 5.49746919 -15.53498528 5.49746919 -14.25 3.8125 C-10.38285941 -1.02142574 -5.89556798 -0.83400718 0 0 Z " fill="#EBEBEB" transform="translate(334,474)"/>
<path d="M0 0 C4.14019948 1.32106952 8.08940896 2.84985673 12.05859375 4.6171875 C13.82046021 5.39497559 13.82046021 5.39497559 15.61791992 6.18847656 C16.54947403 6.60039246 16.54947403 6.60039246 17.49984741 7.02062988 C41.81043948 17.73991131 66.47905705 27.15353828 91.78637695 35.25073242 C94 36 94 36 96 37 C96 37.66 96 38.32 96 39 C64.28269865 40.35287067 29.74099322 33.88352654 5 13 C1.19647066 9.46084153 -0.7522916 6.3257305 -1 1 C-0.67 0.67 -0.34 0.34 0 0 Z " fill="#E1E1E1" transform="translate(82,229)"/>
<path d="M0 0 C1.31484375 0.34611328 1.31484375 0.34611328 2.65625 0.69921875 C11.06410139 2.86099355 19.49406614 4.76249516 28 6.5 C35.06410353 7.95085222 42.1179903 9.41679018 49.125 11.125 C50.32382812 11.41632813 51.52265625 11.70765625 52.7578125 12.0078125 C56.10260547 13.03139975 58.98785977 14.22050644 62 16 C62.875 18.6875 62.875 18.6875 63 21 C57.95652802 25.71454989 52.65592046 29.84913181 46 32 C32.91195057 30.12931736 19.44896857 21.72709542 9 14 C7.95457031 13.24847656 6.90914063 12.49695313 5.83203125 11.72265625 C3.20907405 9.83106861 0.5993015 7.92389245 -2 6 C-1.34 4.02 -0.68 2.04 0 0 Z " fill="#E9E9E9" transform="translate(445,349)"/>
<path d="M0 0 C0.66 1.98 1.32 3.96 2 6 C-8.9182609 12.69923117 -19.88452606 19.19686154 -31.4375 24.75 C-32.7217688 25.37624268 -32.7217688 25.37624268 -34.03198242 26.01513672 C-39.28180427 28.47958296 -44.33608144 30.67826866 -50.2578125 29.58203125 C-58.10419961 26.3482692 -58.10419961 26.3482692 -61 23 C-61.65042821 20.20833911 -61.78292537 17.76453646 -61 15 C-57.89652174 11.12389075 -55.48995533 10.37144888 -50.63671875 9.7265625 C-48.7326123 9.45332153 -48.7326123 9.45332153 -46.79003906 9.17456055 C-45.78511414 9.04034195 -45.78511414 9.04034195 -44.7598877 8.90341187 C-31.19082782 7.08049655 -18.11425945 4.3191667 -4.95996094 0.47143555 C-3 0 -3 0 0 0 Z " fill="#E7E7E7" transform="translate(200,347)"/>
<path d="M0 0 C14.65427589 5.21897896 28.68427398 21.53295344 40 32 C40.66 32.60585937 41.32 33.21171875 42 33.8359375 C48.39847898 39.95061298 53.66792394 46.96456729 59 54 C59.41411133 54.54221191 59.82822266 55.08442383 60.25488281 55.64306641 C67.01422093 64.52336173 67.01422093 64.52336173 68 69 C61.53878511 64.80035604 55.32823681 60.34096202 49.1875 55.6875 C47.42336258 54.35392125 45.65904042 53.02058684 43.89453125 51.6875 C43.05229004 51.05070312 42.21004883 50.41390625 41.34228516 49.7578125 C39.36992863 48.27761999 37.38636346 46.8179353 35.38671875 45.375 C19.62348327 33.92569797 8.24812851 19.57503131 0 2 C0 1.34 0 0.68 0 0 Z " fill="#DDDDDD" transform="translate(142,148)"/>
<path d="M0 0 C0.99 0.33 1.98 0.66 3 1 C-5.70497947 18.80904108 -16.89433864 33.32397066 -33.24072266 44.75878906 C-36.07666014 46.75960868 -38.88083317 48.80405122 -41.68994141 50.84228516 C-44.77023451 53.07564029 -47.85742785 55.29932103 -50.94580078 57.52148438 C-52.21588434 58.43563056 -53.48524059 59.35078936 -54.75341797 60.26757812 C-56.16552275 61.28730842 -57.58249477 62.30029017 -59 63.3125 C-59.7425 63.84488281 -60.485 64.37726563 -61.25 64.92578125 C-63 66 -63 66 -65 66 C-63.54203882 61.46691381 -60.97812789 58.32200237 -57.875 54.8125 C-56.8738533 53.65724273 -55.87386163 52.50098356 -54.875 51.34375 C-54.38386719 50.7765625 -53.89273437 50.209375 -53.38671875 49.625 C-51.48886714 47.40103868 -49.67986758 45.11225063 -47.875 42.8125 C-40.65686805 33.76421288 -33.13136687 26.12818952 -24 19 C-22.39478604 17.70963508 -20.7905991 16.4179914 -19.1875 15.125 C-17.98480469 14.17173828 -17.98480469 14.17173828 -16.7578125 13.19921875 C-14.61285317 11.48872002 -12.48718196 9.76052306 -10.3671875 8.01953125 C-9.0991655 6.99193181 -7.83093736 5.96458668 -6.5625 4.9375 C-5.95881592 4.43557129 -5.35513184 3.93364258 -4.7331543 3.41650391 C-3.21620821 2.19789269 -1.61284692 1.08851437 0 0 Z " fill="#E0E0E0" transform="translate(504,151)"/>
<path d="M0 0 C10.4221034 0.67554492 20.7526507 2.03400909 31.09985352 3.41918945 C33.07601752 3.68153805 35.05292168 3.93836999 37.03051758 4.18969727 C61.13560889 7.25398838 61.13560889 7.25398838 67 11 C68.95050611 14.48441164 69.35400672 17.35558169 68.515625 21.25 C68.34546875 21.8275 68.1753125 22.405 68 23 C64.23993421 24.37959248 61.83221327 23.58051651 58.0625 22.4375 C50.35634546 20.21061511 42.54898919 18.63802866 34.6875 17.0625 C17.14501994 13.47490384 17.14501994 13.47490384 9.375 11.5 C8.65401123 11.33508057 7.93302246 11.17016113 7.19018555 11.00024414 C3.51509863 10.01336068 2.14938685 9.21917762 -0.0234375 6.03125 C-1 3 -1 3 0 0 Z " fill="#E4E4E4" transform="translate(443,333)"/>
<path d="M0 0 C-0.4979837 3.73487777 -0.87491756 5.81237635 -3 9 C-5.42895508 9.90380859 -5.42895508 9.90380859 -8.51953125 10.6484375 C-9.67380615 10.92921143 -10.82808105 11.20998535 -12.01733398 11.49926758 C-13.89594116 11.93275513 -13.89594116 11.93275513 -15.8125 12.375 C-17.09519775 12.67881592 -18.37789551 12.98263184 -19.69946289 13.2956543 C-30.27167393 15.76056675 -40.91154106 17.69113373 -51.63012695 19.40185547 C-52.7718335 19.58506348 -53.91354004 19.76827148 -55.08984375 19.95703125 C-56.08878662 20.11147705 -57.08772949 20.26592285 -58.11694336 20.42504883 C-61.09859694 20.95109407 -61.09859694 20.95109407 -64.24438477 22.12768555 C-67 23 -67 23 -69 22 C-69.10933628 20.60596244 -69.18619553 19.20936224 -69.25 17.8125 C-69.29640625 17.03519531 -69.3428125 16.25789063 -69.390625 15.45703125 C-68.84299093 12.01241296 -67.39486855 10.50550852 -65 8 C-54.85050165 3.99990906 -42.30857483 3.8158348 -31.52954102 2.63745117 C-28.54277753 2.31033999 -25.55752515 1.9713972 -22.57226562 1.63085938 C-20.653723 1.4159766 -18.73510563 1.20175986 -16.81640625 0.98828125 C-15.93400772 0.88832352 -15.05160919 0.78836578 -14.14247131 0.68537903 C-9.39467183 0.17136923 -4.77544067 -0.1021895 0 0 Z " fill="#E3E3E3" transform="translate(203,331)"/>
<path d="M0 0 C5.75535448 0.89794843 11.50556833 1.49528877 17.3125 1.9375 C17.3125 3.9175 17.3125 5.8975 17.3125 7.9375 C16.28479492 7.87691406 15.25708984 7.81632812 14.19824219 7.75390625 C10.32930088 7.52675834 6.46010409 7.30423874 2.59082031 7.08300781 C0.92668643 6.98723495 -0.73737888 6.89026181 -2.40136719 6.79199219 C-33.09755526 4.58750605 -33.09755526 4.58750605 -61.75 14.25 C-62.719375 14.806875 -63.68875 15.36375 -64.6875 15.9375 C-65.6775 15.6075 -66.6675 15.2775 -67.6875 14.9375 C-68.5 12.3125 -68.5 12.3125 -68.6875 8.9375 C-65.18320857 3.01645586 -60.07472967 0.22110631 -53.6875 -2.0625 C-36.10998366 -6.54565442 -17.54262524 -2.7881801 0 0 Z " fill="#DFDFDF" transform="translate(183.6875,278.0625)"/>
<path d="M0 0 C1.21558594 -0.020625 2.43117188 -0.04125 3.68359375 -0.0625 C13.7130995 -0.10577726 23.63835383 0.88778562 31.125 8.25 C33.32108478 11.54412717 34.24176912 13.17572405 33.8125 17.125 C33.585625 17.82625 33.35875 18.5275 33.125 19.25 C29.77418281 19.25 28.73727461 18.61611423 25.875 17 C7.45452335 7.50657719 -13.42946292 8.6291023 -33.50512695 9.8918457 C-39.63322666 10.26961926 -45.73518396 10.35834969 -51.875 10.25 C-51.875 8.27 -51.875 6.29 -51.875 4.25 C-51.00810547 4.16435791 -50.14121094 4.07871582 -49.24804688 3.99047852 C-45.99763921 3.66886883 -42.74732603 3.34633363 -39.49707031 3.02319336 C-38.09671585 2.88415679 -36.69632588 2.74547734 -35.29589844 2.60717773 C-26.51827872 1.77649498 -26.51827872 1.77649498 -17.7734375 0.66796875 C-11.8520829 0.0331141 -5.9511649 0.02508394 0 0 Z " fill="#DEDEDE" transform="translate(496.875,277.75)"/>
<path d="M0 0 C-0.33 3.3 -0.66 6.6 -1 10 C-8.78804318 11.07290708 -16.56963367 11.97943875 -24.40234375 12.66015625 C-42.90223992 14.18233996 -42.90223992 14.18233996 -61.00390625 18.1328125 C-63.99266797 18.99787782 -66.9244304 19.54675816 -70 20 C-69.51424554 15.2234145 -68.91138899 11.43659802 -67 7 C-51.92308304 4.97748675 -36.82299647 3.32239504 -21.6875 1.8125 C-20.78612305 1.72214478 -19.88474609 1.63178955 -18.95605469 1.53869629 C-16.37064381 1.28022579 -13.78499939 1.02427365 -11.19921875 0.76953125 C-10.41580612 0.691548 -9.63239349 0.61356476 -8.82524109 0.53321838 C-5.86950568 0.24536093 -2.97178812 0 0 0 Z " fill="#DFDFDF" transform="translate(201,314)"/>
<path d="M0 0 C8.17562459 -0.2109387 16.07472869 0.41740685 24.18359375 1.42578125 C26.01048485 1.64816719 26.01048485 1.64816719 27.87428284 1.87504578 C30.42858371 2.18850389 32.98245075 2.50551595 35.53588867 2.82592773 C39.44878859 3.31390781 43.36380007 3.78142057 47.27929688 4.24804688 C49.76838312 4.55605005 52.25732133 4.86525246 54.74609375 5.17578125 C55.91587265 5.31341385 57.08565155 5.45104645 58.2908783 5.59284973 C59.37623367 5.7327684 60.46158905 5.87268707 61.57983398 6.0168457 C62.53260727 6.13453812 63.48538055 6.25223053 64.46702576 6.37348938 C67.3107243 7.07685513 68.87869674 7.99456375 71 10 C71.390625 12.48046875 71.390625 12.48046875 71.25 15.1875 C71.21390625 16.08855469 71.1778125 16.98960937 71.140625 17.91796875 C71.09421875 18.60503906 71.0478125 19.29210937 71 20 C67.17998619 21.27333794 66.47711504 20.48246981 62.9375 18.75 C49.34270987 12.91442421 34.33270096 12.55305976 19.74609375 11.73364258 C13.57502343 11.36704005 7.93213129 10.76499215 2 9 C1.34 6.03 0.68 3.06 0 0 Z " fill="#DEDEDE" transform="translate(444,317)"/>
<path d="M0 0 C0.99 0 1.98 0 3 0 C2.97381592 0.82612793 2.94763184 1.65225586 2.9206543 2.50341797 C2.83462225 5.61581787 2.77236353 8.7276051 2.7253418 11.84082031 C2.68830377 13.83179353 2.62471772 15.82221653 2.56054688 17.8125 C2.45400992 26.25022665 3.51360834 31.86085079 8 39 C9.10596428 41.0823796 10.21046813 43.16553662 11.3125 45.25 C11.82425781 46.20390625 12.33601563 47.1578125 12.86328125 48.140625 C14.11856448 51.29824468 14.21416394 53.63314361 14 57 C12.35 57 10.7 57 9 57 C7.02 53.04 5.04 49.08 3 45 C2.67 50.61 2.34 56.22 2 62 C0.35 62 -1.3 62 -3 62 C-5.05922402 59.94077598 -4.41427579 55.78291876 -4.5625 52.9375 C-4.60568359 52.17888672 -4.64886719 51.42027344 -4.69335938 50.63867188 C-4.79973633 48.75934562 -4.90039934 46.87969756 -5 45 C-7.64 48.63 -10.28 52.26 -13 56 C-14.65 55.67 -16.3 55.34 -18 55 C-17.5457848 49.81568167 -15.64925346 46.47114076 -12.625 42.375 C-12.22539062 41.81554687 -11.82578125 41.25609375 -11.4140625 40.6796875 C-9.78863082 38.41263805 -8.17848442 36.19785802 -6.30859375 34.125 C-4.30433423 30.87032186 -3.96920142 27.3449623 -3.4375 23.625 C-3.31528076 22.83367676 -3.19306152 22.04235352 -3.06713867 21.22705078 C-2.6988074 18.81971692 -2.34733483 16.41044402 -2 14 C-1.78914363 12.56769639 -1.57821084 11.13540402 -1.3671875 9.703125 C-0.8987625 6.47033273 -0.44228105 3.23645663 0 0 Z " fill="#D4D4D4" transform="translate(305,486)"/>
<path d="M0 0 C1.32 0 2.64 0 4 0 C4.01981934 0.61931396 4.03963867 1.23862793 4.06005859 1.87670898 C4.15635231 4.73067389 4.26560097 7.58400857 4.375 10.4375 C4.4059375 11.41138672 4.436875 12.38527344 4.46875 13.38867188 C4.57483674 24.91669419 4.57483674 24.91669419 9.9375 34.5625 C16.50381659 41.59326337 16.58923374 49.70818382 17 59 C13.25 60.125 13.25 60.125 11 59 C10.19954337 56.30941402 9.5045341 53.66781273 8.875 50.9375 C8.69324219 50.17888672 8.51148438 49.42027344 8.32421875 48.63867188 C7.87543416 46.76086265 7.43676664 44.88064085 7 43 C7 48.28 7 53.56 7 59 C5.515 59.495 5.515 59.495 4 60 C1 58 1 58 0.26953125 54.9609375 C0.11871094 53.77757812 -0.03210938 52.59421875 -0.1875 51.375 C-0.34605469 50.18648437 -0.50460937 48.99796875 -0.66796875 47.7734375 C-0.77753906 46.85820313 -0.88710938 45.94296875 -1 45 C-1.58007812 46.06541016 -1.58007812 46.06541016 -2.171875 47.15234375 C-2.69265625 48.07144531 -3.2134375 48.99054687 -3.75 49.9375 C-4.26046875 50.85402344 -4.7709375 51.77054688 -5.296875 52.71484375 C-7 55 -7 55 -9.078125 55.94140625 C-9.71234375 55.96074219 -10.3465625 55.98007812 -11 56 C-11.66 55.34 -12.32 54.68 -13 54 C-12.6931013 49.81761306 -10.98597047 47.06040126 -8.6875 43.625 C-8.05972656 42.65949219 -7.43195313 41.69398438 -6.78515625 40.69921875 C-5.76239245 39.15276408 -4.73278716 37.61067804 -3.68359375 36.08203125 C1.19840211 28.49782367 0.14186087 18.5680673 0.0625 9.875 C0.05798828 8.91851562 0.05347656 7.96203125 0.04882812 6.9765625 C0.03720017 4.65097242 0.02086102 2.3255224 0 0 Z " fill="#D0D0D0" transform="translate(345,486)"/>
<path d="M0 0 C2.96357535 -0.18522346 4.33521857 -0.19560536 7 1 C9.2110496 3.56016269 11.02591935 6.28542286 12.921875 9.0859375 C19.30543735 18.0373238 28.5220836 22.93073035 38 28 C37.505 29.485 37.505 29.485 37 31 C28.32484839 34.2460633 18.09409789 31.61199118 10 28 C2.01926735 22.65244513 -2.31458512 16.17516751 -5 7 C-4.0409375 6.1028125 -4.0409375 6.1028125 -3.0625 5.1875 C-0.79689611 3.09189663 -0.79689611 3.09189663 0 0 Z " fill="#E0E0E0" transform="translate(409,396)"/>
<path d="M0 0 C1.6875 2.4375 1.6875 2.4375 3 5 C3.66 5.33 4.32 5.66 5 6 C3.73784974 14.26926033 -1.68155123 20.36627887 -7.984375 25.5625 C-13.89712953 29.77934819 -20.32203427 31.13709294 -27.5 31.1875 C-28.87671875 31.20876953 -28.87671875 31.20876953 -30.28125 31.23046875 C-33.19552633 30.98342521 -35.35358797 30.21293885 -38 29 C-37 26 -37 26 -34.62890625 24.7109375 C-33.61699219 24.27007812 -32.60507813 23.82921875 -31.5625 23.375 C-21.74256431 18.64558851 -15.08715252 11.59113695 -8.59375 2.96875 C-6.06717891 -0.15230841 -3.92150017 -0.57387807 0 0 Z " fill="#E4E4E4" transform="translate(235,395)"/>
<path d="M0 0 C5.9893494 3.22691478 11.92636041 6.52553434 17.8125 9.9375 C28.22438677 15.93604129 39.0148576 21.13515122 50 26 C50 26.99 50 27.98 50 29 C43.96454086 32.01772957 33.76851684 30.63774231 27.37109375 29.1640625 C19.6132517 26.3820686 13.38182711 22.13659255 7 17 C5.96746094 16.20464844 4.93492187 15.40929687 3.87109375 14.58984375 C-1.91223616 10.04738156 -1.91223616 10.04738156 -4 8 C-4 7.01 -4 6.02 -4 5 C-3.34 5 -2.68 5 -2 5 C-1.34 3.35 -0.68 1.7 0 0 Z " fill="#DFDFDF" transform="translate(441,362)"/>
<path d="M0 0 C2.87402727 2.5958956 4.24432948 4.21369298 5 8 C-23.64697036 31.16527172 -23.64697036 31.16527172 -42 30 C-44.40925213 29.46969023 -46.65397305 28.78200898 -49 28 C-48.74487305 26.12109375 -48.74487305 26.12109375 -48 24 C-46.30786133 22.91015625 -46.30786133 22.91015625 -44.08203125 22.0625 C-42.83389648 21.56484131 -42.83389648 21.56484131 -41.56054688 21.05712891 C-40.65369141 20.70827637 -39.74683594 20.35942383 -38.8125 20 C-25.27418519 14.52031776 -12.45152874 7.62656136 0 0 Z " fill="#DEDEDE" transform="translate(203,360)"/>
<path d="M0 0 C3.88196792 1.360761 6.66144587 3.13968216 9.875 5.6875 C21.0715124 13.96122804 33.74859469 18.22134698 47 22 C45.375 27.75 45.375 27.75 42 30 C31.45102044 31.46086452 22.00701952 28.9659604 13.171875 23.1328125 C7.29338716 18.60954491 -0.39004029 12.64730861 -2 5 C-1.125 2.1875 -1.125 2.1875 0 0 Z " fill="#E2E2E2" transform="translate(425,389)"/>
<path d="M0 0 C1.48652463 2.36095088 2.04428171 3.59287266 1.73828125 6.40625 C-0.64890495 14.79297823 -9.9885573 20.65030869 -17 25 C-24.76237598 29.24055725 -32.12593644 31.44992264 -41 30 C-44.25 28.3125 -44.25 28.3125 -46 26 C-46.109375 23.35546875 -46.109375 23.35546875 -46 21 C-44.09541016 20.48953125 -44.09541016 20.48953125 -42.15234375 19.96875 C-27.78080218 15.9773561 -15.12287076 11.05151638 -3.63671875 1.25 C-2 0 -2 0 0 0 Z " fill="#E1E1E1" transform="translate(219,387)"/>
<path d="M0 0 C6.74477862 0.92433797 11.67786688 7.38335295 15.75 12.375 C19.01404525 16.72955007 23 22.35698662 23 28 C17.78318454 26.39224949 12.90021427 24.24726684 7.9375 22 C1.02305799 18.8725777 1.02305799 18.8725777 -6 16 C-5.47275413 10.85935281 -3.8074944 3.8074944 0 0 Z " fill="#DEDEDE" transform="translate(369,394)"/>
<path d="M0 0 C7.4675176 9.1438991 10.48244886 21.42122735 10 33 C8.9275 33.20625 7.855 33.4125 6.75 33.625 C2.25285884 35.27395176 1.42586886 37.01464401 -1 41 C-1.99 41 -2.98 41 -4 41 C-4.087842 36.52095901 -4.14067447 32.04214276 -4.1875 27.5625 C-4.21263672 26.30244141 -4.23777344 25.04238281 -4.26367188 23.74414062 C-4.32061305 16.47465016 -3.71848277 10.72027414 -1 4 C-0.64610179 2.67197705 -0.30681356 1.33968441 0 0 Z " fill="#DEDEDE" transform="translate(356,469)"/>
<path d="M0 0 C3.49780654 1.55729848 6.20470324 3.677104 9.1875 6.0625 C20.62721088 14.83762604 32.62114063 21.01749483 47 23 C46.67 24.32 46.34 25.64 46 27 C27.40831417 29.1270149 9.24520792 16.50337911 -5 6 C-3.35 4.02 -1.7 2.04 0 0 Z " fill="#C9C9C9" transform="translate(434,377)"/>
<path d="M0 0 C1.38938077 1.96147874 2.7260411 3.96166576 4 6 C-9.29977928 16.18488491 -27.37831795 28.40874597 -45 27 C-45.99 26.34 -46.98 25.68 -48 25 C-48 24.01 -48 23.02 -48 22 C-47.030625 21.87625 -46.06125 21.7525 -45.0625 21.625 C-29.01273597 19.27960742 -17.01108999 12.46922891 -4.6953125 2.125 C-2 0 -2 0 0 0 Z " fill="#CACACA" transform="translate(211,375)"/>
<path d="M0 0 C0.33 0.66 0.66 1.32 1 2 C-1.0116783 7.91978249 -3.79233163 12.80066128 -9.17578125 16.10546875 C-14.08240483 18.51150044 -18.57859653 19.26445871 -24 19 C-22.6716729 16.23265187 -21.18745917 13.68705692 -19.5 11.125 C-17.425056 7.85650414 -16.03297979 4.75629013 -15 1 C-13.25215171 0.63536268 -11.50159498 0.2836922 -9.75 -0.0625 C-8.28820312 -0.35833984 -8.28820312 -0.35833984 -6.796875 -0.66015625 C-4.11254926 -0.98632432 -2.49306573 -1.00065712 0 0 Z " fill="#D8D8D8" transform="translate(261,403)"/>
<path d="M0 0 C0.763125 0.804375 1.52625 1.60875 2.3125 2.4375 C4.79430898 5.16799024 4.79430898 5.16799024 8 6 C7.6902353 8.8961496 7.37728812 11.79189576 7.0625 14.6875 C6.93198242 15.91243164 6.93198242 15.91243164 6.79882812 17.16210938 C6.36241272 21.15450219 5.88697624 25.07652852 5 29 C-2.27199074 28.64236111 -2.27199074 28.64236111 -5.125 26.125 C-7.31160265 18.31570482 -3.5711273 7.1422546 0 0 Z " fill="#DFDFDF" transform="translate(294,479)"/>
<path d="M0 0 C0.66 0.33 1.32 0.66 2 1 C1.34 1.66 0.68 2.32 0 3 C0.66 3.66 1.32 4.32 2 5 C1.5145874 5.25990723 1.0291748 5.51981445 0.52905273 5.78759766 C-10.99904609 11.98480702 -22.28127801 18.48682912 -33.39477539 25.40283203 C-34.31508545 25.97243652 -35.23539551 26.54204102 -36.18359375 27.12890625 C-36.99368896 27.63494385 -37.80378418 28.14098145 -38.63842773 28.66235352 C-41.03215152 30.01821133 -43.42522456 31.0392117 -46 32 C-41.90899468 26.70997371 -37.61487334 22.97140157 -32 19.375 C-31.236875 18.87718018 -30.47375 18.37936035 -29.6875 17.86645508 C-23.20330519 13.68069431 -16.61794072 9.65761306 -10 5.6875 C-8.55753906 4.81520752 -8.55753906 4.81520752 -7.0859375 3.92529297 C-5.74402344 3.13276123 -5.74402344 3.13276123 -4.375 2.32421875 C-3.57835937 1.85072998 -2.78171875 1.37724121 -1.9609375 0.8894043 C-1.31382812 0.59590088 -0.66671875 0.30239746 0 0 Z " fill="#ABABAB" transform="translate(518,197)"/>
<path d="M0 0 C12.55407692 6.30265903 23.80476307 14.34419359 34 24 C33.01 24.495 33.01 24.495 32 25 C29.48221082 23.59380411 27.09789701 22.13636882 24.6875 20.5625 C23.2399692 19.63481429 21.79204655 18.70773976 20.34375 17.78125 C19.25320312 17.07935547 19.25320312 17.07935547 18.140625 16.36328125 C16.16011845 15.10197325 14.16552421 13.87106223 12.15625 12.65625 C11.2751355 12.12342407 11.2751355 12.12342407 10.3762207 11.57983398 C8.77620669 10.61593946 7.17524035 9.65362626 5.57421875 8.69140625 C1.51876147 6.02674312 1.51876147 6.02674312 0 4 C0 2.68 0 1.36 0 0 Z " fill="#AFAFAF" transform="translate(141,201)"/>
<path d="M0 0 C3.69904043 1.59958505 5.35179882 3.13967923 6.8125 6.8125 C7.93990821 10.29081057 8.43720804 13.32745248 8 17 C7.34 17.66 6.68 18.32 6 19 C5.01 19 4.02 19 3 19 C0.9375 16.1875 0.9375 16.1875 -1 13 C-1.66 12.01 -2.32 11.02 -3 10 C-2.690625 9.46375 -2.38125 8.9275 -2.0625 8.375 C-0.82172561 5.6015043 -0.4090325 2.99957163 0 0 Z " fill="#C7C7C7" transform="translate(435,333)"/>
<path d="M0 0 C0.99 3.63 1.98 7.26 3 11 C1.68 11.99 0.36 12.98 -1 14 C-2.2516467 16.08334635 -2.2516467 16.08334635 -3 18 C-4.32 17.67 -5.64 17.34 -7 17 C-8.47367091 11.64119669 -7.57462527 7.7916637 -5 3 C-2.43820225 0 -2.43820225 0 0 0 Z " fill="#CFCFCF" transform="translate(210,332)"/>
<path d="M0 0 C0.66 0.33 1.32 0.66 2 1 C1.63762697 3.61939923 1.31001276 4.73546567 -0.73413086 6.47973633 C-1.47026611 6.92599365 -2.20640137 7.37225098 -2.96484375 7.83203125 C-3.76470703 8.31994141 -4.56457031 8.80785156 -5.38867188 9.31054688 C-6.22978516 9.80619141 -7.07089844 10.30183594 -7.9375 10.8125 C-9.19336914 11.5849707 -9.19336914 11.5849707 -10.47460938 12.37304688 C-15.08825421 15.14568782 -15.08825421 15.14568782 -17 16 C-17.66 15.67 -18.32 15.34 -19 15 C-13.00946074 9.42908788 -6.80198667 4.5441247 0 0 Z " fill="#A9A9A9" transform="translate(491,213)"/>
<path d="M0 0 C0.66 0.33 1.32 0.66 2 1 C1.525625 1.433125 1.05125 1.86625 0.5625 2.3125 C-1.23686957 4.02309613 -1.23686957 4.02309613 -2 7 C-4.6171875 8.82421875 -4.6171875 8.82421875 -7.875 10.6875 C-8.94492187 11.31011719 -10.01484375 11.93273437 -11.1171875 12.57421875 C-14 14 -14 14 -17 14 C-15.65610229 10.84272066 -14.40061696 9.27497364 -11.5234375 7.421875 C-10.853125 6.98359375 -10.1828125 6.5453125 -9.4921875 6.09375 C-8.44417969 5.42859375 -8.44417969 5.42859375 -7.375 4.75 C-6.31539063 4.06164062 -6.31539063 4.06164062 -5.234375 3.359375 C-3.49502567 2.23114841 -1.74821759 1.11443555 0 0 Z " fill="#B6B6B6" transform="translate(487,228)"/>
<path d="M0 0 C1.00023253 3.18255804 1.15774716 4.61439583 -0.125 7.75 C-2 10 -2 10 -4.6875 10.8125 C-5.450625 10.874375 -6.21375 10.93625 -7 11 C-6.50992626 3.5263755 -6.50992626 3.5263755 -4.0625 1 C-2 0 -2 0 0 0 Z " fill="#A9A9A9" transform="translate(438,356)"/>
<path d="M0 0 C0.66 0.33 1.32 0.66 2 1 C1.34 1.66 0.68 2.32 0 3 C0.66 3.66 1.32 4.32 2 5 C-1.96 6.98 -5.92 8.96 -10 11 C-10.33 10.34 -10.66 9.68 -11 9 C-11.66 8.67 -12.32 8.34 -13 8 C-10.880788 6.63594382 -8.75551882 5.28368225 -6.625 3.9375 C-6.02171875 3.54755859 -5.4184375 3.15761719 -4.796875 2.75585938 C-3.23507443 1.77539568 -1.62007786 0.88083925 0 0 Z " fill="#B6B6B6" transform="translate(518,197)"/>
<path d="M0 0 C2.9375 1 2.9375 1 6 3 C6.86518243 5.75878925 6.90393194 8.06992426 7 11 C4.625 10.6875 4.625 10.6875 2 10 C-0.4294516 6.3558226 -0.16179575 4.28758728 0 0 Z " fill="#B6B6B6" transform="translate(207,354)"/>
<path d="M0 0 C0.66 0 1.32 0 2 0 C2.144375 1.093125 2.28875 2.18625 2.4375 3.3125 C2.88288104 6.93122987 2.88288104 6.93122987 4 10 C3.44140625 12.04296875 3.44140625 12.04296875 2.5625 14.1875 C2.27503906 14.90292969 1.98757813 15.61835938 1.69140625 16.35546875 C1.46324219 16.89816406 1.23507812 17.44085938 1 18 C0.34 17.34 -0.32 16.68 -1 16 C-1.99 16.99 -2.98 17.98 -4 19 C-4.66 18.67 -5.32 18.34 -6 18 C-5.071875 16.88625 -5.071875 16.88625 -4.125 15.75 C-1.07984027 11.80920506 0.27265199 9.27016749 0.125 4.25 C0.10695313 3.45078125 0.08890625 2.6515625 0.0703125 1.828125 C0.04710937 1.22484375 0.02390625 0.6215625 0 0 Z " fill="#9B9B9B" transform="translate(360,426)"/>
<path d="M0 0 C1.79639296 1.09646058 3.58697154 2.20245148 5.375 3.3125 C6.37273437 3.92738281 7.37046875 4.54226562 8.3984375 5.17578125 C11 7 11 7 13 10 C8.60405194 10 7.36556338 9.28351372 3.75 7 C2.85796875 6.443125 1.9659375 5.88625 1.046875 5.3125 C0.03367188 4.6628125 0.03367188 4.6628125 -1 4 C-0.67 2.68 -0.34 1.36 0 0 Z " fill="#A1A1A1" transform="translate(165,229)"/>
<path d="M0 0 C3.87776171 -0.40938247 5.53983561 -0.3266519 8.7734375 1.96875 C9.63195312 2.8040625 10.49046875 3.639375 11.375 4.5 C12.68597656 5.75296875 12.68597656 5.75296875 14.0234375 7.03125 C14.67570313 7.6809375 15.32796875 8.330625 16 9 C15.01 9.495 15.01 9.495 14 10 C11.53857997 8.61286881 9.22149631 7.18623319 6.875 5.625 C6.21628906 5.19960937 5.55757812 4.77421875 4.87890625 4.3359375 C3.23027994 3.25733312 1.61219991 2.13232839 0 1 C0 0.67 0 0.34 0 0 Z " fill="#9F9F9F" transform="translate(159,216)"/>
<path d="M0 0 C0.66 0.33 1.32 0.66 2 1 C-3.28 6.28 -8.56 11.56 -14 17 C-14.66 16.67 -15.32 16.34 -16 16 C-11.03093773 10.1719243 -5.90436923 4.8836671 0 0 Z " fill="#959595" transform="translate(477,172)"/>
<path d="M0 0 C0.763125 0.20625 1.52625 0.4125 2.3125 0.625 C-0.97554981 3.53727269 -3.28635603 5.12201212 -7.6875 5.625 C-6.02612914 1.79106724 -4.59035464 -0.6405146 0 0 Z " fill="#8A8A8A" transform="translate(477.6875,236.375)"/>
<path d="M0 0 C0.33 0.99 0.66 1.98 1 3 C-4.75 7 -4.75 7 -7 7 C-6 5 -5 3 -4 1 C-1.9375 0.375 -1.9375 0.375 0 0 Z " fill="#C8C8C8" transform="translate(507,205)"/>
<path d="M0 0 C0.66 0.33 1.32 0.66 2 1 C1.34 1.66 0.68 2.32 0 3 C0.66 3.66 1.32 4.32 2 5 C0.35 5.66 -1.3 6.32 -3 7 C-3.33 6.34 -3.66 5.68 -4 5 C-4.66 4.67 -5.32 4.34 -6 4 C-4.02 2.68 -2.04 1.36 0 0 Z " fill="#8D8D8D" transform="translate(511,201)"/>
<path d="M0 0 C0.7425 0.0825 1.485 0.165 2.25 0.25 C1.66734375 0.51554687 1.0846875 0.78109375 0.484375 1.0546875 C-1.81174228 2.28302996 -3.55356018 3.65314939 -5.5 5.375 C-6.11359375 5.91382813 -6.7271875 6.45265625 -7.359375 7.0078125 C-7.81828125 7.41773438 -8.2771875 7.82765625 -8.75 8.25 C-6.74248686 4.04041298 -5.01052503 0.45550228 0 0 Z " fill="#979797" transform="translate(232.75,394.75)"/>
<path d="M0 0 C2.375 0.3125 2.375 0.3125 5 1 C5.66 1.99 6.32 2.98 7 4 C3 4 3 4 0 2 C0 1.34 0 0.68 0 0 Z " fill="#989898" transform="translate(171,235)"/>
<path d="M0 0 C0 3 0 3 -1.53125 4.60546875 C-2.1809375 5.12753906 -2.830625 5.64960938 -3.5 6.1875 C-4.1496875 6.71730469 -4.799375 7.24710938 -5.46875 7.79296875 C-5.9740625 8.19128906 -6.479375 8.58960938 -7 9 C-7 6 -7 6 -5.46875 4.39453125 C-4.49421875 3.61142578 -4.49421875 3.61142578 -3.5 2.8125 C-2.8503125 2.28269531 -2.200625 1.75289062 -1.53125 1.20703125 C-1.0259375 0.80871094 -0.520625 0.41039062 0 0 Z " fill="#959595" transform="translate(459,241)"/>
<path d="M0 0 C0.66 0.33 1.32 0.66 2 1 C1 4 1 4 -1.4375 5.75 C-2.7059375 6.36875 -2.7059375 6.36875 -4 7 C-4.66 6.67 -5.32 6.34 -6 6 C-4.02 4.02 -2.04 2.04 0 0 Z " fill="#747474" transform="translate(478,222)"/>
<path d="M0 0 C2.31 1.98 4.62 3.96 7 6 C6.01 6.495 6.01 6.495 5 7 C2.375 5.8125 2.375 5.8125 0 4 C0 2.68 0 1.36 0 0 Z " fill="#797979" transform="translate(168,219)"/>
<path d="M0 0 C0.66 0.33 1.32 0.66 2 1 C1.8125 2.875 1.8125 2.875 1 5 C-1.5625 6.25 -1.5625 6.25 -4 7 C-3.6875 4.625 -3.6875 4.625 -3 2 C-2.01 1.34 -1.02 0.68 0 0 Z " fill="#8F8F8F" transform="translate(491,213)"/>
<path d="M0 0 C0.99 1.32 1.98 2.64 3 4 C1.35 5.32 -0.3 6.64 -2 8 C-1.125 2.25 -1.125 2.25 0 0 Z " fill="#878787" transform="translate(294,479)"/>
<path d="M0 0 C0.66 0.33 1.32 0.66 2 1 C1.67 1.66 1.34 2.32 1 3 C0.01 3.33 -0.98 3.66 -2 4 C-2.33 4.66 -2.66 5.32 -3 6 C-3.99 5.67 -4.98 5.34 -6 5 C-6 4.34 -6 3.68 -6 3 C-4.03533587 1.93224776 -2.03144641 0.93446535 0 0 Z " fill="#7F7F7F" transform="translate(268,396)"/>
<path d="M0 0 C0.66 0 1.32 0 2 0 C1.71125 0.53625 1.4225 1.0725 1.125 1.625 C-0.16711808 4.35280484 -1.08558592 7.12612718 -2 10 C-2.33 10 -2.66 10 -3 10 C-3.2295711 6.63295715 -3.33943529 4.58629732 -1.625 1.625 C-1.08875 1.08875 -0.5525 0.5525 0 0 Z " fill="#8F8F8F" transform="translate(125,297)"/>
</svg>
