<?xml version="1.0" encoding="UTF-8"?>
<svg fill="#FFFFFF" width="100pt" height="100pt" version="1.1" viewBox="0 0 100 100" xmlns="http://www.w3.org/2000/svg">
 <g>
  <path d="m33.965 60.625 0.039062-0.054688h0.003906c-0.074218-0.089843-0.13672-0.19141-0.1875-0.29687-0.078124-0.16406-0.13281-0.33984-0.16406-0.51953h-0.007812-0.003907c-1.9883 1.6328-4.3438 2.7578-6.8633 3.2812l-0.089844 0.011719c0.050782 1.3906 1.9883 1.2852 2.9805 0.89062 1.7539-0.60547 3.2617-1.7695 4.293-3.3125z"/>
  <path d="m32.703 58.801c0.10547-0.082031 0.23047-0.13281 0.35938-0.14453-0.3125-0.17578-0.55469-0.45312-0.69141-0.78516-1.6797 1.3281-3.3047 2.7852-5.4766 3.2227-0.55078 0.11328-1.1133 0.17969-1.6797 0.19531 0.0625 0.99609 2.4141 0.21094 2.9453 0.019532h-0.003906c1.6367-0.59375 3.1719-1.4414 4.5469-2.5078z"/>
  <path d="m23.824 57.969c2.6094-0.87891 4.6875-2.2656 7.043-3.6172 0.0625-0.035156 0.12891-0.0625 0.19922-0.078124-0.20703-0.17188-0.34766-0.41016-0.39453-0.67578-2.082 0.61328-4.207 1.082-6.3516 1.4023-0.54687 0.09375-1.1211 0.125-1.6562 0.25781-0.97266 0.027344-1.3281 0.57422-1.0664 1.6367 0.59375 0.60156 1.3789 0.98047 2.2188 1.0742z"/>
  <path d="m25.684 59.945c0.91016-0.10547 1.793-0.36719 2.6133-0.77734 1.2383-0.74219 2.4062-1.5938 3.4961-2.5391 0.066406-0.050781 0.14062-0.09375 0.21875-0.12109-0.3125-0.21484-0.54297-0.53125-0.66016-0.89062-2.2734 1.4375-4.6797 2.6562-7.1836 3.6484-1.3203 0.47266 1.0781 0.73438 1.5156 0.67969z"/>
  <path d="m30.445 52.266c0.10156-0.035156 0.21484-0.042969 0.32031-0.023437 0.10547-0.33984 0.25781-0.66016 0.46094-0.95313-0.046874-0.070312-0.09375-0.14453-0.13672-0.21484-2.0508 0.34375-4.125 0.44141-6.1836 0.72266-0.63281 0.085937-1.2812 0.11328-1.9102 0.23438-0.35938 0.054688-0.71484 0.13281-1.0625 0.22656-1.0156 0.14453-1.4023 0.81641-1.1523 2.0156 0.09375 0.019531 0.18359 0.058593 0.26172 0.10937 1.0156-0.58594 2.5508-0.60547 3.5312-0.78125h0.003906c1.9805-0.31641 3.9414-0.76172 5.8672-1.3359z"/>
  <path d="m36.93 62c-0.41406-0.24609-0.72266-0.64062-0.85547-1.1055-0.27734 0.097657-0.56641 0.15625-0.85938 0.17969-0.015625 0.085937-0.046875 0.16797-0.09375 0.24219-1.1133 1.7617-2.7773 3.1055-4.7344 3.8203 0.74609 0.57422 2.4883 0.37109 3.1562 0.15625 1.4531-0.43359 2.6133-1.5273 3.1406-2.9492 0.042968-0.14062 0.12891-0.26172 0.24609-0.34375z"/>
  <path d="m38.008 62.414c0.011719 0.097657 0 0.20313-0.03125 0.29688-0.27734 0.83203-0.74219 1.5859-1.3555 2.2109 0.70703 0.015625 1.4062-0.15625 2.0273-0.49219 0.69922-0.37109 1.207-1.0273 1.3945-1.7969 0.03125-0.10156 0.089843-0.19531 0.16406-0.27344-0.125-0.10938-0.22266-0.25-0.28516-0.40625-0.58203 0.33203-1.2461 0.48828-1.9141 0.46094z"/>
  <path d="m45.461 74.176c-0.023438-0.078125-0.046876-0.15625-0.070313-0.23828-0.14844 0.47656-0.29688 0.95703-0.4375 1.4375-0.3125 1.0547-1.0156 2.6992 0.67969 2.7422v0.003906c0.089844 0 0.17578 0.019531 0.25781 0.054687 0.23828-1.0938 0.39453-2.2031 0.46875-3.3164-0.13672-0.03125-0.28125-0.070313-0.42969-0.11328-0.26953-0.0625-0.46094-0.29688-0.46875-0.57031z"/>
  <path d="m45.719 67.195c0.070312 2.1523 0.39453 4.2852 0.96875 6.3594 0.51562 0.21484 1.1094 0.070312 1.4766-0.35156 0.1875-0.28125 0.39844-0.54688 0.62891-0.79688 0.046875-0.039062 0.089843-0.066406 0.13281-0.10156-0.29688-0.10156-0.57422-0.24609-0.82812-0.42969-0.13672-0.11328-0.25391-0.21875-0.35156-0.30859-0.074219-0.074218-0.14453-0.16016-0.19922-0.25781-0.097656-0.15625-0.13281-0.25781-0.097656-0.29297 0.035156-0.035156 0.14062-0.011719 0.29297 0.074219 0.078124 0.035156 0.16797 0.11328 0.28125 0.15625 0.11328 0.042968 0.21875 0.10156 0.34375 0.16406l0.003906 0.003906c0.57031 0.25 1.1836 0.37891 1.8047 0.37891 0.078125-0.011719 0.14844-0.019531 0.23047-0.027344l-0.003906-0.003906c0.76953-0.058594 1.4961-0.37109 2.0703-0.88672 0.46484-0.41406 0.81641-0.63281 0.88281-0.55859 0.066406 0.078125-0.12109 0.40234-0.49219 0.91797v0.003906c-0.21875 0.29297-0.48047 0.55078-0.77344 0.76562 0.015625 0.007813 0.03125 0.019532 0.042968 0.03125 0.54688 0.44141 0.71094 1.1328 1.1836 1.6133 0.37891-0.17578 0.26953-2.3242 0.29688-2.6211 0.007813-0.11719 0.046875-0.23438 0.11328-0.33594 0.039063-0.15625 0.13281-0.29297 0.26172-0.39062 1.6875-1.2695 2.168-3.7305 2.25-5.7539-0.29297-0.10547-0.59375-0.20703-0.89453-0.30469-0.64453 0.11719-1.3008 0.10156-1.9375-0.050782-0.33203-0.078125-0.64844-0.21484-0.9375-0.39844-0.14844-0.10156-0.28516-0.21875-0.41406-0.34766-0.019532-0.019531-0.019532-0.023437-0.019532-0.023437s0-0.003906-0.003906 0-0.050781 0.015625-0.21484 0.078125l-0.69531 0.30859c-0.52734 0.25781-1.1094 0.38281-1.6953 0.35547-0.078125-0.003906-0.14844-0.007812-0.22656-0.015624-0.082031-0.007813-0.16406-0.03125-0.24219-0.054688h-0.003906c-0.15625-0.046875-0.30469-0.11328-0.44531-0.19531-0.26953-0.16406-0.5-0.38672-0.66797-0.65625-0.16406-0.27734-0.24609-0.59375-0.23438-0.91797l0.003906-0.11719c0.003906-0.03125 0.003906-0.011719 0.003906-0.023437 0-0.007813 0.003907-0.007813 0.007813-0.019532l0.003906 0.003907c0.007812-0.011719 0.015625-0.019531 0.023438-0.03125 0.050781-0.035157-0.011719-0.03125-0.027344-0.046875v0.003906c-0.09375-0.035156-0.19141-0.0625-0.28906-0.078125-0.23828-0.0625-0.46484-0.16016-0.67578-0.28906-0.21484-0.14453-0.39062-0.33984-0.51172-0.57031-0.10547-0.19141-0.17188-0.40234-0.19922-0.62109-0.035156-0.21875-0.027343-0.44141 0.023438-0.65625 0.066406-0.19922 0.19141-0.37891 0.35547-0.50781-0.26172-0.33984-0.42188-0.74609-0.45703-1.1719-0.011719-0.14062 0.011718-0.28125 0.0625-0.41406 0.03125-0.085937 0.074218-0.12109 0.10937-0.11719 0.035157 0.003906 0.078126 0.042969 0.11719 0.11328l-0.003906 0.003906c0.023437 0.042969 0.042968 0.085938 0.058594 0.13281 0.027343 0.054687 0.058593 0.11328 0.089843 0.18359v0.003907c0.20703 0.42188 0.51953 0.78125 0.91406 1.0469l0.47656 0.32812-0.53906 0.35156h-0.003906c-0.082032 0.050781-0.16016 0.10938-0.23438 0.17188-0.03125 0.035156-0.050781 0.078125-0.054687 0.125 0.011719 0.18359 0.066406 0.35938 0.16016 0.51562 0.14062 0.17578 0.34766 0.28516 0.57422 0.29688 0.070312 0.023438 0.53125 0.078125 0.89844 0.12891l0.57422 0.085938c0.09375 0.015625 0.21484 0.027344 0.29297 0.046875l0.21875 0.050781c-0.16406 0.21094-0.32422 0.42188-0.49219 0.63672h-0.003907c-0.078125 0.09375-0.14453 0.19531-0.20312 0.30078-0.023437 0.039063-0.066406 0.11328-0.074218 0.12891l-0.003907 0.03125h0.003907c0.003906 0.082032 0.03125 0.16406 0.082031 0.23438 0.0625 0.09375 0.15234 0.16797 0.25391 0.22266 0.050781 0.027344 0.10547 0.050781 0.16406 0.066406 0.066406 0.015625 0.13281 0.019531 0.20312 0.015625 0.37891 0 0.75391-0.097656 1.0859-0.28125 0.23438-0.10547 0.46875-0.21484 0.71094-0.33203 0.17578-0.070313 0.35156-0.13672 0.53516-0.19141 0.25391-0.066407 0.51562-0.12891 0.77734-0.19922 0.13281 0.21875 0.27344 0.4375 0.41016 0.62891v0.003906c0.054687 0.054688 0.11719 0.10547 0.18359 0.14844 0.16016 0.097656 0.33984 0.17188 0.52344 0.21484 0.28906 0.066407 0.58594 0.089844 0.88281 0.078126 0.10547-0.45703 0.35156-0.85156 0.46875-1.3047 0.070312-0.32422 0.16406-0.64453 0.28125-0.95703 0.23437-0.48438 0.62891-0.86719 1.1172-1.0898 0.015625-0.070313 0.042969-0.14062 0.082031-0.19922 0.75391-1.2383-1.2617-2.4922-1.957-3.1992-0.85938-0.86719-0.71484-2.3633-1.7188-3.1914-1.2773-1.0469-5.5078-1.6484-6.6094 0-0.054688 0.082031-0.125 0.15234-0.20703 0.20312-0.019531 0.050782-0.042969 0.097656-0.074219 0.14453 0.30859 0.48828 0.44141 1.0703 0.375 1.6445-0.027344 0.16406-0.066406 0.32812-0.11719 0.48438l-0.12109 0.42969-0.35156-0.20703v-0.003906c-0.050781-0.019532-0.10547-0.027344-0.15625-0.019532 0.011719 0.21094 0.046875 0.41797 0.10156 0.62109 0.015625 0.18359 0.16797 0.32812 0.12109 0.39062-0.027343 0.050781-0.21484 0.10938-0.47266-0.17188-0.25391-0.32031-0.41016-0.70703-0.45703-1.1133l-0.042969-0.27734 0.33203-0.085937 0.14062-0.039063 0.17578-0.039062c0.027344-0.003907 0.054687-0.007813 0.085937-0.003907l0.011719-0.0625c0.039062-0.41797-0.015625-0.83594-0.15625-1.2305-0.1875 0.011718-0.36719-0.0625-0.49219-0.20703-2.0078-2.1484-3.2305-4.7031-4.543-7.3047-1.6328-3.1094-3.4688-6.1133-5.4961-8.9844-0.14062-0.20703-0.28125-0.41797-0.42578-0.63281-0.13281-0.015626-0.25781-0.066407-0.36328-0.14844-2.6719-2.1406-5.4258-4.168-8.1953-6.1719-0.003906-0.003906-0.007813-0.007813-0.011719-0.007813h-0.003906c-0.003906-0.007812-0.011719-0.015624-0.019531-0.019531-2.3945-1.7344-4.8008-3.457-7.1719-5.2227-2.0664-1.5312-4.1875-3.0234-6.1094-4.7344h-0.003907c-0.88281-0.85547-1.8359-1.6289-2.8516-2.3164-0.65234-0.52344-1.4375-0.84766-2.2656-0.9375-0.79297 0.53125-0.85938 1.1328-0.19531 1.7891 1.7188 2.418 4.5391 4.0469 6.9258 5.7227 2.5859 1.8203 5.1953 3.5938 7.8281 5.3242 2.0859 1.375 4.5312 2.7578 6.3359 4.4883h0.003906c0.14844 0.14844 0.28516 0.30859 0.40625 0.48047 0.078126-0.058593 0.16016-0.11328 0.25-0.15625l0.10156-0.046875 0.027344-0.007812 0.054687-0.023438 0.039063-0.011718 0.16016-0.046876v-0.003906c0.070313-0.023437 0.13672-0.039062 0.20703-0.042968 0.085938-0.007813 0.16406-0.015626 0.24609-0.019532 0.14062 0.003906 0.27734 0.015625 0.41406 0.039063 0.44141 0.10156 0.85938 0.29297 1.2266 0.5625 0.30078 0.20312 0.58203 0.43359 0.84766 0.68359 0.37109 0.34766 0.71875 0.71484 1.043 1.1094 0.22656 0.27344 0.33984 0.4375 0.30078 0.49609-0.042969 0.058594-0.24219-0.015625-0.55469-0.20703s-0.72266-0.50391-1.2305-0.85938c-0.26562-0.19531-0.54688-0.375-0.83594-0.53125-0.29688-0.17969-0.62109-0.30469-0.96094-0.36719-0.070312 0-0.15625-0.011719-0.22266-0.007813-0.027344 0.003906-0.050782 0.007813-0.078125 0.007813-0.039063-0.003907-0.078125 0.003906-0.11328 0.023437l-0.15625 0.058594-0.019532 0.003906-0.011718 0.007813-0.050782 0.027343 0.003906-0.003906c-0.050781 0.027344-0.09375 0.058594-0.13281 0.097656-0.027344 0.046875-0.039062 0.054688-0.007812 0.19531v0.003906c0.066406 0.16797 0.15625 0.32422 0.26953 0.46094 0.26562 0.33203 0.56641 0.63672 0.89453 0.90625 0.16406 0.13672 0.32812 0.26172 0.49219 0.38281v-0.003906c0.14844 0.10938 0.30078 0.20703 0.45703 0.29688l2.207 1.1094-2.418-0.23438v-0.003907c-0.25781-0.03125-0.51953-0.03125-0.78125 0-0.046875 0.011719-0.09375 0.023438-0.13672 0.039063 0.066407 0.1875 0.17188 0.35547 0.3125 0.49609 0.12891 0.14844 0.26953 0.28516 0.41797 0.41797 0.55078 0.48437 0.94531 0.69922 0.90625 0.80078-0.023437 0.09375-0.51562 0.050781-1.2266-0.35156-0.19922-0.10938-0.38672-0.24219-0.55859-0.38672-0.23828-0.1875-0.42969-0.42188-0.56641-0.69531-0.042969-0.10547-0.070313-0.21875-0.070313-0.33594-0.003906-0.14844 0.039063-0.29688 0.12891-0.41797 0.085938-0.125 0.20313-0.22266 0.33984-0.28516-0.039062-0.027343-0.078125-0.054687-0.11719-0.078124h0.003906c-0.37109-0.28906-0.70703-0.61719-1.0039-0.97656-0.03125 0.085937-0.070313 0.16797-0.10938 0.25781-0.058594 0.125-0.15625 0.22656-0.27734 0.28906-0.36328 0.75-0.097656 1.6523 0.60938 2.0898 0.26172 0.26172 0.26562 0.6875 0.003906 0.95312-0.17188 0.30859-0.33594 0.62109-0.5 0.93359 1.1016 0.21875 2.2227 0.57422 3.3164 0.25391h0.003906c0.11328-0.035157 0.23828 0 0.32031 0.085937 0.085938 0.085938 0.11328 0.21484 0.074219 0.32812 0 0.007813-0.003906 0.011719-0.003906 0.019531-0.011719 0.03125-0.027344 0.0625-0.046875 0.085938-0.003906 0.003906-0.003906 0.007812-0.007813 0.011719v0.003906c-0.039062 0.046875-0.089843 0.085937-0.15234 0.10547-0.3125 0.19141-0.53125 0.50391-0.59375 0.86719-0.066407 0.36328 0.027343 0.73438 0.25781 1.0195 0.03125-0.035156 0.066406-0.070312 0.10156-0.11328l-0.003906 0.003907c0.0625-0.070313 0.13672-0.125 0.21875-0.16406 0.066406-0.046875 0.14062-0.085937 0.21875-0.10938 0.058594-0.019531 0.12109-0.039062 0.18359-0.058594-0.046875-0.22266-0.074219-0.44922-0.082031-0.67578-0.011719-0.26172 0.066406-0.51562 0.21875-0.72266 0.14453-0.17969 0.35547-0.29688 0.58203-0.32031 0.23828-0.035156 0.48047-0.007812 0.70703 0.078125 0.14844 0.0625 0.22266 0.12891 0.21875 0.19531-0.003906 0.066406-0.089843 0.12109-0.23047 0.16797-0.17578 0.054688-0.34375 0.12109-0.51172 0.19531-0.09375 0.039063-0.12109 0.10156-0.12109 0.12891-0.003906 0.074219 0 0.14844 0.015625 0.22266 0.046875 0.25391 0.16797 0.625 0.26562 1.0352l0.125 0.52734-0.58203 0.066406c-0.070313 0.011718-0.15625 0.019531-0.23047 0.03125v-0.003906c-0.074219 0.011718-0.14844 0.027343-0.22266 0.046874-0.039063 0.003907-0.039063 0.023438-0.0625 0.027344-0.011719 0.003906-0.023438 0.011719-0.035156 0.019532h-0.003907c-0.003906 0 0-0.007813-0.007812-0.019532 0 0.003906-0.003907 0.007813-0.007813 0.015625h-0.003906c0.007812 0.015625 0.015625 0.03125 0.015625 0.050781 0.085937 0.23438 0.23047 0.44531 0.42188 0.60547 0.13672 0.125 0.28516 0.23438 0.44141 0.33203 0.042969 0.050782 0.13281 0.050782 0.17578 0.078126 0.089843 0.023437 0.10937 0.14062 0.035156 0.19141-0.050782 0.058594-0.12109 0.09375-0.19531 0.10547-0.28125 0.050782-0.57422 0.007813-0.82812-0.12109-0.17188-0.082031-0.32812-0.1875-0.46875-0.3125-0.097656-0.082031-0.17969-0.17188-0.25391-0.27344-0.14844 0.71094-0.019531 1.4531 0.36328 2.0742 0.046875 0.078125 0.058594 0.17578 0.03125 0.26172-0.03125 0.089843-0.097656 0.16016-0.18359 0.19531-0.007813 0.046875-0.023438 0.09375-0.050782 0.13281-0.19141 0.28906-0.56641 2.3086 0.046875 2.2227h0.027344c0.12109-0.078125 0.24609-0.14062 0.37891-0.1875-0.09375-0.24219-0.125-0.50781-0.089843-0.76562 0.058593-0.41016 0.23828-0.79688 0.51562-1.1094 0.43359-0.49219 0.80078-0.60547 0.85156-0.53906 0.066406 0.078124-0.17969 0.33984-0.42578 0.82812-0.14453 0.26563-0.22266 0.56641-0.22656 0.86719 0.007813 0.32812 0.19922 0.62891 0.49219 0.77734l0.76953 0.47266-0.92578 0.32031v-0.003906c-0.089844 0.019532-0.16797 0.082032-0.20703 0.16406-0.050782 0.12109-0.0625 0.25391-0.035157 0.38281 0.039063 0.30469 0.22266 0.57422 0.49219 0.71875l1.6055 0.32422-1.582 0.61719-0.0625 0.027343c-0.23438 0.078125-0.44922 0.19922-0.63672 0.35547-0.14453 0.11328-0.25391 0.26172-0.31641 0.43359-0.023437 0.058594-0.003906 0.050781-0.011719 0.070312 0.03125 0.042969 0.074219 0.078125 0.12109 0.097656 0.18359 0.078126 0.375 0.12891 0.57422 0.14844l0.82422 0.12891-0.54688 0.57422v-0.003906c-0.11328 0.10156-0.19922 0.21875-0.26562 0.35156-0.039063 0.074219-0.042969 0.16016-0.011719 0.23438 0.125 0.16406 0.32812 0.24609 0.52734 0.21875 0.097656-0.003906 0.19531-0.015625 0.28906-0.035156 0.078125-0.03125 0.14844-0.042969 0.21484-0.070312 0.12891-0.058594 0.21094-0.070313 0.24219-0.039063s0 0.11328-0.078124 0.23438c-0.25391 0.30859-0.64453 0.47266-1.043 0.43359-0.019531 0.082031-0.066407 0.15625-0.13672 0.20312-0.046875 0.03125-0.089844 0.066406-0.12891 0.10547-0.015625 0.019531-0.03125 0.035156-0.050782 0.046874-0.29297 0.3125-0.15625 0.62891 0.125 1.0156 0.082032 0.11328 0.17188 0.22266 0.25781 0.33594 0.019531-0.003906 0.035156-0.011719 0.054687-0.023437-0.035156-0.089844-0.054687-0.18359-0.058593-0.28125-0.003907-0.16406 0.035156-0.32813 0.11328-0.47266 0.09375-0.19141 0.22656-0.35938 0.39062-0.49609 0.25391-0.21875 0.44531-0.26563 0.50781-0.20313s0 0.24219-0.097657 0.50391v0.003906c-0.0625 0.13672-0.10547 0.28125-0.12891 0.42969-0.015625 0.054688-0.011719 0.11328 0.011719 0.16406 0.023437-0.023437 0.011718 0 0.023437-0.007813h0.085938c0.078125 0 0.17578-0.019531 0.28125-0.039062 0.21875-0.046875 0.44922-0.11719 0.74219-0.1875 0.042969-0.011719 0.097656-0.023438 0.16406-0.035156l0.60938-0.089844-0.054688 0.625v0.003906c-0.046875 0.24609 0.019532 0.50391 0.1875 0.69141 0.16406 0.15625 0.37891 0.24609 0.60156 0.25781 0.45703 0.03125 0.80859-0.089844 0.87891 0.03125 0.066406 0.089844-0.13672 0.46094-0.80469 0.64844v-0.003906c-0.42969 0.10938-0.88281 0.019532-1.2422-0.23828-0.22656-0.16797-0.39844-0.39844-0.49609-0.66016-0.023437-0.054688-0.039062-0.11328-0.050781-0.17578-0.125 0.027343-0.25781 0.050781-0.38672 0.070312-0.15625 0.019531-0.3125 0.023438-0.46875 0.011719-0.027344 0-0.054687-0.003907-0.082031-0.011719-0.1875 0.42188-0.19531 0.89844-0.023437 1.3281 0.33203 0.83203 1.2227 0.44141 1.8398 0.20703 0.046875-0.019531 0.10156-0.027344 0.15625-0.019531 0.089844-0.015625 0.17969 0.011719 0.24609 0.078125 0.0625 0.0625 0.09375 0.15234 0.078125 0.24219-0.089844 0.72656 0.78516 1.3203 1.4531 1.3281 0.39062 0 0.77344-0.085937 1.125-0.25-0.050781-0.027343-0.09375-0.054687-0.13672-0.082031-0.13281-0.085937-0.25781-0.1875-0.375-0.29688-0.1875-0.17969-0.34375-0.39062-0.45312-0.625-0.085937-0.16797-0.10938-0.35938-0.074219-0.54297 0.039063-0.12891 0.10547-0.14844 0.14453-0.15234 0.039062-0.003906 0.070312 0.085937 0.12109 0.15625 0.070312 0.09375 0.14844 0.18359 0.23437 0.26172 0.14063 0.13281 0.30078 0.25 0.46875 0.34375 0.18359 0.125 0.39453 0.21094 0.61719 0.24609l0.03125 0.007813c0.21094 0.011719 0.41797-0.046875 0.59375-0.16797 0.25-0.19141 0.48047-0.41406 0.67969-0.66016l0.18359-0.19531 0.8125-0.87891 0.035157 1.2188c0.003906 0.12109 0.007812 0.23438 0.011718 0.35547h0.003906c0.003907 0.09375 0.019532 0.1875 0.046876 0.28125 0.007812 0.035156 0.015624 0.070312 0.027343 0.10156 0.011719 0.015625 0.019531 0.03125 0.023438 0.050782 0.035156 0.027343 0.21484-0.027344 0.35156-0.13281 0.14062-0.089844 0.27344-0.19531 0.39453-0.3125 0.46875-0.44922 0.6875-0.82812 0.82031-0.78125 0.11328 0.03125 0.11719 0.53516-0.30078 1.2031h0.003906c-0.12109 0.1875-0.26172 0.35938-0.42188 0.51172-0.22266 0.23047-0.51953 0.375-0.83594 0.40625-0.12109 0.007812-0.23828-0.007813-0.35156-0.046875-0.11328-0.046875-0.21875-0.11328-0.3125-0.19531-0.074219-0.082031-0.14062-0.16797-0.19531-0.25781-0.03125-0.050781-0.054687-0.10547-0.074218-0.16406-0.12891 0.11328-0.26562 0.21484-0.41016 0.30078-0.13672 0.078124-0.28125 0.13672-0.42969 0.17578 0.027344 0.16406 0.17188 0.28125 0.33594 0.27344 0.20312-0.058594 0.42187-0.019531 0.59375 0.10156 0.17187 0.125 0.27734 0.32031 0.28516 0.53516 0.027344 0.72656 0.76172 0.60156 1.1445 0.20312v-0.003906c0.17188-0.16406 0.41797-0.22266 0.64844-0.16016 0.23047 0.0625 0.41016 0.24609 0.47266 0.47266 0.0625 0.30859 0.15234 0.60938 0.26953 0.89453 1.1016 0.71875 1.3984 1.957 1.4375 3.2422zm6.3711 1.7344c0.25781-0.31641 0.46484-0.67188 0.61328-1.0547l0.26953-0.58984 0.33984 0.60938c0.050781 0.11719 0.14844 0.20312 0.26953 0.24219 0.15234 0.023437 0.30078-0.011719 0.42969-0.09375 0.15234-0.082031 0.29688-0.1875 0.42188-0.30469l0.21484-0.22656h0.003906c0.042968-0.066407 0.09375-0.13281 0.14844-0.19141 0.17578-0.25391 0.3125-0.53125 0.41016-0.82422 0.16406-0.52344 0.24219-0.89844 0.35156-0.89844 0.09375 0 0.21484 0.36328 0.17188 1.0039-0.039063 0.38672-0.16016 0.75781-0.35156 1.0938-0.0625 0.097657-0.13281 0.19531-0.19922 0.30078-0.0625 0.078125-0.13281 0.15625-0.20312 0.23828-0.17578 0.19922-0.38672 0.36328-0.625 0.48438-0.30078 0.17188-0.65625 0.21484-0.99219 0.125-0.13281-0.046875-0.25391-0.11719-0.35547-0.21484-0.17578 0.26562-0.41406 0.48438-0.69141 0.64062-0.13672 0.074219-0.29297 0.10547-0.44922 0.078125-0.089844-0.023437-0.14453-0.050781-0.14844-0.085937-0.027344-0.082031 0.23438-0.14844 0.37109-0.33203zm1.3828-9.2422c0.10547-0.35547 0.47266-0.55859 0.82812-0.46484 0.32812 0.09375 0.55859 0.38672 0.5625 0.72656 0 0.17969-0.074219 0.35156-0.19922 0.47656-0.12891 0.125-0.30078 0.19141-0.47656 0.19141-0.18359 0.003906-0.35938-0.074219-0.48047-0.21484-0.21484-0.16797-0.30859-0.44922-0.23438-0.71484zm-17.258-6.5234c-0.050782-0.046874-0.10156-0.10156-0.14453-0.15625-0.023437-0.035156-0.054687-0.078124-0.066406-0.10547l-0.035156-0.066406c-0.027344-0.078126-0.042969-0.15625-0.050781-0.23438-0.019531-0.074218-0.019531-0.15234 0-0.22656 0.035156-0.28516 0.16016-0.55469 0.35156-0.76953 0.074219-0.089844 0.15625-0.17578 0.24219-0.25391-0.11328-0.097656-0.22266-0.20312-0.32422-0.3125-0.26953-0.30859-0.42188-0.69922-0.42969-1.1094-0.003906-0.11719 0-0.23438 0-0.34375 0-0.10938 0.007813-0.22266 0.019532-0.34375 0.015625-0.12109 0.023437-0.23438 0.046875-0.35938h0.003906c0.027344-0.19141 0.12109-0.36719 0.26562-0.49609 0.10938-0.085938 0.24609-0.125 0.38281-0.11328 0.082032 0.003906 0.16016 0.019531 0.23438 0.046874 0.058593 0.019532 0.11328 0.035157 0.15625 0.054688-0.070313-0.12891-0.14063-0.25781-0.20703-0.375-0.14844-0.25781-0.31641-0.50781-0.49219-0.74609-0.28516-0.39062-0.51562-0.61719-0.46094-0.67969 0.039063-0.050781 0.32812 0.042969 0.75 0.41016 0.24219 0.20703 0.46484 0.44531 0.66016 0.70312 0.27344 0.33594 0.48828 0.71484 0.63672 1.1211l0.16016 0.5-0.57422-0.070313v-0.003906c-0.22266-0.027344-0.44531-0.074219-0.66016-0.14062-0.03125-0.007812-0.015626-0.019531-0.015626-0.027344 0-0.007812-0.03125-0.027344-0.30469-0.042968 0 0.078124 0.078125 0.17578 0.066406 0.27344s0.089844 0.20703 0.082031 0.3125c-0.003906 0.10547 0 0.21094 0 0.3125h-0.003906c0.003906 0.23047 0.085938 0.45312 0.23438 0.62891 0.15625 0.18359 0.39844 0.38281 0.61719 0.58594l0.51562 0.48828-0.67188 0.12109c-0.17188 0.058594-0.32422 0.16016-0.44141 0.29297-0.125 0.11719-0.21484 0.26563-0.25781 0.42969-0.015625 0.027344-0.019531 0.058594-0.011719 0.089844 0 0.019531-0.003906 0.066406-0.003906 0.066406l0.023437 0.070312 0.011719 0.023438c0 0.007812 0.027344 0.035156 0.039063 0.058594 0.09375 0.089844 0.21094 0.15625 0.33984 0.19141 0.22266 0.066406 0.45312 0.11719 0.68359 0.15625 0.17578 0.035156 0.26953 0.078125 0.26953 0.11719 0 0.039062-0.09375 0.078124-0.26562 0.11328v0.003906c-0.25781 0.054687-0.52344 0.070313-0.78125 0.039063-0.21484-0.023438-0.41797-0.10547-0.58984-0.23438zm5.2812 5.9453c-0.26953 0.12891-0.5625 0.20703-0.85938 0.23828-0.16406 0.019532-0.33203 0.019532-0.49609 0l-0.11328-0.007812-0.058594-0.003906h-0.027344l-0.011718-0.003907-0.007813-0.003906-0.042969-0.007813c-0.089844-0.019531-0.17578-0.042968-0.26562-0.066406-0.21875-0.0625-0.42578-0.16797-0.59766-0.32031-0.21484-0.20312-0.33984-0.48438-0.34375-0.78125 0.007813-0.17969 0.03125-0.36328 0.074219-0.53906h-0.039063c-0.10156-0.003906-0.20703-0.007812-0.30469-0.011719h-0.003906c-0.19531-0.019531-0.39063-0.066406-0.57813-0.13281-0.20703-0.066406-0.39844-0.17578-0.5625-0.31641l-0.11719-0.11719-0.015625-0.003906-0.050781-0.050781v-0.003907l-0.007813-0.007812-0.023437-0.039062v-0.003907c-0.066407-0.09375-0.11328-0.19922-0.14453-0.3125-0.050782-0.18359-0.066407-0.375-0.042969-0.5625 0.039062-0.28906 0.13281-0.56641 0.27344-0.82031 0.47656-0.89062 1.1719-1.125 1.2031-0.98438 0.039063 0.058594-0.070312 0.18359-0.17578 0.375-0.16797 0.28125-0.30469 0.57812-0.40234 0.89062-0.0625 0.19531-0.09375 0.40234-0.097656 0.61328 0 0.09375 0.015625 0.18359 0.046875 0.27344 0.011719 0.03125 0.03125 0.11719 0.046875 0.12109l0.007812-0.042969 0.09375 0.023438c0.066407 0.066406 0.085938 0.03125 0.12109 0.054688l0.003906-0.003907c0.039063 0.019531 0.082032 0.03125 0.12891 0.042969 0.11719 0.03125 0.23438 0.050781 0.35547 0.058594 0.21484 0.019531 0.43359-0.023438 0.62109-0.125l1.0117-0.82812-0.21094 1.2695c-0.011718 0.085938-0.023437 0.17188-0.039062 0.25-0.078125 0.39062-0.20703 0.74609-0.21094 0.92578 0.003907 0.085938 0.003907 0.070313 0.03125 0.11328v-0.003906c0.066407 0.0625 0.14844 0.11328 0.23438 0.14453 0.058593 0.023437 0.12109 0.042968 0.17969 0.0625 0.058594 0.007812 0.12109 0.023437 0.17969 0.03125h-0.003906c0.11719 0.03125 0.23828 0.042968 0.35938 0.039062 0.21484 0.003906 0.42969-0.019531 0.63672-0.078125 0.80469-0.23438 1.2812-0.63281 1.3828-0.51562 0.078126 0.074219-0.17969 0.67188-1.1367 1.1719z"/>
  <path d="m27.562 39.734c-0.39062-0.42188-0.64844-0.95312-0.74219-1.5234-1.5547-0.97656-3.1641-1.8711-4.8164-2.6719-1.457-0.58594-2.9375-1.1016-4.3789-1.7188-2.9102-1.25-5.75-2.6445-8.668-3.8711-0.875-0.375-1.7109-0.82812-2.5078-1.3516 0.75781 3.6953 6.3789 5.4453 9.3867 6.6914 3.8789 1.6016 7.7188 3.1992 11.727 4.4453z"/>
  <path d="m23.082 34.551c1.4023 0.6875 2.7617 1.457 4.0703 2.3086 0.035156-0.054687 0.078125-0.10547 0.11719-0.15625-4.7383-3.4102-10.109-6.1016-15.227-9.0547-1.8945-1.0938-4.6641-2.2656-6.5977-3.9453-3.1797 2.8906 8.8086 7.1562 10.418 7.8828 2.3789 1.0703 4.8164 1.9492 7.2188 2.9648z"/>
  <path d="m27.246 41.195c0.007812 0 0.019531 0.003907 0.027344 0.003907 0.015624-0.050781 0.027343-0.09375 0.042968-0.13281-0.007812-0.003906-0.015625-0.007812-0.023437-0.007812-4.9922-1.5586-9.875-3.457-14.609-5.6797-0.69922 1.6211 4.7227 4.2383 5.3477 4.4297v-0.003906c2.9961 0.87109 6.0938 1.3398 9.2148 1.3906z"/>
  <path d="m9.7227 24.711c1.9961 1.1406 3.9727 2.3203 5.9961 3.4297 3.8008 2.0742 7.5859 4.2148 11.168 6.6562-1.9531-1.9961-6.7188-4.5977-7.6172-5.1836-2.9062-1.8828-5.7383-3.9219-8.5312-5.9609h-0.003906c-1.2969-0.94141-2.5117-2-3.625-3.1562-0.12891 0.058594-0.27344 0.078125-0.41406 0.054687-0.41406-0.0625-0.83203-0.089843-1.25-0.082031-0.23047-0.003906-0.46094 0.03125-0.67969 0.10547-0.007813 0.003906-0.019531 0.007812-0.027344 0.007812v0.015625c0.70703 2.0117 3.2539 3.1211 4.9844 4.1133z"/>
  <path d="m26.609 29.055c1.9062 1.3828 3.8008 2.7773 5.6758 4.2109-1.2305-1.8359-2.6133-3.5703-4.1289-5.1797-1.1641-1.1875-2.4727-2.1875-3.7188-3.2812h0.003906c-0.76172-0.72656-1.5938-1.3789-2.4805-1.9414 1.0469 2.3945 2.6406 4.5156 4.6484 6.1914z"/>
  <path d="m77.98 23.34c-1.0469 0.67578-2.0352 1.4375-2.9531 2.2812-1.1875 0.85156-2.3008 1.8008-3.3281 2.8398-1.4297 1.6016-2.7617 3.2695-4.043 4.9727 1.8398-1.3516 3.7031-2.668 5.5664-3.9766v0.003907c2.0391-1.6445 3.668-3.7383 4.7578-6.1211z"/>
  <path d="m31.367 47.168c-0.21875-0.60156-0.25781-1.25-0.11719-1.8711h-0.007812c-2.4219-0.042969-4.8477-0.33203-7.2656-0.23438-1.0508 0-2.1016 0.11328-3.125 0.33984-0.41406 0.089844-0.8125 0.22656-1.1914 0.40625-1.082 0.46875-1.0391 1.3086 0.13672 2.5234h-0.003906c0.10156 0.007813 0.19531 0.035157 0.28516 0.078125 1.3008-0.32812 2.6367-0.50391 3.9766-0.52344 2.4375-0.21094 4.8633-0.65625 7.3125-0.71875z"/>
  <path d="m30.918 43.941c-0.050781-0.22266-0.0625-0.45312-0.042969-0.68359-0.054688 0.015626-0.11719 0.023438-0.17578 0.019532-2.4102-0.097656-4.75-0.78125-7.1602-0.84766-0.98437-0.078126-1.9766-0.035157-2.9531 0.13281-0.77344 0.17969-3.6211 1.2852-2.4609 2.6875 0.14062-0.14062 0.30078-0.26562 0.47266-0.37109 3.5-2.0898 8.4336-1.0664 12.32-0.9375z"/>
  <path d="m32.742 55.105c-0.09375-0.023438-0.18359-0.054688-0.27344-0.09375-0.17969-0.078125-0.33984-0.19531-0.46484-0.34766-0.125 0.29297-0.11328 0.63281 0.035156 0.91406 0.15234 0.28516 0.42188 0.48438 0.73828 0.54688 0.039062-0.027344 0.078125-0.046875 0.125-0.078125l-0.007813-0.007813c-0.19141-0.23828-0.26172-0.55078-0.1875-0.84375 0.011719-0.03125 0.019531-0.0625 0.035157-0.089843z"/>
  <path d="m31.824 53.82c0.09375-0.37109 0.30078-0.70312 0.58984-0.94922 0.089844-0.074219 0.1875-0.14062 0.28516-0.20312-0.027344-0.035157-0.054688-0.074219-0.078125-0.10547-0.17578-0.26562-0.28516-0.56641-0.32422-0.88281-0.019531-0.16406-0.015625-0.33203 0.007813-0.49609-0.79297 0.31641-1.6094 2.707-0.48047 2.6367z"/>
  <path d="m30.938 48.527c-2.0234 0.089844-4.0312 0.45703-6.0508 0.625-0.98438 0.082031-1.9688 0.18359-2.9492 0.30078v0.003906c-0.4375 0.039063-0.86719 0.10938-1.293 0.20703-0.12891 0.54688-0.26172 1.1055-0.39062 1.6602 0.082032 0.007812 0.16016 0.027343 0.23438 0.0625 3.082-1.418 6.9375-1.0703 10.227-1.6133-0.03125-0.42578 0.046875-0.85547 0.22266-1.2461z"/>
  <path d="m52.172 78.789c0.15625-0.046874 0.32422-0.03125 0.46875 0.042969 0.11719-1.3125 0.12109-2.6328 0.015625-3.9492-0.074219-0.042968-0.13672-0.10156-0.18359-0.17187l-0.003906-0.003907c-0.44141-0.375-0.82031-1.6484-1.3906-1.6406-0.39062 0.011719-1.0664-0.03125-1.3438 0.29688-0.20703 0.25-0.41016 0.5625-0.62891 0.79688-0.27734 0.3125-0.625 0.55469-1.0117 0.70703-0.050781 1.2891-0.26562 2.6055-0.22656 3.9023 0.042968 0.007813 0.082031 0.019531 0.12109 0.035157 0.48047 0.20312 0.66797-0.039063 0.89844-0.4375 0.19531-0.3125 0.60156-0.41797 0.92188-0.23438 0.36328 0.16797 0.64453 0.42969 0.98828 0.625 0.43359 0.20703 0.93359 0.21875 1.375 0.03125z"/>
  <path d="m64.16 61.566c-0.042968-0.074218-0.070312-0.15625-0.085937-0.24219-0.29297-0.03125-0.58203-0.097657-0.85938-0.19531-0.14062 0.46094-0.44531 0.85547-0.85938 1.1016 0.10938 0.085937 0.1875 0.20312 0.22656 0.33594 0.51953 1.5273 1.7812 2.6836 3.3516 3.0703 0.65234 0.13672 2.2031 0.36328 2.9062-0.16406h-0.003906c-1.9453-0.75-3.5898-2.1211-4.6758-3.9062z"/>
  <path d="m77.504 52.73c-0.34766-0.10156-0.70312-0.18359-1.0586-0.24609-0.63672-0.10547-1.2695-0.16797-1.9062-0.26172-2.0547-0.31641-4.1289-0.44922-6.1719-0.82812-0.046876 0.070313-0.089844 0.14453-0.14063 0.21484v-0.003906c0.19531 0.29297 0.34766 0.61719 0.44141 0.95703 0.10938-0.015625 0.21875-0.007812 0.32422 0.03125 2.1094 0.66797 4.2617 1.1836 6.4453 1.5469 0.99219 0.097656 1.9609 0.35938 2.8633 0.78125 0.089844-0.085937 0.20312-0.13672 0.32422-0.15625 0.26562-1.1953-0.10938-1.875-1.1211-2.0352z"/>
  <path d="m75.145 59.703c-2.4961-1.0078-4.8789-2.2695-7.1172-3.7656-0.125 0.35938-0.35938 0.66797-0.67578 0.875 0.078126 0.027344 0.15234 0.070312 0.21875 0.125 1.3203 1.0547 2.5547 2.3555 4.1875 2.9336 0.75 0.32031 1.5586 0.49609 2.3789 0.51562 0.30078-0.015625 2.3164-0.21484 1.0078-0.68359z"/>
  <path d="m66.969 58.168c-0.14453 0.32812-0.39062 0.60156-0.70312 0.77344 0.12891 0.015625 0.25391 0.066406 0.35547 0.15234 1.3477 1.1016 2.8711 1.9766 4.5039 2.5859 0.52734 0.17969 2.8281 1.0156 2.9414 0.0625-0.74219-0.027344-1.4805-0.16406-2.1875-0.40625-1.8086-0.75781-3.4727-1.8281-4.9102-3.168z"/>
  <path d="m65.66 60.035c-0.003906 0-0.003906-0.003906-0.007812-0.003906v-0.003906c-0.035156 0.17969-0.09375 0.35547-0.17578 0.51953-0.050781 0.10547-0.11719 0.20312-0.19141 0.29297l0.039063 0.054687h0.003906c0.97656 1.5859 2.4727 2.7852 4.2344 3.3906 1 0.32812 2.9297 0.61328 2.9961-0.83984l-0.089844-0.015624c-2.5117-0.5625-4.8477-1.7305-6.8086-3.3945z"/>
  <path d="m95.121 21.328c-0.1875-0.054687-0.38672-0.085937-0.58594-0.089844-0.41797-0.011719-0.83203 0.011719-1.25 0.0625-0.11328 0.015625-0.22656 0.003907-0.33594-0.035156-1.3555 1.3438-2.8555 2.5391-4.4688 3.5625-2.8477 1.9648-5.7031 3.9336-8.6367 5.7617-0.84766 0.53125-5.1328 2.7812-6.9883 4.6094 3.8633-2.5352 7.9531-4.7148 12.039-6.8633 1.9453-1.0234 3.8398-2.125 5.7656-3.1836 1.6172-0.89062 3.8867-1.9141 4.5781-3.7656v-0.011719c-0.035156-0.023438-0.074219-0.039062-0.11719-0.046875z"/>
  <path d="m77.59 56.141c-1.0039-0.39453-2.0547-0.66797-3.125-0.81641-1.9336-0.33984-3.8477-0.80469-5.7227-1.3906-0.054688 0.26953-0.19922 0.51172-0.41016 0.6875 0.074219 0.023437 0.14062 0.058594 0.20312 0.10547 1.2383 0.74219 2.3672 1.7734 3.6719 2.4062 1.0781 0.51953 2.1875 1.0469 3.3125 1.5039 0.49609-0.44531 3.9766-1.6172 2.0703-2.4961z"/>
  <path d="m81.355 34.691c-1.668 0.51953-3.3008 1.1367-4.8945 1.8516-1.2031 0.59766-2.2969 1.3711-3.4805 1.9961v-0.003906c-0.082031 0.57422-0.33594 1.1094-0.73047 1.5312 3.9727-1.1719 7.8008-2.6562 11.641-4.1914 3.0391-1.2148 8.7227-2.8477 9.5117-6.5586h-0.003906c-1.0078 0.61719-2.0664 1.1484-3.168 1.5859-2.9883 1.1758-5.8477 2.7109-8.875 3.7891z"/>
  <path d="m94.434 24.414c-0.33203 0.25781-0.67969 0.49609-1.0391 0.71484-2.0469 1.2695-4.1523 2.4453-6.2734 3.5742-4.957 2.6328-10.203 5.207-14.586 8.375 0.03125 0.046875 0.066406 0.085937 0.097656 0.125h0.003907c1.5234-0.92578 3.1055-1.7578 4.7344-2.4805 2.4531-0.94141 4.9102-1.832 7.3203-2.8906 1.6016-0.70312 12.969-4.457 9.7656-7.3945z"/>
  <path d="m79.887 46.328c-0.24219-0.10156-0.48047-0.19531-0.71875-0.29297-0.30078-0.097656-0.60938-0.17578-0.92188-0.24219-1.1445-0.20703-2.3047-0.3125-3.4688-0.3125-2.1562-0.003907-4.3125 0.12891-6.4648 0.13281h-0.007812c0.13281 0.625 0.082031 1.2734-0.14844 1.8672 2.7109 0.11719 5.4531 0.58984 8.1406 0.9375h0.003906c1.0391 0.089843 2.0664 0.26953 3.0781 0.53125 0.097656-0.0625 0.21484-0.097657 0.33203-0.10156 1.1914-1.1875 1.25-2.0273 0.17578-2.5195z"/>
  <path d="m79.633 43.219c-0.55859-0.16797-1.1367-0.26562-1.7188-0.29688-0.88281-0.0625-1.7734-0.066406-2.6562-0.007813-2.1328 0.18359-4.2188 0.64063-6.3672 0.6875v0.003907c-0.058594 0.003906-0.11719-0.003907-0.17578-0.019531 0.019531 0.22656 0 0.45703-0.054688 0.67969 3.8984-0.058594 8.8438-1 12.301 1.1484 0.17187 0.10938 0.33203 0.23438 0.46875 0.38281 0.92969-1.1055-1.0625-2.3906-1.7969-2.5781z"/>
  <path d="m72.336 41.449h-0.003907c0.015625 0.039062 0.035157 0.089843 0.050781 0.13672v-0.003907c3.125 0.078125 6.2422-0.33984 9.2383-1.2266 0.59766-0.20703 6.1211-2.6953 5.418-4.3398-4.7852 2.1133-9.6953 3.9297-14.703 5.4336z"/>
  <path d="m78.336 50.059c-0.32031-0.050782-0.64844-0.097656-0.97266-0.14844-1.2031-0.17578-2.4141-0.27734-3.6172-0.41016-1.7344-0.19531-3.4492-0.53125-5.1875-0.64453l0.003906-0.003907c0.17188 0.39453 0.24219 0.82422 0.20703 1.25 3.0781 0.55859 7.332 0.1875 10.168 1.8047h0.003906c0.078125-0.042969 0.16797-0.066406 0.25781-0.074219 0.27734-1.1562-0.011719-1.7461-0.86328-1.7734z"/>
  <path d="m57.074 60.801c-0.28906 0.13672-0.5 0.39453-0.57422 0.70312-0.125 0.52734-0.35938 1.0156-0.51562 1.5312v0.003906c1.4961 0.48047 2.9414 1.1172 4.3047 1.8984-0.55859-1.707-1.6953-3.1719-3.2148-4.1367z"/>
  <path d="m54.906 72.391c0.035156 0.77344-0.17969 1.5391-0.61719 2.1797 0.16797 1.3008-0.11328 2.6172 0.11719 3.9062 0.41016-0.11328 0.52344-0.53125 0.67578-0.85937 0.15625-0.26172 0.46875-0.38672 0.76172-0.30469 1.2422 0.44531-0.3125-3.5078-0.33203-3.5508-0.21484-0.46094-0.42188-0.91016-0.60547-1.3711z"/>
  <path d="m62.918 60.336c0.050781-0.003907 0.10156 0.003906 0.15234 0.023437 0.42188 0.23438 0.90625 0.33203 1.3906 0.29297 0.035156-0.023438 0.070312-0.039063 0.10937-0.050782 0.16406-0.089843 0.28516-0.23828 0.33594-0.41797 0.17188-0.42578 0.17188-0.90234 0-1.3281-0.03125 0.003906-0.0625 0.007812-0.09375 0.007812-0.15625 0.011719-0.3125 0.003907-0.46875-0.019531-0.12891-0.019531-0.25781-0.046875-0.39062-0.078125-0.015625 0.054687-0.027344 0.10938-0.046875 0.16016-0.10547 0.26172-0.28125 0.48828-0.51172 0.65625-0.36328 0.25391-0.82031 0.33594-1.25 0.21875-0.66016-0.19922-0.85938-0.56641-0.79297-0.65625 0.078126-0.12109 0.42188 0.007813 0.87891-0.015625 0.22656-0.003906 0.44141-0.09375 0.60547-0.24609 0.17187-0.17969 0.25-0.43359 0.21094-0.67969l-0.042969-0.625 0.60938 0.097656c0.066407 0.015625 0.12109 0.023438 0.16406 0.039063 0.28906 0.074218 0.51953 0.14844 0.73828 0.19922 0.10547 0.019532 0.20703 0.039063 0.28125 0.042969 0.078125 0.003907 0.12109-0.007812 0.078125 0.027344l-0.007812 0.011719c0.015624 0 0.027343-0.011719 0.035156-0.023438 0.023437-0.054687 0.027344-0.11328 0.015625-0.16797-0.023438-0.14844-0.066407-0.29297-0.125-0.42969-0.097657-0.26562-0.15625-0.44141-0.089844-0.50781 0.066406-0.066407 0.25391-0.011719 0.50391 0.21094h0.003907c0.16016 0.13672 0.28906 0.30859 0.37891 0.5 0.074218 0.14844 0.10938 0.3125 0.10547 0.47656-0.003906 0.097656-0.027343 0.19141-0.0625 0.28125 0.019532 0.003906 0.039063 0.019531 0.058594 0.023437 0.085938-0.11328 0.17578-0.21875 0.25781-0.32812 0.28125-0.38281 0.4375-0.69141 0.14844-1.0117-0.23828-0.17969-0.50391-0.32031-0.78516-0.42188-0.22266-0.070312-0.41797-0.20703-0.5625-0.39453-0.078125-0.12109-0.10547-0.20312-0.078125-0.23438s0.11328-0.015625 0.24219 0.042969c0.066407 0.027343 0.13672 0.042969 0.21484 0.074219 0.09375 0.019531 0.19141 0.035156 0.28516 0.042968 0.20313 0.03125 0.40625-0.050781 0.53125-0.21094 0.035157-0.074219 0.03125-0.16016-0.007812-0.23438-0.058594-0.13281-0.14453-0.25391-0.25391-0.35547l-0.53125-0.58203 0.82422-0.11328v-0.003906c0.19531-0.011718 0.39063-0.058594 0.57422-0.13672 0.046875-0.019532 0.089844-0.050782 0.12109-0.09375-0.003906-0.023438 0.011719-0.011719 0-0.070313-0.0625-0.17188-0.16797-0.32422-0.3125-0.4375-0.18359-0.16016-0.39453-0.28516-0.625-0.36719l-0.066406-0.027344-1.5703-0.64453 1.6094-0.29687c0.27344-0.14453 0.46094-0.41016 0.50391-0.71484 0.027343-0.125 0.019531-0.25781-0.027344-0.37891-0.039063-0.085938-0.11719-0.14844-0.20703-0.16797l-0.92187-0.33594 0.78125-0.46094 0.003906 0.003906c0.29297-0.14453 0.48828-0.44141 0.50391-0.76953 0-0.30078-0.074219-0.60156-0.21484-0.87109-0.23438-0.49609-0.47656-0.75781-0.41016-0.83594 0.050781-0.066407 0.41797 0.054687 0.84375 0.55469 0.27344 0.31641 0.44531 0.70703 0.49609 1.1211 0.03125 0.25781-0.003906 0.51953-0.10547 0.75781 0.13281 0.050781 0.25781 0.11719 0.375 0.19922h0.027344c0.61328 0.09375 0.27344-1.9297 0.085937-2.2227-0.023437-0.042969-0.039062-0.089844-0.046875-0.13672-0.085937-0.035156-0.14844-0.10547-0.17578-0.19531-0.027344-0.089843-0.015625-0.18359 0.035156-0.26172 0.39062-0.61328 0.53125-1.3516 0.39453-2.0664-0.074219 0.097656-0.16016 0.1875-0.25781 0.26562-0.14062 0.125-0.30469 0.22656-0.47656 0.30078-0.25781 0.12891-0.54687 0.16797-0.82812 0.10938-0.078126-0.011719-0.14453-0.050781-0.19531-0.10938-0.027344-0.027344-0.042969-0.066406-0.042969-0.10547 0.011719-0.039063 0.042969-0.070313 0.078125-0.085937 0.046875-0.03125 0.12891-0.03125 0.17578-0.078126 0.16016-0.09375 0.30859-0.20312 0.44531-0.32422 0.19531-0.15625 0.34766-0.36328 0.4375-0.59766 0-0.015626 0.007813-0.035157 0.011719-0.050782-0.007813 0-0.007813 0-0.011719 0.003906l-0.046875-0.023437c-0.023438-0.003906-0.023438-0.023437-0.0625-0.027344-0.070312-0.019531-0.14453-0.039062-0.21875-0.050781-0.078125-0.011719-0.15625-0.019531-0.22656-0.035156l-0.57813-0.078125 0.12891-0.52344c0.10156-0.40625 0.23438-0.77734 0.28125-1.0312 0.015625-0.070312 0.023437-0.14453 0.019531-0.21875 0-0.027343-0.027344-0.089843-0.12109-0.13281h0.003906c-0.16797-0.078125-0.33594-0.14453-0.51172-0.20312-0.13672-0.050782-0.22266-0.10938-0.22656-0.17188-0.003906-0.0625 0.074219-0.12891 0.22656-0.19141 0.22266-0.082031 0.46484-0.10547 0.70312-0.066406 0.22656 0.027344 0.43359 0.14453 0.57422 0.32812 0.15234 0.21094 0.22656 0.46875 0.21094 0.72656-0.015625 0.22656-0.046875 0.45312-0.097656 0.67578 0.0625 0.019531 0.125 0.042969 0.1875 0.058594 0.078125 0.03125 0.15234 0.070312 0.21875 0.11719 0.078125 0.042969 0.14844 0.097656 0.21094 0.16406 0.03125 0.039062 0.066406 0.078125 0.097656 0.11328 0.23438-0.28125 0.33203-0.65234 0.27344-1.0156s-0.26953-0.67969-0.58203-0.875c-0.058594-0.023437-0.10938-0.058594-0.14453-0.10938 0-0.003906 0-0.007812-0.007813-0.011719l-0.003906-0.003906c-0.015625-0.027344-0.03125-0.054687-0.042969-0.089844 0-0.007812-0.003906-0.015625-0.003906-0.019531v0.003906c-0.035156-0.11719-0.007813-0.24219 0.078125-0.32812 0.082031-0.085937 0.20703-0.11719 0.32422-0.082031 1.1055 0.34766 2.2461 0 3.3594-0.19922-0.16797-0.3125-0.33594-0.625-0.49609-0.9375-0.25781-0.26562-0.25391-0.69141 0.007812-0.95312 0.71094-0.42578 0.98828-1.3203 0.64062-2.0742-0.125-0.066407-0.22656-0.16797-0.28125-0.29688-0.039062-0.085937-0.074218-0.17187-0.10938-0.25781-0.30469 0.35156-0.64453 0.67188-1.0156 0.95312-0.035156 0.027344-0.078125 0.054687-0.11719 0.078125 0.13672 0.066406 0.25391 0.16797 0.33594 0.28906 0.089844 0.125 0.13281 0.27344 0.125 0.42188-0.003906 0.11719-0.03125 0.23047-0.078125 0.33594-0.13672 0.26953-0.33594 0.50391-0.57812 0.6875-0.17578 0.14062-0.36719 0.26562-0.56641 0.375-0.71484 0.39062-1.2031 0.42578-1.2305 0.32812-0.027343-0.09375 0.35938-0.3125 0.92188-0.78516 0.14844-0.125 0.28906-0.26172 0.42578-0.40625 0.13672-0.13672 0.24219-0.29688 0.31641-0.47656 0-0.011719 0-0.019531-0.023438-0.023437-0.035156-0.015625-0.074218-0.023438-0.10938-0.03125-0.26172-0.039063-0.52344-0.046875-0.78125-0.015625l-2.4219 0.19531 2.2305-1.0664c0.16016-0.085937 0.3125-0.17969 0.46094-0.28516 0.16797-0.11328 0.33203-0.23438 0.5-0.37109v-0.003906c0.33203-0.26172 0.63672-0.55859 0.90625-0.88672 0.11719-0.13672 0.21094-0.29297 0.27734-0.45703 0.039063-0.14453 0.023438-0.14844 0-0.19922-0.039062-0.039062-0.082031-0.074219-0.12891-0.097656l-0.046875-0.027344-0.015625-0.007812-0.015625-0.003907-0.15625-0.058593-0.003906-0.003907c-0.03125-0.019531-0.070313-0.027343-0.10938-0.023437-0.027344 0-0.054688-0.003906-0.078125-0.011719-0.0625-0.003906-0.14844 0-0.22266 0h-0.003906c-0.33984 0.058594-0.66797 0.17578-0.96484 0.35156-0.29297 0.15625-0.57812 0.32812-0.84766 0.51562-0.51172 0.34375-0.92969 0.65234-1.2422 0.83594-0.31641 0.18359-0.51562 0.25-0.55859 0.19531-0.039063-0.054687 0.082031-0.21875 0.30859-0.49219v0.003906c0.33203-0.38672 0.6875-0.75 1.0664-1.0938 0.26953-0.24219 0.55859-0.46484 0.85938-0.66797 0.375-0.26172 0.79297-0.44531 1.2383-0.53906 0.13672-0.023438 0.27344-0.03125 0.41016-0.035156 0.078124 0.003906 0.16016 0.015625 0.24609 0.023437v0.003907c0.074219 0.003906 0.14453 0.019531 0.21094 0.046874l0.15625 0.050782 0.039062 0.011718 0.058594 0.023438 0.023437 0.007812 0.10156 0.050782c0.078125 0.042968 0.15625 0.089844 0.22266 0.14453 0.16406-0.21484 0.35547-0.40234 0.57422-0.55469 2.2812-1.6484 4.6016-3.2344 6.9883-4.7188 2.6875-1.6758 5.3125-3.4375 7.9219-5.2266 2.0469-1.4062 5.0078-2.9062 6.3086-5.1172 1.5859-2.6992-1.8945-1.3281-2.9688-0.54297-0.98438 0.71875-1.8828 1.5156-2.8125 2.2969-2.0352 1.7031-4.2656 3.1992-6.4258 4.7344-2.1836 1.5547-4.3867 3.0742-6.582 4.6094l-0.019532 0.015625c-0.003906 0-0.007812 0.003906-0.011718 0.003906-2.8047 1.9609-5.5938 3.9375-8.3008 6.0352l0.003906 0.003907c-0.10547 0.082031-0.23047 0.12891-0.36328 0.14453-0.14844 0.21094-0.29688 0.41406-0.44141 0.625-2.082 2.8281-3.9727 5.7969-5.6523 8.8867-1.1445 2.4922-2.625 4.8203-4.3945 6.918 0.066406 0.11719 0.12891 0.23438 0.19141 0.34766h-0.003906c0.67188 1.1406 1.4531 2.2148 2.3359 3.2031 0.63672 0.82422 0.87891 1.8906 0.65625 2.9062 0.83984 0.54687 1.582 1.2305 2.1953 2.0234 0.4375 0.22656 0.94141 0.28125 1.4141 0.15234 0.54688-0.17969 1.1484-0.60156 1.082-1.2383-0.011719-0.085938 0.019531-0.17578 0.085937-0.23828 0.0625-0.0625 0.15234-0.089844 0.24219-0.074218zm-2.0703-14.156c0.37109-0.66016 0.67188-1.3516 0.90625-2.0703 0.15625-0.5 0.16797-0.89844 0.27734-0.89844 0.078125 0.003906 0.23828 0.32031 0.20312 0.98047l-0.003906-0.003906c-0.042969 0.48438-0.15625 0.95703-0.33203 1.4062 0.28516-0.089844 0.59375-0.089844 0.88281 0 0.36328 0.14844 0.60938 0.49219 0.63672 0.88281 0.015625 0.30469-0.074219 0.60547-0.24609 0.85547-0.12109 0.18359-0.26562 0.35547-0.42578 0.50781-0.57422 0.52344-1 0.70312-1.0625 0.63281-0.078125-0.078125 0.24609-0.42969 0.66406-0.98438v-0.003906c0.10547-0.14062 0.19922-0.29688 0.27734-0.45703 0.074219-0.14062 0.10938-0.29688 0.10156-0.45703-0.007812-0.125-0.085937-0.23437-0.19922-0.27734-0.1875-0.035157-0.37891-0.011719-0.55078 0.066406-0.20703 0.070313-0.40234 0.16797-0.58594 0.28516l-1.1953 0.76953zm-1.2305 9.3086c0.125 0.050781 0.26172 0.070313 0.39844 0.0625 0.22266 0 0.33203-0.62109 0.29297-1.3008l-0.027344-0.42969 0.46094 0.13281c0.35547 0.09375 0.73047 0.097656 1.0859 0.007813 0.15625-0.039063 0.30469-0.10547 0.4375-0.19922 0.027344 0 0.066406-0.085938 0.10547-0.125l0.054687-0.078125 0.007813-0.007813v-0.007812c0.03125-0.0625 0.050781-0.13281 0.054687-0.20312-0.042969-0.22266-0.17578-0.41406-0.37109-0.53125-0.24219-0.17578-0.49219-0.33984-0.75-0.48828l-0.72266-0.4375 0.8125-0.20703h0.003907c0.16016-0.039062 0.3125-0.11328 0.4375-0.21875 0.10937-0.097656 0.19141-0.22656 0.23437-0.36719 0.078126-0.24609 0.023438-0.51172-0.14453-0.70312-0.13672-0.12891-0.30078-0.21484-0.48047-0.25781-0.15625-0.027344-0.24219-0.0625-0.24609-0.10156-0.003907-0.039063 0.078125-0.078125 0.23438-0.12891v0.003906c0.26172-0.050782 0.53516 0.003906 0.75781 0.15625 0.35938 0.26172 0.53906 0.70703 0.45703 1.1445-0.042969 0.26562-0.16406 0.51172-0.34766 0.71094-0.035156 0.03125-0.070312 0.0625-0.11328 0.09375 0.11328 0.0625 0.21875 0.13281 0.32031 0.21094 0.16797 0.11719 0.3125 0.26172 0.43359 0.42578 0.15234 0.19922 0.23828 0.44531 0.23828 0.69531 0.003906 0.18359-0.042969 0.36719-0.12891 0.52734l-0.007812 0.03125-0.007813 0.011718v0.003906l-0.035156 0.054688-0.003906 0.015625-0.03125 0.035156-0.054688 0.078125c-0.039062 0.058594-0.082031 0.10938-0.13281 0.15234-0.125 0.12109-0.26953 0.22266-0.42969 0.29297l-0.20703 0.082031c-0.066406 0.019531-0.13672 0.035156-0.20312 0.050781-0.35938 0.074219-0.73438 0.074219-1.0938-0.003906-0.023438 0.21875-0.070312 0.43359-0.14453 0.64062-0.054688 0.16406-0.14844 0.31641-0.27344 0.44141-0.12109 0.125-0.29297 0.1875-0.46875 0.17188-0.19531-0.023437-0.375-0.11719-0.50781-0.26562-0.078125-0.09375-0.10938-0.15625-0.09375-0.17969 0.019531-0.023438 0.089843-0.023438 0.19922 0.007812zm1.2109 2.2109c-0.074219 0.32422-0.17969 0.64062-0.3125 0.94531-0.089844 0.22266-0.21875 0.42188-0.38672 0.59375-0.046875 0.050781-0.10156 0.09375-0.16406 0.12891-0.070313 0.042968-0.15234 0.070312-0.23438 0.074218-0.082031 0.011719-0.16016 0.003906-0.23438-0.023437l-0.10547-0.042969-0.070313-0.054688c-0.039062-0.035156-0.085937-0.070312-0.12109-0.10937-0.035157-0.035157-0.054688-0.078126-0.078125-0.11328-0.046875-0.0625-0.085938-0.12891-0.11719-0.19922-0.046875-0.10547-0.082031-0.21484-0.10938-0.32422-0.035156-0.17578-0.03125-0.28125 0.011719-0.30469 0.042969-0.023437 0.12891 0.046875 0.24219 0.1875 0.058593 0.070313 0.12891 0.14453 0.19922 0.23047v-0.003906c0.039063 0.042968 0.078125 0.082031 0.125 0.11719l0.0625 0.058594 0.0625 0.027344 0.027344 0.015625 0.007812-0.003906c0.007813-0.003907 0.011719 0 0.007813-0.011719l0.007813-0.019531h0.003906c0.015625-0.011719 0.027344-0.027344 0.035156-0.046876 0.085938-0.12891 0.15234-0.27344 0.19531-0.42578 0.13281-0.41406 0.23438-0.83984 0.30859-1.2656l0.085938-0.44141 0.44922 0.17578c0.078126 0.03125 0.15234 0.0625 0.23438 0.097657v-0.003907c0.17187 0.054688 0.35547 0.066407 0.53516 0.035157 0.16016-0.046876 0.30078-0.13672 0.41016-0.25781 0.21094-0.26172 0.34766-0.57812 0.39062-0.91016 0.089844-0.61719-0.03125-1.0312 0.078125-1.0742 0.070312-0.042969 0.41406 0.32422 0.45703 1.0938 0.027344 0.47266-0.10938 0.94141-0.38281 1.3281-0.19141 0.25-0.45312 0.43359-0.75391 0.53125-0.28125 0.074219-0.58203 0.074219-0.86719-0.003906z"/>
  <path d="m67.145 51.484c0.027344 0.16406 0.027344 0.33203 0 0.49609-0.042969 0.31641-0.15625 0.61719-0.33594 0.875-0.023438 0.03125-0.050782 0.066406-0.078125 0.10156v0.003907c0.097656 0.0625 0.19141 0.13281 0.27734 0.20703 0.28906 0.25 0.48828 0.58594 0.57422 0.96094 1.1328 0.089844 0.35547-2.3164-0.4375-2.6445z"/>
  <path d="m66.469 56.34c0.046875 0.027344 0.085938 0.050781 0.125 0.078125 0.31641-0.054688 0.58984-0.25391 0.74609-0.53516 0.15234-0.28125 0.17188-0.61719 0.050781-0.91406-0.12891 0.14844-0.28906 0.26562-0.46875 0.33984-0.089844 0.035156-0.17969 0.066406-0.26953 0.089844 0.007812 0.03125 0.015625 0.058593 0.027344 0.09375h-0.003907c0.070313 0.29687-0.003906 0.60547-0.19922 0.83984-0.003906 0.003907-0.003906 0.007813-0.007812 0.007813z"/>
  <path d="m47.523 80.184c-0.13281-0.33203-0.22656-0.67578-0.28125-1.0273-0.015626-0.15234-0.023438-0.30469-0.015626-0.45703 0.007813-0.3125 0.12109-3.6992 0.19141-3.7031v-0.003906c-0.12891 0.003906-0.25781 0-0.38672-0.015626-0.082031 1.7344-0.30859 3.4609-0.68359 5.1562-0.023437 0.015626-0.050781 0.03125-0.074218 0.050782-0.73828 0.80859-1.375 1.6992-1.9062 2.6562-0.09375 0.1875-0.023438 0.41016 0.15234 0.51562 0.17969 0.10156 0.41016 0.046875 0.52344-0.125 0.41797-0.74609 0.90625-1.4492 1.4648-2.0977v2.8867c0 0.21484 0.17188 0.39062 0.39063 0.39062 0.21484 0 0.39062-0.17578 0.39062-0.39062v-2.8477c0.45313 0.67969 0.81641 1.4141 1.0781 2.1875 0.0625 0.20703 0.27344 0.32812 0.48047 0.27344 0.10156-0.027343 0.18359-0.09375 0.23438-0.18359 0.050781-0.089844 0.066407-0.19531 0.039063-0.29688-0.36719-1.0703-0.90625-2.0742-1.5977-2.9688z"/>
  <path d="m54.02 79.812c-0.14844-0.35156-0.23047-0.72266-0.24609-1.1016-0.097657-1.2578-0.13281-2.5156-0.10156-3.7734-0.10547 0.027344-0.21875 0.042969-0.33203 0.042969 0.070312 1.3398 0.054687 2.6836-0.039063 4.0195-0.003906 0.3125-0.058593 0.62109-0.16016 0.91406-0.046875 0.054688-0.074219 0.125-0.078125 0.19922-0.035156 0.066407-0.070312 0.13281-0.11328 0.19531-0.60156 0.80078-1.1445 1.6406-1.6211 2.5195-0.09375 0.1875-0.023437 0.41016 0.15234 0.51562 0.17969 0.10156 0.41016 0.050781 0.52344-0.125 0.35547-0.65234 0.74609-1.2852 1.1719-1.8984 0.074219 0.75 0.14844 1.5 0.22266 2.25 0.003906 0.21484 0.17578 0.38672 0.39062 0.39063 0.10156 0 0.20313-0.039063 0.27734-0.11328 0.070313-0.074218 0.11328-0.17188 0.11328-0.27734l-0.26953-2.7344s0.003906-0.007813 0.003906-0.011719c0.0625 0.023437 0.12109 0.058593 0.17578 0.10156 0.50391 0.80078 0.78516 1.7227 0.8125 2.668 0.007812 0.21484 0.17578 0.38281 0.39062 0.39062 0.10547 0 0.20312-0.042969 0.27734-0.11328 0.070313-0.074219 0.11328-0.17188 0.11328-0.27734-0.14844-1.3789-0.41016-2.9648-1.6641-3.7812z"/>
 </g>
</svg>
