<?xml version="1.0" encoding="UTF-8"?>
<svg version="1.1" xmlns="http://www.w3.org/2000/svg" width="512" height="512">
<path d="M0 0 C1.01023224 0.00060425 2.02046448 0.0012085 3.06130981 0.00183105 C19.69868046 0.02873352 36.18880855 0.46027357 52.75 2.1875 C53.98637207 2.31640625 55.22274414 2.4453125 56.49658203 2.578125 C106.2075158 7.97999228 162.3177875 19.11532178 201.75 52.1875 C202.41 52.703125 203.07 53.21875 203.75 53.75 C217.62831506 65.02613098 224.78911069 79.95703095 227.03515625 97.40234375 C227.78353215 112.79285687 219.8535198 126.97356252 209.875 138.01171875 C203.05103436 145.17382847 195.31942306 150.95303852 186.4375 155.25 C183.6192458 156.91119969 182.06688651 158.02262296 181.19238281 161.23730469 C180.43009638 166.56020449 180.50610288 171.82743546 180.75 177.1875 C181.31952393 177.02741455 181.88904785 176.8673291 182.47583008 176.70239258 C204.65222266 171.68145732 229.34060648 180.48239174 248.0625 191.9375 C255.39007824 196.58200488 261.61369785 202.06999204 267.75 208.1875 C268.61496094 209.03828125 269.47992188 209.8890625 270.37109375 210.765625 C279.35585183 219.91266935 288.15059267 232.74471978 288.04296875 245.9609375 C287.60946619 249.25555697 286.12450458 250.95267216 283.75 253.1875 C280.60154494 254.76172753 277.15781928 254.85678343 273.75 254.1875 C268.859868 251.20330454 267.08915945 247.45913377 264.8125 242.4375 C261.98006174 236.51223047 259.16985627 231.10961267 254.75 226.1875 C254.15703125 225.52621094 253.5640625 224.86492187 252.953125 224.18359375 C241.21866047 211.81546813 225.21837196 203.24725186 208.75 199.1875 C207.57630859 198.89746094 207.57630859 198.89746094 206.37890625 198.6015625 C202.85554365 198.0466198 199.3696376 198.00330282 195.8125 198 C195.12220703 197.98775391 194.43191406 197.97550781 193.72070312 197.96289062 C189.30639816 197.9503381 185.87831209 198.7109344 181.75 200.1875 C181.40126958 205.00649451 181.14886954 209.81804437 180.98095703 214.64672852 C180.9109523 216.28409713 180.81568752 217.92060252 180.69384766 219.55493164 C179.75768172 228.65802039 179.75768172 228.65802039 183.05953979 236.76525879 C186.88119449 239.97911001 191.28203627 242.0214873 195.75 244.1875 C211.22869043 254.80150766 222.59115453 269.67797962 226.28125 288.23828125 C228.36368663 301.34027837 224.67916731 314.82411033 217.046875 325.58984375 C215.32844912 327.83500452 213.56445852 330.01937584 211.75 332.1875 C210.6053125 333.63769531 210.6053125 333.63769531 209.4375 335.1171875 C206.70491118 338.38557804 203.61720663 340.97042 200.25 343.5625 C199.33033447 344.27466675 199.33033447 344.27466675 198.39208984 345.0012207 C154.61795759 378.36338704 94.50094321 389.50240208 40.75 393.1875 C39.56639893 393.27362549 38.38279785 393.35975098 37.16333008 393.44848633 C25.25633897 394.26603055 13.36931876 394.3882313 1.4375 394.375 C-0.08026535 394.37409363 -0.08026535 394.37409363 -1.62869263 394.37316895 C-17.91644815 394.34685671 -34.04164137 393.92977427 -50.25 392.1875 C-51.4654248 392.05859375 -52.68084961 391.9296875 -53.93310547 391.796875 C-107.68139504 385.89842178 -174.87522402 373.64850313 -212.25 330.1875 C-222.75343943 316.33431503 -225.25334959 303.12552747 -224.25 286.1875 C-223.70775014 282.55718313 -222.77614287 279.51726627 -221.25 276.1875 C-220.8478125 275.300625 -220.445625 274.41375 -220.03125 273.5 C-216.46868996 266.37487991 -211.78366897 260.86305792 -206.25 255.1875 C-205.58871094 254.4759375 -204.92742187 253.764375 -204.24609375 253.03125 C-199.31078012 247.84667811 -193.1712158 241.87481109 -186.28355408 239.51327515 C-183.60435869 238.39240991 -182.14515621 237.41435666 -180.25 235.1875 C-178.90137603 229.64049846 -178.95127005 224.11147338 -178.94140625 218.42578125 C-178.91821853 216.75292623 -178.89369705 215.08008922 -178.86790466 213.40727234 C-178.82454691 209.90070472 -178.81368111 206.39572192 -178.82250977 202.88891602 C-178.82889948 198.41459592 -178.73030883 193.94952701 -178.60353184 189.47726154 C-178.52164781 186.02020126 -178.50905951 182.56533373 -178.51533318 179.10741234 C-178.50778675 177.4602707 -178.47630534 175.81304445 -178.41952705 174.1668644 C-177.96224553 165.25807071 -177.96224553 165.25807071 -181.71760178 157.54803085 C-185.319522 154.5440425 -189.2745011 152.36466146 -193.42725945 150.2222805 C-197.93756447 147.66175389 -201.55320388 143.77616314 -205.25 140.1875 C-205.88292969 139.61644531 -206.51585937 139.04539063 -207.16796875 138.45703125 C-215.79941515 130.43531175 -223.37040577 118.16513168 -224.42700195 106.1796875 C-224.97661258 87.19074967 -220.79491624 73.87233578 -207.69140625 59.70703125 C-206.88574219 58.87558594 -206.08007812 58.04414062 -205.25 57.1875 C-204.73928955 56.64327393 -204.2285791 56.09904785 -203.70239258 55.53833008 C-199.44914305 51.11021462 -194.94475144 47.60464705 -189.8125 44.25 C-189.02609131 43.73276367 -188.23968262 43.21552734 -187.42944336 42.68261719 C-179.980394 37.87079031 -172.32053634 33.84222645 -164.25 30.1875 C-163.1983667 29.70120117 -163.1983667 29.70120117 -162.12548828 29.20507812 C-124.16815706 11.79205696 -80.76382755 4.01682364 -39.25 1.1875 C-38.06422363 1.10137451 -36.87844727 1.01524902 -35.65673828 0.92651367 C-23.7726135 0.11098708 -11.9089076 -0.01322981 0 0 Z M-188.25 70.1875 C-189.37535156 71.2084375 -189.37535156 71.2084375 -190.5234375 72.25 C-197.29003828 78.68959033 -202.55682775 85.76356647 -203.5859375 95.30078125 C-203.74866531 108.62818889 -198.50044194 116.8140528 -189.5 126.25 C-139.08817338 174.95616332 -47.04032954 177.28498003 18.51416016 176.29248047 C77.11680481 175.22021548 153.68525226 165.19994131 196.328125 121.078125 C202.28714596 113.96574515 206.38621352 105.62466717 205.75 96.1875 C203.3761415 81.69800521 192.29065978 70.70192194 180.79638672 62.41577148 C130.50256684 28.02759429 61.27459478 20.97377125 2 20.9375 C0.99821716 20.93682526 -0.00356567 20.93615051 -1.03570557 20.93545532 C-61.88202049 20.99992265 -141.25668471 27.32714729 -188.25 70.1875 Z M-158.25 169.1875 C-158.39541967 173.41630411 -158.48411527 177.64446413 -158.5625 181.875 C-158.60439453 183.07318359 -158.64628906 184.27136719 -158.68945312 185.50585938 C-158.92134455 192.36490277 -158.92134455 192.36490277 -155.99609375 198.3359375 C-154.63677734 199.25246094 -154.63677734 199.25246094 -153.25 200.1875 C-152.22132813 200.97447266 -152.22132813 200.97447266 -151.171875 201.77734375 C-114.7340884 224.38712141 -60.00852158 226.27796265 -18.484375 226.390625 C-17.75850441 226.39345238 -17.03263382 226.39627975 -16.28476715 226.39919281 C-12.42535566 226.4140583 -8.56598016 226.42336107 -4.70654297 226.42773438 C-1.60453193 226.4320678 1.49719291 226.44577581 4.59912109 226.46875 C21.63530489 226.59216908 38.52812208 226.30390505 55.5078125 224.81640625 C56.21192513 224.75499199 56.91603775 224.69357773 57.64148712 224.63030243 C107.98805361 220.56382979 107.98805361 220.56382979 153.75 201.1875 C155.34328125 200.28644531 155.34328125 200.28644531 156.96875 199.3671875 C159.27823917 197.41046645 159.71766696 196.37885043 160.22998047 193.34692383 C160.34144631 189.83831828 160.2721543 186.3821775 160.125 182.875 C160.09792969 181.65748047 160.07085937 180.43996094 160.04296875 179.18554688 C159.97235341 176.18439502 159.87376972 173.18685288 159.75 170.1875 C155.92444024 170.85812656 152.41183836 171.9277911 148.75390625 173.2265625 C113.77261088 185.42246687 77.72930899 192.65246933 40.75 195.1875 C39.56567383 195.27362549 38.38134766 195.35975098 37.16113281 195.44848633 C25.27557562 196.26416715 13.41033777 196.38823262 1.5 196.375 C0.4901001 196.37439575 -0.5197998 196.3737915 -1.56030273 196.37316895 C-53.20179155 196.28963304 -104.90740726 189.57466826 -153.30249023 170.92431641 C-154.93723946 170.30582911 -156.59185694 169.74021435 -158.25 169.1875 Z M-158.25 222.1875 C-158.45416594 226.06171701 -158.57791537 229.93454592 -158.6875 233.8125 C-158.74615234 234.90691406 -158.80480469 236.00132812 -158.86523438 237.12890625 C-159.10810629 242.98438626 -159.10810629 242.98438626 -156.84741211 248.19433594 C-155.06288188 249.76621957 -153.30302903 250.99251326 -151.25 252.1875 C-150.36699219 252.744375 -149.48398438 253.30125 -148.57421875 253.875 C-122.97363442 266.61840198 -93.38284268 271.31586975 -65.17578125 273.99609375 C-64.49848969 274.06074829 -63.82119812 274.12540283 -63.12338257 274.1920166 C-59.82041291 274.50310044 -56.5178956 274.79397984 -53.2109375 275.06103516 C-47.00263351 275.6048465 -41.71813755 276.0818482 -36.25 279.1875 C-34.20021292 282.26218061 -34.24504214 284.04620092 -34.375 287.75 C-35.36444709 291.63711357 -36.10980804 292.77396403 -39.25 295.1875 C-74.808129 301.59267291 -126.33168368 286.32693764 -158.25 272.1875 C-158.39553599 276.08293877 -158.48415059 279.97767651 -158.5625 283.875 C-158.60439453 284.97779297 -158.64628906 286.08058594 -158.68945312 287.21679688 C-158.85944496 293.50022809 -158.85944496 293.50022809 -156.35546875 299.08203125 C-155.33066406 299.77683594 -154.30585938 300.47164063 -153.25 301.1875 C-152.53150879 301.67565186 -151.81301758 302.16380371 -151.07275391 302.66674805 C-145.15766043 306.47450874 -139.1091964 309.02437997 -132.4375 311.1875 C-130.89376709 311.69168457 -130.89376709 311.69168457 -129.31884766 312.20605469 C-111.66358731 317.76140779 -93.43190421 320.91919142 -75.125 323.4375 C-74.03300293 323.58864258 -72.94100586 323.73978516 -71.81591797 323.89550781 C-48.61503354 326.85960062 -25.37945401 327.56427737 -2.02216721 327.50535583 C0.22300637 327.49991394 2.46816939 327.49754785 4.71334839 327.4954834 C26.84463629 327.46378081 48.76796457 326.98298958 70.75 324.1875 C71.94496094 324.04296387 73.13992188 323.89842773 74.37109375 323.74951172 C119.58127219 319.34965188 119.58127219 319.34965188 158.37011719 298.43530273 C160.10593103 295.60769515 160.09563795 293.84747826 160.04296875 290.546875 C160.03330078 289.47695313 160.02363281 288.40703125 160.01367188 287.3046875 C159.9759668 285.63792969 159.9759668 285.63792969 159.9375 283.9375 C159.91719727 282.24753906 159.91719727 282.24753906 159.89648438 280.5234375 C159.86115645 277.74430736 159.8118252 274.96614637 159.75 272.1875 C158.56148438 272.69539063 157.37296875 273.20328125 156.1484375 273.7265625 C124.54765063 286.96433719 75.56001904 301.45791403 40.75 295.1875 C38.00453662 293.21040689 36.94138172 292.06560435 36.21875 288.75 C36.2290625 287.904375 36.239375 287.05875 36.25 286.1875 C36.23453125 284.9190625 36.23453125 284.9190625 36.21875 283.625 C36.94101289 280.31108793 38.09615275 279.28955458 40.75 277.1875 C44.10009766 276.4230957 44.10009766 276.4230957 48.0390625 276.05078125 C48.74495514 275.9779744 49.45084778 275.90516754 50.1781311 275.83015442 C51.64774925 275.67866668 53.11807109 275.5338648 54.58898926 275.39556885 C57.86505647 275.08013889 61.13068998 274.68436908 64.3984375 274.29296875 C65.65744873 274.1448877 66.91645996 273.99680664 68.21362305 273.84423828 C116.2262489 269.4097468 116.2262489 269.4097468 158.1862793 248.40161133 C161.30637727 243.98378642 160.57016962 238.93736349 160.25 233.75 C160.21390625 232.63689453 160.1778125 231.52378906 160.140625 230.37695312 C160.04677387 227.64353903 159.91565759 224.91734587 159.75 222.1875 C155.55934477 223.52174449 151.59122561 225.11814833 147.5625 226.875 C108.60574412 242.86147679 62.44739509 246.26843872 20.703125 246.390625 C19.20937572 246.39764721 17.71562674 246.40473403 16.22187805 246.41188049 C11.48124758 246.431259 6.7406661 246.4363136 2 246.4375 C0.78954576 246.43816278 0.78954576 246.43816278 -0.44536209 246.43883896 C-24.16410755 246.44565229 -47.69670724 246.29905037 -71.25 243.1875 C-72.65280673 243.0085906 -74.05563955 242.8298856 -75.45849609 242.65136719 C-102.88125223 239.10770534 -131.31167409 234.6944483 -156.25 222.1875 C-156.91 222.1875 -157.57 222.1875 -158.25 222.1875 Z M180.75 260.1875 C180.74589111 261.37714355 180.74178223 262.56678711 180.73754883 263.79248047 C180.71561756 268.24717302 180.66118475 272.70099976 180.59741211 277.15527344 C180.57435339 279.0754358 180.55986513 280.99572247 180.55444336 282.91601562 C180.47819157 305.48654586 180.47819157 305.48654586 171.5 314.75 C144.53329291 336.05269612 104.65779276 340.40310383 71.75 344.1875 C70.54214844 344.33848145 69.33429688 344.48946289 68.08984375 344.64501953 C23.13052002 350.12310748 -25.33487946 349.88242124 -70.25 344.1875 C-71.46913086 344.04296387 -72.68826172 343.89842773 -73.94433594 343.74951172 C-152.43964839 334.32631747 -152.43964839 334.32631747 -172.859375 311.37890625 C-173.23578125 310.84136719 -173.6121875 310.30382812 -174 309.75 C-174.38671875 309.21503906 -174.7734375 308.68007813 -175.171875 308.12890625 C-178.2610496 302.56615343 -178.57696691 297.26898223 -178.6640625 291.0703125 C-178.68342865 290.21315643 -178.7027948 289.35600037 -178.7227478 288.47286987 C-178.78221256 285.75284572 -178.82879569 283.03277848 -178.875 280.3125 C-178.9132103 278.46091972 -178.95226378 276.60935663 -178.9921875 274.7578125 C-179.08788664 270.23451575 -179.17203906 265.71113584 -179.25 261.1875 C-189.45808525 266.12266617 -197.95303535 275.76851583 -202.25 286.1875 C-204.42580633 292.71491899 -204.30230629 300.63445434 -201.625 307 C-187.85049593 333.39310569 -155.71729127 346.6475557 -128.88061523 355.3581543 C-87.13047304 368.39822496 -43.61313125 373.40574366 0 373.4375 C0.97200348 373.43850708 1.94400696 373.43951416 2.94546509 373.44055176 C66.01753744 373.39685301 145.43867278 366.01729848 193.625 320.875 C200.43602619 313.82775325 205.49766497 305.63064971 205.9140625 295.62109375 C204.98194432 281.79467407 195.63755164 271.96683988 185.75 263.1875 C184.09668227 262.16558109 182.43183317 261.16177664 180.75 260.1875 Z " fill="#e2e2e2" transform="translate(224.25,58.8125)"/>
<path d="M0 0 C5.21428476 5.0880309 8.30266705 8.4585806 8.86328125 15.88671875 C8.39468277 22.79854638 5.78125154 27.26816062 0.78125 31.88671875 C-34.50292219 59.35115548 -103.91581595 53.89927631 -145.77001953 48.93798828 C-161.2894513 46.92738314 -177.11193623 44.22878649 -191.38671875 37.57421875 C-192.22203125 37.19652344 -193.05734375 36.81882813 -193.91796875 36.4296875 C-200.64693082 33.0764214 -205.45976676 28.34783306 -208.88671875 21.63671875 C-209.79641534 16.06482712 -209.33649299 11.43723745 -206.76171875 6.38671875 C-190.26143996 -13.15308508 -158.64683504 -15.70310206 -134.8671875 -17.99609375 C-97.29920132 -21.15573389 -31.43494555 -26.55590744 0 0 Z M-186.38671875 15.57421875 C-168.19265571 30.92128904 -130.99916455 29.83795482 -108.38671875 30.57421875 C-107.15566406 30.61675781 -105.92460937 30.65929687 -104.65625 30.703125 C-75.73042095 31.17628469 -40.44662973 30.40601765 -14.38671875 16.57421875 C-48.83751209 -12.5569668 -149.90515103 -3.75933097 -186.38671875 15.57421875 Z " fill="#e2e2e2" transform="translate(325.38671875,141.42578125)"/>
<path d="M0 0 C4.00535091 2.44771444 5.66804391 3.92602443 7.0625 8.4375 C6.99013712 12.56218418 6.31762915 14.60081057 4 18 C1.28916453 20.1979747 -0.48957172 20.92397877 -3.9375 21.4375 C-7.8124426 20.88393677 -9.95425348 19.40826469 -13 17 C-14.73007568 13.53984865 -14.4835273 9.78327445 -14 6 C-10.46487045 0.14875108 -6.63949897 -0.67520329 0 0 Z " fill="#e2e2e2" transform="translate(229,336)"/>
</svg>
