<?xml version="1.0" encoding="UTF-8"?>
<svg version="1.1" xmlns="http://www.w3.org/2000/svg" width="512" height="512">
<path d="M0 0 C17.17782493 14.84373879 30.16124223 37.16395719 36.37109375 58.8984375 C85.21109375 58.8984375 134.05109375 58.8984375 184.37109375 58.8984375 C185.85609375 54.4434375 185.85609375 54.4434375 187.37109375 49.8984375 C188.55345953 47.28989216 189.75168976 44.75262482 191.05859375 42.2109375 C191.40672119 41.52813721 191.75484863 40.84533691 192.11352539 40.1418457 C193.18741332 38.05419984 194.27571792 35.97488043 195.37109375 33.8984375 C195.70302734 33.26647461 196.03496094 32.63451172 196.37695312 31.98339844 C200.87195607 23.51825816 206.10029693 16.14757292 212.37109375 8.8984375 C213.015625 8.063125 213.66015625 7.2278125 214.32421875 6.3671875 C222.44086404 -3.42235414 234.06240791 -10.1866961 246.37109375 -13.1015625 C261.65004776 -14.300828 274.30764312 -11.38718243 286.41796875 -1.65234375 C297.16012673 7.70065402 305.28124324 18.57256964 312.37109375 30.8984375 C313.00660156 31.96964844 313.64210938 33.04085937 314.296875 34.14453125 C341.53507833 82.23442531 350.39030871 145.25177341 350.57421875 199.9453125 C350.58123847 201.35762565 350.58832531 202.76993847 350.59547424 204.18225098 C350.61488082 208.67098443 350.61990795 213.15966633 350.62109375 217.6484375 C350.62175653 218.79414467 350.62175653 218.79414467 350.62243271 219.96299744 C350.62924745 242.40922119 350.44750953 264.61618308 347.37109375 286.8984375 C347.19710864 288.22126946 347.02378745 289.54418888 346.85107422 290.8671875 C340.07376591 342.10449744 327.24808364 405.14075803 285.66796875 440.234375 C273.24548002 449.23434132 261.47275499 452.36837764 246.37109375 450.8984375 C227.77639869 447.24082375 213.64555013 433.03920357 203.37109375 417.8984375 C184.37109375 388.0275818 184.37109375 388.0275818 184.37109375 378.8984375 C135.53109375 378.8984375 86.69109375 378.8984375 36.37109375 378.8984375 C34.88609375 383.3534375 34.88609375 383.3534375 33.37109375 387.8984375 C32.07414776 391.08201398 30.60503884 394.17295027 29.12109375 397.2734375 C28.72486816 398.10343262 28.32864258 398.93342773 27.92041016 399.78857422 C23.14207484 409.63559842 17.35899115 418.47787494 10.37109375 426.8984375 C9.35402344 428.1359375 9.35402344 428.1359375 8.31640625 429.3984375 C-0.54612465 439.74331343 -11.89955622 448.40448217 -25.62890625 450.8984375 C-41.67209012 451.81923834 -54.7266013 448.98246672 -67.21630859 438.10791016 C-77.24432219 428.99703468 -84.88266561 418.6269317 -91.62890625 406.8984375 C-92.26441406 405.82722656 -92.89992187 404.75601562 -93.5546875 403.65234375 C-120.81917686 355.51604088 -129.64730216 292.47413191 -129.83203125 237.75390625 C-129.8390532 236.34302235 -129.84614002 234.93213877 -129.85328674 233.52125549 C-129.87266861 229.04281145 -129.87771998 224.56441926 -129.87890625 220.0859375 C-129.87934811 219.32352249 -129.87978996 218.56110748 -129.88024521 217.77558899 C-129.88706303 195.35167035 -129.71782678 173.15718688 -126.62890625 150.8984375 C-126.44986755 149.55945134 -126.27116688 148.22041994 -126.09277344 146.88134766 C-119.31399387 96.69214987 -107.3639988 40.30633395 -70.62890625 2.8984375 C-70.00757813 2.26421875 -69.38625 1.63 -68.74609375 0.9765625 C-48.07643968 -18.56880076 -21.38982049 -17.09914327 0 0 Z M-65.6328125 22.30859375 C-95.44190313 60.98457631 -105.66817432 113.5449139 -110.62890625 160.8984375 C-110.71610931 161.70529999 -110.80331238 162.51216248 -110.89315796 163.34347534 C-112.66635676 180.20475703 -112.97360377 197.01417964 -112.94458008 213.94897461 C-112.93997223 216.85766159 -112.94680492 219.76592793 -112.96508789 222.67456055 C-113.37123274 287.98389707 -106.48558613 373.42960872 -58.62890625 422.96875 C-50.94979138 430.12147394 -42.11721917 434.30059095 -31.60546875 434.17578125 C-23.37888388 433.40926219 -16.73312691 429.22314078 -10.62890625 423.8984375 C-9.92121094 423.28484375 -9.21351563 422.67125 -8.484375 422.0390625 C3.92886285 410.47366402 12.21033625 394.52417657 18.37109375 378.8984375 C17.79559784 378.89257126 17.22010193 378.88670502 16.62716675 378.88066101 C10.62449663 378.81660914 4.6223568 378.73215918 -1.37988281 378.63598633 C-3.61841836 378.60278084 -5.85703674 378.57473534 -8.09570312 378.55200195 C-11.31806664 378.51837605 -14.53967399 378.46605478 -17.76171875 378.41015625 C-18.75881866 378.40376633 -19.75591858 378.3973764 -20.78323364 378.39079285 C-26.08007233 378.27931598 -30.14553423 378.04100039 -34.62890625 374.8984375 C-36.08520508 372.91918945 -36.08520508 372.91918945 -37.0859375 370.63671875 C-37.47160889 369.77763916 -37.85728027 368.91855957 -38.25463867 368.03344727 C-38.64627197 367.10201904 -39.03790527 366.17059082 -39.44140625 365.2109375 C-39.86591064 364.23632568 -40.29041504 363.26171387 -40.7277832 362.25756836 C-57.50912048 323.18418549 -68.12710416 282.81717556 -70.81640625 240.3359375 C-70.85946899 239.65648071 -70.90253174 238.97702393 -70.94689941 238.27697754 C-71.46987699 229.80823082 -71.76022452 221.38250859 -71.62890625 212.8984375 C-71.61819092 212.08109131 -71.60747559 211.26374512 -71.59643555 210.42163086 C-70.67394603 162.27951738 -59.09689256 114.51831423 -38.69140625 70.9609375 C-38.32611816 70.18000732 -37.96083008 69.39907715 -37.58447266 68.59448242 C-34.51592826 62.2517252 -34.51592826 62.2517252 -31.62890625 59.8984375 C-29.36994934 59.49971008 -29.36994934 59.49971008 -26.69848633 59.46606445 C-25.19726982 59.43637321 -25.19726982 59.43637321 -23.66572571 59.40608215 C-22.5875206 59.39969223 -21.50931549 59.39330231 -20.3984375 59.38671875 C-18.74010139 59.35979195 -18.74010139 59.35979195 -17.04826355 59.33232117 C-13.5126834 59.27808323 -9.97723929 59.24427858 -6.44140625 59.2109375 C-4.04620497 59.17777641 -1.65102168 59.1432879 0.74414062 59.10742188 C6.61966969 59.02234904 12.49521607 58.95405632 18.37109375 58.8984375 C16.97129424 55.88628198 15.56256934 52.87838038 14.15234375 49.87109375 C13.76079102 49.02824829 13.36923828 48.18540283 12.96582031 47.3170166 C5.03149518 30.44024993 -6.74151496 12.2754991 -24.62890625 4.8984375 C-41.28406837 -0.65328321 -55.3813546 10.24198838 -65.6328125 22.30859375 Z M231.37109375 13.8984375 C230.30955078 14.81882812 230.30955078 14.81882812 229.2265625 15.7578125 C217.99337914 26.22375567 210.60278853 40.03590354 204.37109375 53.8984375 C204.04399414 54.62562988 203.71689453 55.35282227 203.37988281 56.10205078 C187.36805781 92.39812434 179.73913294 133.52292444 176.37109375 172.8984375 C176.28424316 173.83018799 176.19739258 174.76193848 176.10791016 175.72192383 C174.99218764 189.52222951 175.12384029 203.37491132 175.12109375 217.2109375 C175.12079918 217.8908009 175.12050461 218.57066429 175.12020111 219.27112961 C175.11870863 240.61533656 175.43342848 261.71715826 178.37109375 282.8984375 C178.46819641 283.60478333 178.56529907 284.31112915 178.66534424 285.03887939 C184.91497485 330.10239675 194.27249771 382.82716652 225.37109375 417.8984375 C226.00660156 418.61644531 226.64210938 419.33445312 227.296875 420.07421875 C234.69985432 427.95193822 243.6432465 433.78212126 254.62109375 434.2734375 C267.056975 433.95413785 275.4054229 426.91078809 283.8671875 418.3828125 C313.07618963 385.66873012 323.03240667 336.30845534 329.12109375 294.2109375 C329.22214417 293.52196381 329.32319458 292.83299011 329.42730713 292.12313843 C332.7173188 269.41038302 333.72597463 246.77143933 333.68676758 223.84790039 C333.68215973 220.93921341 333.68899242 218.03094707 333.70727539 215.12231445 C334.10825779 150.64311692 327.44226563 66.64354654 281.37109375 16.8984375 C273.59011272 9.45922724 265.87596603 3.90849478 254.87109375 3.3984375 C245.59405023 3.79097813 238.24400387 7.90320745 231.37109375 13.8984375 Z M-22.62890625 75.8984375 C-58.03013632 147.34455637 -64.03024751 229.26964486 -43.62890625 305.8984375 C-43.39977539 306.76629883 -43.17064453 307.63416016 -42.93457031 308.52832031 C-37.97024465 326.99503536 -30.52867498 344.5189463 -22.62890625 361.8984375 C-13.38890625 361.8984375 -4.14890625 361.8984375 5.37109375 361.8984375 C3.86546875 358.0415625 2.35984375 354.1846875 0.80859375 350.2109375 C-10.47557033 320.94395419 -18.11774253 291.98085129 -22.62890625 260.8984375 C-22.8302417 259.56208252 -22.8302417 259.56208252 -23.03564453 258.19873047 C-27.2428804 229.13862449 -25.78344884 197.84913471 -21.62890625 168.8984375 C-21.49500488 167.92068359 -21.36110352 166.94292969 -21.22314453 165.93554688 C-16.84570353 134.80000286 -6.88414064 104.7493018 5.37109375 75.8984375 C-3.86890625 75.8984375 -13.10890625 75.8984375 -22.62890625 75.8984375 Z M24.37109375 75.8984375 C7.432295 107.5802648 -1.55576969 142.49499786 -6.62890625 177.8984375 C-6.76022949 178.78096191 -6.89155273 179.66348633 -7.02685547 180.57275391 C-15.64881377 240.97483202 -3.07989028 306.37702144 23.37109375 360.8984375 C24.44138504 362.19389198 24.44138504 362.19389198 26.96313477 362.01196289 C28.08905029 362.00672607 29.21496582 362.00148926 30.375 361.99609375 C32.19741211 361.99125977 32.19741211 361.99125977 34.05664062 361.98632812 C35.33603516 361.97794922 36.61542969 361.96957031 37.93359375 361.9609375 C39.85848633 361.95416992 39.85848633 361.95416992 41.82226562 361.94726562 C45.00525397 361.93543295 48.18815137 361.91894818 51.37109375 361.8984375 C49.49316048 356.11012421 47.45152178 350.42110436 45.26269531 344.74365234 C13.59590389 262.35310819 12.17941633 167.912407 47.5625 86.2277832 C48.41811366 84.32211858 49.30332553 82.429815 50.19140625 80.5390625 C51.5070578 78.07612003 51.5070578 78.07612003 51.37109375 75.8984375 C42.46109375 75.8984375 33.55109375 75.8984375 24.37109375 75.8984375 Z M70.37109375 75.8984375 C49.96467566 117.08229947 38.68926097 162.94932518 37.37109375 208.8984375 C37.34917969 209.59437012 37.32726562 210.29030273 37.3046875 211.00732422 C35.88226892 263.64866516 48.63197571 314.29252077 70.37109375 361.8984375 C79.61109375 361.8984375 88.85109375 361.8984375 98.37109375 361.8984375 C96.86546875 358.0415625 95.35984375 354.1846875 93.80859375 350.2109375 C82.67089865 321.32384101 74.89683542 292.57039702 70.37109375 261.8984375 C70.23687012 260.99609375 70.10264648 260.09375 69.96435547 259.1640625 C61.25486311 196.83790622 74.14777167 133.24344488 98.37109375 75.8984375 C89.13109375 75.8984375 79.89109375 75.8984375 70.37109375 75.8984375 Z M117.37109375 75.8984375 C99.37340402 109.93043263 89.52923255 147.74139911 85.37109375 185.8984375 C85.27538086 186.76339844 85.17966797 187.62835938 85.08105469 188.51953125 C84.14620913 198.12934146 84.12759136 207.75191121 84.12109375 217.3984375 C84.12041901 218.30272491 84.11974426 219.20701233 84.11904907 220.13870239 C84.16373443 258.04148892 88.42215135 332.9494951 117.37109375 361.8984375 C119.37074357 361.98601753 121.37345485 362.00540326 123.375 361.99609375 C125.19741211 361.99125977 125.19741211 361.99125977 127.05664062 361.98632812 C128.33603516 361.97794922 129.61542969 361.96957031 130.93359375 361.9609375 C132.85848633 361.95416992 132.85848633 361.95416992 134.82226562 361.94726562 C138.00525397 361.93543295 141.18815137 361.91894818 144.37109375 361.8984375 C142.49328614 356.11051152 140.45201727 350.4218 138.26293945 344.74487305 C124.31171184 308.43946547 115.12946927 269.94170134 114.37109375 230.8984375 C114.35062988 230.0439502 114.33016602 229.18946289 114.30908203 228.30908203 C113.25212606 177.98574866 122.40137469 128.14389473 142.55834961 81.95947266 C143.53362803 79.61738673 143.53362803 79.61738673 144.37109375 75.8984375 C135.46109375 75.8984375 126.55109375 75.8984375 117.37109375 75.8984375 Z M163.37109375 75.8984375 C125.09136677 156.28586417 120.6042054 245.48245611 149.6953125 329.578125 C153.62709683 340.57898739 158.14366773 351.44358546 163.37109375 361.8984375 C168.32109375 361.8984375 173.27109375 361.8984375 178.37109375 361.8984375 C177.86320312 359.9596875 177.3553125 358.0209375 176.83203125 356.0234375 C165.15321374 310.98003488 158.91364983 266.08288712 159.05859375 219.4609375 C159.0607489 218.20084869 159.06290405 216.94075989 159.06512451 215.64248657 C159.18090723 173.23087534 163.88581777 132.10042995 174.56396484 91.01123047 C175.8679261 85.98234178 177.11554415 80.93960191 178.37109375 75.8984375 C173.42109375 75.8984375 168.47109375 75.8984375 163.37109375 75.8984375 Z " fill="#e2e2e2" transform="translate(145.62890625,37.1015625)"/>
<path d="M0 0 C16.89515042 12.58212787 22.17269114 37.18541826 25.125 56.9375 C25.56277872 60.12087276 25.95381098 63.3068103 26.3125 66.5 C26.44398438 67.66144531 26.57546875 68.82289063 26.7109375 70.01953125 C29.78729104 104.39986064 28.94645239 151.76766863 5.875 179.9375 C0.55247862 185.60865815 -4.37704604 188.12786278 -12.20703125 188.58984375 C-20.02284354 188.30675134 -25.49102521 184.0529897 -30.6875 178.5 C-32.97905433 175.64229695 -34.87844722 172.68268885 -36.6875 169.5 C-37.10644531 168.77039063 -37.52539062 168.04078125 -37.95703125 167.2890625 C-57.82393637 128.31208675 -55.25937912 69.81573025 -42.57617188 29.09326172 C-39.18163977 19.18756942 -34.42169964 9.71858633 -26.6875 2.5 C-25.8625 1.71625 -25.0375 0.9325 -24.1875 0.125 C-16.54725167 -4.84116141 -7.68091933 -4.71061492 0 0 Z M-12.6875 13.5 C-17.21721702 16.27299984 -19.42884679 19.96151532 -21.6875 24.625 C-22.02998779 25.32874756 -22.37247559 26.03249512 -22.7253418 26.75756836 C-40.36084632 64.45060312 -38.04298144 116.97454879 -24.3125 155.4375 C-21.7828328 161.73838885 -19.02369158 167.75937831 -12.8125 171 C-12.11125 171.165 -11.41 171.33 -10.6875 171.5 C-4.05509239 165.43608448 -0.25936899 158.45358387 2.4375 149.9375 C2.69047852 149.15157471 2.94345703 148.36564941 3.20410156 147.5559082 C14.9390236 110.10636506 15.8452506 58.0398026 -2.6875 22.5 C-5.51763858 18.39660078 -7.88405852 15.10114716 -12.6875 13.5 Z " fill="#e2e2e2" transform="translate(412.6875,165.5)"/>
</svg>
