<svg viewBox="0 0 48 48" width="64px" height="64px" fill="none" xmlns="http://www.w3.org/2000/svg"><g id="SVGRepo_bgCarrier" stroke-width="0"></g><g id="SVGRepo_tracerCarrier" stroke-linecap="round" stroke-linejoin="round"></g><g id="SVGRepo_iconCarrier"> <g id="print"> <g id="print_2"> <path id="Combined Shape" fill-rule="evenodd" clip-rule="evenodd" d="M14 16V17C14 17.5523 13.5523 18 13 18C12.4478 18 12 17.5523 12 17V16H7.00024C6.44737 16 6.00024 16.4474 6.00024 17V29C6.00024 29.5526 6.44737 30 7.00024 30H9.00024C9.55253 30 10.0002 30.4477 10.0002 31C10.0002 31.5523 9.55253 32 9.00024 32H7.00024C5.3425 32 4.00024 30.6568 4.00024 29V17C4.00024 15.3432 5.3425 14 7.00024 14H12V11C12 9.34318 13.3423 8 15 8H33C34.6578 8 36 9.34318 36 11V14H41.0002C42.658 14 44.0002 15.3432 44.0002 17V29C44.0002 30.6568 42.658 32 41.0002 32H36V30H41.0002C41.5531 30 42.0002 29.5526 42.0002 29V17C42.0002 16.4474 41.5531 16 41.0002 16H14ZM34 30H36V24C36 22.8957 35.1043 22 34 22H14C12.8958 22 12 22.8957 12 24V37C12 38.6568 13.3423 40 15 40H33C34.6578 40 36 38.6568 36 37V32H34V30ZM34 30H23.9102C23.358 30 22.9102 30.4477 22.9102 31C22.9102 31.5523 23.358 32 23.9102 32H34V37C34 37.5526 33.5529 38 33 38H15C14.4472 38 14 37.5526 14 37V24H34V30ZM14 14H34V11C34 10.4474 33.5529 10 33 10H15C14.4472 10 14 10.4474 14 11V14ZM17.0332 28.001H30.9672C31.5195 28.001 31.9672 27.5533 31.9672 27.001C31.9672 26.4487 31.5195 26.001 30.9672 26.001H17.0332C16.481 26.001 16.0332 26.4487 16.0332 27.001C16.0332 27.5533 16.481 28.001 17.0332 28.001ZM30.9672 36.001H17.0332C16.481 36.001 16.0332 35.5533 16.0332 35.001C16.0332 34.4487 16.481 34.001 17.0332 34.001H30.9672C31.5195 34.001 31.9672 34.4487 31.9672 35.001C31.9672 35.5533 31.5195 36.001 30.9672 36.001Z" fill="#ffffff"></path> </g> </g> </g></svg>