<?xml version="1.0" encoding="UTF-8"?>
<svg
  viewBox="0 0 235 500"
  preserveAspectRatio="xMinYMin meet"
  xmlns="http://www.w3.org/2000/svg">
  <path
    fill="#d90429"
    d="M0-63.27c34.925 0 63.27 28.345 63.27 63.27 0 34.925-28.345 63.27-63.27 63.27-34.925 0-63.27-28.345-63.27-63.27 0-34.925 28.345-63.27 63.27-63.27z"
    transform="matrix(.58757 0 0 3.94769 197.135 250.047)" />
  <path
    fill="#ef233c"
    d="M 38.499405 -65.244196 C 38.492933 -65.244196 38.487037 -65.238439 38.480567 -65.238379 L -30.060214 -65.238379 C -24.441657 -52.676289 -20.575458 -28.328491 -20.575458 -0.0023639694 C -20.575458 28.325864 -24.440974 52.676521 -30.060214 65.239468 L 38.499405 65.239468 C 44.926102 65.239468 50.141071 36.010765 50.141071 -0.0023639694 C 50.141071 -36.015493 44.926102 -65.244196 38.499405 -65.244196 z"
    transform="matrix(2.07364,0,0,3.3577,117.295,250.047)" />
  <path
    fill="#d90429"
    d="m 37.46094,0.2734375 c -20.52086,0 -37.1875,111.8926925 -37.1875,249.7656225 0,137.87293 16.66664,249.78516 37.1875,249.78516 20.52086,0 37.16797,-111.91223 37.16797,-249.78516 C 74.62891,112.16613 57.9818,0.2734375 37.46094,0.2734375 Z m 0,146.2304725 c 8.50631,0 15.41015,46.38406 15.41015,103.53515 0,57.1511 -6.90384,103.53516 -15.41015,103.53516 -8.50631,0 -15.41016,-46.38406 -15.41016,-103.53516 0,-57.15109 6.90385,-103.53515 15.41016,-103.53515 z" />
</svg>
