<?xml version="1.0" encoding="UTF-8"?>
<svg version="1.1" xmlns="http://www.w3.org/2000/svg" width="500" height="500">
<path d="M0 0 C4.74049055 2.87111319 9.5189178 5.6396484 14.375 8.31054688 C17.50233536 10.04481058 20.54352708 11.91326438 23.59423828 13.77758789 C26.69374513 15.60911467 29.83809125 17.3481253 32.98828125 19.09057617 C36.65255128 21.13117588 40.28007214 23.23357884 43.90673828 25.34008789 C44.70611816 25.80390869 45.50549805 26.26772949 46.32910156 26.74560547 C48.06799589 27.75512009 49.80659192 28.76514864 51.54492188 29.77563477 C53.47968891 30.90011475 55.41494164 32.0237593 57.35058594 33.14672852 C67.84487822 39.23582597 78.31790213 45.33275852 88.61767578 51.74633789 C92.17945688 53.90994131 95.8253074 55.88928038 99.49658203 57.85961914 C104.46420989 60.55126935 109.35257745 63.38117456 114.24755859 66.2019043 C116.64602615 67.57540959 119.0536917 68.93211481 121.46142578 70.28930664 C123.21415074 71.28518784 124.96675581 72.28128004 126.71923828 73.27758789 C127.99637695 73.99241333 127.99637695 73.99241333 129.29931641 74.72167969 C130.085 75.17067627 130.87068359 75.61967285 131.68017578 76.08227539 C132.38706543 76.48172363 133.09395508 76.88117188 133.82226562 77.29272461 C134.57564209 77.84210693 134.57564209 77.84210693 135.34423828 78.40258789 C135.34423828 79.06258789 135.34423828 79.72258789 135.34423828 80.40258789 C136.17955078 80.68102539 136.17955078 80.68102539 137.03173828 80.96508789 C143.17986855 84.7868986 146.56249242 92.61678982 148.34423828 99.40258789 C149.7508289 109.76968172 147.42794256 118.18354909 141.72314453 126.87133789 C136.76844615 133.09401285 130.42689184 136.57789842 123.51367188 140.23803711 C119.28838284 142.50616998 115.1328929 144.89878603 110.96923828 147.27758789 C110.07567627 147.78644531 109.18211426 148.29530273 108.26147461 148.81958008 C101.2624965 152.82552817 94.39986062 157.01914867 87.59423828 161.34399414 C84.34423828 163.40258789 84.34423828 163.40258789 81.40673828 164.86743164 C79.10280072 166.23825603 79.10280072 166.23825603 78.76220703 168.87524414 C79.54425056 172.27109759 80.75981761 172.96136951 83.65673828 174.84008789 C85.03732422 175.73920898 85.03732422 175.73920898 86.44580078 176.65649414 C90.01285928 178.80538248 93.63811786 180.8038312 97.31689453 182.75415039 C101.40534099 184.98037543 105.37887709 187.38567777 109.35888672 189.79785156 C113.56383778 192.34342832 117.79707521 194.83292108 122.05175781 197.29443359 C140.68942966 208.12321884 140.68942966 208.12321884 145.34423828 218.40258789 C145.82376953 219.3597168 145.82376953 219.3597168 146.31298828 220.33618164 C149.36340178 227.12900058 149.48809224 234.45286995 147.43017578 241.55883789 C146.23098518 244.62257645 144.88412197 247.49621225 143.34423828 250.40258789 C142.76222656 251.51633789 142.76222656 251.51633789 142.16845703 252.65258789 C138.12750463 259.05806043 131.57381235 261.9971724 125.09423828 265.44116211 C122.53395815 266.84774458 120.10099318 268.42969137 117.65673828 270.02758789 C113.28327064 272.85185344 108.81616453 275.38192317 104.23095703 277.84399414 C93.3174416 283.7364064 82.69517697 290.1456179 72.03387451 296.47784424 C63.51606656 301.53600517 54.97029014 306.53084454 46.34423828 311.40258789 C35.28148231 317.6571743 24.26284367 323.95157607 13.46826172 330.66162109 C9.24694947 333.27853245 4.96849827 335.7413166 0.61572266 338.1328125 C-1.66513427 339.40782721 -3.9089714 340.731316 -6.14794922 342.07836914 C-6.87240234 342.51342773 -7.59685547 342.94848633 -8.34326172 343.39672852 C-9.82742782 344.29120362 -11.30912673 345.18978281 -12.78857422 346.09204102 C-13.50529297 346.5206543 -14.22201172 346.94926758 -14.96044922 347.39086914 C-15.59966309 347.77799072 -16.23887695 348.1651123 -16.89746094 348.56396484 C-18.65576172 349.40258789 -18.65576172 349.40258789 -21.65576172 349.40258789 C-21.65576172 350.06258789 -21.65576172 350.72258789 -21.65576172 351.40258789 C-30.49278372 355.30127407 -39.57542846 355.38122604 -48.65576172 352.40258789 C-51.03443452 351.47729771 -53.33366757 350.46688104 -55.65576172 349.40258789 C-55.65576172 348.74258789 -55.65576172 348.08258789 -55.65576172 347.40258789 C-56.33767578 347.32137695 -57.01958984 347.24016602 -57.72216797 347.15649414 C-61.44428856 346.19994384 -64.37634204 344.36530788 -67.59326172 342.34008789 C-68.93490612 341.51456184 -70.27737283 340.69037091 -71.62060547 339.86743164 C-72.29591309 339.45219238 -72.9712207 339.03695313 -73.66699219 338.60913086 C-76.62972313 336.81170681 -79.6391335 335.10823547 -82.65576172 333.40258789 C-87.53149846 330.63527785 -92.35715608 327.80131973 -97.15576172 324.90258789 C-109.68930678 317.25843724 -109.68930678 317.25843724 -122.65576172 310.40258789 C-122.65576172 309.74258789 -122.65576172 309.08258789 -122.65576172 308.40258789 C-123.2400293 308.2756958 -123.82429688 308.14880371 -124.42626953 308.01806641 C-126.61336279 307.41429263 -128.33925872 306.63482659 -130.32763672 305.55493164 C-130.99150391 305.1972168 -131.65537109 304.83950195 -132.33935547 304.47094727 C-133.36222656 303.91117187 -133.36222656 303.91117187 -134.40576172 303.34008789 C-135.10314453 302.96303711 -135.80052734 302.58598633 -136.51904297 302.19750977 C-138.23344474 301.26985401 -139.94489833 300.33675335 -141.65576172 299.40258789 C-141.65576172 298.74258789 -141.65576172 298.08258789 -141.65576172 297.40258789 C-142.22673584 297.2857666 -142.79770996 297.16894531 -143.38598633 297.04858398 C-145.85521451 296.34582204 -147.75202108 295.35282786 -149.97216797 294.06665039 C-150.80965576 293.58470215 -151.64714355 293.10275391 -152.51000977 292.60620117 C-153.85059448 291.8247876 -153.85059448 291.8247876 -155.21826172 291.02758789 C-156.14485596 290.49246582 -157.0714502 289.95734375 -158.02612305 289.40600586 C-159.9530519 288.29240709 -161.87873838 287.17665599 -163.80322266 286.05883789 C-166.50359846 284.49093739 -169.20775638 282.92982335 -171.91357422 281.37133789 C-186.76189996 272.81197083 -186.76189996 272.81197083 -193.12841797 268.91821289 C-195.18331438 267.68591025 -197.25142747 266.49888944 -199.33935547 265.32446289 C-209.09808415 259.77284654 -217.05614576 254.42228981 -220.99560547 243.37133789 C-223.14197136 233.71904156 -222.92929526 222.98147009 -217.65576172 214.40258789 C-210.47399975 203.90345185 -199.11435814 198.62231445 -188.16748047 192.78930664 C-185.11215 191.10246011 -182.20542254 189.23477463 -179.31201172 187.28540039 C-177.65576172 186.40258789 -177.65576172 186.40258789 -174.65576172 186.40258789 C-174.65576172 185.74258789 -174.65576172 185.08258789 -174.65576172 184.40258789 C-173.97771484 184.03907227 -173.29966797 183.67555664 -172.60107422 183.30102539 C-170.6502955 182.24728065 -168.70531825 181.18275064 -166.76513672 180.10961914 C-164.77078477 179.01472994 -162.76118054 177.94692555 -160.73388672 176.91430664 C-155.91544236 174.56620042 -155.91544236 174.56620042 -152.81201172 170.46899414 C-152.44296144 168.33840741 -152.44296144 168.33840741 -152.65576172 165.40258789 C-153.37401123 165.1325293 -154.09226074 164.8624707 -154.83227539 164.58422852 C-157.65367244 163.40346226 -160.19160512 162.03797821 -162.83154297 160.49633789 C-163.81678955 159.92206055 -164.80203613 159.3477832 -165.81713867 158.75610352 C-166.85700928 158.14444336 -167.89687988 157.5327832 -168.96826172 156.90258789 C-170.03971436 156.27545898 -171.11116699 155.64833008 -172.21508789 155.00219727 C-179.01282191 151.00671113 -185.73570671 146.91224503 -192.38891602 142.68115234 C-196.11246912 140.32436691 -199.88206822 138.15164604 -203.78076172 136.09008789 C-213.63924984 130.74086339 -218.12148138 124.00542889 -221.65576172 113.40258789 C-222.60290319 102.48339982 -221.88002975 92.77538177 -214.64794922 83.95336914 C-211.81712143 81.04419741 -209.03585693 78.6559847 -205.65576172 76.40258789 C-204.66576172 76.40258789 -203.67576172 76.40258789 -202.65576172 76.40258789 C-202.65576172 75.74258789 -202.65576172 75.08258789 -202.65576172 74.40258789 C-202.02412109 74.06227539 -201.39248047 73.72196289 -200.74169922 73.37133789 C-193.65816682 69.53357394 -186.64575758 65.57951368 -179.66455078 61.55932617 C-178.2763752 60.75996109 -176.88766901 59.961517 -175.49853516 59.16381836 C-173.17467527 57.8289313 -170.85233643 56.49144517 -168.53076172 55.15258789 C-167.7425 54.69819336 -166.95423828 54.24379883 -166.14208984 53.77563477 C-161.76555153 51.24110937 -157.4197667 48.66350314 -153.10107422 46.03149414 C-152.19115723 45.47816406 -151.28124023 44.92483398 -150.34375 44.35473633 C-148.58068212 43.27928094 -146.82110013 42.19808544 -145.06542969 41.1105957 C-144.27023926 40.62558594 -143.47504883 40.14057617 -142.65576172 39.64086914 C-141.60388672 38.99178589 -141.60388672 38.99178589 -140.53076172 38.32958984 C-138.65576172 37.40258789 -138.65576172 37.40258789 -135.65576172 37.40258789 C-135.65576172 36.74258789 -135.65576172 36.08258789 -135.65576172 35.40258789 C-135.02412109 35.06227539 -134.39248047 34.72196289 -133.74169922 34.37133789 C-125.97849914 30.165339 -118.305586 25.81020149 -110.65576172 21.40258789 C-109.95451172 20.99911133 -109.25326172 20.59563477 -108.53076172 20.17993164 C-99.20507881 14.81109659 -89.91537892 9.38457317 -80.65576172 3.90258789 C-78.80683722 2.81138473 -76.95787905 1.72023861 -75.10888672 0.62915039 C-71.52660243 -1.48579965 -67.9553082 -3.61782499 -64.39013672 -5.76147461 C-62.72888359 -6.74879913 -61.06743444 -7.73579393 -59.40576172 -8.72241211 C-58.66841797 -9.17165039 -57.93107422 -9.62088867 -57.17138672 -10.08374023 C-35.40938554 -22.91622463 -19.29137594 -11.70025859 0 0 Z M-44.89404297 16.11352539 C-46.35898193 16.98436768 -46.35898193 16.98436768 -47.85351562 17.87280273 C-49.39531494 18.81567139 -49.39531494 18.81567139 -50.96826172 19.77758789 C-52.0347998 20.41519043 -53.10133789 21.05279297 -54.20019531 21.7097168 C-56.35431367 22.99804341 -58.50540097 24.29145252 -60.65332031 25.59008789 C-64.67665995 28.01887903 -68.72673244 30.40053036 -72.78076172 32.77758789 C-73.46106445 33.17896973 -74.14136719 33.58035156 -74.84228516 33.99389648 C-79.10923631 36.5097973 -83.40498946 38.96697183 -87.71826172 41.40258789 C-93.49090005 44.68038483 -99.12525701 48.14247112 -104.71264648 51.72680664 C-109.26779262 54.62374334 -113.94511204 57.22344859 -118.69506836 59.78686523 C-123.94258021 62.65056058 -129.10738 65.65767495 -134.28076172 68.65258789 C-135.43527768 69.31970482 -136.58981903 69.98677782 -137.74438477 70.65380859 C-144.6585446 74.65330462 -151.55352411 78.68347657 -158.42871094 82.74951172 C-165.11819617 86.69609365 -171.86507994 90.54147467 -178.6159668 94.38183594 C-180.26346718 95.31946465 -181.90927371 96.26007899 -183.55297852 97.2043457 C-185.25247592 98.17278101 -186.96923597 99.11088353 -188.69091797 100.03930664 C-191.01339565 101.36653133 -191.01339565 101.36653133 -191.84326172 104.77758789 C-192.02556616 108.51558013 -192.02556616 108.51558013 -189.40576172 110.96508789 C-185.792814 113.51637216 -181.86832454 115.54765302 -177.96435547 117.61352539 C-174.05708995 119.72630887 -170.23030454 121.95692982 -166.40576172 124.21508789 C-165.67921387 124.64378174 -164.95266602 125.07247559 -164.20410156 125.51416016 C-159.44506734 128.32928199 -154.70415378 131.17376614 -149.96826172 134.02758789 C-144.16407919 137.52390966 -138.30496816 140.91448764 -132.41357422 144.26196289 C-113.931766 154.76948692 -95.58905147 165.53385352 -77.28076172 176.34008789 C-69.78651157 180.76100707 -62.25422457 185.11581724 -54.71826172 189.46508789 C-54.13288635 189.80313446 -53.54751099 190.14118103 -52.94439697 190.48947144 C-51.27698067 191.45210625 -49.60896162 192.4136968 -47.94091797 193.37524414 C-46.97033447 193.93477783 -45.99975098 194.49431152 -44.99975586 195.07080078 C-40.8084713 197.45216286 -37.45992005 198.01985204 -32.65576172 197.40258789 C-29.89064334 196.37965392 -27.47249591 194.94718854 -24.96826172 193.40258789 C-24.27619629 192.99468018 -23.58413086 192.58677246 -22.87109375 192.16650391 C-20.78700023 190.93103335 -18.71958035 189.67158134 -16.65576172 188.40258789 C-15.77815186 187.86674072 -15.77815186 187.86674072 -14.8828125 187.32006836 C-12.19786613 185.67878535 -9.52218647 184.02332173 -6.85107422 182.35961914 C-2.99923727 180.00048673 0.91419015 177.76255307 4.84399414 175.53637695 C9.4338542 172.93296665 13.98784016 170.27283217 18.53173828 167.59008789 C31.28400479 160.0683336 44.10714022 152.67225819 56.96923828 145.34008789 C69.09954094 138.41883728 81.20360033 131.48683027 92.94189453 123.91430664 C95.87921025 122.06594699 98.88935146 120.39008051 101.93408203 118.72680664 C104.92139596 117.08547856 107.88630894 115.40882547 110.84423828 113.71508789 C111.86517578 113.1337207 112.88611328 112.55235352 113.93798828 111.95336914 C116.44412357 110.62744352 116.44412357 110.62744352 117.34423828 108.40258789 C117.81317558 105.46065692 117.81317558 105.46065692 117.34423828 102.40258789 C115.43962783 100.42523608 115.43962783 100.42523608 112.71923828 99.02758789 C111.72537109 98.45008789 110.73150391 97.87258789 109.70751953 97.27758789 C108.59763672 96.65883789 107.48775391 96.04008789 106.34423828 95.40258789 C105.10679286 94.67642627 103.8711569 93.94717368 102.63720703 93.21508789 C101.39444649 92.48467937 100.15096689 91.75549279 98.90673828 91.02758789 C98.31618652 90.68163574 97.72563477 90.33568359 97.1171875 89.97924805 C94.24060278 88.33560293 91.62825517 86.96740652 88.34423828 86.40258789 C88.34423828 85.74258789 88.34423828 85.08258789 88.34423828 84.40258789 C87.51859375 83.96172852 87.51859375 83.96172852 86.67626953 83.51196289 C71.47708272 75.3114714 56.57726969 66.56168333 41.67114258 57.84399414 C36.2544668 54.67776473 30.83121555 51.52347174 25.39501953 48.39086914 C24.81510757 48.05669479 24.23519562 47.72252045 23.63771057 47.3782196 C20.84198408 45.76781253 18.04532884 44.15903674 15.24780273 42.55175781 C9.74691803 39.38642967 4.27545267 36.18081503 -1.15917969 32.90307617 C-6.62278941 29.61935376 -12.12578478 26.40130198 -17.62060547 23.17016602 C-18.54228516 22.62682617 -19.46396484 22.08348633 -20.41357422 21.52368164 C-21.30592773 21.00016113 -22.19828125 20.47664063 -23.11767578 19.93725586 C-26.05782717 18.15947675 -28.89600628 16.25209836 -31.70214844 14.27001953 C-36.6297093 12.08211354 -40.51202239 13.46726936 -44.89404297 16.11352539 Z M-132.28076172 193.40258789 C-133.73639526 194.28865723 -133.73639526 194.28865723 -135.22143555 195.19262695 C-138.04261594 196.91405703 -140.85075855 198.65495458 -143.65576172 200.40258789 C-145.66641165 201.64625271 -147.67798751 202.88838841 -149.69042969 204.12915039 C-151.22942252 205.08209839 -152.76125612 206.04658171 -154.29248047 207.01196289 C-156.65576172 208.40258789 -156.65576172 208.40258789 -159.65576172 209.40258789 C-159.65576172 210.06258789 -159.65576172 210.72258789 -159.65576172 211.40258789 C-160.21730957 211.5143335 -160.77885742 211.6260791 -161.35742188 211.74121094 C-163.98881343 212.49842782 -166.05575273 213.61940974 -168.42919922 214.98461914 C-169.33669922 215.50475586 -170.24419922 216.02489258 -171.17919922 216.56079102 C-172.12021484 217.10670898 -173.06123047 217.65262695 -174.03076172 218.21508789 C-175.43068359 219.0165625 -175.43068359 219.0165625 -176.85888672 219.83422852 C-178.66611808 220.87479445 -180.46689194 221.9266757 -182.26025391 222.9909668 C-183.69603992 223.83704453 -185.14624172 224.66025436 -186.62158203 225.43530273 C-188.47864141 226.40580315 -188.47864141 226.40580315 -190.65576172 228.40258789 C-191.6292695 232.03916099 -191.6292695 232.03916099 -191.65576172 235.40258789 C-179.47280708 243.45474576 -179.47280708 243.45474576 -166.79248047 250.67993164 C-162.3365404 253.12709175 -158.00473974 255.7711497 -153.65576172 258.40258789 C-147.58081054 262.07577528 -141.49069858 265.64534449 -135.22216797 268.98071289 C-132.13563567 270.69075514 -129.15164734 272.53848128 -126.15576172 274.40258789 C-121.3520613 277.39004822 -116.49414726 280.18090041 -111.51123047 282.85571289 C-96.05137796 291.23068087 -80.93019412 300.30785777 -65.98291016 309.56005859 C-61.61265046 312.25377008 -57.18193279 314.79139327 -52.68212891 317.26220703 C-50.22779029 318.64343784 -47.88509831 320.1708027 -45.53076172 321.71508789 C-41.29823558 324.22855726 -38.65358058 325.38430231 -33.65576172 324.40258789 C-30.20865086 322.92525466 -26.92210054 321.24277878 -23.65576172 319.40258789 C-23.65576172 318.74258789 -23.65576172 318.08258789 -23.65576172 317.40258789 C-22.66576172 317.40258789 -21.67576172 317.40258789 -20.65576172 317.40258789 C-20.65576172 316.74258789 -20.65576172 316.08258789 -20.65576172 315.40258789 C-20.08116211 315.28359131 -19.5065625 315.16459473 -18.91455078 315.04199219 C-16.51061858 314.36150165 -14.67576026 313.42179973 -12.51513672 312.17211914 C-11.70399414 311.70596191 -10.89285156 311.23980469 -10.05712891 310.75952148 C-9.18217773 310.2498584 -8.30722656 309.74019531 -7.40576172 309.21508789 C-6.48698242 308.6847998 -5.56820312 308.15451172 -4.62158203 307.6081543 C-1.62961563 305.87869104 1.35769643 304.14139985 4.34423828 302.40258789 C5.85824219 301.52304443 5.85824219 301.52304443 7.40283203 300.62573242 C17.89539836 294.52901673 28.3675603 288.39779181 38.82250977 282.23681641 C48.00186084 276.83103936 57.20974063 271.47394522 66.4140625 266.11083984 C68.41621692 264.94361151 70.41781988 263.77543688 72.41894531 262.60644531 C76.97484951 259.94540116 81.53252129 257.2883381 86.10986328 254.66430664 C102.62244385 246.25101493 102.62244385 246.25101493 117.34423828 235.40258789 C117.84518851 232.52952561 117.84518851 232.52952561 117.34423828 229.40258789 C111.76635511 223.45284584 102.95993365 219.7100669 95.84814453 215.78930664 C86.86535425 210.81443839 78.01829959 205.63152638 69.21923828 200.34008789 C68.36072266 199.82599365 67.50220703 199.31189941 66.61767578 198.78222656 C62.94009237 196.57800678 59.27050041 194.36745383 55.64501953 192.07836914 C51.64896697 189.60653236 48.32069204 187.62144821 43.71923828 186.59008789 C40.4749382 187.3711231 38.67505467 188.28288852 35.87939453 190.01586914 C30.09892359 193.55498668 24.25997766 196.98540034 18.40673828 200.40258789 C17.39933594 200.99297852 16.39193359 201.58336914 15.35400391 202.19165039 C8.74724871 206.04948558 2.08168008 209.77786246 -4.65576172 213.40258789 C-4.65576172 214.06258789 -4.65576172 214.72258789 -4.65576172 215.40258789 C-5.23608154 215.52641846 -5.81640137 215.65024902 -6.41430664 215.77783203 C-8.68721356 216.41135439 -10.46036774 217.25560011 -12.51904297 218.39868164 C-13.2415625 218.79249023 -13.96408203 219.18629883 -14.70849609 219.59204102 C-16.20437495 220.41820056 -17.69918482 221.24629888 -19.19287109 222.07641602 C-26.71710799 226.16901337 -34.07007555 228.87018462 -42.74169922 226.93774414 C-52.56406178 223.94139166 -61.42576219 218.68209113 -69.97216797 213.10571289 C-73.35468959 210.95901795 -76.84774687 209.08499756 -80.37841797 207.19555664 C-84.65748833 204.85456344 -88.87421471 202.41218461 -93.09326172 199.96508789 C-93.91665039 199.48998779 -94.74003906 199.0148877 -95.58837891 198.52539062 C-99.1895823 196.44212384 -102.77574633 194.34789635 -106.30029297 192.13696289 C-107.32509766 191.50274414 -108.34990234 190.86852539 -109.40576172 190.21508789 C-110.26685547 189.6646582 -111.12794922 189.11422852 -112.01513672 188.54711914 C-120.04379325 185.06724286 -125.54080112 189.18035221 -132.28076172 193.40258789 Z " fill="#2CD81A" transform="translate(286.65576171875,83.597412109375)"/>
<path d="M0 0 C6.64703335 3.11237562 12.92760445 6.68700468 19.19213867 10.4921875 C24.51452353 13.72294751 29.90122329 16.81730891 35.31640625 19.890625 C39.50762868 22.2790602 43.65923134 24.73385293 47.8125 27.1875 C53.49682712 30.54448613 59.20379997 33.83843635 65 37 C65 37.33 65 37.66 65 38 C63.35 38 61.7 38 60 38 C60 37.34 60 36.68 60 36 C59.195625 35.814375 59.195625 35.814375 58.375 35.625 C50.5651077 33.56976519 50.5651077 33.56976519 48.578125 31.56640625 C46.78718078 29.78876112 45.08464603 28.89270057 42.8125 27.8125 C42.09707031 27.46832031 41.38164062 27.12414062 40.64453125 26.76953125 C39.83048828 26.38861328 39.83048828 26.38861328 39 26 C39 25.34 39 24.68 39 24 C37.948125 23.9175 36.89625 23.835 35.8125 23.75 C31.71267873 22.94347778 29.92278322 21.92278322 27 19 C27 18.34 27 17.68 27 17 C24.03 16.34 21.06 15.68 18 15 C18 14.34 18 13.68 18 13 C12.20117118 8.76285994 5.61910231 5.71798887 -1 3 C-0.67 2.01 -0.34 1.02 0 0 Z " fill="#369A23" transform="translate(110,328)"/>
<path d="M0 0 C1.98 0 3.96 0 6 0 C6 0.66 6 1.32 6 2 C-21.19066503 17.04274434 -21.19066503 17.04274434 -32.15625 14.5 C-38.07969183 12.66456732 -43.52957745 9.88938811 -49 7 C-47.21484375 6.3828125 -47.21484375 6.3828125 -45 6 C-43.26435047 6.94671793 -41.52626538 7.89904432 -39.87890625 8.9921875 C-35.6998317 11.23377011 -31.33302 11.11354967 -26.6875 11.0625 C-25.61886719 11.05347656 -24.55023438 11.04445313 -23.44921875 11.03515625 C-22.23685547 11.01775391 -22.23685547 11.01775391 -21 11 C-21.99 10.01 -22.98 9.02 -24 8 C-23.01 7.67 -22.02 7.34 -21 7 C-20.34 7.33 -19.68 7.66 -19 8 C-19 8.66 -19 9.32 -19 10 C-13.90425932 9.630322 -13.90425932 9.630322 -9.625 7.0625 C-7.96507134 5.09868733 -7.96507134 5.09868733 -7 3 C-4.67843403 2.59270772 -2.3431213 2.25561323 0 2 C0 1.34 0 0.68 0 0 Z " fill="#319F20" transform="translate(276,297)"/>
<path d="M0 0 C0.66 0 1.32 0 2 0 C0.68912701 3.93261897 -0.79335089 4.3152403 -4.36328125 6.328125 C-5.47896484 6.96363281 -6.59464844 7.59914063 -7.74414062 8.25390625 C-8.9334276 8.91956777 -10.12288143 9.58493126 -11.3125 10.25 C-13.6004095 11.54661197 -15.88817061 12.84348582 -18.17578125 14.140625 C-19.30193848 14.77548828 -20.4280957 15.41035156 -21.58837891 16.06445312 C-26.7537509 18.99497189 -31.87881342 21.99295775 -37 25 C-37.66 24.34 -38.32 23.68 -39 23 C-37.49736177 19.99472353 -35.08347159 20.02782386 -32 19 C-31.67 18.34 -31.34 17.68 -31 17 C-29.68 17 -28.36 17 -27 17 C-27 16.34 -27 15.68 -27 15 C-26.01 15 -25.02 15 -24 15 C-24 14.34 -24 13.68 -24 13 C-23.071875 12.773125 -22.14375 12.54625 -21.1875 12.3125 C-17.44866356 10.77297911 -16.79760571 9.50533113 -15 6 C-12.29120665 4.64560332 -9.99066732 4.93498549 -7 5 C-6.67 4.34 -6.34 3.68 -6 3 C-2.9375 2.375 -2.9375 2.375 0 2 C0 1.34 0 0.68 0 0 Z " fill="#33A71F" transform="translate(363,374)"/>
<path d="M0 0 C0.66 0.33 1.32 0.66 2 1 C0.87224426 4.38326722 -0.35703248 5.66796984 -3 8 C-3.99 8.33 -4.98 8.66 -6 9 C-6.33 9.99 -6.66 10.98 -7 12 C-7.66 12 -8.32 12 -9 12 C-9.13277344 12.78246094 -9.26554687 13.56492187 -9.40234375 14.37109375 C-9.57894531 15.38300781 -9.75554687 16.39492188 -9.9375 17.4375 C-10.11152344 18.44683594 -10.28554687 19.45617187 -10.46484375 20.49609375 C-11 23 -11 23 -12 24 C-12.366142 30.73055151 -12.02358943 37.3466687 -11 44 C-13 43 -13 43 -14.1015625 40.421875 C-16.36410009 31.80455794 -16.24111196 21.36894146 -12.41015625 13.25390625 C-9.133377 8.01650563 -5.14476838 3.42984558 0 0 Z " fill="#3AA12A" transform="translate(80,287)"/>
<path d="M0 0 C4.18275044 1.51174314 7.85554601 3.61351002 11.625 5.9375 C17.70726673 9.63831356 23.83445637 13.25212412 30 16.8125 C30.78842285 17.26810303 31.5768457 17.72370605 32.38916016 18.19311523 C36.91923208 20.80750665 41.45692689 23.40827345 46 26 C44.02 26.99 44.02 26.99 42 28 C41.505 26.515 41.505 26.515 41 25 C39.68 25 38.36 25 37 25 C37 24.34 37 23.68 37 23 C36.13375 22.7525 35.2675 22.505 34.375 22.25 C30.81207132 20.93039678 28.13861233 19.11515179 25 17 C22.77397385 16.23060319 22.77397385 16.23060319 21 16 C21 15.34 21 14.68 21 14 C20.34 14 19.68 14 19 14 C19 13.34 19 12.68 19 12 C18.15695313 11.79503906 17.31390625 11.59007812 16.4453125 11.37890625 C15.34960938 11.10949219 14.25390625 10.84007812 13.125 10.5625 C12.03445312 10.29566406 10.94390625 10.02882812 9.8203125 9.75390625 C7 9 7 9 5 8 C5 6.68 5 5.36 5 4 C4.360625 3.896875 3.72125 3.79375 3.0625 3.6875 C2.381875 3.460625 1.70125 3.23375 1 3 C0.67 2.01 0.34 1.02 0 0 Z " fill="#339722" transform="translate(119,207)"/>
<path d="M0 0 C-3 1 -3 1 -6.375 -0.4375 C-11.19935847 -2.41191337 -15.70498749 -2.19473411 -20.8515625 -2.0078125 C-24.02025572 -1.99994974 -26.89537362 -2.39399185 -30 -3 C-30 -1.35 -30 0.3 -30 2 C-30.66 2 -31.32 2 -32 2 C-32.185625 1.071875 -32.185625 1.071875 -32.375 0.125 C-32.87197356 -2.19120832 -32.87197356 -2.19120832 -35 -4 C-21.63962746 -8.51618227 -12.25243479 -6.58001128 0 0 Z " fill="#33B71F" transform="translate(271,74)"/>
<path d="M0 0 C2.97 0.495 2.97 0.495 6 1 C1.90930705 4.48229243 -2.42767539 7.14228607 -7.0625 9.8125 C-8.18217163 10.4629126 -8.18217163 10.4629126 -9.32446289 11.12646484 C-10.83305009 12.00279436 -12.34240025 12.87781187 -13.85253906 13.75146484 C-15.81287345 14.8912045 -17.7639392 16.04469994 -19.7109375 17.20703125 C-20.77570313 17.83996094 -21.84046875 18.47289062 -22.9375 19.125 C-23.87464844 19.68445313 -24.81179688 20.24390625 -25.77734375 20.8203125 C-28 22 -28 22 -30 22 C-29.34 20.35 -28.68 18.7 -28 17 C-26.02 17 -24.04 17 -22 17 C-22 16.01 -22 15.02 -22 14 C-20.02 13.67 -18.04 13.34 -16 13 C-16.33 12.01 -16.66 11.02 -17 10 C-16.37351562 9.80664062 -15.74703125 9.61328125 -15.1015625 9.4140625 C-14.28429687 9.15367187 -13.46703125 8.89328125 -12.625 8.625 C-11.81289063 8.36976563 -11.00078125 8.11453125 -10.1640625 7.8515625 C-7.83540815 7.10145717 -7.83540815 7.10145717 -6 5 C-5.34 4.87625 -4.68 4.7525 -4 4.625 C-1.79734983 4.17876824 -1.79734983 4.17876824 -0.75 1.9375 C-0.5025 1.298125 -0.255 0.65875 0 0 Z " fill="#329C1F" transform="translate(412,217)"/>
<path d="M0 0 C6.92730034 3.25254734 13.40011387 7.02304416 19.88671875 11.078125 C23.20258818 13.12506071 26.56802055 15.03732174 29.98828125 16.90234375 C33.01864908 18.55580659 36.0067372 20.28046605 39 22 C37.02 22.99 37.02 22.99 35 24 C35 23.34 35 22.68 35 22 C32.69 21.34 30.38 20.68 28 20 C28 19.34 28 18.68 28 18 C27.37351562 17.90203125 26.74703125 17.8040625 26.1015625 17.703125 C25.28429687 17.55359375 24.46703125 17.4040625 23.625 17.25 C22.81289063 17.11078125 22.00078125 16.9715625 21.1640625 16.828125 C19 16 19 16 17.85546875 14.02734375 C17.57316406 13.35832031 17.29085938 12.68929687 17 12 C14.44866713 10.13821655 12.55965402 9.09555069 9.4375 8.5625 C6.28732021 7.83553543 5.1443227 6.35875497 3 4 C2.01 3.34 1.02 2.68 0 2 C0 1.34 0 0.68 0 0 Z " fill="#35A124" transform="translate(271,75)"/>
<path d="M0 0 C5.77294736 -0.46183579 8.39371468 0.57206674 13 4 C13.66 4 14.32 4 15 4 C15.5775 4.639375 16.155 5.27875 16.75 5.9375 C19.48382274 8.44350418 21.36785602 8.66980509 25 9 C25.33 8.34 25.66 7.68 26 7 C26.33 7.66 26.66 8.32 27 9 C31.62 9 36.24 9 41 9 C37.66356242 12.33643758 33.68933706 11.96664498 29.125 12.1875 C22.20904325 12.08211399 16.22207221 9.8517831 10 7 C10 6.34 10 5.68 10 5 C9.278125 4.9175 8.55625 4.835 7.8125 4.75 C4.44686746 3.85249799 2.58387184 2.2885722 0 0 Z " fill="#2B8E1B" transform="translate(221,426)"/>
<path d="M0 0 C4.571279 0.54855348 8.67435795 1.41744803 13 3 C13 2.34 13 1.68 13 1 C14.32 0.67 15.64 0.34 17 0 C16.34 2.31 15.68 4.62 15 7 C17.64 7.66 20.28 8.32 23 9 C23 9.99 23 10.98 23 12 C23.763125 12.28875 24.52625 12.5775 25.3125 12.875 C28 14 28 14 31 16 C28 17 28 17 24.62890625 15.375 C23.26733266 14.59387964 21.91218227 13.80149199 20.5625 13 C19.85544922 12.59007812 19.14839844 12.18015625 18.41992188 11.7578125 C16.97425201 10.91830719 15.53104867 10.07454015 14.09033203 9.2265625 C12.16079766 8.09435266 10.22220125 6.9806201 8.27734375 5.875 C2.1703204 2.38111298 2.1703204 2.38111298 0 1 C0 0.67 0 0.34 0 0 Z " fill="#34D71F" transform="translate(108,360)"/>
<path d="M0 0 C0.66 0.33 1.32 0.66 2 1 C-0.33333333 3.33333333 -2.66666667 5.66666667 -5 8 C-5.6496875 8.8353125 -5.6496875 8.8353125 -6.3125 9.6875 C-8 11 -8 11 -11.5625 11.5 C-13.2640625 11.7475 -13.2640625 11.7475 -15 12 C-15.99 13.485 -15.99 13.485 -17 15 C-18.32 15 -19.64 15 -21 15 C-21 15.99 -21 16.98 -21 18 C-22.98 17.67 -24.96 17.34 -27 17 C-24.32660422 13.90499342 -20.96847689 12.13463277 -17.4375 10.1875 C-16.18034019 9.48553674 -14.92383407 8.78240157 -13.66796875 8.078125 C-12.73863525 7.55702148 -12.73863525 7.55702148 -11.79052734 7.02539062 C-8.42718392 5.09928722 -5.15843662 3.01655315 -1.890625 0.93359375 C-0.95476562 0.47146484 -0.95476562 0.47146484 0 0 Z " fill="#33A720" transform="translate(330,362)"/>
<path d="M0 0 C0.72445312 0.39832031 1.44890625 0.79664063 2.1953125 1.20703125 C4.18807697 2.29906618 6.18431819 3.38477535 8.18359375 4.46484375 C10.20447508 5.56637823 12.20367652 6.70804501 14.1875 7.875 C18.91014282 9.76405713 23.13036456 9.62321181 28 8 C28.66 7.67 29.32 7.34 30 7 C30.33 7.99 30.66 8.98 31 10 C25.1658181 12.07437579 19.17534659 12.95241664 13 12 C12.34 11.01 11.68 10.02 11 9 C7.36829715 7.82215043 4.66538364 8.05747278 1 9 C1.020625 8.071875 1.04125 7.14375 1.0625 6.1875 C1.15769604 2.97713989 1.15769604 2.97713989 0 0 Z " fill="#30A21D" transform="translate(229,271)"/>
<path d="M0 0 C0 0.66 0 1.32 0 2 C-1.65 2.33 -3.3 2.66 -5 3 C-4.67 4.98 -4.34 6.96 -4 9 C-4.56589844 9.12117187 -5.13179687 9.24234375 -5.71484375 9.3671875 C-6.81505859 9.61855469 -6.81505859 9.61855469 -7.9375 9.875 C-9.03384766 10.11863281 -9.03384766 10.11863281 -10.15234375 10.3671875 C-12.20700294 10.82961523 -12.20700294 10.82961523 -13 13 C-15.50390625 13.4140625 -15.50390625 13.4140625 -18.5625 13.625 C-19.57441406 13.69976562 -20.58632812 13.77453125 -21.62890625 13.8515625 C-22.41136719 13.90054688 -23.19382812 13.94953125 -24 14 C-21.26738644 10.8086265 -17.74802264 9.00358425 -14.125 7 C-9.10911975 4.19934398 -9.10911975 4.19934398 -4.1796875 1.25 C-2 0 -2 0 0 0 Z " fill="#30AE1C" transform="translate(116,141)"/>
<path d="M0 0 C-2.36543716 2.36543716 -4.57067205 3.27541323 -7.625 4.625 C-8.62789062 5.07101562 -9.63078125 5.51703125 -10.6640625 5.9765625 C-11.82035156 6.48316406 -11.82035156 6.48316406 -13 7 C-13 7.99 -13 8.98 -13 10 C-15.31 9.67 -17.62 9.34 -20 9 C-20.33 9.99 -20.66 10.98 -21 12 C-23.50390625 12.94921875 -23.50390625 12.94921875 -26.5625 13.6875 C-28.08037109 14.06455078 -28.08037109 14.06455078 -29.62890625 14.44921875 C-30.41136719 14.63097656 -31.19382812 14.81273437 -32 15 C-30.59064756 12.18129512 -28.71598404 11.63598067 -25.9375 10.1875 C-21.69214187 7.94060695 -17.63867725 5.56588849 -13.65625 2.8828125 C-12 2 -12 2 -9 2 C-9 1.34 -9 0.68 -9 0 C-5.52176885 -1.15941038 -3.54104422 -0.70820884 0 0 Z " fill="#30971B" transform="translate(121,268)"/>
<path d="M0 0 C0 0.66 0 1.32 0 2 C0.99 2.66 1.98 3.32 3 4 C3 4.66 3 5.32 3 6 C3.886875 6.061875 4.77375 6.12375 5.6875 6.1875 C9.76156481 7.18679892 11.23588659 8.92876288 14 12 C14.66 12.33 15.32 12.66 16 13 C16 13.66 16 14.32 16 15 C10.97133405 13.58520713 7.15349411 11.37993259 2.875 8.5 C-2.39433396 4.96107623 -2.39433396 4.96107623 -8 2 C-8 1.34 -8 0.68 -8 0 C-4.94736336 -0.98120464 -3.05263664 -0.98120464 0 0 Z " fill="#35B921" transform="translate(93,219)"/>
<path d="M0 0 C-5.62534139 3.91690438 -11.3666914 7.39197219 -17.421875 10.60546875 C-20.055403 11.98207379 -20.055403 11.98207379 -22.640625 13.73828125 C-23.41921875 14.15464844 -24.1978125 14.57101563 -25 15 C-25.99 14.67 -26.98 14.34 -28 14 C-28 13.34 -28 12.68 -28 12 C-27.36191406 11.82984375 -26.72382813 11.6596875 -26.06640625 11.484375 C-24.82697266 11.12085938 -24.82697266 11.12085938 -23.5625 10.75 C-22.73878906 10.51796875 -21.91507813 10.2859375 -21.06640625 10.046875 C-20.38449219 9.70140625 -19.70257813 9.3559375 -19 9 C-18.65392044 7.66991811 -18.32034319 6.3365138 -18 5 C-16.14453125 4.05859375 -16.14453125 4.05859375 -13.8125 3.4375 C-10.79583851 2.56943048 -8.44713285 1.71332814 -5.625 0.25 C-3 -1 -3 -1 0 0 Z " fill="#36B523" transform="translate(185,134)"/>
<path d="M0 0 C4.42323682 0.58265272 7.5155864 2.26766211 11.3125 4.5625 C12.38113281 5.20316406 13.44976562 5.84382813 14.55078125 6.50390625 C15.35902344 6.99761719 16.16726563 7.49132812 17 8 C16.01 8.495 16.01 8.495 15 9 C14.29875 8.67 13.5975 8.34 12.875 8 C7.67605779 6.19167227 2.26918949 7.8473648 -3 9 C-2.67 6.69 -2.34 4.38 -2 2 C-1.34 2 -0.68 2 0 2 C0 1.34 0 0.68 0 0 Z " fill="#30B920" transform="translate(395,275)"/>
<path d="M0 0 C0 0.33 0 0.66 0 1 C-0.93972656 1.20882813 -1.87945312 1.41765625 -2.84765625 1.6328125 C-8.16263473 3.1536688 -12.71179783 6.07383752 -17.4375 8.875 C-23.54204021 12.45667884 -29.62780206 15.91451468 -36 19 C-36.33 18.34 -36.66 17.68 -37 17 C-34.62732422 15.57639453 -32.25426265 14.15350684 -29.87890625 12.734375 C-27.98251354 11.59190775 -26.09418485 10.43592998 -24.21484375 9.265625 C-23.33957031 8.72421875 -22.46429688 8.1828125 -21.5625 7.625 C-20.75941406 7.12226563 -19.95632812 6.61953125 -19.12890625 6.1015625 C-17 5 -17 5 -14 5 C-14 4.34 -14 3.68 -14 3 C-8.99067246 -0.00559652 -5.67276511 -0.29341888 0 0 Z " fill="#359B1F" transform="translate(171,270)"/>
<path d="M0 0 C9.57803762 4.98110947 18.88024831 10.21749303 28 16 C27.01 16.66 26.02 17.32 25 18 C25 17.34 25 16.68 25 16 C22.03 15.505 22.03 15.505 19 15 C19 14.34 19 13.68 19 13 C17.68 12.67 16.36 12.34 15 12 C15 11.34 15 10.68 15 10 C13.35 10 11.7 10 10 10 C9.67 9.34 9.34 8.68 9 8 C8.01 7.67 7.02 7.34 6 7 C6 6.34 6 5.68 6 5 C4.68 5 3.36 5 2 5 C1.34 3.35 0.68 1.7 0 0 Z " fill="#30911F" transform="translate(183,244)"/>
<path d="M0 0 C0.66 0.33 1.32 0.66 2 1 C0.48504785 5.24186602 -2.12759895 6.88113905 -6 9 C-9.875 9.75 -9.875 9.75 -13 10 C-13 10.99 -13 11.98 -13 13 C-15.31 13 -17.62 13 -20 13 C-16.14537624 9.72651227 -12.15151995 7.24612047 -7.75 4.8125 C-3.62784941 2.73745676 -3.62784941 2.73745676 0 0 Z " fill="#34AD20" transform="translate(141,125)"/>
<path d="M0 0 C2 1 2 1 4 4 C6.58380177 4.25030977 6.58380177 4.25030977 9 4 C9.2475 4.639375 9.495 5.27875 9.75 5.9375 C10.81562433 8.18741541 10.81562433 8.18741541 13.125 8.75 C13.74375 8.8325 14.3625 8.915 15 9 C15 9.66 15 10.32 15 11 C15.99 11.33 16.98 11.66 18 12 C17.67 12.66 17.34 13.32 17 14 C12.02642312 12.2657267 7.68501047 9.56672043 3.1875 6.875 C2.39923828 6.40707031 1.61097656 5.93914062 0.79882812 5.45703125 C-1.13602454 4.30784603 -3.06887228 3.15542997 -5 2 C-4.360625 1.855625 -3.72125 1.71125 -3.0625 1.5625 C-1.02454854 1.18992819 -1.02454854 1.18992819 0 0 Z " fill="#31A921" transform="translate(204,412)"/>
<path d="M0 0 C5.46628562 2.93059419 10.89078334 5.89589746 16.1875 9.125 C20.35999645 11.66187784 24.60101927 13.88197224 29 16 C29 16.33 29 16.66 29 17 C27.35 17 25.7 17 24 17 C24 16.34 24 15.68 24 15 C23.46375 14.87625 22.9275 14.7525 22.375 14.625 C14.5651077 12.56976519 14.5651077 12.56976519 12.578125 10.56640625 C10.78718078 8.78876112 9.08464603 7.89270057 6.8125 6.8125 C6.09707031 6.46832031 5.38164062 6.12414062 4.64453125 5.76953125 C4.10183594 5.51558594 3.55914062 5.26164062 3 5 C3 4.34 3 3.68 3 3 C2.01 2.67 1.02 2.34 0 2 C0 1.34 0 0.68 0 0 Z " fill="#339222" transform="translate(146,349)"/>
<path d="M0 0 C-21.4422658 14 -21.4422658 14 -25 14 C-25 13.01 -25 12.02 -25 11 C-24.01 11 -23.02 11 -22 11 C-22 10.34 -22 9.68 -22 9 C-20.68 9 -19.36 9 -18 9 C-17.67 8.01 -17.34 7.02 -17 6 C-15.35 5.67 -13.7 5.34 -12 5 C-12 4.34 -12 3.68 -12 3 C-10.68 3 -9.36 3 -8 3 C-8 2.34 -8 1.68 -8 1 C-4.85571151 -0.9090323 -3.47925125 -1.04523725 0 0 Z " fill="#33A120" transform="translate(413,348)"/>
<path d="M0 0 C0.88300781 0.50789063 1.76601563 1.01578125 2.67578125 1.5390625 C10.06961466 5.78301947 17.4941586 9.95603647 25 14 C21.90279155 14.87840996 20.09354597 14.99435406 17 14 C17 13.34 17 12.68 17 12 C16.30519531 11.73445312 15.61039062 11.46890625 14.89453125 11.1953125 C11.74323924 9.89396924 8.72999829 8.41296617 5.6875 6.875 C4.61886719 6.33617188 3.55023438 5.79734375 2.44921875 5.2421875 C1.23685547 4.62730469 1.23685547 4.62730469 0 4 C0 2.68 0 1.36 0 0 Z " fill="#369A22" transform="translate(347,119)"/>
<path d="M0 0 C-1.41414447 3.53536118 -2.65353284 4.37747047 -6 6 C-7.73425773 8.03317007 -7.73425773 8.03317007 -9 10 C-11.31 9.67 -13.62 9.34 -16 9 C-14.75589421 5.26768264 -13.56575815 4.79901191 -10.25 2.8125 C-8.95835937 2.01779297 -8.95835937 2.01779297 -7.640625 1.20703125 C-4.83465128 -0.075581 -3.04436161 -0.24639617 0 0 Z " fill="#34B121" transform="translate(279,268)"/>
<path d="M0 0 C4.97357688 1.7342733 9.31498953 4.43327957 13.8125 7.125 C14.60076172 7.59292969 15.38902344 8.06085938 16.20117188 8.54296875 C18.13602454 9.69215397 20.06887228 10.84457003 22 12 C19.20129973 13.39935013 17.09501208 13.25265405 14 13 C12.125 11.625 12.125 11.625 11 10 C11 9.34 11 8.68 11 8 C10.34 8 9.68 8 9 8 C9 7.34 9 6.68 9 6 C6.69 5.34 4.38 4.68 2 4 C2 3.34 2 2.68 2 2 C1.01 1.67 0.02 1.34 -1 1 C-0.67 0.67 -0.34 0.34 0 0 Z " fill="#349322" transform="translate(190,375)"/>
<path d="M0 0 C0.721875 0.144375 1.44375 0.28875 2.1875 0.4375 C4.03480707 0.80696141 5.88950639 1.14151238 7.75 1.4375 C8.4925 1.623125 9.235 1.80875 10 2 C10.33 2.66 10.66 3.32 11 4 C11.598125 4.12375 12.19625 4.2475 12.8125 4.375 C15.72924744 5.20835641 16.93922779 6.81042952 19 9 C20.31558703 10.02323436 21.64377755 11.03126968 23 12 C22.01 12.33 21.02 12.66 20 13 C17.4344681 11.66710296 15.05706932 10.29469268 12.625 8.75 C11.965 8.34136719 11.305 7.93273437 10.625 7.51171875 C9.33713649 6.71385908 8.05219359 5.9112619 6.77050781 5.10351562 C5.20596435 4.1283727 3.61631728 3.19375968 2.0234375 2.265625 C1.35570312 1.84796875 0.68796875 1.4303125 0 1 C0 0.67 0 0.34 0 0 Z " fill="#2F971F" transform="translate(181,276)"/>
<path d="M0 0 C0 0.66 0 1.32 0 2 C-1.42578125 3.18359375 -1.42578125 3.18359375 -3.3125 4.4375 C-5.27348204 5.74893243 -6.93596525 6.93244334 -8.5625 8.6484375 C-10 10 -10 10 -12.6875 10.1875 C-13.450625 10.125625 -14.21375 10.06375 -15 10 C-15 10.66 -15 11.32 -15 12 C-16.98 12 -18.96 12 -21 12 C-17.15651589 8.74951058 -13.17601471 6.21217131 -8.8125 3.75 C-8.18408203 3.38648438 -7.55566406 3.02296875 -6.90820312 2.6484375 C-2.25352444 0 -2.25352444 0 0 0 Z " fill="#319B1D" transform="translate(347,227)"/>
<path d="M0 0 C0.66 0 1.32 0 2 0 C2.67785613 9.33935111 1.68547187 16.76492822 -3 25 C-3.66 25.33 -4.32 25.66 -5 26 C-4.67 23.69 -4.34 21.38 -4 19 C-3.34 19 -2.68 19 -2 19 C-2.020625 18.030625 -2.04125 17.06125 -2.0625 16.0625 C-2 13 -2 13 -1 12 C-0.76572222 9.98405418 -0.58663876 7.961526 -0.4375 5.9375 C-0.35371094 4.83277344 -0.26992188 3.72804687 -0.18359375 2.58984375 C-0.12300781 1.73519531 -0.06242187 0.88054687 0 0 Z " fill="#35A121" transform="translate(433,183)"/>
<path d="M0 0 C0 0.66 0 1.32 0 2 C-0.99 2 -1.98 2 -3 2 C-3 2.66 -3 3.32 -3 4 C-3.66 4 -4.32 4 -5 4 C-5 4.66 -5 5.32 -5 6 C-5.721875 6.226875 -6.44375 6.45375 -7.1875 6.6875 C-10.19269899 7.88839905 -10.19269899 7.88839905 -12.5625 10.625 C-15 13 -15 13 -19 13 C-19 12.01 -19 11.02 -19 10 C-18.02417969 9.44570312 -17.04835937 8.89140625 -16.04296875 8.3203125 C-14.75777981 7.58859909 -13.47262536 6.85682508 -12.1875 6.125 C-11.54490234 5.76019531 -10.90230469 5.39539063 -10.24023438 5.01953125 C-1.43323864 0 -1.43323864 0 0 0 Z " fill="#35B522" transform="translate(181,103)"/>
<path d="M0 0 C7.63448166 4.05841727 13.36750676 7.45075175 18 15 C17.67 15.66 17.34 16.32 17 17 C15.29115995 15.37660195 13.62553283 13.70680947 12 12 C12 11.34 12 10.68 12 10 C11.34 10 10.68 10 10 10 C10 9.34 10 8.68 10 8 C8.35 8 6.7 8 5 8 C5 6.68 5 5.36 5 4 C2.03 3.505 2.03 3.505 -1 3 C-0.67 2.01 -0.34 1.02 0 0 Z " fill="#349D23" transform="translate(413,284)"/>
<path d="M0 0 C4.76551013 1.37605916 8.7248553 3.46778066 12.875 6.125 C13.46796875 6.49753906 14.0609375 6.87007812 14.671875 7.25390625 C16.1181343 8.16365 17.55958046 9.08103798 19 10 C15.01890872 11.06700419 11.09011471 11.52281995 7 12 C7.66 11.67 8.32 11.34 9 11 C9.33 10.01 9.66 9.02 10 8 C7.525 7.01 7.525 7.01 5 6 C5 5.34 5 4.68 5 4 C2.525 3.01 2.525 3.01 0 2 C0 1.34 0 0.68 0 0 Z " fill="#33AA25" transform="translate(98,195)"/>
<path d="M0 0 C4.09107168 0.74383122 8.06724871 1.63866302 12 3 C12.33 3.99 12.66 4.98 13 6 C15.50447516 7.21869929 15.50447516 7.21869929 18 8 C18 8.66 18 9.32 18 10 C20.475 10.495 20.475 10.495 23 11 C23 11.66 23 12.32 23 13 C18.76570244 11.68938409 14.92592596 10.05643741 11 8 C11 7.34 11 6.68 11 6 C10.484375 5.9175 9.96875 5.835 9.4375 5.75 C5.95544268 4.67859775 3.12799115 2.86476395 0 1 C0 0.67 0 0.34 0 0 Z " fill="#319920" transform="translate(153,386)"/>
<path d="M0 0 C4.97209562 1.76429199 9.43438061 4.3939166 14 7 C14 7.66 14 8.32 14 9 C14.639375 9.28875 15.27875 9.5775 15.9375 9.875 C18 11 18 11 19 13 C16.33333333 12.33333333 13.66666667 11.66666667 11 11 C11 10.34 11 9.68 11 9 C10.34 9 9.68 9 9 9 C8.34 8.01 7.68 7.02 7 6 C6.01 5.67 5.02 5.34 4 5 C4 4.34 4 3.68 4 3 C3.01 3 2.02 3 1 3 C0.67 2.01 0.34 1.02 0 0 Z " fill="#35A723" transform="translate(408,155)"/>
<path d="M0 0 C2.31 0 4.62 0 7 0 C2.67630171 3.87641915 -4.95808443 10 -11 10 C-10.67 8.68 -10.34 7.36 -10 6 C-7.69 5.34 -5.38 4.68 -3 4 C-3 3.34 -3 2.68 -3 2 C-2.01 2 -1.02 2 0 2 C0 1.34 0 0.68 0 0 Z " fill="#35A920" transform="translate(196,123)"/>
<path d="M0 0 C16.34316354 8.78284182 16.34316354 8.78284182 23 13 C23 13.33 23 13.66 23 14 C21.35 14 19.7 14 18 14 C18 13.34 18 12.68 18 12 C17.01 12 16.02 12 15 12 C15 11.34 15 10.68 15 10 C14.154375 9.7525 13.30875 9.505 12.4375 9.25 C8.61572526 7.86026373 5.48131937 6.08879162 2 4 C2 3.34 2 2.68 2 2 C1.34 2 0.68 2 0 2 C0 1.34 0 0.68 0 0 Z " fill="#349422" transform="translate(316,101)"/>
<path d="M0 0 C5.77294736 -0.46183579 8.39371468 0.57206674 13 4 C13.66 4 14.32 4 15 4 C16.625 6 16.625 6 18 8 C15.36 7.67 12.72 7.34 10 7 C10 6.34 10 5.68 10 5 C9.278125 4.9175 8.55625 4.835 7.8125 4.75 C4.44686746 3.85249799 2.58387184 2.2885722 0 0 Z " fill="#30A51E" transform="translate(221,426)"/>
<path d="M0 0 C1.65 0.33 3.3 0.66 5 1 C3.25 3 3.25 3 1 5 C-0.32 5 -1.64 5 -3 5 C-3 5.66 -3 6.32 -3 7 C-8.625 10 -8.625 10 -12 10 C-10.57084149 8.65772954 -9.13137328 7.32642904 -7.6875 6 C-6.88699219 5.2575 -6.08648437 4.515 -5.26171875 3.75 C-3 2 -3 2 0 2 C0 1.34 0 0.68 0 0 Z " fill="#35A622" transform="translate(84,158)"/>
<path d="M0 0 C5.94 1.485 5.94 1.485 12 3 C12 3.99 12 4.98 12 6 C12.763125 6.28875 13.52625 6.5775 14.3125 6.875 C17 8 17 8 20 10 C17 11 17 11 15.20654297 10.3190918 C14.55830566 9.94953369 13.91006836 9.57997559 13.2421875 9.19921875 C12.18064453 8.59883789 12.18064453 8.59883789 11.09765625 7.98632812 C10.36417969 7.55771484 9.63070312 7.12910156 8.875 6.6875 C8.13378906 6.27048828 7.39257812 5.85347656 6.62890625 5.42382812 C1.13859305 2.2771861 1.13859305 2.2771861 0 0 Z " fill="#309E20" transform="translate(119,366)"/>
<path d="M0 0 C1.65 0 3.3 0 5 0 C7.33479983 3.64812473 7.38018947 6.74187788 7 11 C5.875 13.4375 5.875 13.4375 4 15 C0.8125 15.25 0.8125 15.25 -2 15 C-0.06745228 12.9754262 1.63158688 11.57894208 4 10 C4.5838196 7.0850745 4.5838196 7.0850745 4 4 C2.12498069 1.62280307 2.12498069 1.62280307 0 0 Z " fill="#359723" transform="translate(399,309)"/>
<path d="M0 0 C0.79921875 0.01804687 1.5984375 0.03609375 2.421875 0.0546875 C3.02515625 0.07789063 3.6284375 0.10109375 4.25 0.125 C3.92 0.785 3.59 1.445 3.25 2.125 C2.30125 2.00125 1.3525 1.8775 0.375 1.75 C-4.34658203 1.71153497 -7.57056686 4.10880265 -11.41796875 6.6171875 C-13.4817808 7.95157854 -15.53174612 9.07451655 -17.75 10.125 C-18.08 9.135 -18.41 8.145 -18.75 7.125 C-17.76 6.795 -16.77 6.465 -15.75 6.125 C-15.09 5.135 -14.43 4.145 -13.75 3.125 C-12.09608154 2.73328247 -10.42654729 2.40442455 -8.75 2.125 C-8.13382812 1.78855469 -7.51765625 1.45210938 -6.8828125 1.10546875 C-4.40347369 -0.03430055 -2.71142302 -0.07974774 0 0 Z " fill="#309B1D" transform="translate(330.75,269.875)"/>
<path d="M0 0 C0 2 0 2 -2.3125 4.375 C-6.57008495 7.80557205 -11.73386502 9.67486146 -17 11 C-17.66 10.67 -18.32 10.34 -19 10 C-16.91794343 8.70623653 -14.83442696 7.41493446 -12.75 6.125 C-12.16347656 5.76019531 -11.57695312 5.39539063 -10.97265625 5.01953125 C-2.85014205 0 -2.85014205 0 0 0 Z " fill="#33A21F" transform="translate(202,91)"/>
<path d="M0 0 C2 3 2 3 2 6 C4.31 6.33 6.62 6.66 9 7 C9.33 8.32 9.66 9.64 10 11 C5.97683781 9.51463956 2.38707358 7.60123107 -1.3125 5.4375 C-2.38113281 4.81746094 -3.44976562 4.19742187 -4.55078125 3.55859375 C-5.35902344 3.04425781 -6.16726562 2.52992188 -7 2 C-7 1.67 -7 1.34 -7 1 C-2.25 0 -2.25 0 0 0 Z " fill="#2E8C1E" transform="translate(189,402)"/>
<path d="M0 0 C0.66 0.33 1.32 0.66 2 1 C0.87224426 4.38326722 -0.35703248 5.66796984 -3 8 C-3.99 8.33 -4.98 8.66 -6 9 C-6.33 9.99 -6.66 10.98 -7 12 C-9.0625 12.6875 -9.0625 12.6875 -11 13 C-9.66342976 10.09663689 -8.15277429 7.7897189 -6.0625 5.375 C-5.55847656 4.78460938 -5.05445312 4.19421875 -4.53515625 3.5859375 C-3 2 -3 2 0 0 Z " fill="#309A1E" transform="translate(80,287)"/>
<path d="M0 0 C-4.95 2.97 -9.9 5.94 -15 9 C-15.33 8.01 -15.66 7.02 -16 6 C-15.34 6 -14.68 6 -14 6 C-14 5.34 -14 4.68 -14 4 C-13.01 4 -12.02 4 -11 4 C-10.773125 3.360625 -10.54625 2.72125 -10.3125 2.0625 C-9 0 -9 0 -6.625 -0.8125 C-4 -1 -4 -1 0 0 Z " fill="#34A823" transform="translate(122,171)"/>
<path d="M0 0 C6.89913626 3.31745701 13.49162544 6.97034681 20 11 C19.01 11.33 18.02 11.66 17 12 C15.31791365 11.02616054 13.65261839 10.02304948 12 9 C11.154375 8.855625 10.30875 8.71125 9.4375 8.5625 C6.28732021 7.83553543 5.1443227 6.35875497 3 4 C2.01 3.34 1.02 2.68 0 2 C0 1.34 0 0.68 0 0 Z " fill="#369B22" transform="translate(271,75)"/>
<path d="M0 0 C1.26237731 2.52475462 1.09856404 4.31200466 1.0625 7.125 C1.05347656 8.03507813 1.04445313 8.94515625 1.03515625 9.8828125 C1.02355469 10.58148438 1.01195313 11.28015625 1 12 C-0.98 12.33 -2.96 12.66 -5 13 C-4.48474397 7.71862571 -2.74522883 4.42778844 0 0 Z " fill="#2CBF1E" transform="translate(71,169)"/>
<path d="M0 0 C0.66 0 1.32 0 2 0 C4.61281488 5.87883349 4.18328202 11.70731728 4 18 C3.01 18.33 2.02 18.66 1 19 C1.01160156 18.21496094 1.02320313 17.42992187 1.03515625 16.62109375 C1.08375507 10.96280225 1.01294749 5.57121122 0 0 Z " fill="#36A325" transform="translate(431,304)"/>
<path d="M0 0 C-0.33 0.99 -0.66 1.98 -1 3 C-3.0625 3.6875 -3.0625 3.6875 -5 4 C-5.33 5.32 -5.66 6.64 -6 8 C-8.875 8.125 -8.875 8.125 -12 8 C-12.66 7.34 -13.32 6.68 -14 6 C-9.375 3 -9.375 3 -6 3 C-6 2.34 -6 1.68 -6 1 C-3 0 -3 0 0 0 Z " fill="#33AA21" transform="translate(157,118)"/>
<path d="M0 0 C-0.98742187 0.55429687 -1.97484375 1.10859375 -2.9921875 1.6796875 C-4.28655535 2.41128672 -5.58082087 3.14306699 -6.875 3.875 C-7.52597656 4.23980469 -8.17695312 4.60460937 -8.84765625 4.98046875 C-11.50393354 6.48660536 -13.83019001 7.83019001 -16 10 C-16.33 9.01 -16.66 8.02 -17 7 C-16.34 6.34 -15.68 5.68 -15 5 C-14.01 5 -13.02 5 -12 5 C-12 4.34 -12 3.68 -12 3 C-11.01 3 -10.02 3 -9 3 C-8.67 2.01 -8.34 1.02 -8 0 C-4.99093136 -1.24513185 -3.0590674 -0.84653438 0 0 Z " fill="#2D8F1E" transform="translate(111,304)"/>
<path d="M0 0 C1.32 0.33 2.64 0.66 4 1 C4 1.66 4 2.32 4 3 C4.66 3 5.32 3 6 3 C6.66 4.65 7.32 6.3 8 8 C2.06 7.01 2.06 7.01 -4 6 C-3.01 5.67 -2.02 5.34 -1 5 C-0.67 3.35 -0.34 1.7 0 0 Z " fill="#36CF24" transform="translate(168,264)"/>
<path d="M0 0 C-2.24956302 2.24956302 -4.06323263 3.00510965 -7 4.1875 C-7.886875 4.55230469 -8.77375 4.91710937 -9.6875 5.29296875 C-12 6 -12 6 -14 5 C-13.34 4.01 -12.68 3.02 -12 2 C-11.01 2 -10.02 2 -9 2 C-9 1.34 -9 0.68 -9 0 C-5.52176885 -1.15941038 -3.54104422 -0.70820884 0 0 Z " fill="#33B021" transform="translate(121,268)"/>
<path d="M0 0 C4.32464532 1.5725983 8.12178595 3.5388257 12 6 C12.33 6.99 12.66 7.98 13 9 C7.25 9.125 7.25 9.125 5 8 C5 6.68 5 5.36 5 4 C4.360625 3.896875 3.72125 3.79375 3.0625 3.6875 C2.381875 3.460625 1.70125 3.23375 1 3 C0.67 2.01 0.34 1.02 0 0 Z " fill="#31A31F" transform="translate(119,207)"/>
<path d="M0 0 C7.75 1.625 7.75 1.625 10 5 C10.25760279 7.69452521 10.08900053 10.28548375 10 13 C9.01 12.67 8.02 12.34 7 12 C7.144375 11.113125 7.28875 10.22625 7.4375 9.3125 C7.3574136 6.0282432 7.3574136 6.0282432 5.44140625 4.5234375 C4.16058007 3.64206416 2.85674227 2.79312175 1.53125 1.98046875 C1.0259375 1.65691406 0.520625 1.33335937 0 1 C0 0.67 0 0.34 0 0 Z " fill="#309120" transform="translate(396,180)"/>
<path d="M0 0 C2.31 0 4.62 0 7 0 C7 1.32 7 2.64 7 4 C7.5775 4.28875 8.155 4.5775 8.75 4.875 C10.83333333 5.91666667 12.91666667 6.95833333 15 8 C15 8.66 15 9.32 15 10 C13.02 9.34 11.04 8.68 9 8 C9 7.34 9 6.68 9 6 C8.4225 5.87625 7.845 5.7525 7.25 5.625 C4.92605949 4.97946097 3.05054346 4.27275111 1 3 C0.67 2.01 0.34 1.02 0 0 Z " fill="#32A424" transform="translate(366,162)"/>
<path d="M0 0 C-5.28 2.97 -10.56 5.94 -16 9 C-16.33 8.34 -16.66 7.68 -17 7 C-16.67 6.01 -16.34 5.02 -16 4 C-14.02416285 3.26480478 -12.01822402 2.60927518 -10 2 C-8.453125 1.1646875 -8.453125 1.1646875 -6.875 0.3125 C-4 -1 -4 -1 0 0 Z " fill="#31991F" transform="translate(239,103)"/>
<path d="M0 0 C0.49628906 0.27714844 0.99257812 0.55429687 1.50390625 0.83984375 C6.09318168 3.28687676 9.81559721 4.56796643 15 5 C15 5.66 15 6.32 15 7 C9.53430204 7.27791685 6.55922096 7.29277069 2 4 C0.67391178 3.31903578 -0.65686601 2.64669414 -2 2 C-1.34 2 -0.68 2 0 2 C0 1.34 0 0.68 0 0 Z " fill="#34A420" transform="translate(238,403)"/>
<path d="M0 0 C0.99 0.33 1.98 0.66 3 1 C-1.52874388 4.92491136 -6.60598991 8.37459686 -12 11 C-12.66 10.67 -13.32 10.34 -14 10 C-14 9.01 -14 8.02 -14 7 C-10.35206816 5.72746564 -6.8063457 4.67170806 -3 4 C-3 3.34 -3 2.68 -3 2 C-2.01 2 -1.02 2 0 2 C0 1.34 0 0.68 0 0 Z " fill="#2E921D" transform="translate(297,286)"/>
<path d="M0 0 C-0.23046875 1.88671875 -0.23046875 1.88671875 -1 4 C-2.92578125 5.08203125 -2.92578125 5.08203125 -5.3125 5.8125 C-6.48232422 6.19341797 -6.48232422 6.19341797 -7.67578125 6.58203125 C-10.15528491 7.02792519 -11.63492369 6.79557487 -14 6 C-12.42356682 4.98915735 -10.8385483 3.99169489 -9.25 3 C-8.36828125 2.443125 -7.4865625 1.88625 -6.578125 1.3125 C-4 0 -4 0 0 0 Z " fill="#36A620" transform="translate(346,355)"/>
<path d="M0 0 C0.721875 0.144375 1.44375 0.28875 2.1875 0.4375 C4.03480707 0.80696141 5.88950639 1.14151238 7.75 1.4375 C8.4925 1.623125 9.235 1.80875 10 2 C10.33 2.66 10.66 3.32 11 4 C11.99 4.33 12.98 4.66 14 5 C14.6875 7.0625 14.6875 7.0625 15 9 C11.32305352 7.62859834 8.04681411 5.96304199 4.6875 3.9375 C3.80449219 3.41027344 2.92148437 2.88304687 2.01171875 2.33984375 C1.34785156 1.89769531 0.68398438 1.45554687 0 1 C0 0.67 0 0.34 0 0 Z " fill="#2E9B1C" transform="translate(341,275)"/>
<path d="M0 0 C2 1 2 1 3 3 C0.69 3.33 -1.62 3.66 -4 4 C-4 4.99 -4 5.98 -4 7 C-9.445 8.485 -9.445 8.485 -15 10 C-12.08878292 7.08878292 -9.46724098 5.32581365 -5.9375 3.25 C-4.87402344 2.61578125 -3.81054688 1.9815625 -2.71484375 1.328125 C-1.81894531 0.88984375 -0.92304688 0.4515625 0 0 Z " fill="#2C8C1A" transform="translate(312,246)"/>
<path d="M0 0 C0.8971875 0.309375 0.8971875 0.309375 1.8125 0.625 C0.06697936 1.77764553 -1.68410196 2.92187327 -3.4375 4.0625 C-4.41203125 4.70058594 -5.3865625 5.33867187 -6.390625 5.99609375 C-8.77131615 7.3826136 -10.50530307 8.171581 -13.1875 8.625 C-13.1875 7.965 -13.1875 7.305 -13.1875 6.625 C-12.5275 6.295 -11.8675 5.965 -11.1875 5.625 C-11.5175 4.635 -11.8475 3.645 -12.1875 2.625 C-11.094375 2.50125 -10.00125 2.3775 -8.875 2.25 C-5.43062929 1.66620835 -3.26752601 -0.56014732 0 0 Z " fill="#2E971E" transform="translate(380.1875,239.375)"/>
<path d="M0 0 C3.70681876 0.10018429 4.93820957 0.94252053 7.6875 3.5 C8.450625 4.325 9.21375 5.15 10 6 C10.66 6.33 11.32 6.66 12 7 C12 7.66 12 8.32 12 9 C6.68972746 7.53967505 2.53669968 5.01679014 -2 2 C-1.34 1.34 -0.68 0.68 0 0 Z " fill="#31951E" transform="translate(97,225)"/>
<path d="M0 0 C6.15234375 0.5859375 6.15234375 0.5859375 8 1 C8.33 1.66 8.66 2.32 9 3 C11.02463255 3.65213292 11.02463255 3.65213292 13 4 C13 4.66 13 5.32 13 6 C13.99 6.33 14.98 6.66 16 7 C14.390625 7.7109375 14.390625 7.7109375 12 8 C8.984375 6.6015625 8.984375 6.6015625 5.75 4.625 C4.67234375 3.97789062 3.5946875 3.33078125 2.484375 2.6640625 C1.66453125 2.11492187 0.8446875 1.56578125 0 1 C0 0.67 0 0.34 0 0 Z " fill="#2A8F17" transform="translate(307,129)"/>
<path d="M0 0 C-4.62 2.64 -9.24 5.28 -14 8 C-14.66 7.34 -15.32 6.68 -16 6 C-13.63078826 3.28787603 -11.32893261 2.07761003 -8 0.75 C-7.13375 0.39421875 -6.2675 0.0384375 -5.375 -0.328125 C-3 -1 -3 -1 0 0 Z " fill="#2D8F1F" transform="translate(285,423)"/>
<path d="M0 0 C2.64 0.33 5.28 0.66 8 1 C8.33 2.32 8.66 3.64 9 5 C10.65 5 12.3 5 14 5 C14 5.66 14 6.32 14 7 C14.66 7.33 15.32 7.66 16 8 C15.01 8.495 15.01 8.495 14 9 C11.54961707 7.75717988 9.226675 6.47117661 6.875 5.0625 C6.21628906 4.67642578 5.55757813 4.29035156 4.87890625 3.89257812 C3.248387 2.93553422 1.62363816 1.96867185 0 1 C0 0.67 0 0.34 0 0 Z " fill="#349F23" transform="translate(86,347)"/>
<path d="M0 0 C1.98 0 3.96 0 6 0 C6 0.66 6 1.32 6 2 C2.04 3.98 -1.92 5.96 -6 8 C-6.33 6.35 -6.66 4.7 -7 3 C-3.535 2.505 -3.535 2.505 0 2 C0 1.34 0 0.68 0 0 Z " fill="#2B951B" transform="translate(276,297)"/>
<path d="M0 0 C1.43836751 0.11458693 2.87570966 0.24209116 4.3125 0.375 C5.51326172 0.47941406 5.51326172 0.47941406 6.73828125 0.5859375 C9 1 9 1 12 3 C12 4.32 12 5.64 12 7 C7.69235185 5.43358249 3.93828536 3.31663844 0 1 C0 0.67 0 0.34 0 0 Z " fill="#2B9E1E" transform="translate(356,284)"/>
<path d="M0 0 C5.70629354 0.42797202 9.41078616 2.84345952 14 6 C13.34 6.66 12.68 7.32 12 8 C10.68 7.34 9.36 6.68 8 6 C8 5.34 8 4.68 8 4 C7.01 4.33 6.02 4.66 5 5 C2.875 4.25 2.875 4.25 1 3 C0.67 2.01 0.34 1.02 0 0 Z " fill="#319920" transform="translate(168,237)"/>
<path d="M0 0 C3.43970626 1.14656875 3.8782229 1.84518278 5.75 4.8125 C6.19859375 5.49957031 6.6471875 6.18664062 7.109375 6.89453125 C8.16892656 9.39934831 7.92399724 10.49281235 7 13 C6.01364163 11.58833114 5.03618745 10.17043816 4.0625 8.75 C3.51722656 7.96109375 2.97195312 7.1721875 2.41015625 6.359375 C1.10377559 4.17363007 0.45019489 2.4846199 0 0 Z " fill="#298A1E" transform="translate(67,201)"/>
<path d="M0 0 C2 1 2 1 3 3 C1.02 3.33 -0.96 3.66 -3 4 C-3.33 4.99 -3.66 5.98 -4 7 C-6.06640625 7.73046875 -6.06640625 7.73046875 -8.5625 8.1875 C-9.38878906 8.34605469 -10.21507812 8.50460938 -11.06640625 8.66796875 C-11.70449219 8.77753906 -12.34257812 8.88710937 -13 9 C-10.59497637 6.36479259 -7.9814151 4.59697057 -4.9375 2.75 C-4.05964844 2.20859375 -3.18179688 1.6671875 -2.27734375 1.109375 C-1.52582031 0.74328125 -0.77429688 0.3771875 0 0 Z " fill="#2F9C1E" transform="translate(215,82)"/>
<path d="M0 0 C1.32 0 2.64 0 4 0 C4 0.66 4 1.32 4 2 C1.8828125 3.54296875 1.8828125 3.54296875 -0.875 5.1875 C-1.77992188 5.73792969 -2.68484375 6.28835938 -3.6171875 6.85546875 C-4.40351563 7.23316406 -5.18984375 7.61085938 -6 8 C-6.66 7.67 -7.32 7.34 -8 7 C-7.67 6.01 -7.34 5.02 -7 4 C-6.01 4 -5.02 4 -4 4 C-4 3.34 -4 2.68 -4 2 C-2.68 2 -1.36 2 0 2 C0 1.34 0 0.68 0 0 Z " fill="#2F9F1F" transform="translate(308,279)"/>
<path d="M0 0 C0.66 0.33 1.32 0.66 2 1 C0.6875 3 0.6875 3 -1 5 C-1.99 5 -2.98 5 -4 5 C-4 5.66 -4 6.32 -4 7 C-6.97 7.66 -9.94 8.32 -13 9 C-10.35065989 6.35065989 -8.10515144 4.67205065 -4.9375 2.75 C-4.05964844 2.20859375 -3.18179687 1.6671875 -2.27734375 1.109375 C-1.52582031 0.74328125 -0.77429688 0.3771875 0 0 Z " fill="#2E971E" transform="translate(360,218)"/>
<path d="M0 0 C10.55808656 5.18678815 10.55808656 5.18678815 15 8 C12.46922494 8.9373241 11.19288202 9.05440262 8.5625 8.3125 C4.46921702 6.21594043 1.48500432 4.45501296 0 0 Z " fill="#31901F" transform="translate(386,142)"/>
<path d="M0 0 C3.9517002 -0.3763524 5.82294633 -0.09508438 9.375 1.8125 C10.24125 2.534375 11.1075 3.25625 12 4 C12 4.99 12 5.98 12 7 C7.69235185 5.43358249 3.93828536 3.31663844 0 1 C0 0.67 0 0.34 0 0 Z " fill="#2EA01F" transform="translate(256,99)"/>
<path d="M0 0 C1.32 0 2.64 0 4 0 C4 0.66 4 1.32 4 2 C5.32 2.33 6.64 2.66 8 3 C8 5.64 8 8.28 8 11 C7.01 11.33 6.02 11.66 5 12 C5 9.03 5 6.06 5 3 C2.525 2.01 2.525 2.01 0 1 C0 0.67 0 0.34 0 0 Z " fill="#329C22" transform="translate(129,246)"/>
<path d="M0 0 C-4.625 3 -4.625 3 -8 3 C-8 3.66 -8 4.32 -8 5 C-9.98 5.66 -11.96 6.32 -14 7 C-14.33 6.01 -14.66 5.02 -15 4 C-12.36 3.34 -9.72 2.68 -7 2 C-7 1.34 -7 0.68 -7 0 C-3.86650268 -1.04449911 -3.01031744 -0.93423645 0 0 Z " fill="#2C891C" transform="translate(135,290)"/>
<path d="M0 0 C0.66 0.33 1.32 0.66 2 1 C0.4422692 4.82352106 -1.91595258 7.29205593 -5 10 C-5.99 10 -6.98 10 -8 10 C-7.34 9.01 -6.68 8.02 -6 7 C-5.01 7 -4.02 7 -3 7 C-2.814375 6.1028125 -2.814375 6.1028125 -2.625 5.1875 C-2 3 -2 3 0 0 Z " fill="#2F841E" transform="translate(427,333)"/>
<path d="M0 0 C-2.36595933 2.61500768 -4.86049226 4.38999603 -8 6 C-8.66 5.67 -9.32 5.34 -10 5 C-10 3.68 -10 2.36 -10 1 C-6.61981469 -0.04005702 -3.5219721 -0.08004482 0 0 Z " fill="#2D981D" transform="translate(121,297)"/>
<path d="M0 0 C1.0625 1.875 1.0625 1.875 2 4 C2.99 5.485 2.99 5.485 4 7 C0.12697862 5.85569823 -3.00263439 4.76679902 -6 2 C-6 1.34 -6 0.68 -6 0 C-3 -1 -3 -1 0 0 Z " fill="#33A023" transform="translate(213,290)"/>
<path d="M0 0 C1.32 0.33 2.64 0.66 4 1 C3.01 1.33 2.02 1.66 1 2 C0.70437633 7.32170494 0.70437633 7.32170494 3 12 C2.01 12.495 2.01 12.495 1 13 C-1.24510613 10.56780169 -1.97120564 9.28218472 -2.3125 5.9375 C-2 3 -2 3 0 0 Z " fill="#349B23" transform="translate(95,183)"/>
<path d="M0 0 C0.66 0.33 1.32 0.66 2 1 C1.3203125 2.921875 1.3203125 2.921875 0 5 C-2.3828125 5.828125 -2.3828125 5.828125 -5.125 6.25 C-6.03507812 6.39953125 -6.94515625 6.5490625 -7.8828125 6.703125 C-8.58148438 6.80109375 -9.28015625 6.8990625 -10 7 C-6.98387254 3.79017628 -3.91966781 1.99546725 0 0 Z " fill="#2E981B" transform="translate(385,330)"/>
<path d="M0 0 C1.79398267 0.95399078 3.58511655 1.91334026 5.375 2.875 C6.37273437 3.40867187 7.37046875 3.94234375 8.3984375 4.4921875 C11 6 11 6 13 8 C11.02 8 9.04 8 7 8 C6.67 7.34 6.34 6.68 6 6 C3.98330173 4.86649466 3.98330173 4.86649466 2 4 C2 3.34 2 2.68 2 2 C1.34 2 0.68 2 0 2 C0 1.34 0 0.68 0 0 Z " fill="#2F8E1F" transform="translate(367,257)"/>
<path d="M0 0 C3.7910119 1.44950455 7.3874638 3.15172566 11 5 C10.01 5.495 10.01 5.495 9 6 C8.67 6.66 8.34 7.32 8 8 C7.608125 7.566875 7.21625 7.13375 6.8125 6.6875 C4.97761098 4.85439739 4.97761098 4.85439739 2.3125 3.4375 C1.549375 2.963125 0.78625 2.48875 0 2 C0 1.34 0 0.68 0 0 Z " fill="#319822" transform="translate(211,261)"/>
<path d="M0 0 C-1.95519384 1.17192047 -3.9142539 2.3373929 -5.875 3.5 C-6.96554688 4.1496875 -8.05609375 4.799375 -9.1796875 5.46875 C-12 7 -12 7 -14 7 C-14 5 -14 5 -12.8125 3.375 C-10.44439338 1.57850533 -8.90102749 1.76478155 -6 2 C-6 1.34 -6 0.68 -6 0 C-3.50907189 -1.24546405 -2.58919267 -0.7767578 0 0 Z " fill="#2F901D" transform="translate(136,163)"/>
<path d="M0 0 C0.91007813 0.00902344 1.82015625 0.01804687 2.7578125 0.02734375 C3.45648438 0.03894531 4.15515625 0.05054687 4.875 0.0625 C4.545 0.7225 4.215 1.3825 3.875 2.0625 C3.05 1.98 2.225 1.8975 1.375 1.8125 C-3.13803847 2.13485989 -6.24295056 3.85544651 -10.125 6.0625 C-10.125 5.0725 -10.125 4.0825 -10.125 3.0625 C-9.135 3.0625 -8.145 3.0625 -7.125 3.0625 C-7.125 2.4025 -7.125 1.7425 -7.125 1.0625 C-4.60024538 -0.19987731 -2.81299534 -0.03606404 0 0 Z " fill="#369D1D" transform="translate(249.125,95.9375)"/>
<path d="M0 0 C-0.6875 1.9375 -0.6875 1.9375 -2 4 C-4.625 4.75 -4.625 4.75 -7 5 C-7 5.66 -7 6.32 -7 7 C-8.32 7 -9.64 7 -11 7 C-11 6.34 -11 5.68 -11 5 C-10.01 5 -9.02 5 -8 5 C-8 4.34 -8 3.68 -8 3 C-2.25 0 -2.25 0 0 0 Z " fill="#30941C" transform="translate(274,396)"/>
<path d="M0 0 C2.475 0.495 2.475 0.495 5 1 C5 1.66 5 2.32 5 3 C6.65 2.67 8.3 2.34 10 2 C10.33 3.65 10.66 5.3 11 7 C6.89188572 5.55007731 3.53144334 3.54592427 0 1 C0 0.67 0 0.34 0 0 Z " fill="#2D9620" transform="translate(75,340)"/>
<path d="M0 0 C1.29922995 2.5984599 0.81286289 3.75961451 0.1875 6.5625 C0.01605469 7.36816406 -0.15539062 8.17382812 -0.33203125 9.00390625 C-1 11 -1 11 -3 12 C-4.15703519 7.95037684 -3.92492885 5.74854566 -2 2 C-1.34 1.34 -0.68 0.68 0 0 Z " fill="#36B223" transform="translate(70,299)"/>
<path d="M0 0 C4.61513112 1.31860889 8.09897612 3.21355437 12 6 C8.98968256 6.93423645 8.13349732 7.04449911 5 6 C5 5.34 5 4.68 5 4 C2.525 3.01 2.525 3.01 0 2 C0 1.34 0 0.68 0 0 Z " fill="#32901F" transform="translate(98,195)"/>
<path d="M0 0 C0.66 0.33 1.32 0.66 2 1 C1.2884375 1.6496875 1.2884375 1.6496875 0.5625 2.3125 C-1.23686957 4.02309613 -1.23686957 4.02309613 -2 7 C-4.97 6.505 -4.97 6.505 -8 6 C-5.63404067 3.38499232 -3.13950774 1.61000397 0 0 Z " fill="#2D9C1E" transform="translate(311,373)"/>
<path d="M0 0 C0.99 0.33 1.98 0.66 3 1 C2 4 2 4 -0.75 5.75 C-4.17896517 7.06883276 -5.57318882 7.10867421 -9 6 C-9 5.67 -9 5.34 -9 5 C-7.88625 4.731875 -6.7725 4.46375 -5.625 4.1875 C-1.78159049 3.34190981 -1.78159049 3.34190981 0 0 Z " fill="#34AF22" transform="translate(267,302)"/>
<path d="M0 0 C-4.455 2.97 -4.455 2.97 -9 6 C-9.66 5.67 -10.32 5.34 -11 5 C-11 4.34 -11 3.68 -11 3 C-9.73581754 2.30034557 -8.46334598 1.61565237 -7.1875 0.9375 C-6.47980469 0.55464844 -5.77210938 0.17179688 -5.04296875 -0.22265625 C-3 -1 -3 -1 0 0 Z " fill="#2A801D" transform="translate(185,134)"/>
<path d="M0 0 C0 0.66 0 1.32 0 2 C-0.99 2 -1.98 2 -3 2 C-3 2.66 -3 3.32 -3 4 C-3.66 4 -4.32 4 -5 4 C-5 4.66 -5 5.32 -5 6 C-7.31 6.33 -9.62 6.66 -12 7 C-10.67368911 4.34737821 -9.14656892 3.78900251 -6.5625 2.375 C-5.75941406 1.92898437 -4.95632812 1.48296875 -4.12890625 1.0234375 C-2 0 -2 0 0 0 Z " fill="#2A891D" transform="translate(181,103)"/>
<path d="M0 0 C-0.6796875 1.890625 -0.6796875 1.890625 -2 4 C-4.3828125 5.046875 -4.3828125 5.046875 -7.125 5.75 C-8.03507813 5.99234375 -8.94515625 6.2346875 -9.8828125 6.484375 C-10.93082031 6.73960938 -10.93082031 6.73960938 -12 7 C-8.96533294 3.76116573 -4.61110165 0 0 0 Z " fill="#2E821E" transform="translate(229,75)"/>
<path d="M0 0 C0.72159424 1.64363134 1.39351421 3.31050386 2 5 C-1.77545388 3.90931332 -4.47043472 3.0916909 -7 0 C-2.25 -1.125 -2.25 -1.125 0 0 Z " fill="#2F951E" transform="translate(206,413)"/>
<path d="M0 0 C7.45937249 0.61142397 7.45937249 0.61142397 10 2.4375 C11 4 11 4 11 6 C5.25 4.125 5.25 4.125 3 3 C3 2.34 3 1.68 3 1 C2.01 0.67 1.02 0.34 0 0 Z " fill="#2D8920" transform="translate(142,380)"/>
<path d="M0 0 C7.81636537 1.91722169 7.81636537 1.91722169 10 5 C10 5.66 10 6.32 10 7 C5.58738468 5.79655946 2.95916118 4.52823064 0 1 C0 0.67 0 0.34 0 0 Z " fill="#339E21" transform="translate(111,234)"/>
<path d="M0 0 C0.66 0.33 1.32 0.66 2 1 C1.67 1.66 1.34 2.32 1 3 C0.34 3 -0.32 3 -1 3 C-1 3.66 -1 4.32 -1 5 C-0.34 5.33 0.32 5.66 1 6 C-1.97 6 -4.94 6 -8 6 C-6.32169152 2.64338305 -3.29210653 1.67493139 0 0 Z " fill="#2B911A" transform="translate(389,201)"/>
<path d="M0 0 C4.30764815 1.56641751 8.06171464 3.68336156 12 6 C11.01 6.66 10.02 7.32 9 8 C6.5 6.625 6.5 6.625 4 5 C4 4.34 4 3.68 4 3 C3.01 3 2.02 3 1 3 C0.67 2.01 0.34 1.02 0 0 Z " fill="#2B841D" transform="translate(408,155)"/>
<path d="M0 0 C3.71888239 0.50712033 6.73454239 1.11608215 10 3 C10 3.99 10 4.98 10 6 C6.40992874 4.66654496 3.20429093 3.1056769 0 1 C0 0.67 0 0.34 0 0 Z " fill="#2A8C1C" transform="translate(297,123)"/>
<path d="M0 0 C3.70293685 -0.33663062 5.39534381 -0.47736015 8.375 1.875 C10 4 10 4 10 6 C6.00499382 4.6302836 3.19990508 2.74277578 0 0 Z " fill="#2D981E" transform="translate(287,117)"/>
<path d="M0 0 C0.804375 0.4640625 0.804375 0.4640625 1.625 0.9375 C4.06246442 2.15239728 4.06246442 2.15239728 7.1875 2.5 C8.115625 2.665 9.04375 2.83 10 3 C10.33 3.66 10.66 4.32 11 5 C3.5340751 5.36717663 3.5340751 5.36717663 1 3.625 C0 2 0 2 0 0 Z " fill="#34AB22" transform="translate(201,383)"/>
<path d="M0 0 C1.32 0.66 2.64 1.32 4 2 C-2.75 6 -2.75 6 -5 6 C-4.67 4.68 -4.34 3.36 -4 2 C-2.68 2 -1.36 2 0 2 C0 1.34 0 0.68 0 0 Z " fill="#32A520" transform="translate(384,361)"/>
<path d="M0 0 C7.74468085 0.74468085 7.74468085 0.74468085 11 4 C11 4.66 11 5.32 11 6 C6.49197399 4.74194623 3.5087188 3.09592835 0 0 Z " fill="#339C26" transform="translate(108,360)"/>
<path d="M0 0 C0.75 1.5625 0.75 1.5625 1 4 C-0.13084437 6.50286409 -1.52139516 8.67007722 -3 11 C-3.93423645 7.98968256 -4.04449911 7.13349732 -3 4 C-2.34 4 -1.68 4 -1 4 C-0.67 2.68 -0.34 1.36 0 0 Z " fill="#349323" transform="translate(432,198)"/>
<path d="M0 0 C3.09592835 3.5087188 4.74194623 6.49197399 6 11 C3.17621961 9.96461386 2.1756855 9.33380245 0.75 6.625 C0 4 0 4 0 0 Z " fill="#329520" transform="translate(427,168)"/>
<path d="M0 0 C4.23429756 1.31061591 8.07407404 2.94356259 12 5 C8.6699024 6.11003253 8.02156559 5.9343162 4.875 4.75 C4.17117188 4.49734375 3.46734375 4.2446875 2.7421875 3.984375 C1 3 1 3 0 0 Z " fill="#308D21" transform="translate(259,69)"/>
<path d="M0 0 C3.3125 -0.25 3.3125 -0.25 7 0 C8.9375 2 8.9375 2 10 4 C7.36 3.67 4.72 3.34 2 3 C2 2.34 2 1.68 2 1 C1.34 0.67 0.68 0.34 0 0 Z " fill="#3AB326" transform="translate(229,430)"/>
<path d="M0 0 C0.66 1.65 1.32 3.3 2 5 C-1.82097239 4.46930939 -4.06171403 3.50298434 -7 1 C-2.25 0 -2.25 0 0 0 Z " fill="#34B420" transform="translate(189,402)"/>
<path d="M0 0 C0 0.66 0 1.32 0 2 C0.66 2.33 1.32 2.66 2 3 C-1.96 4.98 -1.96 4.98 -6 7 C-4.25 0 -4.25 0 0 0 Z " fill="#30A820" transform="translate(317,400)"/>
<path d="M0 0 C1.32 0.66 2.64 1.32 4 2 C3.67 3.32 3.34 4.64 3 6 C2.01 6 1.02 6 0 6 C0 5.34 0 4.68 0 4 C-0.66 4 -1.32 4 -2 4 C-1.34 2.68 -0.68 1.36 0 0 Z " fill="#31C51D" transform="translate(322,394)"/>
<path d="M0 0 C1.21236328 0.01353516 1.21236328 0.01353516 2.44921875 0.02734375 C3.37154297 0.04474609 3.37154297 0.04474609 4.3125 0.0625 C3.9825 0.7225 3.6525 1.3825 3.3125 2.0625 C2.24 2.000625 1.1675 1.93875 0.0625 1.875 C-3.79616187 2.06793309 -4.97567788 2.45915076 -7.6875 5.0625 C-8.3475 4.7325 -9.0075 4.4025 -9.6875 4.0625 C-6.9209694 -0.0872959 -4.6801992 -0.06782897 0 0 Z " fill="#206F11" transform="translate(330.6875,269.9375)"/>
<path d="M0 0 C0.99 0.33 1.98 0.66 3 1 C2.67 1.33 2.34 1.66 2 2 C1.80850919 5.63194641 1.80850919 5.63194641 3 9 C1.68 8.67 0.36 8.34 -1 8 C-1.04241723 5.66705225 -1.04092937 3.33297433 -1 1 C-0.67 0.67 -0.34 0.34 0 0 Z " fill="#2E981F" transform="translate(364,248)"/>
<path d="M0 0 C0.33 0 0.66 0 1 0 C1.268125 0.94875 1.53625 1.8975 1.8125 2.875 C2.74986588 6.25267273 2.74986588 6.25267273 6 8 C6 8.66 6 9.32 6 10 C5.01 10 4.02 10 3 10 C3 9.34 3 8.68 3 8 C1.68 8 0.36 8 -1 8 C-0.67 5.36 -0.34 2.72 0 0 Z " fill="#3AD425" transform="translate(92,187)"/>
<path d="M0 0 C3.08089673 2.77280706 4.68775452 5.06326356 6 9 C3.5625 7.875 3.5625 7.875 1 6 C0.1875 2.8125 0.1875 2.8125 0 0 Z " fill="#2B871B" transform="translate(425,292)"/>
<path d="M0 0 C0.99 0.33 1.98 0.66 3 1 C1.90716423 2.03295436 0.80029421 3.05107835 -0.3125 4.0625 C-0.92738281 4.63097656 -1.54226563 5.19945312 -2.17578125 5.78515625 C-2.77777344 6.18605469 -3.37976563 6.58695313 -4 7 C-4.99 6.67 -5.98 6.34 -7 6 C-6.38125 5.9175 -5.7625 5.835 -5.125 5.75 C-2.82618538 5.19392091 -2.82618538 5.19392091 -1.8125 3 C-1.544375 2.34 -1.27625 1.68 -1 1 C-0.67 0.67 -0.34 0.34 0 0 Z " fill="#2C861B" transform="translate(424,211)"/>
<path d="M0 0 C2.375 0.3125 2.375 0.3125 5 1 C5.66 1.99 6.32 2.98 7 4 C5.1875 4.6875 5.1875 4.6875 3 5 C1.25 3.6875 1.25 3.6875 0 2 C0 1.34 0 0.68 0 0 Z " fill="#38C024" transform="translate(289,87)"/>
<path d="M0 0 C0.33 0 0.66 0 1 0 C1 1.65 1 3.3 1 5 C1.61875 5.28875 2.2375 5.5775 2.875 5.875 C5 7 5 7 7 9 C5.68 9.33 4.36 9.66 3 10 C0.64551835 7.44931155 0.01672076 6.28982642 -0.1875 2.75 C-0.125625 1.8425 -0.06375 0.935 0 0 Z " fill="#328823" transform="translate(94,314)"/>
<path d="M0 0 C-6.75 4 -6.75 4 -9 4 C-8.67 2.68 -8.34 1.36 -8 0 C-4.94736336 -0.98120464 -3.05263664 -0.98120464 0 0 Z " fill="#33A01E" transform="translate(111,304)"/>
<path d="M0 0 C0.66 0.33 1.32 0.66 2 1 C0.9375 2.9375 0.9375 2.9375 -1 5 C-4.6875 5.75 -4.6875 5.75 -8 6 C-5.38485683 3.87961365 -2.80362384 1.86908256 0 0 Z " fill="#318D1B" transform="translate(293,257)"/>
<path d="M0 0 C0 0.66 0 1.32 0 2 C-0.99 2 -1.98 2 -3 2 C-2.67 2.99 -2.34 3.98 -2 5 C-2.99 5.495 -2.99 5.495 -4 6 C-4 5.34 -4 4.68 -4 4 C-5.32 4.33 -6.64 4.66 -8 5 C-7.25 3.0625 -7.25 3.0625 -6 1 C-3.86997684 0.20124132 -2.26695035 0 0 0 Z " fill="#3AC224" transform="translate(301,255)"/>
<path d="M0 0 C1.98 0 3.96 0 6 0 C3.64722731 2.72426311 1.37503669 3.8141763 -2 5 C-1.34 3.35 -0.68 1.7 0 0 Z " fill="#3AAA27" transform="translate(384,234)"/>
<path d="M0 0 C0 1.98 0 3.96 0 6 C-3.465 4.02 -3.465 4.02 -7 2 C-7 1.67 -7 1.34 -7 1 C-2.25 0 -2.25 0 0 0 Z " fill="#27991D" transform="translate(82,213)"/>
<path d="M0 0 C0.33 1.32 0.66 2.64 1 4 C-2.28696233 4.79953138 -3.71023192 5.09658936 -7 4 C-4.69 2.68 -2.38 1.36 0 0 Z " fill="#298B18" transform="translate(260,403)"/>
<path d="M0 0 C2.97 0.495 2.97 0.495 6 1 C5.67 2.32 5.34 3.64 5 5 C3.0625 4.1875 3.0625 4.1875 1 3 C0.67 2.01 0.34 1.02 0 0 Z " fill="#3AD129" transform="translate(207,387)"/>
<path d="M0 0 C0.66 0 1.32 0 2 0 C1 3 1 3 -1.375 4.75 C-4 6 -4 6 -7 5 C-6.67 4.34 -6.34 3.68 -6 3 C-2.9375 2.375 -2.9375 2.375 0 2 C0 1.34 0 0.68 0 0 Z " fill="#2E951F" transform="translate(363,374)"/>
<path d="M0 0 C1.65 0 3.3 0 5 0 C6.60725635 3.21451269 6.05748185 6.43612536 6 10 C5.67 10 5.34 10 5 10 C4.731875 8.906875 4.46375 7.81375 4.1875 6.6875 C3.12336261 3.38307337 2.65345336 2.05039578 0 0 Z " fill="#236D17" transform="translate(399,309)"/>
<path d="M0 0 C1.32 0.66 2.64 1.32 4 2 C2.71034824 3.37562854 1.37310707 4.70766393 0 6 C-0.66 6 -1.32 6 -2 6 C-1.34 4.02 -0.68 2.04 0 0 Z " fill="#27DD13" transform="translate(106,297)"/>
<path d="M0 0 C0.66 0.33 1.32 0.66 2 1 C-1.32307692 4.93846154 -1.32307692 4.93846154 -4.75 5.25 C-5.4925 5.1675 -6.235 5.085 -7 5 C-4.88437775 2.67281553 -2.94982021 1.14186589 0 0 Z " fill="#39D020" transform="translate(95,280)"/>
<path d="M0 0 C6.875 2.75 6.875 2.75 8 5 C6.68 5 5.36 5 4 5 C4 4.34 4 3.68 4 3 C2.35 3 0.7 3 -1 3 C-0.67 2.01 -0.34 1.02 0 0 Z " fill="#2E901E" transform="translate(380,265)"/>
<path d="M0 0 C-2.3125 2.0625 -2.3125 2.0625 -5 4 C-5.99 3.67 -6.98 3.34 -8 3 C-8 2.34 -8 1.68 -8 1 C-5.29120665 -0.35439668 -2.99066732 -0.06501451 0 0 Z " fill="#2F981D" transform="translate(165,145)"/>
<path d="M0 0 C-1.98 1.32 -3.96 2.64 -6 4 C-6.66 3.67 -7.32 3.34 -8 3 C-7.67 2.01 -7.34 1.02 -7 0 C-3.86650268 -1.04449911 -3.01031744 -0.93423645 0 0 Z " fill="#2A851B" transform="translate(221,113)"/>
<path d="M0 0 C1.65 0.33 3.3 0.66 5 1 C4.67 1.66 4.34 2.32 4 3 C1.71484375 3.4140625 1.71484375 3.4140625 -1.0625 3.625 C-1.98160156 3.69976562 -2.90070313 3.77453125 -3.84765625 3.8515625 C-4.55792969 3.90054687 -5.26820313 3.94953125 -6 4 C-6 3.67 -6 3.34 -6 3 C-4.35 3 -2.7 3 -1 3 C-0.67 2.01 -0.34 1.02 0 0 Z " fill="#3ECA2D" transform="translate(259,432)"/>
<path d="M0 0 C1.32 0 2.64 0 4 0 C4 0.66 4 1.32 4 2 C4.99 2.33 5.98 2.66 7 3 C6.67 3.66 6.34 4.32 6 5 C3.5625 4.1875 3.5625 4.1875 1 3 C0.67 2.01 0.34 1.02 0 0 Z " fill="#2E9F1D" transform="translate(215,421)"/>
<path d="M0 0 C1.32 0.33 2.64 0.66 4 1 C1.1875 3.0625 1.1875 3.0625 -2 5 C-2.99 4.67 -3.98 4.34 -5 4 C-5 3.34 -5 2.68 -5 2 C-3.35 2 -1.7 2 0 2 C0 1.34 0 0.68 0 0 Z " fill="#2E931C" transform="translate(375,367)"/>
<path d="M0 0 C2.31 0 4.62 0 7 0 C7.33 1.32 7.66 2.64 8 4 C2.25 2.25 2.25 2.25 0 0 Z " fill="#39B922" transform="translate(139,348)"/>
<path d="M0 0 C0.99 0 1.98 0 3 0 C2.67 1.32 2.34 2.64 2 4 C0.35 4.33 -1.3 4.66 -3 5 C-1.125 1.125 -1.125 1.125 0 0 Z " fill="#39D028" transform="translate(109,299)"/>
<path d="M0 0 C0.66 0.33 1.32 0.66 2 1 C1.67 1.99 1.34 2.98 1 4 C-0.98 4.33 -2.96 4.66 -5 5 C-3.35 3.35 -1.7 1.7 0 0 Z " fill="#2A8B1C" transform="translate(80,287)"/>
<path d="M0 0 C2 2 2 2 2 5 C1.01 5 0.02 5 -1 5 C-1 4.01 -1 3.02 -1 2 C-2.32 2.33 -3.64 2.66 -5 3 C-2.25 0 -2.25 0 0 0 Z " fill="#27A917" transform="translate(285,263)"/>
<path d="M0 0 C0.33 0.99 0.66 1.98 1 3 C-3.455 4.485 -3.455 4.485 -8 6 C-5.37886292 3.37886292 -3.17772443 1.80357333 0 0 Z " fill="#2B8C1C" transform="translate(128,259)"/>
<path d="M0 0 C1.32 0.33 2.64 0.66 4 1 C4 1.66 4 2.32 4 3 C4.66 3 5.32 3 6 3 C6 3.66 6 4.32 6 5 C4.35 4.67 2.7 4.34 1 4 C0.67 2.68 0.34 1.36 0 0 Z " fill="#3CCE2B" transform="translate(363,256)"/>
<path d="M0 0 C0 1.32 0 2.64 0 4 C-2.91517292 2.92598892 -4.77810176 2.22189824 -7 0 C-4.3333581 -1.33332095 -2.83319697 -0.67102033 0 0 Z " fill="#30A61E" transform="translate(102,226)"/>
<path d="M0 0 C1.60031344 3.20062687 0.03173691 5.72271806 -1 9 C-1.66 9 -2.32 9 -3 9 C-2.5020163 5.26512223 -2.12508244 3.18762365 0 0 Z " fill="#2D931F" transform="translate(71,169)"/>
<path d="M0 0 C2.31 0 4.62 0 7 0 C7 1.32 7 2.64 7 4 C4.08482708 2.92598892 2.22189824 2.22189824 0 0 Z " fill="#309B22" transform="translate(345,151)"/>
<path d="M0 0 C6.75 0.75 6.75 0.75 9 3 C7.3125 3.6875 7.3125 3.6875 5 4 C2.25 2.625 2.25 2.625 0 1 C0 0.67 0 0.34 0 0 Z " fill="#2C8E1F" transform="translate(333,144)"/>
<path d="M0 0 C2.64 0.33 5.28 0.66 8 1 C8.33 1.99 8.66 2.98 9 4 C5.17902761 3.46930939 2.93828597 2.50298434 0 0 Z " fill="#32A21F" transform="translate(307,129)"/>
<path d="M0 0 C0.99 0 1.98 0 3 0 C3 0.66 3 1.32 3 2 C4.65 2 6.3 2 8 2 C8 2.66 8 3.32 8 4 C6.25 4.75 6.25 4.75 4 5 C1.75 3.125 1.75 3.125 0 1 C0 0.67 0 0.34 0 0 Z " fill="#3AD322" transform="translate(331,113)"/>
<path d="M0 0 C-2.3125 2.0625 -2.3125 2.0625 -5 4 C-5.99 3.67 -6.98 3.34 -8 3 C-8 2.34 -8 1.68 -8 1 C-2.25 -1.125 -2.25 -1.125 0 0 Z " fill="#319F20" transform="translate(292,418)"/>
<path d="M0 0 C0.33 0.66 0.66 1.32 1 2 C1.99 2 2.98 2 4 2 C3.67 3.32 3.34 4.64 3 6 C2.01 5.67 1.02 5.34 0 5 C0 4.01 0 3.02 0 2 C-0.66 1.67 -1.32 1.34 -2 1 C-1.34 0.67 -0.68 0.34 0 0 Z " fill="#2BC016" transform="translate(346,353)"/>
<path d="M0 0 C0 0.66 0 1.32 0 2 C0.66 2 1.32 2 2 2 C1.67 2.99 1.34 3.98 1 5 C0.01 5 -0.98 5 -2 5 C-2 4.01 -2 3.02 -2 2 C-2.66 1.67 -3.32 1.34 -4 1 C-2 0 -2 0 0 0 Z " fill="#27B914" transform="translate(375,337)"/>
<path d="M0 0 C1.8871875 0.061875 1.8871875 0.061875 3.8125 0.125 C3.8125 0.455 3.8125 0.785 3.8125 1.125 C-3.61607143 3.26785714 -3.61607143 3.26785714 -7.1875 4.125 C-7.1875 3.465 -7.1875 2.805 -7.1875 2.125 C-4.09861478 0.06574319 -3.47814073 -0.1140374 0 0 Z " fill="#27761A" transform="translate(167.1875,269.875)"/>
<path d="M0 0 C3.82097239 0.53069061 6.06171403 1.49701566 9 4 C8.01 4.33 7.02 4.66 6 5 C6 4.34 6 3.68 6 3 C3.03 2.505 3.03 2.505 0 2 C0 1.34 0 0.68 0 0 Z " fill="#3DA829" transform="translate(202,257)"/>
<path d="M0 0 C1.98 0 3.96 0 6 0 C3.44008376 2.01136276 0.95409701 3.62845496 -2 5 C-2 4.01 -2 3.02 -2 2 C-1.34 2 -0.68 2 0 2 C0 1.34 0 0.68 0 0 Z " fill="#30851F" transform="translate(108,175)"/>
<path d="M0 0 C0.66 0.33 1.32 0.66 2 1 C1.34 2.32 0.68 3.64 0 5 C-1.65 4.67 -3.3 4.34 -5 4 C-3.35 2.68 -1.7 1.36 0 0 Z " fill="#2A9218" transform="translate(141,125)"/>
<path d="M0 0 C2.31 0 4.62 0 7 0 C2.25 4 2.25 4 0 4 C0 2.68 0 1.36 0 0 Z " fill="#29891B" transform="translate(196,123)"/>
</svg>
