<?xml version="1.0" encoding="UTF-8" standalone="no"?>
<svg
   width="64"
   height="64"
   viewBox="0 0 64 64"
   version="1.1"
   id="svg10"
   sodipodi:docname="battery-unknown.svg"
   inkscape:version="1.2.2 (b0a8486541, 2022-12-01)"
   xmlns:inkscape="http://www.inkscape.org/namespaces/inkscape"
   xmlns:sodipodi="http://sodipodi.sourceforge.net/DTD/sodipodi-0.dtd"
   xmlns="http://www.w3.org/2000/svg"
   xmlns:svg="http://www.w3.org/2000/svg"
   xmlns:rdf="http://www.w3.org/1999/02/22-rdf-syntax-ns#"
   xmlns:cc="http://creativecommons.org/ns#"
   xmlns:dc="http://purl.org/dc/elements/1.1/">
  <metadata
     id="metadata16">
    <rdf:RDF>
      <cc:Work
         rdf:about="">
        <dc:format>image/svg+xml</dc:format>
        <dc:type
           rdf:resource="http://purl.org/dc/dcmitype/StillImage" />
        <dc:title>folder</dc:title>
      </cc:Work>
    </rdf:RDF>
  </metadata>
  <defs
     id="defs14" />
  <sodipodi:namedview
     pagecolor="#bfbfbf"
     bordercolor="#666666"
     borderopacity="1"
     objecttolerance="10"
     gridtolerance="10"
     guidetolerance="10"
     inkscape:pageopacity="0"
     inkscape:pageshadow="2"
     inkscape:window-width="1600"
     inkscape:window-height="828"
     id="namedview12"
     showgrid="false"
     inkscape:pagecheckerboard="false"
     inkscape:zoom="10.827586"
     inkscape:cx="25.813695"
     inkscape:cy="34.541402"
     inkscape:window-x="0"
     inkscape:window-y="0"
     inkscape:window-maximized="1"
     inkscape:current-layer="svg10"
     inkscape:snap-bbox="true"
     inkscape:snap-bbox-edge-midpoints="true"
     inkscape:document-rotation="0"
     inkscape:showpageshadow="2"
     inkscape:deskcolor="#bfbfbf"
     showguides="true" />
  <!-- Generator: Sketch 52.5 (67469) - http://www.bohemiancoding.com/sketch -->
  <title
     id="title2">folder</title>
  <desc
     id="desc4">Created with Sketch.</desc>
  <path
     d="M 46,10.579999 C 46,9.984999 45.798634,9.4863661 45.3959,9.0841 44.993634,8.681366 44.495,8.479999 43.9,8.479999 H 37.600001 V 4 H 26.4 v 4.479999 h -6.3 c -0.595,0 -1.093866,0.201367 -1.4966,0.604101 C 18.201134,9.486366 18,9.984999 18,10.579999 V 57.9 c 0,0.595 0.201134,1.093866 0.6034,1.4966 C 19.006134,59.798866 19.505,60 20.1,60 h 23.8 c 0.595,0 1.093634,-0.201134 1.4959,-0.6034 C 45.798634,58.993866 46,58.495 46,57.9 Z M 41.8,12.68 V 55.8 H 22.2 V 12.68 Z"
     id="path182"
     style="fill:#ffffff;fill-opacity:1;stroke-width:0.05"
     sodipodi:nodetypes="scsccccsssscsssssccccc" />
  <path
     d="m 38.612307,33.701539 -1.938461,1.981538 c -1.163077,1.163077 -1.981539,2.175385 -2.326154,3.941538 H 29.953846 C 30.190769,37.686154 31.052307,35.92 32.366154,34.606154 l 2.670769,-2.713846 c 0.796924,-0.775385 1.27077,-1.852308 1.27077,-3.036923 0,-2.39077 -1.938463,-4.307693 -4.307692,-4.307693 -2.379072,0 -4.307693,1.928621 -4.307693,4.307693 H 23.384615 C 23.384615,24.097239 27.241854,20.24 32,20.24 c 4.758145,0 8.615385,3.857239 8.615385,8.615385 0,1.895384 -0.775384,3.618461 -2.003078,4.846154 M 34.153846,48.24 h -4.307692 v -4.307692 h 4.307692"
     style="font-variation-settings:normal;vector-effect:none;fill:#ff0000;fill-opacity:1;stroke-width:0.0500001;stroke-linecap:butt;stroke-linejoin:miter;stroke-miterlimit:4;stroke-dasharray:none;stroke-dashoffset:0;stroke-opacity:1;-inkscape-stroke:none;stop-color:#000000"
     id="path1360"
     sodipodi:nodetypes="ccccccssccssccccc" />
</svg>
