<?xml version='1.0' encoding='iso-8859-1'?>
<!DOCTYPE svg PUBLIC '-//W3C//DTD SVG 1.1//EN' 'http://www.w3.org/Graphics/SVG/1.1/DTD/svg11.dtd'>
<svg version="1.1" xmlns="http://www.w3.org/2000/svg" viewBox="0 0 223.708 223.708" xmlns:xlink="http://www.w3.org/1999/xlink">
  <g style="fill:#FFFFFF">
    <path d="m222.399,60.893c-1.276-1.782-3.314-2.863-5.505-2.922l-20.248-.539 2.301-7.406c1.147-3.692-0.916-7.615-4.607-8.762l-124.146-38.574c-3.694-1.151-7.614,0.916-8.761,4.607l-19.287,62.073c-1.147,3.692 0.916,7.615 4.607,8.762l25.148,7.814-4.154,13.37c-0.551,1.773-0.375,3.692 0.489,5.335 0.864,1.643 2.345,2.875 4.118,3.426l11.424,3.55-28.371,45.868c-4.106-1.812-8.639-2.825-13.407-2.825h-35c-3.866,0-7,3.134-7,7v52.667c0,3.866 3.134,7 7,7h35c18.38,0 33.333-14.953 33.333-33.333 0-8.571-3.254-16.395-8.588-22.307 0.132-0.174 0.265-0.347 0.382-0.536l30.459-49.243 14.876,4.622c0.692,0.215 1.391,0.317 2.079,0.317 2.985,0 5.75-1.925 6.683-4.925l4.154-13.37 45.52,14.144c0.679,0.211 1.379,0.315 2.077,0.315 1.125,0 2.244-0.271 3.258-0.805 1.643-0.864 2.875-2.345 3.426-4.118l2.301-7.406 16.989,11.031c1.149,0.746 2.476,1.129 3.813,1.129 0.801,0 1.606-0.138 2.379-0.417 2.062-0.745 3.655-2.413 4.305-4.506l13.946-44.883c0.651-2.093 0.283-4.371-0.993-6.153zm-208.399,107.776h9.333v38.667h-9.333v-38.667zm28,38.667h-4.667v-38.667h4.667c10.66,0 19.333,8.673 19.333,19.333s-8.673,19.334-19.333,19.334zm67.932-102.243l-26.739-8.309 2.077-6.685 26.739,8.309-2.077,6.685zm58.436-3.833l-110.776-34.421 15.133-48.703 110.776,34.42-2.967,9.549-9.199,29.604c0,0.002-0.001,0.003-0.001,0.005l-2.966,9.546zm30.452-2.313l-12.543-8.144 6.053-19.481 14.95,.398-8.46,27.227z"/>
    <path d="m74.084,51.697c-1.84,0-3.65,0.75-4.95,2.05-1.3,1.31-2.05,3.11-2.05,4.95s0.75,3.65 2.05,4.95c1.3,1.31 3.11,2.05 4.95,2.05 1.84,0 3.65-0.74 4.95-2.05 1.3-1.3 2.05-3.11 2.05-4.95s-0.75-3.64-2.05-4.95c-1.3-1.3-3.11-2.05-4.95-2.05z"/>
  </g>
</svg>
