<?xml version="1.0" encoding="UTF-8" standalone="no"?>
<svg
   xmlns:dc="http://purl.org/dc/elements/1.1/"
   xmlns:cc="http://creativecommons.org/ns#"
   xmlns:rdf="http://www.w3.org/1999/02/22-rdf-syntax-ns#"
   xmlns:svg="http://www.w3.org/2000/svg"
   xmlns="http://www.w3.org/2000/svg"
   xmlns:sodipodi="http://sodipodi.sourceforge.net/DTD/sodipodi-0.dtd"
   xmlns:inkscape="http://www.inkscape.org/namespaces/inkscape"
   width="64"
   height="64"
   viewBox="0 0 64 64"
   version="1.1"
   id="svg10"
   sodipodi:docname="cancel.svg"
   inkscape:version="1.0.2 (e86c870879, 2021-01-15, custom)">
  <metadata
     id="metadata16">
    <rdf:RDF>
      <cc:Work
         rdf:about="">
        <dc:format>image/svg+xml</dc:format>
        <dc:type
           rdf:resource="http://purl.org/dc/dcmitype/StillImage" />
        <dc:title>folder</dc:title>
      </cc:Work>
    </rdf:RDF>
  </metadata>
  <defs
     id="defs14" />
  <sodipodi:namedview
     pagecolor="#bfbfbf"
     bordercolor="#666666"
     borderopacity="1"
     objecttolerance="10"
     gridtolerance="10"
     guidetolerance="10"
     inkscape:pageopacity="0"
     inkscape:pageshadow="2"
     inkscape:window-width="1600"
     inkscape:window-height="837"
     id="namedview12"
     showgrid="false"
     inkscape:pagecheckerboard="false"
     inkscape:zoom="5.4137931"
     inkscape:cx="22.518245"
     inkscape:cy="36.93885"
     inkscape:window-x="-8"
     inkscape:window-y="-8"
     inkscape:window-maximized="1"
     inkscape:current-layer="svg10"
     inkscape:snap-bbox="true"
     inkscape:snap-bbox-edge-midpoints="true"
     inkscape:document-rotation="0" />
  <!-- Generator: Sketch 52.5 (67469) - http://www.bohemiancoding.com/sketch -->
  <title
     id="title2">folder</title>
  <desc
     id="desc4">Created with Sketch.</desc>
  <path
     id="rect891"
     style="fill:none;fill-opacity:1;stroke:#ffffff;stroke-width:4;stroke-linecap:round;stroke-miterlimit:4;stroke-dasharray:none;stroke-opacity:1;stop-color:#000000"
     d="M 46.857422 7.1621094 C 46.346184 7.1621094 45.835097 7.3582628 45.443359 7.75 L 31.816406 21.375 L 19.056641 8.6152344 C 18.273166 7.8317601 17.01199 7.8317601 16.228516 8.6152344 L 8.6152344 16.228516 C 7.8317601 17.01199 7.8317601 18.273166 8.6152344 19.056641 L 21.375 31.816406 L 7.75 45.443359 C 6.9665257 46.226834 6.9665257 47.48801 7.75 48.271484 L 15.728516 56.25 C 16.51199 57.033474 17.773166 57.033474 18.556641 56.25 L 32.183594 42.625 L 44.943359 55.384766 C 45.726834 56.16824 46.98801 56.16824 47.771484 55.384766 L 55.384766 47.771484 C 56.16824 46.98801 56.16824 45.726834 55.384766 44.943359 L 42.625 32.183594 L 56.25 18.556641 C 57.033474 17.773166 57.033474 16.51199 56.25 15.728516 L 48.271484 7.75 C 47.879747 7.3582628 47.36866 7.1621094 46.857422 7.1621094 z " />
</svg>
