<?xml version="1.0" encoding="UTF-8"?>
<svg width="58px" height="58px" viewBox="0 0 58 58" version="1.1" xmlns="http://www.w3.org/2000/svg" xmlns:xlink="http://www.w3.org/1999/xlink">
    <!-- Generator: Sketch 52.5 (67469) - http://www.bohemiancoding.com/sketch -->
    <title>complete</title>
    <desc>Created with Sketch.</desc>
    <g id="Page-1" stroke="none" stroke-width="1" fill="none" fill-rule="evenodd">
        <g id="Artboard" transform="translate(-470.000000, -363.000000)" fill="#FFFFFF" fill-rule="nonzero">
            <g id="complete" transform="translate(470.000000, 363.000000)">
                <path d="M12.3333333,4 C7.6923369,4 4,7.6923369 4,12.3333333 L4,45.6666667 C4,50.3076643 7.6923369,54 12.3333333,54 L45.6666667,54 C50.3076643,54 54,50.3076643 54,45.6666667 L54,17.0952381 L51.6190476,19.8482143 L51.6190476,45.6666667 C51.6190476,49.0009298 49.0009298,51.6190476 45.6666667,51.6190476 L12.3333333,51.6190476 C8.99907024,51.6190476 6.38095238,49.0009298 6.38095238,45.6666667 L6.38095238,12.3333333 C6.38095238,8.99907024 8.99907024,6.38095238 12.3333333,6.38095238 L43.7693452,6.38095238 L45.6666667,4 L12.3333333,4 Z M50.7261905,8.46428571 L27.6979167,35.6220238 L18.0252976,26.5818452 L16.3883929,28.3303571 L26.9910714,38.1889881 L27.921131,39.0446429 L28.702381,38.1145833 L52.5119048,9.98958333 L50.7261905,8.46428571 Z" id="Shape"></path>
            </g>
        </g>
    </g>
</svg>