<?xml version="1.0" encoding="UTF-8"?>
<svg width="69px" height="68px" viewBox="0 0 69 68" version="1.1" xmlns="http://www.w3.org/2000/svg" xmlns:xlink="http://www.w3.org/1999/xlink">
    <!-- Generator: Sketch 52.5 (67469) - http://www.bohemiancoding.com/sketch -->
    <title>file</title>
    <desc>Created with Sketch.</desc>
    <g id="Page-1" stroke="none" stroke-width="1" fill="none" fill-rule="evenodd">
        <g id="Artboard" transform="translate(-266.000000, -300.000000)" fill="#FFFFFF" fill-rule="nonzero">
            <g id="Group" transform="translate(275.000000, 300.000000)">
                <g id="computing-script" transform="translate(0.000000, 0.000000)">
                    <path d="M49.5047349,19.7137323 L32.8710509,0.33802227 C32.6869428,0.123094815 32.4195016,0 32.1375254,0 L8.72091084,0 C3.912782,0 0,3.94489574 0,8.79248679 L0,53.8950132 C0,58.7426043 3.912782,62.6875 8.72091084,62.6875 L41.0202576,62.6875 C45.8283865,62.6875 49.7411685,58.7426043 49.7411685,53.8950132 L49.7411685,20.352653 C49.7411685,20.1181867 49.6578353,19.891536 49.5047349,19.7137323 Z M33.1065155,3.59808098 L46.6520281,19.3757101 L39.8894462,19.3757101 C36.1491444,19.3757101 33.1065155,16.3081091 33.1065155,12.5371092 L33.1065155,3.59808098 Z M41.0202576,60.733614 L8.72091084,60.733614 C4.98060908,60.733614 1.93798019,57.6660131 1.93798019,53.8950132 L1.93798019,8.79248679 C1.93798019,5.0214869 4.98060908,1.95388595 8.72091084,1.95388595 L31.1695043,1.95388595 L31.1695043,12.5371092 C31.1695043,17.3847003 35.0822863,21.329596 39.8904152,21.329596 L47.8041573,21.329596 L47.8041573,53.8940363 C47.8031883,57.6660131 44.7605594,60.733614 41.0202576,60.733614 Z M18.7732141,27.4755443 L12.4466778,33.854005 L18.7732141,40.2324657 C19.1520892,40.6144504 19.1520892,41.2318783 18.7732141,41.613863 C18.584261,41.8043669 18.3361995,41.9001073 18.0881381,41.9001073 C17.8400766,41.9001073 17.5920152,41.8043669 17.4030621,41.613863 L10.3904808,34.5447037 C10.0116056,34.162719 10.0116056,33.545291 10.3904808,33.1633063 L17.4020931,26.0941469 C17.7809682,25.7121622 18.39337,25.7121622 18.7722451,26.0941469 C19.1511202,26.4761316 19.1511202,27.0935596 18.7732141,27.4755443 Z M39.3506877,33.1633063 C39.7295628,33.545291 39.7295628,34.162719 39.3506877,34.5447037 L32.3390754,41.613863 C32.1501223,41.8043669 31.9020609,41.9001073 31.6539994,41.9001073 C31.4059379,41.9001073 31.1578765,41.8043669 30.9689234,41.613863 C30.5900483,41.2318783 30.5900483,40.6144504 30.9689234,40.2324657 L37.2954597,33.854005 L30.9689234,27.4755443 C30.5900483,27.0935596 30.5900483,26.4761316 30.9689234,26.0941469 C31.3477985,25.7121622 31.9602003,25.7121622 32.3390754,26.0941469 L39.3506877,33.1633063 Z" id="Shape"></path>
                </g>
                <g id="play-sign" transform="translate(24.437500, 37.187500)">
                    <path d="M28.746843,7.67287699 C27.3691294,5.31261872 25.5003489,3.44384671 23.1400096,2.06620966 C20.7792487,0.68864287 18.2021486,0 15.4067418,0 C12.6116161,0 10.0340242,0.68864287 7.67340382,2.06620966 C5.312924,3.44363593 3.44414347,5.31240793 2.06642987,7.67287699 C0.688646011,10.0334866 0,12.6113478 0,15.40625 C0,18.2011522 0.6888568,20.7787324 2.06621908,23.1394825 C3.44386242,25.4992489 5.31264295,27.3685128 7.67312277,28.7462903 C10.0337431,30.1237869 12.6114054,30.8125 15.4064608,30.8125 C18.2015162,30.8125 20.7794595,30.1237869 23.1399393,28.7462903 C25.5002786,27.3690046 27.3689889,25.4997408 28.746562,23.1394825 C30.1239243,20.7787324 30.8125,18.2009414 30.8125,15.40625 C30.8125703,12.6113478 30.1239243,10.0331353 28.746843,7.67287699 Z M23.256241,16.515904 L12.6550559,22.9291849 C12.460118,23.0492882 12.2522114,23.109375 12.0314729,23.109375 C11.8236346,23.109375 11.6157963,23.0557461 11.4079581,22.9489096 C10.9922815,22.6952255 10.784375,22.321438 10.784375,21.8268452 L10.784375,9.00091529 C10.784375,8.50667346 10.9922815,8.132535 11.4079581,7.87871048 C11.8366032,7.63815278 12.2522114,7.64475109 12.6550559,7.89864581 L23.256241,14.3116459 C23.671781,14.551993 23.8796875,14.9197437 23.8796875,15.4139153 C23.8796875,15.9081572 23.671781,16.2752059 23.256241,16.515904 Z" id="Shape"></path>
                </g>
            </g>
        </g>
    </g>
</svg>