<svg id="Capa_1" enable-background="new 0 0 512 512" height="512" viewBox="0 0 512 512" width="512" xmlns="http://www.w3.org/2000/svg">
    <g style="fill:#ffffff;">
        <path d="m256 441.142c8.284 0 15-6.716 15-15v-201.409c0-8.284-6.716-15-15-15s-15 6.716-15 15v201.409c0 8.284 6.716 15 15 15z"/>
        <path d="m173.412 427.552c.78 8.263 8.115 14.303 16.344 13.523 8.248-.779 14.302-8.096 13.523-16.344l-19.018-201.409c-.779-8.247-8.083-14.303-16.344-13.523-8.248.779-14.302 8.096-13.523 16.344z"/>
        <path d="m322.244 441.076c8.238.779 15.564-5.269 16.344-13.523l19.018-201.409c.779-8.248-5.276-15.565-13.523-16.344-8.26-.784-15.565 5.276-16.344 13.523l-19.018 201.409c-.779 8.247 5.276 15.565 13.523 16.344z"/>
        <path d="m57.646 168.875h8.967l43.448 330.083c.982 7.463 7.344 13.042 14.872 13.042h262.135c7.528 0 13.889-5.579 14.872-13.042l43.448-330.083h8.967c8.284 0 15-6.716 15-15v-65.629c0-8.284-6.716-15-15-15h-128.357v-5.911c0-37.128-30.207-67.335-67.335-67.335h-5.325c-37.128 0-67.335 30.207-67.335 67.335v5.911h-128.357c-8.284 0-15 6.716-15 15v65.629c0 8.284 6.715 15 15 15zm316.267 313.125h-235.826l-41.215-313.125h318.257zm-157.911-414.665c0-20.586 16.749-37.335 37.335-37.335h5.325c20.586 0 37.335 16.749 37.335 37.335v5.911h-79.995zm-143.356 35.911h366.709v35.629c-3.207 0-362.709 0-366.709 0z"/>
    </g>
</svg>
