<?xml version="1.0" encoding="UTF-8" standalone="no"?>
<svg
   width="64"
   height="64"
   viewBox="0 0 64 64"
   version="1.1"
   id="svg10"
   sodipodi:docname="extruder-6.svg"
   inkscape:version="1.3 (0e150ed6c4, 2023-07-21)"
   xmlns:inkscape="http://www.inkscape.org/namespaces/inkscape"
   xmlns:sodipodi="http://sodipodi.sourceforge.net/DTD/sodipodi-0.dtd"
   xmlns="http://www.w3.org/2000/svg"
   xmlns:svg="http://www.w3.org/2000/svg"
   xmlns:rdf="http://www.w3.org/1999/02/22-rdf-syntax-ns#"
   xmlns:cc="http://creativecommons.org/ns#"
   xmlns:dc="http://purl.org/dc/elements/1.1/">
  <metadata
     id="metadata16">
    <rdf:RDF>
      <cc:Work
         rdf:about="">
        <dc:format>image/svg+xml</dc:format>
        <dc:type
           rdf:resource="http://purl.org/dc/dcmitype/StillImage" />
        <dc:title>folder</dc:title>
      </cc:Work>
    </rdf:RDF>
  </metadata>
  <defs
     id="defs14" />
  <sodipodi:namedview
     pagecolor="#bfbfbf"
     bordercolor="#666666"
     borderopacity="1"
     objecttolerance="10"
     gridtolerance="10"
     guidetolerance="10"
     inkscape:pageopacity="0"
     inkscape:pageshadow="2"
     inkscape:window-width="1600"
     inkscape:window-height="827"
     id="namedview12"
     showgrid="false"
     inkscape:pagecheckerboard="false"
     inkscape:zoom="7.6562596"
     inkscape:cx="30.628533"
     inkscape:cy="36.244852"
     inkscape:window-x="0"
     inkscape:window-y="0"
     inkscape:window-maximized="1"
     inkscape:current-layer="svg10"
     inkscape:snap-bbox="true"
     inkscape:snap-bbox-edge-midpoints="true"
     inkscape:document-rotation="0"
     inkscape:showpageshadow="0"
     inkscape:deskcolor="#d1d1d1"
     showguides="true" />
  <!-- Generator: Sketch 52.5 (67469) - http://www.bohemiancoding.com/sketch -->
  <title
     id="title2">folder</title>
  <desc
     id="desc4">Created with Sketch.</desc>
  <path
     id="path1"
     style="color:#000000;fill:#ffffff;fill-rule:evenodd;stroke-width:1;-inkscape-stroke:none"
     d="M 32 9.6445312 C 22.887311 9.6445318 15.5 17.031842 15.5 26.144531 C 15.5 35.25722 22.88731 42.64453 32 42.644531 C 41.11269 42.64453 48.5 35.25722 48.5 26.144531 C 48.5 17.031842 41.112689 9.6445318 32 9.6445312 z M 32.400391 15.759766 C 34.109588 15.759766 35.455948 16.13824 36.439453 16.892578 C 37.432506 17.646917 38.134332 18.815324 38.544922 20.400391 L 34.75 20.931641 C 34.387154 19.604387 33.574868 18.939453 32.314453 18.939453 C 31.235463 18.939453 30.386284 19.479603 29.765625 20.558594 C 29.154516 21.637584 28.849609 23.274527 28.849609 25.470703 C 29.279296 24.754559 29.874785 24.206162 30.638672 23.824219 C 31.402559 23.442275 32.268014 23.251953 33.232422 23.251953 C 35.037105 23.251953 36.463327 23.824872 37.513672 24.970703 C 38.564017 26.116534 39.089844 27.671663 39.089844 29.638672 C 39.089844 31.787105 38.488278 33.473093 37.285156 34.695312 C 36.082034 35.917532 34.420568 36.529297 32.300781 36.529297 C 29.923182 36.529297 28.093964 35.698564 26.814453 34.037109 C 25.54449 32.366106 24.910156 29.892354 24.910156 26.617188 C 24.910156 23.017369 25.554691 20.310326 26.84375 18.496094 C 28.142359 16.672313 29.994146 15.759766 32.400391 15.759766 z M 32.072266 26.216797 C 31.184247 26.216797 30.472221 26.503256 29.9375 27.076172 C 29.402779 27.639539 29.134766 28.388456 29.134766 29.324219 C 29.134766 30.498695 29.412977 31.472658 29.966797 32.246094 C 30.530164 33.009981 31.264759 33.392578 32.171875 33.392578 C 33.078991 33.392578 33.784939 33.071396 34.291016 32.431641 C 34.79709 31.782337 35.050781 30.890188 35.050781 29.753906 C 35.050781 28.608075 34.782768 27.734374 34.248047 27.132812 C 33.722874 26.521702 32.998479 26.216797 32.072266 26.216797 z " />
  <path
     style="fill:none;fill-opacity:1;stroke:#ffffff;stroke-width:3;stroke-linecap:round;stroke-linejoin:round;stroke-miterlimit:4;stroke-dasharray:none;stroke-opacity:1"
     d="M 20.327052,56.986395 10.210495,55.034337 V 44.102811 l 2.723688,-3.904116 V 19.897289 l -2.723688,-4.68494 V 5.8424699 L 14.490576,3.5 h 6.614672 l 2.33459,3.1232932 H 40.560162 L 42.894752,3.5 h 6.614672 l 4.280081,2.3424699 v 9.3698791 l -2.723688,4.68494 v 20.301406 l 2.723688,3.904116 V 55.034337 L 43.672948,56.986395 40.560162,53.472691 H 23.439838 l -3.112786,3.513704"
     id="path943" />
  <path
     style="fill:#000000;fill-opacity:0;stroke:#ffffff;stroke-width:3;stroke-linecap:round;stroke-linejoin:round;stroke-miterlimit:4;stroke-dasharray:none;stroke-opacity:1"
     d="M 24.996231,58.377 H 39.003769"
     id="path945" />
  <path
     style="fill:#000000;fill-opacity:0;stroke:#ffffff;stroke-width:3;stroke-linecap:round;stroke-linejoin:round;stroke-miterlimit:4;stroke-dasharray:none;stroke-opacity:1"
     d="M 29.66541,58.377 32,61.500293 34.334589,58.377"
     id="path947" />
</svg>
