<?xml version="1.0" encoding="UTF-8" standalone="no"?>
<svg
   width="64"
   height="64"
   viewBox="0 0 64 64"
   version="1.1"
   id="svg10"
   sodipodi:docname="extruder-2.svg"
   inkscape:version="1.3 (0e150ed6c4, 2023-07-21)"
   xmlns:inkscape="http://www.inkscape.org/namespaces/inkscape"
   xmlns:sodipodi="http://sodipodi.sourceforge.net/DTD/sodipodi-0.dtd"
   xmlns="http://www.w3.org/2000/svg"
   xmlns:svg="http://www.w3.org/2000/svg"
   xmlns:rdf="http://www.w3.org/1999/02/22-rdf-syntax-ns#"
   xmlns:cc="http://creativecommons.org/ns#"
   xmlns:dc="http://purl.org/dc/elements/1.1/">
  <metadata
     id="metadata16">
    <rdf:RDF>
      <cc:Work
         rdf:about="">
        <dc:format>image/svg+xml</dc:format>
        <dc:type
           rdf:resource="http://purl.org/dc/dcmitype/StillImage" />
        <dc:title>folder</dc:title>
      </cc:Work>
    </rdf:RDF>
  </metadata>
  <defs
     id="defs14" />
  <sodipodi:namedview
     pagecolor="#bfbfbf"
     bordercolor="#666666"
     borderopacity="1"
     objecttolerance="10"
     gridtolerance="10"
     guidetolerance="10"
     inkscape:pageopacity="0"
     inkscape:pageshadow="2"
     inkscape:window-width="1600"
     inkscape:window-height="827"
     id="namedview12"
     showgrid="false"
     inkscape:pagecheckerboard="false"
     inkscape:zoom="7.6562596"
     inkscape:cx="30.628533"
     inkscape:cy="36.244852"
     inkscape:window-x="0"
     inkscape:window-y="0"
     inkscape:window-maximized="1"
     inkscape:current-layer="svg10"
     inkscape:snap-bbox="true"
     inkscape:snap-bbox-edge-midpoints="true"
     inkscape:document-rotation="0"
     inkscape:showpageshadow="0"
     inkscape:deskcolor="#d1d1d1"
     showguides="true" />
  <!-- Generator: Sketch 52.5 (67469) - http://www.bohemiancoding.com/sketch -->
  <title
     id="title2">folder</title>
  <desc
     id="desc4">Created with Sketch.</desc>
  <path
     id="path1"
     style="color:#000000;fill:#ffffff;fill-rule:evenodd;stroke-width:1;-inkscape-stroke:none"
     d="M 32 9.6445312 C 22.887311 9.6445318 15.5 17.031842 15.5 26.144531 C 15.5 35.25722 22.88731 42.64453 32 42.644531 C 41.11269 42.64453 48.5 35.25722 48.5 26.144531 C 48.5 17.031842 41.112689 9.6445318 32 9.6445312 z M 31.986328 15.904297 C 34.163407 15.904297 35.833119 16.399524 36.998047 17.392578 C 38.162975 18.385631 38.746094 19.781036 38.746094 21.576172 C 38.746094 22.521482 38.559895 23.374785 38.1875 24.138672 C 37.815105 24.902559 37.338323 25.610462 36.755859 26.259766 C 36.173395 26.899521 35.522785 27.501086 34.806641 28.064453 C 34.100045 28.627821 33.412542 29.176217 32.744141 29.710938 C 32.075739 30.245658 31.465927 30.785808 30.912109 31.330078 C 30.36784 31.874348 29.96072 32.455513 29.693359 33.076172 L 39.060547 33.076172 L 39.060547 36.384766 L 24.939453 36.384766 L 24.939453 33.591797 C 25.464626 32.436417 26.20942 31.310978 27.173828 30.212891 C 28.147784 29.114802 29.369361 27.968965 30.839844 26.775391 C 32.253036 25.62956 33.241321 24.684243 33.804688 23.939453 C 34.377603 23.194663 34.664062 22.464191 34.664062 21.748047 C 34.664062 19.991107 33.780161 19.111328 32.013672 19.111328 C 31.154299 19.111328 30.495442 19.346572 30.037109 19.814453 C 29.588326 20.272785 29.297743 20.964412 29.164062 21.890625 L 25.111328 21.662109 C 25.340495 19.790586 26.036244 18.362411 27.201172 17.378906 C 28.375648 16.395401 29.971575 15.904297 31.986328 15.904297 z " />
  <path
     style="fill:none;fill-opacity:1;stroke:#ffffff;stroke-width:3;stroke-linecap:round;stroke-linejoin:round;stroke-miterlimit:4;stroke-dasharray:none;stroke-opacity:1"
     d="M 20.327052,56.986395 10.210495,55.034337 V 44.102811 l 2.723688,-3.904116 V 19.897289 l -2.723688,-4.68494 V 5.8424699 L 14.490576,3.5 h 6.614672 l 2.33459,3.1232932 H 40.560162 L 42.894752,3.5 h 6.614672 l 4.280081,2.3424699 v 9.3698791 l -2.723688,4.68494 v 20.301406 l 2.723688,3.904116 V 55.034337 L 43.672948,56.986395 40.560162,53.472691 H 23.439838 l -3.112786,3.513704"
     id="path943" />
  <path
     style="fill:#000000;fill-opacity:0;stroke:#ffffff;stroke-width:3;stroke-linecap:round;stroke-linejoin:round;stroke-miterlimit:4;stroke-dasharray:none;stroke-opacity:1"
     d="M 24.996231,58.377 H 39.003769"
     id="path945" />
  <path
     style="fill:#000000;fill-opacity:0;stroke:#ffffff;stroke-width:3;stroke-linecap:round;stroke-linejoin:round;stroke-miterlimit:4;stroke-dasharray:none;stroke-opacity:1"
     d="M 29.66541,58.377 32,61.500293 34.334589,58.377"
     id="path947" />
</svg>
