<?xml version="1.0" encoding="UTF-8" standalone="no"?>
<svg
   width="64"
   height="64"
   viewBox="0 0 64 64"
   version="1.1"
   id="svg10"
   sodipodi:docname="extruder-0.svg"
   inkscape:version="1.3 (0e150ed6c4, 2023-07-21)"
   xmlns:inkscape="http://www.inkscape.org/namespaces/inkscape"
   xmlns:sodipodi="http://sodipodi.sourceforge.net/DTD/sodipodi-0.dtd"
   xmlns="http://www.w3.org/2000/svg"
   xmlns:svg="http://www.w3.org/2000/svg"
   xmlns:rdf="http://www.w3.org/1999/02/22-rdf-syntax-ns#"
   xmlns:cc="http://creativecommons.org/ns#"
   xmlns:dc="http://purl.org/dc/elements/1.1/">
  <metadata
     id="metadata16">
    <rdf:RDF>
      <cc:Work
         rdf:about="">
        <dc:format>image/svg+xml</dc:format>
        <dc:type
           rdf:resource="http://purl.org/dc/dcmitype/StillImage" />
        <dc:title>folder</dc:title>
      </cc:Work>
    </rdf:RDF>
  </metadata>
  <defs
     id="defs14" />
  <sodipodi:namedview
     pagecolor="#bfbfbf"
     bordercolor="#666666"
     borderopacity="1"
     objecttolerance="10"
     gridtolerance="10"
     guidetolerance="10"
     inkscape:pageopacity="0"
     inkscape:pageshadow="2"
     inkscape:window-width="1600"
     inkscape:window-height="827"
     id="namedview12"
     showgrid="false"
     inkscape:pagecheckerboard="false"
     inkscape:zoom="7.6562596"
     inkscape:cx="30.628533"
     inkscape:cy="22.008136"
     inkscape:window-x="0"
     inkscape:window-y="0"
     inkscape:window-maximized="1"
     inkscape:current-layer="svg10"
     inkscape:snap-bbox="true"
     inkscape:snap-bbox-edge-midpoints="true"
     inkscape:document-rotation="0"
     inkscape:showpageshadow="0"
     inkscape:deskcolor="#d1d1d1" />
  <!-- Generator: Sketch 52.5 (67469) - http://www.bohemiancoding.com/sketch -->
  <title
     id="title2">folder</title>
  <desc
     id="desc4">Created with Sketch.</desc>
  <path
     id="path1"
     style="color:#000000;fill:#ffffff;fill-rule:evenodd;stroke-width:1;-inkscape-stroke:none"
     d="M 32 9.6445312 A 16.500001 16.5 0 0 0 15.5 26.144531 A 16.500001 16.5 0 0 0 32 42.644531 A 16.500001 16.5 0 0 0 48.5 26.144531 A 16.500001 16.5 0 0 0 32 9.6445312 z M 32.072266 15.759766 C 34.459413 15.759766 36.206817 16.623268 37.314453 18.351562 C 38.42209 20.079857 38.974609 22.678393 38.974609 26.144531 C 38.974609 29.553379 38.387367 32.135638 37.212891 33.892578 C 36.047962 35.649519 34.296436 36.527344 31.957031 36.527344 C 27.335513 36.527344 25.025391 33.06726 25.025391 26.144531 C 25.025391 23.728738 25.277128 21.756291 25.783203 20.228516 C 26.289278 18.700741 27.048396 17.573349 28.060547 16.847656 C 29.072697 16.121964 30.410811 15.759766 32.072266 15.759766 z M 32.042969 18.910156 C 31.231338 18.910156 30.61545 19.139324 30.195312 19.597656 C 29.784723 20.04644 29.488064 20.787112 29.306641 21.818359 C 29.134766 22.840059 29.048828 24.282556 29.048828 26.144531 C 29.048828 27.987409 29.140842 29.427954 29.322266 30.46875 C 29.513237 31.499998 29.807943 32.240669 30.208984 32.689453 C 30.619573 33.138237 31.212892 33.363281 31.986328 33.363281 C 32.750215 33.363281 33.337457 33.128037 33.748047 32.660156 C 34.168185 32.182727 34.468967 31.423609 34.650391 30.382812 C 34.841362 29.342016 34.935547 27.930118 34.935547 26.144531 C 34.935547 24.282556 34.845486 22.835935 34.664062 21.804688 C 34.482639 20.773439 34.192057 20.032768 33.791016 19.583984 C 33.389975 19.135201 32.806856 18.910156 32.042969 18.910156 z " />
  <path
     style="fill:none;fill-opacity:1;stroke:#ffffff;stroke-width:3;stroke-linecap:round;stroke-linejoin:round;stroke-miterlimit:4;stroke-dasharray:none;stroke-opacity:1"
     d="M 20.327052,56.986395 10.210495,55.034337 V 44.102811 l 2.723688,-3.904116 V 19.897289 l -2.723688,-4.68494 V 5.8424699 L 14.490576,3.5 h 6.614672 l 2.33459,3.1232932 H 40.560162 L 42.894752,3.5 h 6.614672 l 4.280081,2.3424699 v 9.3698791 l -2.723688,4.68494 v 20.301406 l 2.723688,3.904116 V 55.034337 L 43.672948,56.986395 40.560162,53.472691 H 23.439838 l -3.112786,3.513704"
     id="path943" />
  <path
     style="fill:#000000;fill-opacity:0;stroke:#ffffff;stroke-width:3;stroke-linecap:round;stroke-linejoin:round;stroke-miterlimit:4;stroke-dasharray:none;stroke-opacity:1"
     d="M 24.996231,58.377 H 39.003769"
     id="path945" />
  <path
     style="fill:#000000;fill-opacity:0;stroke:#ffffff;stroke-width:3;stroke-linecap:round;stroke-linejoin:round;stroke-miterlimit:4;stroke-dasharray:none;stroke-opacity:1"
     d="M 29.66541,58.377 32,61.500293 34.334589,58.377"
     id="path947" />
</svg>
