<?xml version="1.0" encoding="UTF-8" standalone="no"?>
<svg
   width="64"
   height="64"
   viewBox="0 0 64 64"
   version="1.1"
   id="svg10"
   sodipodi:docname="extruder-2.svg"
   inkscape:version="1.1 (c4e8f9ed74, 2021-05-24)"
   xmlns:inkscape="http://www.inkscape.org/namespaces/inkscape"
   xmlns:sodipodi="http://sodipodi.sourceforge.net/DTD/sodipodi-0.dtd"
   xmlns="http://www.w3.org/2000/svg"
   xmlns:svg="http://www.w3.org/2000/svg"
   xmlns:rdf="http://www.w3.org/1999/02/22-rdf-syntax-ns#"
   xmlns:cc="http://creativecommons.org/ns#"
   xmlns:dc="http://purl.org/dc/elements/1.1/">
  <metadata
     id="metadata16">
    <rdf:RDF>
      <cc:Work
         rdf:about="">
        <dc:format>image/svg+xml</dc:format>
        <dc:type
           rdf:resource="http://purl.org/dc/dcmitype/StillImage" />
        <dc:title>folder</dc:title>
      </cc:Work>
    </rdf:RDF>
  </metadata>
  <defs
     id="defs14" />
  <sodipodi:namedview
     pagecolor="#bfbfbf"
     bordercolor="#666666"
     borderopacity="1"
     objecttolerance="10"
     gridtolerance="10"
     guidetolerance="10"
     inkscape:pageopacity="0"
     inkscape:pageshadow="2"
     inkscape:window-width="1600"
     inkscape:window-height="826"
     id="namedview12"
     showgrid="false"
     inkscape:pagecheckerboard="false"
     inkscape:zoom="5.4137931"
     inkscape:cx="38.420382"
     inkscape:cy="43.684713"
     inkscape:window-x="0"
     inkscape:window-y="0"
     inkscape:window-maximized="1"
     inkscape:current-layer="svg10"
     inkscape:snap-bbox="true"
     inkscape:snap-bbox-edge-midpoints="true"
     inkscape:document-rotation="0" />
  <ellipse
     id="Oval"
     stroke="#ffffff"
     stroke-width="2"
     cx="32"
     cy="18.143875"
     style="fill:#ffffff;fill-opacity:1;fill-rule:evenodd;stroke-width:3;stroke-miterlimit:4;stroke-dasharray:none"
     rx="15.174833"
     ry="15.226054" />
  <!-- Generator: Sketch 52.5 (67469) - http://www.bohemiancoding.com/sketch -->
  <path
     fill="none"
     stroke="#ffffff"
     stroke-width="3.0024"
     stroke-miterlimit="10"
     d="m 54.585965,43.517672 c 0,1.550407 -1.26653,2.821623 -2.81682,2.821623 H 12.227884 c -1.549301,0 -2.81682,-1.271216 -2.81682,-2.821623 v -7.061981 c 0,-1.550408 1.267519,-2.821624 2.81682,-2.821624 h 39.543241 c 1.54831,0 2.81781,1.269236 2.81781,2.821624 v 7.061981 z"
     id="path2"
     style="stroke-width:3;stroke-miterlimit:10;stroke-dasharray:none" />
  <rect
     x="19.835962"
     y="33.635059"
     fill="none"
     stroke="#ffffff"
     stroke-width="3.0024"
     stroke-miterlimit="10"
     width="24.32609"
     height="12.702258"
     id="rect6"
     style="stroke-width:3;stroke-miterlimit:10;stroke-dasharray:none" />
  <path
     fill="none"
     stroke="#ffffff"
     stroke-width="3.0024"
     stroke-miterlimit="10"
     d="m 31.997033,58.500001 c -0.741529,0 -1.449441,-0.290082 -1.93885,-0.789065 L 19.834977,47.244196 h 24.324111 l -10.38733,10.621187 c -0.477545,0.403938 -1.110316,0.634618 -1.774725,0.634618 z"
     id="path8"
     style="stroke-width:3;stroke-miterlimit:10;stroke-dasharray:none" />
  <title
     id="title2">folder</title>
  <desc
     id="desc4">Created with Sketch.</desc>
  <g
     aria-label="2"
     id="2"
     style="font-weight:500;font-size:26px;font-family:OpenSans-SemiBold, 'Open Sans';fill:#000000;fill-rule:evenodd;stroke:none;stroke-width:0.93247"
     transform="matrix(1.0724195,0,0,1.0724195,-9.2881502,-19.92702)">
    <path
       d="m 33.345703,42.361816 6.411133,-8.518554 q 0.533203,-0.698242 0.825195,-1.434571 0.291992,-0.749023 0.291992,-1.396484 v -0.02539 q 0,-1.015625 -0.609375,-1.574218 -0.609375,-0.558594 -1.726562,-0.558594 -1.066406,0 -1.726563,0.647461 -0.647461,0.634765 -0.799804,1.81543 v 0.0127 h -2.894532 v -0.0127 q 0.203125,-1.625 0.901368,-2.780274 0.710937,-1.155273 1.853515,-1.751953 1.142578,-0.609375 2.640625,-0.609375 1.663086,0 2.84375,0.571289 1.19336,0.558594 1.802735,1.637695 0.62207,1.079102 0.62207,2.602539 v 0.0127 q 0,1.041015 -0.418945,2.158203 -0.40625,1.104492 -1.155274,2.094726 l -5.141601,6.893555 h 6.817382 v 2.678711 H 33.345703 Z"
       id="path864"
       style="stroke-width:0.93247" />
  </g>
</svg>
