<?xml version="1.0" encoding="UTF-8" standalone="no"?>
<svg
	xmlns:dc="http://purl.org/dc/elements/1.1/"
	xmlns:cc="http://creativecommons.org/ns#"
	xmlns:rdf="http://www.w3.org/1999/02/22-rdf-syntax-ns#"
	xmlns:svg="http://www.w3.org/2000/svg"
	xmlns="http://www.w3.org/2000/svg"
	xmlns:sodipodi="http://sodipodi.sourceforge.net/DTD/sodipodi-0.dtd"
	xmlns:inkscape="http://www.inkscape.org/namespaces/inkscape"
   width="64"
   height="64"
   viewBox="0 0 64 64"
   version="1.1"
   id="svg10"
   sodipodi:docname="extruder-3.svg"
   inkscape:version="1.0.2 (e86c870879, 2021-01-15, custom)">
	<metadata
     id="metadata16">
		<rdf:RDF>
			<cc:Work
         rdf:about="">
				<dc:format>image/svg+xml</dc:format>
				<dc:type
           rdf:resource="http://purl.org/dc/dcmitype/StillImage" />
				<dc:title>folder</dc:title>
			</cc:Work>
		</rdf:RDF>
	</metadata>
	<defs
     id="defs14" />
	<sodipodi:namedview
     pagecolor="#bfbfbf"
     bordercolor="#666666"
     borderopacity="1"
     objecttolerance="10"
     gridtolerance="10"
     guidetolerance="10"
     inkscape:pageopacity="0"
     inkscape:pageshadow="2"
     inkscape:window-width="1600"
     inkscape:window-height="837"
     id="namedview12"
     showgrid="false"
     inkscape:pagecheckerboard="false"
     inkscape:zoom="5.4137931"
     inkscape:cx="32.109123"
     inkscape:cy="22.356606"
     inkscape:window-x="-8"
     inkscape:window-y="-8"
     inkscape:window-maximized="1"
     inkscape:current-layer="svg10"
     inkscape:snap-bbox="true"
     inkscape:snap-bbox-edge-midpoints="true"
     inkscape:document-rotation="0"
     inkscape:snap-bbox-midpoints="true"
     inkscape:snap-intersection-paths="true"
     inkscape:snap-midpoints="true"
     inkscape:snap-smooth-nodes="true"
     inkscape:snap-object-midpoints="true"
     inkscape:snap-center="true"
     inkscape:bbox-nodes="true"
     inkscape:bbox-paths="true" />
	<!-- Generator: Sketch 52.5 (67469) - http://www.bohemiancoding.com/sketch -->
	<title
     id="title2">folder</title>
	<desc
     id="desc4">Created with Sketch.</desc>
	<path id="path943" fill="none" stroke="#FFFFFF" stroke-width="3" stroke-linecap="round" stroke-linejoin="round" d="
	M20.327,56.986L10.21,55.034V44.104l2.724-3.904V19.897l-2.724-4.685v-9.37l4.28-2.342h6.615l2.334,3.124h17.121L42.895,3.5h6.615
	l4.279,2.342v9.37l-2.723,4.685v20.302l2.723,3.904v10.931l-10.116,1.952l-3.112-3.514H23.44L20.327,56.986"/>
	<path id="path945" fill-opacity="0" stroke="#FFFFFF" stroke-width="3" stroke-linecap="round" stroke-linejoin="round" d="
	M24.996,58.377h14.008"/>
	<path id="path947" fill-opacity="0" stroke="#FFFFFF" stroke-width="3" stroke-linecap="round" stroke-linejoin="round" d="
	M29.666,58.377L32,61.5l2.334-3.123"/>
	<g>
		<path fill="#FFFFFF" d="M32,10.918c-8.381,0-15.175,6.817-15.175,15.226c0,8.409,6.794,15.226,15.175,15.226
		s15.175-6.817,15.175-15.226C47.175,17.735,40.381,10.918,32,10.918z M37.815,30.74c0,1.141-0.225,2.116-0.674,2.924
		c-0.44,0.809-1.083,1.424-1.927,1.846c-0.846,0.423-1.865,0.635-3.06,0.635c-1.114,0-2.102-0.203-2.965-0.607
		c-0.854-0.413-1.541-1.006-2.062-1.779c-0.512-0.771-0.827-1.702-0.943-2.789h3.06c0.072,0.512,0.229,0.939,0.472,1.28
		c0.251,0.341,0.57,0.597,0.957,0.769c0.396,0.17,0.858,0.256,1.388,0.256c0.854,0,1.519-0.229,1.994-0.688
		c0.477-0.467,0.715-1.119,0.715-1.954v-0.566c0-0.926-0.221-1.635-0.66-2.13c-0.432-0.503-1.047-0.754-1.847-0.754h-1.456v-2.857
		h1.456c0.692,0,1.227-0.216,1.604-0.647c0.386-0.432,0.579-1.042,0.579-1.833v-0.539c0-0.728-0.202-1.29-0.606-1.685
		c-0.404-0.404-0.979-0.606-1.725-0.606c-0.432,0-0.822,0.09-1.173,0.27c-0.341,0.17-0.633,0.436-0.876,0.795
		c-0.233,0.351-0.404,0.786-0.512,1.307h-3.045c0.162-1.096,0.494-2.039,0.997-2.83c0.512-0.791,1.159-1.388,1.941-1.792
		c0.791-0.413,1.689-0.62,2.695-0.62c1.707,0,3.023,0.444,3.948,1.334c0.936,0.89,1.402,2.143,1.402,3.76v0.391
		c0,0.961-0.256,1.802-0.769,2.521c-0.513,0.709-1.239,1.231-2.183,1.563c1.041,0.234,1.846,0.755,2.412,1.563
		c0.574,0.8,0.862,1.824,0.862,3.073V30.74z"/>
	</g>
	<path fill="none" d="z"/>
</svg>