<?xml version="1.0" encoding="UTF-8" standalone="no"?>
<svg
   width="64"
   height="64"
   viewBox="0 0 64 64"
   version="1.1"
   id="svg10"
   sodipodi:docname="extruder-3.svg"
   inkscape:version="1.1 (c4e8f9ed74, 2021-05-24)"
   xmlns:inkscape="http://www.inkscape.org/namespaces/inkscape"
   xmlns:sodipodi="http://sodipodi.sourceforge.net/DTD/sodipodi-0.dtd"
   xmlns="http://www.w3.org/2000/svg"
   xmlns:svg="http://www.w3.org/2000/svg"
   xmlns:rdf="http://www.w3.org/1999/02/22-rdf-syntax-ns#"
   xmlns:cc="http://creativecommons.org/ns#"
   xmlns:dc="http://purl.org/dc/elements/1.1/">
  <metadata
     id="metadata16">
    <rdf:RDF>
      <cc:Work
         rdf:about="">
        <dc:format>image/svg+xml</dc:format>
        <dc:type
           rdf:resource="http://purl.org/dc/dcmitype/StillImage" />
        <dc:title>folder</dc:title>
      </cc:Work>
    </rdf:RDF>
  </metadata>
  <defs
     id="defs14" />
  <sodipodi:namedview
     pagecolor="#bfbfbf"
     bordercolor="#666666"
     borderopacity="1"
     objecttolerance="10"
     gridtolerance="10"
     guidetolerance="10"
     inkscape:pageopacity="0"
     inkscape:pageshadow="2"
     inkscape:window-width="1600"
     inkscape:window-height="826"
     id="namedview12"
     showgrid="false"
     inkscape:pagecheckerboard="false"
     inkscape:zoom="5.4137931"
     inkscape:cx="38.420382"
     inkscape:cy="43.684713"
     inkscape:window-x="0"
     inkscape:window-y="0"
     inkscape:window-maximized="1"
     inkscape:current-layer="svg10"
     inkscape:snap-bbox="true"
     inkscape:snap-bbox-edge-midpoints="true"
     inkscape:document-rotation="0" />
  <ellipse
     id="Oval"
     stroke="#ffffff"
     stroke-width="2"
     cx="32"
     cy="18.143875"
     style="fill:#ffffff;fill-opacity:1;fill-rule:evenodd;stroke-width:3;stroke-miterlimit:4;stroke-dasharray:none"
     rx="15.174833"
     ry="15.226054" />
  <!-- Generator: Sketch 52.5 (67469) - http://www.bohemiancoding.com/sketch -->
  <path
     fill="none"
     stroke="#ffffff"
     stroke-width="3.0024"
     stroke-miterlimit="10"
     d="m 54.585965,43.517672 c 0,1.550407 -1.26653,2.821623 -2.81682,2.821623 H 12.227884 c -1.549301,0 -2.81682,-1.271216 -2.81682,-2.821623 v -7.061981 c 0,-1.550408 1.267519,-2.821624 2.81682,-2.821624 h 39.543241 c 1.54831,0 2.81781,1.269236 2.81781,2.821624 v 7.061981 z"
     id="path2"
     style="stroke-width:3;stroke-miterlimit:10;stroke-dasharray:none" />
  <rect
     x="19.835962"
     y="33.635059"
     fill="none"
     stroke="#ffffff"
     stroke-width="3.0024"
     stroke-miterlimit="10"
     width="24.32609"
     height="12.702258"
     id="rect6"
     style="stroke-width:3;stroke-miterlimit:10;stroke-dasharray:none" />
  <path
     fill="none"
     stroke="#ffffff"
     stroke-width="3.0024"
     stroke-miterlimit="10"
     d="m 31.997033,58.500001 c -0.741529,0 -1.449441,-0.290082 -1.93885,-0.789065 L 19.834977,47.244196 h 24.324111 l -10.38733,10.621187 c -0.477545,0.403938 -1.110316,0.634618 -1.774725,0.634618 z"
     id="path8"
     style="stroke-width:3;stroke-miterlimit:10;stroke-dasharray:none" />
  <title
     id="title2">folder</title>
  <desc
     id="desc4">Created with Sketch.</desc>
  <g
     aria-label="3"
     id="3"
     style="font-weight:500;font-size:26px;font-family:OpenSans-SemiBold, 'Open Sans';fill:#000000;fill-rule:evenodd;stroke:none;stroke-width:0.941991"
     transform="matrix(1.0615799,0,0,1.0615799,-8.8708261,-19.542211)">
    <path
       d="m 38.645996,44.919922 q -1.574219,0 -2.792969,-0.571289 -1.206054,-0.583985 -1.942382,-1.675781 -0.723633,-1.091797 -0.888672,-2.62793 v 0 h 2.881836 v 0 q 0.101562,0.723633 0.444336,1.206055 0.355468,0.482421 0.901367,0.723632 0.558593,0.241211 1.307617,0.241211 1.206055,0 1.878906,-0.647461 0.672852,-0.660156 0.672852,-1.84082 v -0.533203 q 0,-1.307617 -0.622071,-2.005859 -0.609375,-0.710938 -1.739257,-0.710938 h -1.371094 v -2.691406 h 1.371094 q 0.977539,0 1.510742,-0.609375 0.545898,-0.609375 0.545898,-1.726563 v -0.507812 q 0,-1.028321 -0.571289,-1.586914 -0.571289,-0.571289 -1.625,-0.571289 -0.609375,0 -1.104492,0.253906 -0.482422,0.241211 -0.825195,0.749023 -0.330078,0.495118 -0.482422,1.231446 v 0 H 33.32666 v 0 q 0.228516,-1.548828 0.939453,-2.666016 0.723633,-1.117187 1.828125,-1.688477 1.117188,-0.583984 2.539063,-0.583984 2.412109,0 3.719726,1.256836 1.320313,1.256836 1.320313,3.541992 v 0.368164 q 0,1.358399 -0.723633,2.374024 -0.723633,1.002929 -2.056641,1.472656 1.472657,0.330078 2.272461,1.472656 0.8125,1.129883 0.8125,2.894531 v 0.368165 q 0,1.612304 -0.634765,2.754882 -0.622071,1.142578 -1.81543,1.739258 -1.193359,0.59668 -2.881836,0.59668 z"
       id="path862"
       style="stroke-width:0.941991" />
  </g>
</svg>
