<?xml version="1.0" encoding="UTF-8" standalone="no"?>
<svg
   width="64"
   height="64"
   viewBox="0 0 64 64"
   version="1.1"
   id="svg10"
   sodipodi:docname="extruder-3.svg"
   inkscape:version="1.3 (0e150ed6c4, 2023-07-21)"
   xmlns:inkscape="http://www.inkscape.org/namespaces/inkscape"
   xmlns:sodipodi="http://sodipodi.sourceforge.net/DTD/sodipodi-0.dtd"
   xmlns="http://www.w3.org/2000/svg"
   xmlns:svg="http://www.w3.org/2000/svg"
   xmlns:rdf="http://www.w3.org/1999/02/22-rdf-syntax-ns#"
   xmlns:cc="http://creativecommons.org/ns#"
   xmlns:dc="http://purl.org/dc/elements/1.1/">
  <metadata
     id="metadata16">
    <rdf:RDF>
      <cc:Work
         rdf:about="">
        <dc:format>image/svg+xml</dc:format>
        <dc:type
           rdf:resource="http://purl.org/dc/dcmitype/StillImage" />
        <dc:title>folder</dc:title>
      </cc:Work>
    </rdf:RDF>
  </metadata>
  <defs
     id="defs14" />
  <sodipodi:namedview
     pagecolor="#bfbfbf"
     bordercolor="#666666"
     borderopacity="1"
     objecttolerance="10"
     gridtolerance="10"
     guidetolerance="10"
     inkscape:pageopacity="0"
     inkscape:pageshadow="2"
     inkscape:window-width="1600"
     inkscape:window-height="827"
     id="namedview12"
     showgrid="false"
     inkscape:pagecheckerboard="false"
     inkscape:zoom="7.6562596"
     inkscape:cx="30.628533"
     inkscape:cy="36.244852"
     inkscape:window-x="0"
     inkscape:window-y="0"
     inkscape:window-maximized="1"
     inkscape:current-layer="svg10"
     inkscape:snap-bbox="true"
     inkscape:snap-bbox-edge-midpoints="true"
     inkscape:document-rotation="0"
     inkscape:showpageshadow="0"
     inkscape:deskcolor="#d1d1d1"
     showguides="true" />
  <!-- Generator: Sketch 52.5 (67469) - http://www.bohemiancoding.com/sketch -->
  <title
     id="title2">folder</title>
  <desc
     id="desc4">Created with Sketch.</desc>
  <path
     id="path1"
     style="color:#000000;fill:#ffffff;fill-rule:evenodd;stroke-width:1;-inkscape-stroke:none"
     d="M 32 9.6445312 C 22.887311 9.6445318 15.5 17.031842 15.5 26.144531 C 15.5 35.25722 22.88731 42.64453 32 42.644531 C 41.11269 42.64453 48.5 35.25722 48.5 26.144531 C 48.5 17.031842 41.112689 9.6445318 32 9.6445312 z M 32.042969 15.738281 C 34.153207 15.738281 35.80035 16.217016 36.984375 17.171875 C 38.177949 18.117186 38.775391 19.428823 38.775391 21.109375 C 38.775391 22.369789 38.402993 23.40712 37.658203 24.21875 C 36.922961 25.030381 35.856985 25.568577 34.462891 25.835938 L 34.462891 25.894531 C 36.009762 26.075954 37.19857 26.585505 38.029297 27.425781 C 38.869573 28.256508 39.291016 29.322485 39.291016 30.621094 C 39.291016 32.511715 38.669051 33.972659 37.427734 35.003906 C 36.186418 36.035154 34.420568 36.550781 32.128906 36.550781 C 29.961376 36.550781 28.238496 36.0536 26.958984 35.060547 C 25.679474 34.057945 24.928602 32.615447 24.708984 30.734375 L 28.806641 30.376953 C 29.064453 32.315317 30.167322 33.285156 32.115234 33.285156 C 33.079642 33.285156 33.82856 33.045789 34.363281 32.568359 C 34.898002 32.09093 35.166016 31.360458 35.166016 30.376953 C 35.166016 29.479386 34.84071 28.791883 34.191406 28.314453 C 33.542102 27.837024 32.57834 27.597656 31.298828 27.597656 L 29.894531 27.597656 L 29.894531 24.347656 L 31.212891 24.347656 C 32.36827 24.347656 33.235896 24.112412 33.818359 23.644531 C 34.400823 23.167102 34.693359 22.489799 34.693359 21.611328 C 34.693359 20.780601 34.458115 20.131943 33.990234 19.664062 C 33.531902 19.186633 32.858722 18.947266 31.970703 18.947266 C 31.139976 18.947266 30.466796 19.176433 29.951172 19.634766 C 29.445097 20.093098 29.154514 20.741755 29.078125 21.582031 L 25.052734 21.296875 C 25.262803 19.559031 25.985029 18.198349 27.216797 17.214844 C 28.448566 16.231339 30.056862 15.738281 32.042969 15.738281 z " />
  <path
     style="fill:none;fill-opacity:1;stroke:#ffffff;stroke-width:3;stroke-linecap:round;stroke-linejoin:round;stroke-miterlimit:4;stroke-dasharray:none;stroke-opacity:1"
     d="M 20.327052,56.986395 10.210495,55.034337 V 44.102811 l 2.723688,-3.904116 V 19.897289 l -2.723688,-4.68494 V 5.8424699 L 14.490576,3.5 h 6.614672 l 2.33459,3.1232932 H 40.560162 L 42.894752,3.5 h 6.614672 l 4.280081,2.3424699 v 9.3698791 l -2.723688,4.68494 v 20.301406 l 2.723688,3.904116 V 55.034337 L 43.672948,56.986395 40.560162,53.472691 H 23.439838 l -3.112786,3.513704"
     id="path943" />
  <path
     style="fill:#000000;fill-opacity:0;stroke:#ffffff;stroke-width:3;stroke-linecap:round;stroke-linejoin:round;stroke-miterlimit:4;stroke-dasharray:none;stroke-opacity:1"
     d="M 24.996231,58.377 H 39.003769"
     id="path945" />
  <path
     style="fill:#000000;fill-opacity:0;stroke:#ffffff;stroke-width:3;stroke-linecap:round;stroke-linejoin:round;stroke-miterlimit:4;stroke-dasharray:none;stroke-opacity:1"
     d="M 29.66541,58.377 32,61.500293 34.334589,58.377"
     id="path947" />
</svg>
