<?xml version="1.0" encoding="UTF-8" standalone="no"?>
<svg
	xmlns:dc="http://purl.org/dc/elements/1.1/"
	xmlns:cc="http://creativecommons.org/ns#"
	xmlns:rdf="http://www.w3.org/1999/02/22-rdf-syntax-ns#"
	xmlns:svg="http://www.w3.org/2000/svg"
	xmlns="http://www.w3.org/2000/svg"
	xmlns:sodipodi="http://sodipodi.sourceforge.net/DTD/sodipodi-0.dtd"
	xmlns:inkscape="http://www.inkscape.org/namespaces/inkscape"
   width="64"
   height="64"
   viewBox="0 0 64 64"
   version="1.1"
   id="svg10"
   sodipodi:docname="extruder-1.svg"
   inkscape:version="1.0.2 (e86c870879, 2021-01-15, custom)">
	<metadata
     id="metadata16">
		<rdf:RDF>
			<cc:Work
         rdf:about="">
				<dc:format>image/svg+xml</dc:format>
				<dc:type
           rdf:resource="http://purl.org/dc/dcmitype/StillImage" />
				<dc:title>folder</dc:title>
			</cc:Work>
		</rdf:RDF>
	</metadata>
	<defs
     id="defs14" />
	<sodipodi:namedview
     pagecolor="#bfbfbf"
     bordercolor="#666666"
     borderopacity="1"
     objecttolerance="10"
     gridtolerance="10"
     guidetolerance="10"
     inkscape:pageopacity="0"
     inkscape:pageshadow="2"
     inkscape:window-width="1600"
     inkscape:window-height="837"
     id="namedview12"
     showgrid="false"
     inkscape:pagecheckerboard="false"
     inkscape:zoom="5.4137931"
     inkscape:cx="32.109123"
     inkscape:cy="22.356606"
     inkscape:window-x="-8"
     inkscape:window-y="-8"
     inkscape:window-maximized="1"
     inkscape:current-layer="svg10"
     inkscape:snap-bbox="true"
     inkscape:snap-bbox-edge-midpoints="true"
     inkscape:document-rotation="0"
     inkscape:snap-bbox-midpoints="true"
     inkscape:snap-intersection-paths="true"
     inkscape:snap-midpoints="true"
     inkscape:snap-smooth-nodes="true"
     inkscape:snap-object-midpoints="true"
     inkscape:snap-center="true"
     inkscape:bbox-nodes="true"
     inkscape:bbox-paths="true" />
	<!-- Generator: Sketch 52.5 (67469) - http://www.bohemiancoding.com/sketch -->
	<title
     id="title2">folder</title>
	<desc
     id="desc4">Created with Sketch.</desc>
	<path id="path943" fill="none" stroke="#FFFFFF" stroke-width="3" stroke-linecap="round" stroke-linejoin="round" d="
	M20.327,56.986L10.21,55.034V44.104l2.724-3.904V19.897l-2.724-4.685v-9.37l4.28-2.342h6.615l2.334,3.124h17.121L42.895,3.5h6.615
	l4.279,2.342v9.37l-2.723,4.685v20.302l2.723,3.904v10.931l-10.116,1.952l-3.112-3.514H23.44L20.327,56.986"/>
	<path id="path945" fill-opacity="0" stroke="#FFFFFF" stroke-width="3" stroke-linecap="round" stroke-linejoin="round" d="
	M24.996,58.377h14.008"/>
	<path id="path947" fill-opacity="0" stroke="#FFFFFF" stroke-width="3" stroke-linecap="round" stroke-linejoin="round" d="
	M29.666,58.377L32,61.5l2.334-3.123"/>
	<g>
		<path fill="#FFFFFF" d="M32,10.918c-8.381,0-15.175,6.817-15.175,15.226c0,8.409,6.794,15.226,15.175,15.226
		s15.175-6.817,15.175-15.226C47.175,17.735,40.381,10.918,32,10.918z M34.396,36.145h-3.041V19.542l-2.751,1.541v-3.177
		l2.889-1.761h2.903V36.145z"/>
	</g>
	<path fill="none" d="z"/>
</svg>