<?xml version="1.0" encoding="UTF-8" standalone="no"?>
<svg
   xmlns:dc="http://purl.org/dc/elements/1.1/"
   xmlns:cc="http://creativecommons.org/ns#"
   xmlns:rdf="http://www.w3.org/1999/02/22-rdf-syntax-ns#"
   xmlns:svg="http://www.w3.org/2000/svg"
   xmlns="http://www.w3.org/2000/svg"
   xmlns:sodipodi="http://sodipodi.sourceforge.net/DTD/sodipodi-0.dtd"
   xmlns:inkscape="http://www.inkscape.org/namespaces/inkscape"
   width="77px"
   height="80px"
   viewBox="0 0 77 80"
   version="1.1"
   id="svg57"
   sodipodi:docname="extruder-2.svg"
   inkscape:version="1.0.2 (e86c870879, 2021-01-15, custom)">
  <metadata
     id="metadata63">
    <rdf:RDF>
      <cc:Work
         rdf:about="">
        <dc:format>image/svg+xml</dc:format>
        <dc:type
           rdf:resource="http://purl.org/dc/dcmitype/StillImage" />
        <dc:title>extruder-2</dc:title>
      </cc:Work>
    </rdf:RDF>
  </metadata>
  <defs
     id="defs61" />
  <sodipodi:namedview
     pagecolor="#bfbfbf"
     bordercolor="#666666"
     borderopacity="1"
     objecttolerance="10"
     gridtolerance="10"
     guidetolerance="10"
     inkscape:pageopacity="0"
     inkscape:pageshadow="2"
     inkscape:window-width="1600"
     inkscape:window-height="837"
     id="namedview59"
     showgrid="false"
     inkscape:zoom="7.85"
     inkscape:cx="38.5"
     inkscape:cy="40"
     inkscape:window-x="-8"
     inkscape:window-y="-8"
     inkscape:window-maximized="1"
     inkscape:current-layer="svg57"
     inkscape:document-rotation="0" />
  <!-- Generator: Sketch 52.5 (67469) - http://www.bohemiancoding.com/sketch -->
  <title
     id="title2">extruder-2</title>
  <desc
     id="desc4">Created with Sketch.</desc>
  <g
     id="Group"
     transform="translate(10,6)"
     fill="#ffffff"
     stroke="#ffffff"
     stroke-linecap="round"
     stroke-width="2"
     style="fill-rule:evenodd">
    <path
       d="M 0.5,3.5 6,0.5"
       id="Line" />
    <path
       d="m 6,0.5 h 8.5"
       id="Line-2" />
    <path
       d="m 14.5,0.5 3,4"
       id="Line-3"
       stroke-linejoin="round" />
    <path
       d="m 0.5,3.5 v 12"
       id="Line-5" />
    <path
       d="m 17.5,4.5 h 12"
       id="Line-4" />
    <path
       d="m 0.5,15.5 3.5,6"
       id="Line-6" />
    <path
       d="m 4,47.5 -3.5,5"
       id="Line-8" />
    <path
       d="m 0.5,52.5 v 14"
       id="Line-9" />
    <path
       d="m 4,21.5 v 26"
       id="Line-7" />
    <path
       d="m 0.5,66.5 13,2.5"
       id="Line-10" />
    <path
       d="m 13.5,69 4,-4.5"
       id="Line-11" />
    <path
       d="m 17.5,64.5 h 12"
       id="Line-12" />
  </g>
  <g
     id="g43"
     transform="matrix(-1,0,0,1,67,6)"
     stroke="#ffffff"
     stroke-linecap="round"
     stroke-width="2"
     style="fill:none;fill-rule:evenodd">
    <path
       d="M 0.5,3.5 6,0.5"
       id="path19" />
    <path
       d="m 6,0.5 h 8.5"
       id="path21" />
    <path
       d="m 14.5,0.5 3,4"
       id="path23"
       stroke-linejoin="round" />
    <path
       d="m 0.5,3.5 v 12"
       id="path25" />
    <path
       d="m 17.5,4.5 h 12"
       id="path27" />
    <path
       d="m 0.5,15.5 3.5,6"
       id="path29" />
    <path
       d="m 4,47.5 -3.5,5"
       id="path31" />
    <path
       d="m 0.5,52.5 v 14"
       id="path33" />
    <path
       d="m 4,21.5 v 26"
       id="path35" />
    <path
       d="m 0.5,66.5 13,2.5"
       id="path37" />
    <path
       d="m 13.5,69 4,-4.5"
       id="path39" />
    <path
       d="m 17.5,64.5 h 12"
       id="path41" />
  </g>
  <circle
     id="Oval"
     stroke="#ffffff"
     stroke-width="2"
     cx="38.5"
     cy="35.5"
     r="19.5"
     style="fill:none;fill-rule:evenodd" />
  <circle
     id="circle46"
     stroke="#000000"
     stroke-width="0.5"
     fill="#ffffff"
     cx="38.5"
     cy="35.5"
     r="21"
     style="fill-rule:evenodd" />
  <g
     aria-label="2"
     id="2"
     style="font-weight:500;font-size:26px;font-family:OpenSans-SemiBold, 'Open Sans';fill:#000000;fill-rule:evenodd;stroke:none;stroke-width:0.757575"
     transform="matrix(1.32,0,0,1.32,-12.319999,-11.360004)">
    <path
       d="m 33.345703,42.361816 6.411133,-8.518554 q 0.533203,-0.698242 0.825195,-1.434571 0.291992,-0.749023 0.291992,-1.396484 v -0.02539 q 0,-1.015625 -0.609375,-1.574218 -0.609375,-0.558594 -1.726562,-0.558594 -1.066406,0 -1.726563,0.647461 -0.647461,0.634765 -0.799804,1.81543 v 0.0127 h -2.894532 v -0.0127 q 0.203125,-1.625 0.901368,-2.780274 0.710937,-1.155273 1.853515,-1.751953 1.142578,-0.609375 2.640625,-0.609375 1.663086,0 2.84375,0.571289 1.19336,0.558594 1.802735,1.637695 0.62207,1.079102 0.62207,2.602539 v 0.0127 q 0,1.041015 -0.418945,2.158203 -0.40625,1.104492 -1.155274,2.094726 l -5.141601,6.893555 h 6.817382 v 2.678711 H 33.345703 Z"
       id="path864"
       style="stroke-width:0.757575" />
  </g>
  <path
     d="m 35.5,73.5 3,4"
     id="Line-16"
     stroke="#ffffff"
     stroke-width="2"
     stroke-linecap="round"
     style="fill:none;fill-rule:evenodd" />
  <path
     d="m 38.5,77.5 3,-4"
     id="Line-17"
     stroke="#ffffff"
     stroke-width="2"
     stroke-linecap="round"
     style="fill:none;fill-rule:evenodd" />
  <path
     d="m 29.5,73.5 h 18"
     id="Line-14"
     stroke="#ffffff"
     stroke-width="2"
     stroke-linecap="round"
     style="fill:none;fill-rule:evenodd" />
</svg>
