<?xml version="1.0" encoding="UTF-8" standalone="no"?>
<svg
   width="64"
   height="64"
   viewBox="0 0 64 64"
   version="1.1"
   id="svg10"
   sodipodi:docname="extruder-0.svg"
   inkscape:version="1.1 (c4e8f9ed74, 2021-05-24)"
   xmlns:inkscape="http://www.inkscape.org/namespaces/inkscape"
   xmlns:sodipodi="http://sodipodi.sourceforge.net/DTD/sodipodi-0.dtd"
   xmlns="http://www.w3.org/2000/svg"
   xmlns:svg="http://www.w3.org/2000/svg"
   xmlns:rdf="http://www.w3.org/1999/02/22-rdf-syntax-ns#"
   xmlns:cc="http://creativecommons.org/ns#"
   xmlns:dc="http://purl.org/dc/elements/1.1/">
  <metadata
     id="metadata16">
    <rdf:RDF>
      <cc:Work
         rdf:about="">
        <dc:format>image/svg+xml</dc:format>
        <dc:type
           rdf:resource="http://purl.org/dc/dcmitype/StillImage" />
        <dc:title>folder</dc:title>
      </cc:Work>
    </rdf:RDF>
  </metadata>
  <defs
     id="defs14" />
  <sodipodi:namedview
     pagecolor="#bfbfbf"
     bordercolor="#666666"
     borderopacity="1"
     objecttolerance="10"
     gridtolerance="10"
     guidetolerance="10"
     inkscape:pageopacity="0"
     inkscape:pageshadow="2"
     inkscape:window-width="1600"
     inkscape:window-height="826"
     id="namedview12"
     showgrid="false"
     inkscape:pagecheckerboard="false"
     inkscape:zoom="5.4137931"
     inkscape:cx="38.420382"
     inkscape:cy="43.684713"
     inkscape:window-x="0"
     inkscape:window-y="0"
     inkscape:window-maximized="1"
     inkscape:current-layer="svg10"
     inkscape:snap-bbox="true"
     inkscape:snap-bbox-edge-midpoints="true"
     inkscape:document-rotation="0" />
  <g
     id="g1105"
     transform="translate(0,-8)">
    <ellipse
       id="Oval"
       stroke="#ffffff"
       stroke-width="2"
       cx="32"
       cy="26.143875"
       style="fill:#ffffff;fill-opacity:1;fill-rule:evenodd;stroke-width:3;stroke-miterlimit:4;stroke-dasharray:none"
       rx="15.174833"
       ry="15.226054" />
    <path
       d="m 31.999999,36.143876 q -2.761358,0 -4.195655,-1.46604 -1.434299,-1.466039 -1.434299,-4.088769 v -8.890383 q 0,-2.63618 1.434299,-4.088769 1.447701,-1.46604 4.195655,-1.46604 2.761359,0 4.195657,1.45259 1.434299,1.452587 1.434299,4.102219 v 8.890383 q 0,2.63618 -1.447703,4.102219 -1.4343,1.45259 -4.182253,1.45259 z m 0,-2.83793 q 1.367275,0 2.010698,-0.753195 0.656829,-0.766643 0.656829,-2.192333 v -8.433086 q 0,-1.42569 -0.643423,-2.178884 -0.643423,-0.766644 -2.024104,-0.766644 -1.380678,0 -2.024102,0.766644 -0.643423,0.753194 -0.643423,2.178884 v 8.433086 q 0,1.42569 0.643423,2.192333 0.656828,0.753195 2.024102,0.753195 z"
       id="path866"
       style="font-weight:500;font-size:26px;font-family:OpenSans-SemiBold, 'Open Sans';fill:#000000;fill-rule:evenodd;stroke:none;stroke-width:1" />
  </g>
  <!-- Generator: Sketch 52.5 (67469) - http://www.bohemiancoding.com/sketch -->
  <path
     fill="none"
     stroke="#ffffff"
     stroke-width="3.0024"
     stroke-miterlimit="10"
     d="m 54.585965,43.517672 c 0,1.550407 -1.26653,2.821623 -2.81682,2.821623 H 12.227884 c -1.549301,0 -2.81682,-1.271216 -2.81682,-2.821623 v -7.061981 c 0,-1.550408 1.267519,-2.821624 2.81682,-2.821624 h 39.543241 c 1.54831,0 2.81781,1.269236 2.81781,2.821624 v 7.061981 z"
     id="path2"
     style="stroke-width:3;stroke-miterlimit:10;stroke-dasharray:none" />
  <rect
     x="19.835962"
     y="33.635059"
     fill="none"
     stroke="#ffffff"
     stroke-width="3.0024"
     stroke-miterlimit="10"
     width="24.32609"
     height="12.702258"
     id="rect6"
     style="stroke-width:3;stroke-miterlimit:10;stroke-dasharray:none" />
  <path
     fill="none"
     stroke="#ffffff"
     stroke-width="3.0024"
     stroke-miterlimit="10"
     d="m 31.997033,58.500001 c -0.741529,0 -1.449441,-0.290082 -1.93885,-0.789065 L 19.834977,47.244196 h 24.324111 l -10.38733,10.621187 c -0.477545,0.403938 -1.110316,0.634618 -1.774725,0.634618 z"
     id="path8"
     style="stroke-width:3;stroke-miterlimit:10;stroke-dasharray:none" />
  <title
     id="title2">folder</title>
  <desc
     id="desc4">Created with Sketch.</desc>
</svg>
