<?xml version="1.0" encoding="UTF-8"?>
<svg width="61px" height="58px" viewBox="0 0 61 58" version="1.1" xmlns="http://www.w3.org/2000/svg" xmlns:xlink="http://www.w3.org/1999/xlink">
    <!-- Generator: Sketch 52.5 (67469) - http://www.bohemiancoding.com/sketch -->
    <title>folder</title>
    <desc>Created with Sketch.</desc>
    <g id="Icons" stroke="none" stroke-width="1" fill="none" fill-rule="evenodd">
        <g id="Artboard" transform="translate(-2456.000000, -2446.000000)" fill="#FFFFFF" fill-rule="nonzero">
            <g id="folder" transform="translate(2456.000000, 2446.000000)">
                <path d="M6.6,2 C4.62603624,2 3,3.67765644 3,5.71428571 L3,16.8571429 L3,19.3333333 L3,50.2857143 C3,52.3223438 4.62603624,54 6.6,54 L54.6,54 C56.573964,54 58.2,52.3223438 58.2,50.2857143 L58.2,20.5714286 L58.2,16.8571429 L58.2,10.6666667 C58.2,8.63003739 56.573964,6.95238095 54.6,6.95238095 L22.2,6.95238095 C22.303884,6.95238095 22.162788,6.95283162 21.8695308,6.60416667 C21.5762724,6.25550171 21.2153028,5.67707006 20.8382808,5.05654762 C20.46126,4.43602518 20.0661324,3.77393035 19.5679692,3.19215027 C19.0698048,2.6103703 18.3825048,2 17.4,2 L6.6,2 Z M6.6,4.47619048 L17.4,4.47619048 C17.3271,4.47619048 17.473368,4.48486952 17.7703128,4.83165926 C18.0672612,5.1784506 18.4286772,5.75445101 18.8039064,6.37202381 C19.1791356,6.98959661 19.5677148,7.64926019 20.0554692,8.22916667 C20.5432224,8.80907314 21.2147124,9.42857143 22.2,9.42857143 L54.6,9.42857143 C55.278036,9.42857143 55.8,9.96710571 55.8,10.6666667 L55.8,13.375 C55.4221296,13.2344019 55.0222116,13.1428571 54.6,13.1428571 L6.6,13.1428571 C6.177789,13.1428571 5.7778698,13.2344019 5.4,13.375 L5.4,5.71428571 C5.4,5.01472451 5.92196376,4.47619048 6.6,4.47619048 Z M6.6,15.6190476 L54.6,15.6190476 C55.278036,15.6190476 55.8,16.1575819 55.8,16.8571429 L55.8,20.5714286 L55.8,50.2857143 C55.8,50.9852752 55.278036,51.5238095 54.6,51.5238095 L6.6,51.5238095 C5.92196376,51.5238095 5.4,50.9852752 5.4,50.2857143 L5.4,19.3333333 L5.4,16.8571429 C5.4,16.1575819 5.92196376,15.6190476 6.6,15.6190476 Z" id="Shape"></path>
            </g>
        </g>
    </g>
</svg>