<?xml version="1.0" encoding="UTF-8" standalone="no"?>
<svg
   xmlns:dc="http://purl.org/dc/elements/1.1/"
   xmlns:cc="http://creativecommons.org/ns#"
   xmlns:rdf="http://www.w3.org/1999/02/22-rdf-syntax-ns#"
   xmlns:svg="http://www.w3.org/2000/svg"
   xmlns="http://www.w3.org/2000/svg"
   xmlns:sodipodi="http://sodipodi.sourceforge.net/DTD/sodipodi-0.dtd"
   xmlns:inkscape="http://www.inkscape.org/namespaces/inkscape"
   width="64"
   height="64"
   viewBox="0 0 64 64"
   version="1.1"
   id="svg10"
   sodipodi:docname="hashtag.svg"
   inkscape:version="1.0.2 (e86c870879, 2021-01-15, custom)">
  <metadata
     id="metadata16">
    <rdf:RDF>
      <cc:Work
         rdf:about="">
        <dc:format>image/svg+xml</dc:format>
        <dc:type
           rdf:resource="http://purl.org/dc/dcmitype/StillImage" />
        <dc:title>folder</dc:title>
      </cc:Work>
    </rdf:RDF>
  </metadata>
  <defs
     id="defs14" />
  <sodipodi:namedview
     pagecolor="#bfbfbf"
     bordercolor="#666666"
     borderopacity="1"
     objecttolerance="10"
     gridtolerance="10"
     guidetolerance="10"
     inkscape:pageopacity="0"
     inkscape:pageshadow="2"
     inkscape:window-width="1600"
     inkscape:window-height="837"
     id="namedview12"
     showgrid="false"
     inkscape:pagecheckerboard="false"
     inkscape:zoom="7.6562596"
     inkscape:cx="26.797164"
     inkscape:cy="33.739077"
     inkscape:window-x="-8"
     inkscape:window-y="-8"
     inkscape:window-maximized="1"
     inkscape:current-layer="svg10"
     inkscape:snap-bbox="true"
     inkscape:snap-bbox-edge-midpoints="true"
     inkscape:document-rotation="0" />
  <!-- Generator: Sketch 52.5 (67469) - http://www.bohemiancoding.com/sketch -->
  <title
     id="title2">folder</title>
  <desc
     id="desc4">Created with Sketch.</desc>
  <path
     id="path861"
     style="opacity:0.998;fill:none;fill-opacity:1;stroke:#ffffff;stroke-width:3;stroke-linecap:round;stroke-linejoin:round;stroke-opacity:1;stroke-miterlimit:4;stroke-dasharray:none"
     d="m 27.935547,3.8917471 c -0.809269,0.08789 -1.855022,1.361719 -2.496094,3.123047 L 21.441406,18.001122 h -8.907804 c -1.957465,0 -3.5332031,0.713211 -3.5332031,1.599609 v 4.800782 c 0,0.886397 1.5757411,1.599609 3.5332031,1.599609 h 5.995695 l -4.367188,12 H 6.5332029 C 4.5757386,38.001122 3,38.714333 3,39.600731 v 4.800782 c 0,0.886397 1.5757413,1.599609 3.5332029,1.599609 H 11.25 l -3.0019531,8.25 c -0.732652,2.012945 -0.651301,3.876521 0.181641,4.179688 l 4.5097651,1.642578 c 0.83294,0.303165 2.093521,-1.072996 2.826172,-3.085938 l 3.998047,-10.986328 h 14.28125 l -3.001953,8.25 c -0.732652,2.012945 -0.653255,3.876521 0.179687,4.179688 l 4.511719,1.642578 c 0.832941,0.303165 2.093521,-1.072997 2.826172,-3.085938 l 3.998047,-10.986328 h 8.907804 c 1.957466,0 3.533203,-0.713212 3.533203,-1.599609 v -4.800782 c 0,-0.886398 -1.575737,-1.599609 -3.533203,-1.599609 h -5.995695 l 4.367188,-12 h 7.628906 C 59.424263,26.001122 61,25.28791 61,24.401513 v -4.800782 c 0,-0.886398 -1.575737,-1.599609 -3.533203,-1.599609 H 52.75 l 3.001953,-8.2499999 c 0.732652,-2.012947 0.6513,-3.876522 -0.181641,-4.179688 l -4.509765,-1.642578 c -0.832941,-0.303166 -2.09352,1.072992 -2.826172,3.085938 L 44.236328,18.001122 h -14.28125 l 3.001953,-8.2499999 c 0.732653,-2.012947 0.653254,-3.876522 -0.179687,-4.179688 l -4.511719,-1.642578 c -0.104118,-0.0379 -0.214468,-0.04966 -0.330078,-0.037109 z M 27.042969,26.001122 h 14.28125 l -4.367188,12 h -14.28125 z"
     sodipodi:nodetypes="sccssssccssssccccccccccccssssccssssccccccccccsccccc" />
</svg>
