<?xml version="1.0" encoding="UTF-8"?>
<svg width="64px" height="64px" viewBox="0 0 64 64" version="1.1" xmlns="http://www.w3.org/2000/svg" xmlns:xlink="http://www.w3.org/1999/xlink">
    <!-- Generator: Sketch 52.5 (67469) - http://www.bohemiancoding.com/sketch -->
    <title>info</title>
    <desc>Created with Sketch.</desc>
    <g id="Page-1" stroke="none" stroke-width="1" fill="none" fill-rule="evenodd">
        <g id="Artboard" transform="translate(-660.000000, -67.000000)">
            <g id="info" transform="translate(660.000000, 67.000000)">
                <circle id="Oval" stroke="#FFFFFF" stroke-width="3" stroke-linecap="round" stroke-linejoin="round" cx="32" cy="32" r="30"></circle>
                <g id="iconmonstr-info-6-icon" transform="translate(24.105263, 14.631579)" fill="#FFFFFF" fill-rule="nonzero">
                    <path d="M6.5791446,31.6120051 C2.82108074,32.9326024 -0.27702395,31.4181719 0.344435388,27.80901 C0.966161161,24.1990489 4.5322587,16.4708972 5.04101608,15.0094878 C5.54937382,13.5480783 4.57448863,13.1474896 3.52953106,13.742178 C2.92685538,14.0898789 2.03110134,14.7867461 1.2621703,15.4640301 C1.04888919,15.0346661 0.74901674,14.5440215 0.523879274,14.0741591 C1.7786543,12.8167075 3.87616283,11.1308245 6.35920261,10.5197502 C9.32595491,9.78744681 14.2845743,10.9580398 12.1533618,16.6288946 C10.6314858,20.6707509 9.55522211,23.4598182 8.87701215,25.5369646 C8.19920183,27.6149104 9.0042348,28.0505356 10.1909357,27.2409654 C11.1179959,26.6080432 12.1055367,25.7470506 12.8294402,25.0793583 C13.1644821,25.62369 13.2715889,25.797274 13.6029007,26.422736 C12.3462606,27.7108278 9.05912038,30.725168 6.5791446,31.6120051 Z M14.3657037,6.60938081 C12.6611866,8.06026599 10.134718,8.02882637 8.72128096,6.53850844 C7.30824362,5.04898983 7.54403849,2.66504068 9.24815592,1.21388906 C10.9525398,-0.2368629 13.4795413,-0.20542328 14.8925787,1.28382889 C16.3054828,2.7740136 16.0699544,5.15782954 14.3657037,6.60938081 Z" id="info-6-icon"></path>
                </g>
            </g>
        </g>
    </g>
</svg>