<?xml version="1.0" encoding="UTF-8" standalone="no"?>
<svg
   xmlns:dc="http://purl.org/dc/elements/1.1/"
   xmlns:cc="http://creativecommons.org/ns#"
   xmlns:rdf="http://www.w3.org/1999/02/22-rdf-syntax-ns#"
   xmlns:svg="http://www.w3.org/2000/svg"
   xmlns="http://www.w3.org/2000/svg"
   xmlns:sodipodi="http://sodipodi.sourceforge.net/DTD/sodipodi-0.dtd"
   xmlns:inkscape="http://www.inkscape.org/namespaces/inkscape"
   width="134px"
   height="40px"
   viewBox="0 0 134 40"
   version="1.1"
   id="svg12"
   sodipodi:docname="Slice 3.svg"
   inkscape:version="0.92.4 (5da689c313, 2019-01-14)">
  <metadata
     id="metadata16">
    <rdf:RDF>
      <cc:Work
         rdf:about="">
        <dc:format>image/svg+xml</dc:format>
        <dc:type
           rdf:resource="http://purl.org/dc/dcmitype/StillImage" />
      </cc:Work>
    </rdf:RDF>
  </metadata>
  <sodipodi:namedview
     pagecolor="#ffffff"
     bordercolor="#666666"
     borderopacity="1"
     objecttolerance="10"
     gridtolerance="10"
     guidetolerance="10"
     inkscape:pageopacity="0"
     inkscape:pageshadow="2"
     inkscape:window-width="1920"
     inkscape:window-height="1017"
     id="namedview14"
     showgrid="false"
     inkscape:zoom="2.8283582"
     inkscape:cx="67"
     inkscape:cy="20"
     inkscape:window-x="-8"
     inkscape:window-y="-8"
     inkscape:window-maximized="1"
     inkscape:current-layer="svg12" />
  <!-- Generator: Sketch 40.2 (33826) - http://www.bohemiancoding.com/sketch -->
  <title
     id="title2">Slice 3</title>
  <desc
     id="desc4">Created with Sketch.</desc>
  <defs
     id="defs6" />
  <g
     id="Page-3"
     transform="translate(0.35356174,-1.4142488)"
     style="fill:#ffffff;fill-rule:evenodd;stroke:none;stroke-width:1">
    <g
       id="Group"
       transform="translate(4,7)"
       style="fill:#ffffff">
      <path
         d="M 5.152773,7.417826 C 7.054153,4.9067136 9.887844,3.2677943 13.008914,2.8743867 v 4.3375281 l -5.8177548,1.386134 z m 1.4753238,4.216995 7.8444452,-1.8699419 3.690816,0.9073489 -14.4725423,8.372048 c -1.2213609,-2.906194 -1.2196901,-6.180684 0,-9.0885524 z m 4.1519592,6.692951 14.470871,-8.3720484 c 1.221361,2.9061944 1.221361,6.1823584 0,9.0885524 l -2.945635,-1.704208 -7.817713,1.52006 z m 3.707523,3.461987 7.263004,-1.387808 2.038387,1.180223 c -0.923957,1.223749 -2.063449,2.23489 -3.344959,2.99492 -1.779411,1.056341 -3.831163,1.632223 -5.959773,1.635571 -3.662412,0.0033 -7.1159731,-1.70923 -9.331465,-4.630491 L 7.1911592,20.401951 Z M 15.932829,7.2119148 V 2.8743867 c 3.12274,0.3934076 5.95309,2.0306528 7.856141,4.5434393 L 21.750583,8.5980488 Z M 14.470871,0 C 6.4793949,0 0,6.4920626 0,14.500837 0,22.507937 6.4793949,29 14.470871,29 22.464019,29 28.941743,22.507937 28.941743,14.500837 28.941743,6.4920626 22.464019,0 14.470871,0 Z"
         id="Shape"
         inkscape:connector-curvature="0"
         style="fill:#ffffff" />
      <path
         d="m 38.063866,20.306944 v -1.276855 l 8.223677,-8.390762 H 38.883955 V 8.5416369 h 11.80018 V 9.704487 l -8.337579,8.390762 h 8.337579 v 2.211695 z m 15.116986,-4.902211 v -2.348501 h 5.307803 v 2.348501 z m 9.308018,4.902211 V 8.5416369 h 10.068879 c 1.761683,0 2.642511,0.7600251 2.642511,2.2800981 v 1.436462 c 0,1.155256 -0.675808,1.816478 -2.027444,1.983686 1.412384,0.182408 2.118565,0.934833 2.118565,2.257297 v 1.504865 c 0,1.535274 -1.154188,2.302899 -3.4626,2.302899 z m 8.929866,-5.10742 h -6.241794 v 2.986929 h 6.241794 c 0.455607,0 0.774528,-0.0532 0.956771,-0.159607 0.242991,-0.152008 0.364484,-0.448417 0.364484,-0.889239 v -0.889238 c 0,-0.440821 -0.121493,-0.737231 -0.364484,-0.889238 -0.182243,-0.106405 -0.501164,-0.159607 -0.956771,-0.159607 z m 0,-4.742605 h -6.241794 v 2.804521 h 6.241794 c 0.83528,0 1.252914,-0.281209 1.252914,-0.843636 v -1.117248 c 0,-0.562427 -0.417634,-0.843637 -1.252914,-0.843637 z m 11.517704,7.63833 h 9.020986 V 10.639327 H 82.93644 Z m -2.733632,-6.771892 c 0,-1.094453 0.20502,-1.8316773 0.615067,-2.2116955 0.410047,-0.3800183 1.176975,-0.5700246 2.300807,-0.5700246 h 8.656502 c 1.123832,0 1.89076,0.1900063 2.300807,0.5700246 0.410047,0.3800182 0.615068,1.1172425 0.615068,2.2116955 v 6.201867 c 0,1.094453 -0.205021,1.831677 -0.615068,2.211695 -0.410047,0.380019 -1.176975,0.570025 -2.300807,0.570025 h -8.656502 c -1.123832,0 -1.89076,-0.190006 -2.300807,-0.570025 -0.410047,-0.380018 -0.615067,-1.117242 -0.615067,-2.211695 z m 20.128642,8.983587 V 8.5416369 h 2.73363 v 9.5536121 h 8.81597 v 2.211695 z m 20.90318,-9.667617 v 9.667617 H 118.501 v -9.667617 h -5.39893 V 8.5416369 h 13.55426 v 2.0976901 z"
         id="Z-BOLT"
         inkscape:connector-curvature="0"
         style="fill:#ffffff" />
    </g>
  </g>
</svg>
