<?xml version="1.0" encoding="UTF-8"?>
<!DOCTYPE svg PUBLIC "-//W3C//DTD SVG 1.1//EN" "http://www.w3.org/Graphics/SVG/1.1/DTD/svg11.dtd">
<!-- Creator: CorelDRAW 2021 (64-Bit) -->
<svg xmlns="http://www.w3.org/2000/svg" xml:space="preserve" width="15mm" height="15mm" version="1.1" style="shape-rendering:geometricPrecision; text-rendering:geometricPrecision; image-rendering:optimizeQuality; fill-rule:evenodd; clip-rule:evenodd"
viewBox="0 0 1500 1500"
 xmlns:xlink="http://www.w3.org/1999/xlink"
 xmlns:xodm="http://www.corel.com/coreldraw/odm/2003">
 <defs>
  <style type="text/css">
   <![CDATA[
    .str0 {stroke:white;stroke-width:79.38;stroke-linejoin:round;stroke-miterlimit:22.9256}
    .fil0 {fill:white}
    .fil1 {fill:#FEFEFE;fill-rule:nonzero}
   ]]>
  </style>
 </defs>
 <g id="Layer_x0020_1">
  <metadata id="CorelCorpID_0Corel-Layer"/>
  <polygon id="path4710-2-4" class="fil0 str0" points="2329.58,4569.9 2450.71,4739.56 2568.01,4569.9 " sodipodi:nodetypes="ccc" inkscape:connector-curvature="0"/>
  <polygon id="path4710-2-1" class="fil0 str0" points="2003.64,3804.7 2145.29,3989.76 2273.73,3798.33 " sodipodi:nodetypes="ccc" inkscape:connector-curvature="0"/>
  <path class="fil1" d="M870.51 1179.54l-262.36 0c-16.09,0 -29.18,13.1 -29.18,29.21 0,16.12 13.09,29.22 29.18,29.22l262.36 0c16.09,0 29.18,-13.1 29.18,-29.22 0,-16.11 -13.09,-29.21 -29.18,-29.21z"/>
  <path class="fil1" d="M870.51 1256.62l-262.36 0c-16.09,0 -29.18,13.1 -29.18,29.22 0,16.11 13.09,29.21 29.18,29.21l262.36 0c16.09,0 29.18,-13.1 29.18,-29.21 0,-16.12 -13.09,-29.22 -29.18,-29.22z"/>
  <path class="fil1" d="M870.51 1333.71l-262.36 0c-16.09,0 -29.18,13.1 -29.18,29.21 0,16.12 13.09,29.22 29.18,29.22l262.36 0c16.09,0 29.18,-13.1 29.18,-29.22 0,-16.11 -13.09,-29.21 -29.18,-29.21z"/>
  <path class="fil1" d="M812.05 1420.09l-145.43 0c-16.1,0 -29.19,13.1 -29.19,29.21 0,16.12 13.09,29.22 29.19,29.22l145.43 0c16.1,0 29.18,-13.1 29.18,-29.22 0,-16.11 -13.08,-29.21 -29.18,-29.21z"/>
  <path class="fil1" d="M977.13 479.9c-61.25,-62.16 -142.98,-97.09 -230.14,-98.33 -181.2,-2.7 -331.38,142.71 -334.78,324.05 -1.47,78.45 24.99,155.01 74.52,215.55 50.29,61.49 77.98,137.96 77.98,215.33l0 0.87c0,16.12 13.09,29.22 29.19,29.22 16.09,0 29.18,-13.1 29.18,-29.22l0 -0.87c0,-90.84 -32.39,-180.46 -91.2,-252.36 -40.75,-49.81 -62.53,-112.82 -61.31,-177.42 2.8,-149.2 126.44,-268.83 275.59,-266.72 71.73,1.03 138.99,29.78 189.42,80.95 50.47,51.21 78.27,119.05 78.27,191.01 0,62.06 -20.32,120.49 -58.77,168.97 -55.89,70.48 -86.66,158.13 -86.66,246.8l0 9.64c0,16.12 13.08,29.22 29.18,29.22 16.09,0 29.19,-13.1 29.19,-29.22l0 -9.64c0,-75.54 26.28,-150.28 74,-210.46 46.74,-58.92 71.44,-129.92 71.44,-205.31 0,-87.42 -33.78,-169.83 -95.1,-232.06z"/>
  <g id="_1971676834720">
   <path class="fil1" d="M8145.25 3760.58l-253.31 0c-15.53,0 -28.17,12.65 -28.17,28.2 0,15.56 12.64,28.21 28.17,28.21l253.31 0c15.54,0 28.18,-12.65 28.18,-28.21 0,-15.55 -12.64,-28.2 -28.18,-28.2z"/>
   <path class="fil1" d="M8145.25 3835l-253.31 0c-15.53,0 -28.17,12.65 -28.17,28.21 0,15.56 12.64,28.21 28.17,28.21l253.31 0c15.54,0 28.18,-12.65 28.18,-28.21 0,-15.56 -12.64,-28.21 -28.18,-28.21z"/>
   <path class="fil1" d="M8145.25 3909.43l-253.31 0c-15.53,0 -28.17,12.65 -28.17,28.21 0,15.56 12.64,28.21 28.17,28.21l253.31 0c15.54,0 28.18,-12.65 28.18,-28.21 0,-15.56 -12.64,-28.21 -28.18,-28.21z"/>
   <path class="fil1" d="M8088.81 3992.83l-140.42 0c-15.54,0 -28.18,12.65 -28.18,28.21 0,15.56 12.64,28.21 28.18,28.21l140.42 0c15.54,0 28.18,-12.65 28.18,-28.21 0,-15.56 -12.64,-28.21 -28.18,-28.21z"/>
   <path class="fil1" d="M8248.2 3085.07c-59.14,-60.02 -138.05,-93.74 -222.2,-94.95 -174.96,-2.6 -319.96,137.79 -323.25,312.88 -1.42,75.75 24.13,149.66 71.95,208.12 48.56,59.37 75.3,133.2 75.3,207.91l0 0.84c0,15.56 12.64,28.21 28.18,28.21 15.54,0 28.18,-12.65 28.18,-28.21l0 -0.84c0,-87.71 -31.27,-174.24 -88.06,-243.66 -39.35,-48.1 -60.37,-108.93 -59.2,-171.31 2.7,-144.05 122.08,-259.56 266.09,-257.52 69.25,1 134.2,28.75 182.89,78.16 48.73,49.45 75.57,114.95 75.57,184.43 0,59.91 -19.62,116.33 -56.74,163.13 -53.96,68.06 -83.68,152.68 -83.68,238.3l0 9.31c0,15.56 12.64,28.21 28.18,28.21 15.54,0 28.19,-12.65 28.19,-28.21l0 -9.31c0,-72.93 25.37,-145.1 71.44,-203.21 45.13,-56.88 68.98,-125.43 68.98,-198.22 0,-84.41 -32.61,-163.98 -91.82,-224.06z"/>
  </g>
 </g>
</svg>
