<?xml version="1.0" encoding="UTF-8"?>
<svg width="250px" height="200px" viewBox="0 0 250 200" version="1.1" xmlns="http://www.w3.org/2000/svg" xmlns:xlink="http://www.w3.org/1999/xlink">
    <!-- Generator: Sketch 52.5 (67469) - http://www.bohemiancoding.com/sketch -->
    <title>Slice</title>
    <desc>Created with Sketch.</desc>
    <g id="Sandbox" stroke="none" stroke-width="1" fill="none" fill-rule="evenodd">
        <g id="LogoWhite6" transform="translate(1.000000, 73.000000)" fill="#FFFFFF" fill-rule="nonzero">
            <path d="M10.1609147,14.598059 C13.9103054,9.65626515 19.4981495,6.43092104 25.6526853,5.65670667 L25.6526853,14.1928319 L14.1804724,16.9207021 L10.1609147,14.598059 Z M13.0701519,22.8969782 L28.5388597,19.2169889 L35.8168948,21.0026238 L7.27803518,37.4785644 C4.86959529,31.7592617 4.87289002,25.3151626 7.27803518,19.5925653 L13.0701519,22.8969782 Z M21.2575296,36.0685059 L49.7930945,19.5925653 C52.2015344,25.311868 52.2015344,31.7592617 49.7930945,37.4785644 L43.9845041,34.1247336 L28.568512,37.1161663 L21.2575296,36.0685059 Z M28.568512,42.8815924 L42.8906573,40.1504277 L46.9102151,42.4730707 C45.0882351,44.8813717 42.8412365,46.8712672 40.3141868,48.3669834 C36.8053106,50.4458314 32.7593952,51.5791495 28.5619226,51.5857385 C21.3398977,51.5923276 14.5297126,48.2220241 10.1609147,42.4730707 L14.1804724,40.1504277 L28.568512,42.8815924 Z M31.4184444,14.1928319 L31.4184444,5.65670667 C37.5762749,6.43092104 43.1575296,9.65297061 46.9102151,14.598059 L42.8906573,16.9207021 L31.4184444,14.1928319 Z M28.5355648,0 C12.7769219,0 0,12.7761843 0,28.537212 C0,44.2949453 12.7769219,57.0711297 28.5355648,57.0711297 C44.2975025,57.0711297 57.0711297,44.2949453 57.0711297,28.537212 C57.0711297,12.7761843 44.2975025,0 28.5355648,0 Z" id="Shape"></path>
            <path d="M74.7112971,39.4309623 L74.7112971,36.953456 L90.7969802,20.6726996 L76.3154095,20.6726996 L76.3154095,16.6025105 L99.3968052,16.6025105 L99.3968052,18.8588109 L83.0883288,35.1395674 L99.3968052,35.1395674 L99.3968052,39.4309623 L74.7112971,39.4309623 Z M104.280436,29.9191074 L104.280436,25.3622653 L114.662609,25.3622653 L114.662609,29.9191074 L104.280436,29.9191074 Z M122.487113,39.4309623 L122.487113,16.6025105 L142.182049,16.6025105 C145.627937,16.6025105 147.350856,18.0772019 147.350856,21.0266291 L147.350856,23.8138238 C147.350856,26.0553883 146.028962,27.3383699 143.385133,27.662807 C146.147785,28.0167383 147.529091,29.4766828 147.529091,32.0426844 L147.529091,34.9626025 C147.529091,37.941524 145.271473,39.4309623 140.756171,39.4309623 L122.487113,39.4309623 Z M139.954115,29.5209368 L127.745037,29.5209368 L127.745037,35.3165321 L139.954115,35.3165321 C140.845293,35.3165321 141.469108,35.2133036 141.82558,35.0068437 C142.300875,34.711901 142.538518,34.1367714 142.538518,33.2814375 L142.538518,31.5560313 C142.538518,30.7006975 142.300875,30.1255676 141.82558,29.830625 C141.469108,29.6241651 140.845293,29.5209368 139.954115,29.5209368 Z M139.954115,20.31877 L127.745037,20.31877 L127.745037,25.7604359 L139.954115,25.7604359 C141.587941,25.7604359 142.404842,25.2148001 142.404842,24.1235121 L142.404842,21.9556939 C142.404842,20.8644058 141.587941,20.31877 139.954115,20.31877 Z M162.482983,35.1395674 L180.12822,35.1395674 L180.12822,20.6726996 L162.482983,20.6726996 L162.482983,35.1395674 Z M157.135942,21.9999352 C157.135942,19.8763475 157.536966,18.4458969 158.339026,17.7085401 C159.141086,16.9711833 160.641214,16.6025105 162.839453,16.6025105 L179.771751,16.6025105 C181.96999,16.6025105 183.470117,16.9711833 184.272177,17.7085401 C185.074238,18.4458969 185.475262,19.8763475 185.475262,21.9999352 L185.475262,34.0335377 C185.475262,36.1571251 185.074238,37.587576 184.272177,38.3249326 C183.470117,39.0622895 181.96999,39.4309623 179.771751,39.4309623 L162.839453,39.4309623 C160.641214,39.4309623 159.141086,39.0622895 158.339026,38.3249326 C157.536966,37.587576 157.135942,36.1571251 157.135942,34.0335377 L157.135942,21.9999352 Z M196.50799,39.4309623 L196.50799,16.6025105 L201.855031,16.6025105 L201.855031,35.1395674 L219.099242,35.1395674 L219.099242,39.4309623 L196.50799,39.4309623 Z M237.395034,20.6726996 L237.395034,39.4309623 L232.047993,39.4309623 L232.047993,20.6726996 L221.487586,20.6726996 L221.487586,16.6025105 L248,16.6025105 L248,20.6726996 L237.395034,20.6726996 Z" id="Z-BOLT"></path>
        </g>
    </g>
</svg>