<?xml version="1.0" encoding="UTF-8"?>
<svg width="56px" height="58px" viewBox="0 0 56 58" version="1.1" xmlns="http://www.w3.org/2000/svg" xmlns:xlink="http://www.w3.org/1999/xlink">
    <!-- Generator: Sketch 52.5 (67469) - http://www.bohemiancoding.com/sketch -->
    <title>magnet</title>
    <desc>Created with Sketch.</desc>
    <g id="a" stroke="none" stroke-width="1" fill="none" fill-rule="evenodd">
        <g id="Artboard" transform="translate(-2208.000000, -2109.000000)">
            <g id="magnet" transform="translate(2208.000000, 2109.000000)">
                <path d="M25,5 C11.7662222,5 1,15.7662222 1,29 C1,42.2337778 11.7662222,53 25,53 L43.6666667,53 L43.6666667,38.7777778 L25,38.7777778 C19.6088889,38.7777778 15.2222222,34.3911111 15.2222222,29 C15.2222222,23.6088889 19.6088889,19.2222222 25,19.2222222 L43.6666667,19.2222222 L43.6666667,5 L25,5 Z M13.4444444,29 C13.4444444,35.3715556 18.6284444,40.5555556 25,40.5555556 L33.8888889,40.5555556 L33.8888889,51.2222222 L25,51.2222222 C12.7466667,51.2222222 2.77777778,41.2533333 2.77777778,29 C2.77777778,16.7466667 12.7466667,6.77777778 25,6.77777778 L33.8888889,6.77777778 L33.8888889,17.4444444 L25,17.4444444 C18.6284444,17.4444444 13.4444444,22.6284444 13.4444444,29 Z" id="Shape" fill="#FFFFFF" fill-rule="nonzero"></path>
                <polygon id="Path" fill="#FFFFFF" fill-rule="nonzero" points="43.6666667 53 33.8888889 53 33.8888889 38.7777778 43.6666667 38.7777778"></polygon>
                <rect id="Rectangle" fill="#FFFFFF" fill-rule="nonzero" x="33.8888889" y="5" width="9.77777778" height="14.2222222"></rect>
                <path d="M49,9.44444444 L49.8888889,9.44444444 C50.3795556,9.44444444 50.7777778,9.04711111 50.7777778,8.55555556 C50.7777778,8.064 50.3795556,7.66666667 49.8888889,7.66666667 L49,7.66666667 C48.5093333,7.66666667 48.1111111,8.064 48.1111111,8.55555556 C48.1111111,9.04711111 48.5093333,9.44444444 49,9.44444444 Z" id="Path" fill="#FFFFFF"></path>
                <path d="M45.4444444,9.44444444 L46.3333333,9.44444444 C46.824,9.44444444 47.2222222,9.04711111 47.2222222,8.55555556 C47.2222222,8.064 46.824,7.66666667 46.3333333,7.66666667 L45.4444444,7.66666667 C44.9537778,7.66666667 44.5555556,8.064 44.5555556,8.55555556 C44.5555556,9.04711111 44.9537778,9.44444444 45.4444444,9.44444444 Z" id="Path" fill="#FFFFFF"></path>
                <path d="M52.5555556,9.44444444 L53.4444444,9.44444444 C53.9351111,9.44444444 54.3333333,9.04711111 54.3333333,8.55555556 C54.3333333,8.064 53.9351111,7.66666667 53.4444444,7.66666667 L52.5555556,7.66666667 C52.0648889,7.66666667 51.6666667,8.064 51.6666667,8.55555556 C51.6666667,9.04711111 52.0648889,9.44444444 52.5555556,9.44444444 Z" id="Path" fill="#FFFFFF"></path>
                <path d="M49.8888889,14.7777778 L49,14.7777778 C48.5093333,14.7777778 48.1111111,15.1751111 48.1111111,15.6666667 C48.1111111,16.1582222 48.5093333,16.5555556 49,16.5555556 L49.8888889,16.5555556 C50.3795556,16.5555556 50.7777778,16.1582222 50.7777778,15.6666667 C50.7777778,15.1751111 50.3795556,14.7777778 49.8888889,14.7777778 Z" id="Path" fill="#FFFFFF"></path>
                <path d="M45.4444444,16.5555556 L46.3333333,16.5555556 C46.824,16.5555556 47.2222222,16.1582222 47.2222222,15.6666667 C47.2222222,15.1751111 46.824,14.7777778 46.3333333,14.7777778 L45.4444444,14.7777778 C44.9537778,14.7777778 44.5555556,15.1751111 44.5555556,15.6666667 C44.5555556,16.1582222 44.9537778,16.5555556 45.4444444,16.5555556 Z" id="Path" fill="#FFFFFF"></path>
                <path d="M53.4444444,14.7777778 L52.5555556,14.7777778 C52.0648889,14.7777778 51.6666667,15.1751111 51.6666667,15.6666667 C51.6666667,16.1582222 52.0648889,16.5555556 52.5555556,16.5555556 L53.4444444,16.5555556 C53.9351111,16.5555556 54.3333333,16.1582222 54.3333333,15.6666667 C54.3333333,15.1751111 53.9351111,14.7777778 53.4444444,14.7777778 Z" id="Path" fill="#FFFFFF"></path>
                <path d="M46.3333333,12.1111111 C46.3333333,12.6026667 46.7315556,13 47.2222222,13 L48.1111111,13 C48.6017778,13 49,12.6026667 49,12.1111111 C49,11.6195556 48.6017778,11.2222222 48.1111111,11.2222222 L47.2222222,11.2222222 C46.7315556,11.2222222 46.3333333,11.6195556 46.3333333,12.1111111 Z" id="Path" fill="#FFFFFF"></path>
                <path d="M49.8888889,12.1111111 C49.8888889,12.6026667 50.2871111,13 50.7777778,13 L51.6666667,13 C52.1573333,13 52.5555556,12.6026667 52.5555556,12.1111111 C52.5555556,11.6195556 52.1573333,11.2222222 51.6666667,11.2222222 L50.7777778,11.2222222 C50.2871111,11.2222222 49.8888889,11.6195556 49.8888889,12.1111111 Z" id="Path" fill="#FFFFFF"></path>
                <path d="M49.8888889,42.3333333 L49,42.3333333 C48.5093333,42.3333333 48.1111111,42.7306667 48.1111111,43.2222222 C48.1111111,43.7137778 48.5093333,44.1111111 49,44.1111111 L49.8888889,44.1111111 C50.3795556,44.1111111 50.7777778,43.7137778 50.7777778,43.2222222 C50.7777778,42.7306667 50.3795556,42.3333333 49.8888889,42.3333333 Z" id="Path" fill="#FFFFFF"></path>
                <path d="M45.4444444,44.1111111 L46.3333333,44.1111111 C46.824,44.1111111 47.2222222,43.7137778 47.2222222,43.2222222 C47.2222222,42.7306667 46.824,42.3333333 46.3333333,42.3333333 L45.4444444,42.3333333 C44.9537778,42.3333333 44.5555556,42.7306667 44.5555556,43.2222222 C44.5555556,43.7137778 44.9537778,44.1111111 45.4444444,44.1111111 Z" id="Path" fill="#FFFFFF"></path>
                <path d="M53.4444444,42.3333333 L52.5555556,42.3333333 C52.0648889,42.3333333 51.6666667,42.7306667 51.6666667,43.2222222 C51.6666667,43.7137778 52.0648889,44.1111111 52.5555556,44.1111111 L53.4444444,44.1111111 C53.9351111,44.1111111 54.3333333,43.7137778 54.3333333,43.2222222 C54.3333333,42.7306667 53.9351111,42.3333333 53.4444444,42.3333333 Z" id="Path" fill="#FFFFFF"></path>
                <path d="M49.8888889,49.4444444 L49,49.4444444 C48.5093333,49.4444444 48.1111111,49.8417778 48.1111111,50.3333333 C48.1111111,50.8248889 48.5093333,51.2222222 49,51.2222222 L49.8888889,51.2222222 C50.3795556,51.2222222 50.7777778,50.8248889 50.7777778,50.3333333 C50.7777778,49.8417778 50.3795556,49.4444444 49.8888889,49.4444444 Z" id="Path" fill="#FFFFFF"></path>
                <path d="M46.3333333,49.4444444 L45.4444444,49.4444444 C44.9537778,49.4444444 44.5555556,49.8417778 44.5555556,50.3333333 C44.5555556,50.8248889 44.9537778,51.2222222 45.4444444,51.2222222 L46.3333333,51.2222222 C46.824,51.2222222 47.2222222,50.8248889 47.2222222,50.3333333 C47.2222222,49.8417778 46.824,49.4444444 46.3333333,49.4444444 Z" id="Path" fill="#FFFFFF"></path>
                <path d="M53.4444444,49.4444444 L52.5555556,49.4444444 C52.0648889,49.4444444 51.6666667,49.8417778 51.6666667,50.3333333 C51.6666667,50.8248889 52.0648889,51.2222222 52.5555556,51.2222222 L53.4444444,51.2222222 C53.9351111,51.2222222 54.3333333,50.8248889 54.3333333,50.3333333 C54.3333333,49.8417778 53.9351111,49.4444444 53.4444444,49.4444444 Z" id="Path" fill="#FFFFFF"></path>
                <path d="M49,46.7777778 C49,46.2862222 48.6017778,45.8888889 48.1111111,45.8888889 L47.2222222,45.8888889 C46.7315556,45.8888889 46.3333333,46.2862222 46.3333333,46.7777778 C46.3333333,47.2693333 46.7315556,47.6666667 47.2222222,47.6666667 L48.1111111,47.6666667 C48.6017778,47.6666667 49,47.2693333 49,46.7777778 Z" id="Path" fill="#FFFFFF"></path>
                <path d="M53.4444444,46.7777778 C53.4444444,46.2862222 53.0462222,45.8888889 52.5555556,45.8888889 L51.6666667,45.8888889 C51.176,45.8888889 50.7777778,46.2862222 50.7777778,46.7777778 C50.7777778,47.2693333 51.176,47.6666667 51.6666667,47.6666667 L52.5555556,47.6666667 C53.0462222,47.6666667 53.4444444,47.2693333 53.4444444,46.7777778 Z" id="Path" fill="#FFFFFF"></path>
            </g>
        </g>
    </g>
</svg>