<?xml version="1.0" encoding="UTF-8" standalone="no"?>
<svg
	xmlns:dc="http://purl.org/dc/elements/1.1/"
	xmlns:cc="http://creativecommons.org/ns#"
	xmlns:rdf="http://www.w3.org/1999/02/22-rdf-syntax-ns#"
	xmlns:svg="http://www.w3.org/2000/svg"
	xmlns="http://www.w3.org/2000/svg"
	xmlns:sodipodi="http://sodipodi.sourceforge.net/DTD/sodipodi-0.dtd"
	xmlns:inkscape="http://www.inkscape.org/namespaces/inkscape"
   width="64"
   height="64"
   viewBox="0 0 64 64"
   version="1.1"
   id="svg10"
   sodipodi:docname="motor-off.svg"
   inkscape:version="1.0.2 (e86c870879, 2021-01-15, custom)">
	<metadata
     id="metadata16">
		<rdf:RDF>
			<cc:Work
         rdf:about="">
				<dc:format>image/svg+xml</dc:format>
				<dc:type
           rdf:resource="http://purl.org/dc/dcmitype/StillImage" />
				<dc:title>folder</dc:title>
			</cc:Work>
		</rdf:RDF>
	</metadata>
	<defs
     id="defs14" />
	<sodipodi:namedview
     pagecolor="#bfbfbf"
     bordercolor="#666666"
     borderopacity="1"
     objecttolerance="10"
     gridtolerance="10"
     guidetolerance="10"
     inkscape:pageopacity="0"
     inkscape:pageshadow="2"
     inkscape:window-width="1600"
     inkscape:window-height="837"
     id="namedview12"
     showgrid="false"
     inkscape:pagecheckerboard="false"
     inkscape:zoom="5.4137931"
     inkscape:cx="32.109123"
     inkscape:cy="22.356606"
     inkscape:window-x="-8"
     inkscape:window-y="-8"
     inkscape:window-maximized="1"
     inkscape:current-layer="svg10"
     inkscape:snap-bbox="true"
     inkscape:snap-bbox-edge-midpoints="true"
     inkscape:document-rotation="0"
     inkscape:snap-bbox-midpoints="true"
     inkscape:snap-intersection-paths="true"
     inkscape:snap-midpoints="true"
     inkscape:snap-smooth-nodes="true"
     inkscape:snap-object-midpoints="true"
     inkscape:snap-center="true"
     inkscape:bbox-nodes="true"
     inkscape:bbox-paths="true" />
	<!-- Generator: Sketch 52.5 (67469) - http://www.bohemiancoding.com/sketch -->
	<title
     id="title2">folder</title>
	<desc
     id="desc4">Created with Sketch.</desc>
	<path fill="#FFFFFF" d="M52.565,35.096c0-11.438-9.2-20.743-20.509-20.743c-11.309,0-20.509,9.305-20.509,20.743
	s9.2,20.742,20.509,20.742c3.651,0,7.076-0.981,10.05-2.681l-1.678-2.484c-2.488,1.379-5.341,2.165-8.372,2.165
	c-9.655,0-17.509-7.959-17.509-17.742s7.854-17.743,17.509-17.743c9.654,0,17.509,7.959,17.509,17.743
	c0,5.656-2.636,10.691-6.717,13.942l1.679,2.486C49.404,47.729,52.565,41.786,52.565,35.096z"/>
	<path fill="#FFFFFF" d="M49.068,50.411L32.906,26.198c-0.173-0.26-0.423-0.458-0.714-0.569l-7.454-2.834
	c-0.469-0.179-0.997-0.111-1.404,0.181c-0.408,0.292-0.644,0.768-0.628,1.269l0.246,7.727c0.009,0.28,0.096,0.552,0.251,0.785
	l16.16,24.213c0.223,0.332,0.568,0.563,0.96,0.639c0.096,0.02,0.192,0.028,0.288,0.028c0.298,0,0.592-0.089,0.843-0.259l2.525-1.714
	c-0.141-0.089-0.271-0.193-0.375-0.323l-0.017,0.011l-4.025-5.962L25.738,28.915l0.025-0.017c-0.156-0.231-0.247-0.509-0.247-0.809
	c0-0.804,0.652-1.454,1.456-1.454c0.577,0,1.07,0.337,1.306,0.823l13.693,20.28l3.859,5.716c0.18,0.199,0.282,0.455,0.332,0.729
	l2.501-1.697C49.345,52.022,49.525,51.097,49.068,50.411z"/>
	<path fill="#FFFFFF" d="M43.947,47.385c-0.694,0-1.358,0.129-1.977,0.354l3.859,5.716c0.233,0.26,0.379,0.599,0.379,0.975
	c0,0.809-0.656,1.464-1.466,1.464c-0.463,0-0.87-0.218-1.139-0.552l-0.017,0.011l-4.025-5.962c-0.918,1.05-1.48,2.427-1.48,3.94
	c0,3.283,2.626,5.945,5.865,5.945c3.238,0,5.865-2.662,5.865-5.945C49.813,50.045,47.186,47.385,43.947,47.385z"/>
	<path id="path4153" inkscape:connector-curvature="0" display="none" fill="none" stroke="#232323" stroke-width="3" stroke-linecap="round" d="
	M26.224,26.943L44.708,54.49"/>
	<g id="text4803-5-0">
		<path id="path940" fill="#FFFFFF" d="M17.05,9.695c0,0.769-0.062,1.464-0.186,2.084c-0.124,0.62-0.328,1.149-0.61,1.585
		c-0.278,0.437-0.643,0.772-1.094,1.005c-0.447,0.233-0.995,0.35-1.646,0.35c-0.66,0-1.206-0.112-1.638-0.335
		c-0.432-0.229-0.774-0.553-1.027-0.975c-0.253-0.427-0.432-0.946-0.536-1.556c-0.1-0.615-0.149-1.31-0.149-2.084
		c0-0.764,0.062-1.457,0.186-2.077c0.129-0.625,0.333-1.156,0.61-1.593c0.283-0.437,0.647-0.771,1.094-1.005
		c0.452-0.233,1-0.35,1.646-0.35c0.66,0,1.206,0.114,1.638,0.343c0.437,0.223,0.781,0.548,1.035,0.975
		c0.253,0.422,0.429,0.94,0.528,1.556C17,8.229,17.05,8.921,17.05,9.695z M15.077,9.792c0-0.457-0.012-0.858-0.037-1.206
		c-0.025-0.352-0.064-0.658-0.119-0.916c-0.05-0.258-0.114-0.477-0.194-0.655c-0.074-0.179-0.166-0.32-0.275-0.424
		c-0.109-0.109-0.233-0.186-0.372-0.23c-0.139-0.045-0.293-0.067-0.461-0.067c-0.293,0-0.536,0.072-0.729,0.216
		c-0.189,0.139-0.34,0.35-0.454,0.633c-0.109,0.283-0.187,0.635-0.231,1.057s-0.067,0.914-0.067,1.474
		c0,0.685,0.027,1.253,0.082,1.705c0.054,0.447,0.139,0.804,0.253,1.072c0.119,0.263,0.271,0.449,0.454,0.558
		c0.184,0.104,0.404,0.157,0.663,0.157c0.193,0,0.365-0.03,0.514-0.089c0.149-0.065,0.278-0.159,0.387-0.283
		c0.114-0.124,0.208-0.28,0.283-0.469c0.074-0.189,0.134-0.407,0.179-0.655c0.049-0.248,0.082-0.528,0.097-0.841
		C15.067,10.514,15.077,10.169,15.077,9.792z"/>
	</g>
	<g id="text4803-5-0-0">
		<path id="path943" fill="#FFFFFF" d="M53.836,14.069c0,0.139-0.008,0.258-0.021,0.357c-0.016,0.094-0.038,0.171-0.068,0.23
		c-0.023,0.055-0.054,0.094-0.089,0.119c-0.034,0.025-0.074,0.037-0.118,0.037h-5.316c-0.039,0-0.076-0.012-0.111-0.037
		s-0.066-0.064-0.097-0.119c-0.024-0.06-0.045-0.136-0.06-0.23c-0.015-0.1-0.022-0.219-0.022-0.357c0-0.144,0.005-0.263,0.015-0.357
		c0.016-0.099,0.035-0.179,0.061-0.238c0.029-0.06,0.062-0.102,0.096-0.126c0.035-0.03,0.074-0.044,0.119-0.044h1.795V7.034
		L48.469,7.89c-0.114,0.055-0.209,0.089-0.283,0.104c-0.069,0.01-0.126-0.005-0.171-0.044c-0.04-0.045-0.067-0.119-0.082-0.224
		c-0.015-0.104-0.022-0.25-0.022-0.439c0-0.119,0.003-0.216,0.008-0.291c0.005-0.079,0.018-0.146,0.037-0.201
		c0.02-0.054,0.047-0.099,0.082-0.134s0.082-0.072,0.141-0.112l2.07-1.34c0.025-0.02,0.055-0.035,0.09-0.044
		c0.039-0.015,0.089-0.025,0.148-0.03c0.06-0.01,0.137-0.015,0.23-0.015c0.1-0.005,0.227-0.007,0.38-0.007
		c0.188,0,0.34,0.005,0.454,0.015c0.119,0.005,0.209,0.018,0.268,0.038c0.061,0.015,0.1,0.037,0.119,0.067s0.03,0.067,0.03,0.112
		v7.958h1.57c0.045,0,0.085,0.015,0.119,0.044c0.04,0.025,0.072,0.067,0.097,0.126c0.03,0.06,0.05,0.139,0.061,0.238
		C53.828,13.806,53.836,13.925,53.836,14.069L53.836,14.069z"/>
	</g>
	<path fill="none" d="z"/>
</svg>