<?xml version="1.0" encoding="UTF-8" standalone="no"?>
<svg
	xmlns:dc="http://purl.org/dc/elements/1.1/"
	xmlns:cc="http://creativecommons.org/ns#"
	xmlns:rdf="http://www.w3.org/1999/02/22-rdf-syntax-ns#"
	xmlns:svg="http://www.w3.org/2000/svg"
	xmlns="http://www.w3.org/2000/svg"
	xmlns:sodipodi="http://sodipodi.sourceforge.net/DTD/sodipodi-0.dtd"
	xmlns:inkscape="http://www.inkscape.org/namespaces/inkscape"
   width="64"
   height="64"
   viewBox="0 0 64 64"
   version="1.1"
   id="svg10"
   sodipodi:docname="move.svg"
   inkscape:version="1.0.2 (e86c870879, 2021-01-15, custom)">
	<metadata
     id="metadata16">
		<rdf:RDF>
			<cc:Work
         rdf:about="">
				<dc:format>image/svg+xml</dc:format>
				<dc:type
           rdf:resource="http://purl.org/dc/dcmitype/StillImage" />
				<dc:title>folder</dc:title>
			</cc:Work>
		</rdf:RDF>
	</metadata>
	<defs
     id="defs14" />
	<sodipodi:namedview
     pagecolor="#bfbfbf"
     bordercolor="#666666"
     borderopacity="1"
     objecttolerance="10"
     gridtolerance="10"
     guidetolerance="10"
     inkscape:pageopacity="0"
     inkscape:pageshadow="2"
     inkscape:window-width="1600"
     inkscape:window-height="837"
     id="namedview12"
     showgrid="false"
     inkscape:pagecheckerboard="false"
     inkscape:zoom="5.4137931"
     inkscape:cx="32.109123"
     inkscape:cy="22.356606"
     inkscape:window-x="-8"
     inkscape:window-y="-8"
     inkscape:window-maximized="1"
     inkscape:current-layer="svg10"
     inkscape:snap-bbox="true"
     inkscape:snap-bbox-edge-midpoints="true"
     inkscape:document-rotation="0"
     inkscape:snap-bbox-midpoints="true"
     inkscape:snap-intersection-paths="true"
     inkscape:snap-midpoints="true"
     inkscape:snap-smooth-nodes="true"
     inkscape:snap-object-midpoints="true"
     inkscape:snap-center="true"
     inkscape:bbox-nodes="true"
     inkscape:bbox-paths="true" />
	<!-- Generator: Sketch 52.5 (67469) - http://www.bohemiancoding.com/sketch -->
	<title
     id="title2">folder</title>
	<desc
     id="desc4">Created with Sketch.</desc>
	<path fill="none" d="z"/>
	<path fill="none" d="M34.84,50.886c-0.563-0.227-0.933-0.77-0.939-1.375l-0.142-12.494l-3.735,0.043l0.142,12.531
	c0.007,0.608-0.355,1.161-0.916,1.398c-0.562,0.235-1.209,0.11-1.642-0.318l-2.767-2.75l-2.632,2.672l9.841,9.781l9.739-9.885
	l-2.66-2.644l-2.661,2.701C36.044,50.979,35.399,51.112,34.84,50.886z"/>
	<path fill="none" d="M29.25,13.011c0.561,0.237,0.923,0.79,0.916,1.399l-0.142,12.53l3.735,0.043L33.9,14.489
	c0.007-0.605,0.377-1.147,0.939-1.374c0.561-0.227,1.204-0.093,1.629,0.338l2.661,2.701l2.661-2.645l-9.74-9.884l-9.841,9.782
	l2.633,2.671l2.766-2.75C28.042,12.901,28.69,12.775,29.25,13.011z"/>
	<path fill="none" d="M13.115,29.16c-0.227-0.562-0.093-1.205,0.338-1.629l2.701-2.662l-2.644-2.66l-9.884,9.74l9.782,9.841
	l2.671-2.632l-2.75-2.767c-0.429-0.432-0.555-1.081-0.318-1.642c0.235-0.556,0.78-0.916,1.382-0.916c0.005,0,0.011,0,0.017,0
	l12.53,0.143l0.043-3.736l-12.494-0.142C13.883,30.092,13.341,29.722,13.115,29.16z"/>
	<path fill="none" d="M47.846,24.869l2.701,2.662c0.432,0.425,0.564,1.068,0.339,1.629c-0.227,0.562-0.769,0.932-1.375,0.939
	l-12.494,0.142l0.043,3.736l12.531-0.143c0.005,0,0.011,0,0.017,0c0.603,0,1.146,0.36,1.382,0.916
	c0.237,0.561,0.111,1.21-0.318,1.642l-2.75,2.767l2.672,2.632l9.781-9.841l-9.885-9.74L47.846,24.869z"/>
	<path fill="#FFFFFF" d="M29.573,27.709c0.09,0.092,0.163,0.198,0.226,0.309c0.656-0.364,1.399-0.589,2.202-0.589
	s1.546,0.225,2.202,0.589c0.063-0.111,0.135-0.217,0.226-0.309c0.277-0.285,0.657-0.447,1.056-0.452l1.273-0.015l0.103-9.119
	l1.191,1.209c0.28,0.284,0.661,0.445,1.061,0.447c0.357-0.016,0.782-0.155,1.065-0.436l4.788-4.759
	c0.586-0.583,0.591-1.528,0.011-2.117L33.131,0.447C32.851,0.163,32.469,0.002,32.07,0c-0.403-0.049-0.783,0.155-1.065,0.436
	L19.035,12.333c-0.585,0.583-0.59,1.528-0.011,2.117l4.738,4.809c0.28,0.284,0.662,0.445,1.061,0.447c0.002,0,0.005,0,0.008,0
	c0.396,0,0.776-0.157,1.058-0.436l1.236-1.229l-0.104,9.2l1.497,0.017C28.915,27.262,29.294,27.425,29.573,27.709z M24.842,16.079
	l-2.633-2.671l9.841-9.782l9.74,9.884l-2.661,2.645l-2.661-2.701c-0.425-0.432-1.068-0.565-1.629-0.338
	c-0.563,0.227-0.933,0.769-0.939,1.374l-0.142,12.494l-3.735-0.043l0.142-12.53c0.007-0.609-0.355-1.162-0.916-1.399
	c-0.56-0.236-1.208-0.11-1.642,0.318L24.842,16.079z"/>
	<path fill="#FFFFFF" d="M35.577,36.993c-0.649,0-1.198-0.415-1.406-0.995C33.522,36.352,32.79,36.57,32,36.57
	c-0.791,0-1.522-0.219-2.171-0.572c-0.208,0.58-0.757,0.995-1.406,0.995c-0.006,0-0.012,0-0.018,0l-1.383-0.016l0.102,8.982
	l-1.236-1.229c-0.281-0.279-0.662-0.437-1.058-0.437c-0.002,0-0.005,0-0.008,0c-0.399,0.002-0.781,0.163-1.061,0.447l-4.738,4.809
	c-0.58,0.588-0.575,1.534,0.011,2.116l11.969,11.896C31.286,63.844,31.666,64,32.062,64c0.002,0,0.005,0,0.008,0
	c0.399-0.002,0.781-0.163,1.061-0.447l11.845-12.021c0.58-0.588,0.575-1.534-0.011-2.116l-4.788-4.759
	c-0.283-0.282-0.705-0.458-1.065-0.437c-0.399,0.002-0.78,0.163-1.061,0.447l-1.191,1.209l-0.101-8.896l-1.165,0.014
	C35.589,36.993,35.583,36.993,35.577,36.993z M39.13,47.846l2.66,2.644l-9.739,9.885l-9.841-9.781l2.632-2.672l2.767,2.75
	c0.432,0.429,1.08,0.554,1.642,0.318c0.561-0.237,0.923-0.79,0.916-1.398L30.024,37.06l3.735-0.043L33.9,49.511
	c0.007,0.605,0.377,1.148,0.939,1.375c0.56,0.227,1.204,0.094,1.629-0.339L39.13,47.846z"/>
	<path fill="#FFFFFF" d="M63.553,30.87L51.531,19.024c-0.588-0.58-1.534-0.573-2.116,0.011l-4.759,4.788
	c-0.281,0.283-0.438,0.667-0.437,1.065s0.163,0.781,0.447,1.061l1.209,1.191l-9.119,0.103l-1.273,0.015
	c-0.398,0.004-0.778,0.167-1.056,0.452c-0.091,0.092-0.163,0.198-0.226,0.309c1.405,0.779,2.368,2.26,2.368,3.981
	c0,1.734-0.977,3.224-2.399,3.998c0.208,0.58,0.757,0.995,1.406,0.995c0.006,0,0.012,0,0.017,0l1.165-0.014l9.201-0.104
	l-1.229,1.236c-0.281,0.283-0.438,0.666-0.437,1.065c0.002,0.398,0.163,0.78,0.447,1.061l4.809,4.738
	c0.292,0.288,0.673,0.432,1.053,0.432c0.386,0,0.771-0.147,1.063-0.442l11.896-11.97c0.281-0.282,0.438-0.666,0.437-1.065
	S63.837,31.149,63.553,30.87z M50.593,41.79l-2.672-2.632l2.75-2.767c0.43-0.432,0.556-1.081,0.318-1.642
	c-0.235-0.556-0.779-0.916-1.382-0.916c-0.006,0-0.012,0-0.017,0L37.06,33.977l-0.043-3.736l12.494-0.142
	c0.606-0.007,1.148-0.377,1.375-0.939c0.226-0.562,0.093-1.205-0.339-1.629l-2.701-2.662l2.644-2.66l9.885,9.74L50.593,41.79z"/>
	<path fill="#FFFFFF" d="M28.423,36.993c0.649,0,1.197-0.415,1.406-0.995C28.406,35.224,27.43,33.734,27.43,32
	c0-1.721,0.963-3.202,2.369-3.981c-0.063-0.111-0.135-0.217-0.226-0.309c-0.278-0.285-0.658-0.447-1.056-0.452l-1.497-0.017
	l-8.896-0.101l1.209-1.191c0.284-0.28,0.445-0.662,0.447-1.061s-0.155-0.782-0.436-1.065l-4.759-4.788
	c-0.582-0.586-1.529-0.591-2.117-0.011L0.447,30.87C0.163,31.149,0.002,31.531,0,31.93s0.155,0.783,0.436,1.065l11.896,11.97
	c0.293,0.295,0.679,0.442,1.064,0.442c0.38,0,0.761-0.144,1.053-0.432l4.809-4.738c0.284-0.28,0.445-0.662,0.447-1.061
	c0.002-0.399-0.155-0.782-0.436-1.065l-1.229-1.236l8.982,0.103l1.383,0.016C28.412,36.993,28.417,36.993,28.423,36.993z
	 M26.94,33.977l-12.53-0.143c-0.006,0-0.012,0-0.017,0c-0.602,0-1.147,0.36-1.382,0.916c-0.237,0.561-0.111,1.21,0.318,1.642
	l2.75,2.767l-2.671,2.632l-9.782-9.841l9.884-9.74l2.644,2.66l-2.701,2.662c-0.432,0.425-0.565,1.068-0.338,1.629
	s0.769,0.932,1.374,0.939l12.494,0.142L26.94,33.977z"/>
	<path fill="#FFFFFF" d="M32,24.5c-4.136,0-7.5,3.364-7.5,7.5s3.364,7.5,7.5,7.5s7.5-3.364,7.5-7.5S36.136,24.5,32,24.5z M32,36.57
	c-2.524,0-4.57-2.046-4.57-4.57c0-2.524,2.046-4.57,4.57-4.57c2.524,0,4.57,2.046,4.57,4.57C36.57,34.524,34.524,36.57,32,36.57z"/>
</svg>