<?xml version="1.0" encoding="UTF-8"?>
<svg width="57px" height="58px" viewBox="0 0 57 58" version="1.1" xmlns="http://www.w3.org/2000/svg" xmlns:xlink="http://www.w3.org/1999/xlink">
    <!-- Generator: Sketch 52.5 (67469) - http://www.bohemiancoding.com/sketch -->
    <title>network</title>
    <desc>Created with Sketch.</desc>
    <g id="a" stroke="none" stroke-width="1" fill="none" fill-rule="evenodd">
        <g id="Artboard" transform="translate(-2110.000000, -2289.000000)">
            <g id="wifi-(1)" transform="translate(2110.000000, 2289.000000)">
                <path d="M28.9362041,49.877193 C26.4883073,49.877193 24.4960128,47.8852448 24.4960128,45.4362295 C24.4960128,42.9887584 26.4883073,40.9968102 28.9362041,40.9968102 C31.384101,40.9968102 33.3763955,42.9887584 33.3763955,45.4362295 C33.3763955,47.8852448 31.384101,49.877193 28.9362041,49.877193 Z" id="Shape" fill="#FFFFFF" fill-rule="nonzero"></path>
                <path d="M39.2566532,35.8161908 C39.0566657,35.8161908 38.8566782,35.7385481 38.7035628,35.5848473 C36.0943508,32.9386576 32.6258174,31.4808765 28.9354229,31.4808765 C25.2465909,31.4808765 21.7764951,32.9386576 19.1688455,35.5848473 C18.8641771,35.8938335 18.3688955,35.8938335 18.064227,35.5848473 C17.7595586,35.275861 17.7595586,34.7735604 18.064227,34.4645741 C20.9687331,31.5189055 24.8294294,29.8963317 28.9354229,29.8963317 C33.0429789,29.8963317 36.9036752,31.517321 39.8081813,34.4645741 C40.1128497,34.7735604 40.1128497,35.275861 39.8081813,35.5848473 C39.6566282,35.7385481 39.4566407,35.8161908 39.2566532,35.8161908 Z" id="Path" stroke="#FFFFFF" fill="#FFFFFF"></path>
                <path d="M46.6528603,28.4158767 C46.4522204,28.4158767 46.2515806,28.339185 46.0979657,28.1873669 C36.6349749,18.7370792 21.2358659,18.7386443 11.7728751,28.1873669 C11.4672128,28.4925683 10.9703157,28.4925683 10.6646534,28.1873669 C10.3589911,27.8821655 10.3589911,27.3860175 10.6646534,27.0808161 C20.7389687,17.0201256 37.1318721,17.0216908 47.2077549,27.0808161 C47.5134172,27.3860175 47.5134172,27.8821655 47.2077549,28.1873669 C47.05414,28.339185 46.8535001,28.4158767 46.6528603,28.4158767 Z" id="Path" stroke="#FFFFFF" fill="#FFFFFF"></path>
                <path d="M54.0536037,21.0155603 C53.8526708,21.0155603 53.6517379,20.9393805 53.4978986,20.7885757 C39.9569037,7.37938433 17.9186441,7.37627495 4.37450969,20.7885757 C4.06840094,21.09174 3.57077802,21.09174 3.26466928,20.7885757 C2.95856053,20.4854114 2.95856053,19.992575 3.26466928,19.6894107 C17.4210212,5.66922658 40.4529569,5.67233596 54.607739,19.6894107 C54.9138478,19.992575 54.9138478,20.4854114 54.607739,20.7885757 C54.4554695,20.9393805 54.2545366,21.0155603 54.0536037,21.0155603 Z" id="Path" stroke="#FFFFFF" fill="#FFFFFF"></path>
            </g>
        </g>
    </g>
</svg>