<?xml version="1.0" encoding="UTF-8"?>
<svg width="63px" height="63px" viewBox="0 0 63 63" version="1.1" xmlns="http://www.w3.org/2000/svg" xmlns:xlink="http://www.w3.org/1999/xlink">
    <!-- Generator: Sketch 52.5 (67469) - http://www.bohemiancoding.com/sketch -->
    <title>reboot</title>
    <desc>Created with Sketch.</desc>
    <g id="Page-1" stroke="none" stroke-width="1" fill="none" fill-rule="evenodd">
        <g id="Artboard" transform="translate(-266.000000, -308.000000)" fill="#FFFFFF">
            <g id="spinner" transform="translate(270.000000, 313.000000)">
                <path d="M54,20.25 L33.75,20.25 L41.3189648,12.6810352 C37.4941406,8.85642188 32.4089648,6.75 27,6.75 C21.5910352,6.75 16.5058594,8.85642188 12.6810352,12.6810352 C8.85642187,16.5058594 6.75,21.5910352 6.75,27 C6.75,32.4089648 8.85642187,37.4941406 12.6810352,41.3189648 C16.5058594,45.1435781 21.5910352,47.25 27,47.25 C32.4089648,47.25 37.4941406,45.1435781 41.3188594,41.3188594 C41.6382188,40.9996055 41.9442891,40.6706484 42.2393906,40.3344141 L47.3187656,44.7789727 C42.3698555,50.4303047 35.1021094,54 27,54 C12.0883008,54 0,41.9116992 0,27 C0,12.0883008 12.0883008,0 27,0 C34.4559023,0 41.2049531,3.02305078 46.0906875,7.9093125 L54,0 L54,20.25 Z" id="Path"></path>
            </g>
        </g>
    </g>
</svg>