<?xml version="1.0" encoding="UTF-8"?>
<svg width="62px" height="63px" viewBox="0 0 62 63" version="1.1" xmlns="http://www.w3.org/2000/svg" xmlns:xlink="http://www.w3.org/1999/xlink">
    <!-- Generator: Sketch 52.5 (67469) - http://www.bohemiancoding.com/sketch -->
    <title>shutdown</title>
    <desc>Created with Sketch.</desc>
    <g id="Page-1" stroke="none" stroke-width="1" fill="none" fill-rule="evenodd">
        <g id="Artboard" transform="translate(-469.000000, -308.000000)" fill="#FFFFFF" fill-rule="nonzero">
            <g id="switch" transform="translate(475.000000, 312.000000)">
                <path d="M32.7857143,4.24143145 L32.7857143,11.8891331 C34.8465469,12.7781155 36.7416295,14.0496012 38.3794353,15.6680397 C41.8197723,19.0678182 43.7142857,23.5881061 43.7142857,28.3960589 C43.7142857,33.2040117 41.8196585,37.7242996 38.3794353,41.1240781 C34.9392121,44.5238566 30.3652634,46.3962098 25.5,46.3962098 C20.6347366,46.3962098 16.0607879,44.5238566 12.6205647,41.1240781 C9.18034152,37.7242996 7.28571429,33.2040117 7.28571429,28.3960589 C7.28571429,23.5881061 9.18034152,19.0678182 12.6205647,15.6680397 C14.2583705,14.0494887 16.1534531,12.778003 18.2142857,11.8890206 L18.2142857,4.24143145 C7.68141964,7.33970742 0,16.9805882 0,28.3960589 C0,42.3137756 11.4168281,53.5962702 25.5,53.5962702 C39.5831719,53.5962702 51,42.3137756 51,28.3960589 C51,16.9805882 43.3186942,7.33970742 32.7857143,4.24143145 Z M21.3870968,0 L28.7903226,0 L28.7903226,28.7903226 L21.3870968,28.7903226 L21.3870968,0 Z" id="Shape"></path>
            </g>
        </g>
    </g>
</svg>