<?xml version="1.0" encoding="UTF-8" standalone="no"?>
<svg
   width="64"
   height="64"
   viewBox="0 0 64 64"
   version="1.1"
   id="svg10"
   sodipodi:docname="wifi_good.svg"
   inkscape:version="1.3 (0e150ed6c4, 2023-07-21)"
   xmlns:inkscape="http://www.inkscape.org/namespaces/inkscape"
   xmlns:sodipodi="http://sodipodi.sourceforge.net/DTD/sodipodi-0.dtd"
   xmlns="http://www.w3.org/2000/svg"
   xmlns:svg="http://www.w3.org/2000/svg"
   xmlns:rdf="http://www.w3.org/1999/02/22-rdf-syntax-ns#"
   xmlns:cc="http://creativecommons.org/ns#"
   xmlns:dc="http://purl.org/dc/elements/1.1/">
  <metadata
     id="metadata16">
    <rdf:RDF>
      <cc:Work
         rdf:about="">
        <dc:format>image/svg+xml</dc:format>
        <dc:type
           rdf:resource="http://purl.org/dc/dcmitype/StillImage" />
        <dc:title>folder</dc:title>
      </cc:Work>
    </rdf:RDF>
  </metadata>
  <defs
     id="defs14" />
  <sodipodi:namedview
     pagecolor="#bfbfbf"
     bordercolor="#666666"
     borderopacity="1"
     objecttolerance="10"
     gridtolerance="10"
     guidetolerance="10"
     inkscape:pageopacity="0"
     inkscape:pageshadow="2"
     inkscape:window-width="1600"
     inkscape:window-height="827"
     id="namedview12"
     showgrid="false"
     inkscape:pagecheckerboard="false"
     inkscape:zoom="7.6562596"
     inkscape:cx="22.857114"
     inkscape:cy="30.889757"
     inkscape:window-x="0"
     inkscape:window-y="0"
     inkscape:window-maximized="1"
     inkscape:current-layer="svg10"
     inkscape:snap-bbox="true"
     inkscape:snap-bbox-edge-midpoints="true"
     inkscape:document-rotation="0"
     inkscape:snap-bbox-midpoints="true"
     inkscape:showpageshadow="0"
     inkscape:deskcolor="#d1d1d1" />
  <!-- Generator: Sketch 52.5 (67469) - http://www.bohemiancoding.com/sketch -->
  <title
     id="title2">folder</title>
  <desc
     id="desc4">Created with Sketch.</desc>
  <path
     d="m 32.000004,52.600093 c -2.447897,0 -4.440191,-1.991948 -4.440191,-4.440963 0,-2.447472 1.992294,-4.43942 4.440191,-4.43942 2.447897,0 4.440191,1.991948 4.440191,4.43942 0,2.449015 -1.992294,4.440963 -4.440191,4.440963 z"
     id="Shape"
     fill="#ffffff"
     fill-rule="nonzero"
     style="stroke:none;stroke-width:1" />
  <path
     d="m 42.320453,38.539091 c -0.199987,0 -0.399975,-0.07764 -0.55309,-0.231344 -2.609212,-2.646189 -6.077746,-4.103971 -9.76814,-4.103971 -3.688832,0 -7.158928,1.457782 -9.766578,4.103971 -0.304668,0.308986 -0.79995,0.308986 -1.104618,0 -0.304668,-0.308986 -0.304668,-0.811287 0,-1.120273 2.904506,-2.945669 6.765202,-4.568242 10.871196,-4.568242 4.107556,0 7.968252,1.620989 10.872758,4.568242 0.304669,0.308986 0.304669,0.811287 0,1.120273 -0.151553,0.153701 -0.35154,0.231344 -0.551528,0.231344 z"
     id="Path"
     stroke="#ffffff"
     fill="#ffffff"
     style="fill-rule:evenodd;stroke-width:3;stroke-miterlimit:4;stroke-dasharray:none" />
  <path
     d="m 49.71666,31.138777 c -0.20064,0 -0.401279,-0.07669 -0.554894,-0.22851 -9.462991,-9.450288 -24.8621,-9.448723 -34.325091,0 -0.305662,0.305201 -0.802559,0.305201 -1.108222,0 -0.305662,-0.305202 -0.305662,-0.80135 0,-1.106551 10.074316,-10.06069 26.467219,-10.059125 36.543102,0 0.305662,0.305201 0.305662,0.801349 0,1.106551 -0.153615,0.151818 -0.354255,0.22851 -0.554895,0.22851 z"
     id="path8"
     stroke="#ffffff"
     fill="#ffffff"
     style="fill-rule:evenodd;stroke-width:3;stroke-miterlimit:4;stroke-dasharray:none" />
</svg>
