<svg id="eOkfqGM4D0J1" xmlns="http://www.w3.org/2000/svg" xmlns:xlink="http://www.w3.org/1999/xlink" viewBox="0 0 64 64" shape-rendering="geometricPrecision" text-rendering="geometricPrecision"><path d="M60.5,48.38858C60.5,46.806738,59.210715,45.5,57.650001,45.5L6.35,45.5c-1.560714,0-2.85,1.306738-2.85,2.88858v1.100412c0,1.581842,1.289286,2.888581,2.85,2.888581h51.300001c1.560714,0,2.849999-1.306739,2.849999-2.888581Z" fill="none" fill-rule="evenodd" stroke="#fff" stroke-width="3" stroke-linecap="round"/><polyline points="8.490196,54.607843 8.490196,59 15.078431,59 15.078431,54.607843" transform="matrix(.895012 0 0 0.894786 0.814963 5.48024)" fill="none" fill-rule="evenodd" stroke="#fff" stroke-width="3.35233" stroke-linejoin="round"/><polyline points="54.607843,54.607843 54.607843,59 61.196078,59 61.196078,54.607843" transform="matrix(.895012 0 0 0.894786 0.814963 5.48024)" fill="none" fill-rule="evenodd" stroke="#fff" stroke-width="3.35233" stroke-linejoin="round"/><ellipse rx="9.8146" ry="9.97063" transform="translate(24.7328 17.2802)" fill="#fff" fill-rule="evenodd" stroke-width="0"/><path d="M17.183083,38.031251l-6.543069-1.278285v-7.158401l1.761595-2.556571v-13.294173l-1.761595-3.067886v-6.135771l2.768221-1.533943h4.27816l1.509939,2.045257h11.072884l1.509939-2.045257h4.27816l2.768221,1.533943v6.135771l-1.761595,3.067886v13.294173l1.761595,2.556571v7.158401l-6.543069,1.278285-2.013251-2.300914h-11.072884l-2.013251,2.300914" fill="none" stroke="#fff" stroke-width="2" stroke-linecap="round" stroke-linejoin="round"/><path d="M20.20296,38.941875h9.059632" fill-opacity="0" stroke="#fff" stroke-width="2" stroke-linecap="round" stroke-linejoin="round"/><path d="M23.222837,38.941875l1.509939,2.045257l1.509938-2.045257" fill-opacity="0" stroke="#fff" stroke-width="2" stroke-linecap="round" stroke-linejoin="round"/><g transform="matrix(-.999792-.020402 0.013982-.685169 18.784224 48.698117)"><path d="M-33.549971,31.848949l5.353763,6.994411l4.854447-7.235087Z" fill="#fff" fill-rule="evenodd" stroke="#fff" stroke-width="3" stroke-linejoin="round"/><path d="M-28.453569,30.411689v-16.015418" fill="none" stroke="#fff" stroke-width="4" stroke-linecap="round"/></g><g transform="matrix(.999957 0.009235-.006329 0.685283 76.070997-6.47612)"><path d="M-33.549971,31.848949l5.353763,6.994411l4.854447-7.235087Z" fill="#fff" fill-rule="evenodd" stroke="#fff" stroke-width="3" stroke-linejoin="round"/><path d="M-28.453569,30.411689v-16.015418" fill="none" stroke="#fff" stroke-width="4" stroke-linecap="round"/></g></svg>
