<?xml version="1.0" encoding="UTF-8" standalone="no"?>
<svg
   width="64"
   height="64"
   viewBox="0 0 64 64"
   version="1.1"
   id="svg10"
   xmlns="http://www.w3.org/2000/svg"
   xmlns:svg="http://www.w3.org/2000/svg"
   xmlns:rdf="http://www.w3.org/1999/02/22-rdf-syntax-ns#"
   xmlns:cc="http://creativecommons.org/ns#"
   xmlns:dc="http://purl.org/dc/elements/1.1/">
  <metadata
     id="metadata16">
    <rdf:RDF>
      <cc:Work
         rdf:about="">
        <dc:format>image/svg+xml</dc:format>
        <dc:type
           rdf:resource="http://purl.org/dc/dcmitype/StillImage" />
        <dc:title>folder</dc:title>
      </cc:Work>
    </rdf:RDF>
  </metadata>
  <defs
     id="defs14" />
  <!-- Generator: Sketch 52.5 (67469) - http://www.bohemiancoding.com/sketch -->
  <title
     id="title2">folder</title>
  <desc
     id="desc4">Created with Sketch.</desc>
  <path
     d="M 60.5,48.38858 C 60.5,46.806738 59.210715,45.5 57.650001,45.5 H 6.35 c -1.5607142,0 -2.8499999,1.306738 -2.8499999,2.88858 v 1.100412 c 0,1.581842 1.2892857,2.888581 2.8499999,2.888581 h 51.300001 c 1.560714,0 2.849999,-1.306739 2.849999,-2.888581 z"
     id="path19"
     stroke="#ffffff"
     stroke-width="3"
     fill="#ffffff"
     stroke-linecap="round"
     style="fill-rule:evenodd;fill:none" />
  <polyline
     id="polyline21"
     stroke="#ffffff"
     stroke-width="3.35233"
     stroke-linejoin="round"
     points="8.49019608 54.6078431 8.49019608 59 15.0784314 59 15.0784314 54.6078431"
     style="fill:none;fill-rule:evenodd"
     transform="matrix(0.89501232,0,0,0.89478635,0.81496309,5.4802416)" />
  <polyline
     id="polyline23"
     stroke="#ffffff"
     stroke-width="3.35233"
     stroke-linejoin="round"
     points="54.6078431 54.6078431 54.6078431 59 61.1960784 59 61.1960784 54.6078431"
     style="fill:none;fill-rule:evenodd"
     transform="matrix(0.89501232,0,0,0.89478635,0.81496309,5.4802416)" />
  <path
     id="Arrow_1_"
     fill="none"
     stroke="#ffffff"
     stroke-width="2.4221"
     stroke-linejoin="round"
     d="m 56.5355,22.773296 -4.458,-4.504 10e-4,16.609 h -8.073 v -16.743 l -4.598,4.549 -5.679,-5.738 14.347,-14.1989999 14.196,14.3479999 z"
     style="stroke-width:2;stroke-miterlimit:4;stroke-dasharray:none" />
  <g
     id="g841"
     transform="translate(0,2)">
    <path
       fill="none"
       stroke="#ffffff"
       stroke-width="3.0024"
       stroke-miterlimit="10"
       d="m 33.723605,28.852938 c 0,1.08229 -0.881717,1.969685 -1.960976,1.969685 H 4.2353062 c -1.0785716,0 -1.9609767,-0.887395 -1.9609767,-1.969685 v -4.929742 c 0,-1.08229 0.8824051,-1.969685 1.9609767,-1.969685 H 31.764005 c 1.077883,0 1.961665,0.886013 1.961665,1.969685 v 4.929742 z"
       id="path2"
       style="stroke-width:2;stroke-miterlimit:10;stroke-dasharray:none" />
    <rect
       x="9.5318012"
       y="21.954203"
       fill="none"
       stroke="#ffffff"
       stroke-width="3.0024"
       stroke-miterlimit="10"
       width="16.93502"
       height="8.8670387"
       id="rect6"
       style="stroke-width:2;stroke-miterlimit:10;stroke-dasharray:none" />
    <path
       fill="none"
       stroke="#ffffff"
       stroke-width="3.0024"
       stroke-miterlimit="10"
       d="m 17.997935,39.311621 c -0.516228,0 -1.009053,-0.202497 -1.349763,-0.550821 L 9.5311134,31.454305 H 26.464756 l -7.231316,7.41431 c -0.332451,0.281976 -0.772965,0.443006 -1.235505,0.443006 z"
       id="path8"
       style="stroke-width:2;stroke-miterlimit:10;stroke-dasharray:none" />
    <path
       fill="none"
       stroke="#ffffff"
       stroke-width="3.0024"
       stroke-miterlimit="10"
       d="m 22.134639,2.3140211 h -8.222474 c -1.078571,0 -1.960288,0.8853217 -1.960288,1.9689941 v 12.5534608 3.151496 1.968994 h 1.960288 3.267377 1.688409 3.266688 1.960977 V 19.987972 16.836476 4.2823241 c -0.0014,-1.0829813 -0.882405,-1.968303 -1.960977,-1.968303 z"
       id="path10"
       style="stroke-width:2;stroke-miterlimit:10;stroke-dasharray:none" />
    <line
       fill="none"
       stroke="#ffffff"
       stroke-width="3.0024"
       stroke-linecap="round"
       stroke-miterlimit="10"
       x1="8.6934481"
       y1="9.8872881"
       x2="27.393278"
       y2="5.4503131"
       id="line12"
       style="stroke-width:2;stroke-miterlimit:10;stroke-dasharray:none" />
    <line
       fill="none"
       stroke="#ffffff"
       stroke-width="3.0024"
       stroke-linecap="round"
       stroke-miterlimit="10"
       x1="8.6934481"
       y1="14.280032"
       x2="27.393278"
       y2="9.8416748"
       id="line14"
       style="stroke-width:2;stroke-miterlimit:10;stroke-dasharray:none" />
    <line
       fill="none"
       stroke="#ffffff"
       stroke-width="3.0024"
       stroke-linecap="round"
       stroke-miterlimit="10"
       x1="8.6934481"
       y1="18.671392"
       x2="27.393278"
       y2="14.233727"
       id="line16"
       style="stroke-width:2;stroke-miterlimit:10;stroke-dasharray:none" />
  </g>
</svg>
